<svg viewBox="0 0 24 24"><path fill="currentColor" fill-rule="evenodd" d="M9.25 7a2.75 2.75 0 1 1 5.5 0a2.75 2.75 0 0 1-5.5 0M12 5.75a1.25 1.25 0 1 0 0 2.5a1.25 1.25 0 0 0 0-2.5" clip-rule="evenodd"/><path fill="currentColor" d="M5.31 9.707a.75.75 0 0 1 .983-.398l.001.001l.006.003l.027.011l.11.045q.149.061.42.164c.36.137.865.32 1.445.502c1.178.37 2.587.715 3.698.715s2.52-.345 3.698-.715a27 27 0 0 0 1.974-.711l.028-.011l.006-.003h.001a.75.75 0 0 1 .586 1.38l-.004.002l-.01.004l-.032.014l-.123.05a28 28 0 0 1-1.976.706c-.988.31-2.236.639-3.398.747v1.24c0 .43.124.853.357 1.216l2.524 3.925a.75.75 0 0 1-1.262.812L12 15.72l-2.37 3.686a.75.75 0 1 1-1.26-.812l2.523-3.925a2.25 2.25 0 0 0 .357-1.217v-1.239c-1.162-.108-2.41-.436-3.399-.747a28 28 0 0 1-2.098-.756l-.033-.014l-.009-.004l-.004-.001a.75.75 0 0 1-.397-.984"/><path fill="currentColor" fill-rule="evenodd" d="M1.25 12C1.25 6.063 6.063 1.25 12 1.25S22.75 6.063 22.75 12S17.937 22.75 12 22.75S1.25 17.937 1.25 12M12 2.75a9.25 9.25 0 1 0 0 18.5a9.25 9.25 0 0 0 0-18.5" clip-rule="evenodd"/></svg>