<svg viewBox="0 0 24 24"><path fill="currentColor" d="M9.879 11.293a1 1 0 1 1-1.414 1.414a1 1 0 0 1 1.414-1.414m2.828 4.243a1 1 0 1 0-1.414-1.415a1 1 0 0 0 1.414 1.415m0-7.071a1 1 0 1 1-1.414 1.414a1 1 0 0 1 1.414-1.414m2.828 4.242a1 1 0 1 0-1.414-1.414a1 1 0 0 0 1.414 1.414"/><path fill="currentColor" fill-rule="evenodd" d="M3.054 3.054a6.16 6.16 0 0 1 8.711 0l9.18 9.18a6.16 6.16 0 0 1-8.71 8.712l-9.18-9.18a6.16 6.16 0 0 1 0-8.712m7.078.573a4.66 4.66 0 0 0-6.505 6.505zm1.103 1.018l-6.59 6.59l8.12 8.12l6.59-6.59zm9.138 9.223l-6.505 6.505a4.66 4.66 0 0 0 6.505-6.505" clip-rule="evenodd"/></svg>