<svg viewBox="0 0 24 24"><g fill="none"><path stroke="currentColor" stroke-width="1.5" d="M3.213 9.071a4.142 4.142 0 0 1 5.858-5.858L20.787 14.93a4.142 4.142 0 0 1-5.858 5.858z"/><path stroke="currentColor" stroke-width="1.5" d="m12 17.858l-2.929 2.929a4.142 4.142 0 0 1-5.858-5.858L6.143 12zm0-11.716l2.929-2.929a4.142 4.142 0 0 1 5.858 5.858L17.857 12z"/><path fill="currentColor" d="M15.841 12.871a.788.788 0 1 1-1.114 1.114a.788.788 0 0 1 1.114-1.114m-3.712-3.712a.787.787 0 1 0-1.114 1.114a.787.787 0 0 0 1.114-1.114m4.641 6.497a.787.787 0 1 1-1.114 1.114a.787.787 0 0 1 1.114-1.114M9.345 8.23A.788.788 0 1 0 8.23 9.346A.788.788 0 0 0 9.345 8.23m3.712 3.713a.787.787 0 1 1-1.113 1.114a.787.787 0 0 1 1.113-1.114m.928 2.785a.788.788 0 1 1-1.114 1.113a.788.788 0 0 1 1.114-1.113m-3.712-3.713a.787.787 0 1 0-1.114 1.114a.787.787 0 0 0 1.114-1.114"/></g></svg>