<svg viewBox="0 0 24 24"><path fill="currentColor" d="M22 18a4 4 0 1 1-8 0a4 4 0 0 1 8 0" opacity=".5"/><path fill="currentColor" d="M16.47 16.47a.75.75 0 0 1 1.06 0l.47.47l.47-.47a.75.75 0 0 1 1.06 1.06l-.47.47l.47.47a.75.75 0 0 1-1.06 1.06l-.47-.47l-.47.47a.75.75 0 0 1-1.06-1.06l.47-.47l-.47-.47a.75.75 0 0 1 0-1.06"/><path fill="currentColor" fill-rule="evenodd" d="M22 7.3V5.188c0-.175 0-.262-.004-.335c-.08-1.541-1.385-2.774-3.017-2.85C18.901 2 18.81 2 18.625 2c-.307 0-.46 0-.59.006c-2.72.126-4.895 2.18-5.029 4.749c-.006.122-.006.267-.006.558v8.393a5.5 5.5 0 0 1 4.765-3.201V11.3c0-.552.474-1 1.058-1c1.755 0 3.177-1.343 3.177-3M20.25 5a.75.75 0 0 0-1.5 0v2.5a.75.75 0 0 0 1.5 0z" clip-rule="evenodd"/><path fill="currentColor" d="M2 9.3V7.187c0-.174 0-.26.004-.334c.08-1.541 1.385-2.774 3.017-2.85C5.098 4 5.19 4 5.375 4c.307 0 .46 0 .59.006c2.72.126 4.895 2.18 5.029 4.749c.006.122.006.267.006.557V19.75C11 20.993 9.933 22 8.618 22s-2.383-1.007-2.383-2.25V13.3c0-.552-.474-1-1.059-1C3.422 12.3 2 10.957 2 9.3" opacity=".5"/><path fill="currentColor" d="M11 18.25H6.235v1.5H11zm-6.5-12a.75.75 0 0 0-.75.75v2.5a.75.75 0 0 0 1.5 0V7a.75.75 0 0 0-.75-.75"/></svg>