<svg viewBox="0 0 24 24"><path fill="currentColor" fill-rule="evenodd" d="M11.955 1.25h.09c1.837 0 3.276 0 4.419.124c1.165.126 2.11.388 2.916.974a5.8 5.8 0 0 1 1.272 1.272c.586.807.848 1.75.974 2.916c.124 1.143.124 2.582.124 4.419v2.09c0 1.837 0 3.276-.124 4.419c-.126 1.165-.388 2.11-.974 2.916a5.8 5.8 0 0 1-1.272 1.272c-.807.586-1.75.848-2.916.974c-1.143.124-2.582.124-4.419.124h-.09c-1.837 0-3.276 0-4.419-.124c-1.165-.126-2.11-.388-2.916-.974a5.8 5.8 0 0 1-1.272-1.272c-.586-.807-.848-1.75-.974-2.916c-.124-1.143-.124-2.582-.124-4.419v-2.09c0-1.837 0-3.276.124-4.419c.126-1.165.388-2.11.974-2.916A5.8 5.8 0 0 1 4.62 2.348c.807-.586 1.75-.848 2.916-.974c1.143-.124 2.582-.124 4.419-.124M7.698 2.865c-1.038.112-1.688.328-2.196.697a4.3 4.3 0 0 0-.94.94c-.37.508-.585 1.158-.697 2.196C3.751 7.75 3.75 9.108 3.75 11v2c0 1.892.001 3.25.115 4.302c.112 1.038.328 1.688.697 2.196c.262.36.58.678.94.94c.508.37 1.158.585 2.196.697c1.052.114 2.41.115 4.302.115s3.25-.001 4.302-.115c1.038-.113 1.688-.328 2.196-.697c.36-.262.678-.58.94-.94c.37-.508.585-1.158.697-2.196c.114-1.052.115-2.41.115-4.302v-2c0-1.892-.001-3.25-.115-4.302c-.113-1.038-.328-1.688-.697-2.196a4.3 4.3 0 0 0-.94-.94c-.508-.37-1.158-.585-2.196-.697c-1.052-.114-2.41-.115-4.302-.115s-3.25.001-4.302.115M6.25 9A.75.75 0 0 1 7 8.25h10a.75.75 0 0 1 0 1.5H7A.75.75 0 0 1 6.25 9m6.219 3.414a.75.75 0 0 1 .117 1.055L11.56 14.75H14a.75.75 0 0 1 .586 1.219l-2 2.5a.75.75 0 1 1-1.172-.937l1.026-1.282H10a.75.75 0 0 1-.586-1.218l2-2.5a.75.75 0 0 1 1.055-.118" clip-rule="evenodd"/></svg>