<svg viewBox="0 0 24 24"><path fill="currentColor" d="M12 22a9 9 0 1 0 0-18a9 9 0 0 0 0 18" opacity=".5"/><path fill="currentColor" d="M13.026 10.275a15 15 0 0 0-.784-.508c-1.073-.652-1.609-.978-2.09-.617c-.48.36-.524 1.116-.612 2.628c-.024.427-.04.846-.04 1.222s.016.795.04 1.222c.088 1.512.132 2.267.612 2.628c.481.361 1.018.035 2.09-.617c.278-.169.547-.341.784-.508c.27-.19.565-.418.862-.66C14.963 14.188 15.5 13.75 15.5 13s-.537-1.188-1.612-2.065c-.297-.242-.591-.47-.862-.66"/><path fill="currentColor" fill-rule="evenodd" d="M8.24 2.34a.72.72 0 0 1-.232.996l-3.891 2.41a.734.734 0 0 1-1.006-.23a.72.72 0 0 1 .232-.996l3.892-2.41a.734.734 0 0 1 1.006.23m7.519 0a.734.734 0 0 1 1.005-.23l3.892 2.41a.72.72 0 0 1 .232.996a.734.734 0 0 1-1.006.23l-3.891-2.41a.72.72 0 0 1-.233-.996" clip-rule="evenodd"/></svg>