<svg viewBox="0 0 24 24"><path fill="currentColor" fill-rule="evenodd" d="M8.136 1.603a.75.75 0 0 1-.238 1.033l-4 2.5a.75.75 0 0 1-.796-1.272l4-2.5a.75.75 0 0 1 1.034.239m7.728 0a.75.75 0 0 1 1.034-.239l4 2.5a.75.75 0 1 1-.796 1.272l-4-2.5a.75.75 0 0 1-.238-1.033M12 4.75a8.25 8.25 0 1 0 0 16.5a8.25 8.25 0 0 0 0-16.5M2.25 13c0-5.385 4.365-9.75 9.75-9.75s9.75 4.365 9.75 9.75s-4.365 9.75-9.75 9.75S2.25 18.385 2.25 13M12 9.25a.75.75 0 0 1 .75.75v2.25H15a.75.75 0 0 1 0 1.5h-2.25V16a.75.75 0 0 1-1.5 0v-2.25H9a.75.75 0 0 1 0-1.5h2.25V10a.75.75 0 0 1 .75-.75" clip-rule="evenodd"/></svg>