<svg viewBox="0 0 24 24"><path fill="currentColor" fill-rule="evenodd" d="M1.25 3A.75.75 0 0 1 2 2.25h20a.75.75 0 0 1 0 1.5H2A.75.75 0 0 1 1.25 3m6.218 3.25h.064c.44 0 .82 0 1.13.028c.33.03.656.096.963.273c.342.198.626.482.824.824c.177.307.243.633.273.962c.028.312.028.691.028 1.13v9.065c0 .44 0 .82-.028 1.13c-.03.33-.096.656-.273.963a2.25 2.25 0 0 1-.824.824c-.307.177-.633.243-.962.273c-.312.028-.691.028-1.13.028h-.065c-.44 0-.82 0-1.13-.028c-.33-.03-.656-.096-.963-.273a2.25 2.25 0 0 1-.824-.824c-.177-.307-.243-.633-.273-.962a14 14 0 0 1-.028-1.13V9.467c0-.44 0-.82.028-1.13c.03-.33.096-.656.273-.963a2.25 2.25 0 0 1 .824-.824c.307-.177.633-.243.962-.273c.312-.028.691-.028 1.13-.028m-.995 1.522c-.225.02-.307.055-.348.078a.75.75 0 0 0-.275.275c-.023.04-.058.123-.078.348c-.021.235-.022.546-.022 1.027v9c0 .481 0 .792.022 1.027c.02.225.055.307.078.348a.75.75 0 0 0 .275.274c.04.024.123.058.348.079c.235.021.546.022 1.027.022s.792 0 1.027-.022c.225-.02.307-.055.348-.079a.75.75 0 0 0 .275-.274c.023-.04.058-.123.078-.348c.021-.235.022-.546.022-1.027v-9c0-.481 0-.792-.022-1.027c-.02-.225-.055-.307-.078-.348a.75.75 0 0 0-.275-.275c-.04-.023-.123-.058-.348-.078A13 13 0 0 0 7.5 7.75c-.481 0-.792 0-1.027.022m9.995-1.522h.064c.44 0 .82 0 1.13.028c.33.03.656.096.963.273c.342.198.626.482.824.824c.177.307.243.633.273.962c.028.312.028.691.028 1.13v6.065c0 .44 0 .82-.028 1.13c-.03.33-.096.656-.273.963a2.25 2.25 0 0 1-.824.824c-.307.177-.633.243-.962.273c-.312.028-.691.028-1.13.028h-.065c-.44 0-.82 0-1.13-.028c-.33-.03-.656-.096-.963-.273a2.25 2.25 0 0 1-.824-.824c-.177-.307-.243-.633-.273-.962c-.028-.312-.028-.691-.028-1.13V9.467c0-.44 0-.82.028-1.13c.03-.33.096-.656.273-.963a2.25 2.25 0 0 1 .824-.824c.307-.177.633-.243.962-.273c.312-.028.691-.028 1.13-.028m-.995 1.522c-.225.02-.307.055-.348.078a.75.75 0 0 0-.274.275c-.024.04-.059.123-.079.348c-.021.235-.022.546-.022 1.027v6c0 .481 0 .792.022 1.027c.02.225.055.307.079.348a.75.75 0 0 0 .274.274c.04.024.123.058.348.079c.235.021.546.022 1.027.022s.792 0 1.027-.022c.225-.02.307-.055.348-.079a.75.75 0 0 0 .274-.274c.024-.04.058-.123.079-.348c.021-.235.022-.546.022-1.027v-6c0-.481 0-.792-.022-1.027c-.02-.225-.055-.307-.079-.348a.75.75 0 0 0-.274-.275c-.04-.023-.123-.058-.348-.078A13 13 0 0 0 16.5 7.75c-.481 0-.792 0-1.027.022" clip-rule="evenodd"/></svg>