<svg viewBox="0 0 24 24"><path fill="currentColor" d="M12.558 17.502a.75.75 0 0 1-1.115 0l-3-3.334a.75.75 0 0 1 1.114-1.003l1.693 1.88V7H4c-.15 0-.355 0-.5-.002V13c0 3.771 0 5.657 1.172 6.828S7.729 21 11.5 21h1c3.771 0 5.657 0 6.828-1.172S20.5 16.771 20.5 13V6.998C20.355 7 20.15 7 20 7h-7.25v8.046l1.693-1.881a.75.75 0 0 1 1.114 1.003z"/><path fill="currentColor" d="M2 5c0-.943 0-1.414.293-1.707S3.057 3 4 3h16c.943 0 1.414 0 1.707.293S22 4.057 22 5s0 1.414-.293 1.707S20.943 7 20 7H4c-.943 0-1.414 0-1.707-.293S2 5.943 2 5" opacity=".5"/></svg>