<svg viewBox="0 0 24 24"><path fill="currentColor" d="M2 5c0-.943 0-1.414.293-1.707S3.057 3 4 3h16c.943 0 1.414 0 1.707.293S22 4.057 22 5s0 1.414-.293 1.707S20.943 7 20 7H4c-.943 0-1.414 0-1.707-.293S2 5.943 2 5"/><path fill="currentColor" fill-rule="evenodd" d="m20.069 8.5l.431-.002V13c0 3.771 0 5.657-1.172 6.828S16.271 21 12.5 21h-1c-3.771 0-5.657 0-6.828-1.172S3.5 16.771 3.5 13V8.498l.431.002zm-5.07 3.69a.75.75 0 0 1 .06 1.06l-3.571 4a.75.75 0 0 1-1.119 0l-1.428-1.6a.75.75 0 1 1 1.118-1l.87.974l3.012-3.373a.75.75 0 0 1 1.058-.06" clip-rule="evenodd"/></svg>