<svg viewBox="0 0 24 24"><path fill="currentColor" fill-rule="evenodd" d="M11.5 21h1c3.771 0 5.657 0 6.828-1.172S20.5 16.771 20.5 13V6.998C20.355 7 20.15 7 20 7H4c-.15 0-.355 0-.5-.002V13c0 3.771 0 5.657 1.172 6.828S7.729 21 11.5 21m3.56-9.5a.75.75 0 0 0-1.12-1l-3.011 3.374l-.87-.974a.75.75 0 0 0-1.118 1l1.428 1.6a.75.75 0 0 0 1.119 0z" clip-rule="evenodd"/><path fill="currentColor" d="M2 5c0-.943 0-1.414.293-1.707S3.057 3 4 3h16c.943 0 1.414 0 1.707.293S22 4.057 22 5s0 1.414-.293 1.707S20.943 7 20 7H4c-.943 0-1.414 0-1.707-.293S2 5.943 2 5" opacity=".5"/></svg>