<svg viewBox="0 0 24 24"><g fill="none"><path fill="currentColor" d="M17.79 16.333v.75a.75.75 0 0 0 .75-.75zm-11.58 0h-.75c0 .415.336.75.75.75zm-3.46-.476a.75.75 0 0 0-1.5 0zM4.916 20.9l.177-.729zm-2.822-3.01l-.733.157zm16.99 3.01l.178.728zm2.822-3.01l-.733-.157zM12 17.083a.75.75 0 0 0 0-1.5zm4-1.5a.75.75 0 0 0 0 1.5zM1.25 12a.75.75 0 0 0 1.5 0zm15.79-.754v5.087h1.5v-5.087zm-11.58 0v5.087h1.5v-5.087zm15.79 0v4.611h1.5v-4.611zM4.105 9.75c.704 0 1.356.623 1.356 1.496h1.5c0-1.608-1.234-2.996-2.856-2.996zm15.79-1.5c-1.622 0-2.855 1.388-2.855 2.996h1.5c0-.873.651-1.496 1.355-1.496zm0 1.5c.703 0 1.355.623 1.355 1.496h1.5c0-1.608-1.233-2.996-2.855-2.996zM6.82 20.25c-1.04 0-1.426-.005-1.728-.079l-.355 1.457c.521.127 1.131.122 2.083.122zm-5.57-4.393c0 1.024-.004 1.654.11 2.19l1.467-.314c-.073-.342-.077-.775-.077-1.876zm3.843 4.314c-1.104-.269-2-1.2-2.266-2.438l-1.466.314c.376 1.758 1.672 3.166 3.377 3.581zM4.105 8.25c-1.622 0-2.855 1.388-2.855 2.996h1.5c0-.873.652-1.496 1.355-1.496zm13.074 13.5c.952 0 1.562.005 2.083-.122l-.355-1.457c-.302.074-.689.079-1.728.079zm4.071-5.893c0 1.101-.004 1.534-.077 1.876l1.466.314c.115-.537.111-1.166.111-2.19zm-1.988 5.771c1.704-.415 3.001-1.823 3.377-3.581l-1.466-.314c-.265 1.238-1.162 2.17-2.266 2.438zM6.21 17.083H12v-1.5H6.21zm9.789 0h1.79v-1.5H16zm1.179 3.167H12v1.5h5.179zm-5.179 0H6.821v1.5H12zM1.25 11.246V12h1.5v-.754z"/><path stroke="currentColor" stroke-width="1.5" d="M6 10V8.154c0-2.3 0-3.451.482-4.308A3.65 3.65 0 0 1 7.8 2.495C8.635 2 9.757 2 12 2s3.365 0 4.2.495c.547.324 1.002.79 1.318 1.351C18 4.703 18 5.853 18 8.154V10"/><path stroke="currentColor" stroke-linecap="round" stroke-width="1.5" d="M19 22v-1M4 22v-1"/></g></svg>