<svg viewBox="0 0 24 24"><g fill="none"><path stroke="currentColor" stroke-linecap="round" stroke-width="1.5" d="m17.262 13.6l1.001-2.466c.276-.68 1-1.134 1.81-1.134c1.314 0 2.242 1.15 1.827 2.264l-1.12 3c-.195.524-.292.785-.421 1.008c-.524.904-1.498 1.53-2.624 1.69c-.276.038-.585.038-1.202.038H6.766c-1.5-.021-2.827-.876-3.324-2.14l-.039-.103h0L2.1 12.264C1.685 11.15 2.613 10 3.927 10c.81 0 1.534.453 1.81 1.134l1.098 2.706h0c.1.246.15.37.222.47a1.2 1.2 0 0 0 .74.463c.13.027.277.027.57.027h6.98c.569 0 .853 0 1.091-.098q.196-.082.349-.219c.184-.166.281-.405.475-.883Z"/><path fill="currentColor" d="m17.297 4.67l-.517.543zm-10.594 0l-.517-.544zM12 3.25a.75.75 0 0 0 0 1.5zM8.118 4.848a.75.75 0 0 0-.236-1.481zM6.75 12V8.571h-1.5V12zm10.5-3.429V12h1.5V8.571zM13.2 4.75c1.152 0 1.943.001 2.538.078c.577.073.854.206 1.042.385l1.034-1.087c-.515-.49-1.155-.693-1.885-.786c-.713-.091-1.618-.09-2.729-.09zm5.55 3.821c0-1.055.002-1.925-.095-2.612c-.1-.713-.32-1.337-.84-1.833L16.78 5.213c.182.173.314.423.39.955c.078.558.08 1.304.08 2.403zm-12 0c0-1.1.002-1.845.08-2.403c.076-.532.208-.782.39-.955L6.186 4.126c-.52.496-.74 1.12-.84 1.833c-.098.687-.096 1.557-.096 2.612zM12 4.75h1.2v-1.5H12zM7.882 3.367c-.653.104-1.227.312-1.696.76L7.22 5.212c.172-.164.418-.288.898-.365z"/><path stroke="currentColor" stroke-linecap="round" stroke-width="1.5" d="M18 20v-2M6 20v-1.333"/></g></svg>