<svg viewBox="0 0 24 24"><path fill="currentColor" fill-rule="evenodd" d="M12 2.75a9.25 9.25 0 0 0-9.243 9.614a6.75 6.75 0 0 1 7.655 8.75q.774.136 1.588.136a9.255 9.255 0 0 0 8.929-6.824a6.752 6.752 0 0 1-3.644-10.019A9.2 9.2 0 0 0 12 2.75m6.453 2.623a5.253 5.253 0 0 0 2.75 7.562q.047-.462.047-.935a9.22 9.22 0 0 0-2.797-6.627M9.187 22.378A10.76 10.76 0 0 1 1.25 12C1.25 6.063 6.063 1.25 12 1.25c2.575 0 4.94.906 6.792 2.417A10.73 10.73 0 0 1 22.75 12a11 11 0 0 1-.19 2.025c-.948 4.969-5.315 8.725-10.56 8.725c-.972 0-1.916-.13-2.813-.372m-.231-1.64a5.25 5.25 0 0 0-6.02-6.88a9.27 9.27 0 0 0 6.02 6.88M10.5 6.75a1.75 1.75 0 1 0 0 3.5a1.75 1.75 0 0 0 0-3.5M7.25 8.5a3.25 3.25 0 1 1 6.5 0a3.25 3.25 0 0 1-6.5 0M15 15.75a.25.25 0 1 0 0 .5a.25.25 0 0 0 0-.5m-1.75.25a1.75 1.75 0 1 1 3.5 0a1.75 1.75 0 0 1-3.5 0" clip-rule="evenodd"/></svg>