<svg viewBox="0 0 24 24"><path fill="currentColor" d="M10 4.25h2a.75.75 0 0 1 0 1.5h-2a.75.75 0 1 1 0-1.5m-.257 4.94a.75.75 0 0 1-.64.846h-.006l-.007.002l-.02.002l-.063.006q-.076.006-.201.01a4 4 0 0 1-.655-.047c-.52-.082-1.216-.307-1.802-.893s-.81-1.282-.894-1.802a3.8 3.8 0 0 1-.03-.919l.002-.02l.001-.007a.75.75 0 0 1 1.487.194c-.036.662.311 1.987 1.988 1.987a.75.75 0 0 1 .84.641m1.227-1.22a.75.75 0 0 1 1.06 0l1 1a.75.75 0 1 1-1.06 1.06l-1-1a.75.75 0 0 1 0-1.06M15.25 12a.75.75 0 0 0-1.5 0v2a.75.75 0 0 0 1.5 0zm2.223 5.566l-.002-.002h-.001l-.003-.004l-.008-.006l-.018-.017l-.049-.049a2.6 2.6 0 0 1-.484-.734c-.226-.511-.358-1.234-.116-2.139c.243-.905.719-1.465 1.17-1.795a2.6 2.6 0 0 1 .786-.393l.067-.018l.024-.005l.01-.002l.004-.001h.002s.002-.001.145.735l-.143-.736a.75.75 0 0 1 .303 1.469h-.003l-.058.021a1 1 0 0 0-.25.14c-.193.141-.459.418-.608.973c-.149.556-.057.928.04 1.146a1.1 1.1 0 0 0 .186.294l.002.002a.75.75 0 0 1-.996 1.12M5.607 10.787a.75.75 0 1 0-1.386-.574l-.414 1a.75.75 0 1 0 1.386.574zm8.955-2.872a.75.75 0 0 1-.194-1.487l.09-.01q.076-.006.201-.01c.165-.002.393.005.655.047c.52.083 1.217.307 1.803.893s.81 1.283.893 1.803a3.8 3.8 0 0 1 .03.918c-.056.41-.439.73-.849.674a.75.75 0 0 1-.641-.84c0-1.678-1.325-2.024-1.988-1.988m-.68 9.265a.75.75 0 1 0-.921 1.184l1.578 1.228a.75.75 0 1 0 .921-1.184z"/><path fill="currentColor" fill-rule="evenodd" d="M9 11.25a3.75 3.75 0 1 0 0 7.5a3.75 3.75 0 0 0 0-7.5M6.75 15a2.25 2.25 0 1 1 4.5 0a2.25 2.25 0 0 1-4.5 0" clip-rule="evenodd"/><path fill="currentColor" fill-rule="evenodd" d="M1.25 12C1.25 6.063 6.063 1.25 12 1.25S22.75 6.063 22.75 12S17.937 22.75 12 22.75S1.25 17.937 1.25 12M12 2.75a9.25 9.25 0 1 0 0 18.5a9.25 9.25 0 0 0 0-18.5" clip-rule="evenodd"/></svg>