<svg viewBox="0 0 24 24"><path fill="currentColor" d="M4.083 10.894c.439-2.34.658-3.511 1.491-4.203C6.408 6 7.598 6 9.98 6h4.04c2.383 0 3.573 0 4.407.691c.833.692 1.052 1.862 1.491 4.203l.75 4c.617 3.292.926 4.938.026 6.022S18.12 22 14.771 22H9.23c-3.349 0-5.024 0-5.923-1.084c-.9-1.084-.591-2.73.026-6.022z" opacity=".5"/><path fill="currentColor" d="M9.75 5a2.25 2.25 0 0 1 4.5 0v1c.566 0 1.062.002 1.5.015V5a3.75 3.75 0 1 0-7.5 0v1.015C8.688 6.002 9.184 6 9.75 6z"/><path fill="currentColor" fill-rule="evenodd" d="M12.75 17a2.75 2.75 0 1 1-1.5-2.45v-2.72c0-.163 0-.375.031-.541c.081-.422.314-.8.656-1.061a2.5 2.5 0 0 1 .433-.251l1.37-.685q.305-.155.529-.256c.15-.065.33-.133.528-.156a1.75 1.75 0 0 1 1.848 1.142c.068.188.088.378.096.543c.009.161.009.36.009.587v.06c0 .162 0 .333-.031.499c-.081.422-.315.8-.656 1.061a2.6 2.6 0 0 1-.433.251l-1.37.685c-.203.102-.38.19-.529.255c-.15.066-.33.134-.528.157a1.8 1.8 0 0 1-.453-.006zm2.118-6.588c.07-.031.102-.04.11-.043a.25.25 0 0 1 .254.157a1 1 0 0 1 .012.117c.006.118.006.277.006.528a7 7 0 0 1-.005.259a.25.25 0 0 1-.093.15l-.038.022l-.191.098l-1.317.658a10 10 0 0 1-.474.23a1 1 0 0 1-.11.043a.25.25 0 0 1-.254-.157a1 1 0 0 1-.012-.117a11 11 0 0 1-.006-.528a7 7 0 0 1 .005-.259a.25.25 0 0 1 .093-.15l.038-.022c.04-.023.095-.05.191-.098l1.317-.658c.224-.113.366-.183.474-.23M10 15.75a1.25 1.25 0 1 1 0 2.5a1.25 1.25 0 0 1 0-2.5" clip-rule="evenodd"/></svg>