<svg viewBox="0 0 24 24"><g fill="none"><path stroke="currentColor" stroke-width="1.5" d="M3.742 20.555C4.942 22 7.174 22 11.639 22h.722c4.465 0 6.698 0 7.897-1.445m-16.516 0c-1.2-1.446-.789-3.64.034-8.03c.586-3.12.878-4.681 1.99-5.603M3.741 20.555Zm16.516 0c1.2-1.446.788-3.64-.034-8.03c-.586-3.12-.878-4.681-1.99-5.603m2.024 13.633ZM18.235 6.922C17.124 6 15.536 6 12.36 6h-.722c-3.175 0-4.763 0-5.874.922m12.47 0Zm-12.47 0Z"/><path stroke="currentColor" stroke-linecap="round" stroke-width="1.5" d="M9 6V5a3 3 0 1 1 6 0v1" opacity=".5"/><path fill="currentColor" d="m12.742 10.63l-.336-.672zm1.316-.66l-.335-.67zm-.116 3.06l-.336-.672zm-1.882-.307l.705-.256zm1.056.652l-.087-.745zm2.866-1.805l.737.141zm-.375.606l.456.596zm-.723-2.551l.087.745zm1.056.652l-.705.256zm-3.547.547l.455.595zm-.375.606l-.737-.141zM11.25 17c0 .69-.56 1.25-1.25 1.25v1.5A2.75 2.75 0 0 0 12.75 17zM10 18.25c-.69 0-1.25-.56-1.25-1.25h-1.5A2.75 2.75 0 0 0 10 19.75zM8.75 17c0-.69.56-1.25 1.25-1.25v-1.5A2.75 2.75 0 0 0 7.25 17zM10 15.75c.69 0 1.25.56 1.25 1.25h1.5A2.75 2.75 0 0 0 10 14.25zM12.75 17v-5h-1.5v5zm.327-5.7l1.317-.658l-.671-1.342l-1.317.658zm1.846.4l-1.317.658l.671 1.342l1.317-.658zm-3.673.13c0 .234 0 .44.008.605c.01.165.029.355.097.543l1.41-.51c.008.022-.002.008-.009-.111a11 11 0 0 1-.006-.528zm2.356.528a10 10 0 0 1-.474.23c-.11.048-.127.045-.103.042l.174 1.49c.198-.023.377-.09.528-.156c.153-.067.336-.16.546-.264zm-2.251.62a1.75 1.75 0 0 0 1.848 1.142l-.174-1.49a.25.25 0 0 1-.264-.163zm3.895-1.807c0 .107 0 .168-.002.214l-.002.044l1.473.282c.034-.18.031-.367.031-.54zm.344 1.87c.155-.077.324-.158.469-.269l-.911-1.191l-.038.021l-.191.098zm-.348-1.612a.25.25 0 0 1-.094.152l.91 1.191a1.75 1.75 0 0 0 .657-1.061zm-.852-.787c.224-.113.366-.183.474-.23c.11-.048.127-.045.103-.042l-.174-1.49c-.198.023-.377.09-.528.156c-.153.067-.336.16-.546.264zm2.356.529c0-.235 0-.44-.009-.606a1.9 1.9 0 0 0-.096-.543l-1.41.51c-.008-.022.002-.008.009.111c.006.118.006.277.006.528zm-1.779-.801a.25.25 0 0 1 .264.163l1.41-.511a1.75 1.75 0 0 0-1.848-1.142zm-2.565-.412c-.155.078-.324.159-.469.27l.911 1.191l.038-.021c.04-.023.095-.05.191-.098zm.344 1.871c0-.107 0-.168.002-.214l.002-.044l-1.473-.282c-.034.18-.031.367-.031.54zm-.813-1.601a1.75 1.75 0 0 0-.656 1.061l1.473.282a.25.25 0 0 1 .094-.152z" opacity=".5"/></g></svg>