<svg viewBox="0 0 24 24"><path fill="currentColor" fill-rule="evenodd" d="M8.367 3.492c.499.396 1.172.95 1.905 1.607c.702.63 1.473 1.366 2.203 2.161c1.403-1.191 2.486-2.535 3.044-3.815a9.3 9.3 0 0 0-2.414-.63a9.2 9.2 0 0 0-4.738.677m8.491.634c-.678 1.509-1.901 2.993-3.405 4.271a14 14 0 0 1 1.197 1.728c.41.71.774 1.533 1.095 2.396c1.812-.683 3.717-1.021 5.502-.805a9.2 9.2 0 0 0-1.236-4.341a9.2 9.2 0 0 0-3.153-3.249m4.312 9.093c-1.536-.209-3.255.08-4.944.724c.29.937.535 1.876.733 2.729a52 52 0 0 1 .563 2.75a9.2 9.2 0 0 0 2.984-3.788c.33-.771.553-1.585.664-2.415m-5.026 7.05a51 51 0 0 0-.645-3.257a39 39 0 0 0-.655-2.461q-.614.307-1.207.667c-2.412 1.468-4.342 3.47-5.156 5.337a9.24 9.24 0 0 0 7.663-.285m-9.002-.395c1.001-2.227 3.19-4.401 5.715-5.937q.73-.445 1.508-.822c-.302-.823-.64-1.593-1.014-2.24A13 13 0 0 0 12.27 9.32a18 18 0 0 1-1.064.706c-2.57 1.578-5.658 2.597-8.454 2.259a9.2 9.2 0 0 0 1.237 4.34a9.2 9.2 0 0 0 3.153 3.25M2.83 10.78a9.24 9.24 0 0 1 4.092-6.513q.188.143.466.363c.486.383 1.154.931 1.883 1.585c.66.592 1.358 1.26 2.012 1.965q-.42.293-.862.566C7.973 10.25 5.187 11.1 2.83 10.78m3.795-8.09a10.7 10.7 0 0 1 6.66-1.364a10.74 10.74 0 0 1 8.025 5.299a10.74 10.74 0 0 1 .576 9.598a10.7 10.7 0 0 1-4.511 5.087c-5.142 2.968-11.716 1.206-14.685-3.935C-.278 12.233 1.483 5.658 6.625 2.69" clip-rule="evenodd"/></svg>