<svg viewBox="0 0 24 24"><path fill="currentColor" d="M13.453 8.397c1.728-1.469 3.087-3.21 3.672-4.949l.01-.031A9.96 9.96 0 0 1 20.66 7A9.95 9.95 0 0 1 22 11.842c-1.995-.431-4.186-.1-6.256.68c-.32-.864-.685-1.688-1.094-2.397a14 14 0 0 0-1.197-1.728"/><path fill="currentColor" fill-rule="evenodd" d="M3.34 17a9.95 9.95 0 0 0 3.525 3.583v-.002c.818-2.468 3.2-4.945 5.992-6.644q.73-.445 1.508-.822c-.302-.823-.64-1.593-1.014-2.24a13 13 0 0 0-1.082-1.556q-.519.372-1.064.706c-2.757 1.693-6.112 2.743-9.061 2.162l-.145-.028a9.96 9.96 0 0 0 1.34 4.84" clip-rule="evenodd"/><path fill="currentColor" d="M16.226 13.943c1.887-.72 3.811-.996 5.477-.63l.204.045a10 10 0 0 1-.71 2.57a9.95 9.95 0 0 1-3.538 4.317l-.013-.079a52 52 0 0 0-.687-3.494a40 40 0 0 0-.733-2.73M8.319 3.454a35 35 0 0 0-.6-.465l-.023-.016a9.95 9.95 0 0 1 5.5-.902c.887.107 1.757.333 2.584.67l-.077.229c-.477 1.418-1.65 2.95-3.228 4.29a32 32 0 0 0-2.203-2.16A42 42 0 0 0 8.32 3.453m2.1 5.294c-2.586 1.588-5.55 2.449-7.987 1.969l-.342-.068a10 10 0 0 1 4.19-6.853l.328.239l.002.001l.01.007l.039.029l.154.115a40 40 0 0 1 2.456 2.03c.66.592 1.358 1.26 2.013 1.965q-.42.293-.863.566m5.785 11.916l.002.012v.004l.053.369a10 10 0 0 1-8.04.21l.069-.204c.663-2.002 2.72-4.237 5.348-5.836q.592-.36 1.206-.667c.252.83.471 1.671.655 2.462a51 51 0 0 1 .699 3.597z" opacity=".5"/></svg>