<svg viewBox="0 0 24 24"><path fill="currentColor" fill-rule="evenodd" d="M6.865 20.583A9.96 9.96 0 0 1 3.339 17A9.96 9.96 0 0 1 2 12.159l.145.028c2.949.581 6.304-.469 9.061-2.162q.545-.334 1.065-.706c.413.516.783 1.04 1.08 1.556c.375.647.713 1.417 1.015 2.24q-.778.377-1.508.822c-2.792 1.699-5.174 4.176-5.992 6.644zm9.395.465a10 10 0 0 1-8.04.21l.069-.204c.663-2.002 2.72-4.237 5.348-5.836q.592-.36 1.206-.667c.252.83.471 1.671.655 2.462a51 51 0 0 1 .699 3.597l.008.053l.002.012v.004z" clip-rule="evenodd"/><path fill="currentColor" d="M16.226 13.943c1.887-.72 3.811-.996 5.477-.63l.204.045a10 10 0 0 1-.71 2.57a9.95 9.95 0 0 1-3.538 4.317l-.013-.079a52 52 0 0 0-.687-3.494a40 40 0 0 0-.733-2.73m-2.773-5.545c1.728-1.469 3.087-3.21 3.672-4.949l.01-.03A9.96 9.96 0 0 1 20.66 7A9.95 9.95 0 0 1 22 11.842c-1.995-.431-4.186-.1-6.256.68c-.32-.864-.685-1.687-1.094-2.397a14 14 0 0 0-1.197-1.728M8.319 3.454a35 35 0 0 0-.6-.465l-.023-.016a9.95 9.95 0 0 1 5.5-.902c.887.107 1.757.333 2.584.67l-.077.229c-.477 1.418-1.65 2.95-3.228 4.29a32 32 0 0 0-2.203-2.16A42 42 0 0 0 8.32 3.453m2.1 5.294c-2.586 1.588-5.55 2.449-7.987 1.969l-.342-.068a10 10 0 0 1 4.19-6.853l.328.239l.002.001l.01.007l.039.029l.154.115a40 40 0 0 1 2.456 2.03c.66.592 1.358 1.26 2.013 1.965q-.42.293-.863.566"/></svg>