<svg viewBox="0 0 24 24"><g fill="none"><path stroke="currentColor" stroke-width="1.5" d="M3 13.083c0-.077 0-.116.002-.148a1 1 0 0 1 .933-.933c.033-.002.07-.002.148-.002h15.834c.077 0 .115 0 .148.002a1 1 0 0 1 .933.933c.002.032.002.07.002.148c0 .395 0 .593-.014.815c-.209 3.287-3.003 6.189-6.28 6.52c-.221.023-.35.028-.608.038A57 57 0 0 1 12 20.5c-.65 0-1.364-.017-2.098-.044c-.258-.01-.387-.015-.607-.037c-3.278-.332-6.072-3.234-6.28-6.521C3 13.676 3 13.478 3 13.083Z"/><path stroke="currentColor" stroke-linecap="round" stroke-width="1.5" d="m6 20l-1 2m13-2l1 2" opacity=".5"/><path stroke="currentColor" stroke-linecap="round" stroke-width="1.5" d="M2 12h20"/><path stroke="currentColor" stroke-linecap="round" stroke-width="1.5" d="M3 13V4.385A2.385 2.385 0 0 1 7.6 3.5l.4.886" opacity=".5"/><path fill="currentColor" d="m7.979 4.447l.328.675zM6.362 6.192l.695.283zm4.215-1.814l-.295.69zM6.346 8.742l-.698.275a.75.75 0 0 0 .994.414zm5.96-2.566l.297.688a.75.75 0 0 0 .401-.963zm-5.263 2.29a2.68 2.68 0 0 1 .014-1.991l-1.39-.565a4.18 4.18 0 0 0-.02 3.107zm4.967-2.98L6.05 8.054l.592 1.377l5.961-2.566zm-1.728-.418c.622.265 1.085.77 1.327 1.382l1.395-.55a3.97 3.97 0 0 0-2.132-2.212zM7.057 6.475a2.57 2.57 0 0 1 1.25-1.353l-.656-1.35A4.07 4.07 0 0 0 5.667 5.91zm1.25-1.353a2.36 2.36 0 0 1 1.975-.054l.59-1.38a3.86 3.86 0 0 0-3.221.085z"/></g></svg>