<svg viewBox="0 0 24 24"><path fill="currentColor" fill-rule="evenodd" d="M5.385 2.75c-.903 0-1.635.732-1.635 1.635v6.865H22a.75.75 0 0 1 0 1.5h-.268q.01.067.014.136q.005.088.004.18v.039c0 .375 0 .595-.016.84c-.142 2.236-1.35 4.302-3.101 5.652l.038.068l1 2a.75.75 0 1 1-1.342.67l-.968-1.935a7.36 7.36 0 0 1-3.228.805h-.007c-.74.028-1.464.045-2.126.045s-1.386-.017-2.126-.045h-.007a7.36 7.36 0 0 1-3.228-.805l-.968 1.935a.75.75 0 1 1-1.342-.67l1-2l.038-.068c-1.751-1.35-2.96-3.416-3.101-5.652a13 13 0 0 1-.016-.84v-.355H2a.75.75 0 0 1 0-1.5h.25V4.385a3.135 3.135 0 0 1 6.046-1.164l.11.275a3.84 3.84 0 0 1 2.466.192a3.97 3.97 0 0 1 2.132 2.213a.75.75 0 0 1-.401.963L6.643 9.43a.75.75 0 0 1-.995-.413a4.18 4.18 0 0 1 .02-3.107a4.1 4.1 0 0 1 1.379-1.774l-.144-.358A1.635 1.635 0 0 0 5.385 2.75m-1.302 10h-.1a.25.25 0 0 0-.233.25v.083c0 .402 0 .574.013.767c.185 2.922 2.695 5.528 5.607 5.823c.195.02.303.023.56.033c.728.027 1.433.044 2.07.044s1.342-.017 2.07-.044c.257-.01.365-.014.56-.034c2.912-.294 5.422-2.9 5.608-5.822c.012-.193.012-.365.012-.767v-.099q0-.003 0 0a.25.25 0 0 0-.234-.233q.002 0 0 0H20l-.082-.001zm6.2-7.682a2.36 2.36 0 0 0-1.976.053a2.57 2.57 0 0 0-1.25 1.354a2.7 2.7 0 0 0-.19 1.226l4.38-1.886a2.4 2.4 0 0 0-.965-.747" clip-rule="evenodd"/></svg>