<svg viewBox="0 0 24 24"><g fill="none"><path stroke="currentColor" stroke-width="1.5" d="M3 13.083c0-.077 0-.116.002-.148a1 1 0 0 1 .933-.933c.033-.002.07-.002.148-.002h15.834c.077 0 .115 0 .148.002a1 1 0 0 1 .933.933c.002.032.002.07.002.148c0 .395 0 .593-.014.815c-.209 3.287-3.003 6.189-6.28 6.52c-.221.023-.35.028-.608.038A57 57 0 0 1 12 20.5c-.65 0-1.364-.017-2.098-.044c-.258-.01-.387-.015-.607-.037c-3.278-.332-6.072-3.234-6.28-6.521C3 13.676 3 13.478 3 13.083Z"/><path stroke="currentColor" stroke-linecap="round" stroke-width="1.5" d="m6 20l-1 2m13-2l1 2M2 12h20"/><path fill="currentColor" d="M2.25 13a.75.75 0 0 0 1.5 0zM7.6 3.5l.696-.28zm.379.947l.328.674zM6.362 6.192l.695.283zm4.215-1.814l-.295.69zM6.346 8.742l-.698.275a.75.75 0 0 0 .994.413zm5.96-2.567l.297.69a.75.75 0 0 0 .401-.964zM3.75 13V4.385h-1.5V13zM5.385 2.75c.669 0 1.27.407 1.518 1.028l1.393-.557a3.135 3.135 0 0 0-2.91-1.971zM3.75 4.385c0-.903.732-1.635 1.635-1.635v-1.5A3.135 3.135 0 0 0 2.25 4.385zm3.153-.607l.38.948l1.392-.557l-.379-.948zm.14 4.689a2.68 2.68 0 0 1 .014-1.992l-1.39-.565a4.18 4.18 0 0 0-.02 3.107zm4.967-2.98L6.049 8.053l.593 1.377l5.96-2.566zm-1.728-.42c.622.266 1.085.77 1.327 1.383l1.395-.55a3.97 3.97 0 0 0-2.132-2.212zM7.057 6.476a2.57 2.57 0 0 1 1.25-1.354l-.656-1.348A4.07 4.07 0 0 0 5.667 5.91zm1.25-1.354a2.36 2.36 0 0 1 1.975-.053l.59-1.38a3.86 3.86 0 0 0-3.221.085z"/></g></svg>