<svg viewBox="0 0 24 24"><path fill="currentColor" d="M7.656 8.636a.75.75 0 0 0-1.317.719l.005.01l.038.087c.035.087.087.235.142.447c.108.424.226 1.111.226 2.101s-.118 1.677-.226 2.101a4 4 0 0 1-.18.534l-.005.01a.75.75 0 0 0 1.317.72L7 15c.656.364.655.365.656.364v-.001l.001-.002l.002-.003l.004-.007l.01-.018l.026-.053q.03-.064.075-.175c.06-.147.132-.356.202-.631c.142-.551.274-1.364.274-2.474s-.132-1.923-.274-2.474a5 5 0 0 0-.202-.631a3 3 0 0 0-.102-.228l-.01-.018l-.003-.007l-.002-.004c0-.001-.001-.002-.657.362zm2.48-.292a.75.75 0 0 1 1.02.292L10.5 9c.656-.364.655-.365.656-.364v.001l.001.001l.002.004l.004.007l.01.018l.026.053q.03.064.075.175c.06.147.132.356.203.631c.14.551.273 1.364.273 2.474s-.132 1.923-.274 2.474c-.07.275-.143.484-.202.631a3 3 0 0 1-.102.228l-.01.018l-.003.007l-.002.003v.002s-.001.001-.657-.363l.656.364a.75.75 0 0 1-1.317-.719l.005-.01l.038-.087a4 4 0 0 0 .142-.447c.108-.424.226-1.111.226-2.101s-.118-1.677-.226-2.101a4 4 0 0 0-.18-.534l-.005-.01a.75.75 0 0 1 .297-1.01"/><path fill="currentColor" fill-rule="evenodd" d="M11.556 3.25H9.944c-1.838 0-3.294 0-4.433.153c-1.172.158-2.121.49-2.87 1.238c-.748.749-1.08 1.698-1.238 2.87c-.153 1.14-.153 2.595-.153 4.433v.112c0 1.838 0 3.294.153 4.433c.158 1.172.49 2.121 1.238 2.87c.749.748 1.698 1.08 2.87 1.238c1.14.153 2.595.153 4.433.153h1.612c1.838 0 3.294 0 4.433-.153c1.172-.158 2.121-.49 2.87-1.238c.748-.749 1.08-1.698 1.238-2.87c.153-1.14.153-2.595.153-4.433v-.112c0-1.838 0-3.294-.153-4.433c-.158-1.172-.49-2.121-1.238-2.87c-.749-.748-1.698-1.08-2.87-1.238c-1.14-.153-2.595-.153-4.433-.153M3.702 5.702c.423-.423 1.003-.677 2.009-.812c1.028-.138 2.382-.14 4.289-.14h1.5c1.907 0 3.262.002 4.29.14c1.005.135 1.585.389 2.008.812s.677 1.003.812 2.009c.138 1.028.14 2.382.14 4.289s-.002 3.262-.14 4.29c-.135 1.005-.389 1.585-.812 2.008s-1.003.677-2.009.812c-1.027.138-2.382.14-4.289.14H10c-1.907 0-3.261-.002-4.29-.14c-1.005-.135-1.585-.389-2.008-.812s-.677-1.003-.812-2.009c-.138-1.028-.14-2.382-.14-4.289s.002-3.261.14-4.29c.135-1.005.389-1.585.812-2.008" clip-rule="evenodd"/><path fill="currentColor" d="M21.25 14a.75.75 0 0 0 1.5 0v-4a.75.75 0 0 0-1.5 0z"/></svg>