<svg viewBox="0 0 24 24"><g fill="none" stroke="currentColor" stroke-width="1.5"><path stroke-linecap="round" d="M7 9s.5.9.5 3s-.5 3-.5 3m3.5-6s.5.9.5 3s-.5 3-.5 3"/><path d="M20 10c.943 0 1.414 0 1.707.293S22 11.057 22 12s0 1.414-.293 1.707S20.943 14 20 14z"/><path stroke-linecap="round" d="M2 12c0-3.771 0-5.657 1.172-6.828S6.229 4 10 4h1.5c3.771 0 5.657 0 6.828 1.172S19.5 8.229 19.5 12s0 5.657-1.172 6.828S15.271 20 11.5 20H10c-3.771 0-5.657 0-6.828-1.172c-.654-.653-.943-1.528-1.07-2.828"/></g></svg>