<svg viewBox="0 0 24 24"><path fill="currentColor" d="M13 17a1 1 0 1 1-2 0a1 1 0 0 1 2 0"/><path fill="currentColor" fill-rule="evenodd" d="M9.944 1.25h4.112c1.838 0 3.294 0 4.433.153c1.172.158 2.121.49 2.87 1.238c.748.749 1.08 1.698 1.238 2.87c.09.673.127 1.456.142 2.363a.8.8 0 0 1 .004.23q.009.848.007 1.84v2.112q.002.992-.007 1.84a.8.8 0 0 1-.003.23c-.016.907-.053 1.69-.143 2.363c-.158 1.172-.49 2.121-1.238 2.87c-.464.464-1.005.768-1.629.97q.02.082.02.171V22a.75.75 0 0 1-1.5 0v-1.374c-1.102.124-2.482.124-4.194.124H9.944c-1.712 0-3.092 0-4.194-.124V22a.75.75 0 0 1-1.5 0v-1.5q0-.09.02-.172c-.624-.201-1.165-.505-1.629-.97c-.748-.748-1.08-1.697-1.238-2.869c-.09-.673-.127-1.456-.143-2.363a.8.8 0 0 1-.003-.23q-.009-.848-.007-1.84V9.944q-.002-.992.007-1.84a.8.8 0 0 1 .003-.23c.016-.907.053-1.69.143-2.363c.158-1.172.49-2.121 1.238-2.87c.749-.748 1.698-1.08 2.87-1.238c1.14-.153 2.595-.153 4.433-.153m-7.192 7.5Q2.75 9.332 2.75 10v2q0 .668.002 1.25h18.496q.002-.582.002-1.25v-2q0-.668-.002-1.25zm18.472-1.5H2.776c.02-.587.054-1.094.114-1.54c.135-1.005.389-1.585.812-2.008s1.003-.677 2.009-.812c1.028-.138 2.382-.14 4.289-.14h4c1.907 0 3.262.002 4.29.14c1.005.135 1.585.389 2.008.812s.677 1.003.812 2.009c.06.445.094.952.114 1.539m0 7.5H2.776c.02.587.054 1.094.114 1.54c.135 1.005.389 1.585.812 2.008s1.003.677 2.009.812c1.028.138 2.382.14 4.289.14h4c1.907 0 3.262-.002 4.29-.14c1.005-.135 1.585-.389 2.008-.812s.677-1.003.812-2.009c.06-.445.094-.952.114-1.539" clip-rule="evenodd"/></svg>