<svg viewBox="0 0 24 24"><g fill="none"><path stroke="currentColor" stroke-linecap="round" stroke-width="1.5" d="M19 22v-1.5M5 22v-1.5" opacity=".5"/><path fill="currentColor" d="M13 11a1 1 0 1 1-2 0a1 1 0 0 1 2 0m0-6a1 1 0 1 1-2 0a1 1 0 0 1 2 0m0 12a1 1 0 1 1-2 0a1 1 0 0 1 2 0"/><path stroke="currentColor" stroke-width="1.5" d="M2 10c0-3.771 0-5.657 1.172-6.828S6.229 2 10 2h4c3.771 0 5.657 0 6.828 1.172S22 6.229 22 10v2c0 3.771 0 5.657-1.172 6.828S17.771 20 14 20h-4c-3.771 0-5.657 0-6.828-1.172S2 15.771 2 12z"/><path stroke="currentColor" stroke-linecap="round" stroke-width="1.5" d="M2 14h20M2 8h20" opacity=".4"/></g></svg>