<svg viewBox="0 0 24 24"><path fill="currentColor" fill-rule="evenodd" d="M12 4c-.541 0-1.034.293-2.02.88L7.02 6.637c-.985.586-1.479.88-1.75 1.362S5 9.069 5 10.241v3.518c0 1.172 0 1.758.27 2.241c.271.483.765.776 1.75 1.362l2.96 1.759c.986.586 1.479.879 2.02.879s1.034-.293 2.02-.88l2.96-1.758c.985-.586 1.479-.88 1.75-1.362s.27-1.069.27-2.241V10.24c0-1.17 0-1.757-.27-2.24c-.271-.483-.765-.776-1.75-1.362l-2.96-1.759C13.036 4.293 12.542 4 12 4m4.384 11.144a.75.75 0 0 0-.768-1.288l-4 2.384a.75.75 0 0 0 .768 1.288z" clip-rule="evenodd"/><path fill="currentColor" d="M18.971 8.92c-.032-.382-.099-.665-.242-.92a1.8 1.8 0 0 0-.384-.464l3.24-2.16a.75.75 0 1 1 .831 1.248zM5.029 15.08c.032.382.099.665.242.92c.096.172.22.32.385.464l-3.24 2.16a.75.75 0 1 1-.832-1.248zm.627-7.544A1.8 1.8 0 0 0 5.27 8c-.143.255-.21.538-.242.92L1.584 6.624a.75.75 0 0 1 .832-1.248z" opacity=".5"/></svg>