<svg viewBox="0 0 24 24"><g fill="none" stroke="currentColor" stroke-width="1.5"><path d="M9.98 4.88C10.965 4.292 11.458 4 12 4s1.034.293 2.02.88l2.96 1.758c.985.586 1.479.88 1.75 1.362s.27 1.069.27 2.241v3.518c0 1.172 0 1.758-.27 2.241c-.271.483-.765.776-1.75 1.362l-2.96 1.759c-.985.586-1.479.879-2.02.879s-1.034-.293-2.02-.88l-2.96-1.758c-.985-.586-1.479-.88-1.75-1.362S5 14.931 5 13.759V10.24C5 9.07 5 8.483 5.27 8c.271-.483.765-.776 1.75-1.362z"/><path stroke-linecap="round" stroke-linejoin="round" d="M5 8L2 6m17 2l3-2M5 16l-3 2"/><path stroke-linecap="round" d="m12 16.884l4-2.384"/></g></svg>