<svg viewBox="0 0 24 24"><path fill="currentColor" d="M6.165 3.384a.75.75 0 0 0 1.218.876q.266-.371.623-.73a.75.75 0 0 0-1.06-1.06q-.442.442-.78.914m-.338 5.26a.75.75 0 0 1-.834-.656a6.6 6.6 0 0 1 .144-2.411a.75.75 0 0 1 1.455.366a5.1 5.1 0 0 0-.11 1.868a.75.75 0 0 1-.655.833m1.007 3.63a.75.75 0 0 0 1.18-.925a8 8 0 0 1-1.012-1.683a.75.75 0 1 0-1.373.605c.317.721.73 1.397 1.205 2.003m9.277-.676a.75.75 0 0 1 1.053.128a9.4 9.4 0 0 1 1.205 2.003a.75.75 0 1 1-1.373.605a8 8 0 0 0-1.012-1.683a.75.75 0 0 1 .127-1.053m2.894 4.414a.75.75 0 0 0-1.49.177a5.1 5.1 0 0 1-.109 1.868a.75.75 0 1 0 1.455.367a6.6 6.6 0 0 0 .144-2.412m-1.342 3.557a.75.75 0 0 1 .17 1.047q-.338.473-.78.914a.75.75 0 1 1-1.06-1.06a6 6 0 0 0 .623-.73a.75.75 0 0 1 1.047-.171M11.598 7.888a.75.75 0 0 1 .128-1.053a9.4 9.4 0 0 1 2.003-1.205a.75.75 0 0 1 .605 1.373c-.601.264-1.17.61-1.683 1.012a.75.75 0 0 1-1.053-.127m4.414-2.894a.75.75 0 0 0 .177 1.49a5.1 5.1 0 0 1 1.868.109a.75.75 0 0 0 .367-1.455a6.6 6.6 0 0 0-2.412-.144m3.557 1.342a.75.75 0 0 1 1.047-.17q.473.338.914.78a.75.75 0 1 1-1.06 1.06a6 6 0 0 0-.73-.623a.75.75 0 0 1-.171-1.047m-7.167 9.776a.75.75 0 0 1-.128 1.053a9.4 9.4 0 0 1-2.003 1.205a.75.75 0 1 1-.605-1.373a8 8 0 0 0 1.683-1.012a.75.75 0 0 1 1.053.127m-4.414 2.894a.75.75 0 0 0-.177-1.49a5.1 5.1 0 0 1-1.868-.109a.75.75 0 1 0-.366 1.455c.806.203 1.62.238 2.411.144m-3.557-1.342a.75.75 0 0 1-1.047.17a7.4 7.4 0 0 1-.914-.78a.75.75 0 1 1 1.06-1.06q.359.357.73.623a.75.75 0 0 1 .171 1.047m6.225-2.634a.75.75 0 0 0 .641-.113a3 3 0 0 0 1.283.027a.75.75 0 0 0 1.342.553c.507-.671.897-1.404 1.108-2.152a.75.75 0 0 0-.113-.642a3 3 0 0 0 .027-1.283a.75.75 0 0 0 .553-1.342c-.671-.507-1.404-.897-2.152-1.108a.75.75 0 0 0-.642.113a3 3 0 0 0-1.283-.027a.75.75 0 0 0-1.342-.553c-.507.671-.897 1.404-1.108 2.153a.75.75 0 0 0 .113.641a3 3 0 0 0-.027 1.283a.75.75 0 0 0-.553 1.342c.671.507 1.404.897 2.153 1.108"/></svg>