<svg viewBox="0 0 24 24"><path fill="currentColor" fill-rule="evenodd" d="M8.006 2.47a.75.75 0 0 1 0 1.06a6 6 0 0 0-.623.73a.75.75 0 0 1-1.218-.876q.34-.473.78-.914a.75.75 0 0 1 1.061 0m10.051 4.123a5.1 5.1 0 0 0-1.868-.11a.75.75 0 1 1-.178-1.489a6.6 6.6 0 0 1 2.412.144a.75.75 0 0 1-.366 1.455M6.05 5.033a.75.75 0 0 1 .544.91a5.1 5.1 0 0 0-.11 1.868a.75.75 0 1 1-1.489.177a6.6 6.6 0 0 1 .144-2.411a.75.75 0 0 1 .91-.545m8.669.981a.75.75 0 0 1-.384.989c-.601.264-1.17.61-1.683 1.013a.75.75 0 0 1-.925-1.18a9.4 9.4 0 0 1 2.003-1.206a.75.75 0 0 1 .989.384m4.85.322a.75.75 0 0 1 1.047-.17q.474.338.915.78a.75.75 0 1 1-1.06 1.06a6 6 0 0 0-.73-.623a.75.75 0 0 1-.171-1.047M11.41 9.113a.75.75 0 0 0-1.332-.61c-.507.671-.897 1.404-1.108 2.153a.75.75 0 0 0 .326.84a2.8 2.8 0 0 0-.018.9a.8.8 0 0 0-.165.194a.75.75 0 0 0-.61 1.332c.671.507 1.404.897 2.153 1.108a.75.75 0 0 0 .84-.326a2.8 2.8 0 0 0 .9.018a.8.8 0 0 0 .194.165a.75.75 0 0 0 1.332.61c.507-.671.897-1.404 1.108-2.153a.75.75 0 0 0-.326-.841a2.8 2.8 0 0 0 .018-.898a.8.8 0 0 0 .165-.195a.75.75 0 0 0 .61-1.332c-.671-.507-1.404-.897-2.153-1.108a.75.75 0 0 0-.841.326a2.8 2.8 0 0 0-.898-.018a.8.8 0 0 0-.195-.165m1.786 1.653a.75.75 0 0 1-.718.079a1.24 1.24 0 0 0-.956 0a.75.75 0 0 1-.715-.077l-.04.036a.75.75 0 0 1 .078.718a1.24 1.24 0 0 0 0 .956a.75.75 0 0 1-.077.715l.036.04a.75.75 0 0 1 .718-.078a1.24 1.24 0 0 0 .956 0a.75.75 0 0 1 .715.077l.04-.036a.75.75 0 0 1-.078-.718a1.24 1.24 0 0 0 0-.956a.75.75 0 0 1 .077-.715zM6.014 9.282a.75.75 0 0 1 .989.384c.264.601.61 1.17 1.013 1.683a.75.75 0 1 1-1.18.925a9.4 9.4 0 0 1-1.206-2.003a.75.75 0 0 1 .384-.989m10.098 2.316a.75.75 0 0 1 1.053.128a9.4 9.4 0 0 1 1.205 2.003a.75.75 0 1 1-1.373.605a8 8 0 0 0-1.013-1.683a.75.75 0 0 1 .128-1.053m2.06 3.757a.75.75 0 0 1 .834.656a6.6 6.6 0 0 1-.144 2.412a.75.75 0 0 1-1.455-.366a5.1 5.1 0 0 0 .11-1.868a.75.75 0 0 1 .655-.834m-15.702.639a.75.75 0 0 1 1.06 0q.359.357.73.623a.75.75 0 0 1-.876 1.218a7.4 7.4 0 0 1-.914-.78a.75.75 0 0 1 0-1.061m9.932.118a.75.75 0 0 1-.128 1.053a9.4 9.4 0 0 1-2.003 1.205a.75.75 0 1 1-.605-1.373a8 8 0 0 0 1.683-1.013a.75.75 0 0 1 1.053.128m-7.37 1.84a.75.75 0 0 1 .91-.545a5.1 5.1 0 0 0 1.869.11a.75.75 0 1 1 .177 1.489a6.6 6.6 0 0 1-2.411-.144a.75.75 0 0 1-.545-.91m12.631 1.617a.75.75 0 0 1 .172 1.047q-.34.473-.78.914a.75.75 0 1 1-1.061-1.06q.357-.36.623-.73a.75.75 0 0 1 1.046-.171" clip-rule="evenodd"/></svg>