<svg viewBox="0 0 24 24"><path fill="currentColor" fill-rule="evenodd" d="M10.013 13.901a4.5 4.5 0 0 1-1.085-1.448c-.627-1.288-.812-2.946-.584-4.558c.455-3.21 2.652-6.645 6.968-6.645a.75.75 0 0 1 0 1.5c-3.285 0-5.087 2.564-5.483 5.355a7.6 7.6 0 0 0 .002 2.204q.124-.158.268-.296a4.5 4.5 0 0 1 1.448-1.085c1.288-.627 2.946-.812 4.558-.584c3.21.455 6.645 2.652 6.645 6.968a.75.75 0 0 1-1.5 0c0-3.285-2.564-5.087-5.355-5.483a7.7 7.7 0 0 0-1.991-.027c.64.415 1.134 1.033 1.48 1.745c.626 1.288.812 2.946.584 4.558c-.455 3.21-2.652 6.645-6.968 6.645a.75.75 0 0 1 0-1.5c3.284 0 5.087-2.564 5.482-5.355a7.5 7.5 0 0 0-.041-2.432c-.392.856-1.12 1.499-1.988 1.92c-1.288.627-2.946.813-4.558.585C4.685 15.513 1.25 13.316 1.25 9a.75.75 0 0 1 1.5 0c0 3.284 2.564 5.087 5.355 5.482a7.4 7.4 0 0 0 2.573-.07a2.8 2.8 0 0 1-.665-.51m2.12-.658a1.95 1.95 0 0 1-1.08-.426a1.25 1.25 0 0 1-.296-.684q.051-.608.426-1.08a1.25 1.25 0 1 1 .95 2.19" clip-rule="evenodd"/></svg>