<svg viewBox="0 0 24 24"><g fill="none"><circle cx="12" cy="12" r="2" stroke="currentColor" stroke-width="1.5"/><path fill="currentColor" fill-rule="evenodd" d="M7.847 2.167a.75.75 0 0 1 0 1.06a6 6 0 0 0-.621.728a.75.75 0 0 1-1.218-.876q.339-.472.778-.912a.75.75 0 0 1 1.06 0m10.676 4.115a5.1 5.1 0 0 0-1.861-.109a.75.75 0 1 1-.178-1.49a6.6 6.6 0 0 1 2.406.144a.75.75 0 1 1-.367 1.455m-12.63-1.56a.75.75 0 0 1 .545.91a5.1 5.1 0 0 0-.109 1.862a.75.75 0 1 1-1.49.178a6.6 6.6 0 0 1 .144-2.406a.75.75 0 0 1 .91-.544m9.303.98a.75.75 0 0 1-.384.989A8 8 0 0 0 13.135 7.7a.75.75 0 0 1-.926-1.18a9.4 9.4 0 0 1 1.999-1.202a.75.75 0 0 1 .988.384m4.834.32a.75.75 0 0 1 1.046-.17q.473.337.913.778a.75.75 0 1 1-1.061 1.06a6 6 0 0 0-.727-.62a.75.75 0 0 1-.171-1.047m-8.414 2.014a.75.75 0 0 1 .147 1.05a7 7 0 0 0-.186.26a.75.75 0 0 1 .23 1.439a2 2 0 0 0-.645.441a.75.75 0 0 1-.996.058a.75.75 0 0 1-.705-.954c.21-.747.6-1.478 1.105-2.147a.75.75 0 0 1 1.05-.147m-5.758.923a.75.75 0 0 1 .989.385a8 8 0 0 0 1.01 1.677a.75.75 0 0 1-1.181.925a9.4 9.4 0 0 1-1.202-1.998a.75.75 0 0 1 .384-.989m7.042.864a.75.75 0 0 1 .925-.518c.747.21 1.478.6 2.148 1.105a.75.75 0 0 1-.903 1.197a6 6 0 0 0-.26-.186a.75.75 0 0 1-1.439.23a2 2 0 0 0-.441-.645a.75.75 0 0 1-.059-.995a.8.8 0 0 1 .029-.188m3.683 2.103a.75.75 0 0 1 1.053.127a9.4 9.4 0 0 1 1.202 1.999a.75.75 0 0 1-1.373.604a8 8 0 0 0-1.01-1.677a.75.75 0 0 1 .128-1.053m-6.625.023a.75.75 0 0 1 .983.4c.094.224.237.44.441.645a.75.75 0 0 1 .058.995a.748.748 0 0 1-.953.706c-.747-.211-1.478-.6-2.148-1.105a.75.75 0 0 1 .903-1.198q.13.098.26.186a.75.75 0 0 1 .456-.63m4.188.767a.75.75 0 0 0-.996.058a2 2 0 0 1-.645.44a.75.75 0 0 0 .23 1.44a6 6 0 0 1-.186.26a.75.75 0 0 0 1.197.903c.505-.67.894-1.4 1.105-2.148a.75.75 0 0 0-.705-.953m4.493 2.956a.75.75 0 0 1 .833.656c.094.79.059 1.601-.144 2.406a.75.75 0 0 1-1.454-.367c.154-.61.183-1.237.109-1.861a.75.75 0 0 1 .656-.834m-16.316.637a.75.75 0 0 1 1.06 0q.359.356.728.621a.75.75 0 1 1-.875 1.218a7.4 7.4 0 0 1-.913-.778a.75.75 0 0 1 0-1.06m9.907.118a.75.75 0 0 1-.128 1.053a9.4 9.4 0 0 1-1.998 1.202a.75.75 0 0 1-.604-1.373a8 8 0 0 0 1.677-1.01a.75.75 0 0 1 1.053.128m-7.352 1.835a.75.75 0 0 1 .91-.544a5.1 5.1 0 0 0 1.862.109a.75.75 0 0 1 .178 1.49a6.6 6.6 0 0 1-2.406-.145a.75.75 0 0 1-.544-.91m13.255 1.612a.75.75 0 0 1 .171 1.046q-.339.473-.778.913a.75.75 0 0 1-1.06-1.061a6 6 0 0 0 .62-.727a.75.75 0 0 1 1.047-.171" clip-rule="evenodd"/><path fill="currentColor" fill-rule="evenodd" d="M10.726 12.499c.42.491.952.751 1.585.751c.151 0 .292.044.41.121A1.98 1.98 0 0 0 13.25 12a.75.75 0 0 1 .268-.575A2 2 0 0 0 12 10.75a.75.75 0 0 1-.392-.11c-.56.432-.858.994-.858 1.672a.8.8 0 0 1-.024.187m-.888-2.146a7.6 7.6 0 0 1-.009-2.248c.396-2.79 2.198-5.355 5.483-5.355a.75.75 0 0 0 0-1.5c-4.316 0-6.513 3.436-6.968 6.645c-.228 1.612-.043 3.27.584 4.558c.406.836 1.016 1.541 1.825 1.942c-.793.183-1.71.22-2.648.087C5.315 14.087 2.75 12.284 2.75 9a.75.75 0 0 0-1.5 0c0 4.316 3.436 6.513 6.645 6.968c1.612.228 3.27.042 4.558-.584c.868-.422 1.596-1.065 1.988-1.921c.142.741.162 1.578.041 2.432c-.395 2.79-2.198 5.355-5.482 5.355a.75.75 0 0 0 0 1.5c4.316 0 6.513-3.436 6.968-6.645c.228-1.612.042-3.27-.584-4.558c-.346-.712-.84-1.33-1.48-1.745a7.7 7.7 0 0 1 1.99.027c2.792.396 5.356 2.198 5.356 5.483a.75.75 0 0 0 1.5 0c0-4.316-3.436-6.513-6.645-6.968c-1.612-.228-3.27-.043-4.558.584c-.692.336-1.294.812-1.709 1.425" clip-rule="evenodd"/></g></svg>