<svg viewBox="0 0 24 24"><path fill="currentColor" d="M11.75 16.376v-2.874l2 1.504c.135.102.243.184.333.255l.026.021l-.026.02c-.09.073-.198.154-.334.256l-1.454 1.094c-.227.171-.4.3-.539.397c-.005-.17-.006-.387-.006-.673m-.34.881h.004zm.388.193l-.001-.003zm-.048-9.827v2.874l2-1.504c.135-.102.243-.183.333-.255l.026-.02l-.026-.021a17 17 0 0 0-.334-.256l-1.454-1.094c-.227-.17-.4-.3-.539-.397c-.005.17-.006.387-.006.673m.047-1.07l.001-.004v.001z"/><path fill="currentColor" fill-rule="evenodd" d="M12 22c5.523 0 10-4.477 10-10S17.523 2 12 2S2 6.477 2 12s4.477 10 10 10m1.155-15.883c-.345-.26-.668-.502-.945-.653c-.283-.155-.75-.343-1.245-.095c-.493.248-.623.734-.67 1.053c-.045.312-.045.717-.045 1.15v2.827L8.48 8.924a.75.75 0 0 0-.96 1.152L9.828 12L7.52 13.924a.75.75 0 1 0 .96 1.152l1.77-1.475v2.827c0 .432 0 .837.046 1.15c.046.319.176.805.67 1.052c.494.248.96.06 1.244-.094c.277-.151.6-.394.945-.654l1.53-1.151c.237-.178.475-.357.648-.531c.194-.196.417-.494.417-.918c0-.423-.223-.722-.417-.918a6 6 0 0 0-.648-.53L12.248 12l2.437-1.834c.237-.178.475-.357.648-.53c.194-.197.417-.495.417-.919c0-.423-.223-.722-.417-.917a6 6 0 0 0-.648-.531z" clip-rule="evenodd"/></svg>