<svg viewBox="0 0 24 24"><path fill="currentColor" fill-rule="evenodd" d="M12 2.75a9.25 9.25 0 1 0 0 18.5a9.25 9.25 0 0 0 0-18.5M1.25 12C1.25 6.063 6.063 1.25 12 1.25S22.75 6.063 22.75 12S17.937 22.75 12 22.75S1.25 17.937 1.25 12m11.905-5.882l.041.03l1.455 1.095l.034.026c.237.178.475.357.648.53c.194.197.417.495.417.919c0 .423-.223.721-.417.917a6 6 0 0 1-.648.531l-.034.026L12.248 12l2.403 1.808l.034.026c.237.177.475.357.648.53c.194.196.417.495.417.918s-.223.722-.417.918a6 6 0 0 1-.648.531l-.034.026l-1.455 1.094l-.041.031c-.345.26-.668.503-.945.654c-.283.154-.75.342-1.245.094c-.493-.247-.623-.733-.67-1.052c-.045-.312-.045-.717-.045-1.15v-2.827l-1.77 1.475a.75.75 0 0 1-.96-1.152L9.828 12L7.52 10.076a.75.75 0 0 1 .96-1.152l1.77 1.475V7.572c0-.433 0-.838.046-1.15c.046-.32.176-.805.67-1.052c.494-.248.96-.06 1.244.094c.277.151.6.394.945.654m-1.405 7.385v2.874c0 .286 0 .503.006.673c.138-.097.312-.227.539-.398l1.454-1.094a17 17 0 0 0 .36-.276l-.026-.02c-.09-.072-.198-.153-.334-.255zm-.34 3.755l.004-.002zm.387.189l.001.004zm-.047-6.95V7.623c0-.286 0-.503.006-.673c.138.097.312.227.539.397l1.454 1.095a16 16 0 0 1 .36.276a9 9 0 0 1-.36.276zm.048-3.948l-.001.004zm-.384.195" clip-rule="evenodd"/></svg>