<svg viewBox="0 0 24 24"><path fill="currentColor" d="M11.75 16v-2.5l1.733 1.3l.264.2q-.109.084-.264.2l-1.333 1q-.238.179-.397.295A29 29 0 0 1 11.75 16m.04.96v-.003zM11.75 8v2.5l1.733-1.3c.105-.078.19-.143.264-.2q-.109-.084-.264-.2l-1.333-1q-.238-.178-.397-.294c-.003.133-.003.295-.003.494"/><path fill="currentColor" fill-rule="evenodd" d="M3.464 3.464C2 4.93 2 7.286 2 12s0 7.071 1.464 8.535C4.93 22 7.286 22 12 22s7.071 0 8.535-1.465C22 19.072 22 16.714 22 12s0-7.071-1.465-8.536C19.072 2 16.714 2 12 2S4.929 2 3.464 3.464M13.01 6.57c-.314-.236-.614-.46-.872-.6c-.264-.144-.716-.329-1.197-.088c-.481.24-.605.713-.649 1.01c-.042.29-.042.665-.042 1.058v2.449L8.48 8.924a.75.75 0 1 0-.96 1.152L9.828 12L7.52 13.924a.75.75 0 0 0 .96 1.152l1.77-1.475v2.45c0 .392 0 .766.043 1.057c.043.298.167.77.648 1.01s.933.056 1.197-.087c.258-.14.558-.365.872-.6l1.407-1.056c.215-.161.437-.327.598-.49c.183-.184.402-.473.402-.885s-.219-.7-.402-.885a6 6 0 0 0-.598-.49L12.25 12l2.167-1.625c.215-.161.437-.327.598-.49c.183-.184.402-.473.402-.885s-.219-.7-.402-.885a6 6 0 0 0-.598-.49z" clip-rule="evenodd"/></svg>