<svg viewBox="0 0 24 24"><path fill="currentColor" d="m9.51 12.004l4.099 2.934c.498.356.934.668 1.238.961c.324.312.614.711.614 1.255s-.29.944-.614 1.256c-.304.293-.74.604-1.239.961l-1.691 1.21c-.674.483-1.242.89-1.714 1.132c-.48.247-1.066.433-1.652.13c-.588-.303-.78-.892-.858-1.428c-.078-.526-.078-1.227-.078-2.055v-5.02L4.09 15.828a.69.69 0 0 1-.964-.172a.7.7 0 0 1 .17-.972L7.101 12L3.295 9.316a.7.7 0 0 1-.17-.971a.69.69 0 0 1 .964-.172l3.526 2.488V5.64c0-.83 0-1.53.078-2.056c.079-.536.27-1.125.858-1.428c.586-.303 1.172-.117 1.652.13c.472.242 1.04.65 1.714 1.131l1.691 1.21c.5.358.935.67 1.239.962c.324.313.614.712.614 1.256s-.29.943-.614 1.255c-.304.293-.74.605-1.239.961l-4.1 2.934l.007.004z"/><path fill="currentColor" d="M17.984 4.983a.69.69 0 0 1 .979.025l.002.002l.003.004l.009.009a2 2 0 0 1 .1.117c.062.077.146.187.244.33c.196.288.448.713.697 1.284C20.518 7.9 21 9.623 21 12s-.482 4.1-.982 5.246c-.25.57-.501.995-.697 1.283a5 5 0 0 1-.344.448l-.009.01l-.003.003l-.001.001s-.001.001-.48-.457l.479.458a.69.69 0 0 1-.98.024a.7.7 0 0 1-.026-.982l.006-.008l.041-.049q.061-.071.175-.237c.15-.22.36-.57.572-1.056c.423-.97.864-2.503.864-4.684s-.44-3.713-.864-4.684a6.5 6.5 0 0 0-.572-1.056a4 4 0 0 0-.216-.286l-.006-.008a.7.7 0 0 1 .027-.983" opacity=".4"/><path fill="currentColor" d="M16.306 7.656a.69.69 0 0 1 .928.312l.001.001l.001.002l.003.006l.01.02l.033.071q.043.092.114.257c.092.218.215.527.338.897c.242.732.497 1.743.497 2.779s-.255 2.046-.497 2.778a12 12 0 0 1-.485 1.225l-.01.02l-.003.006v.002l-.001.001a.69.69 0 0 1-.93.312a.7.7 0 0 1-.31-.935l.002-.002l.006-.012a5 5 0 0 0 .12-.27c.08-.188.189-.46.297-.788c.22-.663.426-1.513.426-2.337s-.207-1.675-.426-2.338a10 10 0 0 0-.418-1.058l-.005-.012l-.001-.001a.7.7 0 0 1 .31-.936" opacity=".7"/></svg>