<svg viewBox="0 0 24 24"><path fill="currentColor" fill-rule="evenodd" d="m11.91 2.774l1.833 1.301c.54.384 1.012.719 1.341 1.034c.351.335.666.764.666 1.35c0 .584-.315 1.013-.666 1.349c-.33.315-.801.65-1.341 1.033L9.295 12l4.448 3.158c.54.383 1.012.718 1.341 1.034c.351.335.666.764.666 1.349s-.315 1.014-.666 1.35c-.33.314-.801.65-1.341 1.033l-1.833 1.302c-.73.518-1.345.955-1.856 1.216c-.52.265-1.156.465-1.79.14c-.638-.326-.845-.96-.93-1.536c-.084-.566-.084-1.319-.084-2.21V13.44l-3.82 2.674a.75.75 0 1 1-.86-1.229L6.692 12L2.57 9.114a.75.75 0 1 1 .86-1.229l3.82 2.674V5.163c0-.891 0-1.644.084-2.21c.085-.576.292-1.21.93-1.535c.634-.325 1.27-.126 1.79.14c.51.26 1.126.698 1.856 1.216M8.75 13.452v5.323c0 .969.002 1.609.068 2.051c.031.214.071.327.1.383q.022.035.023.034l.005.003l.007.003q.002.002.044-.002c.064-.009.181-.043.375-.142c.4-.204.926-.575 1.72-1.138l1.737-1.234c.599-.425.978-.697 1.218-.927a1 1 0 0 0 .187-.22c.016-.029.016-.039.016-.044v-.002c0-.006 0-.016-.016-.044a1 1 0 0 0-.187-.22c-.24-.23-.62-.502-1.218-.927zm0-2.905V5.224c0-.969.002-1.609.068-2.05c.031-.215.071-.327.1-.384a.2.2 0 0 1 .023-.034l.005-.003l.007-.003a.2.2 0 0 1 .044.002c.064.01.181.043.375.142c.4.204.926.575 1.72 1.138l1.737 1.234c.599.425.978.697 1.218.927a1 1 0 0 1 .187.22c.016.029.016.039.016.044v.002c0 .006 0 .016-.016.045a1 1 0 0 1-.187.22c-.24.23-.62.501-1.218.926zm9.733-6.09a.75.75 0 0 1 1.06.025l-.518.494l.518-.494l.001.002l.002.001l.003.004l.01.01l.025.029q.032.035.083.097c.067.083.158.2.264.355c.212.31.486.766.756 1.38c.54 1.232 1.063 3.084 1.063 5.64s-.522 4.408-1.063 5.639a8.5 8.5 0 0 1-.756 1.38a5 5 0 0 1-.373.482l-.009.01l-.003.003l-.002.002l-.52-.493l.52.494a.75.75 0 0 1-1.09-1.03l.002-.003h-.001l-.002.002l.008-.008l.044-.053a4 4 0 0 0 .189-.254c.163-.238.39-.613.62-1.136c.458-1.043.936-2.69.936-5.035s-.478-3.992-.936-5.036a7 7 0 0 0-.62-1.136a4 4 0 0 0-.233-.307l-.007-.008l.001.002m.028-1.059a.75.75 0 0 0-.03 1.057zm-1.832 2.88a.75.75 0 0 1 1.013.314L17 8l.664-.35v.002l.002.002l.003.007l.011.021a7 7 0 0 1 .162.343c.101.228.235.552.368.946c.265.782.54 1.867.54 3.029c0 1.16-.275 2.247-.54 3.028a11 11 0 0 1-.493 1.215l-.037.074l-.01.022l-.004.006l-.001.002l-.001.002l-.664-.35l.664.35a.75.75 0 0 1-1.328-.698m0 0l.007-.013l.026-.053q.037-.074.102-.22a10 10 0 0 0 .319-.819c.235-.693.46-1.608.46-2.546c0-.94-.225-1.853-.46-2.547a10 10 0 0 0-.447-1.092l-.006-.011v-.001a.75.75 0 0 1 .314-1.013" clip-rule="evenodd"/></svg>