<svg viewBox="0 0 24 24"><path fill="currentColor" d="M12 22c5.523 0 10-4.477 10-10S17.523 2 12 2S2 6.477 2 12s4.477 10 10 10" opacity=".5"/><path fill="currentColor" d="m11.414 17.256l-.004.001zm.383.191l.001.004zm0-10.894l.001-.004v.001z"/><path fill="currentColor" fill-rule="evenodd" d="M12.21 5.464c.277.15.6.394.945.653l1.53 1.152c.237.177.475.357.648.53c.194.196.417.495.417.918s-.223.722-.417.918a6 6 0 0 1-.648.531L12.248 12l2.437 1.834c.237.177.475.356.648.53c.194.196.417.495.417.918s-.223.722-.417.918a6 6 0 0 1-.648.53l-1.53 1.152c-.345.26-.668.503-.945.654c-.283.154-.75.342-1.245.094c-.493-.247-.623-.733-.67-1.052c-.045-.313-.045-.718-.045-1.15V13.6l-1.77 1.475a.75.75 0 1 1-.96-1.152L9.828 12L7.52 10.076a.75.75 0 1 1 .96-1.152l1.77 1.475V7.572c0-.433 0-.838.046-1.15c.046-.32.176-.805.67-1.053s.96-.06 1.244.095m-.46 10.912v-2.874l2 1.504c.135.102.243.184.333.255l.026.021l-.026.02c-.09.073-.198.154-.334.256l-1.454 1.094c-.227.171-.4.3-.539.397c-.005-.17-.006-.387-.006-.673m-.336.88l-.004.001zm.383.19l.001.005zm-.047-9.823v2.874l2-1.504c.135-.102.243-.183.333-.255l.026-.02l-.026-.021a17 17 0 0 0-.334-.256l-1.454-1.094c-.227-.17-.4-.3-.539-.397c-.005.17-.006.387-.006.673m.047-1.07l.001-.004v.001z" clip-rule="evenodd"/></svg>