<svg viewBox="0 0 24 24"><path fill="currentColor" d="M3.464 3.464C2 4.93 2 7.286 2 12s0 7.071 1.464 8.535C4.93 22 7.286 22 12 22s7.071 0 8.535-1.465C22 19.072 22 16.714 22 12s0-7.071-1.465-8.536C19.072 2 16.714 2 12 2S4.929 2 3.464 3.464" opacity=".5"/><path fill="currentColor" d="m12.448 16.774l-.001-.003z"/><path fill="currentColor" fill-rule="evenodd" d="M12.788 6.196c.253.135.547.351.854.578L15.02 7.79c.211.155.428.315.587.471c.179.177.393.455.393.852s-.214.674-.393.852a6 6 0 0 1-.587.471L12.898 12l2.122 1.564c.211.155.428.315.587.471c.179.178.393.455.393.852s-.214.675-.393.852a6 6 0 0 1-.587.471l-1.378 1.016c-.307.227-.6.443-.854.578c-.258.138-.701.316-1.172.084c-.472-.232-.593-.686-.636-.972c-.041-.28-.041-.64-.041-1.018V13.54l-1.734 1.42a.744.744 0 0 1-1.035-.093a.713.713 0 0 1 .094-1.017L10.526 12l-2.262-1.851a.713.713 0 0 1-.094-1.017a.744.744 0 0 1 1.035-.092l1.734 1.419V8.102c0-.378 0-.738.041-1.018c.043-.286.164-.74.636-.972c.471-.231.914-.054 1.172.084m-.38 9.654v-2.406l1.698 1.25q.153.112.259.193l-.259.193l-1.306.962c-.156.115-.283.208-.39.283a27 27 0 0 1-.002-.475m.04.924l-.001-.003zm-.04-8.624v2.406l1.698-1.25q.153-.112.259-.193l-.259-.193l-1.306-.962a28 28 0 0 0-.39-.283a27 27 0 0 0-.002.475" clip-rule="evenodd"/></svg>