<svg viewBox="0 0 24 24"><path fill="currentColor" d="M3.706 1.31a.75.75 0 0 1 .984.396v.002l.002.003l.005.012l.018.043l.067.163a34 34 0 0 1 .936 2.684c.507 1.682 1.032 3.908 1.032 5.959c0 .6-.087 1.156-.233 1.678h10.966a6.2 6.2 0 0 1-.233-1.678c0-2.051.525-4.277 1.032-5.959a34 34 0 0 1 .936-2.684l.067-.163l.018-.043l.005-.012l.001-.003v-.001a.75.75 0 0 1 1.38.587v.002l-.003.009l-.016.036l-.06.148a32 32 0 0 0-.892 2.557c-.493 1.633-.968 3.694-.968 5.526c0 1.059.358 1.967.906 2.956c.189.34.41.704.644 1.09c.514.845 1.093 1.798 1.536 2.844c.534 1.259.914 2.723.914 4.538a.75.75 0 0 1-1.5 0c0-1.49-.29-2.695-.709-3.744c-5.394.147-7.46 2.871-7.83 3.981a.75.75 0 0 1-1.422 0c-.37-1.11-2.436-3.834-7.83-3.98A9.9 9.9 0 0 0 2.75 22a.75.75 0 0 1-1.5 0c0-1.815.38-3.28.914-4.538c.443-1.046 1.022-1.999 1.536-2.844c.234-.386.456-.75.644-1.09c.548-.989.906-1.898.906-2.956c0-1.832-.475-3.893-.968-5.526A32 32 0 0 0 3.39 2.49l-.06-.148l-.016-.036l-.003-.009v-.001a.75.75 0 0 1 .395-.985"/></svg>