<svg viewBox="0 0 24 24"><path fill="none" stroke="currentColor" stroke-linecap="round" stroke-width="1.5" d="M12.062 22h-.124c-.76 0-1.139 0-1.469-.15c-.33-.149-.567-.428-1.041-.986l-2.382-2.803c-.465-.547-.697-.82-.818-1.145c-.12-.324-.12-.675-.12-1.376v-5.263c0-.685 0-1.027-.148-1.328c-.147-.301-.423-.524-.975-.97l-.208-.167C3.595 6.858 3.004 6.38 3 5.69s.52-1.124 1.568-1.99q.24-.2.468-.364c.573-.41 1.402-.863 1.986-1.166a1.58 1.58 0 0 1 1.394-.016l.264.124q.106.05.171.142c1.498 2.116 4.8 2.116 6.298 0a.44.44 0 0 1 .171-.142l.264-.124a1.58 1.58 0 0 1 1.394.016c.584.303 1.413.756 1.986 1.166q.23.166.468.363C20.48 4.566 21.004 5 21 5.69s-.596 1.168-1.777 2.122l-.208.167c-.552.446-.828.669-.975.97s-.147.643-.147 1.328v5.263c0 .701 0 1.052-.121 1.376c-.12.324-.353.598-.818 1.145l-2.382 2.803c-.474.558-.711.837-1.041.987c-.33.149-.71.149-1.469.149Z"/></svg>