<svg viewBox="0 0 24 24"><path fill="currentColor" fill-rule="evenodd" d="M19.173 4.827a3.27 3.27 0 0 0-5.566-2.62c-.919.92-1.398 2.489-1.04 3.783c.058.21.083.414.068.577c-.014.16-.06.234-.097.272l-1.28 1.279a.89.89 0 0 0 .28 1.446a5.52 5.52 0 0 1 2.898 2.899a.89.89 0 0 0 1.446.278l1.28-1.28c.037-.037.111-.082.271-.096c.163-.015.366.01.577.068c1.294.358 2.864-.121 3.782-1.04a3.269 3.269 0 0 0-2.619-5.566M17.17 3.268a1.77 1.77 0 0 0-2.502 0c-.568.568-.858 1.59-.656 2.322c.09.325.152.715.117 1.109c-.035.397-.174.844-.53 1.2l-.684.684a7 7 0 0 1 2.502 2.502l.684-.684c.356-.356.803-.495 1.2-.53a3.2 3.2 0 0 1 1.11.117c.732.202 1.753-.088 2.32-.656a1.77 1.77 0 0 0-2.5-2.501a.75.75 0 0 1-1.062-1.061a1.77 1.77 0 0 0 0-2.502" clip-rule="evenodd"/><path fill="currentColor" d="M17.127 17.126a.75.75 0 0 1 1.06 0l1.415 1.415a.75.75 0 0 1-1.06 1.06l-1.415-1.414a.75.75 0 0 1 0-1.06M6.874 5.813a.75.75 0 0 1-1.061 1.06L4.399 5.46a.75.75 0 1 1 1.06-1.06zM15 18.25a.75.75 0 0 1 .75.75v1a.75.75 0 0 1-1.5 0v-1a.75.75 0 0 1 .75-.75M5 9.75a.75.75 0 0 0 0-1.5H4a.75.75 0 0 0 0 1.5zM18.25 15a.75.75 0 0 1 .75-.75h1a.75.75 0 0 1 0 1.5h-1a.75.75 0 0 1-.75-.75m-10-10a.75.75 0 0 0 1.5 0V4a.75.75 0 0 0-1.5 0z"/><path fill="currentColor" fill-rule="evenodd" d="M12.463 14.436a5.52 5.52 0 0 1-2.899-2.899a.89.89 0 0 0-1.446-.278l-1.28 1.28c-.037.037-.111.082-.271.096a1.7 1.7 0 0 1-.577-.068c-1.294-.358-2.864.121-3.783 1.04a3.27 3.27 0 0 0 2.62 5.566a3.269 3.269 0 0 0 5.566 2.62c.919-.92 1.398-2.489 1.04-3.783a1.7 1.7 0 0 1-.068-.577c.014-.16.06-.234.097-.272l1.28-1.279a.89.89 0 0 0-.28-1.446m-3.88-1.52l-.68.68l-.004.003l-.023.022c-.352.34-.788.474-1.177.508a3.2 3.2 0 0 1-1.11-.117c-.732-.202-1.753.088-2.32.656a1.769 1.769 0 1 0 2.5 2.502a.8.8 0 0 1 .249-.165l.006-.003a.75.75 0 0 1 .807 1.228a1.769 1.769 0 1 0 2.501 2.502c.568-.568.858-1.59.656-2.322a3.2 3.2 0 0 1-.117-1.109c.035-.397.174-.844.53-1.2l.684-.684a7 7 0 0 1-2.502-2.502" clip-rule="evenodd"/></svg>