<svg viewBox="0 0 24 24"><path fill="currentColor" fill-rule="evenodd" d="M9.945 1.25h4.11c1.368 0 2.47 0 3.337.117c.9.12 1.658.38 2.26.981c.602.602.86 1.36.982 2.26c.116.867.116 1.97.116 3.337v8.11c0 1.367 0 2.47-.116 3.337c-.121.9-.38 1.658-.982 2.26s-1.36.86-2.26.982c-.867.116-1.97.116-3.337.116h-4.11c-1.367 0-2.47 0-3.337-.116c-.9-.122-1.658-.38-2.26-.982s-.86-1.36-.981-2.26a12 12 0 0 1-.082-.943a.75.75 0 0 1-.016-.392a66 66 0 0 1-.019-2.002v-8.11c0-1.367 0-2.47.117-3.337c.12-.9.38-1.658.982-2.26c.601-.602 1.36-.86 2.26-.981c.866-.117 1.969-.117 3.336-.117m-5.168 17c.015.353.039.664.076.942c.099.734.28 1.122.556 1.399c.277.277.666.457 1.4.556c.755.101 1.756.103 3.191.103h4c1.436 0 2.437-.002 3.192-.103c.734-.099 1.122-.28 1.4-.556c.196-.196.343-.449.448-.841H8a.75.75 0 0 1 0-1.5h11.223c.019-.431.025-.925.026-1.5H7.898c-.978 0-1.32.006-1.582.077a2.25 2.25 0 0 0-1.54 1.422m14.473-3H7.782c-.818 0-1.376 0-1.855.128a3.8 3.8 0 0 0-1.177.548V8c0-1.435.002-2.437.103-3.192c.099-.734.28-1.122.556-1.399c.277-.277.666-.457 1.4-.556c.755-.101 1.756-.103 3.191-.103h4c1.436 0 2.437.002 3.192.103c.734.099 1.122.28 1.4.556c.276.277.456.665.555 1.4c.102.754.103 1.756.103 3.191zM7.25 7A.75.75 0 0 1 8 6.25h8a.75.75 0 0 1 0 1.5H8A.75.75 0 0 1 7.25 7m0 3.5A.75.75 0 0 1 8 9.75h5a.75.75 0 0 1 0 1.5H8a.75.75 0 0 1-.75-.75" clip-rule="evenodd"/></svg>