<svg viewBox="0 0 24 24"><g fill="none" stroke="currentColor" stroke-width="1.5"><path stroke-linecap="round" stroke-linejoin="round" d="M6 9.5h12"/><path d="M2 14c0-3.771 0-5.657 1.172-6.828S6.229 6 10 6h4c3.771 0 5.657 0 6.828 1.172S22 10.229 22 14s0 5.657-1.172 6.828S17.771 22 14 22h-4c-3.771 0-5.657 0-6.828-1.172S2 17.771 2 14Zm14-8c0-1.886 0-2.828-.586-3.414S13.886 2 12 2s-2.828 0-3.414.586S8 4.114 8 6"/><path d="M11 16a3 3 0 1 1-6 0a3 3 0 0 1 6 0Zm7.121 2.121a3 3 0 1 1-4.242-4.242a3 3 0 0 1 4.242 4.242Z"/><path stroke-linecap="round" stroke-linejoin="round" d="M8 13v2m10.121-1.121l-1.414 1.414"/></g></svg>