<svg viewBox="0 0 24 24"><g fill="none"><path fill="currentColor" d="m18.45 8.279l.748-.06zm.015.187l.749-.047zM16.614 12.9l.495.563zm.137-.122l.505.554zm-6.68-3.82l.738.127zm.032-.185l.737.139zm2.884-3.786l.331.673zm-.162.081l.342.667zm-5.093 8.398l-.526-.535zm.128-.127l.532.529zm2.179-4.2l.737.135zm4.002 8.128l.732.165zm.041-.18l-.73-.174zm2.397-4.068l.502.557zM7.65 20.413l.387-.643zM5.462 18.81l-.621.42zm1.486-4.573l.525.535zm-1.77 2.08l-.7-.268zm3.138 4.496l-.387.642zm2.424 1.176l-.07.747zm3.053-3.628l-.731-.166zm-.84 2.638l.597.453zM18.34 2.9l.387-.643zm.41.308l.633-.404zm-.123.764l.656.363zm.202-.472l-.75-.034zm-2.383-.773l-.656-.363zm.313-.447l.413.626zm.8.15l-.387.642zm-.495-.232l.045-.749zM15.633 4.14l2.152 1.296l.774-1.285l-2.152-1.296zm-6.93 16.03l-.665-.4l-.774 1.285l.665.4zm4.607-3.07l-.248 1.095l1.463.332l.248-1.095zm-5.837-2.328l.785-.771l-1.052-1.07l-.784.772zm5.845-9.112l3.032-1.49l-.661-1.346l-3.032 1.49zm4.106-.807l.28 3.485l1.494-.12l-.279-3.484zm-.748-.993l.426-.77l-1.312-.727l-.427.771zm.496-.79l.78.471l.774-1.285l-.78-.47zm.798.538l-.455.822l1.313.727l.455-.823zm-.267 4.73l.014.176l1.497-.095l-.016-.2zm-.594 5.125c.068-.06.109-.095.147-.13l-1.01-1.11l-.128.114zm.608-4.95c.09 1.419-.46 2.789-1.471 3.71l1.01 1.11c1.358-1.238 2.076-3.055 1.958-4.914zm-6.908.572l.03-.173l-1.473-.278c-.01.052-.02.106-.035.197zm1.848-4.77c-.08.039-.129.062-.175.086l.685 1.334l.151-.075zM10.84 8.911c.262-1.391 1.128-2.561 2.327-3.177L12.482 4.4c-1.626.835-2.772 2.404-3.116 4.233zM8.258 14l.134-.133l-1.064-1.058l-.122.121zM9.33 8.83l-.03.174l1.475.27c.01-.05.018-.1.033-.19zm-.939 5.037a8.74 8.74 0 0 0 2.384-4.594L9.3 9.003a7.24 7.24 0 0 1-1.973 3.806zm6.38 3.564l.04-.171l-1.46-.348l-.042.188zm1.346-5.095l-.141.125l1.004 1.114l.128-.113zm-1.306 4.924a7.2 7.2 0 0 1 2.169-3.685l-1.004-1.114a8.7 8.7 0 0 0-2.624 4.451zm-6.774 2.51c-.631-.381-1.07-.646-1.395-.875c-.322-.226-.472-.377-.559-.506l-1.243.84c.236.35.558.625.939.893c.378.266.872.563 1.484.932zm-1.616-6.068c-.513.504-.927.91-1.234 1.258c-.31.35-.56.694-.71 1.088l1.401.534c.056-.148.17-.332.433-.629c.264-.3.633-.662 1.161-1.182zm-.338 4.688a1.99 1.99 0 0 1-.205-1.808l-1.402-.534a3.49 3.49 0 0 0 .364 3.18zm1.845 3.064c.612.37 1.105.667 1.516.876c.412.21.807.366 1.225.405l.14-1.493c-.14-.013-.335-.07-.685-.249s-.79-.443-1.422-.824zm5.133-3.26c-.167.737-.285 1.253-.401 1.644c-.117.389-.213.585-.306.707l1.195.906c.254-.335.413-.731.548-1.184c.134-.45.264-1.025.427-1.741zm-2.392 4.541a3.23 3.23 0 0 0 2.88-1.284l-1.196-.906a1.73 1.73 0 0 1-1.543.697zM17.952 3.54l.143.087q.055.035.075.05c.029.02-.012-.003-.052-.067l1.264-.808a1.3 1.3 0 0 0-.337-.344c-.096-.07-.214-.14-.32-.203zm1.33.793c.06-.108.126-.227.175-.335c.053-.116.111-.274.12-.466l-1.499-.068c.004-.076.027-.116.013-.084l-.041.08l-.08.147zm-1.165-.723a.25.25 0 0 1-.039-.146l1.499.068a1.25 1.25 0 0 0-.195-.73zm-1.016-.522l.088-.156c.024-.043.04-.068.05-.084c.022-.033 0 .011-.068.056l-.826-1.252c-.17.112-.28.253-.354.364c-.069.103-.138.23-.202.346zm.844-1.303c-.113-.068-.237-.144-.349-.199a1.3 1.3 0 0 0-.488-.139l-.09 1.498c-.08-.005-.122-.032-.087-.014q.024.01.085.047c.043.024.091.054.155.092zm-.774 1.119a.25.25 0 0 1-.153.04l.09-1.497a1.25 1.25 0 0 0-.763.205z"/><path stroke="currentColor" stroke-linecap="round" stroke-width="1.5" d="m10 9.5l1.452-.726a2.7 2.7 0 0 1 2.9.307a2.7 2.7 0 0 0 2.544.454L18.5 9"/></g></svg>