<svg viewBox="0 0 24 24"><path fill="currentColor" fill-rule="evenodd" d="M15.993 2.017a4 4 0 0 0-.193.328l-.323.583l-2.827 1.39l-.168.083c-1.626.835-2.772 2.403-3.116 4.233c-.01.05-.019.103-.034.19l-.001.007l-.03.173a7.24 7.24 0 0 1-2.095 3.927l-.804.79c-.504.496-.91.896-1.214 1.24c-.31.35-.56.694-.71 1.088a3.49 3.49 0 0 0 .363 3.18c.236.35.558.626.939.894c.373.262.859.555 1.46.917l.713.43c.601.362 1.087.654 1.492.86c.412.21.806.367 1.225.406a3.23 3.23 0 0 0 2.88-1.284c.254-.335.413-.732.548-1.184c.133-.445.261-1.01.42-1.715l.255-1.121l.039-.171a7.2 7.2 0 0 1 2.297-3.798l.006-.005l.141-.126c1.358-1.237 2.076-3.054 1.958-4.914l-.015-.192l-.262-3.267l.355-.642c.058-.103.12-.216.166-.318c.053-.116.111-.274.12-.467a1.25 1.25 0 0 0-.195-.729a1.3 1.3 0 0 0-.337-.344a4 4 0 0 0-.303-.193l-.815-.491a5 5 0 0 0-.33-.188a1.3 1.3 0 0 0-.489-.139a1.25 1.25 0 0 0-.763.204a1.3 1.3 0 0 0-.354.365m-.01 2.333l1.472.887l.248 3.101c.005.064.009.103.01.134l-1.055.351a1.95 1.95 0 0 1-1.838-.328a3.45 3.45 0 0 0-3.703-.392l-.06.03a4.43 4.43 0 0 1 2.261-2.473z" clip-rule="evenodd"/></svg>