<svg viewBox="0 0 24 24"><path fill="currentColor" d="M3.464 3.464C4.93 2 7.286 2 12 2s7.071 0 8.535 1.464C22 4.93 22 7.286 22 12s0 7.071-1.465 8.535C19.072 22 16.714 22 12 22s-7.071 0-8.536-1.465C2 19.072 2 16.714 2 12s0-7.071 1.464-8.536" opacity=".5"/><path fill="currentColor" d="M12.75 17.5a.75.75 0 0 1-1.5 0v-6A3.25 3.25 0 0 0 8 8.25h-.19l.22.22a.75.75 0 0 1-1.06 1.06l-1.5-1.5a.75.75 0 0 1 0-1.06l1.5-1.5a.75.75 0 0 1 1.06 1.06l-.22.22H8c1.68 0 3.155.872 4 2.187a4.75 4.75 0 0 1 4-2.187h.19l-.22-.22a.75.75 0 0 1 1.06-1.06l1.5 1.5a.75.75 0 0 1 0 1.06l-1.5 1.5a.75.75 0 1 1-1.06-1.06l.22-.22H16a3.25 3.25 0 0 0-3.25 3.25z"/></svg>