<svg viewBox="0 0 24 24"><g fill="none"><path fill="currentColor" d="M11.25 18a.75.75 0 0 0 1.5 0zM18 8l.53.53a.75.75 0 0 0 0-1.06zm-.97-2.03a.75.75 0 1 0-1.06 1.06zm-1.06 3a.75.75 0 1 0 1.06 1.06zM12.75 18v-6h-1.5v6zM16 8.75h2v-1.5h-2zm2.53-1.28l-1.5-1.5l-1.06 1.06l1.5 1.5zm-1.06 0l-1.5 1.5l1.06 1.06l1.5-1.5zM12.75 12A3.25 3.25 0 0 1 16 8.75v-1.5A4.75 4.75 0 0 0 11.25 12z"/><path fill="currentColor" d="M11.25 18a.75.75 0 0 0 1.5 0zM6 8l-.53-.53a.75.75 0 0 0 0 1.06zm2.03-.97a.75.75 0 0 0-1.06-1.06zm-1.06 3a.75.75 0 1 0 1.06-1.06zM12.75 18v-6h-1.5v6zM8 7.25H6v1.5h2zM6.53 8.53l1.5-1.5l-1.06-1.06l-1.5 1.5zm-1.06 0l1.5 1.5l1.06-1.06l-1.5-1.5zM12.75 12A4.75 4.75 0 0 0 8 7.25v1.5A3.25 3.25 0 0 1 11.25 12z"/><path stroke="currentColor" stroke-linecap="round" stroke-width="1.5" d="M22 12c0 4.714 0 7.071-1.465 8.535C19.072 22 16.714 22 12 22s-7.071 0-8.536-1.465C2 19.072 2 16.714 2 12s0-7.071 1.464-8.536C4.93 2 7.286 2 12 2s7.071 0 8.535 1.464c.974.974 1.3 2.343 1.41 4.536"/></g></svg>