<svg viewBox="0 0 24 24"><path fill="currentColor" fill-rule="evenodd" d="M21.037 2.884a.75.75 0 0 1 0 1.06l-1.633 1.633a4.75 4.75 0 0 1-.085 5.687l.004.032l-.032.004l.032-.004v.005l.001.008l.003.027a9 9 0 0 1 .034.444a16.1 16.1 0 0 1-.58 5.176c-.29 1.019-.743 2.026-1.208 2.907c-1.162 2.199-3.833 2.855-5.876 1.812l-.025-.012l-1.12-.682a22.75 22.75 0 0 1-7.613-7.612l-.681-1.12l-.013-.025c-1.043-2.043-.386-4.715 1.813-5.876c.88-.465 1.888-.918 2.905-1.21a16.1 16.1 0 0 1 5.525-.554l.096.009l.027.003h.009l.002.001h.001l-.003.033l.003-.033l.034.004a4.75 4.75 0 0 1 5.686-.085l1.633-1.632a.75.75 0 0 1 1.06 0m-8.84 3.182l-.14-.01a14.6 14.6 0 0 0-4.682.524c-.883.254-1.79.658-2.617 1.094c-1.406.743-1.873 2.474-1.189 3.844l.652 1.071a21.25 21.25 0 0 0 7.11 7.11l1.071.652c1.37.684 3.102.218 3.844-1.189c.437-.827.84-1.734 1.093-2.617a14.6 14.6 0 0 0 .516-4.823zm6.127 4.004L13.85 5.597a3.251 3.251 0 0 1 4.474 4.473" clip-rule="evenodd"/></svg>