<svg viewBox="0 0 24 24"><path fill="currentColor" d="M21.036 3.944a.75.75 0 0 0-1.06-1.06zm-8.838 1.061a.75.75 0 1 0 1.06 1.06zm6.187 6.187l-.53.53a.75.75 0 0 0 1.06 0zM3.58 12.98l.64-.39zm-.667-1.096l-.668.34l.012.026l.015.024zM4.408 7.01l.35.663zm2.761-1.15l.206.721zm5.366-.518l.53-.53l-.183-.184l-.258-.03zM10.94 20.34l.39-.64zm1.096.667l-.39.641l.024.015l.025.012zm4.872-1.495l-.663-.35zm1.151-2.761l.721.206zm.924-.585a.75.75 0 1 0-1.463-.332zm.992-13.282l-2.122 2.121l1.061 1.06l2.121-2.12zm-6.718 3.182a3.25 3.25 0 0 1 4.596 0l1.061-1.061a4.75 4.75 0 0 0-6.717 0zm4.596 0a3.25 3.25 0 0 1 0 4.596l1.061 1.06a4.75 4.75 0 0 0 0-6.717zM4.22 12.589l-.667-1.096l-1.281.78l.667 1.096zm.538-4.915c.827-.436 1.734-.84 2.617-1.093l-.412-1.442c-1.018.29-2.025.744-2.905 1.209zm2.617-1.093a14.6 14.6 0 0 1 4.98-.503l.091.009l.089-.745l.088-.745h-.004l-.008-.001l-.123-.012q-.124-.013-.348-.025a16.1 16.1 0 0 0-5.176.58zm-3.794 4.96c-.701-1.373-.238-3.12 1.177-3.867l-.7-1.326c-2.2 1.16-2.856 3.833-1.813 5.876zm6.97 9.44l1.097.667l.78-1.281l-1.097-.667zm7.021-1.119c.465-.88.918-1.887 1.21-2.905l-1.443-.412c-.253.883-.656 1.79-1.093 2.617zm-5.876 1.813c2.044 1.043 4.715.387 5.876-1.812l-1.326-.7c-.747 1.414-2.494 1.878-3.868 1.176zm.308-15.803l5.85 5.85l1.061-1.06l-5.85-5.85zM2.94 13.37a22.75 22.75 0 0 0 7.612 7.612l.78-1.281a21.25 21.25 0 0 1-7.11-7.11zm15.842 3.588q.115-.402.203-.791l-1.463-.332q-.079.351-.182.71z"/></svg>