<svg viewBox="0 0 24 24"><path fill="currentColor" d="M22.53 2.53a.75.75 0 0 0-1.06-1.06zM3.19 12.63l.64-.39zm-.741-1.219l-.668.341l.012.025l.015.024zM4.11 5.997l.35.663zm3.069-1.279l.206.721zm5.963-.575l.53-.53l-.184-.184l-.257-.031zM11.37 20.81l.39-.64zm1.219.742l-.39.64l.024.015l.025.012zm5.414-1.662l-.663-.35zm1.279-3.069l.721.206zm.575-5.963l.745-.089l-.03-.257l-.184-.184zM21.47 1.47l-2.358 2.357l1.06 1.06L22.53 2.53zm-7.583 3.418a3.695 3.695 0 0 1 5.225 0l1.06-1.06a5.195 5.195 0 0 0-7.346 0zm5.225 0a3.695 3.695 0 0 1 0 5.226l1.061 1.06a5.195 5.195 0 0 0 0-7.347zM3.83 12.24l-.74-1.219l-1.282.78l.74 1.218zm.63-5.58c.922-.486 1.935-.938 2.925-1.22l-.412-1.443c-1.124.321-2.237.822-3.213 1.337zm2.925-1.22a16.3 16.3 0 0 1 5.564-.563l.1.01h.004l.088-.744l.09-.745h-.005l-.009-.002l-.135-.013q-.136-.013-.384-.027a17.8 17.8 0 0 0-5.725.641zm-4.268 5.63c-.799-1.563-.273-3.556 1.343-4.41l-.7-1.326C1.36 6.6.64 9.519 1.78 11.752zm7.863 10.381l1.219.741l.78-1.281l-1.219-.742zm7.686-1.21c.515-.976 1.016-2.09 1.337-3.214l-1.442-.412c-.283.99-.735 2.003-1.221 2.925zm1.337-3.214a17.8 17.8 0 0 0 .614-6.11l-.01-.105l-.003-.03l-.002-.008v-.004l-.745.088l-.744.09v-.001v.003l.002.019l.008.082q.01.112.023.333a16.3 16.3 0 0 1-.585 5.23zm-7.755 5.192c2.233 1.14 5.15.421 6.418-1.979l-1.326-.7c-.854 1.616-2.847 2.142-4.41 1.344zm.363-17.546l6.716 6.716l1.06-1.06l-6.715-6.717zM2.55 13.019a25.2 25.2 0 0 0 8.432 8.432l.78-1.282a23.7 23.7 0 0 1-7.93-7.93z"/></svg>