<svg viewBox="0 0 24 24"><path fill="currentColor" fill-rule="evenodd" d="M20.913 5.889c.337.504.337 1.207.337 2.611v12.75h.5a.75.75 0 0 1 0 1.5h-20a.75.75 0 0 1 0-1.5h.5V8.5c0-1.404 0-2.107.337-2.611a2 2 0 0 1 .552-.552c.441-.295 1.034-.332 2.115-.336q-.005.438-.004.91V7.25h-1a.75.75 0 0 0 0 1.5h1v1.5h-1a.75.75 0 0 0 0 1.5h1v1.5h-1a.75.75 0 0 0 0 1.5h1v6.5h1.5V6c0-1.886 0-2.828.586-3.414S8.864 2 10.75 2h2c1.886 0 2.828 0 3.414.586S16.75 4.114 16.75 6v15.25h1.5v-6.5h1a.75.75 0 0 0 0-1.5h-1v-1.5h1a.75.75 0 0 0 0-1.5h-1v-1.5h1a.75.75 0 0 0 0-1.5h-1V5.91q.001-.47-.004-.91c1.081.005 1.674.042 2.115.337a2 2 0 0 1 .552.552M12.5 19a.75.75 0 0 0-1.5 0v2.25h1.5zM9 15a.75.75 0 0 1 .75-.75h4a.75.75 0 0 1 0 1.5h-4A.75.75 0 0 1 9 15m.75-3.75a.75.75 0 0 0 0 1.5h4a.75.75 0 0 0 0-1.5zM9.25 7a2.75 2.75 0 1 1 5.5 0a2.75 2.75 0 0 1-5.5 0m1.5 0a1.25 1.25 0 1 1 2.5 0a1.25 1.25 0 0 1-2.5 0" clip-rule="evenodd"/></svg>