<svg viewBox="0 0 24 24"><path fill="currentColor" d="M12 22c-4.243 0-6.364 0-7.682-1.465C3 19.072 3 16.714 3 12s0-7.071 1.318-8.536S7.758 2 12 2s6.364 0 7.682 1.464C21 4.93 21 7.286 21 12s0 7.071-1.318 8.535S16.242 22 12 22" opacity=".5"/><path fill="currentColor" d="M15 6H9c-.465 0-.697 0-.888.051a1.5 1.5 0 0 0-1.06 1.06C7 7.304 7 7.536 7 8s0 .697.051.888a1.5 1.5 0 0 0 1.06 1.06C8.304 10 8.536 10 9 10h6c.465 0 .697 0 .888-.051a1.5 1.5 0 0 0 1.06-1.06C17 8.696 17 8.464 17 8s0-.697-.051-.888a1.5 1.5 0 0 0-1.06-1.06C15.697 6 15.464 6 15 6m-7 8a1 1 0 1 0 0-2a1 1 0 0 0 0 2m0 4a1 1 0 1 0 0-2a1 1 0 0 0 0 2m4-4a1 1 0 1 0 0-2a1 1 0 0 0 0 2m0 4a1 1 0 1 0 0-2a1 1 0 0 0 0 2m4-4a1 1 0 1 0 0-2a1 1 0 0 0 0 2m0 4a1 1 0 1 0 0-2a1 1 0 0 0 0 2"/></svg>