<svg viewBox="0 0 24 24"><path fill="currentColor" d="M7.75 2.5a.75.75 0 0 0-1.5 0v1.58c-1.44.115-2.384.397-3.078 1.092c-.695.694-.977 1.639-1.093 3.078h19.842c-.116-1.44-.398-2.384-1.093-3.078c-.694-.695-1.639-.977-3.078-1.093V2.5a.75.75 0 0 0-1.5 0v1.513C15.585 4 14.839 4 14 4h-4c-.839 0-1.585 0-2.25.013z"/><path fill="currentColor" fill-rule="evenodd" d="M22 12c0-.839 0-1.585-.013-2.25H2.013C2 10.415 2 11.161 2 12v2c0 3.771 0 5.657 1.172 6.828S6.229 22 10 22h4c3.771 0 5.657 0 6.828-1.172S22 17.771 22 14zm-8 .25A1.75 1.75 0 0 0 12.25 14v2a1.75 1.75 0 1 0 3.5 0v-2A1.75 1.75 0 0 0 14 12.25m0 1.5a.25.25 0 0 0-.25.25v2a.25.25 0 1 0 .5 0v-2a.25.25 0 0 0-.25-.25m-3.213-1.443a.75.75 0 0 1 .463.693v4a.75.75 0 0 1-1.5 0v-2.19l-.22.22a.75.75 0 0 1-1.06-1.06l1.5-1.5a.75.75 0 0 1 .817-.163" clip-rule="evenodd"/></svg>