<svg viewBox="0 0 24 24"><path fill="currentColor" d="M17 14a1 1 0 1 0 0-2a1 1 0 0 0 0 2m0 4a1 1 0 1 0 0-2a1 1 0 0 0 0 2m-4-5a1 1 0 1 1-2 0a1 1 0 0 1 2 0m0 4a1 1 0 1 1-2 0a1 1 0 0 1 2 0m-6-3a1 1 0 1 0 0-2a1 1 0 0 0 0 2m0 4a1 1 0 1 0 0-2a1 1 0 0 0 0 2"/><path fill="currentColor" fill-rule="evenodd" d="M7 1.75a.75.75 0 0 1 .75.75v.763c.662-.013 1.391-.013 2.193-.013h4.113c.803 0 1.532 0 2.194.013V2.5a.75.75 0 0 1 1.5 0v.827q.39.03.739.076c1.172.158 2.121.49 2.87 1.238c.748.749 1.08 1.698 1.238 2.87c.153 1.14.153 2.595.153 4.433v2.112c0 1.838 0 3.294-.153 4.433c-.158 1.172-.49 2.121-1.238 2.87c-.749.748-1.698 1.08-2.87 1.238c-1.14.153-2.595.153-4.433.153H9.945c-1.838 0-3.294 0-4.433-.153c-1.172-.158-2.121-.49-2.87-1.238c-.748-.749-1.08-1.698-1.238-2.87c-.153-1.14-.153-2.595-.153-4.433v-2.112c0-1.838 0-3.294.153-4.433c.158-1.172.49-2.121 1.238-2.87c.749-.748 1.698-1.08 2.87-1.238q.35-.046.739-.076V2.5A.75.75 0 0 1 7 1.75M5.71 4.89c-1.005.135-1.585.389-2.008.812S3.025 6.705 2.89 7.71q-.034.255-.058.539h18.336q-.024-.284-.058-.54c-.135-1.005-.389-1.585-.812-2.008s-1.003-.677-2.009-.812c-1.027-.138-2.382-.14-4.289-.14h-4c-1.907 0-3.261.002-4.29.14M2.75 12c0-.854 0-1.597.013-2.25h18.474c.013.653.013 1.396.013 2.25v2c0 1.907-.002 3.262-.14 4.29c-.135 1.005-.389 1.585-.812 2.008s-1.003.677-2.009.812c-1.027.138-2.382.14-4.289.14h-4c-1.907 0-3.261-.002-4.29-.14c-1.005-.135-1.585-.389-2.008-.812s-.677-1.003-.812-2.009c-.138-1.027-.14-2.382-.14-4.289z" clip-rule="evenodd"/></svg>