<svg viewBox="0 0 24 24"><path fill="currentColor" d="M15.75 4a.75.75 0 0 0-1.5 0v1.052c0 .898 0 1.648.08 2.242c.084.628.27 1.195.725 1.65c.456.456 1.023.642 1.65.726c.461.062 1.015.076 1.658.08l-.831.664a.75.75 0 0 0 .936 1.172l2.5-2a.75.75 0 0 0 0-1.172l-2.5-2a.75.75 0 1 0-.936 1.172l.828.663c-.624-.003-1.087-.016-1.455-.066c-.461-.062-.659-.169-.789-.3s-.237-.327-.3-.788c-.064-.483-.066-1.131-.066-2.095z"/><path fill="currentColor" fill-rule="evenodd" d="M10.693 4.95c-1.17-2.095-4.005-2.223-5.686-.543c-.898.899-1.697 2.093-1.75 3.498c-.079 2.08.459 5.536 3.88 8.958c3.422 3.421 6.877 3.959 8.958 3.88c1.405-.053 2.6-.852 3.498-1.75c1.68-1.68 1.552-4.516-.544-5.685l-1.163-.65c-1.368-.763-3.095-.438-4.227.68a.63.63 0 0 1-.337.104c-.256.012-.85-.079-1.767-.997c-.919-.918-1.01-1.511-.997-1.767a.63.63 0 0 1 .104-.337c1.118-1.131 1.443-2.859.68-4.227zm-4.625.518c1.106-1.106 2.716-.86 3.315.214l.649 1.163c.403.723.266 1.74-.448 2.452c-.07.07-.486.516-.524 1.307c-.04.81.324 1.792 1.434 2.902s2.09 1.474 2.901 1.434c.791-.038 1.237-.454 1.307-.524c.714-.713 1.73-.851 2.453-.448l1.163.65c1.074.598 1.32 2.208.214 3.314c-.775.775-1.63 1.28-2.494 1.312c-1.735.066-4.76-.363-7.84-3.442S4.69 9.697 4.756 7.962c.033-.863.537-1.72 1.312-2.494" clip-rule="evenodd"/></svg>