<svg viewBox="0 0 24 24"><g fill="none" stroke="currentColor" stroke-width="1.5"><path d="M17 12a5 5 0 1 0-4.478-2.774a.82.82 0 0 1 .067.574l-.298 1.113a.65.65 0 0 0 .796.796l1.113-.298a.82.82 0 0 1 .574.067A5 5 0 0 0 17 12Z"/><path stroke-linecap="round" d="M15 7h4m-2 2V5M2.007 9.933c-.073 1.908.41 5.149 3.66 8.4A14 14 0 0 0 8 20.232M3.538 6.937c1.393-1.393 3.615-1.206 4.5.38l.649 1.162c.585 1.05.35 2.426-.572 3.349c0 0-1.12 1.119.91 3.148c2.028 2.028 3.147.91 3.147.91c.923-.923 2.3-1.158 3.349-.573l1.163.65c1.585.884 1.772 3.106.379 4.5c-.837.836-1.863 1.488-2.996 1.53A9.8 9.8 0 0 1 11 21.611"/></g></svg>