<svg viewBox="0 0 24 24"><path fill="currentColor" fill-rule="evenodd" d="M9.778 21h4.444c3.121 0 4.682 0 5.803-.735a4.4 4.4 0 0 0 1.226-1.204c.749-1.1.749-2.633.749-5.697s0-4.597-.749-5.697a4.4 4.4 0 0 0-1.226-1.204c-.72-.473-1.622-.642-3.003-.702c-.659 0-1.226-.49-1.355-1.125A2.064 2.064 0 0 0 13.634 3h-3.268c-.988 0-1.839.685-2.033 1.636c-.129.635-.696 1.125-1.355 1.125c-1.38.06-2.282.23-3.003.702A4.4 4.4 0 0 0 2.75 7.667C2 8.767 2 10.299 2 13.364s0 4.596.749 5.697c.324.476.74.885 1.226 1.204C5.096 21 6.657 21 9.778 21M12 9.273c-2.301 0-4.167 1.831-4.167 4.09S9.7 17.456 12 17.456s4.167-1.832 4.167-4.091S14.3 9.273 12 9.273m0 1.636c-1.38 0-2.5 1.099-2.5 2.455c0 1.355 1.12 2.454 2.5 2.454s2.5-1.099 2.5-2.454s-1.12-2.455-2.5-2.455m4.722-.818c0-.452.373-.818.834-.818h1.11c.46 0 .834.366.834.818a.826.826 0 0 1-.833.818h-1.111a.826.826 0 0 1-.834-.818" clip-rule="evenodd"/></svg>