<svg viewBox="0 0 24 24"><path fill="currentColor" fill-rule="evenodd" d="M8 4c0-.552.413-1 .923-1h6.154c.51 0 .923.448.923 1s-.413 1-.923 1H8.923C8.413 5 8 4.552 8 4m1.778 17h4.444c3.121 0 4.682 0 5.803-.722a4.4 4.4 0 0 0 1.226-1.183C22 18.015 22 16.51 22 13.5s0-4.514-.75-5.595a4.4 4.4 0 0 0-1.225-1.183C18.904 6 17.343 6 14.222 6H9.778c-3.121 0-4.682 0-5.803.722A4.4 4.4 0 0 0 2.75 7.905C2 8.985 2 10.49 2 13.498v.002c0 3.01 0 4.514.749 5.595c.324.468.74.87 1.226 1.183C5.096 21 6.657 21 9.778 21m-1.945-7.5c0-2.22 1.866-4.018 4.167-4.018s4.167 1.799 4.167 4.018S14.3 17.518 12 17.518s-4.167-1.8-4.167-4.018m1.667 0c0-1.332 1.12-2.41 2.5-2.41s2.5 1.079 2.5 2.41s-1.12 2.41-2.5 2.41s-2.5-1.079-2.5-2.41m8.611-4.018c-.46 0-.833.36-.833.804c0 .443.373.803.833.803h.556c.46 0 .833-.36.833-.803s-.373-.804-.833-.804z" clip-rule="evenodd"/></svg>