<svg viewBox="0 0 24 24"><path fill="currentColor" d="M10 20h4c3.771 0 5.657 0 6.828-1.172S22 15.771 22 12c0-.442-.002-1.608-.004-2H2c-.002.392 0 1.558 0 2c0 3.771 0 5.657 1.171 6.828S6.23 20 10 20" opacity=".5"/><path fill="currentColor" d="M5.25 13.5a.75.75 0 0 1 .75-.75h2a.75.75 0 0 1 0 1.5H6a.75.75 0 0 1-.75-.75m0 3a.75.75 0 0 1 .75-.75h4a.75.75 0 0 1 0 1.5H6a.75.75 0 0 1-.75-.75"/><path fill="currentColor" fill-rule="evenodd" d="M17.197 12.293c-.323-.043-.72-.043-1.152-.043h-.09c-.433 0-.83 0-1.152.043c-.356.048-.731.16-1.04.47s-.422.684-.47 1.04c-.043.323-.043.72-.043 1.152v.09c0 .433 0 .83.043 1.152c.048.356.16.731.47 1.04s.684.422 1.04.47c.323.043.72.043 1.152.043h.09c.433 0 .83 0 1.152-.043c.356-.048.731-.16 1.04-.47s.422-.684.47-1.04c.043-.323.043-.72.043-1.152v-.09c0-.433 0-.83-.043-1.152c-.048-.356-.16-.731-.47-1.04s-.684-.422-1.04-.47m-2.371 1.529l-.003.001l-.001.003l-.005.01a.7.7 0 0 0-.037.167c-.028.21-.03.504-.03.997s.002.787.03.997a.7.7 0 0 0 .042.177l.001.003l.003.001l.01.005c.022.009.07.024.167.037c.21.028.504.03.997.03s.787-.002.997-.03a.7.7 0 0 0 .177-.042l.003-.001l.001-.003l.005-.01a.7.7 0 0 0 .037-.167c.028-.21.03-.504.03-.997s-.002-.787-.03-.997a.7.7 0 0 0-.042-.177l-.001-.003l-.003-.001l-.01-.005a.7.7 0 0 0-.167-.037c-.21-.028-.504-.03-.997-.03s-.787.002-.997.03a.7.7 0 0 0-.177.042" clip-rule="evenodd"/><path fill="currentColor" d="M9.995 4h4.01c3.781 0 5.672 0 6.846 1.116c.846.803 1.083 1.96 1.149 3.884v1H2V9c.066-1.925.303-3.08 1.149-3.884C4.323 4 6.214 4 9.995 4"/></svg>