<svg viewBox="0 0 24 24"><path fill="currentColor" fill-rule="evenodd" d="M17.75 14.5a2.25 2.25 0 1 0 0 4.5a2.25 2.25 0 0 0 0-4.5M14 16.75a3.75 3.75 0 1 1 6.879 2.068l.901.902a.75.75 0 1 1-1.06 1.06l-.902-.901A3.75 3.75 0 0 1 14 16.75" clip-rule="evenodd"/><path fill="currentColor" d="M10 4h4c3.771 0 5.657 0 6.828 1.172c.844.843 1.08 2.057 1.146 4.078H2.026c.066-2.021.302-3.235 1.146-4.078C4.343 4 6.229 4 10 4m0 16h3.627a5.25 5.25 0 1 1 8.369-6.34Q22 12.9 22 12q0-.662-.002-1.25H2.002Q1.999 11.338 2 12c0 3.771 0 5.657 1.172 6.828S6.229 20 10 20"/><path fill="currentColor" d="M5.25 16a.75.75 0 0 1 .75-.75h4a.75.75 0 0 1 0 1.5H6a.75.75 0 0 1-.75-.75"/></svg>