<svg viewBox="0 0 24 24"><g fill="none" stroke="currentColor" stroke-width="1.5"><path stroke-linecap="round" d="M10 16.5H6m2-3H6"/><path d="M14 15c0-.943 0-1.414.293-1.707S15.057 13 16 13s1.414 0 1.707.293S18 14.057 18 15s0 1.414-.293 1.707S16.943 17 16 17s-1.414 0-1.707-.293S14 15.943 14 15Z"/><path stroke-linecap="round" d="M22 12c0-3.771 0-5.657-1.172-6.828S17.771 4 14 4h-4C6.229 4 4.343 4 3.172 5.172S2 8.229 2 12s0 5.657 1.172 6.828S6.229 20 10 20h4c3.771 0 5.657 0 6.828-1.172c.654-.653.943-1.528 1.07-2.828M2 10h5m15 0H11"/></g></svg>