<svg viewBox="0 0 24 24"><path fill="currentColor" fill-rule="evenodd" d="M9.944 3.25h4.112c1.838 0 3.294 0 4.433.153c1.172.158 2.121.49 2.87 1.238c.748.749 1.08 1.698 1.238 2.87c.09.673.127 1.456.142 2.363a.8.8 0 0 1 .004.23q.009.848.007 1.84v.112c0 1.838 0 3.294-.153 4.433c-.158 1.172-.49 2.121-1.238 2.87c-.749.748-1.698 1.08-2.87 1.238c-1.14.153-2.595.153-4.433.153H9.944c-1.838 0-3.294 0-4.433-.153c-1.172-.158-2.121-.49-2.87-1.238c-.748-.749-1.08-1.698-1.238-2.87c-.153-1.14-.153-2.595-.153-4.433v-.112q-.002-.992.007-1.84a.8.8 0 0 1 .003-.23c.016-.907.053-1.69.143-2.363c.158-1.172.49-2.121 1.238-2.87c.749-.748 1.698-1.08 2.87-1.238c1.14-.153 2.595-.153 4.433-.153m-7.192 7.5q-.002.582-.002 1.25c0 1.907.002 3.262.14 4.29c.135 1.005.389 1.585.812 2.008s1.003.677 2.009.812c1.028.138 2.382.14 4.289.14h4c1.907 0 3.262-.002 4.29-.14c1.005-.135 1.585-.389 2.008-.812s.677-1.003.812-2.009c.138-1.028.14-2.382.14-4.289q0-.668-.002-1.25zm18.472-1.5H2.776c.02-.587.054-1.094.114-1.54c.135-1.005.389-1.585.812-2.008s1.003-.677 2.009-.812c1.028-.138 2.382-.14 4.289-.14h4c1.907 0 3.262.002 4.29.14c1.005.135 1.585.389 2.008.812s.677 1.003.812 2.009c.06.445.094.952.114 1.539m-5.269 3h.09c.433 0 .83 0 1.152.043c.356.048.731.16 1.04.47s.422.684.47 1.04c.043.323.043.72.043 1.152v.09c0 .433 0 .83-.043 1.152c-.048.356-.16.731-.47 1.04s-.684.422-1.04.47c-.323.043-.72.043-1.152.043h-.09c-.433 0-.83 0-1.152-.043c-.356-.048-.731-.16-1.04-.47s-.422-.684-.47-1.04c-.043-.323-.043-.72-.043-1.152v-.09c0-.433 0-.83.043-1.152c.048-.356.16-.731.47-1.04s.684-.422 1.04-.47c.323-.043.72-.043 1.152-.043m-1.13 1.572l-.002.001l-.001.003l-.005.01a.7.7 0 0 0-.037.167c-.028.21-.03.504-.03.997s.002.787.03.997a.7.7 0 0 0 .042.177l.001.003l.003.001l.01.005c.022.009.07.024.167.037c.21.028.504.03.997.03s.787-.002.997-.03a.7.7 0 0 0 .177-.042l.003-.001l.001-.003l.005-.01a.7.7 0 0 0 .037-.167c.028-.21.03-.504.03-.997s-.002-.787-.03-.997a.7.7 0 0 0-.042-.177l-.001-.003l-.003-.001l-.01-.005a.7.7 0 0 0-.167-.037c-.21-.028-.504-.03-.997-.03s-.787.002-.997.03a.7.7 0 0 0-.177.042M5.25 13.5a.75.75 0 0 1 .75-.75h2a.75.75 0 0 1 0 1.5H6a.75.75 0 0 1-.75-.75m0 3a.75.75 0 0 1 .75-.75h4a.75.75 0 0 1 0 1.5H6a.75.75 0 0 1-.75-.75" clip-rule="evenodd"/></svg>