<svg viewBox="0 0 24 24"><path fill="currentColor" fill-rule="evenodd" d="M9.944 3.25h4.112c1.838 0 3.294 0 4.433.153c1.172.158 2.121.49 2.87 1.238c.748.749 1.08 1.698 1.238 2.87c.09.673.127 1.456.142 2.363a.8.8 0 0 1 .004.23q.009.848.007 1.84V13a.75.75 0 0 1-1.5 0v-1q0-.668-.002-1.25H2.752q-.003.582-.002 1.25c0 1.907.002 3.262.14 4.29c.135 1.005.389 1.585.812 2.008s1.003.677 2.009.812c1.028.138 2.382.14 4.289.14h3a.75.75 0 0 1 0 1.5H9.944c-1.838 0-3.294 0-4.433-.153c-1.172-.158-2.121-.49-2.87-1.238c-.748-.749-1.08-1.698-1.238-2.87c-.153-1.14-.153-2.595-.153-4.433v-.112q-.002-.992.007-1.84a.8.8 0 0 1 .003-.23c.016-.907.053-1.69.143-2.363c.158-1.172.49-2.121 1.238-2.87c.749-.748 1.698-1.08 2.87-1.238c1.14-.153 2.595-.153 4.433-.153m-7.168 6h18.448a16 16 0 0 0-.114-1.54c-.135-1.005-.389-1.585-.812-2.008s-1.003-.677-2.009-.812c-1.027-.138-2.382-.14-4.289-.14h-4c-1.907 0-3.261.002-4.29.14c-1.005.135-1.585.389-2.008.812S3.025 6.705 2.89 7.71c-.06.445-.094.952-.114 1.539M18 14.75a2.25 2.25 0 1 0 0 4.5a2.25 2.25 0 0 0 0-4.5M14.25 17a3.75 3.75 0 1 1 6.879 2.068l.901.902a.75.75 0 1 1-1.06 1.06l-.902-.901A3.75 3.75 0 0 1 14.25 17m-9-1a.75.75 0 0 1 .75-.75h4a.75.75 0 0 1 0 1.5H6a.75.75 0 0 1-.75-.75" clip-rule="evenodd"/></svg>