<svg viewBox="0 0 24 24"><g fill="none" stroke="currentColor" stroke-width="1.5"><path d="M2 12c0-3.771 0-5.657 1.172-6.828S6.229 4 10 4h4c3.771 0 5.657 0 6.828 1.172S22 8.229 22 12s0 5.657-1.172 6.828S17.771 20 14 20h-4c-3.771 0-5.657 0-6.828-1.172S2 15.771 2 12Z"/><path stroke-linecap="round" d="M10 16.5H6m2-3H6M2 10h20" opacity=".5"/><path d="M14 15c0-.943 0-1.414.293-1.707S15.057 13 16 13s1.414 0 1.707.293S18 14.057 18 15s0 1.414-.293 1.707S16.943 17 16 17s-1.414 0-1.707-.293S14 15.943 14 15Z" opacity=".5"/></g></svg>