<svg viewBox="0 0 24 24"><path fill="currentColor" fill-rule="evenodd" d="M18.47 13.47a.75.75 0 0 1 1.06 0l2 2a.75.75 0 1 1-1.06 1.06l-.72-.72V20a.75.75 0 0 1-1.5 0v-4.19l-.72.72a.75.75 0 1 1-1.06-1.06z" clip-rule="evenodd"/><path fill="currentColor" d="M10 4h4c3.771 0 5.657 0 6.828 1.172c.844.843 1.08 2.057 1.146 4.078H2.026c.066-2.021.302-3.235 1.146-4.078C4.343 4 6.229 4 10 4"/><path fill="currentColor" fill-rule="evenodd" d="M10 20h4c1.056 0 1.964 0 2.75-.026v-1.738a2.25 2.25 0 0 1-1.341-3.827l2-2a2.25 2.25 0 0 1 3.182 0l1.403 1.403Q22 12.988 22 12q0-.662-.002-1.25H2.002Q1.999 11.338 2 12c0 3.771 0 5.657 1.172 6.828S6.229 20 10 20m-4.75-4a.75.75 0 0 1 .75-.75h4a.75.75 0 0 1 0 1.5H6a.75.75 0 0 1-.75-.75m7.25-.75a.75.75 0 0 0 0 1.5H14a.75.75 0 0 0 0-1.5z" clip-rule="evenodd"/></svg>