<svg viewBox="0 0 24 24"><path fill="currentColor" d="M14 4h-4C6.229 4 4.343 4 3.172 5.172c-.844.843-1.08 2.057-1.146 4.078h19.948c-.066-2.021-.302-3.235-1.146-4.078C19.657 4 17.771 4 14 4"/><path fill="currentColor" fill-rule="evenodd" d="M14 20h-4c-3.771 0-5.657 0-6.828-1.172S2 15.771 2 12q0-.662.002-1.25h19.996Q22 11.338 22 12c0 3.771 0 5.657-1.172 6.828S17.771 20 14 20m2.045-7.75c.433 0 .83 0 1.152.043c.356.048.731.16 1.04.47s.422.684.47 1.04c.043.323.043.72.043 1.152v.09c0 .433 0 .83-.043 1.152c-.048.356-.16.731-.47 1.04s-.684.422-1.04.47c-.323.043-.72.043-1.152.043h-.09c-.433 0-.83 0-1.152-.043c-.356-.048-.731-.16-1.04-.47s-.422-.684-.47-1.04c-.043-.323-.043-.72-.043-1.152v-.09c0-.433 0-.83.043-1.152c.048-.356.16-.731.47-1.04s.684-.422 1.04-.47c.323-.043.72-.043 1.152-.043zM5.25 13.5a.75.75 0 0 1 .75-.75h2a.75.75 0 0 1 0 1.5H6a.75.75 0 0 1-.75-.75m0 3a.75.75 0 0 1 .75-.75h4a.75.75 0 0 1 0 1.5H6a.75.75 0 0 1-.75-.75" clip-rule="evenodd"/><path fill="currentColor" d="m14.823 13.823l.003-.001l.01-.005a.7.7 0 0 1 .167-.037c.21-.028.504-.03.997-.03s.787.002.997.03a.7.7 0 0 1 .177.042l.003.001l.001.003l.005.01c.009.022.024.07.037.167c.028.21.03.504.03.997s-.002.787-.03.997a.7.7 0 0 1-.042.177l-.001.003l-.003.001l-.01.005a.7.7 0 0 1-.167.037c-.21.028-.504.03-.997.03s-.787-.002-.997-.03a.7.7 0 0 1-.177-.042l-.003-.001l-.001-.003l-.005-.01a.7.7 0 0 1-.037-.167c-.028-.21-.03-.504-.03-.997s.002-.787.03-.997a.7.7 0 0 1 .042-.177z"/></svg>