<svg viewBox="0 0 24 24"><path fill="currentColor" d="M10.023 2a1.75 1.75 0 0 0 0 3.5h4a1.75 1.75 0 1 0 0-3.5zM3.887 16.205C3.029 12.773 2.6 11.058 3.5 9.904S6.17 8.75 9.708 8.75h4.63c3.538 0 5.306 0 6.207 1.154s.472 2.87-.386 6.301c-.546 2.183-.818 3.274-1.632 3.91c-.814.635-1.939.635-4.189.635h-4.63c-2.25 0-3.375 0-4.189-.635c-.814-.636-1.087-1.727-1.632-3.91" opacity=".5"/><path fill="currentColor" d="M15.604 4.502a1.74 1.74 0 0 0 .002-1.501c.683.005 1.216.036 1.691.222a3.25 3.25 0 0 1 1.426 1.09c.367.494.54 1.127.777 1.999l.046.17l.513 2.963c-.409-.282-.936-.45-1.618-.55l-.36-2.087c-.285-1.04-.388-1.367-.562-1.601a1.75 1.75 0 0 0-.768-.587c-.22-.086-.485-.11-1.147-.118M8.441 3.001a1.74 1.74 0 0 0 .002 1.501c-.662.007-.927.032-1.147.118a1.75 1.75 0 0 0-.768.587c-.174.234-.277.561-.561 1.6l-.361 2.089c-.682.1-1.209.267-1.618.548l.513-2.962l.046-.17c.237-.872.41-1.505.777-2A3.25 3.25 0 0 1 6.75 3.224c.475-.186 1.008-.217 1.691-.222"/></svg>