<svg viewBox="0 0 24 24"><path fill="currentColor" fill-rule="evenodd" d="M1.289 2.763a.75.75 0 0 1 .948-.475l.305.102c.626.209 1.155.385 1.572.579c.442.206.826.46 1.117.865c.291.403.412.848.467 1.333q.04.372.047.833h10.706c2.055 0 3.082 0 3.527.674c.444.674.04 1.619-.77 3.508l-.428 1c-.378.882-.567 1.322-.943 1.57s-.855.248-1.815.248H5.903c.105.54.271.856.506 1.091c.277.277.666.457 1.4.556c.755.101 1.756.103 3.191.103h7a.75.75 0 1 1 0 1.5h-7.055c-1.367 0-2.47 0-3.337-.117c-.9-.12-1.658-.38-2.26-.981c-.601-.602-.86-1.36-.981-2.26c-.117-.867-.117-1.97-.117-3.337V6.883c0-.713 0-1.185-.042-1.546c-.04-.342-.107-.507-.194-.626c-.086-.12-.221-.237-.533-.382c-.33-.153-.777-.304-1.453-.53l-.265-.088a.75.75 0 0 1-.474-.948M8 8.25a.75.75 0 0 0 0 1.5h3a.75.75 0 0 0 0-1.5z" clip-rule="evenodd"/><path fill="currentColor" d="M7.5 18a1.5 1.5 0 1 1 0 3a1.5 1.5 0 0 1 0-3m9 0a1.5 1.5 0 1 1 0 3a1.5 1.5 0 0 1 0-3"/></svg>