<svg viewBox="0 0 24 24"><path fill="currentColor" d="M3.04 2.292a.75.75 0 1 0-.498 1.416l.262.091c.667.235 1.106.39 1.429.549c.303.149.437.27.525.398c.09.132.16.314.2.677c.04.38.041.875.041 1.615V9.64c0 2.942.064 3.912.93 4.826s2.26.914 5.05.914h5.303c1.56 0 2.341 0 2.893-.45s.71-1.214 1.024-2.742l.5-2.425c.347-1.74.52-2.609.077-3.186C20.332 6 18.815 6 17.13 6H6.492a9 9 0 0 0-.044-.738c-.053-.497-.17-.95-.452-1.362c-.284-.416-.662-.682-1.102-.899c-.412-.202-.936-.386-1.553-.603z" opacity=".5"/><path fill="currentColor" d="M7.5 18a1.5 1.5 0 1 1 0 3a1.5 1.5 0 0 1 0-3m9 0a1.5 1.5 0 1 1 0 3a1.5 1.5 0 0 1 0-3M9.374 8.26a.75.75 0 0 1 .865.615l.528 3.118a.75.75 0 1 1-1.48.25L8.76 9.125a.75.75 0 0 1 .614-.864m5.414.614a.75.75 0 1 1 1.479.25l-.528 3.118a.75.75 0 1 1-1.48-.25z"/></svg>