<svg viewBox="0 0 24 24"><path fill="currentColor" fill-rule="evenodd" d="M12 2.75c-.978 0-1.813.625-2.122 1.5a.75.75 0 0 1-1.414-.5a3.751 3.751 0 0 1 7.073 0a.75.75 0 1 1-1.415.5A2.25 2.25 0 0 0 12 2.75" clip-rule="evenodd"/><path fill="currentColor" d="M14 12.5h-4a.5.5 0 0 0-.5.5v2.162a.5.5 0 0 0 .314.464l.7.28a4 4 0 0 0 2.972 0l.7-.28a.5.5 0 0 0 .314-.464V13a.5.5 0 0 0-.5-.5"/><path fill="currentColor" d="m8.01 15.37l-5.004-1.502c.03 3.114.212 5.983 1.312 6.96C5.636 22 7.758 22 12 22s6.364 0 7.682-1.172c1.1-.977 1.282-3.846 1.312-6.96l-5.005 1.501a2 2 0 0 1-1.246 1.65l-.7.28a5.5 5.5 0 0 1-4.086 0l-.7-.28a2 2 0 0 1-1.246-1.65M7.609 5h8.782c2.45 0 3.675 0 4.502.673q.24.195.434.434C22 6.934 22 8.159 22 10.609c0 .622 0 .932-.15 1.175a1 1 0 0 1-.1.134c-.19.214-.487.303-1.082.482L16 13.8V13a2 2 0 0 0-2-2h-4a2 2 0 0 0-2 2v.8l-4.668-1.4c-.595-.179-.893-.268-1.082-.482a1 1 0 0 1-.1-.134C2 11.541 2 11.231 2 10.609c0-2.45 0-3.675.673-4.502q.195-.24.434-.434C3.934 5 5.159 5 7.609 5"/></svg>