<svg viewBox="0 0 24 24"><path fill="currentColor" fill-rule="evenodd" d="M10.276 2.255c.083-.005.171-.005.285-.005h2.879c.113 0 .201 0 .285.005a2.75 2.75 0 0 1 2.385 1.72c.031.077.06.16.095.268l.003.01c.084.224.275.479.543.683q.045.034.09.064c2.153.003 3.278.042 4.052.673q.24.195.434.434C22 6.934 22 8.159 22 10.609c0 .622 0 .932-.15 1.175a1 1 0 0 1-.1.134c-.19.214-.487.303-1.082.482L16 13.8V13a2 2 0 0 0-2-2h-4a2 2 0 0 0-2 2v.8l-4.668-1.4c-.595-.179-.893-.268-1.082-.482a1 1 0 0 1-.1-.134C2 11.541 2 11.231 2 10.609c0-2.45 0-3.675.673-4.502q.195-.24.434-.434c.775-.63 1.899-.67 4.053-.673q.045-.03.09-.064c.267-.204.459-.46.542-.683c.038-.114.066-.2.098-.279a2.75 2.75 0 0 1 2.385-1.719m4.543 2.563q.035.093.08.182H9.101q.043-.09.08-.182v-.003l.005-.01l.005-.012l.005-.012l.003-.01l.002-.005l.004-.012l.004-.012l.002-.006l.003-.008l.002-.007l.002-.006c.039-.116.051-.153.063-.181a1.25 1.25 0 0 1 1.084-.782c.032-.002.072-.002.215-.002h2.838c.143 0 .183 0 .215.002c.482.03.904.334 1.085.782c.01.028.023.063.062.181l.002.006l.002.007l.003.008l.002.006l.004.012l.004.012l.002.005l.004.01l.004.012l.005.012l.004.01zM14 12.5h-4a.5.5 0 0 0-.5.5v2.162a.5.5 0 0 0 .314.464l.7.28a4 4 0 0 0 2.972 0l.7-.28a.5.5 0 0 0 .314-.464V13a.5.5 0 0 0-.5-.5m-5.99 2.87l-5.004-1.502c.03 3.114.212 5.983 1.312 6.96C5.636 22 7.758 22 12 22s6.364 0 7.682-1.172c1.1-.977 1.282-3.846 1.312-6.96l-5.005 1.501a2 2 0 0 1-1.246 1.65l-.7.28a5.5 5.5 0 0 1-4.086 0l-.7-.28a2 2 0 0 1-1.246-1.65" clip-rule="evenodd"/></svg>