<svg viewBox="0 0 24 24"><path fill="currentColor" fill-rule="evenodd" d="M10.581 1.25h-.02c-.114 0-.202 0-.286.005a2.75 2.75 0 0 0-2.385 1.72c-.031.077-.059.16-.095.269l-.006.019l-.026.077l-.029.085c-.16.442-.691.811-1.253.825l-1.82.09c-.786.092-1.459.288-2.028.751a4 4 0 0 0-.542.542c-.463.57-.66 1.242-.752 2.029c-.089.76-.089 1.715-.089 2.9v.078c0 .284 0 .55.023.774c.025.248.083.512.24.766q.078.124.175.234c.169.191.365.315.562.406c.003 1.616.024 3.248.169 4.646c.085.82.215 1.589.422 2.245c.203.645.503 1.256.979 1.678c.823.732 1.86 1.055 3.153 1.21c1.27.151 2.898.151 4.976.151h.102c2.078 0 3.706 0 4.976-.152c1.293-.154 2.33-.477 3.153-1.209c.476-.422.776-1.033.98-1.678c.206-.656.336-1.425.421-2.245c.145-1.398.166-3.03.169-4.646a1.66 1.66 0 0 0 .736-.64c.158-.254.216-.518.241-.766c.023-.224.023-.49.023-.774v-.078c0-1.185 0-2.14-.09-2.9c-.092-.787-.288-1.46-.751-2.029a4 4 0 0 0-.542-.542c-.57-.463-1.242-.66-2.029-.752L17.52 4.25c-.562-.014-1.093-.383-1.253-.825l-.029-.085l-.032-.097c-.036-.107-.063-.191-.095-.269a2.75 2.75 0 0 0-2.385-1.719a5 5 0 0 0-.285-.005zm-3.01 4.5h8.859c1.222 0 2.078.002 2.733.079c.646.076.999.216 1.257.426q.18.146.325.325c.21.258.35.611.426 1.257c.078.662.079 1.529.079 2.772c0 .326 0 .515-.015.654a.5.5 0 0 1-.023.125l-.024.033a.5.5 0 0 1-.114.058c-.129.054-.31.109-.622.202l-5.202 1.561V13c0-.69-.56-1.25-1.25-1.25h-4c-.69 0-1.25.56-1.25 1.25v.242l-5.202-1.56a7 7 0 0 1-.622-.203a.5.5 0 0 1-.114-.058l5.938 1.821l-5.962-1.854a.5.5 0 0 1-.023-.125a7 7 0 0 1-.015-.654c0-1.243.001-2.11.079-2.772c.076-.646.216-.999.426-1.257a2.3 2.3 0 0 1 .325-.325c.258-.21.611-.35 1.257-.426c.655-.077 1.51-.079 2.733-.079m3.01-3c-.143 0-.183 0-.215.002a1.25 1.25 0 0 0-1.084.782a4 4 0 0 0-.07.203l-.029.085l-.038.113q-.06.164-.14.315h5.99a2.5 2.5 0 0 1-.178-.428l-.028-.085a4 4 0 0 0-.07-.203a1.25 1.25 0 0 0-1.085-.782a4 4 0 0 0-.215-.002zM3.752 13.309c.007 1.437.036 2.817.159 4.003c.08.77.196 1.427.36 1.948c.168.53.362.845.545 1.008c.495.44 1.178.703 2.335.84c1.17.14 2.709.142 4.849.142s3.678-.001 4.849-.141c1.157-.138 1.84-.402 2.335-.841c.183-.163.377-.478.545-1.008c.164-.52.28-1.178.36-1.948c.123-1.186.152-2.567.159-4.003l-4.998 1.499v.354c0 .51-.311.97-.786 1.16l-.7.28a4.75 4.75 0 0 1-3.528 0l-.7-.28a1.25 1.25 0 0 1-.786-1.16v-.354zm6.498-.059v1.742l.543.217c.775.31 1.64.31 2.414 0l.543-.217V13.25z" clip-rule="evenodd"/></svg>