<svg viewBox="0 0 24 24"><path fill="currentColor" fill-rule="evenodd" d="M1.25 7.02c0-2.61 2.054-4.77 4.639-4.77H18.11c2.585 0 4.639 2.16 4.639 4.77c0 2.028-1.236 3.78-3 4.465v4.567q0 .465-.003.878a1 1 0 0 1-.003.163a11 11 0 0 1-.074 1.201c-.084.628-.27 1.195-.726 1.65c-.455.456-1.022.642-1.65.726c-.594.08-1.344.08-2.242.08H8.948c-.898 0-1.648 0-2.242-.08c-.628-.084-1.195-.27-1.65-.726c-.456-.455-.642-1.022-.726-1.65a11 11 0 0 1-.074-1.201a1 1 0 0 1-.003-.163q-.004-.413-.003-.878v-4.567c-1.764-.685-3-2.437-3-4.465m3 2.79c0-.838.004-1.54.08-2.104c.084-.628.27-1.195.725-1.65c.456-.456 1.023-.642 1.65-.726c.595-.08 1.345-.08 2.243-.08h6.104c.899 0 1.648 0 2.242.08c.628.084 1.195.27 1.65.725c.456.456.642 1.023.726 1.65c.076.564.08 1.267.08 2.105c.894-.572 1.5-1.6 1.5-2.79c0-1.83-1.429-3.27-3.139-3.27H5.89c-1.71 0-3.139 1.44-3.139 3.27c0 1.19.606 2.218 1.5 2.79m7-3.06H9c-.964 0-1.612.002-2.095.067c-.461.062-.659.169-.789.3s-.237.327-.3.788C5.753 8.388 5.75 9.036 5.75 10v6.25h12.5V10c0-.964-.002-1.612-.067-2.095c-.062-.461-.169-.659-.3-.789s-.327-.237-.788-.3c-.483-.064-1.131-.066-2.095-.066h-2.25v4.223l.68-.794a.75.75 0 1 1 1.14.976l-2 2.333a.75.75 0 0 1-1.14 0l-2-2.333a.75.75 0 0 1 1.14-.976l.68.794zm6.968 11H5.782q.013.185.035.345c.062.461.169.659.3.789s.327.237.788.3c.483.064 1.131.066 2.095.066h6c.964 0 1.612-.002 2.095-.067c.461-.062.659-.169.789-.3s.237-.327.3-.788q.02-.16.034-.345" clip-rule="evenodd"/></svg>