<svg viewBox="0 0 24 24"><path fill="currentColor" d="M13.228 8h-2.456c-1.34 0-2.011 0-2.525-.356s-.75-.984-1.22-2.24L6.5 4h11l-.527 1.404c-.47 1.256-.706 1.884-1.22 2.24S14.57 8 13.228 8m.272 5.75a2.25 2.25 0 1 0 4.5 0a2.25 2.25 0 0 0-4.5 0m-7.5 0a2.25 2.25 0 1 0 4.5 0a2.25 2.25 0 0 0-4.5 0" opacity=".5"/><path fill="currentColor" fill-rule="evenodd" d="M3.172 5.172C2 6.343 2 8.229 2 12s0 5.657 1.172 6.828S6.229 20 10 20h4c3.771 0 5.657 0 6.828-1.172S22 15.771 22 12s0-5.657-1.172-6.828c-.737-.737-1.756-1.01-3.35-1.112l-.505 1.344c-.47 1.256-.706 1.884-1.22 2.24S14.57 8 13.228 8h-2.456c-1.34 0-2.011 0-2.525-.356s-.75-.984-1.22-2.24L6.522 4.06c-1.594.101-2.613.375-3.35 1.112M15.75 16c-.01 0 .01 0 0 0a2.25 2.25 0 0 0 0-4.5h-7.5a2.25 2.25 0 0 0 0 4.5c-.01 0 .01 0 0 0z" clip-rule="evenodd"/></svg>