<svg viewBox="0 0 24 24"><path fill="currentColor" fill-rule="evenodd" d="M8.25 4A.75.75 0 0 1 9 3.25h6a.75.75 0 0 1 0 1.5h-2.25V16.5a2.75 2.75 0 0 0 5.495.174A3.75 3.75 0 0 1 15.25 13v-1.8a1.95 1.95 0 0 1 1.95-1.95h3.6a1.95 1.95 0 0 1 1.95 1.95V13c0 1.816-1.29 3.33-3.004 3.676A4.25 4.25 0 0 1 12 18.912a4.25 4.25 0 0 1-7.746-2.236A3.75 3.75 0 0 1 1.25 13v-2.143c0-.887.72-1.607 1.607-1.607h4.286c.887 0 1.607.72 1.607 1.607V13a3.75 3.75 0 0 1-2.995 3.674a2.75 2.75 0 0 0 5.495-.174V4.75H9A.75.75 0 0 1 8.25 4m-5.393 6.75a.107.107 0 0 0-.107.107V13a2.25 2.25 0 0 0 4.5 0v-2.143a.107.107 0 0 0-.107-.107zm14.343 0a.45.45 0 0 0-.45.45V13a2.25 2.25 0 0 0 4.5 0v-1.8a.45.45 0 0 0-.45-.45z" clip-rule="evenodd"/></svg>