<svg viewBox="0 0 24 24"><path fill="currentColor" fill-rule="evenodd" d="M18.955 1.25c-.433 0-.83 0-1.152.043c-.356.048-.731.16-1.04.47s-.422.684-.47 1.04c-.043.323-.043.72-.043 1.152v13.09c0 .433 0 .83.043 1.152c.048.356.16.731.47 1.04s.684.422 1.04.47c.323.043.72.043 1.152.043h.09c.433 0 .83 0 1.152-.043c.356-.048.731-.16 1.04-.47s.422-.684.47-1.04c.043-.323.043-.72.043-1.152V3.955c0-.433 0-.83-.043-1.152c-.048-.356-.16-.731-.47-1.04s-.684-.422-1.04-.47c-.323-.043-.72-.043-1.152-.043zm-1.13 1.572l-.002.001l-.001.003l-.005.01a.7.7 0 0 0-.037.167c-.028.21-.03.504-.03.997v13c0 .493.002.787.03.997a.7.7 0 0 0 .042.177l.001.003l.003.001l.003.002l.007.003c.022.009.07.024.167.037c.21.028.504.03.997.03s.787-.002.997-.03a.7.7 0 0 0 .177-.042l.003-.001l.001-.003l.005-.01a.7.7 0 0 0 .037-.167c.028-.21.03-.504.03-.997V4c0-.493-.002-.787-.03-.997a.7.7 0 0 0-.042-.177l-.001-.003l-.003-.001l-.01-.005a.7.7 0 0 0-.167-.037c-.21-.028-.504-.03-.997-.03s-.787.002-.997.03a.7.7 0 0 0-.177.042M11.955 4.25h.09c.433 0 .83 0 1.152.043c.356.048.731.16 1.04.47s.422.684.47 1.04c.043.323.043.72.043 1.152v10.09c0 .433 0 .83-.043 1.152c-.048.356-.16.731-.47 1.04s-.684.422-1.04.47c-.323.043-.72.043-1.152.043h-.09c-.432 0-.83 0-1.152-.043c-.356-.048-.731-.16-1.04-.47s-.422-.684-.47-1.04c-.043-.323-.043-.72-.043-1.152V6.955c0-.433 0-.83.043-1.152c.048-.356.16-.731.47-1.04s.684-.422 1.04-.47c.323-.043.72-.043 1.152-.043m-1.132 1.573l.003-.001l-.003 12.355l-.001-.003l-.005-.01a.7.7 0 0 1-.037-.167c-.028-.21-.03-.504-.03-.997V7c0-.493.002-.787.03-.997a.7.7 0 0 1 .042-.177zm0 12.354l.003-12.355l.003-.002l.007-.003a.7.7 0 0 1 .167-.037c.21-.028.504-.03.997-.03s.787.002.997.03a.7.7 0 0 1 .177.042l.003.001l.001.003l.005.01c.009.022.024.07.037.167c.028.21.03.504.03.997v10c0 .493-.002.787-.03.997a.7.7 0 0 1-.042.177l-.001.003l-.003.001l-.01.005a.7.7 0 0 1-.167.037c-.21.028-.504.03-.997.03s-.787-.002-.997-.03a.7.7 0 0 1-.177-.042zM4.955 8.25c-.433 0-.83 0-1.152.043c-.356.048-.731.16-1.04.47s-.422.684-.47 1.04c-.043.323-.043.72-.043 1.152v6.09c0 .433 0 .83.043 1.152c.048.356.16.731.47 1.04s.684.422 1.04.47c.323.043.72.043 1.152.043h.09c.433 0 .83 0 1.152-.043c.356-.048.731-.16 1.04-.47s.422-.684.47-1.04c.043-.323.043-.72.043-1.152v-6.09c0-.433 0-.83-.043-1.152c-.048-.356-.16-.731-.47-1.04s-.684-.422-1.04-.47c-.323-.043-.72-.043-1.152-.043zm-1.13 1.572l-.002.001l-.001.003l-.005.01a.7.7 0 0 0-.037.167c-.028.21-.03.504-.03.997v6c0 .493.002.787.03.997a.7.7 0 0 0 .042.177v.002l.004.002l.01.005c.022.009.07.024.167.037c.21.028.504.03.997.03s.787-.002.997-.03a.7.7 0 0 0 .177-.042l.003-.001l.001-.003l.002-.004l.003-.006a.7.7 0 0 0 .037-.167c.028-.21.03-.504.03-.997v-6c0-.493-.002-.787-.03-.997a.7.7 0 0 0-.042-.177l-.001-.003l-.003-.001l-.01-.005a.7.7 0 0 0-.167-.037c-.21-.028-.504-.03-.997-.03s-.787.002-.997.03a.7.7 0 0 0-.177.042" clip-rule="evenodd"/><path fill="currentColor" d="M3 21.25a.75.75 0 0 0 0 1.5h18a.75.75 0 0 0 0-1.5z"/></svg>