<svg viewBox="0 0 24 24"><g fill="none" stroke="currentColor" stroke-width="1.5"><path stroke-linecap="round" stroke-linejoin="round" d="M3 22h18"/><path stroke-linecap="round" d="M3 17c0 .943 0 1.414.293 1.707S4.057 19 5 19s1.414 0 1.707-.293S7 17.943 7 17v-6c0-.943 0-1.414-.293-1.707S5.943 9 5 9s-1.414 0-1.707.293S3 10.057 3 11v2"/><path d="M10 7c0-.943 0-1.414.293-1.707S11.057 5 12 5s1.414 0 1.707.293S14 6.057 14 7v10c0 .943 0 1.414-.293 1.707S12.943 19 12 19s-1.414 0-1.707-.293S10 17.943 10 17z"/><path stroke-linecap="round" d="M21 11v6c0 .943 0 1.414-.293 1.707S19.943 19 19 19s-1.414 0-1.707-.293S17 17.943 17 17V4c0-.943 0-1.414.293-1.707S18.057 2 19 2s1.414 0 1.707.293S21 3.057 21 4v3"/></g></svg>