<svg viewBox="0 0 24 24"><g fill="none" stroke="currentColor" stroke-linecap="round" stroke-width="1.5"><path d="M16 12c0-.844-.927-1.414-2.78-2.553c-1.88-1.155-2.82-1.732-3.52-1.308S9 9.709 9 12s0 3.437.7 3.861c.701.424 1.64-.153 3.52-1.308C15.073 13.414 16 12.844 16 12Z"/><path d="M17 3.338A9.95 9.95 0 0 0 12 2C6.477 2 2 6.477 2 12c0 1.6.376 3.112 1.043 4.453c.178.356.237.763.134 1.148l-.595 2.226a1.3 1.3 0 0 0 1.591 1.592l2.226-.596a1.63 1.63 0 0 1 1.149.133A9.96 9.96 0 0 0 12 22c5.523 0 10-4.477 10-10c0-1.821-.487-3.53-1.338-5"/></g></svg>