<svg viewBox="0 0 24 24"><path fill="currentColor" d="m12.978 21.455l.643.386zm.488-.814l-.643-.385zm-2.932 0l-.643.386zm.488.814l.643-.385zm-7.68-4.866l.692-.29zm4.869 2.736l-.013.75zm-2.433-.33l-.284.694zm14.88-2.406l.691.29zm-4.869 2.736l-.012-.75zm2.433-.33l.284.694zM5.15 4.877l-.389-.642zM3.663 6.344l-.637-.395zm6 13.176l.373-.65zm-.36-14.547a.75.75 0 1 0-.005-1.5zm12.433 9.491a.75.75 0 0 0-1.499-.04zm-8.115 7.377l.488-.814l-1.286-.771l-.488.814zm-3.73-.814l.488.814l1.286-.771l-.488-.814zm2.444.043a.38.38 0 0 1-.335.18a.38.38 0 0 1-.335-.18l-1.286.77c.726 1.212 2.516 1.212 3.242 0zM3.75 12.666v-.889h-1.5v.89zm-1.5 0c0 1.025 0 1.832.045 2.484c.045.658.14 1.213.356 1.73l1.383-.58c-.126-.302-.203-.673-.243-1.254c-.04-.588-.041-1.334-.041-2.38zm5.973 5.91c-1.13-.02-1.71-.091-2.161-.276l-.568 1.389c.738.302 1.574.367 2.704.386zm-5.572-1.697a5.22 5.22 0 0 0 2.843 2.81l.568-1.389a3.72 3.72 0 0 1-2.028-2zm13.151 3.196c1.13-.019 1.966-.084 2.704-.386l-.568-1.389c-.45.185-1.031.256-2.161.276zm4.164-3.776a3.72 3.72 0 0 1-2.028 2.002l.568 1.388a5.22 5.22 0 0 0 2.843-2.81zM3.75 11.777c0-1.47 0-2.518.08-3.335c.077-.805.225-1.307.47-1.703l-1.274-.79c-.418.672-.601 1.433-.69 2.35c-.087.905-.086 2.038-.086 3.478zm1.01-7.542a5.2 5.2 0 0 0-1.734 1.714l1.274.79a3.7 3.7 0 0 1 1.237-1.22zm6.417 16.02c-.181-.303-.344-.576-.503-.791a2.1 2.1 0 0 0-.638-.595l-.747 1.3c.03.018.081.054.178.185c.106.144.227.345.424.673zm-2.98-.18c.397.007.644.012.831.032c.174.02.232.046.26.063l.748-1.3a2.1 2.1 0 0 0-.845-.254c-.271-.03-.599-.034-.968-.04zm5.912.952a9 9 0 0 1 .424-.673c.097-.13.147-.167.178-.184l-.747-1.3a2.05 2.05 0 0 0-.638.594c-.159.215-.322.488-.503.792zm1.668-2.451c-.37.006-.697.01-.968.04a2.1 2.1 0 0 0-.845.253l.747 1.3c.029-.016.087-.043.26-.062a11 11 0 0 1 .831-.032zM9.297 3.473c-2.235.007-3.367.054-4.537.762l.777 1.283c.758-.458 1.46-.538 3.765-.545zm10.94 10.951c-.026.956-.102 1.472-.271 1.875l1.383.58c.284-.677.361-1.434.387-2.415z" opacity=".5"/><path fill="currentColor" d="m12 4.222l-.527-.533a.75.75 0 0 0 0 1.067zm8.25 7.556a.75.75 0 0 0 1.5 0zm-1.399-6.9l-.388.64zm1.486 1.466l.637-.395zm-5.56-3.81a.75.75 0 1 0-1.054-1.068zm-1.054 4.444a.75.75 0 1 0 1.054-1.067zM12 4.972c1.48 0 2.895 0 4.074.08c.588.04 1.1.099 1.518.182c.43.085.71.187.87.285l.778-1.284c-.38-.23-.859-.373-1.355-.472a14 14 0 0 0-1.71-.207c-1.24-.084-2.71-.084-4.175-.084zm9.75 6.806c0-1.44 0-2.574-.086-3.48c-.089-.916-.273-1.676-.69-2.349l-1.274.79c.245.397.393.898.47 1.704c.08.816.08 1.865.08 3.335zm-3.287-6.26c.505.306.928.725 1.237 1.222l1.274-.791a5.2 5.2 0 0 0-1.734-1.714zm-5.936-.762l2.25-2.222l-1.054-1.068l-2.25 2.223zm-1.054 0l2.25 2.222l1.054-1.067l-2.25-2.222z"/></svg>