<svg viewBox="0 0 24 24"><path fill="currentColor" fill-rule="evenodd" d="M12 2.75A9.25 9.25 0 0 0 2.75 12c0 1.481.348 2.879.965 4.118c.248.498.343 1.092.187 1.677l-.596 2.225a.55.55 0 0 0 .673.674l2.227-.596a2.38 2.38 0 0 1 1.676.187A9.2 9.2 0 0 0 12 21.25a9.25 9.25 0 0 0 0-18.5M1.25 12C1.25 6.063 6.063 1.25 12 1.25S22.75 6.063 22.75 12S17.937 22.75 12 22.75c-1.718 0-3.344-.404-4.787-1.122a.9.9 0 0 0-.62-.08l-2.226.595c-1.524.408-2.918-.986-2.51-2.51l.596-2.226a.9.9 0 0 0-.08-.62A10.7 10.7 0 0 1 1.25 12M12 7.25a.75.75 0 0 1 .75.75v8a.75.75 0 0 1-1.5 0V8a.75.75 0 0 1 .75-.75m-4 2a.75.75 0 0 1 .75.75v4a.75.75 0 0 1-1.5 0v-4A.75.75 0 0 1 8 9.25m8 0a.75.75 0 0 1 .75.75v4a.75.75 0 0 1-1.5 0v-4a.75.75 0 0 1 .75-.75" clip-rule="evenodd"/></svg>