<svg viewBox="0 0 24 24"><path fill="currentColor" d="M21.975 13.814A10.95 10.95 0 0 1 17 15.001C10.925 15 6 10.076 6 4q.001-.945.154-1.847c-.715.106-1.277.284-1.766.584a5 5 0 0 0-1.651 1.65C2 5.591 2 7.228 2 10.501v1c0 2.33 0 3.495.38 4.413a5 5 0 0 0 2.707 2.706c.66.274 1.447.35 2.703.372c.85.015 1.275.022 1.613.219c.337.196.548.551.968 1.262l.542.916c.483.816 1.69.816 2.174 0l.542-.916c.42-.71.63-1.066.968-1.262c.338-.197.763-.204 1.613-.219c1.256-.021 2.043-.098 2.703-.372a5 5 0 0 0 2.706-2.706c.227-.547.319-1.182.356-2.1"/><path fill="currentColor" fill-rule="evenodd" d="m13.087 21.389l.542-.916c.42-.71.63-1.066.968-1.262c.338-.197.763-.204 1.613-.219c1.256-.021 2.043-.098 2.703-.372a5 5 0 0 0 2.706-2.706c.227-.547.319-1.182.356-2.1A10.95 10.95 0 0 1 17 15.001C10.925 15 6 10.076 6 4q.001-.945.154-1.847c-.715.106-1.277.284-1.766.584a5 5 0 0 0-1.651 1.65C2 5.591 2 7.228 2 10.501v1c0 2.33 0 3.495.38 4.413a5 5 0 0 0 2.707 2.706c.66.274 1.447.35 2.703.372c.85.015 1.275.022 1.613.219c.337.196.548.551.968 1.262l.542.916c.483.816 1.69.816 2.174 0" clip-rule="evenodd"/><path fill="currentColor" d="M13.5 2h-3c-1.94 0-3.305 0-4.346.153Q6.001 3.055 6 4c0 6.075 4.925 11 11 11c1.79 0 3.48-.428 4.975-1.187C22 13.192 22 12.441 22 11.5v-1c0-3.273 0-4.91-.737-6.112a5 5 0 0 0-1.65-1.651C18.41 2 16.773 2 13.5 2" opacity=".5"/></svg>