<svg viewBox="0 0 24 24"><g fill="none"><path stroke="currentColor" stroke-linecap="round" stroke-linejoin="round" stroke-width="1.5" d="M9 18h6"/><path fill="currentColor" d="M19 18h.75zM5 14.584h.75a.75.75 0 0 0-.45-.687zm14 0l-.3-.687a.75.75 0 0 0-.45.687zM15.75 7a.75.75 0 0 0 1.5 0zm-9 0a.75.75 0 0 0 1.5 0zM14 21.25a.75.75 0 0 0 0 1.5zm-4 1.5a.75.75 0 0 0 0-1.5zM7 4.25A5.75 5.75 0 0 0 1.25 10h1.5A4.25 4.25 0 0 1 7 5.75zm10 1.5A4.25 4.25 0 0 1 21.25 10h1.5A5.75 5.75 0 0 0 17 4.25zm-8 15.5c-.964 0-1.612-.002-2.095-.067c-.461-.062-.659-.169-.789-.3l-1.06 1.062c.455.455 1.022.64 1.65.725c.606.082 1.372.08 2.294.08zM4.25 18c0 .922-.002 1.688.08 2.294c.084.628.27 1.195.725 1.65l1.061-1.06c-.13-.13-.237-.328-.3-.79c-.064-.482-.066-1.13-.066-2.094zm14 0c0 .964-.002 1.612-.067 2.095c-.062.461-.169.659-.3.789l1.062 1.06c.455-.455.64-1.022.725-1.65c.082-.606.08-1.372.08-2.294zM15 22.75c.922 0 1.688.002 2.294-.08c.628-.084 1.195-.27 1.65-.726l-1.06-1.06c-.13.13-.328.237-.79.3c-.482.064-1.13.066-2.094.066zm-8-17q.32 0 .628.046l.219-1.484A6 6 0 0 0 7 4.25zm5-4.5a5.25 5.25 0 0 0-4.973 3.563l1.42.482A3.75 3.75 0 0 1 12 2.75zM7.027 4.813A5.3 5.3 0 0 0 6.75 6.5h1.5c0-.423.07-.828.198-1.205zM17 4.25q-.431 0-.847.062l.22 1.484A4 4 0 0 1 17 5.75zm-5-1.5a3.75 3.75 0 0 1 3.552 2.545l1.42-.482A5.25 5.25 0 0 0 12 1.25zm3.552 2.545c.128.377.198.782.198 1.205h1.5c0-.589-.097-1.156-.277-1.687zM5.75 18v-3.416h-1.5V18zm-.45-4.103A4.25 4.25 0 0 1 2.75 10h-1.5a5.75 5.75 0 0 0 3.45 5.271zm12.95.687V18h1.5v-3.416zm3-4.584a4.25 4.25 0 0 1-2.55 3.897l.6 1.374A5.75 5.75 0 0 0 22.75 10zm-5.5-3.5V7h1.5v-.5zm-9 0V7h1.5v-.5zM15 21.25h-1v1.5h1zm-5 0H9v1.5h1z"/></g></svg>