<svg viewBox="0 0 24 24"><path fill="currentColor" fill-rule="evenodd" d="M11.943 1.25h.114c2.309 0 4.118 0 5.53.19c1.444.194 2.584.6 3.479 1.494c.793.793 1.203 1.78 1.42 3.005c.215 1.203.254 2.7.262 4.558a.75.75 0 0 1-1.5.006a73 73 0 0 0-.025-1.753H2.777A121 121 0 0 0 2.75 12c0 2.378.002 4.086.176 5.386c.172 1.279.5 2.05 1.069 2.62c.484.484 1.112.79 2.067.978c.976.19 2.235.246 3.944.26a.75.75 0 1 1-.012 1.5c-1.704-.014-3.092-.067-4.22-.288c-1.15-.226-2.084-.634-2.84-1.39c-.895-.895-1.3-2.035-1.494-3.48c-.19-1.411-.19-3.22-.19-5.529v-.114c0-2.309 0-4.118.19-5.53c.194-1.444.6-2.584 1.494-3.479c.895-.895 2.035-1.3 3.48-1.494c1.411-.19 3.22-.19 5.529-.19m-9.086 6h3.731l2.856-4.488c-1.127.017-2.052.06-2.83.164c-1.279.172-2.05.5-2.62 1.069c-.569.57-.896 1.34-1.068 2.619q-.04.302-.07.636m8.35-4.5a1 1 0 0 1-.074.153L8.366 7.25h4.722l2.83-4.448C14.857 2.75 13.576 2.75 12 2.75zm6.391.207L14.866 7.25h6.277q-.049-.572-.133-1.048c-.184-1.036-.498-1.7-1.005-2.207c-.537-.538-1.254-.86-2.407-1.038m.85 10.031a2.52 2.52 0 1 1 3.564 3.563l-4.282 4.282a6 6 0 0 1-.572.532a3.7 3.7 0 0 1-.683.423c-.206.098-.422.17-.732.273l-1.878.626a1.227 1.227 0 0 1-1.552-1.552l.626-1.878c.103-.31.175-.526.273-.732q.175-.365.423-.683c.14-.18.301-.341.532-.572zm2.503 1.06a1.02 1.02 0 0 0-1.442 0l-.131.132l.016.05c.082.236.238.548.533.843a2.2 2.2 0 0 0 .893.55l.131-.132a1.02 1.02 0 0 0 0-1.442m-1.265 2.708a3.76 3.76 0 0 1-1.442-1.442L15.258 18.3c-.272.273-.364.366-.44.464a2.2 2.2 0 0 0-.252.406c-.053.113-.096.236-.218.601l-.345 1.037l.189.19l1.037-.347c.365-.121.488-.164.6-.217q.218-.104.407-.252c.098-.076.191-.168.464-.44z" clip-rule="evenodd"/></svg>