<svg viewBox="0 0 24 24"><path fill="currentColor" d="m14.841 8.095l3.408-.913c.224-.06.336-.09.425-.134a1 1 0 0 0 .555-.962c-.006-.098-.036-.21-.096-.435c-.18-.673-.271-1.01-.402-1.275a3 3 0 0 0-2.887-1.666a3 3 0 0 0-.413.062q.03.125.014.258zM9.15 4.444l4.768-1.278l-.6 5.034a.8.8 0 0 0 .024.297l-4.78 1.28l.605-5.064a.8.8 0 0 0-.017-.27"/><path fill="currentColor" fill-rule="evenodd" d="M16 11H4v5c0 2.828 0 4.243.879 5.121C5.757 22 7.172 22 10 22h4c2.828 0 4.243 0 5.121-.879C20 20.243 20 18.828 20 16v-1c0-1.886 0-2.828-.586-3.414S17.886 11 16 11m-3.192 4.224c.795.569 1.192.854 1.192 1.276s-.397.707-1.192 1.276c-.805.578-1.207.866-1.508.654s-.3-.784-.3-1.93s0-1.719.3-1.93c.3-.213.703.076 1.508.653" clip-rule="evenodd"/><path fill="currentColor" d="M7.04 9.882a.8.8 0 0 0 .023.297L4.001 11c-.484-1.805-.725-2.708-.517-3.484A3 3 0 0 1 4.26 6.17c.569-.568 1.471-.81 3.277-1.294l.103-.028z"/></svg>