<svg viewBox="0 0 24 24"><path fill="currentColor" fill-rule="evenodd" d="M9.944 1.25h4.112c1.838 0 3.294 0 4.433.153c1.172.158 2.121.49 2.87 1.238c.748.749 1.08 1.698 1.238 2.87c.153 1.14.153 2.595.153 4.433v2.112c0 1.838 0 3.294-.153 4.433c-.158 1.172-.49 2.121-1.238 2.87c-.464.464-1.005.768-1.629.97q.02.082.02.171V22a.75.75 0 0 1-1.5 0v-1.374c-1.102.124-2.482.124-4.194.124H9.944c-1.712 0-3.092 0-4.194-.124V22a.75.75 0 0 1-1.5 0v-1.5q0-.09.02-.172c-.624-.201-1.165-.505-1.629-.97c-.748-.748-1.08-1.697-1.238-2.869c-.153-1.14-.153-2.595-.153-4.433V9.944c0-1.838 0-3.294.153-4.433c.158-1.172.49-2.121 1.238-2.87c.749-.748 1.698-1.08 2.87-1.238c1.14-.153 2.595-.153 4.433-.153m2.806 18H14c1.907 0 3.262-.002 4.29-.14c1.005-.135 1.585-.389 2.008-.812s.677-1.003.812-2.009c.138-1.028.14-2.382.14-4.289v-2c0-1.907-.002-3.261-.14-4.29c-.135-1.005-.389-1.585-.812-2.008s-1.003-.677-2.009-.812c-1.027-.138-2.382-.14-4.289-.14h-1.25zm-1.5-16.5v16.5H10c-1.907 0-3.261-.002-4.29-.14c-1.005-.135-1.585-.389-2.008-.812s-.677-1.003-.812-2.009c-.138-1.028-.14-2.382-.14-4.289v-2c0-1.907.002-3.261.14-4.29c.135-1.005.389-1.585.812-2.008s1.003-.677 2.009-.812c1.028-.138 2.382-.14 4.289-.14zM9 8.25a.75.75 0 0 1 .75.75v4a.75.75 0 0 1-1.5 0V9A.75.75 0 0 1 9 8.25m6 0a.75.75 0 0 1 .75.75v4a.75.75 0 0 1-1.5 0V9a.75.75 0 0 1 .75-.75" clip-rule="evenodd"/></svg>