<svg viewBox="0 0 24 24"><g fill="none" stroke="currentColor" stroke-width="1.5"><path stroke-linecap="round" d="M19 22v-.5M5 22v-.5" opacity=".5"/><path stroke-linecap="round" d="M12 21V2"/><path stroke-linecap="round" d="M15 8v2" opacity=".5"/><path d="M2 10c0-3.771 0-5.657 1.172-6.828S6.229 2 10 2h4c3.771 0 5.657 0 6.828 1.172S22 6.229 22 10v3c0 3.771 0 5.657-1.172 6.828S17.771 21 14 21h-4c-3.771 0-5.657 0-6.828-1.172S2 16.771 2 13z"/><path stroke-linecap="round" d="M2 8h10" opacity=".5"/><path stroke-linecap="round" d="M2 15h20"/><path stroke-linecap="round" d="M15 18h2M7 18h2" opacity=".5"/></g></svg>