<svg viewBox="0 0 24 24"><path fill="currentColor" d="M16.286 18C19.442 18 22 15.472 22 12.353c0-2.472-1.607-4.573-3.845-5.338C17.837 4.194 15.415 2 12.476 2C9.32 2 6.762 4.528 6.762 7.647c0 .69.125 1.35.354 1.962a4.4 4.4 0 0 0-.83-.08C3.919 9.53 2 11.426 2 13.765S3.919 18 6.286 18z" opacity=".5"/><path fill="currentColor" d="M18.286 22C20.337 22 22 20.42 22 18.47c0-1.544-1.045-2.857-2.5-3.336C19.295 13.371 17.72 12 15.81 12c-2.052 0-3.715 1.58-3.715 3.53c0 .43.082.844.23 1.226a3 3 0 0 0-.54-.05C10.248 16.706 9 17.89 9 19.353S10.247 22 11.786 22z"/></svg>