<svg viewBox="0 0 24 24"><path fill="currentColor" fill-rule="evenodd" d="M12.476 2.75c-2.75 0-4.964 2.2-4.964 4.897c0 .462.065.909.185 1.331c.497.144.963.36 1.383.64a.75.75 0 1 1-.827 1.25a3.54 3.54 0 0 0-1.967-.589c-1.961 0-3.536 1.57-3.536 3.486s1.575 3.485 3.536 3.485a.75.75 0 0 1 0 1.5c-2.773 0-5.036-2.224-5.036-4.985c0-2.705 2.17-4.893 4.864-4.983a6.4 6.4 0 0 1-.102-1.135c0-3.541 2.902-6.397 6.464-6.397c3.158 0 5.796 2.244 6.355 5.221c2.3.977 3.919 3.238 3.919 5.882a.75.75 0 1 1-1.5 0c0-2.137-1.39-3.962-3.338-4.628a5 5 0 0 0-1.626-.27c-.583 0-1.14.1-1.658.28a.75.75 0 0 1-.494-1.416a6.5 6.5 0 0 1 3.024-.305a4.96 4.96 0 0 0-4.682-3.264m3.333 10c-1.673 0-2.964 1.28-2.964 2.78q0 .311.07.603q.44.143.82.386a.75.75 0 0 1-.804 1.266a2.1 2.1 0 0 0-1.145-.33c-1.161 0-2.036.886-2.036 1.898s.875 1.897 2.036 1.897h6.5c1.673 0 2.964-1.28 2.964-2.78c0-1.19-.807-2.236-1.983-2.623a3.1 3.1 0 0 0-.981-.156c-.353 0-.689.058-1 .162a.75.75 0 1 1-.477-1.422a4.6 4.6 0 0 1 1.599-.238c-.499-.85-1.462-1.443-2.599-1.443m4.357 1.838c-.452-1.934-2.254-3.338-4.357-3.338c-2.428 0-4.464 1.88-4.464 4.28q0 .227.025.45c-1.73.196-3.12 1.601-3.12 3.373c0 1.912 1.62 3.397 3.536 3.397h6.5c2.429 0 4.464-1.88 4.464-4.28c0-1.737-1.074-3.208-2.584-3.882" clip-rule="evenodd"/></svg>