<svg viewBox="0 0 24 24"><path fill="currentColor" fill-rule="evenodd" d="M7.5 1.25a.75.75 0 0 1 .75.75v.5a.75.75 0 0 1-1.5 0V2a.75.75 0 0 1 .75-.75M3.08 3.08a.75.75 0 0 1 1.062 0l.216.217a.75.75 0 0 1-1.061 1.06l-.216-.216a.75.75 0 0 1 0-1.06m8.839 0a.75.75 0 0 1 0 1.061l-.216.216a.75.75 0 1 1-1.06-1.06l.215-.216a.75.75 0 0 1 1.061 0M8 5.25a2.73 2.73 0 0 0-1.925.786A2.74 2.74 0 0 0 5.25 8c0 .833.37 1.58.956 2.084a6.43 6.43 0 0 1 3.518-4.227q-.074-.06-.153-.115A2.73 2.73 0 0 0 8 5.25m3.324.101a4.3 4.3 0 0 0-.895-.839A4.23 4.23 0 0 0 8 3.75a4.23 4.23 0 0 0-2.974 1.214a4.25 4.25 0 0 0 .987 6.793q.01.525.1 1.025c-2.693.09-4.863 2.278-4.863 4.983c0 2.761 2.263 4.985 5.036 4.985h10c3.561 0 6.464-2.856 6.464-6.397c0-2.644-1.619-4.906-3.919-5.882c-.559-2.977-3.197-5.221-6.355-5.221q-.59.001-1.152.101m5.834 4.663a4.96 4.96 0 0 0-4.682-3.264c-2.75 0-4.964 2.2-4.964 4.897c0 .462.065.909.185 1.331c.497.144.963.36 1.383.64a.75.75 0 1 1-.827 1.25a3.54 3.54 0 0 0-1.967-.589c-1.961 0-3.536 1.57-3.536 3.486s1.575 3.485 3.536 3.485h10c2.75 0 4.964-2.2 4.964-4.897c0-2.137-1.39-3.962-3.338-4.628a5 5 0 0 0-1.626-.27c-.583 0-1.14.1-1.658.28a.75.75 0 0 1-.494-1.416a6.5 6.5 0 0 1 3.024-.305M1.25 7.5A.75.75 0 0 1 2 6.75h.5a.75.75 0 0 1 0 1.5H2a.75.75 0 0 1-.75-.75m3.108 3.143a.75.75 0 0 1 0 1.06l-.216.216a.75.75 0 0 1-1.061-1.06l.216-.216a.75.75 0 0 1 1.06 0" clip-rule="evenodd"/></svg>