<svg viewBox="0 0 24 24"><path fill="currentColor" fill-rule="evenodd" d="M12 22c-1.886 0-2.828 0-3.414-.586S8 19.886 8 18s0-2.828.586-3.414S10.114 14 12 14s2.828 0 3.414.586S16 16.114 16 18s0 2.828-.586 3.414S13.886 22 12 22m.916-5.75a.667.667 0 0 0-.943-.944L9.751 17.53a.667.667 0 0 0 .471 1.138h1.946l-1.084 1.084a.667.667 0 1 0 .943.943l2.222-2.223a.667.667 0 0 0-.471-1.138h-1.946z" clip-rule="evenodd"/><path fill="currentColor" d="M6.5 17.91V18h-.214C3.919 18 2 16.104 2 13.765s1.919-4.236 4.286-4.236q.427.001.83.08a5.6 5.6 0 0 1-.354-1.962C6.762 4.528 9.32 2 12.476 2c2.94 0 5.361 2.194 5.68 5.015C20.392 7.78 22 9.881 22 12.353c0 2.707-1.927 4.97-4.5 5.52c0-.852-.001-1.631-.087-2.267c-.095-.711-.32-1.463-.938-2.08c-.618-.619-1.37-.844-2.08-.94c-.646-.086-1.44-.086-2.306-.086h-.179c-.865 0-1.659 0-2.304.087c-.711.095-1.463.32-2.08.938c-.619.618-.844 1.37-.94 2.08c-.086.646-.086 1.44-.086 2.305"/></svg>