<svg viewBox="0 0 24 24"><path fill="currentColor" d="M11 20.334c0 .92-.672 1.666-1.5 1.666S8 21.254 8 20.334c0-.505.451-1.158.859-1.645a.828.828 0 0 1 1.282 0c.408.487.859 1.14.859 1.645m5 0c0 .92-.672 1.666-1.5 1.666s-1.5-.746-1.5-1.666c0-.505.451-1.158.859-1.645a.828.828 0 0 1 1.282 0c.408.487.859 1.14.859 1.645m-2.5-5c0 .92-.672 1.666-1.5 1.666s-1.5-.746-1.5-1.666c0-.505.451-1.158.859-1.645a.828.828 0 0 1 1.282 0c.408.487.859 1.14.859 1.645"/><path fill="currentColor" d="M6.846 19q.066-.131.127-.238a7.3 7.3 0 0 1 .736-1.036a2.33 2.33 0 0 1 1.68-.839A3.3 3.3 0 0 1 9 15.334c0-.648.27-1.215.473-1.572c.226-.395.502-.757.736-1.036a2.328 2.328 0 0 1 3.582 0c.234.28.51.64.736 1.036c.204.357.473.924.473 1.572a3.3 3.3 0 0 1-.39 1.553c.624.03 1.238.31 1.681.84c.234.279.51.64.735 1.035q.048.081.097.178c2.76-.4 4.877-2.75 4.877-5.587c0-2.472-1.607-4.573-3.845-5.338C17.837 5.194 15.415 3 12.476 3C9.32 3 6.762 5.528 6.762 8.647c0 .69.125 1.35.354 1.962a4.4 4.4 0 0 0-.83-.08C3.919 10.53 2 12.426 2 14.765S3.919 19 6.286 19z"/></svg>