<svg viewBox="0 0 24 24"><path fill="currentColor" fill-rule="evenodd" d="M12.03 14.97a.75.75 0 0 1 0 1.06l-2 2a.75.75 0 1 1-1.06-1.06l2-2a.75.75 0 0 1 1.06 0m4.5 0a.75.75 0 0 1 0 1.06l-2 2a.75.75 0 1 1-1.06-1.06l2-2a.75.75 0 0 1 1.06 0m-8.5 3.5a.75.75 0 0 1 0 1.06l-2 2a.75.75 0 0 1-1.06-1.06l2-2a.75.75 0 0 1 1.06 0m9.5 0a.75.75 0 0 1 0 1.06l-2 2a.75.75 0 1 1-1.06-1.06l2-2a.75.75 0 0 1 1.06 0m-5 1a.75.75 0 0 1 0 1.06l-2 2a.75.75 0 1 1-1.06-1.06l2-2a.75.75 0 0 1 1.06 0" clip-rule="evenodd"/><path fill="currentColor" d="M19.124 18.255a2.24 2.24 0 0 0-1.351-1.369a2.25 2.25 0 0 0-3.364-2.977l-.802.801a2.25 2.25 0 0 0-3.698-.801l-2 2a2.24 2.24 0 0 0-.532.844c-.534.03-1.06.248-1.468.656l-1.268 1.268C3.091 18.04 2 16.528 2 14.765c0-2.34 1.919-4.236 4.286-4.236q.427.001.83.08a5.6 5.6 0 0 1-.354-1.962C6.762 5.528 9.32 3 12.476 3c2.94 0 5.361 2.194 5.68 5.015C20.392 8.78 22 10.881 22 13.353c0 2.098-1.158 3.929-2.876 4.902"/><path fill="currentColor" d="M12.03 14.97a.75.75 0 0 1 0 1.06l-2 2a.746.746 0 0 1-1.06 0a.746.746 0 0 1 0-1.06l2-2a.75.75 0 0 1 1.06 0m3.44 0l-2 2a.75.75 0 1 0 1.06 1.06l2-2a.75.75 0 1 0-1.06-1.06"/></svg>