<svg viewBox="0 0 24 24"><g fill="none" stroke="currentColor" stroke-width="1.5"><path d="M5.5 15.5c0-.943 0-1.414.293-1.707S6.557 13.5 7.5 13.5h1c.943 0 1.414 0 1.707.293s.293.764.293 1.707v1c0 .943 0 1.414-.293 1.707s-.764.293-1.707.293c-1.414 0-2.121 0-2.56-.44c-.44-.439-.44-1.146-.44-2.56Zm0-7c0-1.414 0-2.121.44-2.56c.439-.44 1.146-.44 2.56-.44c.943 0 1.414 0 1.707.293s.293.764.293 1.707v1c0 .943 0 1.414-.293 1.707s-.764.293-1.707.293h-1c-.943 0-1.414 0-1.707-.293S5.5 9.443 5.5 8.5Zm8 7c0-.943 0-1.414.293-1.707s.764-.293 1.707-.293h1c.943 0 1.414 0 1.707.293s.293.764.293 1.707c0 1.414 0 2.121-.44 2.56c-.439.44-1.146.44-2.56.44c-.943 0-1.414 0-1.707-.293s-.293-.764-.293-1.707zm0-8c0-.943 0-1.414.293-1.707S14.557 5.5 15.5 5.5c1.414 0 2.121 0 2.56.44c.44.439.44 1.146.44 2.56c0 .943 0 1.414-.293 1.707s-.764.293-1.707.293h-1c-.943 0-1.414 0-1.707-.293S13.5 9.443 13.5 8.5z"/><path stroke-linecap="round" d="M22 14c0 3.771 0 5.657-1.172 6.828S17.771 22 14 22m-4 0c-3.771 0-5.657 0-6.828-1.172S2 17.771 2 14m8-12C6.229 2 4.343 2 3.172 3.172S2 6.229 2 10m12-8c3.771 0 5.657 0 6.828 1.172S22 6.229 22 10" opacity=".5"/></g></svg>