<svg viewBox="0 0 24 24"><path fill="currentColor" d="M14.018 7.364a.75.75 0 1 0-1.449-.388l-2.588 9.66a.75.75 0 1 0 1.45.388zM16.03 8.47a.75.75 0 1 0-1.06 1.06l.171.172c.682.682 1.139 1.14 1.434 1.528c.283.37.347.586.347.77s-.064.4-.347.77c-.295.387-.752.846-1.434 1.528l-.171.172a.75.75 0 1 0 1.06 1.06l.209-.208c.635-.635 1.165-1.165 1.529-1.642c.384-.504.654-1.036.654-1.68s-.27-1.176-.654-1.68c-.364-.477-.894-1.007-1.53-1.642zm-8.06 0a.75.75 0 0 1 1.06 1.06l-.171.172c-.682.682-1.138 1.14-1.434 1.528c-.283.37-.346.586-.346.77s.063.4.346.77c.296.387.752.846 1.434 1.528l.172.172a.75.75 0 1 1-1.061 1.06l-.208-.208c-.636-.635-1.166-1.165-1.53-1.642c-.384-.504-.653-1.036-.653-1.68s.27-1.176.653-1.68c.364-.477.894-1.007 1.53-1.642z"/><path fill="currentColor" fill-rule="evenodd" d="M11.943 1.25c-2.309 0-4.118 0-5.53.19c-1.444.194-2.584.6-3.479 1.494c-.895.895-1.3 2.035-1.494 3.48c-.19 1.411-.19 3.22-.19 5.529v.114c0 2.309 0 4.118.19 5.53c.194 1.444.6 2.584 1.494 3.479c.895.895 2.035 1.3 3.48 1.494c1.411.19 3.22.19 5.529.19h.114c2.309 0 4.118 0 5.53-.19c1.444-.194 2.584-.6 3.479-1.494c.895-.895 1.3-2.035 1.494-3.48c.19-1.411.19-3.22.19-5.529v-.114c0-2.309 0-4.118-.19-5.53c-.194-1.444-.6-2.584-1.494-3.479c-.895-.895-2.035-1.3-3.48-1.494c-1.411-.19-3.22-.19-5.529-.19zM3.995 3.995c.57-.57 1.34-.897 2.619-1.069c1.3-.174 3.008-.176 5.386-.176s4.086.002 5.386.176c1.279.172 2.05.5 2.62 1.069c.569.57.896 1.34 1.068 2.619c.174 1.3.176 3.008.176 5.386s-.002 4.086-.176 5.386c-.172 1.279-.5 2.05-1.069 2.62c-.57.569-1.34.896-2.619 1.068c-1.3.174-3.008.176-5.386.176s-4.086-.002-5.386-.176c-1.279-.172-2.05-.5-2.62-1.069c-.569-.57-.896-1.34-1.068-2.619c-.174-1.3-.176-3.008-.176-5.386s.002-4.086.176-5.386c.172-1.279.5-2.05 1.069-2.62" clip-rule="evenodd"/></svg>