<svg viewBox="0 0 24 24"><path fill="currentColor" d="M16.03 8.47a.75.75 0 1 0-1.06 1.06l.171.172c.682.682 1.139 1.14 1.434 1.528c.283.37.347.586.347.77s-.064.4-.347.77c-.295.387-.752.846-1.434 1.528l-.171.172a.75.75 0 1 0 1.06 1.06l.209-.208c.635-.635 1.165-1.165 1.529-1.642c.384-.504.654-1.036.654-1.68s-.27-1.176-.654-1.68c-.364-.477-.894-1.007-1.53-1.642zm-2.542-2.024a.75.75 0 0 1 .53.918l-2.588 9.66a.75.75 0 0 1-1.449-.389l2.589-9.659a.75.75 0 0 1 .918-.53M9.03 8.47a.75.75 0 0 0-1.06 0l-.208.208c-.636.635-1.166 1.165-1.53 1.642c-.384.504-.653 1.036-.653 1.68s.27 1.176.653 1.68c.364.477.894 1.007 1.53 1.642l.208.208a.75.75 0 0 0 1.06-1.06l-.171-.172c-.682-.682-1.138-1.14-1.434-1.528c-.283-.37-.346-.586-.346-.77s.063-.4.346-.77c.296-.387.752-.846 1.434-1.528l.172-.172a.75.75 0 0 0 0-1.06"/><path fill="currentColor" fill-rule="evenodd" d="M12 1.25C6.063 1.25 1.25 6.063 1.25 12S6.063 22.75 12 22.75S22.75 17.937 22.75 12S17.937 1.25 12 1.25M2.75 12a9.25 9.25 0 1 1 18.5 0a9.25 9.25 0 0 1-18.5 0" clip-rule="evenodd"/></svg>