<svg viewBox="0 0 24 24"><path fill="currentColor" d="M14 2.75c1.907 0 3.262.002 4.29.14c1.005.135 1.585.389 2.008.812s.677 1.003.812 2.009c.138 1.028.14 2.382.14 4.289a.75.75 0 0 0 1.5 0v-.056c0-1.838 0-3.294-.153-4.433c-.158-1.172-.49-2.121-1.238-2.87c-.749-.748-1.698-1.08-2.87-1.238c-1.14-.153-2.595-.153-4.433-.153H14a.75.75 0 0 0 0 1.5m-4.056-1.5H10a.75.75 0 0 1 0 1.5c-1.907 0-3.261.002-4.29.14c-1.005.135-1.585.389-2.008.812S3.025 4.705 2.89 5.71c-.138 1.029-.14 2.383-.14 4.29a.75.75 0 0 1-1.5 0v-.056c0-1.838 0-3.294.153-4.433c.158-1.172.49-2.121 1.238-2.87c.749-.748 1.698-1.08 2.87-1.238c1.14-.153 2.595-.153 4.433-.153M22 13.25a.75.75 0 0 1 .75.75v.056c0 1.838 0 3.294-.153 4.433c-.158 1.172-.49 2.121-1.238 2.87c-.749.748-1.698 1.08-2.87 1.238c-1.14.153-2.595.153-4.433.153H14a.75.75 0 0 1 0-1.5c1.907 0 3.262-.002 4.29-.14c1.005-.135 1.585-.389 2.008-.812s.677-1.003.812-2.009c.138-1.027.14-2.382.14-4.289a.75.75 0 0 1 .75-.75M2.75 14a.75.75 0 0 0-1.5 0v.056c0 1.838 0 3.294.153 4.433c.158 1.172.49 2.121 1.238 2.87c.749.748 1.698 1.08 2.87 1.238c1.14.153 2.595.153 4.433.153H10a.75.75 0 0 0 0-1.5c-1.907 0-3.261-.002-4.29-.14c-1.005-.135-1.585-.389-2.008-.812s-.677-1.003-.812-2.009c-.138-1.027-.14-2.382-.14-4.289" opacity=".5"/><path fill="currentColor" d="M5.527 5.527C5 6.054 5 6.903 5 8.6c0 1.131 0 1.697.351 2.049C5.703 11 6.27 11 7.4 11h1.2c1.131 0 1.697 0 2.049-.351C11 10.297 11 9.73 11 8.6V7.4c0-1.131 0-1.697-.351-2.049C10.297 5 9.73 5 8.6 5c-1.697 0-2.546 0-3.073.527m0 12.946C5 17.946 5 17.097 5 15.4c0-1.131 0-1.697.351-2.049C5.703 13 6.27 13 7.4 13h1.2c1.131 0 1.697 0 2.049.351c.351.352.351.918.351 2.049v1.2c0 1.131 0 1.697-.351 2.048C10.297 19 9.73 19 8.6 19c-1.697 0-2.546 0-3.073-.527M13 7.4c0-1.131 0-1.697.351-2.049C13.704 5 14.27 5 15.4 5c1.697 0 2.546 0 3.073.527S19 6.903 19 8.6c0 1.131 0 1.697-.352 2.049c-.35.351-.917.351-2.048.351h-1.2c-1.131 0-1.697 0-2.049-.351C13 10.297 13 9.73 13 8.6zm.352 11.249C13 18.297 13 17.73 13 16.6v-1.2c0-1.131 0-1.697.351-2.049C13.704 13 14.27 13 15.4 13h1.2c1.131 0 1.697 0 2.048.351c.352.352.352.918.352 2.049c0 1.697 0 2.546-.527 3.073S17.097 19 15.4 19c-1.131 0-1.697 0-2.049-.352"/></svg>