<svg viewBox="0 0 24 24"><g fill="none" stroke="currentColor" stroke-width="1.5"><path d="M13.024 14.56c-2.31.924-3.465 1.386-4.124.938a1.5 1.5 0 0 1-.398-.398c-.448-.66.014-1.814.938-4.124c.197-.493.295-.74.465-.933q.065-.074.139-.138c.193-.17.44-.268.932-.465c2.31-.924 3.464-1.386 4.124-.938a1.5 1.5 0 0 1 .398.398c.448.66-.014 1.814-.938 4.124c-.197.493-.296.739-.465.932a2 2 0 0 1-.139.139c-.193.17-.44.268-.932.465Z"/><path stroke-linecap="round" d="M7 3.338A9.95 9.95 0 0 1 12 2c5.523 0 10 4.477 10 10s-4.477 10-10 10S2 17.523 2 12c0-1.821.487-3.53 1.338-5"/></g></svg>