<svg viewBox="0 0 24 24"><path fill="currentColor" d="M3.464 20.536C4.93 22 7.286 22 12 22s7.071 0 8.535-1.465C22 19.072 22 16.714 22 12s0-7.071-1.465-8.536C19.072 2 16.714 2 12 2S4.929 2 3.464 3.464C2 4.93 2 7.286 2 12s0 7.071 1.464 8.535" opacity=".5"/><path fill="currentColor" d="M13.024 14.56c.493-.197.739-.296.932-.465q.075-.065.139-.139c.17-.193.268-.44.465-.932c.924-2.31 1.386-3.465.938-4.124a1.5 1.5 0 0 0-.398-.398c-.66-.448-1.814.014-4.124.938c-.493.197-.74.295-.933.465q-.074.065-.138.139c-.17.193-.268.44-.465.932c-.924 2.31-1.386 3.464-.938 4.124a1.5 1.5 0 0 0 .398.398c.66.448 1.814-.014 4.124-.938"/></svg>