<svg viewBox="0 0 24 24"><path fill="currentColor" fill-rule="evenodd" d="M12 22c5.523 0 10-4.477 10-10S17.523 2 12 2S2 6.477 2 12s4.477 10 10 10M7.55 9.6a.75.75 0 0 1 .9-1.2l2 1.5a.75.75 0 0 1 0 1.2l-2 1.5a.75.75 0 1 1-.9-1.2l1.2-.9zm9.05-1.05a.75.75 0 0 1-.15 1.05l-1.2.9l1.2.9a.75.75 0 1 1-.9 1.2l-2-1.5a.75.75 0 0 1 0-1.2l2-1.5a.75.75 0 0 1 1.05.15m-1.07 7.98a.75.75 0 0 1-1.06 0l-.47-.47c-.561.53-1.44.53-2 0c-.56.53-1.439.53-2 0l-.47.47a.75.75 0 1 1-1.06-1.06l.5-.5a1.457 1.457 0 0 1 2.03-.03c.56-.53 1.44-.53 2 0a1.457 1.457 0 0 1 2.03.03l.5.5a.75.75 0 0 1 0 1.06" clip-rule="evenodd"/></svg>