<svg viewBox="0 0 24 24"><path fill="currentColor" fill-rule="evenodd" d="M15.602 2.4c-.22-.22-.497-.21-.648-.19c-.144.02-.316.068-.48.115l-.125.035l-.103-.064a3.4 3.4 0 0 0-.42-.24c-.149-.064-.4-.138-.666.001c-.26.137-.345.381-.38.537a4 4 0 0 0-.06.487l-.01.127v.01l-.112.093c-.133.11-.272.223-.37.33c-.104.114-.264.327-.223.625c.042.307.265.466.404.544c.126.07.291.13.446.188l.109.04l.04.109c.057.154.118.32.188.446c.077.14.237.362.544.404c.297.04.51-.12.624-.224c.108-.098.221-.236.331-.37l.092-.111h.01l.128-.01c.168-.014.345-.028.487-.06c.155-.035.4-.12.537-.38c.139-.265.065-.518 0-.667a3.4 3.4 0 0 0-.24-.42l-.064-.102l.036-.126a3.5 3.5 0 0 0 .114-.479c.02-.152.03-.428-.19-.648m-.9.9l-.078.022l-.02.006a1 1 0 0 1-.397.047a.9.9 0 0 1-.37-.155l-.018-.011l-.1-.064l-.011.141l-.002.022a1 1 0 0 1-.092.384a1 1 0 0 1-.263.294L13.334 4l-.09.075l.076.029l.02.006c.071.026.23.082.35.202s.176.278.201.35l.007.02l.029.077l.075-.091l.013-.017c.051-.063.151-.188.295-.263a1 1 0 0 1 .384-.092l.022-.002l.14-.01l-.063-.102l-.011-.017a.9.9 0 0 1-.155-.37a1 1 0 0 1 .047-.397l.006-.02z" clip-rule="evenodd"/><path fill="currentColor" d="M10.435 3.17a.75.75 0 1 0-1.28-.782A2.15 2.15 0 0 0 9.47 5.03l.097.098a.76.76 0 0 1 .19.756a.75.75 0 0 0 1.436.434a2.26 2.26 0 0 0-.565-2.25l-.098-.098a.65.65 0 0 1-.095-.8m-2.749.77a.536.536 0 1 0-.758.76a.536.536 0 0 0 .758-.76m10.592 1.664a.75.75 0 0 0-1.471-.294l-.144.72c-.093.463-.427.84-.874.99a2.82 2.82 0 0 0-1.871 2.119l-.144.72a.75.75 0 0 0 1.47.294l.145-.72c.092-.463.426-.84.874-.99a2.82 2.82 0 0 0 1.87-2.12z"/><path fill="currentColor" fill-rule="evenodd" d="M22.524 8.842c.255.554.083 1.183-.384 1.65c-.271.27-.634.393-.957.451c-.331.059-.68.06-.987.04a7 7 0 0 1-1.045-.147l-.046-.01l-.024-.006l-.02-.005l-.006-.001h-.002l.12-.486l-.12.485a.5.5 0 0 1-.366-.365v-.003l-.002-.006l-.005-.02a5 5 0 0 1-.064-.317a7 7 0 0 1-.1-.798a4.2 4.2 0 0 1 .041-.986c.058-.324.18-.687.451-.958c.467-.467 1.096-.64 1.65-.383c.42.194.694.586.796 1.069c.483.103.875.376 1.07.796m-2.928 1.062c.178.031.413.065.664.081c.263.017.525.013.747-.027c.23-.04.361-.109.425-.173c.243-.243.225-.435.184-.524c-.045-.096-.204-.262-.614-.261a.5.5 0 0 1-.502-.502c.002-.41-.165-.57-.261-.614c-.089-.04-.281-.06-.524.184c-.064.064-.133.195-.173.425a3.2 3.2 0 0 0-.027.747c.016.25.05.486.081.664" clip-rule="evenodd"/><path fill="currentColor" d="M20.33 13.73a1.01 1.01 0 0 1 1.079-.17l.291.127a.75.75 0 0 0 .601-1.375l-.291-.127a2.51 2.51 0 0 0-2.674.422c-.326.29-.801.338-1.179.12l-.212-.123a.75.75 0 0 0-.75 1.299l.212.122a2.51 2.51 0 0 0 2.924-.296m-1.273 1.584a.537.537 0 1 1 .759.76a.537.537 0 0 1-.759-.76m-6.142-8.156a.536.536 0 1 0-.759.759a.536.536 0 0 0 .759-.76m4.241 3.001a.536.536 0 1 1 .759.759a.536.536 0 0 1-.759-.76"/><path fill="currentColor" fill-rule="evenodd" d="M9.639 6.885c.586.434 1.26 1.11 2.08 1.928l3.467 3.467c.819.82 1.494 1.494 1.928 2.08c.45.606.766 1.279.583 2.054c-.183.776-.767 1.236-1.44 1.577c-.651.33-1.556.632-2.654.998l-5.19 1.73c-1.33.443-2.41.803-3.247.952c-.844.15-1.7.135-2.337-.501c-.636-.636-.651-1.493-.501-2.338c.149-.836.509-1.916.952-3.246l1.73-5.19c.366-1.098.668-2.003.998-2.654c.34-.673.801-1.257 1.577-1.44s1.448.134 2.054.583M8.746 8.09l-.052-.038l-.036.2a50 50 0 0 0-.302 1.882c-.213 1.515-.392 3.347-.3 4.751c.055.85.237 1.95.411 2.857a49 49 0 0 0 .265 1.29l2.635-.88c-.07-.205-.152-.47-.235-.777c-.199-.74-.405-1.758-.405-2.82a11 11 0 0 1 .406-2.864a11 11 0 0 1 .329-1.014l-.76-.76c-.874-.873-1.47-1.467-1.956-1.827m-2.333 2.84a58 58 0 0 1 .541-1.577l-.083.573c-.216 1.533-.415 3.492-.312 5.057c.062.948.259 2.123.435 3.04a51 51 0 0 0 .308 1.484c-1.041.344-1.808.582-2.398.687c-.721.128-.92.009-1.014-.085s-.213-.293-.085-1.014c.127-.715.45-1.69.919-3.096zm6.656 6.656l-.279.093a12 12 0 0 1-.365-1.345a9 9 0 0 1-.198-1.779a9.5 9.5 0 0 1 .418-2.695l1.436 1.437c.874.874 1.468 1.47 1.828 1.956c.354.478.359.686.328.817s-.128.315-.658.583c-.54.274-1.338.542-2.51.933" clip-rule="evenodd"/></svg>