<svg viewBox="0 0 24 24"><path fill="currentColor" fill-rule="evenodd" d="M15.602 2.422c-.22-.22-.496-.21-.648-.19c-.143.02-.315.068-.479.115l-.125.035l-.103-.064a3.4 3.4 0 0 0-.42-.24c-.15-.064-.401-.138-.666.001c-.26.137-.346.381-.38.537a4 4 0 0 0-.06.487l-.01.127v.01l-.112.093c-.134.11-.272.223-.37.33c-.104.114-.264.327-.223.625c.042.307.264.466.403.544c.126.07.292.13.447.188l.108.04l.04.109c.058.154.119.32.189.446c.077.14.236.362.544.404c.297.04.51-.12.624-.224c.107-.098.221-.236.33-.37l.092-.111h.011l.128-.01c.168-.014.345-.028.486-.06c.156-.035.4-.12.537-.38c.14-.265.066-.518 0-.667a3.4 3.4 0 0 0-.239-.42l-.064-.102l.036-.126c.046-.164.095-.336.114-.479c.02-.152.03-.428-.19-.648" clip-rule="evenodd"/><path fill="currentColor" d="M10.187 2.16a.75.75 0 0 1 .248 1.032a.65.65 0 0 0 .095.8l.098.097c.589.589.806 1.454.565 2.25a.75.75 0 1 1-1.436-.433a.76.76 0 0 0-.19-.756l-.097-.098a2.15 2.15 0 0 1-.314-2.642a.75.75 0 0 1 1.03-.25M21.41 13.581a1.01 1.01 0 0 0-1.079.17a2.51 2.51 0 0 1-2.923.297l-.213-.123a.75.75 0 1 1 .75-1.3l.213.123c.377.218.852.17 1.178-.119a2.51 2.51 0 0 1 2.674-.422l.291.127a.75.75 0 1 1-.6 1.375zm-8.494-6.402a.536.536 0 1 0-.758.759a.536.536 0 0 0 .758-.76"/><path fill="currentColor" fill-rule="evenodd" d="M22.524 8.864c.256.554.083 1.183-.384 1.65c-.27.27-.634.394-.957.451c-.33.059-.68.06-.986.04a7 7 0 0 1-1.116-.163l-.02-.005l-.005-.001h-.003a.5.5 0 0 1-.365-.366l.485-.12l-.485.119l-.001-.002l-.001-.006l-.005-.02l-.016-.07a7 7 0 0 1-.148-1.045a4.2 4.2 0 0 1 .04-.986c.058-.324.18-.687.452-.957c.467-.468 1.096-.64 1.65-.384c.42.194.693.586.796 1.069c.482.103.875.376 1.07.796" clip-rule="evenodd"/><path fill="currentColor" d="M17.69 4.744a.75.75 0 0 1 .588.882l-.144.72c-.198.99-.912 1.8-1.87 2.119c-.448.15-.782.527-.874.99l-.144.72a.75.75 0 0 1-1.471-.294l.144-.72c.198-.99.912-1.8 1.87-2.119c.448-.15.782-.527.874-.99l.145-.72a.75.75 0 0 1 .882-.588M6.929 3.963a.536.536 0 1 1 .758.758a.536.536 0 0 1-.758-.758" opacity=".5"/><path fill="currentColor" d="M19.817 15.335a.536.536 0 1 0-.759.76a.536.536 0 0 0 .759-.76" opacity=".7"/><path fill="currentColor" d="M17.158 10.18a.536.536 0 1 1 .759.757a.536.536 0 0 1-.759-.758" opacity=".2"/><path fill="currentColor" d="m4.012 15.762l1.69-5.069c.766-2.298 1.149-3.447 2.055-3.66c.906-.215 1.763.642 3.475 2.355l3.38 3.379c1.712 1.713 2.569 2.569 2.355 3.475s-1.363 1.29-3.661 2.055l-5.069 1.69c-2.765.922-4.148 1.383-4.878.653s-.269-2.113.653-4.878" opacity=".5"/><path fill="currentColor" d="m8.8 7.504l.05-.245c-.392-.23-.739-.31-1.093-.227a1.2 1.2 0 0 0-.397.175l.696.144c-.478-.1-.641-.133-.696-.144l-.035.024l-.005.026a26 26 0 0 0-.138.73a51 51 0 0 0-.311 1.939c-.215 1.533-.415 3.492-.312 5.057c.062.948.26 2.123.435 3.04a51 51 0 0 0 .312 1.503l.021.093l.006.025l.002.009l.73-.17l-.73.17l.137.588l.765-.254l.664-.221l-.106-.46l-.006-.021l-.02-.088l-.072-.33a49 49 0 0 1-.23-1.125c-.173-.907-.355-2.007-.411-2.857c-.092-1.404.088-3.235.3-4.75a50 50 0 0 1 .434-2.582l.008-.037l.002-.01zm4.24 10.882l-1.424.475l-.092-.278l.712-.237l-.712.237l-.001-.003l-.002-.006l-.007-.022a10 10 0 0 1-.115-.37c-.074-.247-.172-.59-.27-.983c-.192-.77-.402-1.792-.402-2.644s.21-1.874.402-2.643a22 22 0 0 1 .385-1.354l.007-.021l.002-.007v-.001l.713.235l-.712-.236l.212-.637l1.186 1.187l-.004.014l-.082.267c-.069.23-.16.55-.252.916c-.187.75-.357 1.622-.357 2.28s.17 1.531.357 2.28a21 21 0 0 0 .356 1.253l.006.017l.001.004z"/></svg>