<svg viewBox="0 0 24 24"><path fill="currentColor" fill-rule="evenodd" d="M9.987 2.111a2.94 2.94 0 0 1 4.158 0l7.744 7.744A2.93 2.93 0 0 1 22.75 12a2.9 2.9 0 0 1-4.268 2.558a3 3 0 0 1-.751-.545l-3.342-3.342l-.793.794a.345.345 0 0 0-.05.425l.646 1.05c.737 1.198-.693 2.549-1.847 1.744l-4.618-3.218l4.944 7.094c.81 1.162-.563 2.597-1.76 1.837l-6.116-3.884l.65 1.371c.333.704.19 1.542-.362 2.094L2.53 22.53a.75.75 0 0 1-1.06-1.06l2.552-2.553a.34.34 0 0 0 .067-.39l-.95-2.005l.662-.313l-.661.313c-.557-1.175.77-2.348 1.868-1.65l5.856 3.718l-5.016-7.197c-.828-1.188.618-2.634 1.807-1.806l4.75 3.31l-.137-.22a1.845 1.845 0 0 1 .267-2.272l.794-.794l-3.342-3.342a2.94 2.94 0 0 1 0-4.158M14.92 9.08l2.137 2.137a2.9 2.9 0 0 1 2.052-2.021l-6.024-6.024a1.44 1.44 0 0 0-2.037 2.037zm6.33 2.883a1.4 1.4 0 1 0-2.076 1.263a1.44 1.44 0 0 0 2.077-1.263M4.205 16.138" clip-rule="evenodd"/></svg>