<svg viewBox="0 0 24 24"><g fill="none"><path fill="currentColor" d="m18.261 13.482l-.53.53zM10.518 5.74l.53-.53zm3.097-3.098l-.53.53l.001.002zm7.743 7.744l-.532.528l.002.002zM1.47 21.47a.75.75 0 1 0 1.06 1.06zm3.082-2.022l-.53-.53zm.215-1.243l-.678.321zm-.95-2.004l-.677.321zm.79-.696l-.403.633zm6.706 4.259l.402-.633zm.743-.775l-.615.428zm-5.593-8.024l-.615.428zm.763-.763l.429-.615zm5.548 3.867l-.43.615zm.779-.736l-.639.393zm-.646-1.05l.639-.393zm2.013-2.142a.75.75 0 1 0-1.06-1.06zm-6.96 7.493l-.402.633zm.684-2.229a.75.75 0 0 0 1.231-.857zm3.338 2.166a.75.75 0 1 0-1.23.858zm-3.423-3.6l.615-.428zm9.973-7.5a.75.75 0 0 0-1.064 1.057zm-4.06-1.921a.75.75 0 1 0 1.057-1.064zM9.986 6.27l7.744 7.743l1.06-1.061l-7.743-7.743zm7.744 7.743a2.94 2.94 0 0 0 4.158 0l-1.06-1.061a1.44 1.44 0 0 1-2.038 0zM9.987 2.11a2.94 2.94 0 0 0 0 4.158l1.061-1.06a1.44 1.44 0 0 1 0-2.037zm4.158 0a2.94 2.94 0 0 0-4.158 0l1.061 1.06a1.44 1.44 0 0 1 2.037 0zm6.683 8.804a1.44 1.44 0 0 1 0 2.037l1.06 1.06a2.94 2.94 0 0 0 0-4.157zM2.53 22.53l2.553-2.552l-1.061-1.06L1.47 21.47zm2.915-4.646l-.95-2.004l-1.355.642l.95 2.004zm1.352-7.066l5.548 3.866l.857-1.23l-5.547-3.867zm7.395 2.122l-.646-1.05l-1.278.786l.646 1.05zm-.597-1.475l1.325-1.324l-1.06-1.06l-1.325 1.324zm-.05.425a.345.345 0 0 1 .05-.425l-1.06-1.06a1.845 1.845 0 0 0-.267 2.271zm-1.2 2.794c1.154.805 2.584-.546 1.847-1.744l-1.278.786a.22.22 0 0 1-.022-.144a.2.2 0 0 1 .056-.11a.2.2 0 0 1 .112-.049a.22.22 0 0 1 .142.03zm-5.266-4.148a.22.22 0 0 1 .03.146a.2.2 0 0 1-.053.113a.2.2 0 0 1-.113.052a.22.22 0 0 1-.146-.03l.858-1.23c-1.189-.828-2.635.618-1.807 1.806zm3.832 9.861c1.197.76 2.57-.675 1.76-1.837l-1.23.857a.22.22 0 0 1-.03-.143a.2.2 0 0 1 .05-.112a.2.2 0 0 1 .11-.055a.22.22 0 0 1 .144.024zM4.496 15.88a.21.21 0 0 1-.05.239a.21.21 0 0 1-.243.02l.805-1.267c-1.098-.698-2.425.475-1.868 1.65zm.587 4.098c.551-.552.695-1.39.362-2.094l-1.356.642a.34.34 0 0 1-.067.391zm-.879-3.84l3.354 2.13L8.362 17l-3.354-2.13zm3.354 2.13l3.353 2.129l.804-1.266L8.362 17zm5.113.292l-.689-.989l-1.23.858l.689.988zm-2.796-4.012l-.7-1.005l-1.231.857l.7 1.005zm-.7-1.005l-2.096-3.007l-1.23.857L7.943 14.4zM21.89 9.857l-3.359-3.385l-1.064 1.056l3.358 3.385zm-6.362-6.37L14.144 2.11l-1.058 1.063l1.385 1.377z"/><path stroke="currentColor" stroke-width="1.5" d="M22 12a2.15 2.15 0 1 1-4.3 0a2.15 2.15 0 0 1 4.3 0Z"/></g></svg>