<svg viewBox="0 0 24 24"><path fill="currentColor" fill-rule="evenodd" d="M9 1.25a.75.75 0 0 1 .75.75v1.263a86 86 0 0 1 1.5-.013V2a.75.75 0 0 1 1.5 0v1.25q.802 0 1.5.013V2a.75.75 0 0 1 1.5 0v1.327q.39.03.739.076c1.172.158 2.121.49 2.87 1.238c.748.749 1.08 1.698 1.238 2.87q.046.35.076.739H22a.75.75 0 0 1 0 1.5h-1.263q.013.698.013 1.5H22a.75.75 0 0 1 0 1.5h-1.25q0 .802-.013 1.5H22a.75.75 0 0 1 0 1.5h-1.327q-.03.39-.076.739c-.158 1.172-.49 2.121-1.238 2.87c-.749.748-1.698 1.08-2.87 1.238q-.35.046-.739.076V22a.75.75 0 0 1-1.5 0v-1.263q-.698.013-1.5.013V22a.75.75 0 0 1-1.5 0v-1.25q-.802 0-1.5-.013V22a.75.75 0 0 1-1.5 0v-1.327q-.39-.03-.739-.076c-1.172-.158-2.121-.49-2.87-1.238c-.748-.749-1.08-1.698-1.238-2.87q-.046-.35-.076-.739H2a.75.75 0 0 1 0-1.5h1.263a86 86 0 0 1-.013-1.5H2a.75.75 0 0 1 0-1.5h1.25q0-.802.013-1.5H2a.75.75 0 0 1 0-1.5h1.327q.03-.39.076-.739c.158-1.172.49-2.121 1.238-2.87c.749-.748 1.698-1.08 2.87-1.238q.35-.046.739-.076V2A.75.75 0 0 1 9 1.25M7.71 4.89c-1.005.135-1.585.389-2.008.812S5.025 6.705 4.89 7.71c-.138 1.028-.14 2.382-.14 4.289s.002 3.262.14 4.29c.135 1.005.389 1.585.812 2.008s1.003.677 2.009.812c1.028.138 2.382.14 4.289.14s3.262-.002 4.29-.14c1.005-.135 1.585-.389 2.008-.812s.677-1.003.812-2.009c.138-1.028.14-2.382.14-4.289s-.002-3.261-.14-4.29c-.135-1.005-.389-1.585-.812-2.008s-1.003-.677-2.009-.812c-1.028-.138-2.382-.14-4.289-.14s-3.261.002-4.29.14m2.24 1.36h4.1c.664 0 1.237 0 1.696.062c.492.066.963.215 1.345.597s.531.854.597 1.345c.062.459.062 1.032.062 1.697v4.098c0 .665 0 1.238-.062 1.697c-.066.492-.215.963-.597 1.345s-.854.531-1.345.597c-.459.062-1.032.062-1.697.062H9.951c-.665 0-1.238 0-1.697-.062c-.491-.066-.963-.215-1.345-.597s-.531-.854-.597-1.345c-.062-.459-.062-1.032-.062-1.697V9.951c0-.665 0-1.238.062-1.697c.066-.491.215-.963.597-1.345s.854-.531 1.345-.597c.459-.062 1.032-.062 1.697-.062M8.455 7.798c-.325.044-.427.115-.484.172s-.128.159-.172.484c-.046.347-.048.818-.048 1.546v4c0 .728.002 1.2.048 1.546c.044.325.115.427.172.484s.159.128.484.172c.347.046.818.048 1.546.048h4c.728 0 1.2-.002 1.546-.048c.325-.044.427-.115.484-.172s.128-.159.172-.484c.046-.347.048-.818.048-1.546v-4c0-.728-.002-1.2-.048-1.546c-.044-.325-.115-.427-.172-.484s-.159-.128-.484-.172c-.347-.046-.818-.048-1.546-.048h-4c-.728 0-1.2.002-1.546.048m4.41 1.592a.75.75 0 0 1 .175 1.046l-.582.814H13a.75.75 0 0 1 .61 1.186l-1.428 2a.75.75 0 1 1-1.22-.872l.58-.814H11a.75.75 0 0 1-.61-1.186l1.428-2a.75.75 0 0 1 1.047-.174" clip-rule="evenodd"/></svg>