<svg viewBox="0 0 24 24"><path fill="currentColor" fill-rule="evenodd" d="M5 1.25a.75.75 0 0 1 .75.75v9c0 1.907.002 3.262.14 4.29c.135 1.005.389 1.585.812 2.008s1.003.677 2.009.812c1.028.138 2.382.14 4.289.14h9a.75.75 0 0 1 0 1.5h-9.056c-1.838 0-3.294 0-4.433-.153c-1.172-.158-2.121-.49-2.87-1.238c-.748-.749-1.08-1.698-1.238-2.87c-.153-1.14-.153-2.595-.153-4.433V2A.75.75 0 0 1 5 1.25" clip-rule="evenodd"/><path fill="currentColor" d="M2 5.75h2.25v-1.5H2a.75.75 0 0 0 0 1.5M19.75 22v-2.25h-1.5V22a.75.75 0 0 0 1.5 0M15.29 5.89c-1.028-.138-2.383-.14-4.29-.14H8a.75.75 0 0 1 0-1.5h3.056c1.838 0 3.294 0 4.433.153c1.172.158 2.121.49 2.87 1.238c.748.749 1.08 1.698 1.238 2.87c.153 1.14.153 2.595.153 4.433V16a.75.75 0 0 1-1.5 0v-3c0-1.907-.002-3.261-.14-4.29c-.135-1.005-.389-1.585-.812-2.008s-1.003-.677-2.009-.812" opacity=".5"/><path fill="currentColor" d="M8.5 11.5c0-1.414 0-2.121.44-2.56c.439-.44 1.146-.44 2.56-.44h1c1.414 0 2.121 0 2.56.44c.44.439.44 1.146.44 2.56v1c0 1.414 0 2.121-.44 2.56c-.439.44-1.146.44-2.56.44h-1c-1.414 0-2.121 0-2.56-.44c-.44-.439-.44-1.146-.44-2.56z"/></svg>