<svg viewBox="0 0 24 24"><g fill="none" stroke="currentColor" stroke-width="1.5"><path stroke-linecap="round" d="M22 19h-9c-3.771 0-5.657 0-6.828-1.172S5 14.771 5 11V2"/><path stroke-linecap="round" d="M2 5h9c3.771 0 5.657 0 6.828 1.172S19 9.229 19 13v9" opacity=".5"/><path d="M8.5 11.5c0-1.414 0-2.121.44-2.56c.439-.44 1.146-.44 2.56-.44h1c1.414 0 2.121 0 2.56.44c.44.439.44 1.146.44 2.56v1c0 1.414 0 2.121-.44 2.56c-.439.44-1.146.44-2.56.44h-1c-1.414 0-2.121 0-2.56-.44c-.44-.439-.44-1.146-.44-2.56z"/></g></svg>