<svg viewBox="0 0 24 24"><path fill="currentColor" fill-rule="evenodd" d="M2.633 16h18.734c.08-.719.156-1.527.242-2.438l.23-2.436c.18-1.912.27-2.869-.058-3.264a1 1 0 0 0-.675-.367c-.476-.042-1.073.638-2.268 1.998c-.618.704-.927 1.055-1.271 1.11a.92.92 0 0 1-.562-.09c-.319-.16-.53-.595-.955-1.464l-2.237-4.584C13.011 2.822 12.61 2 12 2s-1.011.822-1.813 2.465L7.95 9.049c-.424.87-.636 1.304-.955 1.464a.93.93 0 0 1-.562.09c-.344-.055-.653-.406-1.271-1.11c-1.195-1.36-1.792-2.04-2.268-1.998a1 1 0 0 0-.675.367c-.327.395-.237 1.352-.057 3.264l.229 2.436c.086.911.162 1.72.242 2.438" clip-rule="evenodd" opacity=".5"/><path fill="currentColor" d="M13.36 22c3.545 0 5.317 0 6.5-1.21c.914-.935 1.234-2.345 1.507-4.79H2.633c.273 2.445.593 3.855 1.507 4.79C5.322 22 7.095 22 10.64 22z"/></svg>