<svg viewBox="0 0 24 24"><path fill="currentColor" d="M12 16c-5.76 0-6.78-5.74-6.96-10.294c-.051-1.266-.076-1.9.4-2.485c.475-.586 1.044-.682 2.183-.874A26.4 26.4 0 0 1 12 2c1.784 0 3.253.157 4.377.347c1.139.192 1.708.288 2.184.874s.45 1.219.4 2.485C18.781 10.26 17.761 16 12.001 16" opacity=".5"/><path fill="currentColor" d="m17.64 12.422l2.817-1.565c.752-.418 1.128-.627 1.336-.979C22 9.526 22 9.096 22 8.235v-.073c0-1.043 0-1.565-.283-1.958s-.778-.558-1.768-.888L19 5l-.017.085q-.008.283-.022.621c-.088 2.225-.377 4.733-1.32 6.716M5.04 5.706c.087 2.225.376 4.733 1.32 6.716l-2.817-1.565c-.752-.418-1.129-.627-1.336-.979S2 9.096 2 8.235v-.073c0-1.043 0-1.565.283-1.958s.778-.558 1.768-.888L5 5l.017.087q.008.281.022.62"/><path fill="currentColor" fill-rule="evenodd" d="M5.25 22a.75.75 0 0 1 .75-.75h12a.75.75 0 0 1 0 1.5H6a.75.75 0 0 1-.75-.75" clip-rule="evenodd"/><path fill="currentColor" d="M15.458 21.25H8.542l.297-1.75a1 1 0 0 1 .98-.804h4.361a1 1 0 0 1 .98.804z" opacity=".5"/><path fill="currentColor" d="M12 16q-.39 0-.75-.034v2.73h1.5v-2.73A8 8 0 0 1 12 16"/></svg>