<svg viewBox="0 0 24 24"><g fill="none"><path fill="currentColor" d="M20.92 5.73a.75.75 0 0 0-1.423.475zm-17.129.238l.712.237zm.036-.107l-.711-.238zM7 18.58l-.742.108zm10.002 0l.742.108zm-.922 2.933l.49.568zM3.482 7.762l.68-.317zm.218.303l.516-.544zm16.819-.303l.68.317zm-.22.303l-.515-.544zm-2.398-4.982a.75.75 0 1 0 .786-1.278zm-9.98 18.43l-.49.568zM5.706 2.444l-.393-.639zm-.356.257l.482.575zM10 21.995l-.013.75H10zm4 0v.75h.013zM9.185 2.75h5.63v-1.5h-5.63zM4.503 6.205l.036-.107l-1.423-.475l-.036.108zM18.5 7.59h-13v1.5h13zm-13.742.859l1.5 10.24l1.483-.217L6.242 8.23zm12.985 10.24l1.5-10.24l-1.485-.217l-1.5 10.24zm-1.484-.217c-.122.835-.205 1.391-.32 1.804c-.109.392-.223.56-.35.67l.98 1.136c.437-.377.664-.86.815-1.405c.146-.525.242-1.192.359-1.988zM3.08 5.73c-.153.459-.29.867-.36 1.205c-.072.347-.103.747.082 1.143l1.36-.634c.015.034-.02.016.026-.206c.048-.23.15-.538.315-1.034zM5.5 7.589c-.523 0-.847 0-1.08-.029c-.225-.026-.232-.065-.204-.04L3.184 8.61c.317.3.707.398 1.058.44c.343.04.774.04 1.258.04zm-2.698.49c.093.2.223.38.382.53l1.032-1.088a.3.3 0 0 1-.055-.076zm16.695-1.874c.166.496.267.804.315 1.034c.046.222.01.24.027.206l1.36.634c.184-.396.153-.796.082-1.143c-.07-.338-.207-.746-.36-1.205zM18.5 9.09c.485 0 .915.002 1.258-.04c.351-.04.74-.139 1.058-.44l-1.032-1.088c.028-.026.021.013-.203.04c-.234.027-.558.028-1.08.028zm1.339-1.644a.3.3 0 0 1-.055.076l1.032 1.089c.16-.152.29-.332.382-.531zM14.815 2.75c.934 0 1.579 0 2.082.052c.488.049.775.14 1.005.281l.785-1.278c-.493-.303-1.027-.434-1.639-.496c-.596-.06-1.33-.059-2.233-.059zM6.257 18.688c.117.796.213 1.463.359 1.988c.151.545.378 1.028.814 1.405l.981-1.135c-.127-.11-.241-.279-.35-.671c-.115-.413-.197-.97-.32-1.804zM9.185 1.25c-.903 0-1.637 0-2.233.06c-.612.061-1.146.192-1.639.495L6.1 3.083c.23-.14.516-.232 1.004-.281c.503-.051 1.148-.052 2.082-.052zM4.54 6.098c.295-.886.5-1.498.708-1.959c.201-.447.378-.69.585-.863l-.964-1.15c-.443.372-.737.837-.989 1.398c-.246.546-.477 1.242-.763 2.1zm.774-4.293a4 4 0 0 0-.445.32l.964 1.15a2 2 0 0 1 .267-.192zm4.7 19.44c-1.063-.018-1.392-.118-1.602-.3l-.98 1.136c.673.582 1.549.647 2.556.664zm4 1.5c1.007-.017 1.883-.082 2.557-.664l-.981-1.135c-.21.181-.54.281-1.602.3zm-4.013 0h4v-1.5h-4z"/><path stroke="currentColor" stroke-linecap="round" stroke-width="1.5" d="M6.5 12H12m5.5 0H16m-9 5h10"/></g></svg>