<svg viewBox="0 0 24 24"><g fill="none"><path fill="currentColor" d="M7.506 15.265a.75.75 0 0 0 1.446-.4zm-1.43-7.99l.724-.2zM4.705 5.92l-.2.723zM3.2 4.725a.75.75 0 1 0-.402 1.445zm16.988 11a.75.75 0 1 0-.378-1.451zm-9.991 1.834c.31 1.12-.37 2.303-1.574 2.616L9 21.626c1.977-.513 3.185-2.502 2.643-4.467zm-1.574 2.616c-1.212.315-2.428-.389-2.74-1.519l-1.446.4c.54 1.955 2.594 3.082 4.563 2.57zm-2.74-1.519c-.31-1.12.37-2.303 1.574-2.616l-.377-1.45c-1.977.513-3.186 2.502-2.643 4.467zm1.574-2.616c1.212-.315 2.428.389 2.74 1.519l1.446-.4c-.54-1.955-2.594-3.082-4.563-2.57zm1.494-1.175L6.8 7.075l-1.446.4l2.152 7.79zM4.904 5.197l-1.703-.472l-.402 1.445l1.704.473zM6.8 7.075a2.71 2.71 0 0 0-1.896-1.878l-.4 1.446c.425.118.742.44.85.831zm4.31 11.01l9.079-2.36l-.378-1.451l-9.079 2.36z"/><path stroke="currentColor" stroke-width="1.5" d="M9.565 8.73c-.485-1.755-.727-2.633-.315-3.324c.411-.692 1.316-.927 3.126-1.398l1.92-.498c1.81-.47 2.715-.706 3.428-.307c.713.4.956 1.277 1.44 3.033l.515 1.862c.485 1.755.728 2.633.316 3.325c-.412.691-1.317.927-3.127 1.397l-1.92.499c-1.81.47-2.715.705-3.428.306c-.713-.4-.955-1.277-1.44-3.032z" opacity=".5"/></g></svg>