<svg viewBox="0 0 24 24"><g fill="none" stroke="currentColor" stroke-width="1.5"><path stroke-linecap="round" d="M22 10c0-3.771 0-5.657-1.172-6.828S17.772 2 14 2S8.343 2 7.172 3.172C6.229 4.115 6.045 5.52 6.009 8M22 14c0 3.771 0 5.657-1.172 6.828S17.772 22 14 22h-2"/><path d="M2 14.5c0-1.405 0-2.107.337-2.611a2 2 0 0 1 .552-.552C3.393 11 4.096 11 5.5 11s2.107 0 2.611.337a2 2 0 0 1 .552.552C9 12.393 9 13.096 9 14.5v4c0 1.404 0 2.107-.337 2.611a2 2 0 0 1-.552.552C7.607 22 6.904 22 5.5 22s-2.107 0-2.611-.337a2 2 0 0 1-.552-.552C2 20.607 2 19.904 2 18.5z"/><path stroke-linecap="round" d="M17 19h-5"/></g></svg>