<svg viewBox="0 0 24 24"><path fill="currentColor" d="M2.75 2a.75.75 0 0 0-1.5 0v10.057c0 2.309 0 4.118.19 5.53c.194 1.444.6 2.584 1.494 3.479c.895.895 2.035 1.3 3.48 1.494c1.411.19 3.22.19 5.529.19H22a.75.75 0 0 0 0-1.5H12c-2.378 0-4.086-.002-5.386-.176c-1.279-.172-2.05-.5-2.62-1.069c-.569-.57-.896-1.34-1.068-2.619c-.174-1.3-.176-3.008-.176-5.386z"/><path fill="currentColor" d="M19.588 14.534a.75.75 0 1 1-1.175.932l-3.118-3.926c-.245-.309-.406-.51-.539-.656c-.13-.143-.19-.183-.218-.198a.75.75 0 0 0-.678-.014c-.028.013-.09.05-.227.187c-.138.14-.308.335-.566.633l-.017.018c-.237.274-.44.508-.62.688a2.3 2.3 0 0 1-.64.483a2.25 2.25 0 0 1-2.035-.044a2.3 2.3 0 0 1-.62-.51c-.17-.188-.363-.43-.589-.715L5.413 7.466a.75.75 0 0 1 1.174-.932l3.119 3.926c.245.309.406.51.538.656c.13.143.19.183.218.198a.75.75 0 0 0 .678.014c.029-.013.091-.05.227-.187c.139-.14.308-.335.567-.633l.016-.018c.238-.274.44-.508.62-.688c.185-.187.389-.362.64-.483a2.25 2.25 0 0 1 2.035.044c.247.132.442.316.62.51c.17.188.363.43.59.715z"/></svg>