<svg viewBox="0 0 24 24"><path fill="currentColor" fill-rule="evenodd" d="M8.989 5.308a7.25 7.25 0 0 1 13.109 6.202c-.11.239-.131.465-.082.647l.127.476c.408 1.524-.986 2.918-2.51 2.51l-.476-.127a.9.9 0 0 0-.467.015a8.75 8.75 0 0 1-12.464 6.865a.92.92 0 0 0-.633-.081l-1.226.328c-1.524.408-2.918-.986-2.51-2.51l.328-1.226a.92.92 0 0 0-.081-.633A8.75 8.75 0 0 1 8.989 5.308m1.746-.028a8.75 8.75 0 0 1 8.001 8.222a2.3 2.3 0 0 1 .808.065l.476.127a.55.55 0 0 0 .674-.674l-.127-.476c-.157-.587-.055-1.173.166-1.658a5.75 5.75 0 0 0-9.998-5.606M10 6.75a7.25 7.25 0 0 0-6.543 10.376a2.42 2.42 0 0 1 .177 1.668l-.328 1.226a.55.55 0 0 0 .673.674l1.227-.328a2.42 2.42 0 0 1 1.668.177A7.25 7.25 0 1 0 10 6.75" clip-rule="evenodd"/><path fill="currentColor" d="M7.5 14a1 1 0 1 1-2 0a1 1 0 0 1 2 0m3.5 0a1 1 0 1 1-2 0a1 1 0 0 1 2 0m3.5 0a1 1 0 1 1-2 0a1 1 0 0 1 2 0"/></svg>