<svg viewBox="0 0 24 24"><g fill="none"><path fill="currentColor" d="m10.87 21.51l.645.382zm.259-.438l-.646-.382zm-2.258 0l.646-.382zm.26.438l-.646.382zm-6.827-4.38l.693-.286zm3.985 2.455l.024-.75zm-1.82-.29l-.287.693zm13.226-2.164l.693.287zm-3.984 2.454l-.024-.75zm1.82-.29l.287.693zM16.09 6.59l.392-.639zm1.32 1.321l.64-.392zM3.91 6.59l-.392-.64zM2.59 7.91l-.64-.392zm5.326 11.912l-.381.646zm3.599 2.07l.26-.438l-1.292-.764l-.26.438zm-3.29-.438l.26.438l1.291-.764l-.26-.438zm1.999-.326a.25.25 0 0 1-.224.122a.25.25 0 0 1-.224-.122l-1.29.764c.676 1.144 2.352 1.144 3.029 0zM8.8 6.75h2.4v-1.5H8.8zm8.45 6.05v.8h1.5v-.8zm-14.5.8v-.8h-1.5v.8zm-1.5 0c0 .922 0 1.65.04 2.24c.04.596.125 1.104.322 1.578l1.385-.574c-.108-.261-.175-.587-.21-1.106c-.037-.527-.037-1.196-.037-2.138zm5.063 5.235c-.792-.025-1.223-.094-1.557-.232l-.574 1.385c.597.248 1.255.32 2.083.347zm-4.701-1.417a4.75 4.75 0 0 0 2.57 2.57l.574-1.385a3.25 3.25 0 0 1-1.759-1.76zM17.25 13.6c0 .942 0 1.611-.036 2.138c-.036.52-.103.845-.211 1.106l1.385.574c.197-.474.281-.982.322-1.578c.04-.59.04-1.318.04-2.24zm-3.515 6.735c.828-.027 1.486-.1 2.083-.347l-.574-1.385c-.335.138-.765.207-1.557.232zm3.268-3.491a3.25 3.25 0 0 1-1.76 1.759l.575 1.385a4.75 4.75 0 0 0 2.57-2.57zM11.2 6.75c1.324 0 2.264 0 2.995.07c.72.069 1.16.199 1.503.409l.784-1.279c-.619-.38-1.315-.544-2.145-.623c-.818-.078-1.842-.077-3.137-.077zm7.55 6.05c0-1.295 0-2.319-.077-3.137c-.079-.83-.244-1.526-.623-2.145l-1.279.784c.21.343.34.783.409 1.503c.07.73.07 1.671.07 2.995zm-3.052-5.571a3.25 3.25 0 0 1 1.073 1.073l1.279-.784a4.75 4.75 0 0 0-1.568-1.568zM8.8 5.25c-1.295 0-2.319 0-3.137.077c-.83.079-1.526.244-2.145.623l.784 1.279c.343-.21.783-.34 1.503-.409c.73-.07 1.671-.07 2.995-.07zM2.75 12.8c0-1.324 0-2.264.07-2.995c.069-.72.199-1.16.409-1.503L1.95 7.518c-.38.619-.544 1.315-.623 2.145c-.078.818-.077 1.842-.077 3.137zm.768-6.85A4.75 4.75 0 0 0 1.95 7.518l1.279.784a3.25 3.25 0 0 1 1.073-1.073zm5.999 14.74c-.201-.34-.377-.638-.548-.874a2.2 2.2 0 0 0-.67-.64l-.764 1.292c.046.027.11.077.22.23c.12.165.256.393.47.756zm-3.252-.355c.446.014.73.024.947.05c.204.025.281.058.323.083l.763-1.291c-.29-.171-.594-.243-.905-.28c-.298-.037-.661-.048-1.08-.062zm5.51 1.119c.214-.363.35-.591.47-.756c.11-.153.174-.203.22-.23l-.763-1.291a2.2 2.2 0 0 0-.67.64c-.172.235-.348.534-.549.873zm1.912-2.619c-.419.014-.782.025-1.08.061c-.31.038-.616.11-.905.28l.763 1.292c.042-.025.119-.058.323-.083c.216-.026.501-.036.947-.05z"/><path fill="currentColor" d="m21.715 12.435l.692.287zm-2.03 2.03l.287.693zm.524-11.912l-.392.64zm1.238 1.238l.64-.392zM8.791 2.553l-.392-.64zM7.553 3.79l-.64-.392zm5.822-1.041h2.25v-1.5h-2.25zm7.875 5.625v.75h1.5v-.75zm0 .75c0 .884 0 1.51-.034 2c-.033.486-.096.785-.194 1.023l1.385.574c.187-.451.267-.933.305-1.494c.038-.554.038-1.24.038-2.103zm-.228 3.023a3 3 0 0 1-1.624 1.624l.574 1.386a4.5 4.5 0 0 0 2.435-2.436zM15.625 2.75c1.242 0 2.12 0 2.804.066c.671.064 1.075.184 1.388.376l.784-1.279c-.588-.36-1.249-.516-2.03-.59c-.77-.074-1.733-.073-2.946-.073zm7.125 5.625c0-1.213 0-2.175-.073-2.946c-.074-.781-.23-1.442-.59-2.03l-1.28.784c.193.313.313.717.377 1.388c.065.683.066 1.562.066 2.804zm-2.933-5.183a3 3 0 0 1 .99.99l1.28-.783A4.5 4.5 0 0 0 20.6 1.913zM13.375 1.25c-1.213 0-2.175 0-2.946.072c-.781.075-1.442.23-2.03.591l.783 1.28c.314-.193.718-.313 1.39-.377c.682-.065 1.56-.066 2.803-.066zm-4.976.663A4.5 4.5 0 0 0 6.913 3.4l1.279.784a3 3 0 0 1 .99-.99zM7.782 6.04c.05-.96.175-1.473.41-1.856L6.913 3.4c-.437.713-.576 1.538-.629 2.562zm10.243 9.446c.767-.026 1.384-.094 1.947-.327l-.574-1.386c-.302.125-.694.19-1.423.214z" opacity=".5"/><path stroke="currentColor" stroke-linecap="round" stroke-linejoin="round" stroke-width="2" d="M6.51 13h.008M10 13h.009m3.482 0h.009" opacity=".5"/></g></svg>