<svg viewBox="0 0 24 24"><path fill="currentColor" d="M22 8.5a6.5 6.5 0 0 0-11.626-3.993A9.5 9.5 0 0 1 19.5 14q0 .165-.006.33l.333.088a1.3 1.3 0 0 0 1.592-1.591l-.128-.476c-.103-.385-.04-.791.125-1.153A6.5 6.5 0 0 0 22 8.5"/><path fill="currentColor" fill-rule="evenodd" d="M18 14a8 8 0 0 1-11.45 7.22a1.67 1.67 0 0 0-1.15-.13l-1.227.329a1.3 1.3 0 0 1-1.591-1.592L2.91 18.6a1.67 1.67 0 0 0-.13-1.15A8 8 0 1 1 18 14M6.5 15a1 1 0 1 0 0-2a1 1 0 0 0 0 2m3.5 0a1 1 0 1 0 0-2a1 1 0 0 0 0 2m3.5 0a1 1 0 1 0 0-2a1 1 0 0 0 0 2" clip-rule="evenodd"/></svg>