<svg viewBox="0 0 24 24"><path fill="currentColor" fill-rule="evenodd" d="M12.438 21.222a.6.6 0 0 1-.438-.03a.52.52 0 0 1-.28-.33l-.476-1.834a8.4 8.4 0 0 0-.72-1.844c-.485-.907-1.218-1.604-1.898-2.19l-1.438-1.24a.92.92 0 0 1-.315-.774l.812-9.392a.916.916 0 0 1 .911-.838h4.649c3.136 0 5.779 2.182 6.286 5.113l.705 4.08a.916.916 0 0 1-.901 1.073h-5.181c-.977 0-1.72.876-1.562 1.84l.663 4.044c.09.554.065 1.12-.076 1.664a.89.89 0 0 1-.596.611zl.23.714zm-1.09 1.321a2.1 2.1 0 0 0 1.549.107l.145-.047l-.23-.714l.23.714a2.38 2.38 0 0 0 1.589-1.662a5.5 5.5 0 0 0 .104-2.284l-.663-4.044a.083.083 0 0 1 .082-.097h5.18c1.5 0 2.636-1.352 2.38-2.829l-.705-4.08C20.37 3.92 17.07 1.25 13.245 1.25H8.596c-1.253 0-2.297.96-2.405 2.208l-.813 9.393a2.42 2.42 0 0 0 .83 2.04l1.44 1.24c.655.564 1.206 1.111 1.552 1.76c.257.48.456.988.592 1.514l.476 1.833a2.01 2.01 0 0 0 1.08 1.305m-8.38-8.028a.75.75 0 0 0 .78-.685l.97-11.236a1.237 1.237 0 1 0-2.468-.107v11.279a.75.75 0 0 0 .718.75" clip-rule="evenodd"/></svg>