<svg viewBox="0 0 24 24"><path fill="currentColor" d="m20.27 8.485l.705 4.08a1.666 1.666 0 0 1-1.64 1.95h-5.181a.833.833 0 0 0-.822.969l.663 4.045a4.8 4.8 0 0 1-.09 1.974c-.139.533-.55.962-1.092 1.136l-.145.047c-.328.105-.685.08-.994-.068a1.26 1.26 0 0 1-.68-.818l-.476-1.834a7.6 7.6 0 0 0-.656-1.679c-.415-.777-1.057-1.4-1.725-1.975l-1.439-1.24a1.67 1.67 0 0 1-.572-1.406l.812-9.393A1.666 1.666 0 0 1 8.597 2.75h4.648c3.482 0 6.453 2.426 7.025 5.735"/><path fill="currentColor" fill-rule="evenodd" d="M2.968 15.265a.75.75 0 0 0 .78-.685l.97-11.236a1.237 1.237 0 1 0-2.468-.107v11.279a.75.75 0 0 0 .718.75" clip-rule="evenodd"/></svg>