<svg viewBox="0 0 24 24"><path fill="currentColor" d="M1.75 10v4c0 2.829 0 4.243.879 5.122c.217.217.467.38.763.504l-.019-.134c-.123-.918-.123-2.063-.123-3.393V7.902c0-1.33 0-2.476.123-3.393l.02-.134a2.3 2.3 0 0 0-.764.504C1.75 5.758 1.75 7.172 1.75 10m20 0v4c0 2.829 0 4.243-.879 5.122c-.217.217-.467.38-.763.504l.019-.134c.123-.918.123-2.063.123-3.393V7.902c0-1.33 0-2.476-.123-3.393l-.02-.134c.297.123.547.287.764.504c.879.879.879 2.293.879 5.121"/><path fill="currentColor" fill-rule="evenodd" d="M5.629 2.879C4.75 3.757 4.75 5.172 4.75 8v8c0 2.828 0 4.243.879 5.121C6.507 22 7.922 22 10.75 22h2c2.828 0 4.243 0 5.121-.879c.879-.878.879-2.293.879-5.121V8c0-2.828 0-4.243-.879-5.121C16.993 2 15.578 2 12.75 2h-2c-2.828 0-4.243 0-5.121.879M8 17a.75.75 0 0 1 .75-.75h3a.75.75 0 0 1 0 1.5h-3A.75.75 0 0 1 8 17m.75-4.75a.75.75 0 0 0 0 1.5h6a.75.75 0 0 0 0-1.5zM8 9a.75.75 0 0 1 .75-.75h6a.75.75 0 0 1 0 1.5h-6A.75.75 0 0 1 8 9" clip-rule="evenodd"/></svg>