<svg viewBox="0 0 24 24"><path fill="currentColor" fill-rule="evenodd" d="M10.944 1.25h2.112c1.838 0 3.294 0 4.433.153c1.172.158 2.121.49 2.87 1.238a.75.75 0 0 1-1.06 1.06c-.424-.422-1.004-.676-2.01-.811c-1.027-.138-2.382-.14-4.289-.14h-2c-1.907 0-3.261.002-4.29.14c-1.005.135-1.585.389-2.008.812S4.025 4.705 3.89 5.71c-.138 1.029-.14 2.383-.14 4.29v4c0 1.907.002 3.262.14 4.29c.135 1.005.389 1.585.812 2.008s1.003.677 2.009.812c1.028.138 2.382.14 4.289.14h2c1.907 0 3.262-.002 4.29-.14c1.005-.135 1.585-.389 2.008-.812c.696-.696.907-1.777.943-4.309a.75.75 0 0 1 1.5.022c-.035 2.427-.192 4.158-1.382 5.348c-.749.748-1.698 1.08-2.87 1.238c-1.14.153-2.595.153-4.433.153h-2.112c-1.838 0-3.294 0-4.433-.153c-1.172-.158-2.121-.49-2.87-1.238c-.748-.749-1.08-1.698-1.238-2.87c-.153-1.14-.153-2.595-.153-4.433V9.944c0-1.838 0-3.294.153-4.433c.158-1.172.49-2.121 1.238-2.87c.749-.748 1.698-1.08 2.87-1.238c1.14-.153 2.595-.153 4.433-.153m7.17 5.796a2.716 2.716 0 1 1 3.84 3.84L17.2 15.643a7 7 0 0 1-.63.587q-.346.27-.744.46c-.224.107-.46.185-.806.3l-2.084.695a1.28 1.28 0 0 1-1.62-1.62l.681-2.04l.014-.043c.116-.347.194-.582.301-.806a4 4 0 0 1 .46-.744c.153-.196.328-.371.587-.63l.031-.031zm2.78 1.06a1.216 1.216 0 0 0-1.72 0l-.182.182l.034.107c.094.27.273.63.611.968a2.55 2.55 0 0 0 1.075.645l.182-.182a1.216 1.216 0 0 0 0-1.72m-1.328 3.048a4 4 0 0 1-.99-.73a4 4 0 0 1-.73-.99L14.45 12.83c-.301.301-.407.409-.496.523q-.17.218-.289.467c-.062.131-.111.274-.246.678l-.4 1.2l.283.283l1.2-.4c.404-.135.547-.184.678-.246q.248-.12.467-.289c.114-.089.222-.195.523-.496zM7.25 9A.75.75 0 0 1 8 8.25h6.5a.75.75 0 0 1 0 1.5H8A.75.75 0 0 1 7.25 9m0 4a.75.75 0 0 1 .75-.75h2.5a.75.75 0 0 1 0 1.5H8a.75.75 0 0 1-.75-.75m0 4a.75.75 0 0 1 .75-.75h1.5a.75.75 0 0 1 0 1.5H8a.75.75 0 0 1-.75-.75" clip-rule="evenodd"/></svg>