<svg viewBox="0 0 24 24"><path fill="currentColor" d="M3 10c0-3.771 0-5.657 1.172-6.828C5.343 2 7.229 2 11 2h2c3.771 0 5.657 0 6.828 1.172C21 4.343 21 6.229 21 10v4c0 3.771 0 5.657-1.172 6.828C18.657 22 16.771 22 13 22h-2c-3.771 0-5.657 0-6.828-1.172C3 19.657 3 17.771 3 14z" opacity=".5"/><path fill="currentColor" fill-rule="evenodd" d="M7.25 10A.75.75 0 0 1 8 9.25h8a.75.75 0 0 1 0 1.5H8a.75.75 0 0 1-.75-.75m0 4a.75.75 0 0 1 .75-.75h5a.75.75 0 0 1 0 1.5H8a.75.75 0 0 1-.75-.75" clip-rule="evenodd"/></svg>