<svg viewBox="0 0 24 24"><path fill="currentColor" d="M18.677 14.531c.493-.492.802-.781 1.476-.781c.594 0 1.134.237 1.582.547C20.697 18.713 16.732 22 12 22c-4.532 0-8.36-3.015-9.588-7.15c.825.454 1.889.9 2.92.9c.813 0 1.635-.277 2.325-.598a11.4 11.4 0 0 0 1.422-.8A3.74 3.74 0 0 0 12 15.75c.752 0 1.452-.221 2.039-.602c.574.337 1.285.602 2.104.602c1.313 0 2.006-.691 2.513-1.198z"/><path fill="currentColor" d="M9.75 12a2.25 2.25 0 1 1 4.5 0a2.25 2.25 0 0 1-4.5 0"/><path fill="currentColor" fill-rule="evenodd" d="M12 8.25a3.75 3.75 0 0 0-3.612 4.76c-.379.256-.855.546-1.363.782c-.604.28-1.194.458-1.693.458c-.76 0-1.694-.407-2.513-.894c-.3-.179-.568-.358-.784-.512Q2 12.426 2 12a9.98 9.98 0 0 1 3.417-7.528q.024.03.053.058l1 1a.75.75 0 0 0 1.06-1.06l-.904-.905A9.95 9.95 0 0 1 12 2a9.98 9.98 0 0 1 7.528 3.417l-.058.053l-1 1a.75.75 0 0 0 1.06 1.06l.905-.904a9.95 9.95 0 0 1 1.54 6.073a4.04 4.04 0 0 0-1.822-.449c-1.314 0-2.006.691-2.514 1.198l-.021.021c-.493.492-.802.781-1.475.781c-.35 0-.683-.082-.992-.216A3.75 3.75 0 0 0 12 8.25m4.45-3.85a.75.75 0 0 1 .15 1.05l-1.5 2a.75.75 0 1 1-1.2-.9l1.5-2a.75.75 0 0 1 1.05-.15m-5.98-.93a.75.75 0 0 0 0 1.06l1 1a.75.75 0 1 0 1.06-1.06l-1-1a.75.75 0 0 0-1.06 0M8.41 7.56a.75.75 0 0 0 .918.53l1.366-.366a.75.75 0 1 0-.388-1.448l-1.366.366a.75.75 0 0 0-.53.918m8.342 3.578a.75.75 0 0 0 .713-.784L17.4 8.94a.75.75 0 1 0-1.498.07l.066 1.413a.75.75 0 0 0 .784.714m2.19.416A.75.75 0 0 0 20 11.62l1.173-.973a.75.75 0 1 0-.991-1.126l-1.173.973a.75.75 0 0 0-.068 1.059M5.896 7.174a.75.75 0 0 0-.373.993l.586 1.287a.75.75 0 1 0 1.365-.62L6.89 7.545a.75.75 0 0 0-.993-.372m1.046 3.72a.75.75 0 0 1 .162 1.05l-.835 1.14a.75.75 0 1 1-1.21-.886l.835-1.14a.75.75 0 0 1 1.048-.163M3.563 8.19a.75.75 0 0 0-.708.79l.079 1.412a.75.75 0 1 0 1.498-.083l-.08-1.412a.75.75 0 0 0-.79-.707" clip-rule="evenodd"/></svg>