<svg viewBox="0 0 24 24"><path fill="currentColor" d="M12 2C6.477 2 2 6.477 2 12q0 .531.054 1.048C2.404 13.352 4.367 15 6 15c1.212 0 2.606-.908 3.387-1.5l.01-.009a3 3 0 1 1 4.61.739c.47.412 1.084.77 1.798.77c1.69 0 1.69-2 3.38-2c1.077 0 1.925.814 2.399 1.403l.092.132c.211-.81.324-1.659.324-2.535c0-5.523-4.477-10-10-10" opacity=".5"/><path fill="currentColor" d="M9.388 13.5C8.607 14.092 7.212 15 6 15c-1.633 0-3.596-1.648-3.945-1.952C2.579 18.078 6.832 22 12 22c4.647 0 8.554-3.17 9.676-7.465l-.092-.132c-.473-.59-1.322-1.403-2.4-1.403c-1.689 0-1.689 2-3.378 2c-.714 0-1.328-.357-1.798-.77a3 3 0 0 1-4.61-.739zm10.14-8.083l-.058.053l-1 1a.75.75 0 1 0 1.06 1.06l.905-.904q-.409-.64-.907-1.209M5.417 4.472q.025.03.053.058l1 1a.75.75 0 0 0 1.06-1.06l-.904-.905q-.64.41-1.209.907m5.053.058a.75.75 0 1 1 1.06-1.06l1 1a.75.75 0 1 1-1.06 1.06zm6.13.92a.75.75 0 1 0-1.2-.9l-1.5 2a.75.75 0 0 0 1.2.9zM8.41 7.56a.75.75 0 0 0 .918.53l1.366-.366a.75.75 0 1 0-.388-1.448l-1.366.366a.75.75 0 0 0-.53.918m9.056 2.794a.75.75 0 1 1-1.499.07l-.066-1.412a.75.75 0 0 1 1.498-.07zm.971 1.705a.75.75 0 0 0 1.059.067l1.678-1.478a.75.75 0 1 0-.992-1.126L18.504 11a.75.75 0 0 0-.067 1.059M5.525 8.167a.75.75 0 1 1 1.365-.62l.585 1.286a.75.75 0 1 1-1.365.621z"/><path fill="currentColor" d="M6.943 10.895a.75.75 0 0 1 .162 1.048l-.835 1.141a.75.75 0 1 1-1.21-.886l.835-1.14a.75.75 0 0 1 1.048-.163M2.856 8.98a.75.75 0 0 1 1.497-.084l.079 1.412a.75.75 0 0 1-1.498.083z"/></svg>