<svg viewBox="0 0 24 24"><g fill="none" stroke="currentColor" stroke-width="1.5"><path stroke-linecap="round" d="M19 15.883V8c0-1.886 0-2.828-.586-3.414S16.886 4 15 4H9c-1.886 0-2.828 0-3.414.586S5 6.114 5 8v7.883c0 .76.32 1.487.88 2.001a9.053 9.053 0 0 0 12.24 0c.56-.514.88-1.24.88-2ZM19 8h-2m2 6h-2"/><path d="M14 11.917c0 1.15-.895 2.083-2 2.083s-2-.933-2-2.083c0-.72.783-1.681 1.37-2.3a.86.86 0 0 1 1.26 0c.587.619 1.37 1.58 1.37 2.3Z"/><path stroke-linecap="round" d="M19 11h-2m-5 10v1m2-18a2 2 0 1 0-4 0"/></g></svg>