<svg viewBox="0 0 24 24"><path fill="currentColor" d="M19 15.883V8c0-1.886 0-2.828-.586-3.414S16.886 4 15 4H9c-1.886 0-2.828 0-3.414.586S5 6.114 5 8v7.883c0 .76.32 1.487.88 2.001a9.053 9.053 0 0 0 12.24 0c.56-.514.88-1.24.88-2" opacity=".5"/><path fill="currentColor" d="M18.998 7.25H17a.75.75 0 0 0 0 1.5h2V8q0-.403-.002-.75m.002 3h-2a.75.75 0 0 0 0 1.5h2zm0 3h-2a.75.75 0 0 0 0 1.5h2zM14 4a2 2 0 1 0-4 0zm-2.75 16.235q.75.063 1.5 0v1.015a.75.75 0 0 1-1.5 0z"/><path fill="currentColor" fill-rule="evenodd" d="M9.25 16a.75.75 0 0 1 .75-.75h4a.75.75 0 0 1 0 1.5h-4a.75.75 0 0 1-.75-.75" clip-rule="evenodd"/><path fill="currentColor" d="M14 10.917c0 1.15-.895 2.083-2 2.083s-2-.933-2-2.083c0-.72.783-1.681 1.37-2.3a.86.86 0 0 1 1.26 0c.587.619 1.37 1.58 1.37 2.3"/></svg>