<svg viewBox="0 0 24 24"><path fill="currentColor" d="m6.044 7.089l.09-.745zm2.941.354l-.09.744zm1.638 3.496l.638.396zm-2.579.545l.09-.745a.75.75 0 0 0-.832.64zm1.68.096l-.181-.727zm.544-3.877l.353-.662zm.693.832l-.72.21zm-7.128-.857l-.637-.396zm.9-.642L4.55 6.31zm-1.237 3.046l-.72.21zm2.343 1.136l.743.104a.75.75 0 0 0-.653-.848zm-1.65-.304l.352-.662zm2.767 10.997l-.09.745zm-2.941-.354l.09-.744zm5.433-1.423l.742.104zm-.281 1.188l-.637-.395zm-.9.642l.183.727zm-1.106-4.182l-.743-.105a.75.75 0 0 0 .653.85zm1.65.304l.353-.662zm.693.832l-.72.21zm-7.408.331l.743.105zm.28-1.188l-.637-.396zm2.58-.545l-.09.745a.75.75 0 0 0 .832-.64zm-1.68-.096l-.182-.728zm-1.237 3.045l-.72.21zm.693.832l-.353.662zM5.955 7.834l2.94.353l.18-1.489l-2.941-.354zm4.206 1.813a10 10 0 0 1-.109.689a.7.7 0 0 1-.066.208l1.275.79c.137-.22.208-.452.258-.682c.047-.221.085-.49.128-.797zm-2.206 2.581c.338.041.704.085 1.023.11c.28.02.65.04.928-.03l-.363-1.455c.016-.004-.01.003-.11.004q-.133 0-.341-.015c-.28-.022-.61-.061-.958-.103zm2.031-1.684a.72.72 0 0 1-.443.309l.363 1.455a2.22 2.22 0 0 0 1.355-.973zm-1.09-2.357c.351.043.58.07.755.103a1 1 0 0 1 .265.075l.705-1.324a2.4 2.4 0 0 0-.697-.226c-.232-.043-.516-.077-.85-.117zm2.75 1.668c.044-.306.082-.576.097-.802a2.1 2.1 0 0 0-.062-.727l-1.44.419c.003.013.015.06.005.21c-.01.157-.039.363-.085.692zm-1.73-1.49a.64.64 0 0 1 .325.38l1.44-.42a2.14 2.14 0 0 0-1.06-1.284zm-5.62.605c.045-.328.075-.534.108-.689a.7.7 0 0 1 .066-.208l-1.274-.79a2.1 2.1 0 0 0-.258.682c-.048.22-.085.49-.128.797zm1.838-2.626c-.333-.04-.617-.074-.853-.088a2.4 2.4 0 0 0-.73.053l.363 1.455a1 1 0 0 1 .282-.01c.177.01.407.037.759.08zM4.47 8.074a.72.72 0 0 1 .444-.31L4.55 6.31c-.557.14-1.05.482-1.354.973zm-1.66.688c-.043.306-.082.576-.096.802c-.016.233-.011.476.062.727l1.44-.42a.7.7 0 0 1-.006-.209c.01-.157.04-.363.085-.692zm3.119 1.712a23 23 0 0 1-.954-.127a4 4 0 0 1-.335-.067c-.095-.024-.117-.037-.1-.028l-.704 1.324c.254.136.619.205.894.25c.315.052.681.096 1.02.137zm-3.153-.183a2.14 2.14 0 0 0 1.06 1.285l.705-1.324a.64.64 0 0 1-.325-.38zm4.27 10.875l-2.941-.353l-.18 1.489l2.941.354zm1.659-1.136c-.046.328-.076.534-.11.689a.7.7 0 0 1-.065.208l1.274.79a2.1 2.1 0 0 0 .258-.682c.048-.22.085-.49.128-.797zm-1.839 2.626c.333.04.617.074.853.088c.242.013.484.009.73-.053l-.363-1.455a1 1 0 0 1-.282.01c-.177-.01-.407-.037-.759-.08zm1.664-1.73a.72.72 0 0 1-.444.31l.364 1.455a2.22 2.22 0 0 0 1.354-.973zm-1.459-2.4c.348.042.679.082.954.128q.207.033.335.066c.095.024.117.037.1.028l.704-1.324c-.254-.136-.619-.205-.894-.25c-.315-.052-.681-.096-1.02-.137zm3.12 1.712c.042-.306.08-.576.095-.802a2.1 2.1 0 0 0-.062-.727l-1.44.42a.6.6 0 0 1 .006.209c-.01.157-.04.363-.085.692zm-1.732-1.49a.64.64 0 0 1 .325.38l1.44-.42a2.14 2.14 0 0 0-1.06-1.284zm-5.62.605c.046-.328.075-.534.109-.689a.7.7 0 0 1 .066-.208l-1.275-.79a2.1 2.1 0 0 0-.258.682c-.047.221-.085.49-.128.797zm2.206-2.581a26 26 0 0 0-1.022-.11c-.281-.02-.65-.04-.93.03l.364 1.455c-.016.004.01-.003.11-.004q.133 0 .341.015c.28.021.61.061.958.103zm-2.031 1.684a.72.72 0 0 1 .443-.309l-.363-1.455c-.558.14-1.05.482-1.355.973zm-1.66.69c-.044.305-.082.575-.097.8c-.015.234-.01.477.062.728l1.44-.419a.7.7 0 0 1-.005-.21c.01-.157.039-.363.085-.692zm2.75 1.667c-.351-.043-.58-.07-.755-.103a1 1 0 0 1-.265-.075L2.38 21.96c.225.12.46.182.697.226c.232.043.516.077.85.117zm-2.785-.139a2.14 2.14 0 0 0 1.06 1.285l.705-1.323a.64.64 0 0 1-.325-.381zm4.38-3.053l.883-6.298l-1.486-.209l-.883 6.298zm1.603-6.241l-.884 6.297l1.486.209l.883-6.298zm10.272 5.403l-.187-.727zm2.711-.7l.188.727zm1.065-3.607l.587-.468zm-2.493-.22l-.723.2a.75.75 0 0 0 .91.526zm1.563-.297l.094-.744zm1.034 3.716l.446.604zm.538-.895l.743.101zm-6.573 1.695l-.586.467zm.93.517l-.093.744zm-1.57-2.82l-.744-.103zm2.044-1.392l.188.726a.75.75 0 0 0 .535-.927zm-1.508.496l-.445-.604zm1.11-11.059l.188.727zm-2.71.7l-.188-.727zm5.29.733l-.723.202zm-.424-1.125l-.587.468zm-.93-.517l.093-.744zm-.474 4.212l-.188-.726a.75.75 0 0 0-.535.927zm1.508-.496l.445.604zm.537-.895l-.743-.102zm-6.996.57l-.723.2zm.424 1.125l.586-.467zm2.493.22l.723-.2a.75.75 0 0 0-.91-.526zm-1.563.297l.094-.744zm-1.572-2.82l.743.1zm.538-.896L12.1 2.72zm5.215 14.184l2.712-.7l-.375-1.452l-2.711.7zm4.736-4.109c-.082-.294-.153-.552-.228-.76a2.1 2.1 0 0 0-.332-.632l-1.173.935a.7.7 0 0 1 .092.199c.053.148.108.346.196.66zm-3.453-.418c.32-.083.624-.161.882-.215q.192-.04.313-.055c.09-.011.11-.006.087-.01l.188-1.487c-.283-.036-.637.03-.897.084c-.297.062-.636.15-.948.23zm2.893-.974a2.17 2.17 0 0 0-1.423-.793l-.188 1.488a.67.67 0 0 1 .438.24zm-1.464 4.802c.306-.08.571-.147.786-.218c.22-.073.44-.164.641-.313l-.891-1.207a.8.8 0 0 1-.22.095c-.157.052-.365.106-.69.19zm.579-3.008c.087.315.142.513.173.666c.03.147.025.196.024.21l1.486.203a2.1 2.1 0 0 0-.04-.712c-.044-.217-.117-.475-.198-.769zm.848 2.477a2.1 2.1 0 0 0 .835-1.398l-1.486-.203a.6.6 0 0 1-.24.394zm-7.627-.728c.082.294.153.551.228.76c.077.217.174.433.332.631l1.173-.935a.7.7 0 0 1-.092-.198a11 11 0 0 1-.196-.66zm3.114.505c-.326.084-.535.138-.697.169a.8.8 0 0 1-.246.023l-.188 1.488c.248.031.483.006.712-.038c.223-.041.487-.11.793-.19zm-2.554.886c.351.441.865.723 1.423.794l.188-1.488a.67.67 0 0 1-.438-.24zm.885-1.793a11 11 0 0 1-.173-.666a.7.7 0 0 1-.024-.21l-1.486-.204c-.034.252-.006.489.04.713c.044.217.116.475.198.769zm.918-3.095c-.311.08-.65.168-.94.257a5 5 0 0 0-.421.146a1.8 1.8 0 0 0-.405.215l.89 1.207c-.02.016-.008.003.077-.032q.111-.045.299-.102c.25-.077.554-.156.875-.239zm-1.115 2.219a.6.6 0 0 1 .24-.394l-.891-1.207a2.1 2.1 0 0 0-.835 1.397zM16.24 1.49l-2.712.7l.375 1.452l2.711-.7zm3.488 1.958c-.082-.294-.153-.551-.228-.76a2.1 2.1 0 0 0-.332-.631l-1.173.935a.7.7 0 0 1 .092.198c.053.148.108.346.196.66zm-3.114-.505c.326-.084.535-.138.697-.169a.8.8 0 0 1 .246-.023l.188-1.488a2.3 2.3 0 0 0-.712.037c-.223.042-.487.111-.793.19zm2.554-.886a2.17 2.17 0 0 0-1.423-.794l-.188 1.488a.67.67 0 0 1 .438.24zm-1.803 4.888c.311-.08.65-.168.94-.257c.146-.044.291-.093.422-.146c.12-.048.272-.118.404-.215l-.89-1.207c.02-.016.008-.003-.077.032q-.111.045-.299.102c-.25.077-.554.156-.875.239zm.918-3.094c.087.314.142.512.173.666c.03.146.026.195.024.21l1.486.203a2.1 2.1 0 0 0-.04-.713c-.044-.217-.116-.475-.198-.769zm.848 2.476c.454-.335.758-.836.835-1.397l-1.486-.204a.6.6 0 0 1-.24.394zM11.503 5.6c.082.294.153.552.228.76c.077.217.174.433.332.632l1.173-.935a.7.7 0 0 1-.092-.199a11 11 0 0 1-.196-.66zm3.453.418c-.32.083-.624.161-.882.215a4 4 0 0 1-.313.055c-.09.011-.11.006-.087.01l-.188 1.487c.283.036.637-.03.897-.084c.297-.062.636-.15.948-.23zm-2.893.974c.352.44.865.722 1.423.793l.188-1.488a.67.67 0 0 1-.438-.24zm.885-1.794a11 11 0 0 1-.173-.666a.7.7 0 0 1-.024-.21l-1.486-.203c-.034.252-.006.488.04.712c.044.217.117.475.198.769zm.58-3.008c-.307.08-.572.147-.787.218c-.22.073-.44.164-.641.313l.891 1.207a.8.8 0 0 1 .22-.095c.156-.052.365-.106.69-.19zm-.777 2.132a.6.6 0 0 1 .24-.394L12.1 2.721a2.1 2.1 0 0 0-.835 1.398zm1.67 2.624l1.68 6.035l1.445-.402l-1.68-6.036zm5.158 5.109L17.9 6.019l-1.445.402l1.68 6.036z"/></svg>