<svg viewBox="0 0 24 24"><path fill="currentColor" fill-rule="evenodd" d="m3.432 15.62l4.949 4.948c.904.905 1.356 1.357 1.908 1.421q.185.023.371 0c.552-.064 1.004-.516 1.908-1.42c.905-.905 1.357-1.357 1.421-1.909a1.6 1.6 0 0 0 0-.37c-.064-.553-.516-1.005-1.42-1.91l-1.113-1.111l-3.103-3.104l-.734-.733c-.904-.905-1.356-1.357-1.908-1.421a1.6 1.6 0 0 0-.371 0c-.552.064-1.004.516-1.908 1.42c-.905.905-1.357 1.357-1.421 1.909a1.6 1.6 0 0 0 0 .37c.064.553.516 1.005 1.42 1.91m8.733-7.267l3.104 3.104l1.112 1.111c.904.905 1.356 1.357 1.908 1.421q.186.023.371 0c.552-.064 1.004-.516 1.908-1.42c.905-.905 1.357-1.357 1.421-1.909a1.6 1.6 0 0 0 0-.37c-.064-.553-.516-1.005-1.42-1.91l-4.95-4.948c-.904-.905-1.356-1.357-1.908-1.421a1.6 1.6 0 0 0-.371 0c-.552.064-1.004.516-1.908 1.42c-.905.905-1.357 1.357-1.421 1.909a1.6 1.6 0 0 0 0 .37c.064.553.516 1.005 1.42 1.91z" clip-rule="evenodd"/><path fill="currentColor" d="m11.457 15.269l3.812-3.812l-3.104-3.104l-3.812 3.812z" opacity=".5"/><path fill="currentColor" fill-rule="evenodd" d="M17.489 1.968a.75.75 0 0 1 1.06 0l3.105 3.104a.75.75 0 0 1-1.061 1.06l-3.104-3.104a.75.75 0 0 1 0-1.06M1.968 17.488a.75.75 0 0 1 1.06 0l3.104 3.104a.75.75 0 0 1-1.06 1.06l-3.104-3.104a.75.75 0 0 1 0-1.06" clip-rule="evenodd" opacity=".5"/></svg>