<svg viewBox="0 0 24 24"><path fill="currentColor" d="M8.38 20.568L3.433 15.62c-.905-.904-1.357-1.356-1.421-1.908a1.6 1.6 0 0 1 0-.371c.064-.552.516-1.005 1.42-1.909c.905-.904 1.357-1.356 1.909-1.42q.186-.023.37 0c.553.064 1.005.516 1.91 1.42l.733.734l3.812-3.813l-.733-.733c-.905-.904-1.357-1.356-1.421-1.908a1.6 1.6 0 0 1 0-.371c.064-.552.516-1.004 1.42-1.909c.905-.904 1.357-1.356 1.909-1.42a1.6 1.6 0 0 1 .37 0c.553.064 1.005.516 1.91 1.42l4.948 4.95c.905.904 1.357 1.356 1.421 1.908q.023.186 0 .37c-.064.553-.516 1.005-1.42 1.91c-.905.903-1.357 1.355-1.909 1.42a1.6 1.6 0 0 1-.37 0c-.553-.065-1.005-.517-1.91-1.42l-1.111-1.113l-3.812 3.813l1.111 1.112c.905.904 1.357 1.356 1.421 1.908q.023.186 0 .37c-.064.553-.516 1.005-1.42 1.91c-.905.903-1.357 1.355-1.909 1.42a1.6 1.6 0 0 1-.37 0c-.553-.065-1.005-.517-1.91-1.42"/><path fill="currentColor" fill-rule="evenodd" d="M17.489 1.968a.75.75 0 0 1 1.06 0l3.104 3.104a.75.75 0 0 1-1.06 1.06l-3.105-3.104a.75.75 0 0 1 0-1.06M1.966 17.488a.75.75 0 0 1 1.06 0l3.105 3.104a.75.75 0 0 1-1.06 1.06l-3.105-3.104a.75.75 0 0 1 0-1.06" clip-rule="evenodd"/></svg>