<svg viewBox="0 0 24 24"><path fill="currentColor" fill-rule="evenodd" d="M13.624 2.756a1 1 0 0 0-.197 0c-.081.01-.202.047-.443.238c-.253.2-.557.503-1.022.968s-.767.769-.968 1.022c-.191.24-.229.362-.238.443a1 1 0 0 0 0 .197c.01.081.047.202.238.443c.2.253.503.557.968 1.022l4.949 4.95c.465.464.769.766 1.022.967c.241.191.362.229.443.238a1 1 0 0 0 .197 0c.081-.01.202-.047.443-.238c.253-.2.557-.503 1.022-.968s.767-.769.968-1.022c.191-.24.229-.362.238-.443a1 1 0 0 0 0-.197c-.01-.081-.047-.202-.238-.443c-.2-.253-.503-.557-.968-1.022l-4.949-4.95c-.465-.464-.769-.766-1.022-.967c-.241-.191-.362-.229-.443-.238m-.371-1.49q.273-.031.545 0c.47.055.852.276 1.201.553c.33.26.694.626 1.12 1.052l5.01 5.01c.426.426.791.79 1.052 1.12c.277.349.498.73.553 1.201q.032.272 0 .545c-.055.471-.276.852-.553 1.201c-.26.33-.626.694-1.052 1.121l-.06.06c-.427.426-.791.791-1.12 1.052c-.35.277-.731.498-1.202.553a2.3 2.3 0 0 1-.545 0c-.47-.055-.852-.276-1.201-.553c-.33-.26-.694-.626-1.12-1.052l-.612-.612l-2.752 2.752l.612.611c.426.427.791.792 1.052 1.12c.277.35.498.731.553 1.202q.032.273 0 .545c-.055.471-.276.852-.553 1.201c-.26.33-.626.694-1.052 1.121l-.06.06c-.427.426-.792.791-1.12 1.052c-.35.277-.731.498-1.202.553a2.3 2.3 0 0 1-.545 0c-.47-.055-.852-.276-1.201-.553c-.33-.26-.694-.626-1.12-1.052l-5.01-5.01c-.426-.426-.791-.79-1.052-1.12c-.277-.349-.498-.73-.553-1.201a2.4 2.4 0 0 1 0-.545c.055-.471.276-.852.553-1.201c.26-.33.626-.694 1.052-1.121l.06-.06c.427-.426.792-.791 1.12-1.052c.35-.277.731-.498 1.202-.553q.272-.032.545 0c.47.055.852.276 1.201.553c.33.26.694.626 1.12 1.052l.234.233l2.751-2.751l-.233-.233c-.426-.427-.791-.792-1.052-1.12c-.277-.35-.498-.731-.553-1.202a2.4 2.4 0 0 1 0-.545c.055-.471.276-.852.553-1.201c.26-.33.626-.694 1.052-1.12l.06-.06c.427-.427.792-.792 1.12-1.053c.35-.277.731-.498 1.202-.553m-1.088 8.147l-2.752 2.752l2.043 2.043l2.752-2.751zm5.323-7.445a.75.75 0 0 1 1.061 0l3.104 3.104a.75.75 0 0 1-1.06 1.06L17.488 3.03a.75.75 0 0 1 0-1.061M5.624 10.756a1 1 0 0 0-.197 0c-.081.01-.202.047-.443.238c-.253.2-.557.503-1.022.968s-.767.769-.968 1.022c-.191.24-.229.362-.238.443a1 1 0 0 0 0 .197c.01.081.047.202.238.443c.2.253.503.557.968 1.022l4.949 4.95c.465.464.769.766 1.022.967c.241.191.362.229.443.238a1 1 0 0 0 .197 0c.081-.01.202-.047.443-.238c.253-.2.557-.503 1.022-.968s.767-.769.968-1.022c.191-.24.229-.362.238-.443a1 1 0 0 0 0-.197c-.01-.081-.047-.202-.238-.443c-.2-.253-.503-.557-.968-1.022l-4.949-4.95c-.465-.464-.769-.766-1.022-.967c-.241-.191-.362-.229-.443-.238m-3.657 6.732a.75.75 0 0 1 1.06 0l3.105 3.104a.75.75 0 1 1-1.06 1.06l-3.105-3.104a.75.75 0 0 1 0-1.06" clip-rule="evenodd"/></svg>