<svg viewBox="0 0 24 24"><path fill="currentColor" fill-rule="evenodd" d="M12.576 2.778a.8.8 0 0 0-.418 0c-.053.014-.142.051-.324.203c-.19.158-.42.387-.772.74c-.353.352-.581.582-.74.772c-.151.182-.189.27-.203.324a.8.8 0 0 0 0 .418c.014.053.052.142.203.323c.159.19.387.42.74.773l6.607 6.607c.353.353.583.581.773.74c.181.151.27.189.323.203a.8.8 0 0 0 .418 0c.053-.014.142-.052.324-.203c.19-.159.42-.387.772-.74s.582-.583.74-.772c.152-.182.19-.271.204-.324a.8.8 0 0 0 0-.418c-.015-.053-.052-.142-.204-.324c-.158-.19-.387-.42-.74-.772l-.734-.734a1.27 1.27 0 0 1 0-1.795c.361-.361.578-.58.713-.757a.8.8 0 0 0 .099-.156c.007-.018.007-.023.007-.025q.002 0-.007-.025a.8.8 0 0 0-.099-.156c-.135-.177-.352-.396-.713-.757l-1.468-1.468c-.361-.361-.58-.578-.757-.713a.8.8 0 0 0-.156-.099q-.025-.009-.025-.007s-.005 0-.025.007a.8.8 0 0 0-.156.099a7 7 0 0 0-.593.55l1.671 1.672a.75.75 0 1 1-1.06 1.06l-3.304-3.303a13 13 0 0 0-.772-.74c-.182-.152-.271-.19-.324-.203m2.728.453l-.594-.594a14 14 0 0 0-.85-.808c-.262-.219-.546-.407-.896-.5a2.3 2.3 0 0 0-1.194 0c-.35.093-.634.281-.896.5c-.248.207-.526.485-.85.808l-.046.046c-.323.323-.6.601-.808.85c-.218.261-.406.545-.5.895a2.3 2.3 0 0 0 0 1.195c.094.35.282.634.5.896c.207.248.485.526.808.85l.594.593l-2.61 2.61l-.594-.594a14 14 0 0 0-.849-.808c-.262-.218-.546-.406-.896-.5a2.3 2.3 0 0 0-1.195 0c-.35.094-.634.282-.896.5c-.248.207-.526.485-.85.808l-.045.046c-.323.324-.601.602-.808.85c-.219.262-.407.546-.5.896a2.3 2.3 0 0 0 0 1.194c.093.35.281.634.5.896c.207.249.484.526.808.85l.023.023l.57.57a8 8 0 0 0-.68.745c-.224.294-.414.646-.414 1.091s.19.797.413 1.09c.204.268.495.558.813.877l1.532 1.532c.319.318.609.609.876.813c.294.223.646.413 1.091.413s.797-.19 1.09-.413a8 8 0 0 0 .745-.682l.594.594c.324.323.601.601.85.808c.262.219.546.407.896.5c.391.105.803.105 1.194 0c.35-.093.634-.281.896-.5c.248-.207.526-.485.85-.808l.046-.046c.323-.323.6-.601.808-.85c.218-.261.406-.545.5-.895a2.3 2.3 0 0 0 0-1.195c-.094-.35-.282-.634-.5-.896a14 14 0 0 0-.809-.85l-.593-.593l2.61-2.61l.594.594c.323.323.6.6.849.808c.262.218.546.406.896.5c.391.105.803.105 1.195 0c.35-.094.634-.282.896-.5c.248-.207.526-.485.85-.808l.045-.046c.323-.324.601-.602.808-.85c.219-.262.407-.546.5-.896a2.3 2.3 0 0 0 0-1.194c-.093-.35-.281-.634-.5-.896a14 14 0 0 0-.808-.85l-.594-.594a8 8 0 0 0 .682-.744c.223-.294.413-.646.413-1.091s-.19-.797-.413-1.09c-.204-.268-.495-.558-.813-.877l-1.532-1.532c-.319-.318-.609-.609-.876-.813c-.294-.223-.646-.413-1.091-.413s-.797.19-1.09.413c-.23.176-.478.415-.745.682m-.327 9.136l-3.344-3.344l-2.61 2.61l3.344 3.344zM4.292 16.364a7 7 0 0 0-.55.594a.8.8 0 0 0-.099.156c-.007.018-.007.023-.007.025q-.002 0 .007.025a1 1 0 0 0 .099.156c.135.177.352.396.713.757l1.468 1.468c.361.361.58.578.757.713a.8.8 0 0 0 .156.099c.02.008.024.007.025.007q0 .002.025-.007a.8.8 0 0 0 .156-.099c.177-.135.396-.352.757-.713a1.27 1.27 0 0 1 1.795 0l.734.734c.353.353.582.582.772.74c.182.152.271.19.324.204a.8.8 0 0 0 .418 0c.053-.015.142-.052.324-.204c.19-.158.42-.387.772-.74c.353-.352.581-.582.74-.772c.151-.182.189-.27.203-.324a.8.8 0 0 0 0-.418c-.014-.053-.052-.142-.203-.323c-.159-.19-.387-.42-.74-.773l-6.607-6.607a13 13 0 0 0-.773-.74c-.181-.151-.27-.189-.323-.203a.8.8 0 0 0-.418 0c-.053.014-.142.052-.324.203c-.19.159-.42.387-.772.74a13 13 0 0 0-.74.772c-.152.182-.19.271-.203.324a.8.8 0 0 0 0 .418c.014.053.051.142.203.324c.158.19.387.42.74.772l3.303 3.304a.75.75 0 0 1-1.06 1.06z" clip-rule="evenodd"/></svg>