<svg viewBox="0 0 24 24"><path fill="currentColor" d="m3.924 18.607l1.469 1.469c.692.692 1.038 1.038 1.468 1.038s.776-.346 1.468-1.038l.367-.367l.367.367l.735.734c.686.686 1.029 1.029 1.432 1.137c.264.07.542.07.806 0c.403-.108.746-.451 1.432-1.137s1.03-1.03 1.137-1.433a1.55 1.55 0 0 0 0-.806c-.107-.403-.45-.746-1.137-1.432l-1.1-1.101l3.67-3.67l1.101 1.1c.686.686 1.03 1.03 1.432 1.137c.264.071.542.071.806 0c.404-.107.747-.45 1.433-1.137c.686-.686 1.029-1.029 1.137-1.432c.07-.264.07-.542 0-.806c-.108-.403-.451-.746-1.137-1.432l-.734-.735l-.371-.363l.37-.37c.693-.693 1.039-1.039 1.039-1.469s-.346-.776-1.038-1.468l-1.469-1.469c-.692-.692-1.038-1.038-1.468-1.038s-.776.346-1.468 1.038l-.367.368l-1.102-1.102c-.686-.686-1.029-1.029-1.432-1.137a1.56 1.56 0 0 0-.806 0c-.403.108-.746.451-1.432 1.137s-1.03 1.03-1.137 1.433a1.55 1.55 0 0 0 0 .806c.107.403.45.746 1.137 1.432l1.1 1.101l-3.67 3.67l-1.101-1.1c-.686-.686-1.03-1.03-1.432-1.137a1.56 1.56 0 0 0-.806 0c-.404.107-.747.45-1.433 1.137c-.686.686-1.029 1.029-1.137 1.432c-.07.264-.07.542 0 .806c.108.403.451.746 1.137 1.432l1.102 1.102l-.368.367c-.692.692-1.038 1.038-1.038 1.468s.346.776 1.038 1.468"/></svg>