<svg viewBox="0 0 24 24"><path fill="currentColor" fill-rule="evenodd" d="m4.929 1.53l.049.007c.288.04.542.075.753.12c.224.048.452.118.67.252c.482.297.82.777.958 1.324c.069.274.05.636.03.906l-.024.257l4.657.648l.035-.228c.044-.266.112-.623.247-.874a2.1 2.1 0 0 1 1.263-1.034c.247-.071.486-.076.714-.06c.214.013.469.049.757.089l.048.007c.288.04.543.075.753.12c.225.048.452.117.67.251c.482.298.82.778.958 1.324c.061.243.066.48.052.715c-.012.224-.045.492-.083.804l-.35 2.885c-.037.311-.07.58-.111.8c-.043.23-.104.46-.223.681a2.1 2.1 0 0 1-1.263 1.035a2 2 0 0 1-.714.06c-.214-.014-.468-.05-.756-.09l-.05-.006c-.287-.04-.542-.076-.752-.12a2.1 2.1 0 0 1-.67-.252a2.17 2.17 0 0 1-.958-1.324c-.07-.275-.05-.636-.03-.907q.01-.124.023-.257l-4.656-.648l-.036.229c-.044.266-.112.623-.246.873a2.1 2.1 0 0 1-1.264 1.035a2 2 0 0 1-.713.06c-.214-.014-.47-.05-.757-.09l-.049-.006c-.288-.04-.543-.075-.753-.12a2.1 2.1 0 0 1-.67-.252a2.17 2.17 0 0 1-.958-1.323a2.3 2.3 0 0 1-.052-.715c.013-.224.045-.492.083-.804l.35-2.885c.038-.312.07-.58.112-.8c.043-.23.104-.46.222-.681A2.1 2.1 0 0 1 3.458 1.5c.247-.071.486-.075.714-.06c.214.014.469.05.757.09m-.855 1.407a.6.6 0 0 0-.2.005a.6.6 0 0 0-.357.303a1 1 0 0 0-.07.247c-.031.167-.058.388-.1.728l-.344 2.84c-.041.34-.068.56-.077.731a1 1 0 0 0 .009.263a.67.67 0 0 0 .29.413a.7.7 0 0 0 .197.062c.15.032.35.06.67.105c.32.044.52.072.673.082a.6.6 0 0 0 .199-.005a.6.6 0 0 0 .354-.296c0-.002.012-.03.029-.097q.03-.121.064-.32c.044-.265.083-.585.123-.92a.75.75 0 0 1 .848-.653l6.132.854a.75.75 0 0 1 .64.833c-.04.335-.078.654-.099.923a4 4 0 0 0-.015.328c0 .074.006.104.005.104a.67.67 0 0 0 .289.407a.7.7 0 0 0 .197.061c.15.033.35.06.67.105s.52.072.673.082a.6.6 0 0 0 .199-.005a.6.6 0 0 0 .358-.302a1 1 0 0 0 .07-.247c.03-.168.058-.388.099-.728L15.944 6c.042-.34.068-.561.078-.732a.8.8 0 0 0-.01-.262a.67.67 0 0 0-.29-.413a.7.7 0 0 0-.197-.062c-.15-.032-.35-.06-.67-.105s-.52-.072-.672-.082a.6.6 0 0 0-.2.005a.6.6 0 0 0-.354.295c0 .003-.011.03-.028.097a4 4 0 0 0-.064.32a22 22 0 0 0-.124.92a.75.75 0 0 1-.848.653l-6.131-.853a.75.75 0 0 1-.641-.833c.04-.336.079-.655.1-.924q.015-.2.014-.327c0-.074-.005-.104-.005-.105a.67.67 0 0 0-.288-.406a.7.7 0 0 0-.197-.062c-.15-.032-.35-.06-.67-.105a11 11 0 0 0-.673-.082m15.123 9.309c-.15.032-.345.087-.657.177c-.311.089-.506.145-.652.199a.7.7 0 0 0-.192.091a.7.7 0 0 0-.243.455s0 .03.009.105q.015.126.054.322c.054.264.132.574.213.901a.75.75 0 0 1-.52.903l-5.973 1.714a.75.75 0 0 1-.934-.539c-.082-.327-.16-.637-.236-.894a4 4 0 0 0-.103-.307a1 1 0 0 0-.04-.09a.57.57 0 0 0-.375-.234a.6.6 0 0 0-.197.023c-.15.032-.346.087-.657.177c-.311.089-.507.145-.652.199a.7.7 0 0 0-.192.091a.7.7 0 0 0-.244.462a1 1 0 0 0 .024.262c.03.167.083.382.166.713l.692 2.767c.083.331.137.546.189.707c.05.155.082.209.097.23a.57.57 0 0 0 .381.243c.01.001.054.006.198-.024c.15-.031.346-.087.657-.176c.311-.09.506-.146.652-.2a.7.7 0 0 0 .192-.091a.7.7 0 0 0 .243-.455s0-.03-.008-.105a4 4 0 0 0-.055-.322a22 22 0 0 0-.213-.9a.75.75 0 0 1 .52-.904l5.973-1.714a.75.75 0 0 1 .934.539c.082.327.16.637.236.894q.057.191.103.308c.024.06.038.086.04.09a.57.57 0 0 0 .375.234c.01.001.054.006.197-.024c.15-.031.346-.087.657-.176c.312-.09.507-.146.652-.2a.7.7 0 0 0 .193-.091a.7.7 0 0 0 .243-.462a1 1 0 0 0-.023-.262a13 13 0 0 0-.167-.713l-.692-2.767a13 13 0 0 0-.189-.706a1 1 0 0 0-.097-.231a.57.57 0 0 0-.381-.242a.6.6 0 0 0-.198.023m-.308-1.468a2 2 0 0 1 .715-.04a2.06 2.06 0 0 1 1.698 1.501c.068.212.133.474.21.777l.702 2.81c.076.304.142.566.182.786c.042.232.067.467.037.716a2.2 2.2 0 0 1-.78 1.437a2.1 2.1 0 0 1-.628.34c-.203.075-.45.146-.731.227l-.048.013c-.28.08-.528.152-.738.196a2 2 0 0 1-.716.041a2.07 2.07 0 0 1-1.39-.854c-.167-.231-.279-.578-.355-.835l-.06-.207l-4.54 1.303l.057.262c.054.265.117.621.082.902a2.2 2.2 0 0 1-.78 1.438a2.1 2.1 0 0 1-.628.34c-.202.075-.45.146-.73.227l-.048.013c-.28.08-.528.152-.739.196a2 2 0 0 1-.715.041a2.07 2.07 0 0 1-1.391-.854a2.3 2.3 0 0 1-.307-.648c-.068-.212-.133-.474-.21-.777l-.702-2.81c-.076-.304-.142-.566-.182-.786a2.3 2.3 0 0 1-.037-.715a2.2 2.2 0 0 1 .78-1.437c.197-.162.413-.262.628-.341c.203-.075.45-.146.732-.226l.047-.014c.28-.08.528-.152.738-.196a2 2 0 0 1 .716-.04a2.07 2.07 0 0 1 1.39.853c.167.232.279.579.355.835l.06.207l4.54-1.303q-.031-.135-.056-.261c-.055-.266-.118-.622-.083-.903a2.2 2.2 0 0 1 .78-1.437a2.1 2.1 0 0 1 .628-.341c.202-.075.45-.146.73-.226l.048-.014c.28-.08.529-.152.739-.196" clip-rule="evenodd"/></svg>