<svg viewBox="0 0 24 24"><path fill="currentColor" fill-rule="evenodd" d="m4.292 15.304l4.404 4.405l.367.367l.735.734c.686.686 1.029 1.029 1.432 1.137c.264.07.542.07.806 0c.403-.108.746-.451 1.432-1.137s1.03-1.03 1.137-1.433a1.55 1.55 0 0 0 0-.806c-.107-.403-.45-.746-1.137-1.432l-1.1-1.101l-4.406-4.405l-1.101-1.101c-.686-.686-1.03-1.03-1.432-1.137a1.56 1.56 0 0 0-.806 0c-.404.107-.747.45-1.433 1.137c-.686.686-1.029 1.029-1.137 1.432c-.07.264-.07.542 0 .806c.108.403.451.746 1.137 1.432zm11.746-2.937l-4.405-4.405l-1.101-1.101c-.686-.686-1.03-1.03-1.137-1.432a1.56 1.56 0 0 1 0-.806c.107-.404.45-.747 1.137-1.433c.686-.686 1.029-1.029 1.432-1.137c.264-.07.542-.07.806 0c.403.108.746.451 1.432 1.137l1.102 1.102l4.4 4.408l.372.363l.734.735c.686.686 1.029 1.029 1.137 1.432c.07.264.07.542 0 .806c-.108.403-.451.746-1.137 1.432s-1.03 1.03-1.433 1.137a1.55 1.55 0 0 1-.806 0c-.403-.107-.746-.45-1.432-1.137z" clip-rule="evenodd"/><path fill="currentColor" d="m18.608 3.924l1.468 1.468l.126.126c.608.61.912.94.912 1.343c0 .43-.346.776-1.038 1.468l-.371.37l-4.4-4.408l.366-.367c.692-.692 1.038-1.038 1.468-1.038s.777.346 1.469 1.038M5.393 20.076l-1.469-1.469c-.692-.692-1.038-1.038-1.038-1.468s.346-.776 1.038-1.468l.367-.367l4.405 4.405l-.367.367c-.692.692-1.038 1.038-1.468 1.038s-.776-.346-1.468-1.038m10.644-7.709l-3.67 3.67l-4.405-4.404l3.67-3.671z" opacity=".5"/></svg>