<svg viewBox="0 0 24 24"><path fill="currentColor" d="m12.94 10.513l-.383.639zm-.53-2.491l.743.103a.766.766 0 0 0-.652-.848zm-.094 1.622l-.725.173zm3.775.526l.66.365zm-.81.668l.218.723zm.835-6.884l.383-.639zm.624.869l.725-.173zm-2.965-1.194l-.218-.723zM12.67 5.892l-.09.744c.41.057.783-.23.832-.64zm.296-1.595l-.66-.365zM2.832 9.106l-.384.639zm-.625-.868l-.725.172zm4.072-1.07l.09-.744a.734.734 0 0 0-.833.641zm-.296 1.595l.66.365zm-.81.669l.217.722zm.834-6.884l.383-.64zm.53 2.49l-.743-.103a.767.767 0 0 0 .653.848zm.094-1.622l.726-.173zM3.667 2.222l-.218-.723zm-.811.669l-.66-.366zm13.09 3.096l-.344 2.84l1.485.207l.345-2.84zm-1.758 4.052a11 11 0 0 1-.67-.105a.6.6 0 0 1-.194-.06l-.767 1.278c.22.135.449.204.673.252c.216.046.48.083.777.124zm-2.52-2.12c-.04.326-.083.68-.107.989c-.02.27-.04.632.03.909l1.45-.345c.006.02-.002-.001-.002-.096q0-.127.014-.327c.02-.27.06-.588.1-.924zm1.656 1.955a.66.66 0 0 1-.283-.402l-1.45.345c.138.55.48 1.035.966 1.335zm2.278-1.047c-.042.34-.069.56-.1.728a1 1 0 0 1-.07.25l1.32.73c.117-.219.178-.448.221-.679c.042-.225.075-.501.114-.822zm-1.595 2.701c.298.042.561.079.782.093c.227.015.465.01.71-.06l-.436-1.445a.6.6 0 0 1-.202.005c-.153-.01-.353-.037-.673-.082zm1.425-1.724a.62.62 0 0 1-.37.312l.437 1.445a2.1 2.1 0 0 0 1.252-1.026zm-.564-5.376c.32.044.52.073.67.105c.143.03.184.054.194.06l.767-1.278a2.1 2.1 0 0 0-.672-.252c-.217-.047-.48-.083-.778-.124zm2.564 1.766c.039-.322.073-.598.086-.827a2.3 2.3 0 0 0-.053-.717l-1.45.345a1 1 0 0 1 .008.26c-.01.171-.036.391-.077.732zm-1.7-1.6a.66.66 0 0 1 .283.401l1.45-.345a2.2 2.2 0 0 0-.966-1.335zm-.683-1.655a11 11 0 0 0-.781-.093a2 2 0 0 0-.71.06l.435 1.445a.6.6 0 0 1 .203-.005c.153.01.353.037.672.082zm-1.637 3.056c.04-.335.08-.654.123-.92q.034-.199.064-.32c.023-.092.036-.111.026-.092l-1.32-.731c-.134.248-.202.605-.246.87c-.05.306-.094.66-.133.986zm.145-3.089a2.08 2.08 0 0 0-1.252 1.026l1.32.73a.62.62 0 0 1 .368-.31zM3.001 7.074l.345-2.84l-1.486-.207l-.344 2.84zM4.08 8.632a10 10 0 0 1-.67-.105a.6.6 0 0 1-.194-.06l-.767 1.278c.22.135.45.205.673.253c.216.046.48.082.777.123zM1.516 6.867c-.04.321-.073.597-.086.826c-.014.235-.01.473.052.717l1.45-.345a1 1 0 0 1-.008-.26c.01-.17.036-.391.077-.731zm1.699 1.6a.66.66 0 0 1-.282-.402l-1.45.345c.138.55.479 1.035.965 1.335zm2.321-1.402c-.04.336-.08.655-.124.92a4 4 0 0 1-.064.32c-.023.092-.035.111-.025.093l1.32.73c.133-.248.201-.604.246-.87c.05-.305.093-.66.133-.986zm-1.638 3.056c.298.042.562.079.782.093c.228.015.466.011.71-.06L4.954 8.71a.6.6 0 0 1-.202.005a11 11 0 0 1-.673-.082zm1.425-1.723a.62.62 0 0 1-.369.311l.436 1.445a2.1 2.1 0 0 0 1.253-1.026zM4.76 3.02c.32.045.52.073.67.105c.142.03.183.054.194.06L6.39 1.91a2.1 2.1 0 0 0-.672-.253c-.216-.046-.48-.082-.778-.124zm2.52 2.12c.04-.325.083-.68.106-.988c.021-.27.04-.633-.03-.91l-1.45.346c-.005-.021.002 0 .003.095q0 .127-.015.328a23 23 0 0 1-.1.923zM5.624 3.188a.66.66 0 0 1 .282.402l1.45-.346A2.2 2.2 0 0 0 6.39 1.91zM4.94 1.532c-.298-.041-.561-.078-.781-.093a2 2 0 0 0-.71.06l.436 1.446a.6.6 0 0 1 .202-.006c.153.01.353.038.673.082zM3.346 4.233c.041-.34.068-.56.1-.728a1 1 0 0 1 .07-.249l-1.32-.73a2.3 2.3 0 0 0-.222.678c-.042.225-.075.501-.114.823zM3.449 1.5a2.1 2.1 0 0 0-1.253 1.026l1.32.731a.62.62 0 0 1 .369-.311zm2.998 4.284l6.131.853l.181-1.489l-6.132-.853zM12.5 7.277l-6.132-.853l-.18 1.49l6.131.852zm-1.17 13.735l.457.583zm.219-2.544l-.721.207c-.1-.402.14-.82.539-.935zm.293 1.595l.738.072zm-3.677 1.055l-.605.458zm.886.548l-.123.75zm-1.677-6.705l-.457-.583zm-.512.949l-.738-.072zm2.791-1.603l.124-.75zm1.377 2.086l.182.728a.72.72 0 0 1-.903-.521zm-.49-1.538l.605-.458zm10.637 3.33l.457.584zm.512-.948l.737.072zm-4.168-.483l-.182-.728a.72.72 0 0 1 .903.52zm.49 1.538l-.605.457zm.886.548l-.123.75zm-1.677-6.705l-.457-.583zm-.218 2.544l.72-.207a.78.78 0 0 1-.538.934zm-.294-1.595l-.737-.072zm2.792-1.603l.123-.75zm.886.548l.605-.458zM7.79 16.952l.692 2.767l-1.442.413l-.692-2.766zm2.245 3.765c.312-.09.507-.146.652-.2a.7.7 0 0 0 .187-.088l.913 1.166c-.2.164-.417.265-.633.344c-.208.076-.464.15-.755.233zm2.235-2.456c.08.318.166.663.227.966c.054.264.118.622.083.907l-1.475-.143c-.003.022.002 0-.01-.094a4 4 0 0 0-.054-.321a22 22 0 0 0-.213-.901zm-1.396 2.168a.67.67 0 0 0 .23-.438l1.476.143a2.24 2.24 0 0 1-.793 1.46zm-2.392-.71c.083.331.137.546.189.707a1 1 0 0 0 .1.235l-1.211.915a2.3 2.3 0 0 1-.305-.644c-.07-.218-.136-.487-.215-.8zm1.917 2.453c-.29.083-.546.157-.762.203c-.224.047-.46.076-.71.04l.248-1.498c.013.002.06.006.203-.024c.15-.031.346-.087.657-.176zM8.77 20.66c.107.15.256.235.405.256l-.247 1.499a2.04 2.04 0 0 1-1.368-.84zm-.1-5.405c-.312.09-.507.146-.652.2a.7.7 0 0 0-.188.088l-.913-1.166c.2-.165.418-.265.633-.344c.209-.077.465-.15.755-.233zm-2.322 2.11c-.078-.313-.146-.582-.187-.807a2.4 2.4 0 0 1-.037-.72l1.476.143a1 1 0 0 0 .023.257c.03.167.084.382.167.713zm1.482-1.822a.67.67 0 0 0-.23.438l-1.476-.144c.07-.566.349-1.095.793-1.46zm.475-1.743c.29-.084.547-.158.763-.203c.223-.047.459-.076.709-.04l-.247 1.498a.6.6 0 0 0-.204.023c-.15.032-.346.088-.657.177zm2.005 2.8c-.082-.327-.16-.638-.236-.894a4 4 0 0 0-.103-.308c-.034-.088-.049-.104-.036-.086l1.21-.915c.165.229.276.573.353.83c.088.296.174.641.254.96zm-.532-3.043a2.04 2.04 0 0 1 1.368.84l-1.21.915a.6.6 0 0 0-.405-.256zm10.984 2.638l-.692-2.767l1.441-.414l.692 2.767zm-.88 1.696c.312-.09.507-.146.652-.2a.7.7 0 0 0 .187-.088l.914 1.166a2.1 2.1 0 0 1-.634.344c-.208.076-.464.15-.754.233zm2.321-2.11c.079.313.146.582.188.807c.042.232.067.469.036.72l-1.475-.143a1 1 0 0 0-.024-.257a13 13 0 0 0-.166-.713zm-1.482 1.822a.67.67 0 0 0 .23-.438l1.476.143a2.24 2.24 0 0 1-.792 1.46zm-2.478-1.056c.082.326.16.637.236.894q.057.191.103.308c.034.087.049.104.036.086l-1.211.915c-.164-.229-.275-.573-.352-.831c-.088-.295-.174-.64-.254-.958zm2.004 2.799c-.29.083-.547.157-.763.203a2 2 0 0 1-.71.04l.248-1.498c.013.002.06.006.203-.024c.151-.031.346-.087.658-.176zm-1.63-1.511a.6.6 0 0 0 .405.256l-.247 1.499a2.03 2.03 0 0 1-1.368-.84zm-.1-5.405c-.312.09-.507.146-.652.2a.7.7 0 0 0-.187.088l-.914-1.166c.2-.165.418-.265.634-.344c.208-.077.464-.15.755-.233zm-2.235 2.456c-.08-.318-.166-.663-.227-.966c-.054-.264-.118-.622-.083-.908l1.475.144c.003-.023-.002 0 .01.093q.014.126.054.322c.054.264.131.574.213.901zm1.396-2.168a.67.67 0 0 0-.23.438l-1.476-.144c.07-.566.348-1.095.792-1.46zm.474-1.743c.29-.083.547-.157.763-.203a2 2 0 0 1 .71-.04l-.248 1.498a.6.6 0 0 0-.203.023c-.15.032-.346.088-.657.177zm1.918 2.453a13 13 0 0 0-.189-.707a1 1 0 0 0-.1-.235l1.211-.915c.144.202.233.42.305.644c.07.217.136.486.214.8zm-.446-2.697a2.04 2.04 0 0 1 1.368.84l-1.21.915a.6.6 0 0 0-.405-.256zm-2.439 4.676l-5.972 1.714l-.364-1.455l5.972-1.715zm-5.817 2.333l5.972-1.714l.364 1.455l-5.972 1.714z"/></svg>