<svg viewBox="0 0 24 24"><g fill="none" stroke="currentColor" stroke-width="1.5"><path d="m8.319 12.198l3.88-3.88m3.104 3.104l-3.88 3.88"/><path stroke-linecap="round" d="m7.143 19.331l1.238 1.237c.904.905 1.356 1.357 1.908 1.421q.185.023.371 0c.552-.064 1.004-.516 1.908-1.42c.905-.905 1.357-1.357 1.421-1.909a1.6 1.6 0 0 0 0-.37c-.064-.553-.516-1.005-1.42-1.91l-4.95-4.948c-.904-.905-1.356-1.357-1.908-1.421a1.6 1.6 0 0 0-.371 0c-.552.064-1.004.516-1.908 1.42c-.905.905-1.357 1.357-1.421 1.909a1.6 1.6 0 0 0 0 .37c.064.553.516 1.005 1.42 1.91l.62.618M16.857 4.669l-1.238-1.237c-.904-.905-1.356-1.357-1.908-1.421a1.6 1.6 0 0 0-.371 0c-.552.064-1.004.516-1.908 1.42c-.905.905-1.357 1.357-1.421 1.909a1.6 1.6 0 0 0 0 .37c.064.553.516 1.005 1.42 1.91l4.95 4.948c.904.905 1.356 1.357 1.908 1.421q.186.023.371 0c.552-.064 1.004-.516 1.908-1.42c.905-.905 1.357-1.357 1.421-1.909a1.6 1.6 0 0 0 0-.37c-.064-.553-.516-1.005-1.42-1.91l-.62-.618"/><path stroke-linecap="round" stroke-linejoin="round" d="m18.019 2.498l3.104 3.104M2.498 18.019l3.104 3.104"/></g></svg>