<svg viewBox="0 0 24 24"><g fill="none" stroke="currentColor" stroke-width="1.5"><path d="m8.319 12.198l3.88-3.88m3.104 3.104l-3.88 3.88m-7.991.318c-.905-.905-1.357-1.357-1.421-1.91a1.6 1.6 0 0 1 0-.37c.064-.552.516-1.004 1.42-1.908c.905-.905 1.357-1.357 1.909-1.421q.186-.023.37 0c.553.064 1.005.516 1.91 1.42l4.948 4.95c.905.904 1.357 1.356 1.421 1.908q.023.186 0 .371c-.064.552-.516 1.004-1.42 1.908c-.905.905-1.357 1.357-1.909 1.421a1.6 1.6 0 0 1-.37 0c-.553-.064-1.005-.516-1.91-1.42zm8-8c-.905-.905-1.357-1.357-1.421-1.91a1.6 1.6 0 0 1 0-.37c.064-.552.516-1.004 1.42-1.908c.905-.905 1.357-1.357 1.909-1.421q.186-.022.37 0c.553.064 1.005.516 1.91 1.42l4.948 4.95c.905.904 1.357 1.356 1.421 1.908q.023.185 0 .371c-.064.552-.516 1.004-1.42 1.908c-.905.905-1.357 1.357-1.909 1.421a1.6 1.6 0 0 1-.37 0c-.553-.064-1.005-.516-1.91-1.42z"/><path stroke-linecap="round" stroke-linejoin="round" d="m18.019 2.498l3.104 3.104M2.498 18.019l3.104 3.104"/></g></svg>