<svg viewBox="0 0 24 24"><path fill="currentColor" d="m17.235 16.848l-.287.693zM16 13.5h.75a.75.75 0 0 0-.75-.75zm.152 2.265l-.693.287zm5.696 0l.693.287zm-1.083 1.083l-.287-.693zm0-9.696l-.287.693zm1.083 1.083l.693-.287zm-4.613-1.083l-.287-.693zM16 10.5v.75a.75.75 0 0 0 .75-.75zm.152-2.265l-.693-.287zM3.235 16.848l-.287.693zm-1.083-1.083l-.693.287zM8 13.5v-.75a.75.75 0 0 0-.75.75zm-.152 2.265l.693.287zm-1.083 1.083l.287.693zm0-9.696l.287-.693zM8 10.5h-.75c0 .414.336.75.75.75zm-.152-2.265l.693-.287zM3.235 7.152l-.287-.693zM2.152 8.235l-.693-.287zM21.25 10v4h1.5v-4zM19 16.25c-.476 0-.796 0-1.043-.017c-.241-.017-.358-.046-.435-.078l-.574 1.386c.29.12.59.167.907.188c.31.021.69.021 1.145.021zm-3.75-2.75c0 .461 0 .954.02 1.38c.01.213.026.421.051.609c.024.176.063.382.138.563l1.386-.574l-.012-.045a2 2 0 0 1-.026-.147a6 6 0 0 1-.039-.477a30 30 0 0 1-.018-1.309zm2.272 2.655a1.25 1.25 0 0 1-.677-.677l-1.386.574a2.75 2.75 0 0 0 1.489 1.489zM21.25 14c0 .476 0 .796-.017 1.043c-.017.241-.046.358-.078.435l1.386.574c.12-.29.167-.59.188-.907c.021-.31.021-.69.021-1.145zM19 17.75c.456 0 .835 0 1.145-.02c.317-.022.617-.069.907-.19l-.574-1.385c-.077.032-.194.061-.435.078c-.247.017-.567.017-1.043.017zm2.155-2.272a1.25 1.25 0 0 1-.677.677l.574 1.386a2.75 2.75 0 0 0 1.489-1.489zM19 7.75c.476 0 .796 0 1.043.017c.241.017.358.046.435.078l.574-1.386c-.29-.12-.59-.167-.907-.188c-.31-.021-.69-.021-1.145-.021zM22.75 10c0-.456 0-.835-.02-1.145a2.8 2.8 0 0 0-.19-.907l-1.385.574c.032.077.061.194.078.435c.017.247.017.567.017 1.043zm-2.272-2.155c.307.127.55.37.677.677l1.386-.574a2.75 2.75 0 0 0-1.489-1.489zM19 6.25c-.456 0-.835 0-1.145.02a2.8 2.8 0 0 0-.907.19l.574 1.385c.077-.032.194-.061.435-.078c.247-.017.567-.017 1.043-.017zm-2.25 4.25c0-.47 0-.926.018-1.309q.014-.286.04-.477q.012-.093.025-.147l.012-.045l-1.386-.574a2.3 2.3 0 0 0-.138.563a7 7 0 0 0-.051.61c-.02.425-.02.918-.02 1.379zm.198-4.04a2.75 2.75 0 0 0-1.489 1.488l1.386.574c.127-.307.37-.55.677-.677zM2.75 14v-4h-1.5v4zM5 16.25c-.476 0-.796 0-1.043-.017c-.241-.017-.358-.046-.435-.078l-.574 1.386c.29.12.59.167.907.188c.31.021.69.021 1.145.021zM1.25 14c0 .456 0 .835.02 1.145c.022.318.07.617.19.907l1.385-.574c-.032-.077-.061-.194-.078-.435A17 17 0 0 1 2.75 14zm2.272 2.155a1.25 1.25 0 0 1-.677-.677l-1.386.574a2.75 2.75 0 0 0 1.489 1.489zM7.25 13.5c0 .47 0 .926-.018 1.309q-.014.286-.04.477a2 2 0 0 1-.025.147l-.012.045l1.386.574c.075-.181.114-.387.138-.563c.025-.188.041-.396.051-.61c.02-.425.02-.918.02-1.379zM5 17.75c.456 0 .835 0 1.145-.02c.317-.022.617-.069.907-.19l-.574-1.385c-.077.032-.194.061-.435.078A17 17 0 0 1 5 16.25zm2.155-2.272a1.25 1.25 0 0 1-.677.677l.574 1.386a2.75 2.75 0 0 0 1.489-1.489zM5 7.75c.476 0 .796 0 1.043.017c.241.017.358.046.435.078l.574-1.386c-.29-.12-.59-.167-.907-.188c-.31-.021-.69-.021-1.145-.021zm3.75 2.75c0-.461 0-.954-.02-1.38a7 7 0 0 0-.051-.609a2.3 2.3 0 0 0-.138-.563l-1.386.574l.012.045q.012.053.026.147a6 6 0 0 1 .039.477c.018.383.018.838.018 1.309zM6.478 7.845c.307.127.55.37.677.677l1.386-.574a2.75 2.75 0 0 0-1.489-1.489zM5 6.25c-.456 0-.835 0-1.145.02a2.8 2.8 0 0 0-.907.19l.574 1.385c.077-.032.194-.061.435-.078A17 17 0 0 1 5 7.75zM2.75 10c0-.476 0-.796.017-1.043c.017-.241.046-.358.078-.435L1.46 7.948c-.12.29-.167.59-.188.907c-.021.31-.021.69-.021 1.145zm.198-3.54a2.75 2.75 0 0 0-1.489 1.488l1.386.574c.127-.307.37-.55.677-.677zM8 11.25h8v-1.5H8zm8 1.5H8v1.5h8z"/></svg>