<svg viewBox="0 0 24 24"><path fill="currentColor" fill-rule="evenodd" d="M17.416 6.25h.168c.38 0 .71 0 .998.077a2.25 2.25 0 0 1 1.591 1.59l-.702.189l.702-.188c.078.289.078.617.077.998v.345a2.75 2.75 0 0 1 0 5.478v.345c0 .38 0 .71-.077.999a2.25 2.25 0 0 1-1.59 1.59c-.29.078-.618.078-1 .077h-.167c-.38 0-.71 0-.998-.076a2.25 2.25 0 0 1-1.591-1.591c-.078-.29-.078-.618-.077-.999V12.75h-5.5v2.334c0 .38 0 .71-.077.999a2.25 2.25 0 0 1-1.59 1.59c-.29.078-.618.078-1 .077h-.167c-.38 0-.71 0-.998-.076a2.25 2.25 0 0 1-1.591-1.591c-.078-.29-.077-.618-.077-.999v-.345a2.75 2.75 0 0 1 0-5.478v-.345c0-.38 0-.71.077-.998a2.25 2.25 0 0 1 1.59-1.591c.29-.078.618-.077 1-.077h.167c.38 0 .71 0 .998.077a2.25 2.25 0 0 1 1.591 1.59c.078.29.077.618.077 1v2.333h5.5V8.916c0-.38 0-.71.077-.998a2.25 2.25 0 0 1 1.59-1.591c.29-.078.618-.077 1-.077M3.75 10.775a1.25 1.25 0 0 0 0 2.45zm16.5 2.45a1.25 1.25 0 0 0 0-2.45zM17.5 7.75c-.513 0-.623.007-.694.026a.75.75 0 0 0-.53.53l-.725-.194l.725.194c-.02.071-.026.18-.026.694v6c0 .513.006.623.026.694a.75.75 0 0 0 .53.53c.071.02.18.026.694.026c.513 0 .623-.006.694-.025a.75.75 0 0 0 .53-.53c.02-.072.026-.182.026-.695V9c0-.513-.006-.623-.026-.694a.75.75 0 0 0-.53-.53c-.071-.02-.18-.026-.694-.026m-11 0c-.513 0-.623.007-.694.026a.75.75 0 0 0-.53.53c-.02.071-.026.18-.026.694v6c0 .513.006.623.026.694a.75.75 0 0 0 .53.53l-.194.725l.194-.724c.071.019.18.025.694.025c.513 0 .623-.006.694-.025l.194.724l-.194-.724a.75.75 0 0 0 .53-.53c.02-.072.026-.182.026-.695V9c0-.513-.006-.623-.026-.694a.75.75 0 0 0-.53-.53c-.071-.02-.18-.026-.694-.026" clip-rule="evenodd"/></svg>