<svg viewBox="0 0 24 24"><path fill="currentColor" fill-rule="evenodd" d="M17.31 2.775c-.162.031-.371.085-.697.169l-2.711.699c-.326.084-.534.138-.691.19a.8.8 0 0 0-.22.095a.6.6 0 0 0-.24.394a.7.7 0 0 0 .024.21c.031.153.086.351.173.666c.088.314.143.512.196.66c.05.141.08.184.092.199a.67.67 0 0 0 .43.239c.003 0 .031 0 .095-.008q.12-.015.313-.055c.258-.054.561-.132.882-.215a.75.75 0 0 1 .91.525l1.68 6.036a.75.75 0 0 1-.535.927c-.32.083-.625.162-.875.239a4 4 0 0 0-.3.102c-.055.023-.08.036-.084.038a.6.6 0 0 0-.23.388a.7.7 0 0 0 .023.21c.031.153.086.351.173.665c.088.315.143.513.196.661c.05.14.08.183.092.198a.67.67 0 0 0 .438.24a.8.8 0 0 0 .246-.022c.162-.031.371-.085.697-.169l2.711-.699c.326-.084.535-.138.691-.19c.151-.05.2-.08.22-.095a.6.6 0 0 0 .24-.394a.7.7 0 0 0-.024-.21a11 11 0 0 0-.173-.666a11 11 0 0 0-.196-.66a.7.7 0 0 0-.092-.199a.67.67 0 0 0-.43-.239c-.003 0-.031 0-.095.008q-.12.015-.313.055c-.257.054-.561.132-.882.215a.75.75 0 0 1-.91-.525l-1.68-6.036a.75.75 0 0 1 .535-.927c.32-.083.625-.162.875-.239q.188-.057.3-.102c.055-.023.08-.036.084-.038a.6.6 0 0 0 .23-.388a.7.7 0 0 0-.023-.21a11 11 0 0 0-.173-.666a11 11 0 0 0-.196-.66a.7.7 0 0 0-.092-.198a.67.67 0 0 0-.438-.24a.8.8 0 0 0-.246.022m-.278-1.474c.229-.043.464-.069.712-.037c.558.07 1.072.353 1.423.794c.158.198.255.414.332.63c.073.204.142.454.222.738l.012.046c.08.285.149.534.192.746a2.1 2.1 0 0 1 .04.713a2.1 2.1 0 0 1-.835 1.397a2 2 0 0 1-.404.215c-.13.053-.276.102-.421.146l-.202.06l1.28 4.602q.12-.028.235-.052c.259-.054.613-.12.896-.084c.558.07 1.071.352 1.423.793c.158.199.255.415.332.631c.073.204.142.454.221.738l.013.046c.08.284.149.534.192.746c.046.224.074.46.04.712a2.1 2.1 0 0 1-.835 1.398a2.2 2.2 0 0 1-.641.313c-.21.069-.467.135-.764.212l-2.756.71c-.297.077-.554.143-.771.184a2.3 2.3 0 0 1-.712.038a2.17 2.17 0 0 1-1.423-.794a2.1 2.1 0 0 1-.332-.63c-.073-.204-.142-.454-.221-.738l-.013-.046c-.08-.285-.149-.535-.192-.746a2.1 2.1 0 0 1-.04-.713a2.1 2.1 0 0 1 .835-1.397a1.8 1.8 0 0 1 .405-.215a5 5 0 0 1 .42-.146l.203-.06l-1.281-4.602q-.12.028-.234.052c-.26.054-.614.12-.897.084a2.17 2.17 0 0 1-1.423-.793a2.1 2.1 0 0 1-.332-.631a12 12 0 0 1-.221-.738l-.013-.046c-.08-.284-.149-.534-.192-.746a2.1 2.1 0 0 1-.04-.712a2.1 2.1 0 0 1 .835-1.398a2.2 2.2 0 0 1 .641-.313c.21-.069.467-.135.764-.212l2.756-.71c.297-.077.554-.144.771-.185m-10.92 5.04l2.985.36c.323.039.6.072.827.114c.238.044.472.106.697.226c.508.27.897.727 1.06 1.284c.073.251.077.495.062.728c-.015.22-.051.481-.093.777l-.007.05c-.041.296-.078.557-.124.772a2.1 2.1 0 0 1-.258.683c-.305.49-.797.834-1.355.973c-.279.07-.648.05-.928.03l-.292-.027l-.677 4.823q.135.018.26.04c.276.045.641.114.895.25c.509.27.898.727 1.06 1.285c.073.25.078.494.062.727c-.014.22-.05.481-.092.777l-.007.05c-.042.296-.078.557-.125.772c-.05.23-.12.462-.258.683c-.305.49-.797.834-1.354.973a2.4 2.4 0 0 1-.73.053c-.231-.013-.508-.047-.832-.086L3.903 22.3c-.323-.039-.6-.072-.827-.114a2.14 2.14 0 0 1-1.756-1.51a2.1 2.1 0 0 1-.063-.728c.015-.22.051-.481.093-.777l.007-.05c.041-.296.078-.557.124-.772c.05-.23.121-.462.258-.683c.305-.49.797-.834 1.355-.973c.279-.07.648-.05.929-.03l.291.027l.677-4.823q-.135-.018-.26-.04c-.276-.045-.641-.114-.895-.25a2.14 2.14 0 0 1-1.06-1.285a2.1 2.1 0 0 1-.062-.727c.014-.22.05-.481.092-.777l.007-.05c.042-.296.078-.557.125-.772c.05-.23.12-.462.258-.683c.305-.49.797-.834 1.354-.973c.247-.062.489-.066.73-.053c.231.013.508.047.832.086m-.916 1.413a1 1 0 0 0-.282.01a.72.72 0 0 0-.444.31a.7.7 0 0 0-.066.207c-.033.155-.063.361-.109.69s-.074.534-.085.691a.7.7 0 0 0 .006.21c.042.144.15.285.32.377c0 0 .029.012.104.031q.129.033.335.067c.275.045.607.085.954.127a.75.75 0 0 1 .653.848l-.884 6.299a.75.75 0 0 1-.832.64a23 23 0 0 0-.957-.103a4 4 0 0 0-.343-.015c-.08 0-.113.006-.113.005a.72.72 0 0 0-.44.308a.7.7 0 0 0-.065.208c-.034.155-.063.361-.11.69c-.045.328-.074.534-.084.691c-.01.15.002.197.005.21a.64.64 0 0 0 .325.38a1 1 0 0 0 .265.075c.174.032.404.06.756.103l2.94.353c.352.043.582.07.76.08a1 1 0 0 0 .281-.01a.72.72 0 0 0 .444-.31a.7.7 0 0 0 .066-.207c.033-.155.063-.361.109-.69s.074-.534.085-.691a.7.7 0 0 0-.006-.21a.64.64 0 0 0-.319-.377s-.03-.012-.105-.031a4 4 0 0 0-.335-.066a23 23 0 0 0-.954-.128a.75.75 0 0 1-.653-.849l.884-6.297a.75.75 0 0 1 .832-.64c.347.04.678.08.958.102q.208.015.342.015c.08 0 .113-.006.113-.005a.72.72 0 0 0 .44-.308a.7.7 0 0 0 .065-.208c.034-.155.063-.361.11-.69c.045-.328.074-.534.084-.691a.7.7 0 0 0-.005-.21a.64.64 0 0 0-.325-.38a1 1 0 0 0-.265-.075c-.174-.032-.404-.06-.756-.103l-2.94-.353a14 14 0 0 0-.76-.08m4.347 3.099l.004-.001z" clip-rule="evenodd"/></svg>