<svg viewBox="0 0 24 24"><path fill="currentColor" d="m6.09 7.311l.09-.744zm2.84.345l-.09.744zm1.583 3.404l.639.393zm-2.49.53l.09-.745a.75.75 0 0 0-.834.641zm1.622.094l-.184-.727zm.525-3.775l.355-.661zm.669.81l-.72.209zm-6.884-.835l-.639-.393zm.868-.624l-.183-.727zM3.63 10.225l-.72.208zm2.263 1.107l.743.103a.75.75 0 0 0-.653-.848zm-1.594-.296l.354-.661zM6.97 21.742l-.09.744zm-2.84-.345l.09-.744zm5.246-1.386l.743.104zm-.27 1.158l-.64-.394zm-.869.624l.183.727zM7.169 17.72l-.743-.103a.75.75 0 0 0 .653.848zm1.594.296l.355-.66zm.67.811l-.721.208zm-7.156.322l.743.104zm.271-1.157l-.639-.393zm2.49-.53l-.09.745a.75.75 0 0 0 .834-.642zm-1.622-.094l-.183-.727zm-1.194 2.965l-.72.208zm.669.81l-.355.661zm3.11-13.088l2.84.344l.18-1.489l-2.84-.344zm4.04 1.743c-.044.32-.073.52-.105.67a.7.7 0 0 1-.062.197l1.278.787c.134-.218.203-.446.25-.67c.047-.216.083-.479.125-.777zm-2.11 2.535c.327.04.682.083.99.107c.27.02.632.04.907-.03l-.367-1.454c.02-.005-.002.002-.097.003q-.127 0-.328-.015c-.269-.02-.588-.059-.924-.1zm1.943-1.668a.67.67 0 0 1-.413.29l.367 1.455a2.17 2.17 0 0 0 1.324-.958zM8.84 8.4c.34.042.561.069.728.1c.162.03.221.055.247.07l.71-1.322c-.22-.119-.45-.18-.682-.223c-.225-.042-.5-.075-.822-.114zm2.687 1.606c.041-.298.078-.561.093-.781c.015-.228.01-.467-.06-.714l-1.442.417c.003.01.014.053.005.199c-.01.152-.037.353-.082.672zM9.815 8.569c.161.087.263.22.303.359l1.441-.417a2.1 2.1 0 0 0-1.034-1.263zm-5.388.576c.044-.32.072-.52.105-.67a.7.7 0 0 1 .061-.197L3.316 7.49a2.1 2.1 0 0 0-.251.67c-.046.216-.083.48-.124.777zM6.18 6.567c-.321-.04-.597-.073-.826-.086a2.3 2.3 0 0 0-.715.052l.366 1.454a1 1 0 0 1 .263-.009c.17.01.39.036.731.078zm-1.588 1.71a.67.67 0 0 1 .413-.29L4.64 6.533a2.17 2.17 0 0 0-1.324.958zm-1.652.661c-.042.298-.079.561-.093.781c-.015.228-.01.467.06.714l1.442-.416a.6.6 0 0 1-.005-.2c.01-.152.037-.352.082-.672zm3.041 1.649a22 22 0 0 1-.92-.124a4 4 0 0 1-.32-.064c-.092-.023-.11-.035-.09-.024l-.71 1.321c.251.135.609.203.874.247c.305.05.66.094.986.133zm-3.073-.154c.157.547.537.996 1.034 1.263l.71-1.321a.6.6 0 0 1-.303-.358zM7.06 20.997l-2.84-.344l-.18 1.489l2.84.344zm1.573-1.089c-.044.32-.072.52-.105.67a.7.7 0 0 1-.061.197l1.277.787c.134-.218.203-.446.251-.67c.046-.216.083-.48.124-.777zM6.88 22.486c.322.04.597.073.827.086c.235.014.472.01.714-.052l-.366-1.454a1 1 0 0 1-.263.009c-.17-.01-.39-.037-.731-.078zm1.588-1.71a.67.67 0 0 1-.413.29l.366 1.454a2.17 2.17 0 0 0 1.324-.958zm-1.39-2.31c.336.04.655.08.92.124q.2.033.321.064c.092.023.11.035.09.024l.71-1.321c-.251-.135-.608-.203-.874-.247c-.305-.05-.66-.094-.986-.133zm3.042 1.649c.042-.298.079-.561.093-.782a2 2 0 0 0-.06-.713l-1.441.416c.002.01.014.054.004.2c-.01.152-.037.352-.082.672zm-1.71-1.437a.6.6 0 0 1 .303.358l1.44-.416a2.1 2.1 0 0 0-1.034-1.263zm-5.39.576c.045-.32.074-.52.106-.67a.7.7 0 0 1 .062-.197L1.909 17.6a2.1 2.1 0 0 0-.25.67c-.047.216-.083.479-.125.777zm2.11-2.536c-.326-.04-.68-.082-.989-.106c-.27-.02-.632-.04-.907.03l.367 1.454c-.02.005.003-.002.097-.003q.127 0 .328.015c.269.02.588.059.924.1zm-1.942 1.669a.67.67 0 0 1 .413-.29l-.367-1.455a2.17 2.17 0 0 0-1.324.958zm-1.653.66c-.041.298-.078.561-.093.781c-.015.228-.01.467.06.714l1.442-.417a.6.6 0 0 1-.005-.199c.01-.153.037-.353.082-.672zm2.687 1.606c-.34-.042-.56-.069-.728-.1a1 1 0 0 1-.247-.07l-.71 1.322c.22.119.45.18.682.223c.225.042.5.075.822.114zm-2.72-.111a2.1 2.1 0 0 0 1.035 1.263l.71-1.322a.6.6 0 0 1-.303-.358zm4.28-2.976l.854-6.131l-1.486-.207l-.853 6.132zm1.498-6.08l-.853 6.132l1.486.207l.853-6.132zm13.732 1.184l.58-.477zm-2.544-.218l-.72.207a.75.75 0 0 0 .902.52zm1.595-.294l.092-.744zm-.32 3.354a.75.75 0 0 0 .365 1.455zm1.376.323l.436.61zm.547-.886l.743.105zm-6.705 1.678l-.58.476zm.858 1.256a.75.75 0 1 0 .183-1.49zm-1.512-3.536l-.743-.105zm2.086-1.376l.182.727a.75.75 0 0 0 .54-.934zm-1.538.49l.437.61zm1.133-10.942l.182.727zm-2.766.692l-.182-.728zm4.964-.388l-.58.476zm-.949-.511l.092-.745zm-.483 4.167l-.182-.727a.75.75 0 0 0-.539.934zm1.539-.49l-.437-.61zm.548-.886l-.743-.105zM12.135 6.78l.58-.476zm2.544.218l.721-.207a.75.75 0 0 0-.903-.52zm-1.595.294l.092-.744zM11.481 4.5l.743.104zm.548-.886l.437.61zm10.137 9.961c-.084-.29-.157-.546-.233-.754a2.1 2.1 0 0 0-.341-.629l-1.16.953a.7.7 0 0 1 .093.192c.053.146.11.34.199.652zm-3.516-.397c.327-.082.638-.16.901-.213q.197-.04.323-.055c.093-.01.117-.006.098-.009l.183-1.488c-.282-.035-.638.028-.903.082c-.303.062-.648.149-.966.228zm2.942-.986a2.2 2.2 0 0 0-1.437-.78l-.183 1.49a.7.7 0 0 1 .46.243zm-1.484 4.774c.313-.079.582-.145.8-.215a2.2 2.2 0 0 0 .647-.307l-.873-1.22a1 1 0 0 1-.231.098a12 12 0 0 1-.707.188zm.616-2.977c.09.311.145.507.176.657c.03.144.025.188.024.198l1.485.209a2 2 0 0 0-.04-.715c-.046-.216-.12-.473-.203-.763zm.831 2.455c.46-.33.775-.827.854-1.391l-1.485-.21a.57.57 0 0 1-.242.382zm-7.747-.725c.083.29.156.547.233.755c.079.215.179.43.34.628l1.16-.953a.7.7 0 0 1-.092-.192a11 11 0 0 1-.2-.652zm.574 1.383c.359.437.878.711 1.437.78l.183-1.49a.7.7 0 0 1-.461-.243zm.868-1.797c-.09-.311-.145-.506-.177-.657a.6.6 0 0 1-.023-.197l-1.486-.21a2 2 0 0 0 .041.715c.046.217.12.473.203.763zm.961-3.063c-.317.08-.663.166-.958.254c-.256.076-.603.188-.835.354l.874 1.22c-.02.014-.006 0 .082-.034q.116-.046.307-.103c.257-.076.568-.154.894-.236zm-1.161 2.209a.57.57 0 0 1 .242-.381l-.874-1.22a2.07 2.07 0 0 0-.854 1.391zm.756-12.66l-2.766.691l.364 1.455l2.766-.692zM19.34 3.73c-.084-.29-.157-.547-.233-.755a2.1 2.1 0 0 0-.341-.628l-1.16.952a.7.7 0 0 1 .093.193c.053.145.11.34.199.652zm-3.17-.484c.332-.083.546-.136.713-.167a1 1 0 0 1 .263-.023l.183-1.489a2.3 2.3 0 0 0-.716.037c-.225.041-.494.109-.807.187zm2.596-.899a2.2 2.2 0 0 0-1.437-.78l-.183 1.49a.7.7 0 0 1 .46.242zm-1.83 4.86c.318-.08.663-.166.958-.254c.257-.076.604-.188.835-.354l-.873-1.22c.02-.014.005 0-.082.034q-.116.046-.308.103c-.257.076-.567.154-.894.236zm.962-3.063c.09.311.145.506.176.657c.03.143.025.188.024.197l1.485.21a2 2 0 0 0-.04-.716c-.046-.216-.12-.472-.203-.762zm.831 2.455c.46-.33.775-.827.854-1.391l-1.485-.21a.57.57 0 0 1-.242.381zm-7.747-.725c.083.29.156.546.233.754c.079.216.179.431.34.629l1.16-.953a.7.7 0 0 1-.092-.192a11 11 0 0 1-.2-.652zm3.515.397c-.326.081-.637.159-.9.213a4 4 0 0 1-.323.055c-.094.01-.118.006-.098.009l-.183 1.488c.281.035.637-.028.903-.083c.302-.061.648-.148.965-.227zm-2.941.986c.359.436.878.71 1.437.78l.183-1.49a.7.7 0 0 1-.461-.243zm.868-1.797c-.09-.311-.145-.507-.177-.657a.6.6 0 0 1-.023-.198l-1.486-.21a2 2 0 0 0 .041.716c.046.216.12.472.203.763zm.616-2.977c-.313.078-.582.145-.8.215c-.223.071-.444.16-.648.307l.874 1.22a1 1 0 0 1 .23-.098c.162-.052.376-.106.708-.189zm-.816 2.122a.57.57 0 0 1 .242-.38l-.874-1.22a2.07 2.07 0 0 0-.854 1.39zm1.734 2.6l1.714 5.973l1.442-.414L15.4 6.79zm5.231 5.04l-1.714-5.973l-1.442.414l1.714 5.973z"/></svg>