<svg viewBox="0 0 24 24"><path fill="currentColor" fill-rule="evenodd" d="M4.975 6.25h.05c.445 0 .816 0 1.12.02c.317.022.617.07.907.19a2.75 2.75 0 0 1 1.489 1.488c.075.181.114.387.138.563c.025.188.041.396.051.61c.01.198.014.411.017.629h6.506c.003-.218.008-.431.017-.63c.01-.213.026-.421.051-.609c.024-.176.063-.382.138-.563a2.75 2.75 0 0 1 1.489-1.489c.29-.12.59-.167.907-.188c.304-.021.675-.021 1.12-.021h.05c.445 0 .816 0 1.12.02c.317.022.617.07.907.19a2.75 2.75 0 0 1 1.489 1.488c.12.29.167.59.188.907c.021.304.021.675.021 1.12v4.05c0 .445 0 .816-.02 1.12a2.8 2.8 0 0 1-.19.907a2.75 2.75 0 0 1-1.488 1.489c-.29.12-.59.167-.907.188c-.304.021-.675.021-1.12.021h-.05c-.445 0-.816 0-1.12-.02a2.8 2.8 0 0 1-.907-.19a2.75 2.75 0 0 1-1.489-1.488a2.3 2.3 0 0 1-.138-.563a7 7 0 0 1-.051-.61a18 18 0 0 1-.017-.629H8.747c-.003.218-.008.431-.017.63c-.01.213-.026.421-.051.609a2.3 2.3 0 0 1-.138.563a2.75 2.75 0 0 1-1.489 1.489c-.29.12-.59.167-.907.188c-.304.021-.675.021-1.12.021h-.05c-.445 0-.816 0-1.12-.02a2.8 2.8 0 0 1-.907-.19a2.75 2.75 0 0 1-1.489-1.488c-.12-.29-.167-.59-.188-.907c-.021-.304-.021-.675-.021-1.12v-4.05c0-.445 0-.816.02-1.12a2.8 2.8 0 0 1 .19-.907a2.75 2.75 0 0 1 1.488-1.489c.29-.12.59-.167.907-.188c.304-.021.675-.021 1.12-.021M3.957 7.767c-.241.017-.358.046-.435.078a1.25 1.25 0 0 0-.677.677c-.032.077-.061.194-.078.435A17 17 0 0 0 2.75 10v4c0 .476 0 .796.017 1.043c.017.241.046.358.078.435c.127.307.37.55.677.677c.077.032.194.061.435.078c.247.017.567.017 1.043.017s.796 0 1.043-.017c.241-.017.358-.046.435-.078c.307-.127.55-.37.677-.677c0 0 .005-.012.012-.045q.012-.054.026-.147q.026-.19.039-.477c.018-.383.018-.838.018-1.309a.75.75 0 0 1 .75-.75h8a.75.75 0 0 1 .75.75c0 .47 0 .926.018 1.309q.014.286.04.477q.012.093.025.147q.012.048.013.046c.126.307.37.549.676.676c.077.032.194.061.435.078c.247.017.567.017 1.043.017s.796 0 1.043-.017c.241-.017.358-.046.435-.078c.307-.127.55-.37.677-.677c.032-.077.061-.194.078-.435c.017-.247.017-.567.017-1.043v-4c0-.476 0-.796-.017-1.043c-.017-.241-.046-.358-.078-.435a1.25 1.25 0 0 0-.677-.677c-.077-.032-.194-.061-.435-.078A17 17 0 0 0 19 7.75c-.476 0-.796 0-1.043.017c-.241.017-.358.046-.435.078a1.25 1.25 0 0 0-.677.677l-.012.045a2 2 0 0 0-.026.147q-.025.19-.039.477c-.018.383-.018.838-.018 1.309a.75.75 0 0 1-.75.75H8a.75.75 0 0 1-.75-.75c0-.47 0-.926-.018-1.309a6 6 0 0 0-.04-.477a2 2 0 0 0-.025-.147q-.012-.047-.013-.046a1.25 1.25 0 0 0-.676-.676c-.077-.032-.194-.061-.435-.078A17 17 0 0 0 5 7.75c-.476 0-.796 0-1.043.017" clip-rule="evenodd"/></svg>