<svg viewBox="0 0 24 24"><path fill="currentColor" fill-rule="evenodd" d="M5.578 5.343a9.25 9.25 0 0 0 6.803 15.9c-.206-.912-.234-2.138.393-3.319c.652-1.229 2.002-1.762 2.995-2.006a9.2 9.2 0 0 1 1.898-.254h.043c1.673-.018 2.426-.562 2.826-1.08c.342-.444.47-.887.602-1.336l.05-.172A9.22 9.22 0 0 0 18.6 5.519l-.027.1c-.163.594-.425 1.202-.711 1.636c-.256.388-.752.78-1.164 1.076a10 10 0 0 1-.902.56c-.228.132-.433.25-.63.38c-.432.286-.766.593-.991 1.056a.67.67 0 0 0-.035.49c.075.272.126.578.126.889c.002.649-.328 1.176-.753 1.518a2.4 2.4 0 0 1-1.521.526c-2.455-.027-3.965-2.02-4.164-4.236c-.08-.881-.466-1.773-.954-2.552a8.8 8.8 0 0 0-1.296-1.62m1.167-.956a10.5 10.5 0 0 1 1.4 1.779c.558.89 1.069 2.012 1.177 3.214c.15 1.68 1.213 2.854 2.686 2.87a.9.9 0 0 0 .563-.194c.146-.117.196-.24.195-.346c0-.156-.026-.328-.072-.495a2.16 2.16 0 0 1 .131-1.542c.385-.794.956-1.285 1.514-1.653c.239-.158.487-.3.71-.43l.09-.05c.255-.148.48-.28.683-.427c.431-.31.704-.557.787-.684c.183-.276.388-.734.518-1.207c.103-.374.131-.662.122-.84A9.2 9.2 0 0 0 12 2.75a9.2 9.2 0 0 0-5.255 1.637M22.68 13.24q.07-.61.071-1.24c0-5.937-4.813-10.75-10.75-10.75S1.25 6.063 1.25 12S6.063 22.75 12 22.75c5.46 0 9.97-4.071 10.659-9.344a3 3 0 0 1 .048-.156zm-2.774 3.567c-.596.218-1.314.348-2.179.357h-.031l-.09.003a7.7 7.7 0 0 0-1.477.208c-.902.221-1.693.62-2.029 1.252c-.456.859-.39 1.793-.22 2.432a9.26 9.26 0 0 0 6.026-4.252" clip-rule="evenodd"/></svg>