<svg viewBox="0 0 24 24"><path fill="currentColor" d="M12 22c5.523 0 10-4.477 10-10S17.523 2 12 2S2 6.477 2 12s4.477 10 10 10" opacity=".5"/><path fill="currentColor" d="M14.898 11.224c.533-.143.792-.908.578-1.708s-.821-1.333-1.355-1.19c-.533.143-.792.907-.577 1.708c.214.8.82 1.333 1.354 1.19m-5.796 1.553c.534-.143.792-.908.578-1.708s-.82-1.333-1.354-1.19s-.792.907-.578 1.708s.82 1.333 1.354 1.19m-.917 2.974a.75.75 0 0 1 .91-.545c1.13.283 2.428.287 3.746-.066c1.318-.354 2.44-1.006 3.278-1.816a.75.75 0 1 1 1.043 1.078a8.4 8.4 0 0 1-1.15.928l.159.322a1.5 1.5 0 1 1-2.693 1.322l-.196-.4l-.053.014c-1.555.417-3.112.42-4.499.073a.75.75 0 0 1-.545-.91"/></svg>