<svg viewBox="0 0 24 24"><path fill="currentColor" d="m8.008 12.895l-.75.02zm.016.63l.75-.018zm-1.37 1.857l-.2-.723zm-1.981.546l.2.723zm-2.623-1.96l-.75.018zM2 12l.75-.019zm9.85-4.995l.02-.75zm8.918 3.72a.75.75 0 1 0 1.016-1.104zm-4.775 2.38l.75-.019zm.01.397l.75-.019zm1.746 2l.13-.738zm2.004.353l.13-.739zm-7.79-4.354l.02-.75zm10.786 2.44a.75.75 0 1 0-1.5.037zM2.406 10.63l-.585-.47zm5.357-3.986a.75.75 0 1 0 .342 1.46zM4.724 9.536a.75.75 0 1 0-.835-1.247zm2.534 3.378l.016.63l1.5-.037l-.016-.63zm-.803 1.745l-1.982.546l.4 1.446l1.98-.546zm-3.655-.71l-.05-1.967l-1.499.038l.05 1.966zm9.03-6.193c5.22.138 7.9 2.013 8.938 2.97l1.016-1.104c-1.29-1.188-4.312-3.218-9.914-3.365zm3.413 5.369l.01.397l1.5-.038l-.01-.397zm2.376 3.117l2.004.352l.26-1.477l-2.004-.352zm-1.626-3.136l.75-.02v-.016l-.002-.02a1 1 0 0 0-.024-.166a1.6 1.6 0 0 0-.112-.33a2.2 2.2 0 0 0-.675-.807c-.686-.523-1.876-.94-3.947-.995l-.04 1.5c1.921.05 2.747.436 3.077.688c.16.121.21.216.225.246l.005.012l-.005-.046l-.001-.013v-.012c0-.001 0-.002.75-.021m-4.01-2.354c-2.065-.054-3.254.297-3.94.804c-.352.26-.557.55-.669.814a1.5 1.5 0 0 0-.114.46l-.002.076v.006c0 .001 0 .002.75-.017c.75-.018.75-.018.75-.016v.005l-.004.07q-.004.018.001.002a.5.5 0 0 1 .179-.193c.293-.217 1.082-.562 3.01-.511zm7.64 5.842c1.664.293 3.169-.953 3.126-2.653l-1.5.038c.019.721-.605 1.272-1.366 1.138zM2.751 11.982c-.01-.385.079-.681.24-.884l-1.17-.937c-.45.561-.585 1.244-.57 1.859zm12.502 1.54c.034 1.343 1.044 2.487 2.366 2.72l.26-1.477c-.636-.112-1.11-.668-1.126-1.28zm-10.78 1.683c-.796.22-1.652-.41-1.673-1.257l-1.5.038c.046 1.809 1.824 3.148 3.572 2.665zm2.801-1.66c.014.53-.319.976-.82 1.114l.4 1.446a2.61 2.61 0 0 0 1.92-2.598zm.83-5.44c1.05-.245 2.283-.387 3.726-.349l.04-1.5c-1.565-.04-2.927.112-4.107.388zm-5.112 2.993a7.7 7.7 0 0 1 1.732-1.562L3.89 8.289a9.2 9.2 0 0 0-2.068 1.872z"/></svg>