<svg viewBox="0 0 24 24"><g fill="none"><path fill="currentColor" d="m5.505 11.41l.53.53zM3 14.952h-.75zm9.59 3.543l-.53-.53zM9.048 21v.75zM11.41 5.505l-.53-.53zm1.831 12.34a.75.75 0 0 0 1.06-1.061zM7.216 9.697a.75.75 0 1 0-1.06 1.061zm8.857 6.375a.75.75 0 1 0-1.06-1.06zm2.395-4.517a.75.75 0 1 0 1.064 1.056zm-12.433.384l5.905-5.905l-1.06-1.06l-5.905 5.904zm0 6.025c-.85-.85-1.433-1.436-1.812-1.933c-.367-.481-.473-.79-.473-1.08h-1.5c0 .749.312 1.375.78 1.99c.455.596 1.125 1.263 1.945 2.083zm-1.06-7.086c-.82.82-1.49 1.488-1.945 2.084c-.468.614-.78 1.24-.78 1.99h1.5c0-.29.106-.6.473-1.08c.38-.498.962-1.083 1.812-1.933zm7.085 7.086c-.85.85-1.435 1.433-1.933 1.813c-.48.366-.79.472-1.08.472v1.5c.75 0 1.376-.312 1.99-.78c.596-.455 1.264-1.125 2.084-1.945zm-7.085 1.06c.82.82 1.487 1.49 2.084 1.945c.614.468 1.24.78 1.989.78v-1.5c-.29 0-.599-.106-1.08-.473c-.497-.38-1.083-.962-1.933-1.812zm12.99-12.99c.85.85 1.433 1.436 1.813 1.933c.366.481.472.79.472 1.08h1.5c0-.749-.312-1.375-.78-1.99c-.455-.596-1.125-1.263-1.945-2.083zm1.06-1.06c-.82-.82-1.487-1.49-2.084-1.945c-.614-.468-1.24-.78-1.989-.78v1.5c.29 0 .599.106 1.08.473c.497.38 1.083.962 1.933 1.812zm-7.085 1.06c.85-.85 1.435-1.433 1.933-1.812c.48-.367.79-.473 1.08-.473v-1.5c-.75 0-1.376.312-1.99.78c-.596.455-1.264 1.125-2.084 1.945zm2.362 10.749L7.216 9.698l-1.06 1.061l7.085 7.085zm.71-1.772l-2.952 2.953l1.06 1.06l2.953-2.952zm4.52-2.4c.661-.666 1.206-1.236 1.582-1.772c.388-.553.636-1.125.636-1.792h-1.5c0 .26-.086.534-.364.931c-.291.415-.746.9-1.418 1.577z"/><path stroke="currentColor" stroke-linecap="round" stroke-width="1.5" d="M9 21h12"/></g></svg>