<svg viewBox="0 0 24 24"><g fill="currentColor" fill-rule="evenodd" clip-rule="evenodd"><path d="M12.888 16.896c-.526.526-.973.974-1.378 1.283c-.432.329-.902.571-1.478.571s-1.046-.242-1.478-.571c-.405-.31-.852-.757-1.379-1.283l-.07-.071c-.527-.527-.975-.974-1.284-1.38c-.329-.43-.571-.901-.571-1.477s.242-1.046.571-1.478c.31-.405.757-.852 1.283-1.378l4.008-4.008c.526-.526.973-.974 1.378-1.283c.432-.329.902-.571 1.478-.571s1.046.242 1.478.571c.405.31.852.757 1.379 1.283l.07.071c.527.527.975.974 1.284 1.38c.329.43.571.901.571 1.477s-.242 1.046-.571 1.478c-.31.405-.757.852-1.283 1.378zM12.137 8.2c.571-.571.948-.946 1.263-1.186c.298-.228.452-.264.568-.264s.27.036.568.264c.315.24.692.615 1.264 1.186c.571.572.946.949 1.186 1.264c.228.298.264.452.264.568s-.036.27-.264.568c-.24.315-.615.692-1.186 1.263l-2.62 2.619l-3.662-3.663zm-3.68 3.68l3.663 3.663l-.257.257c-.571.571-.948.946-1.263 1.186c-.298.228-.452.264-.568.264s-.27-.036-.568-.264c-.315-.24-.692-.615-1.264-1.186c-.571-.572-.946-.949-1.186-1.264c-.228-.298-.264-.452-.264-.568s.036-.27.264-.568c.24-.315.615-.692 1.186-1.263z"/><path d="M12 1.25C6.063 1.25 1.25 6.063 1.25 12S6.063 22.75 12 22.75S22.75 17.937 22.75 12S17.937 1.25 12 1.25M2.75 12a9.25 9.25 0 1 1 18.5 0a9.25 9.25 0 0 1-18.5 0"/></g></svg>