<svg viewBox="0 0 24 24"><path fill="currentColor" d="M16 10.5c0 .829-.448 1.5-1 1.5c-.553 0-1-.671-1-1.5c0-.828.447-1.5 1-1.5s1 .672 1 1.5m-6 0c0 .829-.448 1.5-1 1.5s-1-.671-1-1.5C8 9.672 8.448 9 9 9s1 .672 1 1.5"/><path fill="currentColor" fill-rule="evenodd" d="M13.265 2.051a.75.75 0 0 1 .884-.586a10.76 10.76 0 0 1 8.386 8.386a.75.75 0 0 1-1.47.298a9.26 9.26 0 0 0-7.214-7.214a.75.75 0 0 1-.586-.884m-2.53 0a.75.75 0 0 1-.586.884a9.26 9.26 0 0 0-7.214 7.215a.75.75 0 0 1-1.47-.299A10.76 10.76 0 0 1 9.85 1.465a.75.75 0 0 1 .884.586M2.051 13.265a.75.75 0 0 1 .884.586a9.26 9.26 0 0 0 7.214 7.214a.75.75 0 1 1-.298 1.47a10.76 10.76 0 0 1-8.386-8.385a.75.75 0 0 1 .586-.885m19.898 0a.75.75 0 0 1 .586.885a10.76 10.76 0 0 1-8.386 8.385a.75.75 0 0 1-.298-1.47a9.26 9.26 0 0 0 7.214-7.214a.75.75 0 0 1 .884-.586M8.397 15.554a.75.75 0 0 1 1.05-.156c.728.54 1.607.852 2.553.852s1.825-.312 2.553-.852a.75.75 0 1 1 .893 1.205A5.77 5.77 0 0 1 12 17.75a5.77 5.77 0 0 1-3.447-1.147a.75.75 0 0 1-.156-1.05" clip-rule="evenodd"/></svg>