<svg viewBox="0 0 24 24"><g fill="currentColor" fill-rule="evenodd" clip-rule="evenodd"><path d="M10.801 2.57a.71.71 0 0 1-.555.838a8.78 8.78 0 0 0-6.838 6.838a.71.71 0 1 1-1.394-.283a10.2 10.2 0 0 1 7.949-7.949a.71.71 0 0 1 .838.556M2.57 13.199a.71.71 0 0 1 .838.555a8.78 8.78 0 0 0 6.838 6.838a.71.71 0 1 1-.283 1.394a10.2 10.2 0 0 1-7.948-7.949a.71.71 0 0 1 .555-.838M13.199 2.57a.71.71 0 0 1 .838-.556a10.2 10.2 0 0 1 7.949 7.949a.711.711 0 0 1-1.394.283a8.78 8.78 0 0 0-6.838-6.838a.71.71 0 0 1-.555-.838m8.231 10.629a.71.71 0 0 1 .556.838a10.2 10.2 0 0 1-7.949 7.949a.711.711 0 0 1-.283-1.394a8.78 8.78 0 0 0 6.838-6.838a.71.71 0 0 1 .838-.555"/><path d="M12 19.583a7.583 7.583 0 1 0 0-15.166a7.583 7.583 0 0 0 0 15.166m-3.06-5.044a.71.71 0 0 1 .995-.148c.59.437 1.3.69 2.065.69a3.45 3.45 0 0 0 2.065-.69a.71.71 0 1 1 .846 1.142a4.87 4.87 0 0 1-2.911.97a4.87 4.87 0 0 1-2.911-.97a.71.71 0 0 1-.148-.994m6.377-4.139c0 .688-.37 1.245-.829 1.245s-.83-.557-.83-1.245c0-.687.372-1.244.83-1.244s.83.557.83 1.244m-5.805 1.245c.458 0 .83-.557.83-1.245c0-.687-.372-1.244-.83-1.244s-.83.557-.83 1.244c0 .688.372 1.245.83 1.245"/></g></svg>