<svg viewBox="0 0 24 24"><path fill="currentColor" d="M3.464 3.464C2 4.93 2 7.286 2 12v.25a.8.8 0 0 1 .279.054L7 14.192l2.864-1.146a5.75 5.75 0 0 1 4.272 0L17 14.192l4.721-1.888A.8.8 0 0 1 22 12.25V12c0-4.714 0-7.071-1.465-8.536C19.072 2 16.714 2 12 2S4.929 2 3.464 3.464" opacity=".5"/><path fill="currentColor" d="M10 10.5c0 .828-.448 1.5-1 1.5s-1-.672-1-1.5S8.448 9 9 9s1 .672 1 1.5m6 0c0 .828-.448 1.5-1 1.5s-1-.672-1-1.5s.448-1.5 1-1.5s1 .672 1 1.5m5.996 3.31l-4.281 1.712l-.206 2.88l3.287 1.409a.8.8 0 0 1 .216.141c.834-1.262.964-3.112.984-6.142m-2.108 7.244l-2.492-1.068l-.133 1.86c1.1-.13 1.946-.364 2.625-.792m-4.137.903l.001-.01l.461-6.454l-2.635-1.054a4.25 4.25 0 0 0-3.156 0l-2.635 1.054l.461 6.454v.01C9.303 22 10.539 22 12 22c1.463 0 2.699 0 3.751-.043m-9.014-.112l-.133-1.86l-2.492 1.069c.679.428 1.524.663 2.625.791m-3.749-1.893a.8.8 0 0 1 .217-.141l3.286-1.409l-.205-2.88l-4.282-1.712c.02 3.03.15 4.88.984 6.142"/></svg>