<svg viewBox="0 0 24 24"><g fill="none"><path stroke="currentColor" stroke-linecap="round" stroke-width="1.5" d="M9 16c.85.63 1.885 1 3 1s2.15-.37 3-1"/><ellipse cx="15" cy="10.5" fill="currentColor" rx="1" ry="1.5"/><ellipse cx="9" cy="10.5" fill="currentColor" rx="1" ry="1.5"/><path stroke="currentColor" stroke-linecap="round" stroke-width="1.5" d="M22 14c0 3.771 0 5.657-1.172 6.828S17.771 22 14 22m-4 0c-3.771 0-5.657 0-6.828-1.172S2 17.771 2 14m8-12C6.229 2 4.343 2 3.172 3.172S2 6.229 2 10m12-8c3.771 0 5.657 0 6.828 1.172S22 6.229 22 10" opacity=".5"/></g></svg>