<svg viewBox="0 0 24 24"><path fill="currentColor" d="M4.172 3.172C3 4.343 3 6.229 3 10v4c0 3.771 0 5.657 1.172 6.828S7.229 22 11 22h2c3.771 0 5.657 0 6.828-1.172S21 17.771 21 14v-4c0-3.771 0-5.657-1.172-6.828S16.771 2 13 2h-2C7.229 2 5.343 2 4.172 3.172" opacity=".5"/><path fill="currentColor" d="M6 12c0-1.414 0-2.121.44-2.56C6.878 9 7.585 9 9 9h6c1.414 0 2.121 0 2.56.44c.44.439.44 1.146.44 2.56v4c0 1.414 0 2.121-.44 2.56c-.439.44-1.146.44-2.56.44H9c-1.414 0-2.121 0-2.56-.44C6 18.122 6 17.415 6 16zm1-6.75a.75.75 0 0 0 0 1.5h5a.75.75 0 0 0 0-1.5z"/></svg>