<svg viewBox="0 0 24 24"><path fill="currentColor" fill-rule="evenodd" d="M9.25 11a2.75 2.75 0 1 1 5.5 0a2.75 2.75 0 0 1-5.5 0" clip-rule="evenodd" opacity=".5"/><path fill="currentColor" d="m9.821 12.678l-4.976 8.958a.75.75 0 0 0 1.31.728l4.883-8.787a2.76 2.76 0 0 1-1.217-.9m3.142.9l4.882 8.787a.75.75 0 0 0 1.31-.728l-4.976-8.958c-.31.403-.731.717-1.216.899M12 5.25a1.75 1.75 0 1 1 0-3.5a1.75 1.75 0 0 1 0 3.5M2.75 7.5a1.75 1.75 0 1 1 3.5 0a1.75 1.75 0 0 1-3.5 0M19.5 5.75a1.75 1.75 0 1 0 0 3.5a1.75 1.75 0 0 0 0-3.5m0 8.5a1.75 1.75 0 1 0 0 3.5a1.75 1.75 0 0 0 0-3.5m-15 0a1.75 1.75 0 1 0 0 3.5a1.75 1.75 0 0 0 0-3.5m5.75 5.25a1.75 1.75 0 1 0 3.5 0a1.75 1.75 0 0 0-3.5 0"/><path fill="currentColor" fill-rule="evenodd" d="M10.637 4.597a1.74 1.74 0 0 1-.335-1.524l-.098.052L5.41 5.739a4 4 0 0 0-.241.143c.491.204.87.624 1.016 1.143zM4.955 9.19a1.75 1.75 0 0 1-1.498-.285l-.002.126v4.938q0 .301.047.593a1.74 1.74 0 0 1 1.48-.245a2 2 0 0 1-.027-.348zm1.295 6.82a1.75 1.75 0 0 1-.653 1.353l4.607 2.512l.098.052a1.75 1.75 0 0 1 .335-1.524zm7.113 2.392a1.74 1.74 0 0 1 .335 1.524l.096-.05l4.608-2.513a1.75 1.75 0 0 1-.652-1.353zm5.653-4.084a1.75 1.75 0 0 1 1.48.243q.048-.292.048-.592V9.03q0-.062-.003-.125a1.74 1.74 0 0 1-1.497.284v4.779q0 .177-.028.349m-1.2-7.293a1.75 1.75 0 0 1 1.015-1.142a4 4 0 0 0-.242-.144l-4.794-2.614l-.097-.051a1.75 1.75 0 0 1-.335 1.524z" clip-rule="evenodd" opacity=".5"/></svg>