<svg viewBox="0 0 24 24"><path fill="currentColor" d="m11.51 2.26l-.01 2.835c0 1.097 0 2.066.105 2.848c.114.847.375 1.694 1.067 2.385c.69.691 1.538.953 2.385 1.067c.781.105 1.751.105 2.848.105h4.052q.02.232.028.5H22c0-.268 0-.402-.01-.56a5.3 5.3 0 0 0-.958-2.641c-.094-.128-.158-.204-.285-.357C19.954 7.494 18.91 6.312 18 5.5c-.81-.724-1.921-1.515-2.89-2.161c-.832-.556-1.248-.834-1.819-1.04a6 6 0 0 0-.506-.154c-.384-.095-.758-.128-1.285-.14z"/><path fill="currentColor" d="M2 13.662V9.775C2 6.11 2 4.277 3.172 3.139C4.343 2 6.239 2 10.03 2c.591 0 1.068 0 1.47.015l.01.244l-.01 2.749v.18c0 1.059.003 1.995.105 2.755c.114.847.375 1.694 1.067 2.385c.69.691 1.538.953 2.385 1.067c.781.105 1.751.105 2.848.105h4.052q.02.232.028.5h.008c.007.357.007.765.007 1.238v1.106l-.012.006a5 5 0 0 0-.267.146a3.17 3.17 0 0 1-3.43 0a2.38 2.38 0 0 0-2.572 0a3.17 3.17 0 0 1-3.43 0a2.38 2.38 0 0 0-2.572 0a3.17 3.17 0 0 1-3.43 0a2.38 2.38 0 0 0-2.572 0c-.138.088-.206.133-.256.158c-.386.194-1.017.027-1.459-.29z" opacity=".5"/><path fill="currentColor" d="M10 22h4c3.771 0 5.657 0 6.829-.933c1.096-.874 1.166-2.246 1.171-4.881l-.012.005a5 5 0 0 0-.267.12c-1.039.55-2.392.55-3.43 0a2.82 2.82 0 0 0-2.572 0c-1.039.55-2.392.55-3.43 0a2.82 2.82 0 0 0-2.573 0c-1.038.55-2.39.55-3.43 0a2.82 2.82 0 0 0-2.572 0a4 4 0 0 1-.255.129c-.386.159-1.017.022-1.459-.238c.005 2.625.077 3.993 1.171 4.865C4.343 22 6.23 22 10 22"/></svg>