<svg viewBox="0 0 24 24"><g fill="none"><path stroke="currentColor" stroke-width="1.5" d="M13 2.5V5c0 2.357 0 3.536.732 4.268S15.643 10 18 10h4"/><path fill="currentColor" d="m15.397 4.054l-.501.557zm3.96 3.563l-.501.557zm2.303 2.537l-.685.305zM3.172 20.828l.53-.53zm17.663 0l-.53-.53zm-2.544-7.97l.416-.625zm3.43 0l-.416-.625zm-12.004 0l-.416-.625zm2.572 0l.416-.625zm-6.002 0l-.416.623zm-2.572 0l-.416-.625zm14.576 4l.416-.625zm3.43 0l.416.623zm-6.002 0l-.416-.625zm-3.43 0l.416-.625zm-2.572 0l-.416-.625zm6.002-4l-.416-.625zm-9.432 4l-.416.623zm-2.572 0l-.416-.625zm-.626.416l.416.625zm-.81 1.84l.729-.173zm19.693-2.116l.749.03zm.028-4.67l.75-.015zM2.214 18.072l.698.274zm-.208-5.83l.746-.084zm1.454.777l.344.666zm10.544 8.23h-4.001v1.5h4zM2.75 11.94V10h-1.5v1.94zm12.146-7.33l3.96 3.563l1.003-1.115l-3.96-3.563zm3.96 3.563c1.354 1.218 1.853 1.688 2.12 2.285l1.37-.61c-.427-.957-1.232-1.66-2.487-2.79zM10.032 2.75c1.583 0 2.18.012 2.712.216l.537-1.4c-.852-.328-1.78-.316-3.249-.316zm5.867.746c-1.086-.977-1.766-1.604-2.618-1.93l-.537 1.4c.533.204.982.592 2.152 1.645zM10.003 21.25c-1.908 0-3.263-.002-4.291-.14c-1.006-.135-1.586-.389-2.01-.812l-1.06 1.06c.748.75 1.697 1.081 2.87 1.239c1.151.155 2.626.153 4.49.153zm4 1.5c1.866 0 3.34.002 4.491-.153c1.173-.158 2.122-.49 2.87-1.238l-1.06-1.061c-.423.423-1.003.677-2.01.812c-1.027.138-2.383.14-4.29.14zM2.75 10c0-1.907.002-3.261.14-4.29c.135-1.005.389-1.585.812-2.008l-1.06-1.06C1.893 3.39 1.56 4.337 1.403 5.51C1.248 6.66 1.25 8.136 1.25 10zm7.282-8.75c-1.875 0-3.356-.002-4.512.153c-1.177.158-2.13.49-2.878 1.238l1.06 1.061c.423-.423 1.005-.677 2.017-.812c1.033-.138 2.396-.14 4.313-.14zm7.843 12.231c1.29.86 2.971.86 4.262 0l-.832-1.248a2.34 2.34 0 0 1-2.598 0zm-7.742 0a1.57 1.57 0 0 1 1.74 0l.832-1.248a3.07 3.07 0 0 0-3.404 0zm-4.262 0c1.29.86 2.971.86 4.262 0L9.3 12.233a2.34 2.34 0 0 1-2.598 0zm-1.74 0a1.57 1.57 0 0 1 1.74 0l.832-1.248a3.07 3.07 0 0 0-3.404 0zm13.744 4c1.29.86 2.971.86 4.262 0l-.832-1.248a2.34 2.34 0 0 1-2.598 0zm-1.74 0a1.57 1.57 0 0 1 1.74 0l.832-1.248a3.07 3.07 0 0 0-3.404 0zm-4.262 0c1.29.86 2.971.86 4.262 0l-.832-1.248a2.34 2.34 0 0 1-2.598 0zm-1.74 0a1.57 1.57 0 0 1 1.74 0l.832-1.248a3.07 3.07 0 0 0-3.404 0zm6.002-4a1.57 1.57 0 0 1 1.74 0l.832-1.248a3.07 3.07 0 0 0-3.404 0zm-10.264 4c1.29.86 2.971.86 4.262 0L9.3 16.233a2.34 2.34 0 0 1-2.598 0zm6.002-4c1.29.86 2.971.86 4.262 0l-.832-1.248a2.34 2.34 0 0 1-2.598 0zm-7.742 4a1.57 1.57 0 0 1 1.74 0l.832-1.248a3.07 3.07 0 0 0-3.404 0zm-.626.418l.626-.418l-.832-1.248l-.626.417zm-1.956 1.39c.195.818.526 1.503 1.093 2.07l1.06-1.061c-.325-.325-.547-.74-.694-1.357zm19.673-2.322c-.077 1.864-.33 2.743-.918 3.331l1.06 1.06c1.03-1.028 1.279-2.447 1.357-4.33zm1.528-4.654c-.019-.992-.085-1.747-.404-2.464l-1.37.61c.187.421.256.912.274 1.882zm-.613 1.168c.386-.257.622-.695.613-1.168l-1.5.028a.13.13 0 0 1 .055-.108zm-19.464 3.17a7 7 0 0 0-.657.47a1.7 1.7 0 0 0-.5.677l1.396.55l.01-.019a.5.5 0 0 1 .071-.07c.098-.084.244-.182.512-.36zm.335 2.29a4 4 0 0 1-.103-.496c-.006-.066 0-.08.007-.098l-1.396-.549c-.217.554-.071 1.054.033 1.49zm19.129-1.46a.589.589 0 0 1-.915-.514l1.499.062a.911.911 0 0 0-1.416-.796zM1.25 11.94c0 .139-.001.277.01.385l1.492-.166l-.001-.039l-.001-.18zm2.049.293l-.15.1c-.036.023-.042.025-.034.02l.69 1.333c.096-.05.21-.128.326-.205zm-2.038.092a1.75 1.75 0 0 0 2.543 1.361l-.689-1.332a.25.25 0 0 1-.363-.195z"/></g></svg>