<svg viewBox="0 0 24 24"><path fill="currentColor" d="m19.352 7.617l-3.96-3.563c-1.127-1.015-1.69-1.523-2.383-1.788L13 5c0 2.357 0 3.536.732 4.268S15.643 10 18 10h3.58c-.362-.704-1.012-1.288-2.228-2.383"/><path fill="currentColor" fill-rule="evenodd" d="M10 22h4c3.771 0 5.657 0 6.828-1.172S22 17.771 22 14v-.437c0-.873 0-1.529-.043-2.063h-4.052c-1.097 0-2.067 0-2.848-.105c-.847-.114-1.694-.375-2.385-1.066c-.692-.692-.953-1.539-1.067-2.386c-.105-.781-.105-1.75-.105-2.848l.01-2.834q0-.124.02-.244C11.121 2 10.636 2 10.03 2C6.239 2 4.343 2 3.172 3.172C2 4.343 2 6.229 2 10v4c0 3.771 0 5.657 1.172 6.828S6.229 22 10 22m-.987-9.047a.75.75 0 0 0-1.026 0l-2 1.875a.75.75 0 0 0 1.026 1.094l.737-.69V18.5a.75.75 0 0 0 1.5 0v-3.269l.737.691a.75.75 0 0 0 1.026-1.094z" clip-rule="evenodd"/></svg>