<svg viewBox="0 0 24 24"><path fill="currentColor" d="M12 1.25a.75.75 0 0 1 .75.75v3a.75.75 0 0 1-1.5 0V2a.75.75 0 0 1 .75-.75"/><path fill="currentColor" fill-rule="evenodd" d="M5.955 7.25h12.09c.432 0 .83 0 1.152.043c.355.048.731.16 1.04.47s.422.684.47 1.04c.043.323.043.72.043 1.152v.297c0 .325.002.677-.133 1.003c-.136.327-.385.575-.616.805l-.057.056l-3.242 3.243c-.622.621-.775.793-.857.991s-.095.428-.095 1.307V22a.75.75 0 0 1-1.5 0v-4.464c0-.284 0-.544.013-.786H9.737c.013.242.013.502.013.786V22a.75.75 0 0 1-1.5 0v-4.343c0-.879-.013-1.11-.095-1.307c-.082-.198-.236-.37-.857-.991l-3.243-3.243L4 12.06c-.231-.23-.48-.478-.616-.805c-.135-.326-.134-.678-.133-1.003v-.297c0-.433 0-.83.043-1.152c.048-.356.16-.731.47-1.04c.308-.31.684-.422 1.04-.47c.322-.043.72-.043 1.152-.043m9.6 7.134c-.311.31-.582.581-.793.866H9.237c-.21-.285-.481-.555-.793-.867L5.81 11.75h12.38zm3.695-4.134V10c0-.493-.002-.787-.03-.997a.7.7 0 0 0-.037-.167l-.003-.006l-.002-.004l-.001-.003l-.003-.001l-.004-.002l-.006-.003a.7.7 0 0 0-.167-.037c-.21-.028-.505-.03-.997-.03H6c-.493 0-.787.002-.998.03a.7.7 0 0 0-.176.042l-.003.001l-.001.003l-.005.01a.7.7 0 0 0-.037.167c-.029.21-.03.504-.03.997v.25z" clip-rule="evenodd"/><path fill="currentColor" d="M6.53 2.47a.75.75 0 0 0-1.06 1.06l2 2a.75.75 0 0 0 1.06-1.06zm12 0a.75.75 0 0 0-1.06 0l-2 2a.75.75 0 0 0 1.06 1.06l2-2a.75.75 0 0 0 0-1.06M12.75 19a.75.75 0 0 0-1.5 0v2a.75.75 0 0 0 1.5 0z"/></svg>