<svg viewBox="0 0 24 24"><g fill="none"><path fill="currentColor" d="m14.46 18.745l.53.53zm.767-.767l-.53-.53zm3.255-4.603h.75zM6.022 8.772l.53.53zm4.603-3.254v.75zm-5.37 4.021l-.53-.53zM2 14.142h-.75zm3.785-.53a.75.75 0 0 0-1.06 1.06zm3.542 5.663a.75.75 0 0 0 1.06-1.06zM5.785 10.07l.767-.767l-1.06-1.061l-.768.767zm8.912 7.378l-.767.767l1.06 1.06l.768-.767zm-.767.767c-1.1 1.1-1.873 1.87-2.534 2.375c-.644.491-1.094.66-1.539.66v1.5c.905 0 1.671-.374 2.449-.968c.76-.58 1.615-1.437 2.685-2.507zm-9.206 1.06c1.07 1.07 1.925 1.927 2.685 2.507c.778.594 1.544.968 2.448.968v-1.5c-.444 0-.894-.169-1.538-.66c-.661-.505-1.434-1.276-2.534-2.375zm9.973-9.972c1.1 1.1 1.87 1.872 2.375 2.534c.492.644.66 1.094.66 1.538h1.5c0-.904-.374-1.67-.967-2.448c-.58-.76-1.437-1.615-2.507-2.685zm1.06 9.205c1.07-1.07 1.928-1.924 2.508-2.685c.593-.777.967-1.544.967-2.448h-1.5c0 .444-.168.894-.66 1.538c-.505.662-1.275 1.435-2.375 2.535zM6.553 9.303c1.1-1.1 1.873-1.87 2.534-2.375c.645-.492 1.095-.66 1.539-.66v-1.5c-.904 0-1.67.374-2.449.967c-.76.58-1.615 1.437-2.685 2.507zm9.206-1.061c-1.07-1.07-1.925-1.927-2.685-2.507c-.778-.593-1.544-.967-2.448-.967v1.5c.444 0 .894.168 1.538.66c.662.504 1.434 1.275 2.534 2.375zm-11.034.767c-1.07 1.07-1.926 1.925-2.507 2.685c-.593.778-.967 1.544-.967 2.448h1.5c0-.444.168-.894.66-1.538c.505-.662 1.275-1.434 2.375-2.534zm1.061 9.206c-1.1-1.1-1.87-1.873-2.375-2.534c-.492-.645-.66-1.095-.66-1.539h-1.5c0 .904.374 1.67.967 2.448c.58.76 1.437 1.615 2.507 2.685zm-1.06-3.543l4.602 4.603l1.06-1.06l-4.602-4.603z"/><path fill="currentColor" d="m19.83 10.441l.535.526zm-2.069 1.033a.75.75 0 1 0 1.07 1.052zm2.07-7.27l-.535.527zM22 7.324h.75zm-8.307-3.118l.535.526zM16.762 2v.75zm-5.297 3.4a.75.75 0 0 0 1.07 1.051zm7.83 4.515l-1.534 1.559l1.07 1.052l1.534-1.559zm0-5.184c.739.75 1.238 1.26 1.563 1.692c.31.414.392.67.392.9h1.5c0-.683-.28-1.252-.693-1.8c-.398-.532-.984-1.124-1.692-1.844zm1.07 6.236c.708-.72 1.294-1.312 1.692-1.843c.413-.55.693-1.118.693-1.801h-1.5c0 .23-.081.486-.392.9c-.325.432-.824.942-1.562 1.692zm-6.137-6.236c.738-.75 1.24-1.258 1.664-1.587c.408-.316.654-.394.87-.394v-1.5c-.683 0-1.249.29-1.789.708c-.523.406-1.106 1.001-1.814 1.72zm6.137-1.052c-.708-.72-1.292-1.315-1.815-1.72c-.54-.42-1.105-.709-1.788-.709v1.5c.215 0 .461.078.869.394c.425.33.926.837 1.665 1.587zm-7.206 0l-1.694 1.72l1.07 1.052l1.693-1.72z"/><path fill="currentColor" d="m14.46 18.745l.53.53zm.767-.767l-.53-.53zm3.255-4.603h.75zM6.022 8.772l.53.53zm-.767.767l-.53-.53zm.53 4.073a.75.75 0 0 0-1.06 1.06zm3.542 5.663a.75.75 0 0 0 1.06-1.06zM5.785 10.07l.767-.767l-1.06-1.061l-.768.767zm8.912 7.378l-.767.767l1.06 1.06l.768-.767zm-.767.767c-1.1 1.1-1.873 1.87-2.534 2.375c-.644.491-1.094.66-1.539.66v1.5c.905 0 1.671-.374 2.449-.968c.76-.58 1.615-1.437 2.685-2.507zm-9.206 1.06c1.07 1.07 1.925 1.927 2.685 2.507c.778.594 1.544.968 2.448.968v-1.5c-.444 0-.894-.169-1.538-.66c-.661-.505-1.434-1.276-2.534-2.375zm9.973-9.972c1.1 1.1 1.87 1.872 2.375 2.534c.492.644.66 1.094.66 1.538h1.5c0-.904-.374-1.67-.967-2.448c-.58-.76-1.437-1.615-2.507-2.685zm1.06 9.205c1.07-1.07 1.928-1.924 2.508-2.685c.593-.777.967-1.544.967-2.448h-1.5c0 .444-.168.894-.66 1.538c-.505.662-1.275 1.435-2.375 2.535zM6.553 9.303c1.1-1.1 1.873-1.87 2.534-2.375c.645-.492 1.095-.66 1.539-.66v-1.5c-.904 0-1.67.374-2.449.967c-.76.58-1.615 1.437-2.685 2.507zm9.206-1.061c-1.07-1.07-1.925-1.927-2.685-2.507c-.778-.593-1.544-.967-2.448-.967v1.5c.444 0 .894.168 1.538.66c.662.504 1.434 1.275 2.534 2.375zm-11.034.767c-1.07 1.07-1.926 1.925-2.507 2.685c-.593.778-.967 1.544-.967 2.448h1.5c0-.444.168-.894.66-1.538c.505-.662 1.275-1.434 2.375-2.534zm1.061 9.206c-1.1-1.1-1.87-1.873-2.375-2.534c-.492-.645-.66-1.095-.66-1.539h-1.5c0 .904.374 1.67.967 2.448c.58.76 1.437 1.615 2.507 2.685zm-1.06-3.543l4.602 4.603l1.06-1.06l-4.602-4.603z"/><path stroke="currentColor" stroke-linecap="round" stroke-width="1.5" d="m18.717 7.403l-.707.707m-1.414-2.828l-.707.707"/></g></svg>