<svg viewBox="0 0 24 24"><path fill="currentColor" fill-rule="evenodd" d="M12 1.25a.75.75 0 0 1 .75.75v4a.75.75 0 0 1-1.5 0V2a.75.75 0 0 1 .75-.75M5.55 3.614l.048.035l1.606 1.146c.287.206.542.387.743.56c.217.187.411.396.554.673c.142.277.2.556.225.842c.024.264.024.577.024.93v8.4c0 .353 0 .666-.024.93a2.2 2.2 0 0 1-.225.842a2.2 2.2 0 0 1-.554.673c-.201.173-.456.355-.743.56L5.55 20.386c-.651.465-1.208.863-1.671 1.1c-.473.243-1.074.438-1.68.127c-.605-.312-.796-.915-.873-1.44c-.076-.516-.076-1.2-.076-2V5.827c0-.8 0-1.483.076-1.999c.077-.525.268-1.128.873-1.44c.606-.312 1.207-.116 1.68.126c.463.238 1.02.636 1.67 1.1m-2.693.115q-.001-.002.013-.002zm.033 0c.044.007.136.033.304.12c.353.18.82.51 1.533 1.02L6.307 6c.32.227.518.37.661.493a.8.8 0 0 1 .199.222a.8.8 0 0 1 .065.291c.017.188.018.433.018.825v8.34c0 .392 0 .637-.018.825a.8.8 0 0 1-.065.29a.8.8 0 0 1-.199.223a10 10 0 0 1-.66.493l-1.581 1.13c-.714.51-1.18.84-1.533 1.02a1.1 1.1 0 0 1-.304.12c-.02-.04-.053-.13-.08-.317c-.058-.393-.06-.964-.06-1.84V5.886c0-.876.002-1.448.06-1.84c.027-.187.06-.277.08-.317m-.033 16.542l.013.002q-.015 0-.013-.002m.043.017l.009.01zm0-16.576q.008-.011.009-.01t-.01.01m17.906.136c-.353.181-.82.512-1.533 1.021L17.694 6a10 10 0 0 0-.661.493a.8.8 0 0 0-.199.222a.8.8 0 0 0-.065.291c-.017.188-.018.433-.018.825v8.34c0 .392 0 .637.018.825a.8.8 0 0 0 .065.29a.8.8 0 0 0 .199.223c.143.123.341.266.66.493l1.581 1.13c.714.51 1.18.84 1.533 1.02a1.1 1.1 0 0 0 .304.12a1.1 1.1 0 0 0 .08-.317c.058-.393.06-.964.06-1.84V5.886c0-.876-.002-1.448-.06-1.84a1.1 1.1 0 0 0-.08-.317a1.1 1.1 0 0 0-.304.12m.337-.12h-.013zm-.043-.016l-.009-.01l.01.01m-.009 16.586l.01-.01zm.039-.025q.012-.003.013-.002q.001.002-.013.002m-1.009-17.76c.473-.242 1.074-.438 1.68-.126s.796.915.873 1.44c.076.516.076 1.2.076 2v12.347c0 .8 0 1.483-.076 1.999c-.077.525-.268 1.128-.873 1.44c-.606.311-1.207.116-1.68-.127c-.463-.237-1.02-.635-1.67-1.1l-1.655-1.181a11 11 0 0 1-.742-.56a2.2 2.2 0 0 1-.555-.673a2.2 2.2 0 0 1-.225-.842c-.024-.264-.024-.577-.024-.93V7.8c0-.353 0-.666.024-.93c.026-.286.083-.565.225-.842s.337-.486.554-.673c.201-.173.456-.354.743-.56l1.654-1.181c.651-.465 1.208-.863 1.671-1.1M12 9.25a.75.75 0 0 1 .75.75v4a.75.75 0 0 1-1.5 0v-4a.75.75 0 0 1 .75-.75m0 8a.75.75 0 0 1 .75.75v4a.75.75 0 0 1-1.5 0v-4a.75.75 0 0 1 .75-.75" clip-rule="evenodd"/></svg>