<svg viewBox="0 0 24 24"><path fill="currentColor" fill-rule="evenodd" d="M12.476 2.75c-2.75 0-4.964 2.2-4.964 4.897c0 .462.065.909.185 1.331c.497.144.963.36 1.383.64a.75.75 0 1 1-.827 1.25a3.54 3.54 0 0 0-1.967-.589c-1.961 0-3.536 1.57-3.536 3.486c0 .532.12 1.035.336 1.485h17.203a4.83 4.83 0 0 0 .961-2.897c0-2.137-1.39-3.962-3.338-4.628a5 5 0 0 0-1.626-.27c-.583 0-1.14.1-1.658.28a.75.75 0 0 1-.494-1.416a6.5 6.5 0 0 1 3.024-.305a4.96 4.96 0 0 0-4.682-3.264m6.355 3.721c-.559-2.977-3.197-5.221-6.355-5.221c-3.562 0-6.464 2.856-6.464 6.397q0 .582.102 1.135c-2.694.09-4.864 2.278-4.864 4.983c0 .577.1 1.132.282 1.649A.749.749 0 0 0 2 16.75h20a.75.75 0 0 0 .05-1.498c.447-.87.7-1.856.7-2.9c0-2.643-1.619-4.904-3.919-5.88M4.25 19a.75.75 0 0 1 .75-.75h14a.75.75 0 0 1 0 1.5H5a.75.75 0 0 1-.75-.75m3 3a.75.75 0 0 1 .75-.75h8a.75.75 0 0 1 0 1.5H8a.75.75 0 0 1-.75-.75" clip-rule="evenodd"/></svg>