<svg viewBox="0 0 24 24"><path fill="currentColor" d="M22 14v-2.202l-.002-1.048L22 10H2v4c0 3.771 0 5.657 1.172 6.828S6.229 22 10 22h4c3.771 0 5.657 0 6.828-1.172S22 17.771 22 14"/><path fill="currentColor" d="m11 4l-.55-.55c-.274-.274-.41-.41-.554-.53a4 4 0 0 0-2.18-.903C7.53 2 7.336 2 6.95 2c-.883 0-1.324 0-1.692.07A4 4 0 0 0 2.07 5.257C2 5.626 2 6.068 2 6.95V10h20l-.047-.75c-.072-1.049-.256-1.737-.723-2.256a3 3 0 0 0-.224-.225C20.151 6 18.834 6 16.202 6h-.374c-1.153 0-1.73 0-2.268-.153a4 4 0 0 1-.848-.352C12.224 5.224 11.816 4.815 11 4" opacity=".5"/></svg>