<svg viewBox="0 0 24 24"><path fill="currentColor" fill-rule="evenodd" d="M6.86 1.25h.127c.351 0 .577 0 .798.02a4.75 4.75 0 0 1 2.59 1.073c.17.142.33.302.579.55l.576.577c.846.845 1.171 1.161 1.547 1.37q.328.182.689.286c.413.117.866.124 2.062.124h.425c1.273 0 2.3 0 3.111.102c.841.106 1.556.332 2.144.86q.147.133.28.28c.529.588.754 1.303.86 2.144c.102.812.102 1.838.102 3.111v2.31c0 1.837 0 3.293-.153 4.432c-.158 1.172-.49 2.121-1.238 2.87c-.749.748-1.698 1.08-2.87 1.238c-1.14.153-2.595.153-4.433.153H9.944c-1.838 0-3.294 0-4.433-.153c-1.172-.158-2.121-.49-2.87-1.238c-.748-.749-1.08-1.698-1.238-2.87c-.153-1.14-.153-2.595-.153-4.433V6.86c0-.797 0-1.303.082-1.74A4.75 4.75 0 0 1 5.12 1.331c.438-.082.944-.082 1.74-.082m.09 1.5c-.917 0-1.271.003-1.553.056a3.25 3.25 0 0 0-2.59 2.591c-.054.282-.057.636-.057 1.553V14c0 1.907.002 3.262.14 4.29c.135 1.005.389 1.585.812 2.008s1.003.677 2.009.812c1.028.138 2.382.14 4.289.14h4c1.907 0 3.262-.002 4.29-.14c1.005-.135 1.585-.389 2.008-.812s.677-1.003.812-2.009c.138-1.027.14-2.382.14-4.289v-2.202c0-1.336-.001-2.267-.09-2.975c-.087-.689-.246-1.06-.487-1.328a2 2 0 0 0-.168-.168c-.268-.241-.64-.4-1.328-.487a8 8 0 0 0-.427-.041v4.081c0 .119 0 .28-.02.417a.95.95 0 0 1-.43.688a.95.95 0 0 1-.808.077a3 3 0 0 1-.382-.168l-.024-.013L16 11.338l-1.086.543l-.024.013c-.106.053-.25.125-.382.168a.95.95 0 0 1-.807-.077a.95.95 0 0 1-.431-.688c-.02-.137-.02-.298-.02-.417V6.538a4.8 4.8 0 0 1-.902-.386c-.582-.324-1.06-.801-1.8-1.543l-.078-.078l-.55-.55a8 8 0 0 0-.503-.482a3.25 3.25 0 0 0-1.771-.734a8 8 0 0 0-.696-.014m7.8 3.993v3.544l.736-.368l.007-.004c.046-.025.26-.141.507-.141s.46.116.507.14l.007.005l.736.367V6.753q-.478-.003-1.048-.002h-.484c-.363 0-.68 0-.968-.007" clip-rule="evenodd"/></svg>