<svg viewBox="0 0 24 24"><path fill="currentColor" fill-rule="evenodd" d="M2.07 5.258C2 5.626 2 6.068 2 6.95V14c0 3.771 0 5.657 1.172 6.828S6.229 22 10 22h4c3.771 0 5.657 0 6.828-1.172S22 17.771 22 14v-2.202c0-2.632 0-3.949-.77-4.804a3 3 0 0 0-.224-.225C20.151 6 18.834 6 16.202 6h-.374c-1.153 0-1.73 0-2.268-.153a4 4 0 0 1-.848-.352C12.224 5.224 11.816 4.815 11 4l-.55-.55c-.274-.274-.41-.41-.554-.53a4 4 0 0 0-2.18-.903C7.53 2 7.336 2 6.95 2c-.883 0-1.324 0-1.692.07A4 4 0 0 0 2.07 5.257M16.283 3c.365 0 .548 0 .702.02c1.018.14 1.828.943 2.014 1.98a5 5 0 0 0-.461-.081c-.64-.084-1.448-.084-2.45-.084h-.334c-.942 0-1.3-.005-1.625-.101a2.5 2.5 0 0 1-.542-.233c-.296-.17-.552-.428-1.218-1.118L12 3zM13 9.25a.75.75 0 0 0 0 1.5h5a.75.75 0 0 0 0-1.5z" clip-rule="evenodd"/></svg>