<svg viewBox="0 0 24 24"><path fill="currentColor" fill-rule="evenodd" d="M6.86 1.25h.127c.351 0 .577 0 .798.02a4.75 4.75 0 0 1 2.59 1.073c.17.142.33.302.579.55l.576.577c.846.845 1.171 1.161 1.547 1.37q.328.182.689.286c.413.117.866.124 2.062.124h.425c1.273 0 2.3 0 3.111.102c.841.106 1.556.332 2.144.86q.147.133.28.28c.529.588.754 1.303.86 2.144c.08.638.097 1.407.101 2.325v.072l.001.714v2.31c0 1.837 0 3.293-.153 4.432c-.158 1.172-.49 2.121-1.238 2.87c-.749.748-1.698 1.08-2.87 1.238c-1.14.153-2.595.153-4.433.153H9.944c-1.838 0-3.294 0-4.433-.153c-1.172-.158-2.121-.49-2.87-1.238c-.748-.749-1.08-1.698-1.238-2.87c-.153-1.14-.153-2.595-.153-4.433V6.86c0-.797 0-1.303.082-1.74A4.75 4.75 0 0 1 5.12 1.331c.438-.082.944-.082 1.74-.082m-4.11 10.5V14c0 1.907.002 3.262.14 4.29c.135 1.005.389 1.585.812 2.008s1.003.677 2.009.812c1.028.138 2.382.14 4.289.14h4c1.907 0 3.262-.002 4.29-.14c1.005-.135 1.585-.389 2.008-.812s.677-1.003.812-2.009c.138-1.027.14-2.382.14-4.289v-2.25zm18.492-1.5H2.75v-3.3c0-.917.003-1.271.056-1.553a3.25 3.25 0 0 1 2.591-2.59c.282-.054.636-.057 1.553-.057c.4 0 .553 0 .696.014a3.25 3.25 0 0 1 1.771.734a8 8 0 0 1 .502.482l.55.55l.079.078c.74.742 1.218 1.22 1.8 1.543q.479.266 1.007.417c.64.182 1.315.182 2.363.182h.484c1.336 0 2.267.001 2.975.09c.689.087 1.06.246 1.328.487q.088.08.168.168c.241.269.4.64.487 1.328c.05.395.072.86.082 1.427" clip-rule="evenodd"/></svg>