<svg viewBox="0 0 24 24"><path fill="currentColor" fill-rule="evenodd" d="m2.782 11.225l.396-.262c.594-.393.987-.654 1.265-.887c.264-.221.364-.369.416-.507s.076-.315.025-.656c-.054-.36-.175-.815-.359-1.504l-.167-.625a9.2 9.2 0 0 0-1.576 4.44m2.75-5.84l.024.074l.429 1.602c.17.638.315 1.177.382 1.631c.035.233.053.46.042.687l2.5 1.053a2 2 0 0 1 .18-.16l1.838-1.404q.148-.113.312-.19v-2.71a3.5 3.5 0 0 1-.608-.284c-.398-.229-.847-.56-1.377-.952L7.876 3.715a9.3 9.3 0 0 0-2.344 1.67m4.007-2.306l.572.422c.573.423.953.702 1.268.883c.298.171.47.214.618.216c.147.001.32-.038.622-.203c.318-.174.704-.445 1.286-.855l.622-.438a9.2 9.2 0 0 0-2.538-.354a9.2 9.2 0 0 0-2.45.329m6.646.678a1 1 0 0 1-.095.08l-1.354.954c-.54.38-.995.702-1.397.922c-.197.108-.396.2-.6.267v2.697q.163.078.311.191l1.837 1.405q.099.075.184.162l2.56-1.06c-.01-.225.008-.451.043-.683c.067-.454.212-.993.382-1.63l.429-1.602l.008-.029a9.3 9.3 0 0 0-2.308-1.674m3.48 3.095l-.149.557c-.184.689-.305 1.145-.359 1.504c-.05.34-.027.518.025.656s.152.286.416.507c.278.233.67.494 1.265.887l.328.217a9.2 9.2 0 0 0-1.526-4.328m3.055 5.55q.007-.2.007-.402c0-5.936-4.807-10.75-10.738-10.75C6.057 1.25 1.25 6.064 1.25 12s4.807 10.75 10.739 10.75c5.625 0 10.238-4.33 10.7-9.84a.75.75 0 0 0 .03-.508m-1.543.567L20 12.19c-.55-.363-1.016-.67-1.367-.966a3.6 3.6 0 0 1-.458-.452l-2.613 1.082a2 2 0 0 1-.067.324l-.721 2.337q-.038.123-.092.236l1.468 1.698c.225-.075.46-.12.704-.148c.456-.052 1.014-.052 1.673-.052h1.668a9.2 9.2 0 0 0 .98-3.281m-1.951 4.781h-.656c-.713 0-1.184.001-1.544.042c-.341.04-.506.107-.625.194c-.12.086-.237.22-.382.533c-.153.33-.303.777-.528 1.453l-.226.68a9.26 9.26 0 0 0 3.96-2.902m-5.7 3.372l.555-1.663c.208-.627.385-1.156.578-1.572q.129-.281.295-.528l-1.434-1.66q-.202.051-.416.051h-2.23q-.2 0-.388-.043L9.21 17.332q.178.257.313.555c.194.416.37.945.579 1.572l.565 1.697a9.3 9.3 0 0 0 2.86-.034m-4.58-.385l-.254-.765c-.226-.676-.376-1.124-.529-1.453c-.145-.312-.262-.447-.381-.533c-.12-.087-.284-.155-.625-.194c-.36-.04-.832-.042-1.544-.042H4.75a9.26 9.26 0 0 0 4.195 2.987m-5.15-4.46a.8.8 0 0 1 .202-.027h1.656c.66 0 1.217 0 1.673.052c.235.027.46.069.676.139l1.304-1.662a2 2 0 0 1-.105-.263l-.721-2.337a2 2 0 0 1-.068-.328l-2.55-1.075a3.6 3.6 0 0 1-.456.45c-.352.294-.817.601-1.367.965l-1.236.817c.127 1.17.47 2.273.991 3.27m8.192-6.269a.25.25 0 0 0-.15.052L10 11.464a.25.25 0 0 0-.087.273l.722 2.337a.25.25 0 0 0 .237.176h2.23a.25.25 0 0 0 .238-.176l.722-2.337a.25.25 0 0 0-.087-.273l-1.837-1.405a.25.25 0 0 0-.15-.05" clip-rule="evenodd"/></svg>