<svg viewBox="0 0 24 24"><path fill="currentColor" d="M20.185 17.75a.75.75 0 0 0 0-1.5zm-5.406 1.985l-.711-.237zm-1.299 1.528a.75.75 0 0 0 1.423.474zM3.998 16.25a.75.75 0 0 0 0 1.5zm5.405 3.485l.712-.237zm-.124 2.002a.75.75 0 0 0 1.423-.474zm-1.058-4.36l-.44.609zM5.556 5.46a.75.75 0 1 0-1.449.388zM5.25 7.215l-.725.194zM3.592 11.59l-.414-.626zm-1.965.399a.75.75 0 1 0 .828 1.251zm18.307-6.14a.75.75 0 1 0-1.449-.388zm-1.143 1.367l-.724-.194zm1.658 4.374l-.413.625zm1.137 1.65a.75.75 0 1 0 .828-1.251zM16.09 3.836a.75.75 0 1 0-.864-1.226zm-1.752.319l.432.612zm-4.672-.051l-.446.603zm-1.05-1.707a.75.75 0 1 0-.891 1.206zm5.876 8.278a.75.75 0 1 0 .574 1.386zm-3.254-1.417a.75.75 0 0 0 1.5 0zm3.05 5.037a.75.75 0 0 0-1.134.982zm-3.442.954a.75.75 0 1 0-1.18-.926zm-1.94-3.19a.75.75 0 1 0 .583-1.382zm11.279 4.191H18.57v1.5h1.615zm-6.117 3.248l-.588 1.765l1.423.474l.588-1.765zm4.502-3.248c-.678 0-1.25-.001-1.714.052c-.485.055-.93.176-1.333.467l.878 1.217c.12-.087.284-.155.625-.194c.36-.04.832-.042 1.544-.042zm-3.08 3.722c.226-.676.376-1.124.53-1.453c.144-.312.261-.447.38-.533l-.877-1.217c-.404.292-.658.675-.864 1.118c-.197.425-.377.968-.591 1.611zM3.999 17.75h1.615v-1.5H3.998zm4.694 2.222l.587 1.765l1.423-.474l-.587-1.765zm-3.08-2.222c.713 0 1.184.001 1.545.042c.34.04.505.107.625.194l.878-1.217c-.404-.29-.849-.412-1.333-.467c-.465-.053-1.037-.052-1.714-.052zm4.503 1.748c-.215-.643-.394-1.186-.591-1.611c-.206-.442-.46-.826-.864-1.118l-.878 1.217c.12.086.236.22.381.533c.153.33.303.777.529 1.453zM4.107 5.848l.418 1.561l1.45-.388l-.419-1.562zm-.929 5.115l-1.55 1.025l.827 1.251l1.55-1.025zm1.347-3.554c.184.689.305 1.145.359 1.504c.05.34.027.518-.025.656l1.403.532c.176-.466.177-.926.105-1.409c-.069-.463-.218-1.015-.393-1.67zm-.52 4.805c.566-.374 1.043-.688 1.402-.989c.374-.313.678-.659.855-1.124l-1.403-.532c-.052.138-.152.286-.416.507c-.278.233-.67.494-1.265.887zm14.48-6.754l-.418 1.561l1.449.388l.418-1.562zm1.55 6.754l1.552 1.025l.827-1.251l-1.551-1.025zm-1.968-5.193c-.175.656-.324 1.208-.393 1.671c-.072.483-.07.944.105 1.409l1.403-.532c-.052-.138-.075-.315-.025-.656c.054-.36.175-.815.359-1.504zm2.796 3.942c-.594-.393-.987-.654-1.265-.887c-.264-.22-.363-.369-.416-.507l-1.402.532c.176.465.48.811.854 1.124c.359.301.836.616 1.402.99zM15.226 2.61l-1.32.932l.864 1.225l1.32-.93zm-5.115.89L8.615 2.398l-.89 1.206L9.22 4.707zm3.794.042c-.582.41-.968.681-1.286.855c-.302.165-.475.204-.622.203l-.017 1.5c.498.005.93-.153 1.359-.387c.41-.225.877-.555 1.43-.946zM9.22 4.707c.546.403 1.005.743 1.41.977c.423.243.853.41 1.35.416l.017-1.5c-.148-.002-.32-.045-.618-.216c-.315-.181-.695-.46-1.268-.883zm8.974 4.435l-3.702 1.533l.574 1.386l3.702-1.533zm-5.455.116V5.35h-1.5v3.908zm3.79 7.629l-2.24-2.592l-1.135.982l2.24 2.591zm-7.718.954l2.035-2.592l-1.18-.926l-2.035 2.591zm.678-7.164L5.852 9.144l-.583 1.382l3.637 1.533z" opacity=".5"/><path fill="currentColor" d="m9.198 11.959l.716-.222zm.348-1.09l-.456-.596zm.373 3.427l-.717.22zm4.139 0l-.717-.222zm.373-3.427l-.455.595zm.348 1.09l.717.22zm-2.184-2.495l.455-.596zm-1.213 0l.456.596zm3.397 1.904l-.716.221zm-1.058 3.418l.464.59zm-3.465 0l-.464.59zm-1.058-3.418l.716.221zm2.941-1.308l1.837 1.404l.911-1.191l-1.837-1.405zm1.924 1.677l-.722 2.337l1.434.443l.721-2.337zm-.96 2.513h-2.23v1.5h2.23zm-2.467-.176l-.722-2.337l-1.433.443l.721 2.337zM10 11.464l1.837-1.404l-.911-1.192l-1.837 1.405zm3.975 0a.25.25 0 0 1 .087.125l1.433-.442a1.75 1.75 0 0 0-.609-.874zm.087.125a.25.25 0 0 1 0 .148l1.433.443a1.75 1.75 0 0 0 0-1.033zM13.05 8.87a1.75 1.75 0 0 0-1.062-.36v1.5q.083 0 .151.05zm-1.062-.36c-.373 0-.748.12-1.061.36l.91 1.19a.25.25 0 0 1 .152-.05zm1.353 5.565a.25.25 0 0 1-.084.123l.928 1.179c.272-.215.482-.511.59-.86zm-.084.123a.25.25 0 0 1-.153.053v1.5c.402 0 .78-.138 1.081-.374zm-2.384.053a.25.25 0 0 1-.153-.053l-.928 1.179c.3.236.679.374 1.081.374zm-.153-.053a.25.25 0 0 1-.084-.123l-1.434.443c.108.348.317.644.59.859zm-.806-2.46a.25.25 0 0 1 0-.148l-1.433-.442a1.75 1.75 0 0 0 0 1.033zm0-.148a.25.25 0 0 1 .087-.125l-.911-1.191a1.75 1.75 0 0 0-.609.874zm11.313.41c0 5.11-4.137 9.25-9.238 9.25v1.5c5.931 0 10.738-4.814 10.738-10.75zm-9.238 9.25c-5.102 0-9.239-4.14-9.239-9.25h-1.5c0 5.936 4.807 10.75 10.739 10.75zM2.75 12c0-5.11 4.137-9.25 9.239-9.25v-1.5C6.057 1.25 1.25 6.064 1.25 12zm9.239-9.25c5.1 0 9.238 4.14 9.238 9.25h1.5c0-5.936-4.807-10.75-10.738-10.75z"/></svg>