<svg viewBox="0 0 24 24"><path fill="currentColor" fill-rule="evenodd" d="M2 13.087c0-2.096 0-3.145.553-3.94C3 8.506 3.718 8.157 5 7.681v-.62c0-1.306 0-1.958.338-2.408q.132-.175.302-.308C6.08 4 6.72 4 8 4h.818c.507 0 .761 0 .97.057a1.65 1.65 0 0 1 1.156 1.18l.072.293l3.002-1.07c3.636-1.298 5.454-1.947 6.718-1.032C22 4.342 22 6.305 22 10.233v5.65c0 2.884 0 4.326-.879 5.221C20.243 22 18.828 22 16 22H8c-2.828 0-4.243 0-5.121-.896C2 20.21 2 18.767 2 15.884zm5.47-2.557a.75.75 0 1 1 1.06-1.06l1.5 1.5q.058.058.1.123C10.564 11 11.156 11 12 11c.831 0 1.418 0 1.85.09l1.62-1.62a.75.75 0 1 1 1.06 1.06l-1.62 1.62c.09.432.09 1.019.09 1.85s0 1.418-.09 1.85l1.62 1.62a.75.75 0 1 1-1.06 1.06l-1.62-1.62c-.432.09-1.019.09-1.85.09s-1.418 0-1.85-.09l-1.62 1.62a.75.75 0 0 1-1.06-1.06l1.62-1.62C9 15.418 9 14.831 9 14c0-.844 0-1.436.093-1.87a1 1 0 0 1-.123-.1z" clip-rule="evenodd"/></svg>