<svg viewBox="0 0 24 24"><path fill="currentColor" d="M12 22c5.523 0 10-4.477 10-10S17.523 2 12 2S2 6.477 2 12s4.477 10 10 10" opacity=".5"/><path fill="currentColor" d="M10.004 6.75a.75.75 0 0 0-.013-1.5c-.85.007-1.577.034-2.179.152c-.623.122-1.167.351-1.613.797s-.675.99-.797 1.613c-.118.602-.145 1.328-.152 2.179a.75.75 0 0 0 1.5.013c.007-.856.035-1.454.124-1.904c.084-.428.212-.666.386-.84s.412-.302.84-.386c.45-.088 1.048-.117 1.904-.124m4.003-1.5a.75.75 0 1 0-.013 1.5c.856.007 1.454.035 1.903.124c.429.084.666.212.84.386c.175.174.303.412.387.84c.088.45.116 1.048.124 1.904a.75.75 0 0 0 1.5-.013c-.008-.85-.034-1.577-.152-2.179c-.122-.623-.352-1.167-.798-1.613s-.99-.675-1.612-.797c-.603-.118-1.329-.145-2.18-.152M6.75 13.994a.75.75 0 0 0-1.5.013c.007.85.034 1.577.152 2.179c.122.623.351 1.167.797 1.613s.99.675 1.613.797c.602.119 1.328.145 2.179.152a.75.75 0 0 0 .013-1.5c-.856-.007-1.454-.036-1.904-.123c-.428-.084-.666-.213-.84-.387s-.302-.412-.386-.84c-.088-.45-.117-1.048-.124-1.904m11.998.013a.75.75 0 1 0-1.5-.013c-.008.856-.036 1.454-.124 1.904c-.084.428-.212.666-.386.84s-.412.303-.84.387c-.45.087-1.048.116-1.904.123a.75.75 0 1 0 .013 1.5c.85-.007 1.576-.034 2.179-.152c.623-.122 1.166-.351 1.612-.797s.676-.99.798-1.613c.118-.602.144-1.328.151-2.179"/></svg>