<svg viewBox="0 0 24 24"><path fill="currentColor" fill-rule="evenodd" d="M9.944 1.25H10a.75.75 0 0 1 0 1.5c-1.907 0-3.261.002-4.29.14c-1.005.135-1.585.389-2.008.812S3.025 4.705 2.89 5.71c-.138 1.029-.14 2.383-.14 4.29a.75.75 0 0 1-1.5 0v-.056c0-1.838 0-3.294.153-4.433c.158-1.172.49-2.121 1.238-2.87c.749-.748 1.698-1.08 2.87-1.238c1.14-.153 2.595-.153 4.433-.153m8.345 1.64c-1.027-.138-2.382-.14-4.289-.14a.75.75 0 0 1 0-1.5h.056c1.838 0 3.294 0 4.433.153c1.172.158 2.121.49 2.87 1.238c.748.749 1.08 1.698 1.238 2.87c.153 1.14.153 2.595.153 4.433V10a.75.75 0 0 1-1.5 0c0-1.907-.002-3.261-.14-4.29c-.135-1.005-.389-1.585-.812-2.008s-1.003-.677-2.009-.812M2 13.25a.75.75 0 0 1 .75.75c0 1.907.002 3.262.14 4.29c.135 1.005.389 1.585.812 2.008s1.003.677 2.009.812c1.028.138 2.382.14 4.289.14a.75.75 0 0 1 0 1.5h-.056c-1.838 0-3.294 0-4.433-.153c-1.172-.158-2.121-.49-2.87-1.238c-.748-.749-1.08-1.698-1.238-2.87c-.153-1.14-.153-2.595-.153-4.433V14a.75.75 0 0 1 .75-.75m20 0a.75.75 0 0 1 .75.75v.056c0 1.838 0 3.294-.153 4.433c-.158 1.172-.49 2.121-1.238 2.87c-.749.748-1.698 1.08-2.87 1.238c-1.14.153-2.595.153-4.433.153H14a.75.75 0 0 1 0-1.5c1.907 0 3.262-.002 4.29-.14c1.005-.135 1.585-.389 2.008-.812s.677-1.003.812-2.009c.138-1.027.14-2.382.14-4.289a.75.75 0 0 1 .75-.75" clip-rule="evenodd"/></svg>