<svg viewBox="0 0 24 24"><path fill="currentColor" fill-rule="evenodd" d="M11.943 1.25h.114c2.309 0 4.118 0 5.53.19c1.444.194 2.584.6 3.479 1.494c.895.895 1.3 2.035 1.494 3.48c.19 1.411.19 3.22.19 5.529v.088c0 1.909 0 3.471-.104 4.743c-.104 1.28-.317 2.347-.795 3.235q-.314.586-.785 1.057c-.895.895-2.035 1.3-3.48 1.494c-1.411.19-3.22.19-5.529.19h-.114c-2.309 0-4.118 0-5.53-.19c-1.444-.194-2.584-.6-3.479-1.494c-.793-.793-1.203-1.78-1.42-3.006c-.215-1.203-.254-2.7-.262-4.558Q1.25 12.792 1.25 12v-.058c0-2.309 0-4.118.19-5.53c.194-1.444.6-2.584 1.494-3.479c.895-.895 2.035-1.3 3.48-1.494c1.411-.19 3.22-.19 5.529-.19m-5.33 1.676c-1.278.172-2.049.5-2.618 1.069c-.57.57-.897 1.34-1.069 2.619c-.174 1.3-.176 3.008-.176 5.386q0 .793.002 1.495c.008 1.874.05 3.246.238 4.303c.184 1.035.498 1.7 1.005 2.207c.57.57 1.34.897 2.619 1.069c1.3.174 3.008.176 5.386.176s4.086-.002 5.386-.176c1.279-.172 2.05-.5 2.62-1.069c.21-.21.381-.442.524-.707c.332-.616.523-1.44.621-2.645s.099-2.707.099-4.653c0-2.378-.002-4.086-.176-5.386c-.172-1.279-.5-2.05-1.069-2.62c-.57-.569-1.34-.896-2.619-1.068c-1.3-.174-3.008-.176-5.386-.176s-4.086.002-5.386.176" clip-rule="evenodd"/><path fill="currentColor" d="m21.249 13.28l-.222-.03c-2.844-.394-5.446 1.084-6.772 3.313c-1.71-4.325-6.227-7.275-11.274-6.55l-.226.032q-.006.893-.005 1.955q0 .793.002 1.495c.008 1.874.05 3.246.238 4.303c.184 1.035.498 1.7 1.005 2.207c.57.57 1.34.897 2.619 1.069c1.3.174 3.008.176 5.386.176s4.086-.002 5.386-.176c1.279-.172 2.05-.5 2.62-1.069c.21-.21.381-.442.524-.707c.332-.616.523-1.44.621-2.645c.076-.926.093-2.028.098-3.373" opacity=".5"/><path fill="currentColor" d="M18 8a2 2 0 1 1-4 0a2 2 0 0 1 4 0"/></svg>