<svg viewBox="0 0 24 24"><path fill="currentColor" d="M21.904 16.441c.083-1.024.094-2.274.096-3.743a.697.697 0 1 0-1.396 0c-.001 1.477-.012 2.658-.091 3.63c-.084 1.032-.242 1.763-.507 2.32l-2.633-2.37a2.79 2.79 0 0 0-3.471-.21l-.277.196a1.86 1.86 0 0 1-2.386-.207l-3.99-3.99a2.14 2.14 0 0 0-2.922-.097l-.931.814V12c0-2.212 0-3.801.163-5.01c.16-1.19.464-1.907.994-2.437S5.8 3.72 6.99 3.56c1.079-.145 2.458-.161 4.313-.163a.699.699 0 0 0 0-1.396c-1.829.002-3.33.02-4.499.177c-1.343.18-2.404.557-3.236 1.39s-1.21 1.893-1.39 3.236C2 8.116 2 9.8 2 11.947V12q0 .736.002 1.396c.007 1.729.044 3.121.243 4.24c.203 1.14.584 2.058 1.322 2.796c.832.833 1.893 1.21 3.236 1.39C8.116 22 9.8 22 11.947 22h.106c2.148 0 3.83 0 5.144-.177c1.344-.18 2.404-.557 3.236-1.39a4.2 4.2 0 0 0 .73-.983c.445-.825.644-1.82.74-3.009" opacity=".5"/><path fill="currentColor" fill-rule="evenodd" d="M17.5 11c-2.121 0-3.182 0-3.841-.659S13 8.621 13 6.5s0-3.182.659-3.841S15.379 2 17.5 2s3.182 0 3.841.659S22 4.379 22 6.5s0 3.182-.659 3.841S19.621 11 17.5 11m-1.455-2.784c-.765-.67-1.545-1.564-1.545-2.418c0-1.773 1.65-2.435 3-1.065c1.35-1.37 3-.708 3 1.065c0 .854-.78 1.747-1.545 2.418c-.596.523-.894.784-1.455.784c-.56 0-.859-.261-1.455-.784" clip-rule="evenodd"/></svg>