<svg viewBox="0 0 24 24"><path fill="currentColor" fill-rule="evenodd" d="M15 2.25a.75.75 0 0 1 .75.75v1A1.75 1.75 0 0 1 14 5.75h-1a.25.25 0 0 0-.25.25v.25h.533c1.313 0 2.354 0 3.194.083c.863.085 1.583.262 2.234.66q.465.285.854.66c.55.53.895 1.178 1.179 1.981c.275.78.512 1.768.81 3.01l1.095 4.557c.483 2.011-.805 3.994-2.827 4.453c-1.702.386-3.468-.419-4.248-1.97l-.129-.255a2.66 2.66 0 0 0-2.381-1.44h-2.128c-1.021 0-1.942.567-2.381 1.44l-.128.255c-.781 1.551-2.547 2.356-4.249 1.97c-2.022-.46-3.31-2.442-2.827-4.453l1.095-4.556c.298-1.242.536-2.231.81-3.01c.284-.804.628-1.452 1.179-1.982q.391-.375.854-.66c.651-.398 1.372-.575 2.234-.66c.84-.083 1.88-.083 3.194-.083h.533V6c0-.966.784-1.75 1.75-1.75h1a.25.25 0 0 0 .25-.25V3a.75.75 0 0 1 .75-.75m-4.243 5.5c-1.362 0-2.329 0-3.087.076c-.743.073-1.214.212-1.598.447a3.5 3.5 0 0 0-.597.461c-.32.308-.563.717-.804 1.4c-.246.697-.466 1.61-.777 2.902L2.81 17.552c-.28 1.164.46 2.357 1.7 2.64c1.05.238 2.115-.265 2.577-1.183l.128-.254c.701-1.394 2.149-2.265 3.721-2.265h2.128c1.572 0 3.02.871 3.721 2.265l.128.254c.462.918 1.527 1.42 2.577 1.182c1.241-.282 1.98-1.475 1.7-2.64l-1.084-4.515c-.31-1.292-.53-2.205-.777-2.903c-.24-.682-.484-1.091-.804-1.399a3.5 3.5 0 0 0-.597-.46c-.384-.236-.855-.375-1.598-.448c-.758-.075-1.725-.076-3.087-.076zM8.5 10.25a.75.75 0 0 1 .75.75v.75H10a.75.75 0 0 1 0 1.5h-.75V14a.75.75 0 0 1-1.5 0v-.75H7a.75.75 0 0 1 0-1.5h.75V11a.75.75 0 0 1 .75-.75" clip-rule="evenodd"/><path fill="currentColor" d="M16 11a1 1 0 1 1-2 0a1 1 0 0 1 2 0m2 3a1 1 0 1 1-2 0a1 1 0 0 1 2 0"/></svg>