<svg viewBox="0 0 24 24"><path fill="currentColor" fill-rule="evenodd" d="m4.007 9.105l6-5.333a3 3 0 0 1 3.986 0l6 5.333A3 3 0 0 1 21 11.347v9.903h1a.75.75 0 1 1 0 1.5H2a.75.75 0 0 1 0-1.5h1v-9.903a3 3 0 0 1 1.007-2.242M9.25 9a.75.75 0 0 1 .75-.75h4a.75.75 0 0 1 0 1.5h-4A.75.75 0 0 1 9.25 9m4.802 2.25c.899 0 1.648 0 2.242.08c.628.084 1.195.27 1.65.726c.456.455.642 1.022.726 1.65c.08.594.08 1.344.08 2.242v5.302h-1.5V16c0-.964-.002-1.611-.067-2.095c-.062-.461-.169-.659-.3-.789s-.327-.237-.788-.3c-.483-.064-1.131-.066-2.095-.066h-4c-.964 0-1.612.002-2.095.067c-.461.062-.659.169-.789.3s-.237.327-.3.788c-.064.484-.066 1.131-.066 2.095v5.25h-1.5v-5.302c0-.898 0-1.648.08-2.242c.084-.628.27-1.195.725-1.65c.456-.456 1.023-.642 1.65-.726c.595-.08 1.345-.08 2.243-.08zM8.25 15.5a.75.75 0 0 1 .75-.75h6a.75.75 0 1 1 0 1.5H9a.75.75 0 0 1-.75-.75m0 3a.75.75 0 0 1 .75-.75h6a.75.75 0 1 1 0 1.5H9a.75.75 0 0 1-.75-.75" clip-rule="evenodd"/></svg>