<svg viewBox="0 0 24 24"><g fill="none"><path stroke="currentColor" stroke-width="1.5" d="M16 22V8c0-2.828 0-4.243-.879-5.121C14.243 2 12.828 2 10 2H9c-2.828 0-4.243 0-5.121.879C3 3.757 3 5.172 3 8v14"/><path stroke="currentColor" stroke-width="1.5" d="M11 6H8c-.943 0-1.414 0-1.707.293S6 7.057 6 8s0 1.414.293 1.707S7.057 10 8 10h3c.943 0 1.414 0 1.707-.293S13 8.943 13 8s0-1.414-.293-1.707S11.943 6 11 6Z"/><path stroke="currentColor" stroke-linecap="round" stroke-width="1.5" d="M7 17h5" opacity=".5"/><path stroke="currentColor" stroke-linecap="round" stroke-width="1.5" d="M17 22H2"/><path fill="currentColor" d="M19.969 3.414a.75.75 0 1 0-.937 1.172zm.764 1.572l.469-.585zM16 16.25a.75.75 0 0 0 0 1.5zm5.003-11.042l-.501.559zm.992 2.066l.75-.042zM22 8.75a.75.75 0 0 0 0-1.5zm-1.974 4.592l-.238.711zm1.737 1.37a.75.75 0 0 0 .474-1.423zM19.03 4.586l1.234.986l.937-1.171l-1.234-.987zm2.219 3.036V18.5h1.5V7.622zM19.75 18.5v-.071h-1.5v.071zm-2.179-2.25H16v1.5h1.571zm2.179 2.179a2.18 2.18 0 0 0-2.179-2.179v1.5c.375 0 .679.304.679.679zm.75.821a.75.75 0 0 1-.75-.75h-1.5a2.25 2.25 0 0 0 2.25 2.25zm.75-.75a.75.75 0 0 1-.75.75v1.5a2.25 2.25 0 0 0 2.25-2.25zm-.985-12.928c.144.116.194.156.237.195l1.001-1.117c-.082-.074-.17-.144-.301-.25zm2.485 2.05c0-.168 0-.28-.006-.39l-1.497.084a6 6 0 0 1 .003.306zm-2.248-1.855c.443.397.711.954.745 1.549l1.497-.084a3.75 3.75 0 0 0-1.24-2.582zM22 7.25h-1.5v1.5H22zM18.25 9.5v2.419h1.5V9.5zm1.538 4.553l1.975.658l.474-1.422l-1.974-.659zM18.25 11.92c0 .968.62 1.828 1.538 2.134l.475-1.423a.75.75 0 0 1-.513-.711zm2.25-4.67a2.25 2.25 0 0 0-2.25 2.25h1.5a.75.75 0 0 1 .75-.75z" opacity=".5"/></g></svg>