<svg viewBox="0 0 24 24"><circle cx="12" cy="10" r="7" fill="currentColor" opacity=".5"/><path fill="currentColor" d="M9.602 8.213C9.471 6.754 8.346 5.395 7.8 4.897l-.302-.258A6.97 6.97 0 0 1 12 3c1.55 0 2.98.503 4.14 1.356c.164.497-.148 1.536-.475 2.033c-.12.18-.388.404-.683.616c-.666.478-1.505.715-1.932 1.595a1 1 0 0 0-.058.711c.042.154.069.321.07.485c0 .528-.534.91-1.062.904c-1.375-.015-2.275-1.123-2.398-2.487m3.404 6.181c.691-1.304 2.997-1.304 2.997-1.304c2.402-.025 2.727-1.484 2.944-2.22a7.004 7.004 0 0 1-5.975 6.063c-.226-.475-.493-1.546.034-2.54"/><path fill="currentColor" fill-rule="evenodd" d="M18.004 1.5a.75.75 0 0 1 1.058-.059a11.04 11.04 0 0 1 3.688 8.246c0 5.751-4.389 10.478-10 11.013v.55H14a.75.75 0 0 1 0 1.5h-4a.75.75 0 0 1 0-1.5h1.25v-.509a11.04 11.04 0 0 1-7.809-3.678a.75.75 0 1 1 1.118-1a9.54 9.54 0 0 0 7.128 3.187a9.563 9.563 0 0 0 9.563-9.563a9.54 9.54 0 0 0-3.188-7.128a.75.75 0 0 1-.059-1.06" clip-rule="evenodd"/></svg>