<svg viewBox="0 0 24 24"><path fill="currentColor" fill-rule="evenodd" d="M9.206 3.182A9.25 9.25 0 0 0 2.78 11.25h4.48c.033-1.096.135-2.176.305-3.2c.207-1.254.515-2.41.91-3.4a9.3 9.3 0 0 1 .731-1.468M12 1.25a10.75 10.75 0 1 0 0 21.5a10.75 10.75 0 0 0 0-21.5m0 1.5c-.261 0-.599.126-.991.532c-.396.41-.791 1.051-1.141 1.925c-.347.869-.63 1.917-.824 3.089c-.155.94-.25 1.937-.282 2.954h6.476a22.5 22.5 0 0 0-.282-2.954c-.194-1.172-.477-2.22-.824-3.089c-.35-.874-.745-1.515-1.14-1.925c-.393-.406-.73-.532-.992-.532m4.74 8.5a24 24 0 0 0-.305-3.2c-.207-1.254-.515-2.41-.91-3.4a9.3 9.3 0 0 0-.732-1.468a9.24 9.24 0 0 1 3.748 2.277a9.25 9.25 0 0 1 2.678 5.791zm-1.502 1.5H8.762c.031 1.017.127 2.014.282 2.954c.194 1.172.477 2.22.824 3.089c.35.874.745 1.515 1.14 1.925c.393.406.73.532.992.532c.261 0 .599-.126.991-.532c.396-.41.791-1.051 1.141-1.925c.347-.869.63-1.917.824-3.089c.155-.94.25-1.937.282-2.954m-.444 8.068c.27-.434.515-.929.73-1.468c.396-.99.704-2.146.911-3.4a24 24 0 0 0 .304-3.2h4.48a9.25 9.25 0 0 1-6.426 8.068m-5.588 0a9.3 9.3 0 0 1-.73-1.468c-.396-.99-.704-2.146-.911-3.4a24 24 0 0 1-.304-3.2H2.78a9.25 9.25 0 0 0 6.425 8.068" clip-rule="evenodd"/></svg>