<svg viewBox="0 0 24 24"><path fill="currentColor" fill-rule="evenodd" d="M12 1.25a.75.75 0 0 1 .75.75v1.282a8.75 8.75 0 0 1 7.968 7.968H22a.75.75 0 0 1 0 1.5h-1.282a8.75 8.75 0 0 1-7.968 7.968V22a.75.75 0 0 1-1.5 0v-1.282a8.75 8.75 0 0 1-7.968-7.968H2a.75.75 0 0 1 0-1.5h1.282a8.75 8.75 0 0 1 7.968-7.968V2a.75.75 0 0 1 .75-.75m0 3.5a7.25 7.25 0 1 0 0 14.5a7.25 7.25 0 0 0 0-14.5m0 5a2.25 2.25 0 1 0 0 4.5a2.25 2.25 0 0 0 0-4.5M8.25 12a3.75 3.75 0 1 1 7.5 0a3.75 3.75 0 0 1-7.5 0" clip-rule="evenodd"/></svg>