<svg viewBox="0 0 24 24"><path fill="currentColor" fill-rule="evenodd" d="M12 2.9a13 13 0 0 0-.484.829l-.13.235l-.03.054c-.11.198-.257.466-.5.65c-.249.189-.548.255-.762.302l-.058.013l-.255.057c-.465.106-.755.173-.95.241c.12.181.323.42.651.804l.174.202l.04.047c.147.17.344.398.435.69c.09.29.059.589.036.817l-.006.062l-.027.271c-.047.484-.075.797-.075 1.018c.193-.068.456-.188.858-.373l.238-.11l.055-.025c.198-.093.478-.224.79-.224s.592.131.79.224l.055.025l.238.11c.402.185.665.305.858.373c0-.221-.028-.534-.075-1.018l-.027-.27l-.006-.063c-.023-.228-.053-.528.037-.817c.09-.292.287-.52.435-.69l.04-.047l.173-.202c.328-.384.53-.623.65-.804c-.194-.068-.484-.135-.95-.24l-.254-.058l-.058-.013c-.214-.047-.513-.113-.761-.302c-.244-.184-.391-.452-.5-.65l-.03-.054l-.131-.235A13 13 0 0 0 12 2.9m2.153 6.35h.002zm-4.308 0h.002zm1.038-7.365c.216-.282.568-.635 1.117-.635c.55 0 .901.353 1.117.635c.208.271.42.653.651 1.067l.026.046l.13.235l.133.23l.065.017l.173.04l.255.057l.052.012c.447.101.864.195 1.179.32c.341.134.753.376.912.887c.157.503-.036.937-.23 1.246c-.183.29-.465.62-.771.978l-.207.242l-.176.211c.002.056.009.135.024.286l.03.321c.047.48.09.917.074 1.261c-.016.358-.1.838-.525 1.16c-.438.333-.927.268-1.274.168c-.325-.093-.715-.272-1.133-.465l-.049-.022l-.238-.11L12 9.974l-.055.024l-.163.074l-.238.11l-.049.022c-.418.193-.808.372-1.133.465c-.347.1-.836.165-1.273-.168c-.426-.322-.51-.802-.526-1.16c-.016-.344.027-.781.073-1.26l.005-.052l.027-.27a5 5 0 0 0 .023-.286l-.057-.071l-.118-.14l-.174-.203l-.034-.039c-.306-.358-.588-.688-.77-.978c-.195-.309-.388-.743-.231-1.246c.159-.51.571-.753.912-.887c.315-.125.732-.219 1.18-.32l.051-.012l.255-.057l.239-.057l.04-.069l.091-.16l.131-.236l.026-.046c.23-.414.444-.796.651-1.067M4 8.202c.052.096.163.293.346.43c.195.15.43.2.528.22l.025.005l.02.005l-.032.038l-.018.02c-.068.079-.222.253-.292.48c-.07.225-.045.455-.033.56q0 .015.003.028v.011A1.3 1.3 0 0 0 4 9.855c-.24 0-.453.099-.548.144l.002-.011l.003-.028c.011-.105.036-.335-.034-.56c-.07-.227-.224-.401-.292-.48l-.018-.02l-.033-.038l.02-.005l.026-.005c.097-.02.333-.07.529-.22A1.3 1.3 0 0 0 4 8.202m-1.065-.076l-.142-.627zm.471 2.506v.003zm1.188.003v-.003zm-1.45-3.92c.129-.169.402-.465.856-.465s.728.296.856.464c.121.159.24.372.35.568l.018.034l.05.088l.084.019l.039.009c.21.047.445.1.63.173c.212.084.548.265.678.682c.127.409-.038.747-.156.934a5 5 0 0 1-.435.552l-.073.086l.012.12l.003.039c.023.226.046.47.037.67c-.01.212-.062.597-.41.861c-.362.274-.755.207-.967.146a4.6 4.6 0 0 1-.645-.264L4 11.4l-.071.033l-.037.016a5 5 0 0 1-.608.247c-.212.061-.605.128-.966-.146c-.35-.264-.402-.649-.411-.862c-.01-.2.015-.443.037-.67l.003-.038l.012-.12l-.073-.086l-.026-.03a5 5 0 0 1-.409-.522c-.118-.187-.283-.525-.156-.934c.13-.417.466-.598.677-.682a4.6 4.6 0 0 1 .67-.182l.085-.02l.049-.087l.019-.034c.11-.196.228-.41.349-.568M20 8.201c.052.096.163.293.346.43a1.3 1.3 0 0 0 .553.225l.02.005l-.032.038l-.018.02a1.4 1.4 0 0 0-.292.48c-.07.225-.045.455-.033.56q0 .015.003.028v.011A1.3 1.3 0 0 0 20 9.855c-.24 0-.453.099-.547.144v-.011l.003-.028a1.4 1.4 0 0 0-.033-.56a1.4 1.4 0 0 0-.292-.48l-.018-.02l-.033-.038l.02-.005l.026-.005c.097-.02.333-.07.528-.22c.183-.137.294-.334.346-.43m-.594 2.43v.003zm-.262-3.918c.129-.168.402-.464.856-.464s.727.296.856.464c.121.159.24.372.35.568l.018.034l.05.088l.084.019l.039.009c.21.047.446.1.63.173c.212.084.548.265.678.682c.127.409-.038.747-.156.934c-.107.169-.265.353-.41.523l-.025.03l-.073.085l.012.12l.003.039c.022.226.046.47.037.67c-.01.212-.062.597-.41.861c-.362.274-.755.207-.967.146c-.191-.055-.41-.156-.608-.247q-.018-.007-.037-.017L20 11.4l-.071.033l-.037.016a5 5 0 0 1-.608.247c-.212.061-.605.128-.966-.146c-.35-.264-.402-.649-.411-.862c-.01-.2.015-.443.037-.67l.003-.038l.012-.12l-.073-.086l-.026-.03a5 5 0 0 1-.409-.522c-.117-.187-.283-.525-.156-.934c.13-.417.466-.598.677-.682a4.6 4.6 0 0 1 .67-.182l.085-.02l.049-.087l.019-.034c.11-.196.228-.41.349-.568m1.45 3.92v-.002zm-11.91 3.814c1.866-.361 3.863-.28 5.48.684c.226.135.44.304.625.512c.376.423.57.947.579 1.473q.286-.186.577-.407l1.808-1.365a2.64 2.64 0 0 1 3.124 0c.835.63 1.169 1.763.57 2.723c-.425.681-1.066 1.624-1.717 2.228c-.66.61-1.597 1.124-2.306 1.466c-.862.416-1.792.646-2.697.792c-1.85.3-3.774.254-5.602-.123a14.3 14.3 0 0 0-2.865-.293H4a.75.75 0 0 1 0-1.5h2.26c1.062 0 2.135.111 3.168.324a14.1 14.1 0 0 0 5.06.111c.828-.134 1.602-.333 2.284-.662c.683-.33 1.451-.764 1.938-1.215c.493-.457 1.044-1.248 1.465-1.922c.127-.204.109-.497-.202-.732c-.37-.28-.947-.28-1.316 0l-1.808 1.365c-.72.545-1.609 1.128-2.71 1.304a9 9 0 0 1-.347.048q-.086.015-.179.02a10 10 0 0 1-1.932 0a.75.75 0 1 1 .141-1.493a8.5 8.5 0 0 0 1.668-.003l.03-.003a.742.742 0 0 0 .15-1.138a1.2 1.2 0 0 0-.275-.222c-1.181-.705-2.759-.822-4.426-.5a12.1 12.1 0 0 0-4.535 1.935a.75.75 0 0 1-.868-1.224a13.6 13.6 0 0 1 5.118-2.183" clip-rule="evenodd"/></svg>