<svg viewBox="0 0 24 24"><path fill="currentColor" d="M7 4.83c0 1.547 1.726 3.178 3.15 4.26c.799.606 1.198.91 1.85.91s1.051-.304 1.85-.91C15.274 8.007 17 6.376 17 4.83c0-2.79-2.75-3.833-5-1.677C9.75.997 7 2.039 7 4.829"/><path fill="currentColor" d="M6.26 21.388H6c-.943 0-1.414 0-1.707-.293C4 20.804 4 20.332 4 19.389v-1.112c0-.518 0-.777.133-1.009s.334-.348.736-.582c2.646-1.539 6.403-2.405 8.91-.91q.253.151.45.368a1.49 1.49 0 0 1-.126 2.134a1 1 0 0 1-.427.24q.18-.021.345-.047c.911-.145 1.676-.633 2.376-1.162l1.808-1.365a1.89 1.89 0 0 1 2.22 0c.573.433.749 1.146.386 1.728c-.423.678-1.019 1.545-1.591 2.075s-1.426 1.004-2.122 1.34c-.772.373-1.624.587-2.491.728c-1.758.284-3.59.24-5.33-.118a15 15 0 0 0-3.017-.308" opacity=".5"/></svg>