<svg viewBox="0 0 24 24"><g fill="none" stroke="currentColor" stroke-width="1.5"><path d="M8.796 6.64a2.718 2.718 0 1 1 3.845-3.844l2.563 2.563a2.719 2.719 0 0 1-3.845 3.845z"/><path d="M14 4s-.225 1.168-1.529 2.471S10 8 10 8"/><path stroke-linecap="round" d="M4 21.388h2.26c1.01 0 2.033.106 3.016.308a14.9 14.9 0 0 0 5.33.118m-.93-3.297q.18-.021.345-.047c.911-.145 1.676-.633 2.376-1.162l1.808-1.365a1.89 1.89 0 0 1 2.22 0c.573.433.749 1.146.386 1.728c-.423.678-1.019 1.545-1.591 2.075m-5.544-1.229l-.11.012m.11-.012a1 1 0 0 0 .427-.24a1.49 1.49 0 0 0 .126-2.134a1.9 1.9 0 0 0-.45-.367c-2.797-1.669-7.15-.398-9.779 1.467m9.676 1.274a.5.5 0 0 1-.11.012m0 0a9.3 9.3 0 0 1-1.814.004"/></g></svg>