<svg viewBox="0 0 24 24"><path fill="currentColor" fill-rule="evenodd" d="M11.793 9.88a4.4 4.4 0 0 1 2.51.739l7.433 5.01c.95.64 1.207 1.697.877 2.588c-.325.876-1.191 1.533-2.316 1.533H3.702c-1.112 0-1.974-.645-2.306-1.51c-.338-.88-.1-1.931.828-2.583l7.095-4.991a4.4 4.4 0 0 1 2.473-.786m1.672 1.983a2.9 2.9 0 0 0-1.655-.483a2.9 2.9 0 0 0-1.628.512l-7.095 4.992c-.346.242-.391.557-.29.818c.105.276.403.548.905.548h16.595c.509 0 .806-.277.91-.555c.097-.263.047-.582-.31-.822z" clip-rule="evenodd"/><path fill="currentColor" d="M10.285 6.91c0-.568.538-1.16 1.374-1.16s1.374.592 1.374 1.16c0 .311-.111.581-.293.78c-.113.122-.238.245-.38.385l-.08.08a9 9 0 0 0-.53.558c-.265.312-.552.724-.658 1.23a4.5 4.5 0 0 1 1.596.016q.075-.12.205-.274a8 8 0 0 1 .441-.464l.074-.072c.141-.14.296-.292.436-.445c.442-.48.69-1.115.69-1.795c0-1.542-1.365-2.659-2.875-2.659S8.785 5.367 8.785 6.91a.75.75 0 1 0 1.5 0" opacity=".5"/></svg>