<svg viewBox="0 0 24 24"><path fill="currentColor" d="m17.814 21.236l-.27.458a.635.635 0 0 1-1.087 0l-.271-.458c-.21-.355-.316-.533-.485-.631s-.381-.102-.806-.11c-.628-.01-1.022-.049-1.352-.185a2.5 2.5 0 0 1-1.353-1.353c-.19-.46-.19-1.042-.19-2.207v-.5c0-1.637 0-2.455.368-3.056a2.5 2.5 0 0 1 .826-.826c.6-.368 1.42-.368 3.056-.368h1.5c1.637 0 2.455 0 3.056.368a2.5 2.5 0 0 1 .826.826c.368.6.368 1.42.368 3.056v.5c0 1.165 0 1.747-.19 2.207a2.5 2.5 0 0 1-1.353 1.353c-.33.137-.724.175-1.352.186c-.425.007-.638.01-.806.109c-.17.098-.274.276-.485.631"/><path fill="currentColor" d="M10.2 2.277a.75.75 0 0 1 .523.924L9.32 8.25h7.443l1.514-5.45a.75.75 0 1 1 1.446.4L18.32 8.25H22a.75.75 0 0 1 0 1.5h-4.097L17.278 12h-1.556l.625-2.25H8.903l-1.527 5.5h4.628q-.005.44-.004 1v.5H6.959L5.723 21.2a.75.75 0 0 1-1.446-.4l1.125-4.05H2a.75.75 0 1 1 0-1.5h3.819l1.528-5.5H4a.75.75 0 0 1 0-1.5h3.763L9.277 2.8a.75.75 0 0 1 .924-.523m3.227 17.981l-.15.541a.75.75 0 0 0 1.445.402l.195-.705h-.023c-.628-.011-1.022-.05-1.352-.186z" opacity=".5"/></svg>