<svg viewBox="0 0 24 24"><g fill="none" stroke="currentColor" stroke-width="1.5"><path d="M21 18v-6c0-3.75 0-5.625-.955-6.939a5 5 0 0 0-1.106-1.106C17.625 3 15.749 3 12 3s-5.625 0-6.939.955A5 5 0 0 0 3.955 5.06C3 6.375 3 8.251 3 12v6" opacity=".5"/><path stroke-linecap="round" d="M22 15.5v2m-20-2v2" opacity=".5"/><path d="M8 13.845c0-.765 0-1.147-.175-1.413a1 1 0 0 0-.34-.322c-.271-.156-.637-.12-1.368-.048c-1.232.121-1.848.182-2.29.514a2.1 2.1 0 0 0-.55.63C3 13.697 3 14.34 3 15.629v1.565c0 1.275 0 1.913.282 2.406q.16.277.392.492c.413.38 1.014.5 2.218.736c.847.167 1.271.251 1.584.075a1 1 0 0 0 .3-.259C8 20.356 8 19.908 8 19.01zm8 0c0-.765 0-1.147.175-1.413c.088-.133.204-.244.34-.322c.271-.156.637-.12 1.368-.048c1.232.121 1.848.182 2.29.514c.223.169.41.383.55.63c.277.49.277 1.133.277 2.422v1.565c0 1.275 0 1.913-.282 2.406q-.16.277-.392.492c-.413.38-1.014.5-2.218.736c-.847.167-1.271.251-1.584.075a1 1 0 0 1-.3-.259C16 20.356 16 19.908 16 19.01z"/></g></svg>