<svg viewBox="0 0 24 24"><g fill="none"><path stroke="currentColor" stroke-linecap="round" stroke-width="1.5" d="M7 7c0-3.314 1.937-5 4.872-5c1.852 0 3.307.672 4.128 2m-4 8v2.5"/><path fill="currentColor" d="m9.266 20.615l.455-.596zM12 8.931l-.532.528a.75.75 0 0 0 1.064 0zm2.734 11.684l.456.597zm-5.013-.596c-1.37-1.045-2.852-2.055-4.029-3.338c-1.15-1.254-1.942-2.705-1.942-4.582h-1.5c0 2.361 1.017 4.157 2.337 5.596c1.294 1.411 2.945 2.54 4.224 3.517zM3.75 12.1c0-1.824 1.065-3.364 2.535-4.015c1.429-.632 3.352-.466 5.183 1.375l1.064-1.057c-2.22-2.232-4.795-2.6-6.854-1.69C3.66 7.606 2.25 9.687 2.25 12.1zm5.06 9.113c.461.351.96.73 1.466 1.016c.507.287 1.09.522 1.724.522v-1.5c-.266 0-.583-.1-.985-.328c-.402-.227-.82-.541-1.294-.903zm6.38 0c1.278-.977 2.929-2.106 4.223-3.517c1.32-1.439 2.337-3.235 2.337-5.596h-1.5c0 1.877-.792 3.328-1.942 4.582c-1.177 1.283-2.66 2.293-4.029 3.338zm6.56-9.113c0-2.413-1.41-4.494-3.428-5.386c-2.059-.912-4.635-.543-6.854 1.689l1.064 1.057c1.83-1.841 3.754-2.007 5.183-1.375c1.47.65 2.535 2.19 2.535 4.015zm-7.47 7.92c-.475.362-.893.676-1.295.903c-.402.228-.72.328-.985.328v1.5c.634 0 1.217-.235 1.724-.522s1.005-.665 1.466-1.016z"/></g></svg>