<svg viewBox="0 0 24 24"><g fill="none"><path stroke="currentColor" stroke-linecap="round" stroke-width="1.5" d="M7 7c0-3.314 1.937-5 4.872-5c1.852 0 3.307.672 4.128 2m-4 8v2.5"/><path fill="currentColor" d="m9.266 20.615l.455-.596zM12 8.931l-.532.528a.75.75 0 0 0 1.064 0zm2.734 11.684l.456.597zM7.54 18.364a.75.75 0 1 0-.935 1.173zm-4.292-2.485a.75.75 0 0 0 1.306-.738zm.503-3.78c0-1.824 1.065-3.364 2.535-4.015c1.429-.632 3.352-.466 5.183 1.375l1.064-1.057c-2.22-2.232-4.795-2.6-6.854-1.69C3.66 7.606 2.25 9.687 2.25 12.1zm5.06 9.113c.461.351.96.73 1.466 1.016c.507.287 1.09.522 1.724.522v-1.5c-.266 0-.583-.1-.985-.328c-.402-.227-.82-.541-1.294-.903zm6.38 0c1.278-.977 2.929-2.106 4.223-3.517c1.32-1.439 2.337-3.235 2.337-5.596h-1.5c0 1.877-.792 3.328-1.942 4.582c-1.177 1.283-2.66 2.293-4.029 3.338zm6.56-9.113c0-2.413-1.41-4.494-3.428-5.386c-2.059-.912-4.635-.543-6.854 1.689l1.064 1.057c1.83-1.841 3.754-2.007 5.183-1.375c1.47.65 2.535 2.19 2.535 4.015zm-7.47 7.92c-.475.362-.893.676-1.295.903c-.402.228-.72.328-.985.328v1.5c.634 0 1.217-.235 1.724-.522s1.005-.665 1.466-1.016zm-4.56 0c-.719-.549-1.443-1.067-2.181-1.655l-.935 1.173c.748.596 1.54 1.166 2.207 1.675zm-5.167-4.878A6.05 6.05 0 0 1 3.75 12.1h-1.5c0 1.45.384 2.695.997 3.78z"/></g></svg>