<svg viewBox="0 0 24 24"><path fill="currentColor" d="m12 5.5l-.54.52l.01.011zM8.962 18.91l-.465.59zm6.076 0l-.464-.588zm-8.037-2.49a.75.75 0 0 0-.954 1.16zm-4.659-3.009a.75.75 0 1 0 1.316-.72zm11.128-5.38a.75.75 0 1 0 1.06-1.062zM2.75 9.136c0-2.15 1.215-3.954 2.874-4.713c1.612-.737 3.778-.541 5.836 1.597l1.08-1.04C10.1 2.444 7.264 2.025 5 3.06C2.786 4.073 1.25 6.425 1.25 9.137zM8.497 19.5c.513.404 1.063.834 1.62 1.16s1.193.59 1.883.59v-1.5c-.31 0-.674-.12-1.126-.385c-.453-.264-.922-.628-1.448-1.043zm7.006 0c1.426-1.125 3.25-2.413 4.68-4.024c1.457-1.64 2.567-3.673 2.567-6.339h-1.5c0 2.198-.9 3.891-2.188 5.343c-1.315 1.48-2.972 2.647-4.488 3.842zM22.75 9.137c0-2.712-1.535-5.064-3.75-6.077c-2.264-1.035-5.098-.616-7.54 1.92l1.08 1.04c2.058-2.137 4.224-2.333 5.836-1.596c1.659.759 2.874 2.562 2.874 4.713zm-8.176 9.185c-.526.415-.995.779-1.448 1.043s-.816.385-1.126.385v1.5c.69 0 1.326-.265 1.883-.59c.558-.326 1.107-.756 1.62-1.16zm-5.148 0c-.796-.627-1.605-1.226-2.425-1.901l-.954 1.158c.83.683 1.708 1.335 2.45 1.92zm-5.768-5.63a7.25 7.25 0 0 1-.908-3.555h-1.5c0 1.638.42 3.046 1.092 4.275zm7.812-6.66l2 1.998l1.06-1.06l-2-2z"/></svg>