<svg viewBox="0 0 24 24"><g fill="none"><path fill="currentColor" d="M6.25 8a.75.75 0 0 0-1.5 0zm-1.5 8a.75.75 0 0 0 1.5 0zm6.315-8a.75.75 0 0 0-1.5 0zm-1.5 8a.75.75 0 0 0 1.5 0zm3.907-.8V8.8h-1.5v6.4zm.213.05a.32.32 0 0 1-.202-.061c-.03-.026-.01-.025-.01.011h-1.5c0 .98.902 1.55 1.712 1.55zm0 1.5c2.937 0 5.565-2.002 5.565-4.75h-1.5c0 1.67-1.684 3.25-4.065 3.25zm0-8c2.381 0 4.065 1.58 4.065 3.25h1.5c0-2.748-2.628-4.75-5.565-4.75zm0-1.5c-.81 0-1.713.57-1.713 1.55h1.5c0 .036-.02.037.011.011a.32.32 0 0 1 .202-.061zM4.75 8v4h1.5V8zm0 4v4h1.5v-4zm4.815-4v4h1.5V8zm0 4v4h1.5v-4zm-4.065.75h4.815v-1.5H5.5z"/><path stroke="currentColor" stroke-linecap="round" stroke-width="1.5" d="M22 12c0 4.714 0 7.071-1.465 8.535C19.072 22 16.714 22 12 22s-7.071 0-8.536-1.465C2 19.072 2 16.714 2 12s0-7.071 1.464-8.536C4.93 2 7.286 2 12 2s7.071 0 8.535 1.464c.974.974 1.3 2.343 1.41 4.536"/></g></svg>