<svg viewBox="0 0 24 24"><path fill="currentColor" d="M12 22c-4.714 0-7.071 0-8.536-1.465C2 19.072 2 16.714 2 12s0-7.071 1.464-8.536C4.93 2 7.286 2 12 2s7.071 0 8.535 1.464C22 4.93 22 7.286 22 12s0 7.071-1.465 8.535C19.072 22 16.714 22 12 22" opacity=".5"/><path fill="currentColor" d="M5.5 7.25a.75.75 0 0 1 .75.75v3.25h3.315V8a.75.75 0 1 1 1.5 0v8a.75.75 0 0 1-1.5 0v-3.25H6.25V16a.75.75 0 0 1-1.5 0V8a.75.75 0 0 1 .75-.75"/><path fill="currentColor" fill-rule="evenodd" d="M13.685 7.25c-.81 0-1.713.57-1.713 1.55v6.4c0 .98.903 1.55 1.713 1.55c2.937 0 5.565-2.002 5.565-4.75s-2.628-4.75-5.565-4.75m-.202 1.561l-.01.01v6.358l.01.01a.32.32 0 0 0 .202.061c2.381 0 4.065-1.58 4.065-3.25s-1.684-3.25-4.065-3.25c-.1 0-.169.034-.202.061" clip-rule="evenodd"/></svg>