<svg viewBox="0 0 24 24"><path fill="currentColor" d="M14 5.5a2.5 2.5 0 1 1-5 0a2.5 2.5 0 0 1 5 0"/><path fill="currentColor" fill-rule="evenodd" d="M19 6.25a.75.75 0 0 1 .75.75v14a.75.75 0 0 1-1.5 0V10.994a5.88 5.88 0 0 1-5.636.15a1.098 1.098 0 0 0-1.658.832l-.069.686a1.54 1.54 0 0 0 .715 1.455l.333.208a6.59 6.59 0 0 1 3.07 5.001l.142 1.607a.75.75 0 0 1-1.494.134l-.143-1.608a5.09 5.09 0 0 0-2.37-3.862l-.333-.208a3.04 3.04 0 0 1-1.412-2.876l.069-.687c.188-1.885 2.264-2.938 3.894-1.986a4.38 4.38 0 0 0 4.738-.563l.154-.128V7a.75.75 0 0 1 .75-.75" clip-rule="evenodd"/><path fill="currentColor" d="M9.19 15.775a.75.75 0 0 1 .535.916v.002l-.001.005l-.005.016l-.016.058q-.02.076-.06.207c-.05.174-.125.415-.219.686c-.181.525-.456 1.223-.796 1.745c-.357.548-.918 1.101-1.35 1.493a16 16 0 0 1-.751.637l-.05.04l-.014.01l-.005.004a.75.75 0 0 1-.916-1.188l.003-.002l.01-.007l.04-.033q.056-.043.157-.126c.133-.11.317-.265.518-.447c.417-.377.856-.823 1.102-1.2c.234-.36.46-.911.635-1.416a14 14 0 0 0 .25-.804l.014-.048l.003-.011v-.002a.75.75 0 0 1 .917-.535" opacity=".5"/></svg>