<svg viewBox="0 0 24 24"><g fill="none"><circle cx="11.5" cy="4.5" r="2.5" stroke="currentColor" stroke-width="1.5"/><path stroke="currentColor" stroke-linecap="round" stroke-width="1.5" d="M9 17.5s-.426 1.62-1 2.5c-.603.925-2 2-2 2"/><path fill="currentColor" d="m10.21 12.901l.746.075zm-.069.686l-.746-.075zm8.436-2.734l-.48-.576zm.903.223a.75.75 0 0 0-.96-1.152zm-8.276 4.677l-.397.636zm.333.208l.398-.636zm2.72 4.432l.747-.067zm-.604 1.674a.75.75 0 1 0 1.494-.134zM13 11.5l-.386.643l.05.028zm-3.536 1.326l-.069.686l1.492.15l.07-.686zm9.593-1.397l.423-.353l-.96-1.152l-.424.353zm-8.25 4.96l.333.208l.795-1.272l-.333-.208zm2.703 4.07l.143 1.608l1.494-.134l-.143-1.607zm-.845-8.288a5.88 5.88 0 0 0 6.392-.742l-.96-1.152a4.38 4.38 0 0 1-4.762.552zm-1.525 4.426a5.09 5.09 0 0 1 2.37 3.862l1.494-.133a6.59 6.59 0 0 0-3.07-5.001zm-1.745-3.085a3.04 3.04 0 0 0 1.412 2.877l.795-1.272a1.54 1.54 0 0 1-.715-1.455zm1.561-.536a1.098 1.098 0 0 1 1.658-.833l.772-1.286c-1.634-.98-3.733.073-3.922 1.97z"/><path stroke="currentColor" stroke-linecap="round" stroke-width="1.5" d="M19 22V8M9 10l-2.389.144a1.721 1.721 0 0 0-1.035 3.001L7.665 15"/></g></svg>