<svg viewBox="0 0 24 24"><g fill="none"><circle cx="11.5" cy="4.5" r="2.5" stroke="currentColor" stroke-width="1.5"/><path stroke="currentColor" stroke-linecap="round" stroke-width="1.5" d="M9 17.5L6 22"/><path fill="currentColor" d="m10.375 11.246l.746.074zm-.162 1.622l.746.074zm3.79-1.533l-.48.577zm.081.068l.48-.576zm3.831 0l-.48-.576zm1.565-.327a.75.75 0 0 0-.96-1.152zm-5.252 8.988l.747-.067zm-.575 2.002a.75.75 0 1 0 1.494-.133zm1.66-9.791l-.256.704zm1.373 0l.257.704zm-4.593-2.033l-.18.728zm.15.056l-.243.71zm1.238.627l.428-.615zm-1.664 5.21l.397-.636zm1.664 1.236l-.584.47zm.398.65l-.684.307zm-3.674-3.462l-.716.224zm.269.548l-.615.43zm.011-4.423l.682.311zm.824-.581l-.065-.747zm-1.68 1.068l-.162 1.622l1.492.15l.162-1.623zm3.894.74l.081.069l.96-1.153l-.081-.068zm4.872.069l1.085-.904l-.96-1.152l-1.085.903zm-4.914 8.15l.172 1.936l1.494-.133l-.172-1.936zm.123-8.15c.555.462.973.824 1.453 1l.514-1.41c-.174-.063-.358-.202-1.007-.743zm3.831-1.153c-.648.54-.832.68-1.007.743l.515 1.41c.48-.176.897-.538 1.452-1zm-2.378 2.153a2.75 2.75 0 0 0 1.886 0l-.515-1.41a1.25 1.25 0 0 1-.857 0zm-3.144-2.01h.003zl-.01-.003q-.007 0-.026-.007a.7.7 0 0 1-.126-.053a.73.73 0 0 1-.305-.3a.75.75 0 0 1 .358-1.05l.033-.013a.8.8 0 0 0-.216.127a.75.75 0 0 0 .196 1.27l.053.021l.129.046l.485-1.42l-.081-.028l.008.003l.024.012a.7.7 0 0 1 .206.149a.747.747 0 0 1-.057 1.096a.8.8 0 0 1-.172.108l-.044.018l.034-.013c.014-.007.058-.026.11-.06a.74.74 0 0 0 .34-.649a.75.75 0 0 0-.442-.664c-.041-.018-.075-.028-.083-.031l-.028-.008l-.019-.005l-.008-.002zm2.57-.21a7 7 0 0 0-.574-.45l-.856 1.23c.147.104.238.179.47.372zM12 11.007c.296.101.795.354 1.053.533l.856-1.231a6.8 6.8 0 0 0-1.424-.722zm-.58 5.763c.942.59 1.257.798 1.477 1.07l1.168-.94c-.415-.516-.998-.869-1.85-1.402zm3.555 3.226c-.09-1.002-.14-1.68-.412-2.285l-1.368.616c.144.32.187.695.286 1.802zm-2.078-2.155q.18.224.298.486l1.368-.616a3.8 3.8 0 0 0-.498-.81zm-3.43-5.05c-.08.802-.157 1.42.022 1.991l1.431-.448c-.065-.208-.054-.458.04-1.393zm2.747 2.707c-.796-.497-1-.642-1.126-.821l-1.23.858c.343.49.878.809 1.561 1.235zm-2.725-.716q.127.405.37.754l1.23-.86a1.3 1.3 0 0 1-.168-.342zm1.632-3.463c.015-.146.023-.217.032-.27c.007-.039.011-.048.014-.055l-1.364-.623c-.13.286-.15.557-.174.8zm1.152-1.806c-.198-.05-.376-.093-.524-.122a1.8 1.8 0 0 0-.505-.036l.13 1.494c-.02.002-.005-.003.093.015c.1.02.232.052.446.105zm-1.106 1.481c-.007.016-.007.01.014-.013a.5.5 0 0 1 .175-.124c.028-.011.034-.01.017-.008l-.13-1.494a1.8 1.8 0 0 0-.845.33a1.77 1.77 0 0 0-.595.686z"/><path stroke="currentColor" stroke-linecap="round" stroke-width="1.5" d="M19 22V8M8 10l-1.672.557A1.94 1.94 0 0 0 5 12.4a.97.97 0 0 0 .537.868L8 14.5"/></g></svg>