<svg viewBox="0 0 24 24"><g fill="none"><circle cx="11.5" cy="4.5" r="2.5" stroke="currentColor" stroke-width="1.5"/><path stroke="currentColor" stroke-linecap="round" stroke-width="1.5" d="M9 17.5L6 22" opacity=".5"/><path fill="currentColor" d="m10.375 11.246l.747.074zm-.162 1.622l.747.074zm3.79-1.533l-.48.577zm.081.068l.48-.576zm3.832 0l-.48-.576zm1.564-.327a.75.75 0 0 0-.96-1.152zm-5.252 8.988l.747-.067zm-.575 2.002a.75.75 0 1 0 1.495-.133zm1.661-9.791l-.257.704zm1.372 0l.257.704zm-4.592-2.033l-.18.728zm.148.056l-.242.71zm1.24.627l.428-.615zm-1.665 5.21l.398-.636zm1.664 1.236l-.584.47zm.398.65l-.683.307zm-3.674-3.462l-.716.224zm.269.548l-.615.43zm.011-4.423l.683.311zm.824-.581l-.065-.747zm-1.68 1.068l-.162 1.622l1.492.15l.163-1.623zm3.894.74l.081.069l.96-1.153l-.08-.068zm4.873.069l1.084-.904l-.96-1.152l-1.084.903zm-4.915 8.15l.172 1.936l1.495-.133l-.173-1.936zm.123-8.15c.555.462.973.824 1.453 1l.514-1.41c-.174-.063-.358-.202-1.006-.743zm3.832-1.153c-.649.54-.833.68-1.007.743l.514 1.41c.48-.176.898-.538 1.453-1zm-2.379 2.153a2.75 2.75 0 0 0 1.886 0l-.514-1.41a1.25 1.25 0 0 1-.858 0zm-3.143-2.01h.002q.002 0 0 0zl-.01-.003l-.026-.007a.6.6 0 0 1-.126-.053a.76.76 0 0 1-.305-.3a.75.75 0 0 1 .391-1.063a.7.7 0 0 0-.217.127a.753.753 0 0 0-.124 1.016a.76.76 0 0 0 .375.275l.128.046l.485-1.42l-.081-.028l.008.003a1 1 0 0 1 .082.043a.7.7 0 0 1 .148.118a.75.75 0 0 1-.229 1.204l-.043.018l.033-.013c.014-.007.058-.026.11-.06a.75.75 0 0 0 .34-.649a.75.75 0 0 0-.442-.664c-.04-.018-.074-.028-.082-.031l-.029-.008l-.018-.005l-.008-.002zm2.57-.21a8 8 0 0 0-.574-.45l-.857 1.23c.148.104.238.179.47.372zM12 11.007a5.3 5.3 0 0 1 1.053.533l.857-1.231a6.8 6.8 0 0 0-1.425-.722zm-.58 5.763c.942.59 1.257.798 1.477 1.07l1.168-.94c-.415-.516-.997-.869-1.85-1.402zm3.555 3.226c-.089-1.002-.14-1.68-.412-2.285l-1.367.616c.143.32.187.695.285 1.802zm-2.078-2.155q.18.224.299.486l1.367-.616a3.8 3.8 0 0 0-.498-.81zm-3.43-5.05c-.08.802-.156 1.42.022 1.991l1.432-.448c-.066-.208-.055-.458.039-1.393zm2.748 2.707c-.797-.497-1.001-.642-1.126-.821l-1.23.858c.342.49.878.809 1.56 1.235zm-2.726-.716q.127.405.37.754l1.23-.86a1.3 1.3 0 0 1-.168-.342zm1.633-3.463c.014-.146.022-.217.031-.27c.007-.039.012-.048.015-.055l-1.365-.623c-.13.286-.15.557-.174.8zm1.152-1.806q-.3-.077-.524-.122a1.8 1.8 0 0 0-.506-.036l.13 1.494c-.02.002-.005-.003.093.015c.1.02.232.052.447.105zm-1.106 1.481c-.007.016-.007.01.013-.013a.5.5 0 0 1 .175-.124c.028-.011.034-.01.018-.008l-.13-1.494a1.8 1.8 0 0 0-.846.33c-.22.155-.459.388-.595.686z"/><path stroke="currentColor" stroke-linecap="round" stroke-width="1.5" d="M19 22V8"/><path stroke="currentColor" stroke-linecap="round" stroke-width="1.5" d="m8 10l-1.672.557A1.94 1.94 0 0 0 5 12.4a.97.97 0 0 0 .537.868L8 14.5" opacity=".5"/></g></svg>