<svg viewBox="0 0 24 24"><path fill="currentColor" fill-rule="evenodd" d="M11.25 2a.75.75 0 0 1 .75-.75c5.937 0 10.75 4.813 10.75 10.75S17.937 22.75 12 22.75S1.25 17.937 1.25 12a.75.75 0 0 1 1.5 0A9.25 9.25 0 1 0 12 2.75a.75.75 0 0 1-.75-.75M12 8.25a.75.75 0 0 1 .75.75v3.25H16a.75.75 0 0 1 0 1.5h-4a.75.75 0 0 1-.75-.75V9a.75.75 0 0 1 .75-.75M9.1 2.398a.75.75 0 0 1-.43.97a9 9 0 0 0-.42.173a.75.75 0 1 1-.608-1.37q.24-.108.488-.203a.75.75 0 0 1 .97.43M5.648 4.24a.75.75 0 0 1-.026 1.06a9 9 0 0 0-.321.322a.75.75 0 1 1-1.087-1.035q.183-.19.373-.373a.75.75 0 0 1 1.06.026M3.16 7.261a.75.75 0 0 1 .381.99q-.092.207-.174.419a.75.75 0 0 1-1.399-.54q.094-.247.202-.488a.75.75 0 0 1 .99-.381" clip-rule="evenodd"/></svg>