<svg viewBox="0 0 24 24"><g fill="currentColor" fill-rule="evenodd" clip-rule="evenodd"><path d="M12 2.75A9.25 9.25 0 0 1 21.25 12a.75.75 0 0 0 1.5 0c0-5.937-4.813-10.75-10.75-10.75a.75.75 0 0 0 0 1.5m0 5.5a.75.75 0 0 1 .75.75v3.25H16a.75.75 0 0 1 0 1.5h-4a.75.75 0 0 1-.75-.75V9a.75.75 0 0 1 .75-.75"/><path d="M9.1 2.398a.75.75 0 0 1-.43.97a9 9 0 0 0-.42.174a.75.75 0 1 1-.608-1.371q.24-.107.488-.203a.75.75 0 0 1 .97.43M5.648 4.241a.75.75 0 0 1-.026 1.06q-.165.158-.321.321a.75.75 0 1 1-1.087-1.034q.183-.191.373-.373a.75.75 0 0 1 1.06.026M3.16 7.26a.75.75 0 0 1 .381.99q-.092.207-.174.42a.75.75 0 0 1-1.399-.54q.094-.248.202-.488a.75.75 0 0 1 .99-.381m-1.139 3.744a.75.75 0 0 1 .732.768a10 10 0 0 0 0 .456a.75.75 0 1 1-1.5.036a11 11 0 0 1 0-.529a.75.75 0 0 1 .768-.731M21.603 14.9a.75.75 0 0 1 .429.97q-.095.247-.202.487a.75.75 0 1 1-1.371-.608q.092-.207.174-.42a.75.75 0 0 1 .97-.429m-19.205 0a.75.75 0 0 1 .97.43q.081.211.173.419a.75.75 0 1 1-1.37.608q-.108-.24-.203-.487a.75.75 0 0 1 .43-.97m17.362 3.452c.3.285.311.76.026 1.06a11 11 0 0 1-.373.373a.75.75 0 1 1-1.035-1.086q.165-.157.321-.321a.75.75 0 0 1 1.06-.026m-15.52 0a.75.75 0 0 1 1.06.026q.157.165.322.32a.75.75 0 0 1-1.035 1.087a11 11 0 0 1-.373-.373a.75.75 0 0 1 .026-1.06M7.26 20.84a.75.75 0 0 1 .99-.382q.207.093.419.174a.75.75 0 0 1-.54 1.4a11 11 0 0 1-.488-.203a.75.75 0 0 1-.381-.99m9.478 0a.75.75 0 0 1-.381.99q-.24.106-.488.202a.75.75 0 0 1-.54-1.4q.211-.081.42-.174a.75.75 0 0 1 .989.382m-5.735 1.139a.75.75 0 0 1 .768-.732a10 10 0 0 0 .456 0a.75.75 0 0 1 .036 1.5a11 11 0 0 1-.528 0a.75.75 0 0 1-.732-.768" opacity=".5"/></g></svg>