<svg viewBox="0 0 24 24"><path fill="currentColor" fill-rule="evenodd" d="M9.1 2.398a.75.75 0 0 1-.43.97a9.187 9.187 0 0 0-.42.173a.75.75 0 1 1-.608-1.37c.16-.072.323-.14.488-.203a.75.75 0 0 1 .97.43M5.648 4.24a.75.75 0 0 1-.026 1.06a9.31 9.31 0 0 0-.321.322a.75.75 0 1 1-1.087-1.035c.122-.127.246-.251.373-.373a.75.75 0 0 1 1.06.026M3.16 7.261a.75.75 0 0 1 .381.99c-.061.138-.12.278-.174.419a.75.75 0 0 1-1.399-.54c.063-.165.13-.327.202-.488a.75.75 0 0 1 .99-.381m-1.139 3.743a.75.75 0 0 1 .732.768a9.448 9.448 0 0 0 0 .456a.75.75 0 0 1-1.5.036a10.961 10.961 0 0 1 0-.528a.75.75 0 0 1 .768-.732M21.603 14.9a.75.75 0 0 1 .429.97c-.064.165-.13.327-.202.488a.75.75 0 1 1-1.371-.609a9.28 9.28 0 0 0 .174-.419a.75.75 0 0 1 .97-.43m-19.205 0a.75.75 0 0 1 .97.43c.054.141.112.281.173.42a.75.75 0 1 1-1.37.608a9.104 9.104 0 0 1-.203-.488a.75.75 0 0 1 .43-.97m17.362 3.452c.3.286.311.76.026 1.06a11.96 11.96 0 0 1-.373.374a.75.75 0 1 1-1.035-1.087c.11-.104.217-.211.321-.32a.75.75 0 0 1 1.06-.027m-15.52 0a.75.75 0 0 1 1.06.026c.105.11.212.217.322.321a.75.75 0 1 1-1.035 1.087a10.788 10.788 0 0 1-.373-.373a.75.75 0 0 1 .026-1.06m3.021 2.488a.75.75 0 0 1 .99-.381c.138.061.278.12.419.174a.75.75 0 0 1-.54 1.399a10.61 10.61 0 0 1-.488-.202a.75.75 0 0 1-.381-.99m9.478 0a.75.75 0 0 1-.381.99c-.16.071-.323.139-.488.202a.75.75 0 1 1-.54-1.4a9.28 9.28 0 0 0 .42-.173a.75.75 0 0 1 .989.381m-5.735 1.139a.75.75 0 0 1 .768-.732a9.101 9.101 0 0 0 .456 0a.75.75 0 0 1 .036 1.5a11.065 11.065 0 0 1-.528 0a.75.75 0 0 1-.732-.768M12 2.75A9.25 9.25 0 0 1 21.25 12a.75.75 0 0 0 1.5 0c0-5.937-4.813-10.75-10.75-10.75a.75.75 0 0 0 0 1.5m0 5.5a.75.75 0 0 1 .75.75v3.25H16a.75.75 0 0 1 0 1.5h-4a.75.75 0 0 1-.75-.75V9a.75.75 0 0 1 .75-.75" clip-rule="evenodd"/></svg>