<svg viewBox="0 0 24 24"><g fill="currentColor" fill-rule="evenodd" clip-rule="evenodd"><path d="M12 2.75A9.25 9.25 0 0 1 21.25 12a.75.75 0 0 0 1.5 0c0-5.937-4.813-10.75-10.75-10.75a.75.75 0 0 0 0 1.5m0 5.5a.75.75 0 0 1 .75.75v3.25H16a.75.75 0 0 1 0 1.5h-4a.75.75 0 0 1-.75-.75V9a.75.75 0 0 1 .75-.75"/><path d="M9.1 2.398a.75.75 0 0 1-.43.97a9.187 9.187 0 0 0-.42.174a.75.75 0 1 1-.608-1.371c.16-.072.323-.139.488-.203a.75.75 0 0 1 .97.43M5.648 4.241a.75.75 0 0 1-.026 1.06c-.11.105-.217.212-.321.321a.75.75 0 1 1-1.087-1.034c.122-.127.246-.252.373-.373a.75.75 0 0 1 1.06.026M3.16 7.26a.75.75 0 0 1 .381.99c-.061.138-.12.278-.174.42a.75.75 0 0 1-1.399-.54c.063-.165.13-.328.202-.488a.75.75 0 0 1 .99-.381m-1.139 3.744a.75.75 0 0 1 .732.768a9.446 9.446 0 0 0 0 .456a.75.75 0 1 1-1.5.036a10.949 10.949 0 0 1 0-.529a.75.75 0 0 1 .768-.731M21.603 14.9a.75.75 0 0 1 .429.97c-.064.164-.13.327-.202.487a.75.75 0 1 1-1.371-.608c.061-.138.12-.278.174-.42a.75.75 0 0 1 .97-.429m-19.205 0a.75.75 0 0 1 .97.43c.054.141.112.28.173.419a.75.75 0 1 1-1.37.608a9.426 9.426 0 0 1-.203-.487a.75.75 0 0 1 .43-.97m17.362 3.452c.3.285.311.76.026 1.06a10.75 10.75 0 0 1-.373.373a.75.75 0 1 1-1.035-1.086c.11-.104.217-.212.321-.321a.75.75 0 0 1 1.06-.026m-15.52 0a.75.75 0 0 1 1.06.026c.105.11.212.216.322.32a.75.75 0 0 1-1.035 1.087a10.785 10.785 0 0 1-.373-.373a.75.75 0 0 1 .026-1.06M7.26 20.84a.75.75 0 0 1 .99-.382c.138.062.278.12.419.174a.75.75 0 0 1-.54 1.4a10.723 10.723 0 0 1-.488-.203a.75.75 0 0 1-.381-.99m9.478 0a.75.75 0 0 1-.381.99c-.16.07-.323.138-.488.202a.75.75 0 0 1-.54-1.4c.141-.054.281-.112.42-.174a.75.75 0 0 1 .989.382m-5.735 1.139a.75.75 0 0 1 .768-.732a9.606 9.606 0 0 0 .456 0a.75.75 0 0 1 .036 1.5a11.066 11.066 0 0 1-.528 0a.75.75 0 0 1-.732-.768" opacity=".5"/></g></svg>