<svg viewBox="0 0 24 24"><path fill="currentColor" fill-rule="evenodd" d="M11.25 2a.75.75 0 0 1 .75-.75c5.937 0 10.75 4.813 10.75 10.75S17.937 22.75 12 22.75S1.25 17.937 1.25 12a.75.75 0 0 1 1.5 0A9.25 9.25 0 1 0 12 2.75a.75.75 0 0 1-.75-.75" clip-rule="evenodd"/><path fill="currentColor" fill-rule="evenodd" d="M9.1 2.398a.75.75 0 0 1-.43.97a9 9 0 0 0-.419.174a.75.75 0 1 1-.608-1.371q.24-.107.487-.203a.75.75 0 0 1 .97.43M5.648 4.241a.75.75 0 0 1-.026 1.06q-.165.158-.32.321a.75.75 0 1 1-1.087-1.034q.182-.191.373-.373a.75.75 0 0 1 1.06.026M3.161 7.26a.75.75 0 0 1 .38.99q-.091.207-.173.42a.75.75 0 0 1-1.4-.54q.096-.248.203-.488a.75.75 0 0 1 .99-.381" clip-rule="evenodd" opacity=".5"/><path fill="currentColor" d="M12 8.25a.75.75 0 0 1 .75.75v3.25H16a.75.75 0 0 1 0 1.5h-4a.75.75 0 0 1-.75-.75V9a.75.75 0 0 1 .75-.75" opacity=".5"/></svg>