<svg viewBox="0 0 24 24"><path fill="currentColor" fill-rule="evenodd" d="M21.5 8.5c0-1.404 0-2.107-.337-2.611a2 2 0 0 0-.552-.552c-.441-.295-1.034-.332-2.115-.336q.005.438.004.91V7.25h1a.75.75 0 0 1 0 1.5h-1v1.5h1a.75.75 0 0 1 0 1.5h-1v1.5h1a.75.75 0 0 1 0 1.5h-1v6.5H17V6c0-1.886 0-2.828-.586-3.414S14.886 2 13 2h-2c-1.886 0-2.828 0-3.414.586S7 4.114 7 6v15.25H5.5v-6.5h-1a.75.75 0 0 1 0-1.5h1v-1.5h-1a.75.75 0 0 1 0-1.5h1v-1.5h-1a.75.75 0 0 1 0-1.5h1V5.91q-.001-.47.004-.91c-1.081.005-1.674.042-2.115.337a2 2 0 0 0-.552.552C2.5 6.393 2.5 7.096 2.5 8.5v12.75H2a.75.75 0 0 0 0 1.5h20a.75.75 0 0 0 0-1.5h-.5zM12 4.25a.75.75 0 0 1 .75.75v1.25H14a.75.75 0 0 1 0 1.5h-1.25V9a.75.75 0 0 1-1.5 0V7.75H10a.75.75 0 0 1 0-1.5h1.25V5a.75.75 0 0 1 .75-.75M9.25 12a.75.75 0 0 1 .75-.75h4a.75.75 0 0 1 0 1.5h-4a.75.75 0 0 1-.75-.75m0 3a.75.75 0 0 1 .75-.75h4a.75.75 0 0 1 0 1.5h-4a.75.75 0 0 1-.75-.75M12 18.25a.75.75 0 0 1 .75.75v2.25h-1.5V19a.75.75 0 0 1 .75-.75" clip-rule="evenodd"/></svg>