<svg viewBox="0 0 24 24"><path fill="currentColor" d="M2 12c0-4.714 0-7.071 1.464-8.536C4.93 2 7.286 2 12 2s7.071 0 8.535 1.464C22 4.93 22 7.286 22 12s0 7.071-1.465 8.535C19.072 22 16.714 22 12 22s-7.071 0-8.536-1.465C2 19.072 2 16.714 2 12" opacity=".5"/><path fill="currentColor" d="M3.465 20.536C4.929 22 7.286 22 12 22s7.072 0 8.536-1.465C21.893 19.179 21.993 17.056 22 13h-3.16c-.905 0-1.358 0-1.755.183c-.398.183-.693.527-1.282 1.214l-.605.706c-.59.687-.884 1.031-1.282 1.214s-.85.183-1.755.183h-.321c-.905 0-1.358 0-1.756-.183s-.692-.527-1.281-1.214l-.606-.706c-.589-.687-.883-1.031-1.281-1.214S6.066 13 5.16 13H2c.007 4.055.107 6.179 1.465 7.535"/><path fill="currentColor" d="M12.53 5.97a.75.75 0 0 0-1.06 0l-3.3 3.3a.75.75 0 1 0 1.06 1.06l2.02-2.02v8.187c-.534-.008-.865-.042-1.166-.18c-.397-.183-.692-.527-1.281-1.214l-.606-.706c-.589-.687-.883-1.031-1.281-1.214S6.066 13 5.16 13H2c.007 4.055.107 6.179 1.465 7.535C4.929 22 7.286 22 12 22s7.072 0 8.536-1.465C21.893 19.179 21.993 17.056 22 13h-3.16c-.905 0-1.358 0-1.755.183c-.398.183-.693.527-1.282 1.214l-.605.706c-.59.687-.884 1.031-1.282 1.214c-.3.138-.632.172-1.166.18V8.311l2.02 2.02a.75.75 0 1 0 1.06-1.061z"/></svg>