<svg viewBox="0 0 24 24"><g fill="none" stroke="currentColor" stroke-width="1.5"><circle cx="19" cy="5" r="3"/><path stroke-linecap="round" d="M2 13h3.16c.905 0 1.358 0 1.756.183s.692.527 1.281 1.214l.606.706c.589.687.883 1.031 1.281 1.214s.85.183 1.756.183h.32c.905 0 1.358 0 1.756-.183s.692-.527 1.281-1.214l.606-.706c.589-.687.883-1.031 1.281-1.214S17.934 13 18.84 13H22"/><path stroke-linecap="round" d="M2 12c0 4.714 0 7.071 1.464 8.535C4.93 22 7.286 22 12 22s7.071 0 8.535-1.465C22 19.072 22 16.714 22 12q.001-1.079-.005-2M14 2.005Q13.079 2 12 2C7.286 2 4.929 2 3.464 3.464c-.973.974-1.3 2.343-1.409 4.536"/></g></svg>