<svg viewBox="0 0 24 24"><path fill="currentColor" d="M22 5a3 3 0 1 1-6 0a3 3 0 0 1 6 0"/><path fill="currentColor" d="M15.612 2.038C14.59 2 13.399 2 12 2C7.286 2 4.929 2 3.464 3.464C2 4.93 2 7.286 2 12s0 7.071 1.464 8.535C4.93 22 7.286 22 12 22s7.071 0 8.535-1.465C22 19.072 22 16.714 22 12c0-1.399 0-2.59-.038-3.612a4.5 4.5 0 0 1-6.35-6.35" opacity=".5"/><path fill="currentColor" d="M3.465 20.536C4.929 22 7.286 22 12 22s7.072 0 8.536-1.465C21.893 19.179 21.993 17.056 22 13h-3.16c-.905 0-1.358 0-1.755.183c-.398.183-.693.527-1.282 1.214l-.605.706c-.59.687-.884 1.031-1.282 1.214s-.85.183-1.755.183h-.321c-.905 0-1.358 0-1.756-.183s-.692-.527-1.281-1.214l-.606-.706c-.589-.687-.883-1.031-1.281-1.214S6.066 13 5.16 13H2c.007 4.055.107 6.179 1.465 7.535"/></svg>