<svg viewBox="0 0 24 24"><path fill="currentColor" fill-rule="evenodd" d="M12 1.25a.75.75 0 0 1 .53.22l3 3a.75.75 0 0 1-1.06 1.06l-1.72-1.72V10a.75.75 0 0 1-1.5 0V3.81L9.53 5.53a.75.75 0 0 1-1.06-1.06l3-3a.75.75 0 0 1 .53-.22" clip-rule="evenodd"/><path fill="currentColor" d="M3.464 20.536C4.93 22 7.286 22 12 22s7.071 0 8.535-1.465c1.271-1.27 1.44-3.213 1.462-6.785H18.84c-.974 0-1.229.016-1.442.114c-.214.099-.392.282-1.026 1.02l-.693.81c-.502.586-.9 1.051-1.45 1.304s-1.162.253-1.934.252h-.59c-.772 0-1.384.002-1.934-.252c-.55-.253-.948-.718-1.45-1.305l-.693-.808c-.634-.74-.812-.922-1.026-1.02c-.213-.099-.468-.115-1.442-.115H2.003c.023 3.572.19 5.515 1.461 6.785"/><path fill="currentColor" d="M22 12c0-4.714 0-7.071-1.465-8.536c-1.02-1.02-2.473-1.33-4.856-1.423l-.472-.016l1.384 1.384a2.25 2.25 0 0 1-2.341 3.713V10a2.25 2.25 0 0 1-4.5 0V7.122a2.25 2.25 0 0 1-2.341-3.713l1.376-1.384c-2.66.073-4.235.354-5.32 1.44C2 4.928 2 7.285 2 12v.25h3.295c.772 0 1.384-.002 1.934.252c.55.253.948.718 1.45 1.305l.693.808c.634.74.812.922 1.026 1.02c.213.099.468.115 1.442.115h.32c.974 0 1.229-.016 1.442-.114c.214-.099.392-.282 1.026-1.02l.693-.81c.502-.586.9-1.051 1.45-1.304s1.162-.253 1.935-.252H22z"/></svg>