<svg viewBox="0 0 24 24"><g fill="none"><path stroke="currentColor" stroke-width="1.5" d="M2 12c0-4.714 0-7.071 1.464-8.536C4.93 2 7.286 2 12 2s7.071 0 8.535 1.464C22 4.93 22 7.286 22 12s0 7.071-1.465 8.535C19.072 22 16.714 22 12 22s-7.071 0-8.536-1.465C2 19.072 2 16.714 2 12Z"/><path fill="currentColor" d="M4 14.25a.75.75 0 0 0 0 1.5zm16 1.5a.75.75 0 0 0 0-1.5zm-5.401.651l-.53-.53zm.23-.23l-.53-.53zm-5.679.079l-.552.508zm.035.038l.552-.507zm1.096 1l-.336.67zm.188.082l.266-.701zm3.057-.062l-.32-.678zm-.18.075l.253.706zm2.717-2.23l-.287-.694zm-8.186-.005l.283-.695zm.098.043l-.32.678zM4.25 15a.75.75 0 0 0 1.5 0zm14 0a.75.75 0 0 0 1.5 0zM4 15.75h2.301v-1.5H4zm13.657 0H20v-1.5h-2.343zm-2.528 1.182l.23-.23l-1.06-1.06l-.23.229zm-6.53-.174l.035.038l1.103-1.015l-.035-.039zm.035.038c.473.515.832.922 1.31 1.162l.673-1.34c-.176-.089-.33-.24-.88-.837zm3.312-.046c-.813 0-1.027-.011-1.211-.081l-.531 1.403c.5.19 1.042.178 1.742.178zm-2.001 1.208q.126.063.258.114l.532-1.403a1 1 0 0 1-.118-.052zm4.123-2.087c-.543.543-.693.68-.862.76l.64 1.355c.46-.217.815-.586 1.283-1.054zm-2.122 2.379c.662 0 1.175.01 1.653-.161l-.506-1.412c-.176.063-.379.073-1.147.073zm1.26-1.62a1 1 0 0 1-.113.047l.506 1.412q.126-.045.248-.103zm4.45-2.38c-.755 0-1.342-.013-1.88.21l.574 1.385c.198-.082.428-.095 1.307-.095zm-2.297 2.452c.621-.621.793-.775.991-.857l-.574-1.386c-.537.223-.943.648-1.478 1.182zM6.3 15.75c.87 0 1.098.013 1.293.092l.566-1.389c-.53-.216-1.11-.203-1.859-.203zm3.401-.008c-.506-.55-.89-.986-1.408-1.23l-.639 1.357c.19.09.355.25.943.889zm-2.108.1l.061.027l.64-1.357l-.135-.059zM6.5 12.75h11v-1.5h-11zm11 0a.75.75 0 0 1 .75.75h1.5a2.25 2.25 0 0 0-2.25-2.25zm-11.75.75a.75.75 0 0 1 .75-.75v-1.5a2.25 2.25 0 0 0-2.25 2.25zm.75-3.75h11v-1.5h-11zm11 0a.75.75 0 0 1 .75.75h1.5a2.25 2.25 0 0 0-2.25-2.25zm-11.75.75a.75.75 0 0 1 .75-.75v-1.5a2.25 2.25 0 0 0-2.25 2.25zm0 0v-3h-1.5v3zm.75-3.75h11v-1.5h-11zm11.75.75v3h1.5v-3zm-.75-.75a.75.75 0 0 1 .75.75h1.5a2.25 2.25 0 0 0-2.25-2.25zM5.75 7.5a.75.75 0 0 1 .75-.75v-1.5A2.25 2.25 0 0 0 4.25 7.5zm0 7.5v-1.5h-1.5V15zm12.5-1.5V15h1.5v-1.5zm-12.5 0v-3h-1.5v3zm12.5-3v3h1.5v-3z" opacity=".5"/></g></svg>