<svg viewBox="0 0 24 24"><path fill="currentColor" fill-rule="evenodd" d="M2 12c0-4.714 0-7.071 1.464-8.536C4.93 2 7.286 2 12 2s7.071 0 8.535 1.464C22 4.93 22 7.286 22 12s0 7.071-1.465 8.535C19.072 22 16.714 22 12 22s-7.071 0-8.536-1.465C2 19.072 2 16.714 2 12m3-3.5v-1A1.5 1.5 0 0 1 6.5 6h11A1.5 1.5 0 0 1 19 7.5v1a2.5 2.5 0 0 0-1.5-.5h-11c-.563 0-1.082.186-1.5.5m0 2v1a2.5 2.5 0 0 1 1.5-.5h11a2.5 2.5 0 0 1 1.5.5v-1A1.5 1.5 0 0 0 17.5 9h-11A1.5 1.5 0 0 0 5 10.5m15 3.75a.75.75 0 1 1 0 1.5h-2.343c-.879 0-1.11.013-1.307.095c-.198.082-.37.236-.991.857l-.305.305c-.432.432-.773.774-1.207.98q-.122.057-.248.102c-.453.162-.936.162-1.547.161h-.218c-.646 0-1.157.001-1.63-.178a3 3 0 0 1-.26-.114c-.452-.227-.797-.603-1.235-1.079l-.11-.121c-.59-.64-.753-.799-.944-.889l-.061-.027c-.195-.079-.424-.092-1.293-.092H4a.75.75 0 0 1 0-1.5h1.02v-1A1.5 1.5 0 0 1 6.5 12h11a1.5 1.5 0 0 1 1.48 1.25v1z" clip-rule="evenodd"/></svg>