<svg viewBox="0 0 24 24"><path fill="currentColor" d="M3.464 20.536C4.93 22 7.286 22 12 22s7.071 0 8.535-1.465C22 19.072 22 16.714 22 12s0-7.071-1.465-8.536C19.072 2 16.714 2 12 2S4.929 2 3.464 3.464C2 4.93 2 7.286 2 12s0 7.071 1.464 8.535" opacity=".5"/><path fill="currentColor" d="M5 8.5v-1A1.5 1.5 0 0 1 6.5 6h11A1.5 1.5 0 0 1 19 7.5v1a2.5 2.5 0 0 0-1.5-.5h-11c-.563 0-1.082.186-1.5.5m0 3v-1A1.5 1.5 0 0 1 6.5 9h11a1.5 1.5 0 0 1 1.5 1.5v1a2.5 2.5 0 0 0-1.5-.5h-11a2.5 2.5 0 0 0-1.5.5M20.75 15a.75.75 0 0 0-.75-.75h-1.02v-1A1.5 1.5 0 0 0 17.5 12h-11a1.5 1.5 0 0 0-1.48 1.25v1H4a.75.75 0 0 0 0 1.5h2.301c.87 0 1.098.013 1.293.092l.061.027c.19.09.355.25.943.889l.036.038l.075.083c.438.476.783.852 1.236 1.08q.126.063.258.113c.474.18.985.179 1.631.178h.218c.611 0 1.094.001 1.547-.161q.126-.045.248-.103c.434-.205.775-.547 1.207-.98l.075-.074l.23-.23c.621-.621.793-.775.991-.857s.428-.095 1.307-.095H20a.75.75 0 0 0 .75-.75"/></svg>