<svg viewBox="0 0 24 24"><g fill="none" stroke="currentColor" stroke-linecap="round" stroke-width="1.5"><path stroke-linejoin="round" d="m19 5l-4 4m0 0V6m0 3h3"/><path d="m10.038 5.316l.649 1.163c.585 1.05.35 2.426-.572 3.349c0 0-1.12 1.119.91 3.148c2.028 2.028 3.147.91 3.147.91c.923-.923 2.3-1.158 3.349-.573l1.163.65c1.585.884 1.772 3.106.379 4.5c-.837.836-1.863 1.488-2.996 1.53c-1.908.073-5.149-.41-8.4-3.66c-3.25-3.251-3.733-6.492-3.66-8.4c.043-1.133.694-2.159 1.53-2.996c1.394-1.393 3.616-1.206 4.5.38Z" opacity=".5"/></g></svg>