<svg viewBox="0 0 24 24"><path fill="currentColor" fill-rule="evenodd" d="M11.944 1.25h.112c1.838 0 3.294 0 4.433.153c1.172.158 2.121.49 2.87 1.238c.748.749 1.08 1.698 1.238 2.87c.153 1.14.153 2.595.153 4.433v4.112c0 1.838 0 3.294-.153 4.433c-.158 1.172-.49 2.121-1.238 2.87c-.749.748-1.698 1.08-2.87 1.238c-1.14.153-2.595.153-4.433.153h-.112c-1.838 0-3.294 0-4.433-.153c-1.172-.158-2.121-.49-2.87-1.238c-.748-.749-1.08-1.698-1.238-2.87c-.153-1.14-.153-2.595-.153-4.433V9.944c0-1.838 0-3.294.153-4.433c.158-1.172.49-2.121 1.238-2.87c.749-.748 1.698-1.08 2.87-1.238c1.14-.153 2.595-.153 4.433-.153m-5.13 1.823c-.489.146-.834.351-1.112.629c-.423.423-.677 1.003-.812 2.009c-.138 1.028-.14 2.382-.14 4.289v4c0 1.907.002 3.262.14 4.29c.135 1.005.389 1.585.812 2.008s1.003.677 2.009.812c1.028.138 2.382.14 4.289.14s3.262-.002 4.29-.14c1.005-.135 1.585-.389 2.008-.812s.677-1.003.812-2.009c.138-1.027.14-2.382.14-4.289v-4c0-1.907-.002-3.261-.14-4.29c-.135-1.005-.389-1.585-.812-2.008c-.278-.278-.623-.483-1.112-.629c-.662.994-1.124 1.685-1.812 2.112q-.207.128-.427.229c-.742.337-1.58.337-2.787.336h-.32c-1.207 0-2.045.001-2.787-.336a4 4 0 0 1-.427-.229c-.688-.427-1.15-1.118-1.812-2.112m1.637-.257c.444.644.677.915.967 1.095q.123.077.256.137c.41.186.894.202 2.326.202s1.917-.016 2.326-.202q.132-.06.256-.137c.29-.18.523-.451.967-1.095c-.92-.065-2.068-.066-3.549-.066s-2.628.001-3.549.066M8.25 19a.75.75 0 0 1 .75-.75h6a.75.75 0 0 1 0 1.5H9a.75.75 0 0 1-.75-.75" clip-rule="evenodd"/></svg>