<svg viewBox="0 0 24 24"><path fill="currentColor" d="m16.366 16.179l.512-.512c.916-.916 2.432-.885 3.386.07c.954.953.985 2.469.069 3.385l-.512.512a5 5 0 0 0-.168-.377a6.5 6.5 0 0 0-1.232-1.678a6.5 6.5 0 0 0-1.678-1.232a5 5 0 0 0-.377-.168m-1.226 1.226l-.473.473c-.916.916-.885 2.432.07 3.386c.953.954 2.469.985 3.385.069l.473-.473l-.1-.47l-.003-.011l-.026-.084a3 3 0 0 0-.156-.37a5 5 0 0 0-.95-1.285c-.5-.501-.962-.79-1.285-.95a3 3 0 0 0-.454-.182l-.011-.003zM6.076 2.617C6 2.801 6 3.034 6 3.5s0 .699.076.883a1 1 0 0 0 .541.54C6.801 5 7.034 5 7.5 5h9c.466 0 .699 0 .883-.076a1 1 0 0 0 .54-.541C18 4.199 18 3.966 18 3.5s0-.699-.076-.883a1 1 0 0 0-.541-.54C17.199 2 16.966 2 16.5 2h-9c-.466 0-.699 0-.883.076a1 1 0 0 0-.54.541M7.75 6L5.501 7.799a4 4 0 0 0-1.135 1.45H19.64a4 4 0 0 0-1.123-1.45L16.294 6z"/><path fill="currentColor" fill-rule="evenodd" d="M20 10.908q0-.079-.003-.158H4.004L4 10.922v6.328h9.234q.166-.226.373-.433l2.21-2.21c1.144-1.144 2.795-1.377 4.183-.812zm-7.25 2.342V12a.75.75 0 0 0-1.5 0v1.25H10a.75.75 0 0 0 0 1.5h1.25V16a.75.75 0 0 0 1.5 0v-1.25H14a.75.75 0 0 0 0-1.5z" clip-rule="evenodd"/><path fill="currentColor" d="M12.573 18.75a3.98 3.98 0 0 0 .812 3.25H8.957c-.571 0-.857 0-1.127-.037a4 4 0 0 1-2.153-1.008c-.201-.184-.384-.404-.75-.842a4 4 0 0 1-.743-1.363z"/></svg>