<svg viewBox="0 0 24 24"><path fill="currentColor" d="M9.62 18.98a3.23 3.23 0 0 0 2.644-.927l2.655-2.655A7.75 7.75 0 0 0 22 12.955c-.006 4.084-.101 6.218-1.463 7.58C19.07 22 16.714 22 12 22s-7.071 0-8.536-1.465C2 19.072 2 16.714 2 12s0-7.071 1.464-8.536C4.827 2.102 6.961 2.007 11.045 2a7.75 7.75 0 0 0-2.443 7.08l-2.655 2.656a3.23 3.23 0 0 0-.927 2.643l.193 1.741c.071.637.356 1.23.81 1.684l.173.174a2.82 2.82 0 0 0 1.684.809z"/><path fill="currentColor" fill-rule="evenodd" d="M21.963 8.412a5.73 5.73 0 0 1-1.649 3.413a5.75 5.75 0 0 1-5.507 1.505a.9.9 0 0 0-.864.215l-1.53 1.53l-.002-.003l-1.458-1.442a.75.75 0 0 0-1.055 1.067l1.455 1.438l-.503.504a1.23 1.23 0 0 1-1.009.353l-1.74-.193a.82.82 0 0 1-.49-.236l-.174-.173a.82.82 0 0 1-.236-.49l-.193-1.741a1.23 1.23 0 0 1 .353-1.009l3.094-3.093a.9.9 0 0 0 .215-.864a5.75 5.75 0 0 1 1.505-5.507a5.73 5.73 0 0 1 3.413-1.649c.906.034 1.68.097 2.348.216c.87.267 1.69.744 2.378 1.433a5.7 5.7 0 0 1 1.433 2.378c.12.668.182 1.442.216 2.348m-6.975-1.757a1.667 1.667 0 1 1 2.357 2.357a1.667 1.667 0 0 1-2.357-2.357" clip-rule="evenodd"/></svg>