<svg viewBox="0 0 24 24"><g fill="none"><path fill="currentColor" d="m20.314 3.686l.53-.53zm0 8.14l.53.53zm-9.86-1.769l-.53-.53zM7.362 13.15l.53.53zm3.489 3.489l-.53-.53zm3.093-3.094l-.53-.53zm-6.935.614l-.746.082zm.193 1.74l-.745.083zm.9.9l-.083.745zm1.74.193l.083-.745zm-2.404-.602l.53-.53zm.173.173l-.53.53zm3.06-7.37l-.726.186zm4.137 4.137l-.186.726zm-3.854.3a.75.75 0 0 0-1.055 1.067zm4.566-5.148a.917.917 0 0 1 0-1.297l-1.061-1.06a2.417 2.417 0 0 0 0 3.417zm1.296 0a.917.917 0 0 1-1.297 0l-1.06 1.06a2.417 2.417 0 0 0 3.417 0zm0-1.297a.917.917 0 0 1 0 1.297l1.06 1.06a2.417 2.417 0 0 0 0-3.418zm1.06-1.06a2.417 2.417 0 0 0-3.417 0l1.06 1.06a.917.917 0 0 1 1.297 0zm1.909-1.909a5.006 5.006 0 0 1 0 7.079l1.06 1.06a6.506 6.506 0 0 0 0-9.2zm1.06-1.06a6.506 6.506 0 0 0-9.2 0l1.061 1.06a5.006 5.006 0 0 1 7.079 0zm-10.92 6.37L6.831 12.62l1.06 1.06l3.094-3.093zm1.456 7.643l1.034-1.034l-1.061-1.06l-1.034 1.033zm1.034-1.034l2.06-2.06l-1.061-1.06l-2.06 2.06zm-6.152-1.894l.194 1.741l1.49-.166l-.193-1.74zm1.756 3.303l1.74.194l.166-1.491l-1.74-.193zm-1.112-.624l.174.174l1.06-1.061l-.173-.174zm1.278-.866a.07.07 0 0 1-.043-.021l-1.061 1.06c.252.253.583.412.938.451zm-1.728-.072c.039.355.198.686.45.938l1.061-1.06a.07.07 0 0 1-.02-.044zm3.863.126a.48.48 0 0 1-.395.139l-.165 1.49a1.98 1.98 0 0 0 1.621-.568zM6.831 12.62a1.98 1.98 0 0 0-.569 1.622l1.491-.166a.48.48 0 0 1 .139-.395zm4.566-3.614a5 5 0 0 1 1.308-4.79l-1.06-1.06a6.5 6.5 0 0 0-1.701 6.223zm8.387 2.289a5 5 0 0 1-4.79 1.308l-.373 1.453a6.5 6.5 0 0 0 6.224-1.7zm-5.31 2.78a.1.1 0 0 1 .044-.022a.2.2 0 0 1 .103.003l.373-1.453c-.527-.135-1.143-.026-1.581.412zm-3.489-3.488c.438-.437.547-1.054.412-1.58l-1.453.372q.014.061.003.103a.1.1 0 0 1-.023.045zm1.426 4.485l-1.458-1.442l-1.055 1.067l1.458 1.441z"/><path stroke="currentColor" stroke-linecap="round" stroke-width="1.5" d="M22 14.993c-.064 2.794-.33 4.426-1.446 5.541C19.088 22 16.73 22 12.01 22s-7.078 0-8.544-1.466S2 16.71 2 11.99s0-7.078 1.466-8.544C4.58 2.33 6.213 2.064 9.007 2"/></g></svg>