<svg viewBox="0 0 24 24"><path fill="currentColor" d="M8.5 10.25a1.75 1.75 0 1 0 0 3.5a1.75 1.75 0 0 0 0-3.5"/><path fill="currentColor" fill-rule="evenodd" d="M2 12c0-4.714 0-7.071 1.464-8.536C4.93 2 7.286 2 12 2s7.071 0 8.535 1.464C22 4.93 22 7.286 22 12s0 7.071-1.465 8.535C19.072 22 16.714 22 12 22s-7.071 0-8.536-1.465C2 19.072 2 16.714 2 12m9.663-.75a3.251 3.251 0 1 0 0 1.5h3.087v.75a.75.75 0 0 0 1.5 0v-.75H17a.25.25 0 0 1 .25.25v1a.75.75 0 0 0 1.5 0v-1A1.75 1.75 0 0 0 17 11.25z" clip-rule="evenodd"/></svg>