<svg viewBox="0 0 24 24"><g fill="none"><path fill="currentColor" d="m16.651 7.349l.53-.53zm0 6.511l.53.53zm-7.887-1.414l-.53-.53zM6.289 14.92l.53.53zm2.79 2.791l-.53-.53zm2.476-2.475l-.53-.53zm-5.549.49l-.745.084zm.155 1.393l-.746.083zm.72.72l-.083.746zm1.392.155l.083-.745zm-1.924-.482l.53-.53zm.14.139l-.531.53zm2.447-5.897l-.726.187zm3.31 3.31l-.187.726zm-2.978.134a.75.75 0 1 0-1.055 1.066zm3.653-4.119a.583.583 0 0 1 0-.825l-1.06-1.06a2.083 2.083 0 0 0 0 2.946zm.825 0a.583.583 0 0 1-.825 0l-1.06 1.06a2.083 2.083 0 0 0 2.945 0zm0-.825a.583.583 0 0 1 0 .825l1.06 1.06a2.083 2.083 0 0 0 0-2.945zm1.06-1.06a2.083 2.083 0 0 0-2.946 0l1.06 1.06a.583.583 0 0 1 .826 0zm1.315-1.315a3.854 3.854 0 0 1 0 5.45l1.06 1.062a5.354 5.354 0 0 0 0-7.573zm1.06-1.06a5.354 5.354 0 0 0-7.572 0l1.061 1.06a3.854 3.854 0 0 1 5.451 0zm-8.948 5.096L5.76 14.39l1.06 1.06l2.475-2.474zm1.377 6.326l.827-.827l-1.06-1.06l-.828.827zm.827-.827l1.648-1.648l-1.06-1.06l-1.649 1.648zM5.261 15.81l.154 1.392l1.491-.166l-.155-1.392zm1.537 2.775l1.392.154l.166-1.49l-1.392-.155zm-.979-.543l.139.139l1.06-1.06l-.138-.14zm1.144-.948q.032.003.056.026l-1.061 1.06c.226.227.522.37.84.405zm-1.548.108c.036.318.178.614.404.84l1.06-1.06a.1.1 0 0 1 .027.055zm3.134-.021a.24.24 0 0 1-.193.067L8.19 18.74a1.74 1.74 0 0 0 1.42-.498zM5.76 14.39a1.74 1.74 0 0 0-.498 1.42l1.49-.166a.24.24 0 0 1 .068-.193zm3.904-2.822a3.85 3.85 0 0 1 1.007-3.69l-1.06-1.06a5.35 5.35 0 0 0-1.4 5.123zm6.458 1.762a3.85 3.85 0 0 1-3.688 1.007l-.374 1.453a5.35 5.35 0 0 0 5.123-1.4zm-4.036 2.436a.1.1 0 0 1-.036.023l.01.001l.373-1.453a1.47 1.47 0 0 0-1.408.369zm-2.791-2.79a1.47 1.47 0 0 0 .369-1.408l-1.453.373l.001.01l.006-.014l.016-.022zm1.14 3.375l-1.166-1.153l-1.055 1.066l1.166 1.153z"/><path stroke="currentColor" stroke-width="1.5" d="M2 12c0-4.714 0-7.071 1.464-8.536C4.93 2 7.286 2 12 2s7.071 0 8.535 1.464C22 4.93 22 7.286 22 12s0 7.071-1.465 8.535C19.072 22 16.714 22 12 22s-7.071 0-8.536-1.465C2 19.072 2 16.714 2 12Z" opacity=".5"/></g></svg>