<svg viewBox="0 0 24 24"><g fill="currentColor" fill-rule="evenodd" clip-rule="evenodd"><path d="M15.68 5.348a2.95 2.95 0 0 0-2.953 2.946a2.95 2.95 0 0 0 2.954 2.945a2.95 2.95 0 0 0 2.954-2.945a2.95 2.95 0 0 0-2.954-2.946m-1.453 2.946a1.45 1.45 0 0 1 1.454-1.446c.806 0 1.454.65 1.454 1.446a1.45 1.45 0 0 1-1.454 1.445a1.45 1.45 0 0 1-1.454-1.445"/><path d="M9.53 20.878a2.2 2.2 0 0 0 .432-1.355c.392.116.78.13 1.152.06c.768-.146 1.337-.632 1.639-1.032l.005-.007l.005-.007a2.42 2.42 0 0 0 .396-2.02a2.9 2.9 0 0 0-.36-.85a2.2 2.2 0 0 0-.272-.393l.009-.01l.464-.462c.382.183.796.298 1.158.373a8 8 0 0 0 1.523.162c3.901 0 7.069-3.15 7.069-7.044c0-3.892-3.168-7.043-7.07-7.043c-3.9 0-7.069 3.15-7.069 7.043a6.5 6.5 0 0 0 .57 2.635l-7.256 7.226a2.37 2.37 0 0 0-.648 1.255c-.099.603.063 1.274.648 1.856l.882.878l.042.04a2.46 2.46 0 0 0 1.197.544a1.98 1.98 0 0 0 1.73-.584l.566-.564a2.33 2.33 0 0 0 1.617.276a2.62 2.62 0 0 0 1.56-.963l.006-.007zm.581-12.585c0-3.058 2.491-5.543 5.57-5.543c3.078 0 5.569 2.485 5.569 5.543c0 3.06-2.49 5.544-5.57 5.544c-.272 0-.743-.033-1.218-.13c-.497-.104-.887-.257-1.095-.43a.75.75 0 0 0-1.008.047l-.882.878c-.201.2-.395.428-.498.691c-.13.333-.088.653.06.92c.088.157.23.307.289.37l.02.021c.07.077.107.127.135.183l.027.053l.03.042l.007.01q.014.023.042.076c.038.073.082.176.11.297a.92.92 0 0 1-.15.79c-.14.183-.407.396-.714.454c-.258.049-.678.017-1.238-.54a.75.75 0 0 0-1.059 0l-.294.292a.75.75 0 0 0-.032 1.03q.018.024.055.08c.048.075.104.18.144.3c.076.225.088.466-.095.726c-.12.155-.363.332-.639.384c-.234.045-.534.012-.872-.325a.75.75 0 0 0-1.059 0l-1.029 1.025c-.165.164-.31.183-.452.162a1 1 0 0 1-.424-.187l-.857-.854c-.239-.237-.248-.42-.227-.55a.87.87 0 0 1 .227-.436l7.644-7.613a.746.746 0 0 0 .105-.925l-.002-.003a2 2 0 0 1-.082-.15a5 5 0 0 1-.538-2.232m-1.91 10.583q0 .002.004.005l-.001-.001z"/></g></svg>