<svg viewBox="0 0 24 24"><g fill="none"><path stroke="currentColor" stroke-linecap="round" stroke-width="1.5" d="M19.647 15.536H4.353m15.294 0V8c0-1.886 0-2.828-.586-3.414C18.476 4 17.533 4 15.647 4H8.353c-1.886 0-2.828 0-3.414.586S4.353 6.114 4.353 8v7.536m15.294 0l1.744 1.8l.088.092a2 2 0 0 1 .52 1.284l.001.127c0 .15 0 .224-.004.287a2 2 0 0 1-1.87 1.87a5 5 0 0 1-.287.004H4.161c-.15 0-.224 0-.287-.004a2 2 0 0 1-1.87-1.87C2 19.063 2 18.988 2 18.84l.001-.127a2 2 0 0 1 .52-1.284l.088-.092l1.744-1.8M9.5 18.5h5"/><path fill="currentColor" d="M12.75 6.75a.75.75 0 1 1-1.5 0a.75.75 0 0 1 1.5 0"/></g></svg>