<svg viewBox="0 0 24 24"><path fill="currentColor" fill-rule="evenodd" d="M8.945 2.25h6.11c1.367 0 2.47 0 3.337.117c.9.12 1.658.38 2.26.981c.602.602.86 1.36.982 2.26c.116.867.116 1.97.116 3.337v5.107c0 .899 0 1.648-.08 2.242c-.084.628-.27 1.195-.726 1.65c-.455.456-1.022.642-1.65.726c-.594.08-1.343.08-2.242.08H6.948c-.898 0-1.648 0-2.242-.08c-.628-.084-1.195-.27-1.65-.726c-.456-.455-.642-1.022-.726-1.65c-.08-.594-.08-1.344-.08-2.242V8.945c0-1.367 0-2.47.117-3.337c.12-.9.38-1.658.981-2.26c.602-.602 1.36-.86 2.26-.981c.867-.117 1.97-.117 3.337-.117M5.808 3.853c-.734.099-1.122.28-1.399.556c-.277.277-.457.665-.556 1.4C3.752 6.562 3.75 7.564 3.75 9v5c0 .964.002 1.612.067 2.095c.062.461.169.659.3.789s.327.237.788.3c.483.064 1.131.066 2.095.066h10c.964 0 1.612-.002 2.095-.067c.461-.062.659-.169.789-.3s.237-.327.3-.788c.064-.483.066-1.131.066-2.095V9c0-1.435-.002-2.437-.103-3.192c-.099-.734-.28-1.122-.556-1.399c-.277-.277-.665-.457-1.4-.556c-.755-.101-1.756-.103-3.191-.103H9c-1.435 0-2.437.002-3.192.103M8.25 15a.75.75 0 0 1 .75-.75h6a.75.75 0 0 1 0 1.5H9a.75.75 0 0 1-.75-.75m-7 6a.75.75 0 0 1 .75-.75h20a.75.75 0 0 1 0 1.5H2a.75.75 0 0 1-.75-.75" clip-rule="evenodd"/></svg>