<svg viewBox="0 0 24 24"><path fill="currentColor" fill-rule="evenodd" d="M12 4.75c-1.06 0-1.91.328-3.934 1.138L5.257 7.01c-1.01.404-1.71.686-2.164.924L2.973 8l.12.065c.454.238 1.154.52 2.164.924l2.809 1.123c2.025.81 2.874 1.138 3.934 1.138s1.91-.328 3.934-1.138l2.809-1.123c1.01-.404 1.71-.686 2.164-.924l.12-.065l-.12-.065c-.454-.238-1.154-.52-2.164-.924l-2.809-1.123C13.91 5.078 13.06 4.75 12 4.75m-4.376-.301C9.501 3.698 10.621 3.25 12 3.25s2.499.448 4.376 1.199l.115.046l2.854 1.142c.955.382 1.728.69 2.259.969c.268.14.528.3.729.493c.206.198.417.498.417.901s-.21.703-.417.901c-.2.193-.46.352-.73.493c-.53.278-1.303.587-2.258.97l-2.854 1.14l-.115.047c-1.877.751-2.997 1.199-4.376 1.199s-2.499-.448-4.376-1.199l-.115-.046l-2.854-1.142c-.955-.382-1.728-.69-2.259-.969a3.2 3.2 0 0 1-.729-.493C1.461 8.703 1.25 8.403 1.25 8s.21-.703.417-.901c.2-.193.46-.352.73-.493c.53-.278 1.303-.587 2.258-.97l2.854-1.14zM2.5 11.44l.004.003l.024.021q.036.03.118.094c.109.084.278.208.508.357c.46.299 1.161.696 2.104 1.074l2.809 1.123c2.025.81 2.874 1.138 3.934 1.138s1.91-.328 3.934-1.138l2.809-1.123a12 12 0 0 0 2.104-1.074a8 8 0 0 0 .65-.472l.003-.002l.001-.001a.75.75 0 0 1 1 1.118L22 12l.5.558v.002l-.002.001l-.005.004l-.014.012l-.045.039a9 9 0 0 1-.77.558A13.7 13.7 0 0 1 19.3 14.38l-2.809 1.124l-.115.046c-1.877.751-2.997 1.199-4.376 1.199s-2.499-.448-4.376-1.199l-.115-.046L4.7 14.38a13.7 13.7 0 0 1-2.363-1.207a9 9 0 0 1-.771-.558l-.045-.039l-.014-.012l-.005-.004l-.001-.002H1.5L2 12l-.5.559a.75.75 0 0 1 .999-1.119m19 4.001l.002-.001a.75.75 0 0 1 1 1.118L22 16l.5.558v.002l-.002.001l-.005.004l-.014.012q-.016.015-.045.038a9 9 0 0 1-.77.558a13.7 13.7 0 0 1-2.364 1.208l-2.809 1.124l-.115.046c-1.877.751-2.997 1.199-4.376 1.199s-2.499-.448-4.376-1.199l-.115-.046L4.7 18.38a13.7 13.7 0 0 1-2.363-1.207a9 9 0 0 1-.771-.558l-.045-.039l-.014-.012l-.005-.004l-.001-.002H1.5L2 16l-.5.559a.75.75 0 0 1 1-1.118l.003.002l.024.021q.036.03.118.094c.109.084.278.208.508.357c.46.299 1.161.696 2.104 1.074l2.809 1.123c2.025.81 2.874 1.138 3.934 1.138s1.91-.328 3.934-1.138l2.809-1.123a12 12 0 0 0 2.104-1.074a8 8 0 0 0 .65-.472z" clip-rule="evenodd"/></svg>