<svg viewBox="0 0 24 24"><path fill="currentColor" fill-rule="evenodd" d="M8.672 7.542h6.656c3.374 0 5.062 0 6.01.987s.724 2.511.278 5.56l-.422 2.892c-.35 2.391-.525 3.587-1.422 4.303s-2.22.716-4.867.716h-5.81c-2.646 0-3.97 0-4.867-.716s-1.072-1.912-1.422-4.303l-.422-2.892c-.447-3.049-.67-4.573.278-5.56s2.636-.987 6.01-.987M8 18c0-.414.373-.75.833-.75h6.334c.46 0 .833.336.833.75s-.373.75-.833.75H8.833c-.46 0-.833-.336-.833-.75" clip-rule="evenodd"/><path fill="currentColor" d="M8.51 2h6.98c.233 0 .41 0 .567.015c1.108.109 2.014.775 2.399 1.672H5.544c.385-.897 1.292-1.563 2.4-1.672C8.099 2 8.278 2 8.51 2" opacity=".4"/><path fill="currentColor" d="M6.31 4.723c-1.39 0-2.53.84-2.91 1.953l-.024.07a8 8 0 0 1 1.232-.253c1.08-.138 2.446-.138 4.032-.138h6.892c1.586 0 2.952 0 4.032.138c.42.054.834.133 1.232.253l-.023-.07c-.38-1.114-1.52-1.953-2.911-1.953z" opacity=".7"/></svg>