<svg viewBox="0 0 24 24"><path fill="currentColor" d="M4 9.674C4 5.436 7.358 2 11.5 2S19 5.436 19 9.674a7.74 7.74 0 0 1-2.499 5.72c-.51.467-.889.814-1.157 1.066a15 15 0 0 0-.4.39l-.025.027l-.005.006l-.003.003c-.237.3-.288.376-.318.446s-.053.16-.113.54c-.023.15-.026.406-.026 1.105v.03c0 .409 0 .762-.025 1.051c-.027.306-.087.61-.248.895a2.07 2.07 0 0 1-.75.767c-.278.165-.575.226-.874.254c-.283.026-.628.026-1.028.026h-.058c-.4 0-.745 0-1.028-.026c-.3-.028-.596-.09-.875-.254a2.07 2.07 0 0 1-.749-.767c-.16-.285-.22-.588-.248-.895c-.026-.29-.026-.642-.026-1.051v-.03c0-.699-.002-.955-.026-1.105c-.06-.38-.081-.47-.112-.54c-.03-.07-.081-.147-.318-.446l-.003-.003l-.005-.006l-.025-.027l-.088-.09a15 15 0 0 0-.312-.3c-.268-.252-.647-.599-1.157-1.067A7.74 7.74 0 0 1 4 9.674" opacity=".5"/><path fill="currentColor" d="M10.298 13.625a.75.75 0 1 0-1.299.75a2.76 2.76 0 0 0 1.632 1.271V17a.75.75 0 0 0 1.5 0v-1.353a2.76 2.76 0 0 0 1.632-1.271a.75.75 0 0 0-1.299-.751a1.249 1.249 0 0 1-2.166 0m-.384 6.05h3.17a4 4 0 0 1-.014.258c-.018.209-.05.285-.071.323a.7.7 0 0 1-.25.255c-.037.022-.111.054-.316.073c-.214.02-.496.02-.934.02c-.437 0-.72 0-.934-.02c-.204-.019-.279-.05-.316-.073a.7.7 0 0 1-.25-.255c-.02-.038-.052-.114-.07-.323a5 5 0 0 1-.015-.259"/></svg>