<svg viewBox="0 0 24 24"><path fill="currentColor" d="M19.688 4.158c-2.72-2.544-7.112-2.544-9.833 0l-.367.343a.75.75 0 0 0 1.024 1.096l.367-.344c2.144-2.004 5.64-2.004 7.784 0c2.116 1.978 2.116 5.163 0 7.14l-2.202 2.06a.75.75 0 0 0 1.025 1.095l2.202-2.059c2.75-2.57 2.75-6.76 0-9.331M6.172 10.535a.75.75 0 1 0-1.052-1.07l-.905.89c-2.672 2.628-2.6 6.854.099 9.435c2.707 2.59 7.122 2.627 9.839.03l.365-.35a.75.75 0 0 0-1.036-1.084l-.366.35c-2.127 2.034-5.629 2.013-7.766-.03c-2.097-2.006-2.14-5.258-.083-7.281z" opacity=".5"/><path fill="currentColor" d="M7.28 2.713a.75.75 0 1 0-1.386.574l.913 2.205a.75.75 0 0 0 1.386-.574zm-3.449 2.7a.75.75 0 1 0-.658 1.348l5.548 2.707a.75.75 0 0 0 .658-1.348z"/></svg>