<svg viewBox="0 0 24 24"><path fill="currentColor" fill-rule="evenodd" d="M2.25 6A.75.75 0 0 1 3 5.25h17a.75.75 0 0 1 0 1.5H3A.75.75 0 0 1 2.25 6m0 5a.75.75 0 0 1 .75-.75h8a.75.75 0 0 1 0 1.5H3a.75.75 0 0 1-.75-.75m0 5a.75.75 0 0 1 .75-.75h8a.75.75 0 0 1 0 1.5H3a.75.75 0 0 1-.75-.75" clip-rule="evenodd" opacity=".5"/><path fill="currentColor" d="M14.47 10.47a.75.75 0 0 1 1.06 0l1.97 1.97l1.97-1.97a.75.75 0 1 1 1.06 1.06l-1.97 1.97l1.97 1.97a.75.75 0 1 1-1.06 1.06l-1.97-1.97l-1.97 1.97a.75.75 0 1 1-1.06-1.06l1.97-1.97l-1.97-1.97a.75.75 0 0 1 0-1.06"/></svg>