<svg viewBox="0 0 24 24"><g fill="none"><path stroke="currentColor" stroke-linecap="round" stroke-width="1.5" d="M10 16H3m6-5H3"/><path fill="currentColor" d="m16.49 16.308l.445-.604zm1.01-6.202l-.536.525a.75.75 0 0 0 1.072 0zm1.01 6.202l.445.604zm-1.01.502v-.75zm-.565-1.105c-.644-.475-1.467-1.148-2.123-1.897c-.68-.775-1.062-1.502-1.062-2.093h-1.5c0 1.16.699 2.242 1.433 3.081c.758.865 1.679 1.613 2.362 2.116zm-3.185-3.99c0-1.108.495-1.691 1.003-1.882c.518-.193 1.342-.09 2.211.798l1.072-1.05c-1.156-1.18-2.581-1.611-3.808-1.153c-1.235.462-1.978 1.717-1.978 3.287zm5.205 5.197c.683-.503 1.604-1.25 2.362-2.116c.734-.839 1.433-1.92 1.433-3.081h-1.5c0 .591-.383 1.318-1.062 2.093c-.655.749-1.48 1.422-2.123 1.896zm3.795-5.197c0-1.57-.743-2.825-1.978-3.287c-1.227-.458-2.652-.027-3.808 1.153l1.072 1.05c.869-.888 1.694-.99 2.21-.798c.51.19 1.004.774 1.004 1.882zm-6.705 5.197c.392.289.83.648 1.455.648v-1.5c-.015 0-.032.003-.101-.035a5 5 0 0 1-.464-.32zm2.02-1.207a5 5 0 0 1-.464.32c-.07.038-.086.035-.101.035v1.5c.625 0 1.063-.36 1.455-.648z"/><path stroke="currentColor" stroke-linecap="round" stroke-width="1.5" d="M20 6H9.5M3 6h2.25"/></g></svg>