<svg viewBox="0 0 24 24"><path fill="currentColor" fill-rule="evenodd" d="M2.25 6A.75.75 0 0 1 3 5.25h17a.75.75 0 0 1 0 1.5H3A.75.75 0 0 1 2.25 6m0 5a.75.75 0 0 1 .75-.75h6a.75.75 0 0 1 0 1.5H3a.75.75 0 0 1-.75-.75m0 5a.75.75 0 0 1 .75-.75h7a.75.75 0 0 1 0 1.5H3a.75.75 0 0 1-.75-.75" clip-rule="evenodd"/><path fill="currentColor" d="M13 11.715c0 1.752 2.163 3.615 3.49 4.593c.454.335.681.502 1.01.502s.556-.167 1.01-.502c1.327-.978 3.49-2.84 3.49-4.593c0-2.677-2.475-3.677-4.5-1.609c-2.025-2.068-4.5-1.068-4.5 1.609"/></svg>