<svg viewBox="0 0 24 24"><path fill="currentColor" fill-rule="evenodd" d="M2.25 6A.75.75 0 0 1 3 5.25h18a.75.75 0 0 1 0 1.5H3A.75.75 0 0 1 2.25 6m0 4A.75.75 0 0 1 3 9.25h18a.75.75 0 0 1 0 1.5H3a.75.75 0 0 1-.75-.75m0 4a.75.75 0 0 1 .75-.75h8a.75.75 0 0 1 0 1.5H3a.75.75 0 0 1-.75-.75m15.25-.75a.75.75 0 0 1 .75.75v4.19l1.22-1.22a.75.75 0 1 1 1.06 1.06l-2.5 2.5a.75.75 0 0 1-1.06 0l-2.5-2.5a.75.75 0 1 1 1.06-1.06l1.22 1.22V14a.75.75 0 0 1 .75-.75M2.25 18a.75.75 0 0 1 .75-.75h8a.75.75 0 0 1 0 1.5H3a.75.75 0 0 1-.75-.75" clip-rule="evenodd"/></svg>