<svg viewBox="0 0 24 24"><path fill="currentColor" fill-rule="evenodd" d="M5.25 9.303V8a6.75 6.75 0 0 1 13.5 0v1.303q.34.023.642.064c.9.12 1.658.38 2.26.981c.602.602.86 1.36.982 2.26c.116.867.116 1.97.116 3.337v.11c0 1.367 0 2.47-.116 3.337c-.122.9-.38 1.658-.982 2.26s-1.36.86-2.26.982c-.867.116-1.97.116-3.337.116h-8.11c-1.367 0-2.47 0-3.337-.116c-.9-.122-1.658-.38-2.26-.982s-.86-1.36-.981-2.26c-.117-.867-.117-1.97-.117-3.337v-.11c0-1.367 0-2.47.117-3.337c.12-.9.38-1.658.981-2.26c.602-.602 1.36-.86 2.26-.981q.301-.041.642-.064M6.75 8a5.25 5.25 0 0 1 10.5 0v1.253q-.56-.004-1.195-.003h-8.11q-.634 0-1.195.003zm-3.341 3.409c.277-.277.665-.457 1.4-.556c.754-.101 1.756-.103 3.191-.103h8c1.435 0 2.436.002 3.192.103c.734.099 1.122.28 1.399.556c.277.277.457.665.556 1.4c.101.755.103 1.756.103 3.191s-.002 2.436-.103 3.192c-.099.734-.28 1.122-.556 1.399c-.277.277-.665.457-1.4.556c-.755.101-1.756.103-3.191.103H8c-1.435 0-2.437-.002-3.192-.103c-.734-.099-1.122-.28-1.399-.556c-.277-.277-.457-.665-.556-1.4c-.101-.755-.103-1.756-.103-3.191s.002-2.437.103-3.192c.099-.734.28-1.122.556-1.399" clip-rule="evenodd"/></svg>