<svg viewBox="0 0 24 24"><path fill="currentColor" fill-rule="evenodd" d="M1.625 12c0 .414.336.75.75.75h10.973l-1.961 1.68a.75.75 0 1 0 .976 1.14l3.5-3a.75.75 0 0 0 0-1.14l-3.5-3a.75.75 0 1 0-.976 1.14l1.96 1.68H2.376a.75.75 0 0 0-.75.75" clip-rule="evenodd"/><path fill="currentColor" d="M9.375 9.75h.378a2.25 2.25 0 0 1 3.586-2.458l3.5 3a2.25 2.25 0 0 1 0 3.416l-3.5 3a2.25 2.25 0 0 1-3.586-2.458h-.378V16c0 2.828 0 4.243.879 5.121c.878.879 2.293.879 5.121.879h1c2.828 0 4.243 0 5.121-.879c.879-.878.879-2.293.879-5.121V8c0-2.828 0-4.243-.879-5.121C20.618 2 19.203 2 16.375 2h-1c-2.828 0-4.243 0-5.121.879c-.879.878-.879 2.293-.879 5.121z"/></svg>