<svg viewBox="0 0 24 24"><g fill="currentColor" fill-rule="evenodd" clip-rule="evenodd"><path d="M8.857 11.947a2.13 2.13 0 0 0 1.429 2.01v-3.194H8.857zm4.164-2.605A2.14 2.14 0 0 0 11 7.921a2.14 2.14 0 0 0-2.02 1.421zm.122 1.421h-1.429v3.195a2.13 2.13 0 0 0 1.429-2.01z"/><path d="M21.788 21.788a.723.723 0 0 0 0-1.022L18.122 17.1a9.157 9.157 0 1 0-1.022 1.022l3.666 3.666a.723.723 0 0 0 1.022 0M8.19 7.86A3.57 3.57 0 0 1 11 6.5c1.14 0 2.157.532 2.81 1.36l.68-.338a.716.716 0 0 1 .958.318a.71.71 0 0 1-.319.953l-.679.338q.12.442.121.922v.236h.715c.394 0 .714.319.714.711s-.32.71-.714.71h-.715v.237q-.002.48-.12.922l.678.338a.71.71 0 0 1 .32.953a.716.716 0 0 1-.959.318l-.68-.338A3.57 3.57 0 0 1 11 15.5a3.57 3.57 0 0 1-2.81-1.36l-.68.338a.716.716 0 0 1-.958-.318a.71.71 0 0 1 .319-.953l.679-.338a3.5 3.5 0 0 1-.121-.922v-.236h-.715A.71.71 0 0 1 6 11c0-.392.32-.71.714-.71h.715v-.237q.001-.48.12-.922l-.678-.338a.71.71 0 0 1-.32-.953a.716.716 0 0 1 .959-.318z"/></g></svg>