<svg viewBox="0 0 24 24"><path fill="currentColor" fill-rule="evenodd" d="M11.5 2.75a8.75 8.75 0 1 0 0 17.5a8.75 8.75 0 0 0 0-17.5M1.25 11.5c0-5.66 4.59-10.25 10.25-10.25S21.75 5.84 21.75 11.5c0 2.56-.939 4.902-2.491 6.698l3.271 3.272a.75.75 0 1 1-1.06 1.06l-3.272-3.271A10.2 10.2 0 0 1 11.5 21.75c-5.66 0-10.25-4.59-10.25-10.25m7.299-3.314A3.74 3.74 0 0 1 11.5 6.75c1.198 0 2.265.562 2.951 1.436l.714-.357a.75.75 0 1 1 .67 1.342l-.712.356q.126.467.127.973v.25H16a.75.75 0 0 1 0 1.5h-.75v.25q-.001.505-.127.973l.712.356a.75.75 0 1 1-.67 1.342l-.714-.357A3.74 3.74 0 0 1 11.5 16.25a3.74 3.74 0 0 1-2.951-1.436l-.714.357a.75.75 0 1 1-.67-1.342l.712-.356a3.8 3.8 0 0 1-.127-.973v-.25H7a.75.75 0 0 1 0-1.5h.75v-.25q.001-.506.127-.973l-.712-.356a.75.75 0 0 1 .67-1.342zm.701 3.064v1.25c0 .98.626 1.813 1.5 2.122V11.25zm3 0v3.372a2.25 2.25 0 0 0 1.5-2.122v-1.25zm1.372-1.5H9.378a2.25 2.25 0 0 1 4.244 0" clip-rule="evenodd"/></svg>