<svg viewBox="0 0 24 24"><path fill="currentColor" d="M13.694 3H11a9 9 0 1 0 0 18h2.694v-4.5h-2.75a4.5 4.5 0 0 1 0-9h2.75zm1.5 4.5H16.5A1.5 1.5 0 0 0 18 6V4.5A1.5 1.5 0 0 0 16.5 3h-1.306zm0 9V21H16.5a1.5 1.5 0 0 0 1.5-1.5V18a1.5 1.5 0 0 0-1.5-1.5zm4.962-7.864a.75.75 0 0 0-1.317.719l.005.01l.038.087c.035.087.087.235.141.447c.11.424.227 1.111.227 2.101s-.118 1.677-.227 2.101a4 4 0 0 1-.179.534l-.005.01a.75.75 0 0 0 1.317.72L19.5 15l.656.364v-.001l.001-.002l.002-.003l.004-.007l.01-.018l.026-.053q.03-.064.075-.175c.06-.147.132-.356.203-.631c.14-.551.273-1.364.273-2.474s-.132-1.923-.273-2.474a5 5 0 0 0-.203-.631a3 3 0 0 0-.102-.228l-.01-.018l-.003-.007l-.002-.004s-.001-.002-.657.362z"/><path fill="currentColor" d="M23.503 14.846a11.3 11.3 0 0 1-.553 1.998a7.7 7.7 0 0 1-.572 1.195a5 5 0 0 1-.289.425l-.007.01l-.003.003l-.002.002v.001a.75.75 0 0 1-1.157-.956l.003-.004l.031-.041q.047-.062.137-.212c.12-.199.288-.516.459-.961c.162-.42.327-.956.456-1.617c.127-.65.22-1.42.24-2.32a17 17 0 0 0-.057-1.764c-.117-1.285-.383-2.244-.639-2.91a6 6 0 0 0-.459-.962a3 3 0 0 0-.168-.253l-.003-.004a.75.75 0 0 1 1.156-.956l.001.001l.002.002l.003.003l.007.01a2 2 0 0 1 .086.114q.08.109.203.311c.161.27.368.665.572 1.195c.301.783.594 1.855.726 3.243q.072.74.074 1.601m0 0a15.6 15.6 0 0 1-.247 2.846z"/></svg>