<svg viewBox="0 0 24 24"><g fill="currentColor" fill-rule="evenodd" clip-rule="evenodd"><path d="M12 7.75a.75.75 0 0 1 .75.75v.75h.75a.75.75 0 0 1 0 1.5h-.75v.75a.75.75 0 0 1-1.5 0v-.75h-.75a.75.75 0 0 1 0-1.5h.75V8.5a.75.75 0 0 1 .75-.75"/><path d="M12 2c-4.418 0-8 3.646-8 8.143c0 4.462 2.553 9.67 6.537 11.531a3.45 3.45 0 0 0 2.926 0C17.447 19.812 20 14.606 20 10.144C20 5.645 16.418 2 12 2m0 12a4 4 0 1 0 0-8a4 4 0 0 0 0 8m.75-5.5a.75.75 0 0 0-1.5 0v.75h-.75a.75.75 0 0 0 0 1.5h.75v.75a.75.75 0 0 0 1.5 0v-.75h.75a.75.75 0 0 0 0-1.5h-.75z"/></g></svg>