<svg viewBox="0 0 24 24"><path fill="currentColor" fill-rule="evenodd" d="M21.047 22.013c.654-.685.94-1.768.473-2.816l-7.363-16.51a2.338 2.338 0 0 0-4.315 0L2.48 19.197a2.55 2.55 0 0 0 .473 2.816c.659.69 1.735 1.009 2.767.458l-.353-.662l.353.662l5.904-3.152l-.354-.662l.354.662a.79.79 0 0 1 .752 0l5.904 3.152l.353-.662l-.353.662c1.032.55 2.108.232 2.767-.458m-2.06-.866l-.351.657zl-5.904-3.152a2.29 2.29 0 0 0-2.165 0l-5.903 3.152c-.356.19-.715.103-.976-.171a1.05 1.05 0 0 1-.188-1.169l7.362-16.51c.326-.73 1.25-.73 1.575 0l7.363 16.51c.2.448.08.889-.188 1.169c-.262.274-.62.36-.976.17" clip-rule="evenodd"/></svg>