<svg viewBox="0 0 24 24"><path fill="currentColor" fill-rule="evenodd" d="M21 11.901V6.43c0-2.269 0-3.404-.707-4.024s-1.788-.434-3.95-.061l-1.055.182c-1.64.283-2.46.425-3.288.425s-1.648-.142-3.288-.425l-1.054-.182c-2.162-.373-3.243-.56-3.95.06S3 4.16 3 6.43v5.472c0 5.69 4.239 8.45 6.899 9.622c.721.318 1.082.477 2.101.477c1.02 0 1.38-.159 2.101-.477C16.761 20.351 21 17.59 21 11.901M7.17 9.141c.124-.257.587-.607 1.33-.607s1.206.35 1.33.606a.74.74 0 0 0 1.005.348a.79.79 0 0 0 .336-1.043C10.712 7.494 9.603 6.98 8.5 6.98s-2.212.515-2.67 1.466a.79.79 0 0 0 .335 1.043a.74.74 0 0 0 1.006-.348m8.33-.607c-.743 0-1.206.35-1.33.606a.74.74 0 0 1-1.005.348a.79.79 0 0 1-.336-1.043c.459-.951 1.567-1.466 2.671-1.466s2.212.515 2.67 1.466a.79.79 0 0 1-.335 1.043a.74.74 0 0 1-1.006-.348c-.123-.256-.586-.606-1.329-.606M7.99 14.542a.804.804 0 0 1-.032-1.104a.75.75 0 0 1 1.067-.022l.102.079c.101.071.268.176.507.285c.475.216 1.247.453 2.367.453s1.892-.237 2.367-.453c.239-.109.406-.214.506-.285a2 2 0 0 0 .117-.091l.001-.001a.73.73 0 0 1 1.052.035a.797.797 0 0 1-.026 1.098l-.001.002h-.001l-.003.004l-.008.007l-.02.019l-.06.052a3 3 0 0 1-.202.156a4.6 4.6 0 0 1-.751.427c-.663.302-1.64.584-2.971.584c-1.33 0-2.308-.282-2.97-.584a4.6 4.6 0 0 1-.752-.427a3 3 0 0 1-.288-.233z" clip-rule="evenodd"/></svg>