<svg viewBox="0 0 24 24"><path fill="currentColor" d="M21 6.43v5.47c0 5.69-4.239 8.45-6.899 9.622C13.38 21.841 13.02 22 12 22s-1.38-.159-2.101-.477C7.239 20.351 3 17.59 3 11.901V6.43c0-2.269 0-3.404.707-4.024c.708-.621 1.789-.434 3.95-.061l1.055.182c1.64.283 2.46.425 3.288.425s1.648-.142 3.288-.425l1.054-.182c2.163-.373 3.244-.56 3.95.06C21 3.026 21 4.16 21 6.43" opacity=".5"/><path fill="currentColor" d="M7.171 9.14c.124-.256.586-.606 1.33-.606c.742 0 1.205.35 1.328.606a.74.74 0 0 0 1.006.348a.79.79 0 0 0 .336-1.043c-.459-.95-1.567-1.466-2.67-1.466c-1.104 0-2.213.515-2.672 1.466a.79.79 0 0 0 .336 1.043a.74.74 0 0 0 1.006-.348m8.329-.606c-.743 0-1.206.35-1.329.606a.74.74 0 0 1-1.006.348a.79.79 0 0 1-.336-1.043c.459-.95 1.568-1.466 2.671-1.466c1.104 0 2.212.515 2.671 1.466a.79.79 0 0 1-.336 1.043a.74.74 0 0 1-1.006-.348c-.123-.256-.586-.606-1.329-.606m-7.511 6.008a.804.804 0 0 1-.032-1.104a.75.75 0 0 1 1.067-.022c.02.016.067.053.103.079c.1.071.267.177.506.285c.475.217 1.248.453 2.367.453c1.12 0 1.892-.236 2.367-.453c.239-.108.406-.214.507-.285q.075-.055.102-.079l.014-.012l.001-.001a.73.73 0 0 1 1.052.035a.797.797 0 0 1-.026 1.098v.002h-.002l-.003.004l-.008.007l-.02.019l-.06.052a3 3 0 0 1-.202.156a4.6 4.6 0 0 1-.751.427c-.663.302-1.64.584-2.97.584s-2.309-.282-2.971-.584a4.6 4.6 0 0 1-.752-.427a3 3 0 0 1-.288-.232z"/></svg>