<svg viewBox="0 0 24 24"><g fill="none" stroke="currentColor" stroke-width="1.5"><path d="M17 8V6c0-1.886 0-2.828-.586-3.414S14.886 2 13 2h-2c-1.886 0-2.828 0-3.414.586S7 4.114 7 6v2m4.146 4.023c.38-.682.57-1.023.854-1.023s.474.34.854 1.023l.098.176c.108.194.162.29.246.354c.085.064.19.088.4.135l.19.044c.738.167 1.107.25 1.195.532s-.164.577-.667 1.165l-.13.152c-.143.167-.215.25-.247.354s-.021.215 0 .438l.02.203c.076.785.114 1.178-.115 1.352c-.23.174-.576.015-1.267-.303l-.178-.082c-.197-.09-.295-.136-.399-.136s-.202.046-.399.136l-.178.082c-.691.319-1.037.477-1.267.303s-.191-.567-.115-1.352l.02-.203c.021-.223.032-.334 0-.438s-.104-.187-.247-.354l-.13-.152c-.503-.588-.755-.882-.667-1.165c.088-.282.457-.365 1.195-.532l.19-.044c.21-.047.315-.07.4-.135c.084-.064.138-.16.246-.354z"/><circle cx="12" cy="14" r="8"/></g></svg>