<svg viewBox="0 0 24 24"><path fill="currentColor" d="M12.052 1.25h-.104c-.899 0-1.648 0-2.242.08c-.628.084-1.195.27-1.65.725c-.456.456-.642 1.023-.726 1.65c-.08.595-.08 1.345-.08 2.243v.078q.684-.021 1.5-.024V6c0-.964.002-1.612.067-2.095c.062-.461.169-.659.3-.789s.327-.237.788-.3c.483-.064 1.131-.066 2.095-.066s1.612.002 2.095.067c.461.062.659.169.789.3s.237.327.3.788c.064.483.066 1.131.066 2.095v.002a55 55 0 0 1 1.5.024v-.078c0-.898 0-1.648-.08-2.242c-.084-.628-.27-1.195-.726-1.65c-.455-.456-1.022-.642-1.65-.726c-.594-.08-1.344-.08-2.242-.08"/><path fill="currentColor" fill-rule="evenodd" d="M2 14c0-3.771 0-5.657 1.172-6.828S6.229 6 10 6h4c3.771 0 5.657 0 6.828 1.172S22 10.229 22 14s0 5.657-1.172 6.828S17.771 22 14 22h-4c-3.771 0-5.657 0-6.828-1.172S2 17.771 2 14m10.75-1.5a.75.75 0 0 0-1.5 0v.75h-.75a.75.75 0 0 0 0 1.5h.75v.75a.75.75 0 0 0 1.5 0v-.75h.75a.75.75 0 0 0 0-1.5h-.75z" clip-rule="evenodd" opacity=".5"/><path fill="currentColor" fill-rule="evenodd" d="M12 18a4 4 0 1 0 0-8a4 4 0 0 0 0 8m.75-5.5a.75.75 0 0 0-1.5 0v.75h-.75a.75.75 0 0 0 0 1.5h.75v.75a.75.75 0 0 0 1.5 0v-.75h.75a.75.75 0 0 0 0-1.5h-.75z" clip-rule="evenodd"/></svg>