<svg viewBox="0 0 24 24"><path fill="currentColor" d="M2 12C2 6.477 6.477 2 12 2s10 4.477 10 10s-4.477 10-10 10S2 17.523 2 12" opacity=".5"/><path fill="currentColor" fill-rule="evenodd" d="M12 6.75a5.25 5.25 0 1 0 0 10.5a.75.75 0 0 1 0 1.5a6.75 6.75 0 1 1 6.344-4.44a2.3 2.3 0 0 1-.609.894l-.08.074a2.387 2.387 0 0 1-3.782-.745A3.15 3.15 0 1 1 15.15 12v1.524a.886.886 0 0 0 1.488.652l.08-.075a.8.8 0 0 0 .216-.304A5.25 5.25 0 0 0 12 6.75m0 3.6a1.65 1.65 0 1 1 0 3.3a1.65 1.65 0 0 1 0-3.3" clip-rule="evenodd"/></svg>