<svg viewBox="0 0 24 24"><path fill="currentColor" fill-rule="evenodd" d="M5.25 8a6.75 6.75 0 0 1 13.5 0v5a6.75 6.75 0 0 1-13.5 0zM12 2.75A5.25 5.25 0 0 0 6.75 8v5a5.25 5.25 0 1 0 10.5 0V8c0-2.9-2.35-5.25-5.25-5.25m-1.485 4.295a.75.75 0 0 1-1.06-1.06l.534.504a37 37 0 0 1-.533-.505v-.001l.002-.002l.004-.003l.008-.008l.064-.06q.054-.047.139-.106c.113-.078.268-.167.473-.25c.41-.165 1.008-.304 1.854-.304s1.444.139 1.854.305c.205.083.36.17.473.249a2 2 0 0 1 .203.166l.008.008l.004.003l.001.002h.001c0 .001.001.002-.533.506l.534-.504a.75.75 0 0 1-1.068 1.055a1 1 0 0 0-.186-.095c-.207-.084-.61-.195-1.291-.195s-1.084.111-1.291.195a1 1 0 0 0-.194.1m0 3.001a.75.75 0 0 1-1.06-1.061L10 9.5a46 46 0 0 1-.544-.516v-.001l.002-.002l.004-.003l.008-.008l.064-.06q.054-.047.139-.106c.113-.078.268-.167.473-.25c.41-.165 1.008-.304 1.854-.304s1.444.139 1.854.305c.205.082.36.17.473.249a2 2 0 0 1 .203.166l.008.008l.004.003l.001.002h.001c0 .001.001.002-.544.517l.545-.515a.75.75 0 0 1-1.06 1.06l-.008-.005a1 1 0 0 0-.186-.095c-.207-.084-.61-.195-1.291-.195s-1.084.111-1.291.195a1 1 0 0 0-.186.095zm2.942-.029h-.001M3 10.25a.75.75 0 0 1 .75.75v2a8.25 8.25 0 0 0 16.5 0v-2a.75.75 0 0 1 1.5 0v2c0 5.385-4.365 9.75-9.75 9.75S2.25 18.385 2.25 13v-2a.75.75 0 0 1 .75-.75" clip-rule="evenodd"/></svg>