<svg viewBox="0 0 24 24"><path fill="currentColor" fill-rule="evenodd" d="M6.25 8a5.75 5.75 0 1 1 11.5 0v3a5.75 5.75 0 0 1-11.5 0zM12 3.75A4.25 4.25 0 0 0 7.75 8v3a4.25 4.25 0 0 0 8.5 0V8A4.25 4.25 0 0 0 12 3.75M10.25 8a.75.75 0 0 1 .75-.75h2a.75.75 0 0 1 0 1.5h-2a.75.75 0 0 1-.75-.75M4 9.25a.75.75 0 0 1 .75.75v1a7.25 7.25 0 1 0 14.5 0v-1a.75.75 0 0 1 1.5 0v1a8.75 8.75 0 0 1-8 8.718V22a.75.75 0 0 1-1.5 0v-2.282a8.75 8.75 0 0 1-8-8.718v-1A.75.75 0 0 1 4 9.25M9.25 11a.75.75 0 0 1 .75-.75h4a.75.75 0 0 1 0 1.5h-4a.75.75 0 0 1-.75-.75" clip-rule="evenodd"/></svg>