<svg viewBox="0 0 24 24"><path fill="currentColor" d="M2 12c0-4.714 0-7.071 1.464-8.536C4.93 2 7.286 2 12 2s7.071 0 8.535 1.464C22 4.93 22 7.286 22 12s0 7.071-1.465 8.535C19.072 22 16.714 22 12 22s-7.071 0-8.536-1.465C2 19.072 2 16.714 2 12" opacity=".5"/><path fill="currentColor" d="M6.75 10.5c0 .414.336.75.75.75h3a.75.75 0 0 0 .75-.75v-3a.75.75 0 0 0-1.5 0v1.19L7.53 6.47a.75.75 0 0 0-1.06 1.06l2.22 2.22H7.5a.75.75 0 0 0-.75.75m9.75.75a.75.75 0 0 0 0-1.5h-1.19l2.22-2.22a.75.75 0 0 0-1.06-1.06l-2.22 2.22V7.5a.75.75 0 0 0-1.5 0v3c0 .414.336.75.75.75zM6.47 16.47a.75.75 0 1 0 1.06 1.06l2.22-2.22v1.19a.75.75 0 0 0 1.5 0v-3a.75.75 0 0 0-.75-.75h-3a.75.75 0 0 0 0 1.5h1.19zm11.06 0a.75.75 0 1 1-1.06 1.06l-2.22-2.22v1.19a.75.75 0 0 1-1.5 0v-3a.75.75 0 0 1 .75-.75h3a.75.75 0 0 1 0 1.5h-1.19z"/></svg>