<svg viewBox="0 0 24 24"><defs><mask id="SVGSDTr4cZF"><g fill="none"><path fill="#fff" d="M20.313 11.157a9.157 9.157 0 1 1-18.313 0a9.157 9.157 0 0 1 18.313 0"/><path fill="#000" fill-rule="evenodd" d="M11.157 8.024c.399 0 .723.324.723.723v1.687h1.686a.723.723 0 0 1 0 1.446H11.88v1.686a.723.723 0 1 1-1.445 0V11.88H8.747a.723.723 0 1 1 0-1.445h1.687V8.747c0-.4.323-.723.723-.723" clip-rule="evenodd"/><path fill="#fff" fill-rule="evenodd" d="M18.838 18.838a.723.723 0 0 1 1.023 0l1.927 1.928a.723.723 0 0 1-1.022 1.022l-1.928-1.927a.723.723 0 0 1 0-1.023" clip-rule="evenodd"/></g></mask></defs><path fill="currentColor" d="M0 0h24v24H0z" mask="url(#SVGSDTr4cZF)"/></svg>