<svg viewBox="0 0 24 24"><g fill="currentColor" fill-rule="evenodd" clip-rule="evenodd"><path d="M18.838 18.838a.723.723 0 0 1 1.023 0l1.927 1.928a.723.723 0 0 1-1.022 1.022l-1.928-1.927a.723.723 0 0 1 0-1.023m-9.981-6.891a2.13 2.13 0 0 0 1.429 2.01v-3.194H8.857zm4.164-2.605A2.14 2.14 0 0 0 11 7.921a2.14 2.14 0 0 0-2.02 1.421zm.122 1.421h-1.429v3.195a2.13 2.13 0 0 0 1.429-2.01z"/><path d="M11.157 20.313a9.157 9.157 0 1 0 0-18.313a9.157 9.157 0 0 0 0 18.313M8.189 7.86A3.57 3.57 0 0 1 11 6.5c1.14 0 2.157.532 2.81 1.36l.68-.338a.716.716 0 0 1 .958.318a.71.71 0 0 1-.319.953l-.679.338q.12.442.121.922v.236h.715c.394 0 .714.319.714.711s-.32.71-.714.71h-.715v.237q-.002.48-.12.922l.678.338a.71.71 0 0 1 .32.953a.716.716 0 0 1-.959.318l-.68-.338A3.57 3.57 0 0 1 11 15.5a3.57 3.57 0 0 1-2.81-1.36l-.68.338a.716.716 0 0 1-.958-.318a.71.71 0 0 1 .319-.953l.679-.338a3.5 3.5 0 0 1-.121-.922v-.236h-.715A.71.71 0 0 1 6 11c0-.392.32-.71.714-.71h.715v-.237q.001-.48.12-.922l-.678-.338a.71.71 0 0 1-.32-.953a.716.716 0 0 1 .959-.318zm2.097 6.098a2.13 2.13 0 0 1-1.429-2.01v-1.185h1.429zM11 7.92a2.14 2.14 0 0 1 2.02 1.421H8.98A2.14 2.14 0 0 1 11 7.921m.714 2.842h1.429v1.184a2.13 2.13 0 0 1-1.429 2.01z"/></g></svg>