<svg viewBox="0 0 24 24"><path fill="currentColor" d="M3.25 12.75v-2c0-3.771 0-5.657 1.172-6.828C5.514 2.829 8.098 2.755 11.5 2.75a.75.75 0 0 1 1.5 0v18a.75.75 0 0 1-1.5 0c-3.402-.005-5.986-.079-7.078-1.172C3.25 18.407 3.25 16.521 3.25 12.75"/><path fill="currentColor" fill-rule="evenodd" d="M13.59 2.75c0 .414.337.75.75.75h.91q.653 0 1.202.003a.75.75 0 0 0 .013-1.5Q15.902 2 15.252 2h-.911a.75.75 0 0 0-.75.75m0 18c0 .414.337.75.75.75h.912q.65 0 1.213-.003a.75.75 0 0 0-.013-1.5q-.55.004-1.202.003h-.91a.75.75 0 0 0-.75.75m5.031-17.945a.75.75 0 0 0 .494.938c.32.1.544.235.726.416s.316.405.415.726a.75.75 0 0 0 1.433-.445a3.2 3.2 0 0 0-.787-1.342a3.2 3.2 0 0 0-1.342-.787a.75.75 0 0 0-.939.494m0 17.89a.75.75 0 0 0 .939.494c.515-.16.962-.408 1.342-.787s.627-.827.787-1.342a.75.75 0 1 0-1.433-.445c-.1.321-.234.545-.415.726a1.7 1.7 0 0 1-.726.416a.75.75 0 0 0-.494.938m2.62-13.904a.75.75 0 0 0-.744.757q.004.55.003 1.202v1.364a.75.75 0 0 0 1.5 0V8.748q0-.652-.003-1.213a.75.75 0 0 0-.757-.744m0 9.918a.75.75 0 0 0 .756-.744q.004-.562.003-1.213v-1.366a.75.75 0 0 0-1.5 0v1.364q0 .653-.003 1.202a.75.75 0 0 0 .743.757" clip-rule="evenodd" opacity=".5"/></svg>