<svg viewBox="0 0 24 24"><path fill="currentColor" fill-rule="evenodd" d="M11.66 2.75a.75.75 0 0 1-.75.75H10q-.653 0-1.202.003a.75.75 0 0 1-.013-1.5Q9.346 2 9.998 2h.911a.75.75 0 0 1 .75.75m0 18a.75.75 0 0 1-.75.75h-.912q-.652 0-1.213-.003a.75.75 0 0 1 .013-1.5Q9.348 20 10 20h.91a.75.75 0 0 1 .75.75M6.628 2.805a.75.75 0 0 1-.494.938c-.321.1-.545.235-.726.416s-.316.405-.416.726A.75.75 0 0 1 3.56 4.44c.16-.515.408-.962.787-1.342s.827-.627 1.342-.787a.75.75 0 0 1 .939.494m0 17.89a.75.75 0 0 1-.939.494a3.2 3.2 0 0 1-1.342-.787a3.2 3.2 0 0 1-.787-1.342a.75.75 0 1 1 1.432-.445c.1.321.235.545.416.726s.405.316.726.416a.75.75 0 0 1 .494.938M4.009 6.791a.75.75 0 0 1 .744.757q-.004.55-.003 1.202v1.364a.75.75 0 0 1-1.5 0V8.748q0-.652.003-1.213a.75.75 0 0 1 .757-.744m0 9.918a.75.75 0 0 1-.756-.744q-.004-.562-.003-1.213v-1.366a.75.75 0 0 1 1.5 0v1.364q0 .653.003 1.202a.75.75 0 0 1-.743.757" clip-rule="evenodd"/><path fill="currentColor" d="M22 12.75v-2c0-3.771 0-5.657-1.172-6.828c-1.092-1.093-3.676-1.167-7.078-1.172a.75.75 0 0 0-1.5 0v18a.75.75 0 0 0 1.5 0c3.402-.005 5.986-.079 7.078-1.172C22 18.407 22 16.521 22 12.75"/></svg>