<svg viewBox="0 0 24 24"><path fill="currentColor" fill-rule="evenodd" d="M13.34 3a.75.75 0 0 1 .75-.75h.912q.652 0 1.213.003a.75.75 0 1 1-.013 1.5Q15.652 3.75 15 3.75h-.91a.75.75 0 0 1-.75-.75m5.031.055a.75.75 0 0 1 .939-.494c.515.16.962.408 1.342.787s.627.827.787 1.342a.75.75 0 1 1-1.432.445c-.1-.321-.235-.545-.416-.726s-.405-.316-.726-.416a.75.75 0 0 1-.494-.938m2.62 3.986a.75.75 0 0 1 .756.744q.004.561.003 1.213v1.366a.75.75 0 0 1-1.5 0V9q0-.653-.003-1.202a.75.75 0 0 1 .743-.757m.01 5.845a.75.75 0 0 1 .75.75v1.366q0 .651-.003 1.213a.75.75 0 0 1-1.5-.013q.004-.55.003-1.202v-1.364a.75.75 0 0 1 .75-.75m-.055 5.485a.75.75 0 0 1 .494.939c-.16.515-.408.962-.787 1.342s-.827.627-1.342.787a.75.75 0 1 1-.445-1.432c.321-.1.545-.235.726-.416s.316-.405.416-.726a.75.75 0 0 1 .938-.494m-3.986 2.62a.75.75 0 0 1-.744.756q-.562.004-1.213.003h-.911a.75.75 0 0 1 0-1.5H15q.653 0 1.202-.003a.75.75 0 0 1 .757.743M12 1.25a.75.75 0 0 1 .75.75v20a.75.75 0 0 1-1.5 0v-.25h-.306c-1.838 0-3.294 0-4.433-.153c-1.172-.158-2.121-.49-2.87-1.238c-.748-.749-1.08-1.698-1.238-2.87c-.153-1.14-.153-2.595-.153-4.433v-2.112c0-1.838 0-3.294.153-4.433c.158-1.172.49-2.121 1.238-2.87c.749-.748 1.698-1.08 2.87-1.238c1.14-.153 2.595-.153 4.433-.153h.306V2a.75.75 0 0 1 .75-.75m-.75 2.5H11c-1.907 0-3.261.002-4.29.14c-1.005.135-1.585.389-2.008.812S4.025 5.705 3.89 6.71c-.138 1.029-.14 2.383-.14 4.29v2c0 1.907.002 3.262.14 4.29c.135 1.005.389 1.585.812 2.008s1.003.677 2.009.812c1.028.138 2.382.14 4.289.14h.25z" clip-rule="evenodd"/></svg>