<svg viewBox="0 0 24 24"><path fill="currentColor" fill-rule="evenodd" d="M13.34 20.75a.75.75 0 0 1 .75-.75H15q.653 0 1.202-.003a.75.75 0 0 1 .013 1.5q-.562.004-1.213.003h-.911a.75.75 0 0 1-.75-.75m0-18a.75.75 0 0 1 .75-.75h.912q.65 0 1.213.003a.75.75 0 1 1-.013 1.5Q15.652 3.5 15 3.5h-.91a.75.75 0 0 1-.75-.75m5.031 17.945a.75.75 0 0 1 .494-.938c.32-.1.544-.235.726-.416s.316-.405.415-.726a.75.75 0 0 1 1.433.445c-.16.515-.408.962-.787 1.342s-.827.627-1.342.787a.75.75 0 0 1-.939-.494m0-17.89a.75.75 0 0 1 .939-.494c.515.16.962.408 1.342.787s.627.827.787 1.342a.75.75 0 1 1-1.433.445c-.1-.321-.234-.545-.415-.726a1.7 1.7 0 0 0-.726-.416a.75.75 0 0 1-.494-.938m2.62 13.904a.75.75 0 0 1-.744-.757q.004-.55.003-1.202v-1.364a.75.75 0 0 1 1.5 0v1.366q0 .651-.003 1.213a.75.75 0 0 1-.757.744m0-9.918a.75.75 0 0 1 .756.744q.004.561.003 1.213v1.366a.75.75 0 1 1-1.5 0V8.75q0-.653-.003-1.202a.75.75 0 0 1 .743-.757" clip-rule="evenodd"/><path fill="currentColor" d="M3 10.75v2c0 3.771 0 5.657 1.172 6.828c1.092 1.093 3.676 1.167 7.078 1.172a.75.75 0 0 0 1.5 0v-18a.75.75 0 0 0-1.5 0c-3.402.005-5.986.079-7.078 1.172C3 5.093 3 6.979 3 10.75"/></svg>