<svg viewBox="0 0 24 24"><g fill="none" stroke="currentColor" stroke-width="1.5"><path d="M2 14c0-3.771 0-5.657 1.172-6.828S6.229 6 10 6h4c3.771 0 5.657 0 6.828 1.172S22 10.229 22 14s0 5.657-1.172 6.828S17.771 22 14 22h-4c-3.771 0-5.657 0-6.828-1.172S2 17.771 2 14Zm14-8c0-1.886 0-2.828-.586-3.414S13.886 2 12 2s-2.828 0-3.414.586S8 4.114 8 6"/><path stroke-linecap="round" d="M12 17.333c1.105 0 2-.746 2-1.666S13.105 14 12 14s-2-.746-2-1.667c0-.92.895-1.666 2-1.666m0 6.666c-1.105 0-2-.746-2-1.666m2 1.666V18m0-8v.667m0 0c1.105 0 2 .746 2 1.666"/></g></svg>