<svg viewBox="0 0 24 24"><path fill="currentColor" fill-rule="evenodd" d="M12.052 1.25h-.104c-.899 0-1.648 0-2.242.08c-.628.084-1.195.27-1.65.725c-.456.456-.642 1.023-.726 1.65c-.057.427-.074 1.446-.078 2.32c-2.022.067-3.237.303-4.08 1.147C2 8.343 2 10.229 2 14s0 5.657 1.172 6.828S6.229 22 10 22h4c3.771 0 5.657 0 6.828-1.172S22 17.771 22 14s0-5.657-1.172-6.828c-.843-.844-2.058-1.08-4.08-1.146c-.004-.875-.02-1.894-.078-2.32c-.084-.628-.27-1.195-.726-1.65c-.455-.456-1.022-.642-1.65-.726c-.594-.08-1.344-.08-2.242-.08m3.196 4.752c-.005-.847-.019-1.758-.064-2.097c-.063-.461-.17-.659-.3-.789s-.328-.237-.79-.3c-.482-.064-1.13-.066-2.094-.066s-1.612.002-2.095.067c-.461.062-.659.169-.789.3s-.237.327-.3.788c-.045.34-.06 1.25-.064 2.097Q9.34 5.999 10 6h4q.662 0 1.248.002M12 9.25a.75.75 0 0 1 .75.75v.01c1.089.274 2 1.133 2 2.323a.75.75 0 0 1-1.5 0c0-.384-.426-.916-1.25-.916s-1.25.532-1.25.916s.426.917 1.25.917c1.385 0 2.75.96 2.75 2.417c0 1.19-.911 2.048-2 2.323V18a.75.75 0 0 1-1.5 0v-.01c-1.089-.274-2-1.133-2-2.323a.75.75 0 0 1 1.5 0c0 .384.426.916 1.25.916s1.25-.532 1.25-.916s-.426-.917-1.25-.917c-1.385 0-2.75-.96-2.75-2.417c0-1.19.911-2.049 2-2.323V10a.75.75 0 0 1 .75-.75" clip-rule="evenodd"/></svg>