<svg viewBox="0 0 24 24"><path fill="currentColor" d="M16 2h-1c-1.414 0-2.121 0-2.56.44C12 2.878 12 3.585 12 5s0 2.121.44 2.56C12.878 8 13.585 8 15 8h1c1.414 0 2.121 0 2.56-.44c.285-.284.386-.681.42-1.31H19l1.615.673c.627.261.94.391 1.162.243C22 7.018 22 6.678 22 6V4c0-.678 0-1.018-.223-1.166c-.222-.148-.535-.018-1.162.243L19 3.75h-.02c-.035-.629-.135-1.026-.42-1.31C18.122 2 17.415 2 16 2M8 17c-2.828 0-4.243 0-5.121-.879c-.57-.569-.77-1.363-.84-2.621h19.923c-.07 1.258-.271 2.052-.84 2.621C20.241 17 18.827 17 16 17h-3.25v4H16a.75.75 0 0 1 0 1.5H8A.75.75 0 0 1 8 21h3.25v-4z"/><path fill="currentColor" d="M22 10v1q.002.827-.006 1.5H2.007Q1.998 11.827 2 11v-1c0-3.771 0-5.657 1.172-6.828S6.229 2 10 2h.918c-.205.384-.3.786-.35 1.154c-.068.51-.068 1.128-.068 1.764v.164c0 .636 0 1.254.068 1.764c.078.575.266 1.23.81 1.775c.546.545 1.201.733 1.776.81c.51.07 1.128.07 1.764.069h1.164c.636 0 1.254 0 1.764-.068c.575-.078 1.23-.266 1.775-.81a2.6 2.6 0 0 0 .302-.362l.116.048l.056.023c.26.109.59.246.885.321c.233.06.606.122 1.018.027Q22 9.298 22 10"/></svg>