<svg viewBox="0 0 24 24"><g fill="none"><path stroke="currentColor" stroke-linecap="round" stroke-linejoin="round" stroke-width="1.5" d="M8 22h8M5 19h14M2 16h20"/><path fill="currentColor" d="m21.067 11.857l-.642-.388zm-8.924-8.924l-.388-.642zM20.481 15.7a.75.75 0 0 0 1.374.6zm-18.336.6a.75.75 0 0 0 1.374-.6zm1.842-8.924a.75.75 0 0 0-1.298-.752zm2.637-4.687a.75.75 0 1 0 .752 1.298zM15.5 14.25A5.75 5.75 0 0 1 9.75 8.5h-1.5a7.25 7.25 0 0 0 7.25 7.25zm4.925-2.781A5.75 5.75 0 0 1 15.5 14.25v1.5a7.25 7.25 0 0 0 6.21-3.505zM9.75 8.5a5.75 5.75 0 0 1 2.781-4.925l-.776-1.284A7.25 7.25 0 0 0 8.25 8.5zm11.5 3.5a9.2 9.2 0 0 1-.77 3.7l1.375.6c.576-1.318.895-2.773.895-4.3zM3.52 15.7a9.2 9.2 0 0 1-.77-3.7h-1.5c0 1.527.319 2.982.895 4.3zM12 2.75a.38.38 0 0 1-.268-.118a.3.3 0 0 1-.082-.155c-.004-.031-.002-.121.105-.186l.776 1.284c.503-.304.665-.861.606-1.299c-.062-.455-.42-1.026-1.137-1.026zm9.71 9.495c-.066.107-.156.109-.187.105a.3.3 0 0 1-.155-.082a.38.38 0 0 1-.118-.268h1.5c0-.717-.571-1.075-1.026-1.137c-.438-.059-.995.103-1.299.606zM2.75 12c0-1.686.45-3.265 1.237-4.624l-1.298-.752A10.7 10.7 0 0 0 1.25 12zm4.626-8.013A9.2 9.2 0 0 1 12 2.75v-1.5c-1.957 0-3.794.524-5.376 1.439z"/><path stroke="currentColor" d="M19.9 2.307a.483.483 0 0 0-.9 0l-.43 1.095a.48.48 0 0 1-.272.274l-1.091.432a.486.486 0 0 0 0 .903l1.091.432a.48.48 0 0 1 .272.273L19 6.81c.162.41.74.41.9 0l.43-1.095a.48.48 0 0 1 .273-.273l1.091-.432a.486.486 0 0 0 0-.903l-1.091-.432a.48.48 0 0 1-.273-.274zM16.033 8.13a.483.483 0 0 0-.9 0l-.157.399a.48.48 0 0 1-.272.273l-.398.158a.486.486 0 0 0 0 .903l.398.157c.125.05.223.148.272.274l.157.399c.161.41.739.41.9 0l.157-.4a.48.48 0 0 1 .272-.273l.398-.157a.486.486 0 0 0 0-.903l-.398-.158a.48.48 0 0 1-.272-.273z"/></g></svg>