<svg viewBox="0 0 24 24"><path fill="currentColor" d="m21.067 11.857l-.642-.388zm-8.924-8.924l-.388-.642zm-4.767 17.08a.75.75 0 1 0-.752 1.298zm-4.687-2.638a.75.75 0 1 0 1.298-.75zM21.25 12A9.25 9.25 0 0 1 12 21.25v1.5c5.937 0 10.75-4.813 10.75-10.75zm-18.5 0A9.25 9.25 0 0 1 12 2.75v-1.5C6.063 1.25 1.25 6.063 1.25 12zm12.75 2.25A5.75 5.75 0 0 1 9.75 8.5h-1.5a7.25 7.25 0 0 0 7.25 7.25zm4.925-2.781A5.75 5.75 0 0 1 15.5 14.25v1.5a7.25 7.25 0 0 0 6.21-3.505zM9.75 8.5a5.75 5.75 0 0 1 2.781-4.925l-.776-1.284A7.25 7.25 0 0 0 8.25 8.5zM12 2.75a.38.38 0 0 1-.268-.118a.3.3 0 0 1-.082-.155c-.004-.031-.002-.121.105-.186l.776 1.284c.503-.304.665-.861.606-1.299c-.062-.455-.42-1.026-1.137-1.026zm9.71 9.495c-.066.107-.156.109-.187.105a.3.3 0 0 1-.155-.082a.38.38 0 0 1-.118-.268h1.5c0-.717-.571-1.075-1.026-1.137c-.438-.059-.995.103-1.299.606zM12 21.25a9.2 9.2 0 0 1-4.624-1.237l-.752 1.298A10.7 10.7 0 0 0 12 22.75zm-8.013-4.625A9.2 9.2 0 0 1 2.75 12h-1.5a10.7 10.7 0 0 0 1.439 5.375z"/></svg>