<svg viewBox="0 0 24 24"><path fill="currentColor" fill-rule="evenodd" d="M9.011 3.99a.75.75 0 0 1-.04 1.06L3.757 9.893a3.147 3.147 0 0 0 .101 4.703l5.09 4.333a.75.75 0 1 1-.972 1.142l-5.09-4.333a4.647 4.647 0 0 1-.15-6.944L7.951 3.95a.75.75 0 0 1 1.06.04m3.236 1.687q-.168.144-.413.363L7.862 9.57c-.801.713-1.342 1.196-1.692 1.607c-.336.396-.41.626-.41.823s.074.428.41.823c.35.411.89.894 1.692 1.606l3.972 3.531q.245.219.413.363q.004-.222.003-.55V15.43a.75.75 0 0 1 .75-.75c1.913 0 3.9.454 5.616 1.29a10.3 10.3 0 0 1 2.5 1.688c-.369-3.047-1.458-5.013-2.76-6.258C16.736 9.85 14.69 9.322 13 9.322a.75.75 0 0 1-.75-.75V6.227q0-.328-.003-.55m-.482-1.523c.257-.17.724-.416 1.247-.18c.524.234.65.747.694 1.052c.044.31.044.715.044 1.15V7.85c1.824.141 3.922.817 5.644 2.464c1.975 1.89 3.356 4.964 3.356 9.685a.75.75 0 0 1-1.414.349c-.656-1.25-1.864-2.295-3.377-3.032a11.6 11.6 0 0 0-4.209-1.112v1.62c0 .434 0 .84-.044 1.15c-.044.304-.17.817-.694 1.052s-.99-.012-1.247-.181c-.261-.173-.564-.442-.889-.73l-.038-.035l-4.014-3.568c-.75-.665-1.37-1.217-1.796-1.718C4.58 13.268 4.26 12.7 4.26 12s.319-1.268.767-1.795c.426-.5 1.047-1.053 1.796-1.718l4.014-3.568l.038-.034c.325-.289.628-.558.889-.73" clip-rule="evenodd"/></svg>