<svg viewBox="0 0 24 24"><g fill="none"><path stroke="currentColor" stroke-width="1.5" d="M5 8c0-2.828 0-4.243.879-5.121C6.757 2 8.172 2 11 2h2c2.828 0 4.243 0 5.121.879C19 3.757 19 5.172 19 8v8c0 2.828 0 4.243-.879 5.121C17.243 22 15.828 22 13 22h-2c-2.828 0-4.243 0-5.121-.879C5 20.243 5 18.828 5 16z"/><path stroke="currentColor" stroke-width="1.5" d="M19 19.5c.465 0 .697 0 .891-.03a2.5 2.5 0 0 0 2.078-2.079c.031-.194.031-.426.031-.891v-9c0-.465 0-.697-.03-.891a2.5 2.5 0 0 0-2.08-2.079c-.193-.03-.425-.03-.89-.03m-14 15c-.465 0-.697 0-.891-.03a2.5 2.5 0 0 1-2.079-2.08C2 17.197 2 16.965 2 16.5v-9c0-.465 0-.697.03-.891A2.5 2.5 0 0 1 4.11 4.53c.193-.03.425-.03.89-.03" opacity=".5"/><path fill="currentColor" d="m12.742 8.63l-.336-.671zm1.316-.659l-.335-.67zm-.116 3.058l-.336-.67zm-1.882-.306l.705-.256zm1.056.652l-.087-.745zm2.866-1.805l.737.141zm-.375.607l.456.595zm-.723-2.552l.087.745zm1.056.653l-.705.255zm-3.547.546l.455.596zm-.375.606l-.737-.14zM11.25 15c0 .69-.56 1.25-1.25 1.25v1.5A2.75 2.75 0 0 0 12.75 15zM10 16.25c-.69 0-1.25-.56-1.25-1.25h-1.5A2.75 2.75 0 0 0 10 17.75zM8.75 15c0-.69.56-1.25 1.25-1.25v-1.5A2.75 2.75 0 0 0 7.25 15zM10 13.75c.69 0 1.25.56 1.25 1.25h1.5A2.75 2.75 0 0 0 10 12.25zM12.75 15v-5h-1.5v5zm.327-5.7l1.317-.658l-.671-1.342l-1.317.659zm1.846.4l-1.317.659l.671 1.341l1.317-.658zm-3.673.13c0 .234 0 .44.008.606c.01.164.029.354.097.542l1.41-.51c.008.022-.002.008-.009-.111a11 11 0 0 1-.006-.528zm2.356.528a9 9 0 0 1-.474.23c-.11.049-.127.045-.103.043l.174 1.49c.198-.024.377-.091.528-.157c.153-.067.336-.159.546-.264zm-2.251.62a1.75 1.75 0 0 0 1.848 1.142l-.174-1.49a.25.25 0 0 1-.264-.163zm3.895-1.807c0 .107 0 .168-.002.214l-.002.044l1.473.282c.034-.18.031-.366.031-.54zm.344 1.87c.155-.077.324-.158.469-.269l-.911-1.191l-.038.022l-.191.097zm-.348-1.612a.25.25 0 0 1-.094.152l.91 1.191a1.75 1.75 0 0 0 .657-1.06zm-.852-.787c.224-.112.366-.183.474-.23c.11-.048.127-.045.103-.042l-.174-1.49c-.198.023-.377.09-.528.157c-.153.066-.336.158-.546.263zm2.356.529c0-.235 0-.44-.009-.606a1.9 1.9 0 0 0-.096-.543l-1.41.511c-.008-.023.002-.01.009.11c.006.118.006.277.006.528zm-1.779-.801a.25.25 0 0 1 .264.163l1.41-.51a1.75 1.75 0 0 0-1.848-1.143zm-2.565-.411c-.155.077-.324.158-.469.269l.911 1.192l.038-.022c.04-.022.095-.05.191-.098zm.344 1.87c0-.107 0-.168.002-.214l.002-.044l-1.473-.282c-.034.18-.031.367-.031.54zm-.813-1.601a1.75 1.75 0 0 0-.656 1.061l1.473.282a.25.25 0 0 1 .094-.151z" opacity=".5"/></g></svg>