<svg viewBox="0 0 24 24"><path fill="currentColor" d="M11 12.75a1.25 1.25 0 1 1 0 2.5a1.25 1.25 0 0 1 0-2.5"/><path fill="currentColor" fill-rule="evenodd" d="M6.419 8c0-2.828 0-4.243.817-5.121S9.369 2 12 2s3.947 0 4.764.879c.817.878.817 2.293.817 5.121v8c0 2.828 0 4.243-.817 5.121S14.631 22 12 22s-3.947 0-4.764-.879c-.817-.878-.817-2.293-.817-5.121zm7.331 0a.75.75 0 0 0-1.5 0v3.55a2.75 2.75 0 1 0 1.5 2.45v-3.55c.375.192.8.3 1.25.3a.75.75 0 0 0 0-1.5c-.69 0-1.25-.56-1.25-1.25" clip-rule="evenodd"/><path fill="currentColor" d="M5.023 7.901V16.1c0 .982 0 1.865.046 2.629q.025.405.069.764q.02.16.046.32c.036.217-.131.42-.35.401c-.43-.037-.82-.118-1.183-.317a3.15 3.15 0 0 1-1.321-1.42c-.186-.391-.26-.81-.296-1.273C2 16.756 2 16.205 2 15.531V8.47c0-.674 0-1.224.034-1.672c.035-.463.11-.882.296-1.272a3.15 3.15 0 0 1 1.32-1.42c.364-.2.753-.28 1.184-.318c.219-.02.386.184.35.4a8 8 0 0 0-.046.321q-.044.36-.069.764c-.046.764-.046 1.646-.046 2.63m13.954-.002V16.1c0 .982 0 1.865-.047 2.629q-.023.405-.068.764a8 8 0 0 1-.046.32c-.036.217.131.42.35.401c.43-.037.82-.118 1.183-.317a3.15 3.15 0 0 0 1.322-1.42c.185-.391.26-.81.295-1.273c.034-.447.034-.998.034-1.671V8.468c0-.674 0-1.225-.034-1.672c-.035-.463-.11-.882-.296-1.272a3.15 3.15 0 0 0-1.32-1.42c-.364-.2-.753-.28-1.184-.318c-.219-.02-.386.184-.35.4q.026.16.046.321q.044.36.069.764c.046.764.046 1.646.046 2.63"/></svg>