<svg viewBox="0 0 24 24"><path fill="currentColor" fill-rule="evenodd" d="M6.419 8c0-2.828 0-4.243.817-5.121S9.369 2 12 2s3.947 0 4.764.879c.817.878.817 2.293.817 5.121v8c0 2.828 0 4.243-.817 5.121S14.631 22 12 22s-3.947 0-4.764-.879c-.817-.878-.817-2.293-.817-5.121zm-1.396-.099V16.1c0 .982 0 1.865.046 2.629q.025.405.069.764q.02.16.046.32c.036.217-.131.42-.35.401c-.43-.037-.82-.118-1.183-.317a3.15 3.15 0 0 1-1.321-1.42c-.186-.391-.26-.81-.296-1.273C2 16.756 2 16.205 2 15.531V8.47c0-.674 0-1.224.034-1.672c.035-.463.11-.882.296-1.272a3.15 3.15 0 0 1 1.32-1.42c.364-.2.753-.28 1.184-.318c.219-.02.386.184.35.4a8 8 0 0 0-.046.321q-.044.36-.069.764c-.046.764-.046 1.646-.046 2.63m13.954 0V16.1c0 .982 0 1.865-.047 2.629q-.023.405-.068.764a8 8 0 0 1-.046.32c-.036.217.131.42.35.401c.43-.037.82-.118 1.183-.317a3.15 3.15 0 0 0 1.322-1.42c.185-.391.26-.81.295-1.273c.034-.447.034-.998.034-1.671V8.468c0-.674 0-1.225-.034-1.672c-.035-.463-.11-.882-.296-1.272a3.15 3.15 0 0 0-1.32-1.42c-.364-.2-.753-.28-1.184-.318c-.219-.02-.386.184-.35.4q.026.16.046.321q.044.36.069.764c.046.764.046 1.646.046 2.63m-4.109.51a1 1 0 0 1 .11-.042a.25.25 0 0 1 .254.157a1 1 0 0 1 .012.118c.006.117.006.276.006.527a7 7 0 0 1-.005.259a.25.25 0 0 1-.093.15l-.038.023c-.04.022-.095.05-.191.097l-1.317.659c-.224.112-.366.183-.474.23a1 1 0 0 1-.11.042a.25.25 0 0 1-.254-.157a1 1 0 0 1-.012-.117a11 11 0 0 1-.006-.528a7 7 0 0 1 .005-.258a.25.25 0 0 1 .093-.151l.038-.022c.04-.022.095-.05.191-.098l1.317-.658c.224-.112.366-.183.474-.23m1.777-.389a1.75 1.75 0 0 0-1.848-1.142c-.198.023-.377.09-.528.157c-.149.064-.326.153-.53.255l-1.333.667l-.036.018a2.7 2.7 0 0 0-.433.251a1.75 1.75 0 0 0-.656 1.061a2.6 2.6 0 0 0-.031.5v2.761a2.75 2.75 0 1 0 1.5 2.45v-2.886q.222.033.453.006c.198-.023.377-.09.528-.156c.149-.065.326-.154.53-.255l1.333-.667l.036-.018c.145-.073.299-.15.433-.252a1.75 1.75 0 0 0 .656-1.06c.031-.167.031-.338.031-.5v-.06c0-.226 0-.425-.009-.587a1.9 1.9 0 0 0-.096-.543M10 13.75a1.25 1.25 0 1 1 0 2.5a1.25 1.25 0 0 1 0-2.5" clip-rule="evenodd"/></svg>