<svg viewBox="0 0 24 24"><path fill="currentColor" fill-rule="evenodd" d="M15.328 7.542H8.672c-3.374 0-5.062 0-6.01.987s-.725 2.511-.278 5.56l.422 2.892c.35 2.391.525 3.587 1.422 4.303c.898.716 2.22.716 4.867.716h5.81c2.646 0 3.97 0 4.867-.716s1.072-1.912 1.422-4.303l.422-2.892c.447-3.049.67-4.573-.278-5.56s-2.636-.987-6.01-.987m-.74 2.623c-1.231-.526-2.645.265-2.727 1.527q-.005.083-.004.207v3.623a2.7 2.7 0 0 0-1.286-.321C9.151 15.2 8 16.275 8 17.6S9.151 20 10.571 20s2.572-1.074 2.572-2.4v-3.919l.928.462q.118.06.198.095c1.231.526 2.645-.266 2.728-1.528q.004-.082.003-.207v-.026l-.001-.093c-.021-.623-.387-1.192-.966-1.503l-.087-.044l-1.16-.578a4 4 0 0 0-.197-.094" clip-rule="evenodd"/><path fill="currentColor" d="M14.053 11.256c-.41-.175-.882.089-.909.51a4 4 0 0 0 0 .214a.6.6 0 0 0 .321.501l.058.03l1.135.564c.107.054.133.066.146.072c.41.175.882-.089.91-.51a4 4 0 0 0 0-.215a.6.6 0 0 0-.322-.5zM10.571 16.4c.71 0 1.286.538 1.286 1.2c0 .663-.575 1.2-1.286 1.2c-.71 0-1.285-.537-1.285-1.2s.575-1.2 1.285-1.2"/><path fill="currentColor" d="M8.51 2h6.98c.233 0 .41 0 .567.015c1.108.109 2.014.775 2.399 1.672H5.544c.385-.897 1.292-1.563 2.4-1.672C8.099 2 8.278 2 8.51 2" opacity=".4"/><path fill="currentColor" d="M6.31 4.723c-1.39 0-2.53.84-2.91 1.953l-.024.07a8 8 0 0 1 1.232-.253c1.08-.138 2.446-.138 4.032-.138h6.892c1.586 0 2.952 0 4.032.138c.42.054.834.133 1.232.253l-.023-.07c-.38-1.114-1.52-1.953-2.911-1.953z" opacity=".7"/></svg>