<svg viewBox="0 0 24 24"><path fill="currentColor" fill-rule="evenodd" d="M13.47 8.47a.75.75 0 0 1 1.06 0L17 10.94l2.47-2.47a.75.75 0 1 1 1.06 1.06L18.06 12l2.47 2.47a.75.75 0 0 1-1.06 1.06L17 13.06l-2.47 2.47a.75.75 0 0 1-1.06-1.06L15.94 12l-2.47-2.47a.75.75 0 0 1 0-1.06" clip-rule="evenodd"/><path fill="currentColor" d="M3.681 8.164c-.621.788-.64 1.71-.678 3.552a14 14 0 0 0 0 .569c.038 1.842.057 2.763.678 3.551c.113.144.28.315.42.431c.763.636 1.771.636 3.788.636c.72 0 1.081 0 1.425.093q.107.029.211.066c.336.121.637.33 1.238.746c2.374 1.645 3.56 2.467 4.557 2.11a2.1 2.1 0 0 0 .541-.29c.786-.58.91-1.863 1.024-4.331l-1.294 1.294a2.25 2.25 0 1 1-3.182-3.182L13.818 12l-1.409-1.409a2.25 2.25 0 1 1 3.182-3.182l1.294 1.294c-.115-2.468-.238-3.751-1.024-4.331a2.1 2.1 0 0 0-.54-.29c-.997-.357-2.184.465-4.558 2.11c-.601.416-.902.625-1.238.746a3 3 0 0 1-.211.067c-.344.092-.704.092-1.425.092c-2.017 0-3.025 0-3.789.636c-.14.116-.306.287-.419.43"/></svg>