<svg viewBox="0 0 24 24"><path fill="currentColor" fill-rule="evenodd" d="M14.25 4.48v3.057c0 .111 0 .27.021.406a.94.94 0 0 0 .444.683a.96.96 0 0 0 .783.072c.13-.04.272-.108.378-.159L17 8.005l1.124.534c.106.05.248.119.378.16a.96.96 0 0 0 .783-.073a.94.94 0 0 0 .444-.683c.022-.136.021-.295.021-.406V3.031q.17-.008.332-.013C21.154 2.98 22 3.86 22 4.933v11.21c0 1.112-.906 2.01-2.015 2.08c-.97.06-2.108.179-2.985.41c-1.082.286-2.373.904-3.372 1.436q-.422.224-.878.323V5.174a3.6 3.6 0 0 0 .924-.371q.277-.162.576-.323m5.478 8.338a.75.75 0 0 1-.546.91l-4 1a.75.75 0 1 1-.364-1.456l4-1a.75.75 0 0 1 .91.546M11.25 5.214a3.4 3.4 0 0 1-.968-.339C9.296 4.354 8.05 3.765 7 3.487c-.887-.233-2.041-.352-3.018-.412C2.886 3.008 2 3.9 2 4.998v11.146c0 1.11.906 2.01 2.015 2.079c.97.06 2.108.179 2.985.41c1.081.286 2.373.904 3.372 1.436q.422.224.878.324zM4.273 8.818a.75.75 0 0 1 .91-.546l4 1a.75.75 0 1 1-.365 1.456l-4-1a.75.75 0 0 1-.545-.91m.91 3.454a.75.75 0 1 0-.365 1.456l4 1a.75.75 0 0 0 .364-1.456z" clip-rule="evenodd"/><path fill="currentColor" d="M18.25 3.151c-.62.073-1.23.18-1.75.336a8 8 0 0 0-.75.27v3.182l.75-.356l.008-.005a1.1 1.1 0 0 1 .492-.13q.072 0 .138.01c.175.029.315.1.354.12l.009.005l.75.356V3.15"/></svg>