<svg viewBox="0 0 24 24"><path fill="currentColor" fill-rule="evenodd" d="M17.5 11c-2.121 0-3.182 0-3.841-.659S13 8.621 13 6.5s0-3.182.659-3.841S15.379 2 17.5 2s3.182 0 3.841.659S22 4.379 22 6.5s0 3.182-.659 3.841S19.621 11 17.5 11m-2.53-7.03a.75.75 0 0 1 1.06 0l1.47 1.47l1.47-1.47a.75.75 0 1 1 1.06 1.06L18.56 6.5l1.47 1.47a.75.75 0 0 1-1.06 1.06L17.5 7.56l-1.47 1.47a.75.75 0 1 1-1.06-1.06l1.47-1.47l-1.47-1.47a.75.75 0 0 1 0-1.06" clip-rule="evenodd"/><path fill="currentColor" d="M12 22c-4.714 0-7.071 0-8.536-1.465C2 19.072 2 16.714 2 12s0-7.071 1.464-8.536C4.93 2 7.286 2 12 2h.258c-.405.567-.578 1.205-.662 1.831c-.096.714-.096 1.595-.096 2.577v.184c0 .982 0 1.863.096 2.577c.104.779.348 1.578 1.002 2.233c.655.654 1.454.898 2.233 1.002c.714.096 1.595.096 2.577.096h.184c.982 0 1.863 0 2.577-.096c.626-.084 1.264-.257 1.831-.662V12c0 4.714 0 7.071-1.465 8.535C19.072 22 16.714 22 12 22"/></svg>