<svg viewBox="0 0 24 24"><path fill="currentColor" fill-rule="evenodd" d="M9.944 1.25H10a.75.75 0 0 1 0 1.5c-1.907 0-3.261.002-4.29.14c-1.005.135-1.585.389-2.008.812S3.025 4.705 2.89 5.71c-.138 1.029-.14 2.383-.14 4.29a.75.75 0 0 1-1.5 0v-.056c0-1.838 0-3.294.153-4.433c.158-1.172.49-2.121 1.238-2.87c.749-.748 1.698-1.08 2.87-1.238c1.14-.153 2.595-.153 4.433-.153m8.345 1.64c-1.027-.138-2.382-.14-4.289-.14a.75.75 0 0 1 0-1.5h.056c1.838 0 3.294 0 4.433.153c1.172.158 2.121.49 2.87 1.238c.748.749 1.08 1.698 1.238 2.87c.153 1.14.153 2.595.153 4.433V10a.75.75 0 0 1-1.5 0c0-1.907-.002-3.261-.14-4.29c-.135-1.005-.389-1.585-.812-2.008s-1.003-.677-2.009-.812M2 13.25a.75.75 0 0 1 .75.75c0 1.907.002 3.262.14 4.29c.135 1.005.389 1.585.812 2.008s1.003.677 2.009.812c1.028.138 2.382.14 4.289.14a.75.75 0 0 1 0 1.5h-.056c-1.838 0-3.294 0-4.433-.153c-1.172-.158-2.121-.49-2.87-1.238c-.748-.749-1.08-1.698-1.238-2.87c-.153-1.14-.153-2.595-.153-4.433V14a.75.75 0 0 1 .75-.75m20 0a.75.75 0 0 1 .75.75v.056c0 1.838 0 3.294-.153 4.433c-.158 1.172-.49 2.121-1.238 2.87c-.749.748-1.698 1.08-2.87 1.238c-1.14.153-2.595.153-4.433.153H14a.75.75 0 0 1 0-1.5c1.907 0 3.262-.002 4.29-.14c1.005-.135 1.585-.389 2.008-.812s.677-1.003.812-2.009c.138-1.027.14-2.382.14-4.289a.75.75 0 0 1 .75-.75" clip-rule="evenodd"/><path fill="currentColor" d="M10 5.5h4c1.886 0 2.828 0 3.414.586c.55.55.584 1.414.586 3.078V14.5c0 1.886 0 2.828-.586 3.414S15.886 18.5 14 18.5h-4c-1.886 0-2.828 0-3.414-.586S6 16.386 6 14.5V9.164c.002-1.664.036-2.528.586-3.078C7.172 5.5 8.114 5.5 10 5.5" opacity=".5"/><path fill="currentColor" d="M18.37 9.3q-.178-.067-.37-.136c-1.833-.778-6.8-1.868-12 0q-.192.067-.37.136a10 10 0 0 0-1.553.744a6 6 0 0 0-.54.365l-.01.009l-.004.003l-.002.002H3.52a.75.75 0 0 0 .957 1.156l.01-.008l.063-.047q.09-.066.298-.193A8.5 8.5 0 0 1 6.17 10.7c1.214-.467 3.123-.95 5.831-.95s4.617.483 5.83.95a8.5 8.5 0 0 1 1.322.63a5 5 0 0 1 .36.24l.011.009a.75.75 0 0 0 .957-1.155L20 11c.48-.576.479-.577.479-.577l-.002-.002l-.004-.003l-.01-.009a3 3 0 0 0-.141-.105a6 6 0 0 0-.399-.26A10 10 0 0 0 18.37 9.3"/></svg>