<svg viewBox="0 0 24 24"><g fill="none"><path stroke="currentColor" stroke-linecap="round" stroke-width="1.5" d="M22 14v1m-8 7c3.771 0 5.657 0 6.828-1.172c.654-.653.943-1.528 1.07-2.828M10 22c-3.771 0-5.657 0-6.828-1.172S2 17.771 2 14m0-4V9m8-7C6.229 2 4.343 2 3.172 3.172C2.518 3.825 2.229 4.7 2.102 6M14 2c3.771 0 5.657 0 6.828 1.172S22 6.229 22 10M4 11.5s2.4-2 8-2s8 2 8 2"/><path fill="currentColor" d="M5.25 10a.75.75 0 0 0 1.5 0zm12.164-3.914l-.53.53zM10 6.25h4v-1.5h-4zM6.75 10v-.5h-1.5v.5zm10.5-.5v.5h1.5v-.5zM14 6.25c.964 0 1.612.002 2.095.067c.461.062.659.169.789.3l1.06-1.062c-.455-.455-1.022-.64-1.65-.725c-.606-.082-1.372-.08-2.294-.08zm4.75 3.25c0-.922.002-1.688-.08-2.294c-.084-.628-.27-1.195-.726-1.65l-1.06 1.06c.13.13.237.328.3.79c.064.482.066 1.13.066 2.094zM10 4.75c-.922 0-1.688-.002-2.294.08c-.628.084-1.195.27-1.65.725l1.06 1.061c.13-.13.328-.237.79-.3c.482-.064 1.13-.066 2.094-.066zM6.75 9.5c0-.964.002-1.612.067-2.095c.062-.461.169-.659.3-.789l-1.062-1.06c-.455.455-.64 1.022-.725 1.65c-.082.606-.08 1.372-.08 2.294z"/><path stroke="currentColor" stroke-linecap="round" stroke-width="1.5" d="M14 18.5c1.886 0 2.828 0 3.414-.586S18 16.386 18 14.5V14m-8 4.5c-1.886 0-2.828 0-3.414-.586S6 16.386 6 14.5V14"/></g></svg>