<svg viewBox="0 0 24 24"><path fill="currentColor" fill-rule="evenodd" d="M22 13.25a.75.75 0 0 1 .75.75v.056c0 1.838 0 3.294-.153 4.433c-.158 1.172-.49 2.121-1.238 2.87c-.749.748-1.698 1.08-2.87 1.238c-1.14.153-2.595.153-4.433.153H14a.75.75 0 0 1 0-1.5c1.907 0 3.262-.002 4.29-.14c1.005-.135 1.585-.389 2.008-.812s.677-1.003.812-2.009c.138-1.027.14-2.382.14-4.289a.75.75 0 0 1 .75-.75m-20 0a.75.75 0 0 1 .75.75c0 1.907.002 3.262.14 4.29c.135 1.005.389 1.585.812 2.008s1.003.677 2.009.812c1.028.138 2.382.14 4.289.14a.75.75 0 0 1 0 1.5h-.056c-1.838 0-3.294 0-4.433-.153c-1.172-.158-2.121-.49-2.87-1.238c-.748-.749-1.08-1.698-1.238-2.87c-.153-1.14-.153-2.595-.153-4.433V14a.75.75 0 0 1 .75-.75m7.944-12H10a.75.75 0 0 1 0 1.5c-1.907 0-3.261.002-4.29.14c-1.005.135-1.585.389-2.008.812S3.025 4.705 2.89 5.71c-.138 1.029-.14 2.383-.14 4.29a.75.75 0 0 1-1.5 0v-.056c0-1.838 0-3.294.153-4.433c.158-1.172.49-2.121 1.238-2.87c.749-.748 1.698-1.08 2.87-1.238c1.14-.153 2.595-.153 4.433-.153m8.346 1.64c-1.028-.138-2.383-.14-4.29-.14a.75.75 0 0 1 0-1.5h.056c1.838 0 3.294 0 4.433.153c1.172.158 2.121.49 2.87 1.238c.748.749 1.08 1.698 1.238 2.87c.153 1.14.153 2.595.153 4.433V10a.75.75 0 0 1-1.5 0c0-1.907-.002-3.261-.14-4.29c-.135-1.005-.389-1.585-.812-2.008s-1.003-.677-2.009-.812" clip-rule="evenodd"/><path fill="currentColor" fill-rule="evenodd" d="M6.025 13.109C6.775 12.746 8.443 11.5 12 11.5s5.224 1.246 5.975 1.609l.012.006a1.6 1.6 0 0 1 .263.151c.132.097.229.21.308.337c.194.31.192.604.191.777v.172c0 .899 0 1.648-.08 2.242c-.084.628-.27 1.195-.725 1.65c-.456.456-1.022.642-1.65.726c-.595.08-1.344.08-2.243.08H9.948c-.898 0-1.647 0-2.242-.08c-.628-.084-1.195-.27-1.65-.726c-.456-.455-.641-1.022-.726-1.65c-.08-.594-.08-1.344-.08-2.242v-.172c0-.174-.003-.468.192-.777c.079-.126.176-.24.308-.337a1.7 1.7 0 0 1 .275-.157" clip-rule="evenodd"/><path fill="currentColor" d="M16.295 4.83c-.595-.08-1.345-.08-2.243-.08H9.948c-.898 0-1.648 0-2.242.08c-.628.084-1.195.27-1.65.725c-.456.456-.642 1.023-.726 1.65c-.08.595-.08 1.345-.08 2.243v.286q-.29.187-.496.345a6 6 0 0 0-.497.426l-.01.01l-.004.004l-.001.002l-.002.001a.92.92 0 0 0-.026 1.212a.722.722 0 0 0 1.09.034l.008-.009l.055-.05a4 4 0 0 1 .263-.216a7 7 0 0 1 1.172-.708C7.879 10.26 9.58 9.715 12 9.715s4.12.545 5.198 1.07c.54.262.927.522 1.172.708a4 4 0 0 1 .318.266l.008.009a.722.722 0 0 0 1.09-.034a.92.92 0 0 0-.026-1.212l-.047-.047l-.1-.094a6 6 0 0 0-.367-.302a8 8 0 0 0-.496-.345v-.286c0-.898 0-1.648-.08-2.242c-.084-.628-.27-1.195-.726-1.65c-.455-.456-1.022-.642-1.65-.726"/></svg>