<svg viewBox="0 0 24 24"><path fill="currentColor" d="M6 4.5c0-.935 0-1.402.201-1.75a1.5 1.5 0 0 1 .549-.549C7.098 2 7.565 2 8.5 2h7c.935 0 1.402 0 1.75.201a1.5 1.5 0 0 1 .549.549C18 3.098 18 3.565 18 4.5s0 1.402-.201 1.75a1.5 1.5 0 0 1-.549.549C16.902 7 16.435 7 15.5 7h-7c-.935 0-1.402 0-1.75-.201a1.5 1.5 0 0 1-.549-.549C6 5.902 6 5.435 6 4.5M10 16v4c0 .943 0 1.414.293 1.707S11.057 22 12 22s1.414 0 1.707-.293S14 20.943 14 20v-4c0-.943 0-1.414-.293-1.707S12.943 14 12 14s-1.414 0-1.707.293S10 15.057 10 16"/><path fill="currentColor" d="M19.045 5.25c.455 0 .76 0 .996.016c.23.015.343.042.417.07c.323.128.578.383.705.706c.03.074.056.187.071.417c.016.236.016.541.016.996c0 .837-.01 1.067-.071 1.239a1.25 1.25 0 0 1-.592.687c-.161.086-.387.13-1.215.255l-4.123.618c-.773.116-1.421.213-1.934.358c-.543.152-1.024.38-1.399.816c-.58.674-.644 1.55-.661 2.56v.02C11.465 14 11.71 14 12 14c.295 0 .543 0 .755.009c.018-1.063.117-1.392.298-1.602c.11-.127.277-.242.668-.351c.411-.116.965-.2 1.797-.325l4.196-.63c.65-.097 1.158-.172 1.577-.395a2.75 2.75 0 0 0 1.302-1.513c.158-.447.158-.96.157-1.617V7.43c0-.424 0-.779-.019-1.07a2.8 2.8 0 0 0-.172-.868a2.75 2.75 0 0 0-1.551-1.552a2.8 2.8 0 0 0-.869-.172a18 18 0 0 0-1.07-.019H18v1.5z" opacity=".5"/><path fill="currentColor" fill-rule="evenodd" d="M4.75 4.5a.75.75 0 0 1 .75-.75H6v1.5h-.5a.75.75 0 0 1-.75-.75" clip-rule="evenodd" opacity=".5"/></svg>