<svg viewBox="0 0 24 24"><path fill="currentColor" d="M6 4.5c0-.935 0-1.402.201-1.75a1.5 1.5 0 0 1 .549-.549C7.098 2 7.565 2 8.5 2h7c.935 0 1.402 0 1.75.201a1.5 1.5 0 0 1 .549.549C18 3.098 18 3.565 18 4.5s0 1.402-.201 1.75a1.5 1.5 0 0 1-.549.549C16.902 7 16.435 7 15.5 7h-7c-.935 0-1.402 0-1.75-.201a1.5 1.5 0 0 1-.549-.549C6 5.902 6 5.435 6 4.5m-.998-.56a.748.748 0 0 0 0 1.121Q5 4.813 5 4.541V4.46q0-.273.002-.52M10 16v4c0 .943 0 1.414.293 1.707S11.057 22 12 22s1.414 0 1.707-.293S14 20.943 14 20v-4c0-.943 0-1.414-.293-1.707S12.943 14 12 14s-1.414 0-1.707.293S10 15.057 10 16"/><path fill="currentColor" d="M18.994 5.25h.051c.455 0 .76 0 .997.016c.23.015.342.042.416.07c.323.128.578.383.706.706c.029.074.056.187.07.417c.016.236.016.541.016.996c0 .837-.01 1.067-.071 1.239a1.25 1.25 0 0 1-.592.687c-.161.086-.387.13-1.215.255l-4.123.618c-.773.116-1.421.213-1.934.358c-.543.152-1.023.38-1.398.816c-.384.445-.542.977-.61 1.578c.204-.006.42-.006.639-.006h.109c.265 0 .525 0 .766.011c.05-.32.127-.482.232-.604c.11-.127.278-.242.668-.351c.411-.116.966-.2 1.797-.325l4.196-.63c.65-.097 1.158-.172 1.577-.395a2.75 2.75 0 0 0 1.302-1.513c.158-.447.158-.96.157-1.617V7.43c0-.424 0-.779-.019-1.07a2.8 2.8 0 0 0-.172-.868a2.75 2.75 0 0 0-1.551-1.552a2.8 2.8 0 0 0-.869-.172a18 18 0 0 0-1.07-.019h-.075q.008.33.006.71v.08q.002.38-.006.71"/></svg>