<svg viewBox="0 0 24 24"><path fill="currentColor" d="M3.034 8.89c-.48-3.204-.72-4.805.177-5.848C4.109 2 5.728 2 8.968 2h6.066c3.239 0 4.859 0 5.756 1.042s.658 2.644.177 5.848l-1.2 8c-.366 2.438-.548 3.656-1.392 4.383S16.298 22 13.834 22h-3.666c-2.465 0-3.698 0-4.541-.727S4.6 19.328 4.234 16.89z" opacity=".5"/><path fill="currentColor" fill-rule="evenodd" d="m3.517 12.115l-.29-1.933l1.845-2.05L3.689 6.75h-.96a15 15 0 0 1-.123-1.5h18.788c-.01.437-.054.933-.124 1.5h-.96l-1.382 1.382l1.845 2.05l-.29 1.933l-1.6 1.707l1.168 1.169l-.276 1.845l-1.92-1.92l-1.876 2.003l1.332 1.331h2.245c-.098.59-.195 1.083-.314 1.5H4.758a14 14 0 0 1-.314-1.5h2.245l1.332-1.331l-1.877-2.002l-1.919 1.918l-.276-1.844l1.168-1.17zm2.56-5.099L5.81 6.75h.506zm1.062 1.062L8.334 6.75h1.355L10.94 8L9 9.94zm4.86-1.139l-.189-.189h.38zM13.06 8l1.25-1.25h1.356l1.195 1.328L15 9.94zm4.863-.984l-.24-.266h.506zM16.061 11l1.805-1.805l1.616 1.795l-1.66 1.77zM15 12.06l1.795 1.795l-1.877 2.002L13.06 14zm-3 3l1.892 1.892l-1.217 1.298h-1.35l-1.217-1.298zm3.19 3.19h-.459l.222-.236zm-6.143-.236l.222.236H8.81zM10.939 14l-1.857 1.857l-1.877-2.001L9 12.06zm-3-3l-1.76 1.76l-1.66-1.77l1.615-1.795zM12 12.94L10.06 11L12 9.06L13.94 11z" clip-rule="evenodd"/></svg>