<svg viewBox="0 0 24 24"><g fill="none" stroke="currentColor" stroke-width="1.5"><path d="M3.033 8.89c-.48-3.204-.72-4.805.177-5.848C4.108 2 5.728 2 8.967 2h6.066c3.24 0 4.859 0 5.757 1.042s.657 2.644.176 5.848l-1.2 8c-.365 2.438-.548 3.656-1.392 4.383S16.298 22 13.833 22h-3.666c-2.465 0-3.697 0-4.541-.727s-1.027-1.945-1.393-4.383z"/><path stroke-linecap="round" d="M21 6H3"/><path stroke-linejoin="round" d="m8 6l-4.5 5l7.5 8m3-13L4 16M20 6L7 19m6 0l7.5-8L16 6m-6 0l10 10M4 6l13 13" opacity=".5"/><path stroke-linecap="round" d="M19 19H5"/></g></svg>