<svg viewBox="0 0 24 24"><path fill="currentColor" d="M3.464 3.464C4.93 2 7.286 2 12 2s7.071 0 8.535 1.464C22 4.93 22 7.286 22 12s0 7.071-1.465 8.535C19.072 22 16.714 22 12 22s-7.071 0-8.536-1.465C2 19.072 2 16.714 2 12s0-7.071 1.464-8.536" opacity=".5"/><path fill="currentColor" d="M11.111 5.673a4.07 4.07 0 0 1 3.614 0c.565.28 1.072.774 1.829 1.511l.1.098l.104.1c.754.735 1.263 1.23 1.553 1.783a3.84 3.84 0 0 1 0 3.565c-.29.554-.799 1.049-1.553 1.783l-.104.1l-2.203 2.146l-.034.033c-.18.175-.32.311-.461.417a2.74 2.74 0 0 1-3.27 0a5 5 0 0 1-.46-.417l-.035-.033l-.034-.034c-.18-.175-.32-.311-.429-.45a2.606 2.606 0 0 1 0-3.236c.11-.139.25-.275.429-.45l.034-.034l1.699-1.653a.75.75 0 0 1 1.046 1.075l-1.698 1.653c-.23.225-.292.287-.332.337a1.106 1.106 0 0 0 0 1.38c.04.05.101.113.332.337c.23.224.295.284.347.323a1.24 1.24 0 0 0 1.473 0c.052-.039.117-.1.347-.323l2.203-2.145c.897-.874 1.21-1.191 1.374-1.504a2.34 2.34 0 0 0 0-2.174c-.164-.313-.477-.63-1.374-1.504c-.895-.872-1.224-1.179-1.55-1.34a2.57 2.57 0 0 0-2.28 0c-.326.161-.655.468-1.55 1.34L7.99 10.535c-.503.49-.681.668-.797.83a2.34 2.34 0 0 0 0 2.74c.116.162.294.34.797.83a.75.75 0 1 1-1.046 1.075l-.058-.056c-.424-.413-.709-.69-.913-.975a3.84 3.84 0 0 1 0-4.487c.204-.285.489-.562.913-.975l.058-.056l2.238-2.179l.1-.098c.757-.737 1.264-1.231 1.83-1.511"/></svg>