<svg viewBox="0 0 24 24"><path fill="currentColor" d="M3.21 3.042c-.463.539-.623 1.227-.603 2.208h18.787c.02-.981-.14-1.67-.604-2.208C19.892 2 18.272 2 15.033 2H8.967C5.727 2 4.108 2 3.21 3.042M3.034 8.89a85 85 0 0 1-.304-2.14h.96L4.94 8L3.165 9.773zm.566 3.77l.349 2.33l.99-.99zm.625 4.175l.009.055q.111.753.21 1.36H6.69L7.94 17L6 15.06zm7.085 1.415h1.38L13.94 17L12 15.06L10.06 17zm6 0h2.246q.099-.607.21-1.36l.009-.055L18 15.061L16.06 17zm2.742-3.26l.35-2.33L19.06 14zm.782-5.217l.133-.883c.121-.81.227-1.518.304-2.14h-.96L19.06 8zM15.69 6.75h-1.38L13.06 8L15 9.94L16.94 8zm-6 0H8.31L7.06 8L9 9.94L10.94 8zm-4.932 13c.196.686.451 1.165.868 1.523C6.47 22 7.702 22 10.167 22h3.666c2.465 0 3.697 0 4.541-.727c.417-.358.672-.837.868-1.523zM4.06 11L6 9.06L7.94 11L6 12.94zm3 3L9 12.06L10.94 14L9 15.94zM15 15.94L13.06 14L15 12.06L16.94 14zm-3-3L13.94 11L12 9.06L10.06 11zm6 0L16.06 11L18 9.06L19.94 11z"/></svg>