<svg viewBox="0 0 24 24"><path fill="currentColor" d="M8 13a1 1 0 1 0 0-2a1 1 0 0 0 0 2m5-1a1 1 0 1 1-2 0a1 1 0 0 1 2 0m3 1a1 1 0 1 0 0-2a1 1 0 0 0 0 2"/><path fill="currentColor" fill-rule="evenodd" d="M9.944 3.25c-1.838 0-3.294 0-4.433.153c-1.172.158-2.121.49-2.87 1.238c-.748.749-1.08 1.698-1.238 2.87c-.153 1.14-.153 2.595-.153 4.433v.112c0 1.838 0 3.294.153 4.433c.158 1.172.49 2.121 1.238 2.87c.749.748 1.698 1.08 2.87 1.238c1.14.153 2.595.153 4.433.153h4.112c1.838 0 3.294 0 4.433-.153c1.172-.158 2.121-.49 2.87-1.238c.748-.749 1.08-1.698 1.238-2.87c.153-1.14.153-2.595.153-4.433v-.112c0-1.838 0-3.294-.153-4.433c-.158-1.172-.49-2.121-1.238-2.87c-.749-.748-1.698-1.08-2.87-1.238c-1.14-.153-2.595-.153-4.433-.153zM3.702 5.702c.423-.423 1.003-.677 2.009-.812c1.028-.138 2.382-.14 4.289-.14h4c1.907 0 3.262.002 4.29.14c1.005.135 1.585.389 2.008.812s.677 1.003.812 2.009c.138 1.028.14 2.382.14 4.289s-.002 3.262-.14 4.29c-.135 1.005-.389 1.585-.812 2.008s-1.003.677-2.009.812c-1.027.138-2.382.14-4.289.14h-4c-1.907 0-3.261-.002-4.29-.14c-1.005-.135-1.585-.389-2.008-.812s-.677-1.003-.812-2.009c-.138-1.028-.14-2.382-.14-4.289s.002-3.261.14-4.29c.135-1.005.389-1.585.812-2.008" clip-rule="evenodd"/></svg>