<svg viewBox="0 0 24 24"><path fill="currentColor" fill-rule="evenodd" d="M5.948 1.25h.104c.898 0 1.648 0 2.242.08c.628.084 1.195.27 1.65.725c.456.456.642 1.023.726 1.65c.08.595.08 1.345.08 2.243v12.104c0 .899 0 1.648-.08 2.242c-.084.628-.27 1.195-.725 1.65c-.456.456-1.023.642-1.65.726c-.595.08-1.345.08-2.243.08h-.104c-.898 0-1.648 0-2.242-.08c-.628-.084-1.195-.27-1.65-.726c-.456-.455-.642-1.022-.726-1.65c-.08-.594-.08-1.343-.08-2.242V5.948c0-.898 0-1.648.08-2.242c.084-.628.27-1.195.725-1.65c.456-.456 1.023-.642 1.65-.726c.595-.08 1.345-.08 2.243-.08M3.905 2.817c-.461.062-.659.169-.789.3s-.237.327-.3.788C2.753 4.388 2.75 5.036 2.75 6v12c0 .964.002 1.612.067 2.095c.062.461.169.659.3.789s.327.237.788.3c.483.064 1.131.066 2.095.066s1.612-.002 2.095-.067c.461-.062.659-.169.789-.3s.237-.327.3-.788c.064-.483.066-1.131.066-2.095V6c0-.964-.002-1.612-.067-2.095c-.062-.461-.169-.659-.3-.789s-.327-.237-.788-.3C7.612 2.753 6.964 2.75 6 2.75s-1.612.002-2.095.067M17.948 1.25h.104c.899 0 1.648 0 2.242.08c.628.084 1.195.27 1.65.725c.456.456.642 1.023.726 1.65c.08.595.08 1.345.08 2.243v12.104c0 .899 0 1.648-.08 2.242c-.084.628-.27 1.195-.726 1.65c-.455.456-1.022.642-1.65.726c-.594.08-1.343.08-2.242.08h-.104c-.899 0-1.648 0-2.242-.08c-.628-.084-1.195-.27-1.65-.726c-.456-.455-.642-1.022-.726-1.65c-.08-.594-.08-1.343-.08-2.242V5.948c0-.898 0-1.648.08-2.242c.084-.628.27-1.195.726-1.65c.455-.456 1.022-.642 1.65-.726c.594-.08 1.343-.08 2.242-.08m-2.043 1.567c-.461.062-.659.169-.789.3s-.237.327-.3.788c-.064.483-.066 1.131-.066 2.095v12c0 .964.002 1.612.066 2.095c.063.461.17.659.3.789s.328.237.79.3c.482.064 1.13.066 2.094.066s1.612-.002 2.095-.067c.461-.062.659-.169.789-.3s.237-.327.3-.788c.064-.483.066-1.131.066-2.095V6c0-.964-.002-1.612-.067-2.095c-.062-.461-.169-.659-.3-.789s-.327-.237-.788-.3c-.483-.064-1.131-.066-2.095-.066s-1.612.002-2.095.067" clip-rule="evenodd"/></svg>