<svg viewBox="0 0 24 24"><path fill="currentColor" d="M21.194 2.806a2.753 2.753 0 0 1 0 3.893l-.496.496a5 5 0 0 1-.533-.151a5.2 5.2 0 0 1-1.968-1.241a5.2 5.2 0 0 1-1.241-1.968a5 5 0 0 1-.15-.533l.495-.496a2.753 2.753 0 0 1 3.893 0M14.58 13.313c-.404.404-.606.606-.829.78a4.6 4.6 0 0 1-.848.524c-.255.121-.526.211-1.068.392l-2.858.953a.742.742 0 0 1-.939-.94l.953-2.857c.18-.542.27-.813.392-1.068q.217-.453.524-.848c.174-.223.376-.425.78-.83l4.916-4.915a6.7 6.7 0 0 0 1.533 2.36a6.7 6.7 0 0 0 2.36 1.533z"/><path fill="currentColor" d="M20.536 20.536C22 19.07 22 16.714 22 12c0-1.548 0-2.842-.052-3.934l-6.362 6.362c-.351.352-.615.616-.912.847a6 6 0 0 1-1.125.696c-.34.162-.694.28-1.166.437l-2.932.977a2.242 2.242 0 0 1-2.836-2.836l.977-2.932c.157-.472.275-.826.437-1.166q.287-.6.696-1.125c.231-.297.495-.56.847-.912l6.362-6.362C14.842 2 13.548 2 12 2C7.286 2 4.929 2 3.464 3.464C2 4.93 2 7.286 2 12s0 7.071 1.464 8.535C4.93 22 7.286 22 12 22s7.071 0 8.535-1.465"/></svg>