<svg viewBox="0 0 24 24"><path fill="currentColor" fill-rule="evenodd" d="M1.25 12C1.25 6.063 6.063 1.25 12 1.25a.75.75 0 0 1 0 1.5A9.25 9.25 0 1 0 21.25 12a.75.75 0 0 1 1.5 0c0 5.937-4.813 10.75-10.75 10.75S1.25 17.937 1.25 12m15.52-9.724a3.503 3.503 0 0 1 4.954 4.953l-6.648 6.649c-.371.37-.604.604-.863.806a5.3 5.3 0 0 1-.987.61c-.297.141-.61.245-1.107.411l-2.905.968a1.492 1.492 0 0 1-1.887-1.887l.968-2.905c.166-.498.27-.81.411-1.107q.252-.526.61-.987c.202-.26.435-.492.806-.863zm3.893 1.06a2.003 2.003 0 0 0-2.832 0l-.376.377q.032.145.098.338c.143.413.415.957.927 1.469a3.9 3.9 0 0 0 1.807 1.025l.376-.376a2.003 2.003 0 0 0 0-2.832m-1.558 4.391a5.4 5.4 0 0 1-1.686-1.146a5.4 5.4 0 0 1-1.146-1.686L11.218 9.95c-.417.417-.58.582-.72.76a4 4 0 0 0-.437.71c-.098.203-.172.423-.359.982l-.431 1.295l1.032 1.033l1.295-.432c.56-.187.779-.261.983-.358q.378-.18.71-.439c.177-.139.342-.302.759-.718z" clip-rule="evenodd"/></svg>