<svg viewBox="0 0 24 24"><path fill="currentColor" d="M13.26 1.88a.75.75 0 0 1 .861-.62c.026.005.107.02.15.03q.129.028.352.091c.297.087.712.23 1.21.457c.996.457 2.321 1.256 3.697 2.632s2.175 2.701 2.632 3.698c.228.497.37.912.457 1.209a6 6 0 0 1 .113.455l.005.03a.765.765 0 0 1-.617.879a.75.75 0 0 1-.86-.617l-.014-.068a4 4 0 0 0-.067-.26a7.4 7.4 0 0 0-.38-1.003c-.39-.85-1.091-2.025-2.33-3.262c-1.237-1.238-2.411-1.94-3.262-2.33a7.4 7.4 0 0 0-1.003-.38a6 6 0 0 0-.318-.08a.76.76 0 0 1-.626-.86"/><path fill="currentColor" fill-rule="evenodd" d="M13.486 5.33a.75.75 0 0 1 .927-.515l-.206.72l.206-.72h.003l.003.002l.008.002l.02.006q.023.007.056.02q.068.022.177.069c.146.062.345.159.59.303c.49.29 1.157.771 1.942 1.556s1.266 1.453 1.556 1.943c.145.244.241.443.304.59a3 3 0 0 1 .088.233l.007.02l.002.007v.003l.001.002l-.72.207l.72-.206a.75.75 0 0 1-1.439.423l-.003-.011l-.035-.088a4 4 0 0 0-.216-.416c-.223-.377-.625-.946-1.325-1.646s-1.27-1.103-1.646-1.326a4 4 0 0 0-.504-.25l-.011-.004a.75.75 0 0 1-.505-.924m-8.479-.923c1.68-1.68 4.516-1.552 5.686.544l.649 1.163c.763 1.369.438 3.096-.68 4.228a.63.63 0 0 0-.104.336c-.013.256.078.849.997 1.767c.918.918 1.51 1.01 1.767.997a.63.63 0 0 0 .337-.103c1.131-1.119 2.859-1.444 4.227-.68l1.163.649c2.096 1.17 2.224 4.005.544 5.685c-.899.898-2.093 1.697-3.498 1.75c-2.08.079-5.536-.458-8.958-3.88c-3.421-3.422-3.959-6.877-3.88-8.958c.053-1.404.852-2.6 1.75-3.498m4.376 1.275c-.6-1.073-2.21-1.32-3.315-.214c-.775.775-1.28 1.63-1.312 2.494c-.066 1.735.363 4.76 3.442 7.84s6.105 3.508 7.84 3.442c.863-.032 1.72-.537 2.494-1.312c1.106-1.106.86-2.715-.214-3.314l-1.163-.65c-.723-.403-1.74-.265-2.453.448c-.07.07-.516.486-1.307.524c-.81.04-1.791-.324-2.9-1.434c-1.111-1.11-1.475-2.091-1.435-2.902c.038-.791.455-1.237.524-1.306c.714-.714.851-1.73.448-2.453z" clip-rule="evenodd"/></svg>