<svg viewBox="0 0 24 24"><path fill="currentColor" d="m10.038 5.316l.649 1.163c.585 1.05.35 2.426-.572 3.349c0 0-1.12 1.119.91 3.148c2.027 2.027 3.146.91 3.147.91c.923-.923 2.3-1.158 3.349-.573l1.163.65c1.585.884 1.772 3.106.379 4.5c-.837.836-1.863 1.488-2.996 1.53c-1.908.073-5.149-.41-8.4-3.66c-3.25-3.251-3.733-6.492-3.66-8.4c.043-1.133.694-2.159 1.53-2.996c1.394-1.393 3.616-1.206 4.5.38" opacity=".5"/><path fill="currentColor" d="M13.26 1.88a.75.75 0 0 1 .861-.62c.025.005.107.02.15.03q.129.027.352.09c.297.087.712.23 1.21.458c.996.457 2.321 1.256 3.697 2.631c1.376 1.376 2.175 2.702 2.632 3.698c.228.498.37.912.457 1.21a6 6 0 0 1 .113.454l.005.031a.765.765 0 0 1-.617.878a.75.75 0 0 1-.86-.617a3 3 0 0 0-.081-.327a7.4 7.4 0 0 0-.38-1.004c-.39-.85-1.092-2.024-2.33-3.262s-2.411-1.939-3.262-2.329a7.4 7.4 0 0 0-1.003-.38a6 6 0 0 0-.318-.08a.76.76 0 0 1-.626-.861"/><path fill="currentColor" fill-rule="evenodd" d="M13.486 5.33a.75.75 0 0 1 .927-.516l-.206.721l.206-.72h.003l.003.001l.008.002l.02.006l.056.02q.067.023.177.07c.146.062.345.158.59.303c.489.29 1.157.77 1.942 1.556c.785.785 1.266 1.453 1.556 1.942c.145.245.241.444.303.59a3 3 0 0 1 .09.233l.005.02l.003.008v.003l.001.001s0 .002-.72.208l.72-.206a.75.75 0 0 1-1.439.422l-.003-.01l-.035-.088a4 4 0 0 0-.216-.417c-.223-.376-.626-.946-1.326-1.646s-1.269-1.102-1.646-1.325a4 4 0 0 0-.504-.25l-.01-.004a.75.75 0 0 1-.505-.925" clip-rule="evenodd"/></svg>