<svg viewBox="0 0 24 24"><path fill="currentColor" d="M12.47 4.47a.75.75 0 0 1 1.06 0l1.5 1.5a.75.75 0 0 1-1.06 1.06l-1.5-1.5a.75.75 0 0 1 0-1.06"/><path fill="currentColor" fill-rule="evenodd" d="M7.062 3.062a6.187 6.187 0 0 1 8.75 0l5.126 5.126a6.187 6.187 0 0 1-6.603 10.148A6.752 6.752 0 0 1 1.25 16a6.75 6.75 0 0 1 4.414-6.335a6.19 6.19 0 0 1 1.398-6.603m7.69 1.06a4.687 4.687 0 1 0-6.63 6.63l2.254 2.252c.216-.072.52-.187.89-.364c.805-.389 1.921-1.076 3.11-2.264s1.875-2.305 2.263-3.11a8 8 0 0 0 .365-.89zm3.412 3.414q-.077.18-.173.38c-.455.944-1.237 2.202-2.555 3.52s-2.577 2.1-3.52 2.555q-.2.096-.38.174l1.713 1.712a4.687 4.687 0 1 0 6.628-6.628zM6.381 11.004a5.25 5.25 0 1 0 6.615 6.615a6 6 0 0 1-.808-.681l-5.126-5.126a6 6 0 0 1-.681-.808" clip-rule="evenodd"/></svg>