<svg viewBox="0 0 24 24"><path fill="currentColor" d="M14.757 7.121A3 3 0 1 0 19 2.88a3 3 0 0 0-4.243 4.242m6.148 10.259a3.738 3.738 0 0 0-5.286-5.286l-3.524 3.524a3.738 3.738 0 0 0 5.286 5.286z" opacity=".5"/><path fill="currentColor" d="M19.878 18.408v-.003l-.732-.14l-.028-.008a2 2 0 0 1-.143-.04a4.5 4.5 0 0 1-.583-.237c-.5-.24-1.2-.671-1.95-1.421s-1.18-1.451-1.422-1.951a5 5 0 0 1-.236-.583a3 3 0 0 1-.048-.17l-.141-.733h-.003l-1.266 1.266l.03.094c.06.193.16.459.313.777c.307.637.832 1.48 1.712 2.36s1.723 1.405 2.36 1.712a6 6 0 0 0 .871.343zM9.727 12.682a4.61 4.61 0 0 1-6.454 0A4.46 4.46 0 0 1 2 10.25h9a4.46 4.46 0 0 1-1.273 2.432M11 8.75H2a4.46 4.46 0 0 1 1.273-2.432a4.61 4.61 0 0 1 6.454 0A4.46 4.46 0 0 1 11 8.75"/></svg>