<svg viewBox="0 0 24 24"><path fill="currentColor" fill-rule="evenodd" d="M19.53 2.348a3.75 3.75 0 1 0-5.303 5.304a3.75 3.75 0 0 0 5.303-5.304M15.288 3.41a2.25 2.25 0 1 1 3.182 3.182a2.25 2.25 0 0 1-3.182-3.182m-5.076 2.377a5.25 5.25 0 1 0-7.424 7.425a5.25 5.25 0 0 0 7.424-7.425M3.848 6.848a3.75 3.75 0 0 1 6.327 1.902h-7.35a3.73 3.73 0 0 1 1.023-1.902M2.825 10.25h7.35a3.75 3.75 0 0 1-7.35 0m18.611 1.314a4.49 4.49 0 0 0-6.347 0l-3.524 3.524a4.488 4.488 0 1 0 6.346 6.347l3.524-3.524a4.49 4.49 0 0 0 0-6.347m-5.287 1.06a2.988 2.988 0 1 1 4.226 4.227L19 18.224l-.026-.008a4.5 4.5 0 0 1-.583-.236c-.5-.241-1.2-.672-1.95-1.421c-.75-.75-1.181-1.452-1.422-1.951a4.5 4.5 0 0 1-.236-.583L14.775 14zm-2.53 2.53l.05.105c.307.637.832 1.48 1.712 2.36s1.723 1.405 2.36 1.712l.104.05l-.994.994a2.988 2.988 0 1 1-4.226-4.226z" clip-rule="evenodd"/></svg>