<svg viewBox="0 0 24 24"><path fill="currentColor" fill-rule="evenodd" d="M7.592 11.282a5.437 5.437 0 1 1 7.69-7.69l1.922 1.923l-.096.495l-.001.009l-.013.054a4 4 0 0 1-.07.244a7 7 0 0 1-.385.948c-.388.806-1.076 1.923-2.264 3.11c-1.188 1.189-2.304 1.876-3.11 2.265c-.403.194-.73.313-.948.383a4 4 0 0 1-.298.084l-.009.002l-.495.095zM13.53 4.47a.75.75 0 1 0-1.06 1.06l1.5 1.5a.75.75 0 1 0 1.06-1.06z" clip-rule="evenodd"/><path fill="currentColor" d="m18.452 6.774l.003-.008l1.953 1.952a5.437 5.437 0 1 1-7.69 7.69l-1.952-1.953l.007-.003a9 9 0 0 0 1.143-.461c.943-.455 2.202-1.236 3.52-2.554c1.318-1.319 2.1-2.577 2.554-3.52c.227-.471.373-.863.462-1.143M5.286 10.648a6 6 0 1 0 8.067 8.067a7 7 0 0 1-1.695-1.247l-5.126-5.126a7 7 0 0 1-1.246-1.694"/></svg>