<svg viewBox="0 0 24 24"><path fill="currentColor" d="M9.682 12.682a4.5 4.5 0 0 1-7.62-2.432h8.875a4.5 4.5 0 0 1-1.255 2.432m1.255-3.932H2.063a4.5 4.5 0 0 1 8.875 0m3.819-1.629A3 3 0 1 0 19 2.88a3 3 0 0 0-4.243 4.242m6.148 4.973a3.74 3.74 0 0 1 0 5.286l-1.027 1.027v-.003l-.732-.14l-.028-.008a2 2 0 0 1-.143-.04a4.5 4.5 0 0 1-.583-.237c-.5-.24-1.2-.671-1.95-1.421s-1.181-1.451-1.422-1.951a5 5 0 0 1-.236-.583a2 2 0 0 1-.048-.17l-.141-.733h-.003l1.027-1.027a3.74 3.74 0 0 1 5.286 0m-7.579 2.293l.03.094c.06.193.16.459.313.777c.307.637.832 1.48 1.712 2.36s1.723 1.405 2.36 1.712a6 6 0 0 0 .871.343l-1.231 1.231a3.738 3.738 0 0 1-5.286-5.286z"/></svg>