<svg viewBox="0 0 24 24"><path fill="currentColor" d="M3.99 13.602a6.796 6.796 0 0 1 9.612-9.611l6.407 6.407a6.796 6.796 0 1 1-9.61 9.611z" opacity=".5"/><path fill="currentColor" d="m7.807 17.419l-1.253-1.254l.495-.095h.001l.014-.004q.022-.004.073-.017q.105-.024.316-.091c.281-.09.697-.243 1.21-.49c1.024-.493 2.437-1.364 3.939-2.866c1.5-1.501 2.372-2.915 2.866-3.94c.247-.512.4-.927.49-1.209a5 5 0 0 0 .108-.389l.003-.014l.096-.496l1.253 1.253l-.032.103a11 11 0 0 1-.567 1.404c-.56 1.162-1.525 2.717-3.157 4.349c-1.631 1.631-3.187 2.597-4.348 3.156a11 11 0 0 1-1.507.6"/></svg>