<svg viewBox="0 0 24 24"><g fill="none"><path fill="currentColor" d="m14.495 7.975l.53-.53zm1.54 1.543l-.53.53zm-5.166 5.696l-.53.53zm-2.058-2.06l.53-.53zm6.473-.157l-.264-.702zm-.96.36l.265.702zm-3.658-3.666l-.704-.258zm.347-.948l.704.258zm-1.59 2.094l.199.723zm.728-.27l-.438-.608zm.187-.172l.57.487zm3.288 3.295l.49.567zm-.436.91l-.723-.198zm.269-.727l-.61-.437zm-5.6-1.995l-.75.004zm.106-.402l-.65-.374zm4.188 4.696v-.75zm.394-.105l-.372-.651zm-.198-9.549l.161.732zm-5.38 9.452a.75.75 0 0 0 1.062 1.06zm3.388-1.269a.75.75 0 1 0-1.061-1.06zm3.607-6.196l1.541 1.543l1.061-1.06l-1.54-1.543zm-2.564 6.18l-2.06-2.062l-1.06 1.06l2.058 2.06zm3.62-2.39l-.959.36l.528 1.404l.958-.36zM11.37 9.95l.348-.95l-1.409-.516l-.347.948zm-1.748 1.61c.328-.09.678-.175.967-.383L9.713 9.96c-.02.014-.052.034-.49.155zm.34-2.126c-.156.426-.18.458-.195.476l1.142.973c.23-.271.344-.613.461-.933zm.627 1.743q.177-.128.32-.294L9.767 9.91a.3.3 0 0 1-.054.05zm3.472 1.48c-.318.119-.658.235-.927.467l.982 1.134c.018-.015.05-.038.473-.198zm-.148 2.143c.12-.436.141-.47.155-.489l-1.219-.874c-.207.289-.292.638-.382.966zm-.779-1.676a1.8 1.8 0 0 0-.285.313l1.219.874a.3.3 0 0 1 .049-.053zm-3.793-.499c-.33-.33-.53-.533-.656-.69c-.127-.16-.076-.154-.076-.061l-1.5.01c.003.419.212.746.403.985c.19.24.465.512.768.816zm-.118-2.51c-.413.114-.786.215-1.071.33c-.284.113-.627.294-.837.658l1.3.748c-.047.081-.093.062.096-.014c.187-.075.461-.152.91-.276zm-.614 1.759q0-.012.006-.023l-1.3-.748a1.55 1.55 0 0 0-.206.78zm1.73 3.872c.305.305.579.581.82.774c.24.191.57.402.992.403l.003-1.5c.094 0 .1.05-.06-.077c-.159-.126-.362-.328-.694-.66zm2.128-1.343c-.124.452-.202.729-.277.918c-.077.19-.097.143-.015.096l.743 1.303c.367-.21.55-.555.664-.84c.115-.287.217-.663.331-1.08zm-.316 2.52c.27 0 .534-.07.767-.203l-.743-1.303a.04.04 0 0 1-.021.006zm3.354-6.874c.54.54.884.888 1.09 1.165c.097.131.135.21.149.252l.006.026v.003l1.466.317c.128-.596-.121-1.093-.416-1.491c-.287-.388-.728-.826-1.234-1.332zm.042 3.651c.67-.251 1.252-.468 1.674-.702c.433-.24.866-.59.995-1.186l-1.466-.317l-.001.003l-.017.02a1 1 0 0 1-.24.168c-.3.168-.757.341-1.472.61zm-.522-6.254c-.509-.51-.95-.954-1.34-1.243c-.399-.297-.899-.548-1.498-.416l.323 1.464h.008l.02.006a1 1 0 0 1 .254.15c.278.207.628.554 1.172 1.1zm-3.308 1.556c.266-.723.437-1.185.603-1.49a1 1 0 0 1 .183-.257l.005-.003h.002l-.323-1.465c-.599.132-.947.57-1.185 1.008c-.231.426-.445 1.014-.693 1.691zm-3.686 8.03l2.326-2.33l-1.061-1.06l-2.327 2.329z"/><path stroke="currentColor" stroke-linecap="round" stroke-width="1.5" d="M7 3.338A9.95 9.95 0 0 1 12 2c5.523 0 10 4.477 10 10s-4.477 10-10 10S2 17.523 2 12c0-1.821.487-3.53 1.338-5"/></g></svg>