<svg viewBox="0 0 24 24"><path fill="currentColor" fill-rule="evenodd" d="M2.25 6A.75.75 0 0 1 3 5.25h17a.75.75 0 0 1 0 1.5H3A.75.75 0 0 1 2.25 6m0 5a.75.75 0 0 1 .75-.75h7a.75.75 0 0 1 0 1.5H3a.75.75 0 0 1-.75-.75m0 5a.75.75 0 0 1 .75-.75h7a.75.75 0 0 1 0 1.5H3a.75.75 0 0 1-.75-.75" clip-rule="evenodd" opacity=".5"/><path fill="currentColor" d="M19.125 10.685c1.642.948 2.463 1.422 2.723 2.05a2 2 0 0 1 0 1.53c-.26.627-1.081 1.101-2.723 2.05c-1.642.947-2.463 1.421-3.136 1.333a2 2 0 0 1-1.326-.766c-.413-.538-.413-1.486-.413-3.382s0-2.844.413-3.383a2 2 0 0 1 1.326-.765c.673-.089 1.494.385 3.136 1.333"/></svg>