<svg viewBox="0 0 24 24"><path fill="currentColor" fill-rule="evenodd" d="M3.192 9.166a9.24 9.24 0 0 0-.355 4.11a1 1 0 0 1 .114-.017l.049.749l-.05-.749h.013l.024-.002a5 5 0 0 1 .386-.007c.259.001.629.012 1.088.053c.919.08 2.2.275 3.667.737c.451.142.9.374 1.327.606l.299.163c.346.19.697.383 1.087.57c.98.47 2.144.871 3.668.871c2.824 0 5.055-1.06 6.36-1.884a1 1 0 0 1 .088-.048c.191-.74.293-1.517.293-2.318a9.2 9.2 0 0 0-.587-3.25c-.2 0-.497.01-.873.046a13.4 13.4 0 0 0-3.047.67c-.263.09-.563.252-.958.485l-.248.148c-.323.193-.69.413-1.088.62c-1.03.539-2.323 1.031-4.012 1.031c-2.418 0-4.406-.804-5.78-1.597a12.5 12.5 0 0 1-1.465-.987m.605-1.445q.088.077.205.172c.32.26.796.61 1.404.961c1.22.704 2.95 1.396 5.031 1.396c1.374 0 2.425-.394 3.317-.86c.356-.186.675-.377.993-.567l.275-.164c.392-.231.81-.467 1.235-.613a15 15 0 0 1 3.698-.768A9.24 9.24 0 0 0 12 2.75a9.25 9.25 0 0 0-8.203 4.971m16.288 8.776a13.25 13.25 0 0 1-5.576 1.253c-1.813 0-3.202-.485-4.317-1.02c-.43-.206-.828-.424-1.18-.617l-.272-.149c-.429-.232-.764-.399-1.062-.493a16 16 0 0 0-3.347-.674a12 12 0 0 0-1.165-.045a9.254 9.254 0 0 0 16.92 1.745M1.25 12C1.25 6.063 6.063 1.25 12 1.25S22.75 6.063 22.75 12S17.937 22.75 12 22.75S1.25 17.937 1.25 12" clip-rule="evenodd"/></svg>