<svg viewBox="0 0 24 24"><path fill="currentColor" d="M21.775 14.118Q22 13.092 22 12a10 10 0 0 0-.525-3.206l-.527-.038h-.011l-.051-.003a10 10 0 0 0-1.096.043a13.4 13.4 0 0 0-3.047.67c-.263.09-.563.252-.958.485l-.248.148c-.322.192-.69.413-1.088.62c-1.03.539-2.323 1.031-4.012 1.031c-2.418 0-4.407-.804-5.78-1.596a12.4 12.4 0 0 1-1.6-1.096a9 9 0 0 1-.48-.415a10.1 10.1 0 0 0-.498 4.628l.385-.02h.011l.027-.001a9 9 0 0 1 .45-.006c.303.002.733.014 1.253.054c1.037.082 2.447.278 3.923.742c.45.142.899.374 1.327.606l.299.163c.346.19.697.383 1.087.57c.98.47 2.144.871 3.668.871c1.383 0 2.662-.344 3.802-.766c.571-.21 1.099-.438 1.591-.65l.018-.007c.475-.204.937-.403 1.343-.538z"/><path fill="currentColor" d="M21.206 15.912q-.32.131-.711.3l-.01.005c-.487.21-1.045.45-1.654.674c-1.226.454-2.693.86-4.322.86c-1.813 0-3.203-.486-4.317-1.02a24 24 0 0 1-1.18-.617l-.272-.15c-.43-.232-.764-.399-1.062-.493a16.4 16.4 0 0 0-3.59-.677a16 16 0 0 0-1.453-.048l-.077.003h-.02l-.153.008C3.582 18.94 7.433 22 12 22c4.135 0 7.683-2.51 9.206-6.088M2.71 8.293l.285-.28zm.527-1.114l.297.302l.003.004l.019.018l.086.081c.079.072.2.18.36.31c.32.26.795.61 1.404.96c1.219.704 2.95 1.396 5.031 1.396c1.374 0 2.425-.394 3.317-.86c.355-.186.675-.377.993-.567l.275-.163c.392-.232.81-.468 1.235-.614a15 15 0 0 1 3.39-.743a11 11 0 0 1 1.156-.052A10 10 0 0 0 12 2a10 10 0 0 0-8.763 5.179m17.786.504L21 8.006z"/></svg>