<svg viewBox="0 0 24 24"><path fill="currentColor" d="M19.992 11.643q.425-.38.789-.752c.754-.77 1.342-1.54 1.672-2.268c.324-.716.458-1.544.012-2.258c-.42-.67-1.185-.96-1.956-1.064c-.79-.107-1.75-.041-2.797.152l-.888.165a8 8 0 0 0-12.82 6.641l-.527.593c-.84.817-1.497 1.636-1.872 2.403c-.366.75-.54 1.627-.07 2.38c.433.691 1.232.979 2.032 1.074c.825.098 1.828.016 2.923-.201q.323-.064.66-.145a8 8 0 0 1-1.311-1.26c-.853.146-1.56.18-2.095.116c-.632-.075-.865-.264-.937-.38c-.063-.1-.132-.358.145-.925c.241-.494.688-1.092 1.342-1.758a8 8 0 0 0 1.545 2.947q.176-.03.36-.067c2.02-.4 4.613-1.351 7.28-2.772c2.665-1.42 4.848-3.012 6.227-4.42a8 8 0 0 0-1.545-2.947c.885-.151 1.61-.182 2.149-.11c.594.08.813.262.883.374c.06.095.126.33-.107.844c-.227.502-.683 1.129-1.377 1.836l-.003.003c.161.576.259 1.179.286 1.799"/><path fill="currentColor" d="M12 20a8 8 0 0 0 7.992-8.357c-1.481 1.327-3.49 2.71-5.808 3.945c-2.492 1.328-4.96 2.281-7.033 2.775A7.97 7.97 0 0 0 12 20"/></svg>