<svg viewBox="0 0 24 24"><path fill="currentColor" d="M17.202 17.486c-1.273.585-3.317 1.264-5.383 1.264a8.432 8.432 0 0 1-3.348-.688c-.334-.14-.643-.287-.912-.415l-.207-.099c-.328-.154-.575-.261-.793-.32a14.35 14.35 0 0 0-2.788-.45a15.197 15.197 0 0 0-1.224-.03l-.014.001H2.53l-.046.002a8.003 8.003 0 0 0 14.717.735M3.043 10.047l.449.392v.001l.014.01a5.72 5.72 0 0 0 .334.25c.243.17.606.4 1.072.63c.934.462 2.266.92 3.872.92c1.057 0 1.862-.26 2.544-.565c.273-.122.517-.247.764-.374l.216-.11c.306-.155.64-.317.98-.417a13.33 13.33 0 0 1 2.654-.498a10.238 10.238 0 0 1 1.012-.033l.063.002l.019.001h.009l.028.002A7.999 7.999 0 0 0 10 6a8 8 0 0 0-6.957 4.047"/><path fill="currentColor" d="M17.846 15.571a8.04 8.04 0 0 0-.152-3.772l-.738-.046h-.008c-.007 0-.02 0-.039-.002a8.698 8.698 0 0 0-.845.029c-.582.048-1.406.165-2.353.443c-.194.057-.419.16-.725.316l-.191.097c-.25.129-.541.278-.854.418c-.813.364-1.83.695-3.157.695c-1.893 0-3.453-.539-4.537-1.075a9.953 9.953 0 0 1-1.264-.742a7.206 7.206 0 0 1-.436-.328l-.027-.023l-.008-.007l-.003-.003h-.001s-.001-.001.484-.557l-.485.556l-.102-.09a8.06 8.06 0 0 0-.305 3.785l.37-.015l.03.75l-.03-.75h.01l.022-.001l.079-.002a16.66 16.66 0 0 1 1.29.035a15.79 15.79 0 0 1 3.085.498c.356.098.709.256 1.038.411l.23.11c.265.126.53.253.825.376a6.936 6.936 0 0 0 2.771.573c2.142 0 4.332-.865 5.32-1.408l.657-.36zm2.378-12.057c.326-.09.548-.096.606.004c.058.1-.058.29-.3.527a2 2 0 0 1-3.424 1.976c-.326.091-.548.097-.606-.003c-.058-.1.058-.29.3-.527a2 2 0 0 1 3.424-1.977" opacity=".5"/><path fill="currentColor" d="M20.53 4.045a2.006 2.006 0 0 0-.306-.53c-.455.126-1.113.418-1.81.82c-.696.402-1.277.826-1.614 1.156a2.018 2.018 0 0 0 .306.53c.455-.126 1.112-.418 1.809-.82c.696-.402 1.278-.825 1.615-1.156"/></svg>