<svg viewBox="0 0 24 24"><path fill="currentColor" fill-rule="evenodd" d="M15.75 6a.75.75 0 0 1-.75.75H3a.75.75 0 0 1 0-1.5h12a.75.75 0 0 1 .75.75m-2 4a.75.75 0 0 1-.75.75H3a.75.75 0 0 1 0-1.5h10a.75.75 0 0 1 .75.75m-4 4a.75.75 0 0 1-.75.75H3a.75.75 0 0 1 0-1.5h6a.75.75 0 0 1 .75.75m-1 4a.75.75 0 0 1-.75.75H3a.75.75 0 0 1 0-1.5h5a.75.75 0 0 1 .75.75" clip-rule="evenodd" opacity=".5"/><path fill="currentColor" d="M17 7.25a.75.75 0 0 1 .75.75A3.25 3.25 0 0 0 21 11.25a.75.75 0 0 1 0 1.5c-1.257 0-2.4-.488-3.25-1.286V16.5a3.25 3.25 0 1 1-1.5-2.74V8a.75.75 0 0 1 .75-.75"/></svg>