<svg viewBox="0 0 24 24"><path fill="currentColor" fill-rule="evenodd" d="M2.25 6A.75.75 0 0 1 3 5.25h18a.75.75 0 0 1 0 1.5H3A.75.75 0 0 1 2.25 6m0 4A.75.75 0 0 1 3 9.25h18a.75.75 0 0 1 0 1.5H3a.75.75 0 0 1-.75-.75m16.955 3.443l.09.052c.789.455 1.442.833 1.909 1.186c.475.36.901.8 1.012 1.428c.045.259.045.523 0 .782c-.111.628-.537 1.068-1.012 1.428c-.467.353-1.12.73-1.91 1.186l-.089.052c-.788.455-1.442.833-1.981 1.06c-.55.232-1.144.38-1.744.162a2.3 2.3 0 0 1-.676-.39c-.49-.41-.657-1-.731-1.591C14 18.218 14 17.463 14 16.552v-.104c0-.91 0-1.665.073-2.246c.074-.591.242-1.18.73-1.59q.305-.256.677-.391c.6-.219 1.194-.07 1.744.162c.539.227 1.192.605 1.981 1.06m-2.564.322c-.442-.186-.59-.156-.647-.135a.8.8 0 0 0-.226.13c-.047.04-.147.153-.207.629S15.5 15.524 15.5 16.5s.001 1.635.061 2.111s.16.59.207.629a.8.8 0 0 0 .225.13c.058.02.206.05.648-.135c.442-.186 1.014-.515 1.859-1.003s1.416-.819 1.798-1.108s.43-.433.44-.494a.8.8 0 0 0 0-.26c-.01-.06-.058-.204-.44-.494s-.953-.62-1.798-1.108s-1.417-.817-1.859-1.003M2.25 14a.75.75 0 0 1 .75-.75h8a.75.75 0 0 1 0 1.5H3a.75.75 0 0 1-.75-.75m0 4a.75.75 0 0 1 .75-.75h8a.75.75 0 0 1 0 1.5H3a.75.75 0 0 1-.75-.75" clip-rule="evenodd"/></svg>