<svg viewBox="0 0 24 24"><path fill="currentColor" fill-rule="evenodd" d="M2.25 4A.75.75 0 0 1 3 3.25h17a.75.75 0 0 1 0 1.5H3A.75.75 0 0 1 2.25 4m17.613 4.4c-.196.073-.455.196-.863.392l-1.755.842c-.18.086-.282.136-.356.178l-.068.043a.3.3 0 0 0-.056.088l-.009.08a7 7 0 0 0-.006.398c0 .454 0 .74.02.948a1 1 0 0 0 .034.197a.25.25 0 0 0 .14.088a1 1 0 0 0 .193-.054c.196-.073.455-.196.863-.392l1.755-.842c.18-.086.282-.136.356-.178l.068-.043a.3.3 0 0 0 .056-.088l.009-.08c.006-.085.006-.199.006-.398c0-.453 0-.74-.02-.948a1 1 0 0 0-.034-.197a.25.25 0 0 0-.14-.088a1 1 0 0 0-.193.054m.318 1.744l-.002.001zm-3.415-.203v.002zm.053-.085l.002-.001zm2.526-2.863c.278-.103.61-.19.97-.125c.442.08.836.329 1.1.692c.215.296.28.634.308.93c.027.287.027.646.027 1.055v.11c0 .3.002.62-.106.915a1.75 1.75 0 0 1-.392.623c-.22.225-.509.363-.78.492l-.068.033l-1.785.857c-.369.177-.692.332-.964.432c-.261.097-.57.18-.905.136v4.286c0 1.814-1.435 3.321-3.25 3.321s-3.25-1.507-3.25-3.321s1.435-3.322 3.25-3.322a3.2 3.2 0 0 1 1.75.522V11h.003q-.004-.254-.003-.545v-.109c0-.3-.002-.621.106-.916c.085-.234.219-.446.392-.623c.22-.225.509-.363.78-.492l.068-.033l1.785-.857c.369-.177.692-.332.964-.432M15.25 17.429c0-1.026-.803-1.822-1.75-1.822s-1.75.796-1.75 1.822s.803 1.821 1.75 1.821s1.75-.795 1.75-1.821M2.25 9A.75.75 0 0 1 3 8.25h9a.75.75 0 0 1 0 1.5H3A.75.75 0 0 1 2.25 9m0 5a.75.75 0 0 1 .75-.75h5a.75.75 0 0 1 0 1.5H3a.75.75 0 0 1-.75-.75" clip-rule="evenodd"/></svg>