<svg viewBox="0 0 24 24"><path fill="currentColor" d="M2 12c0-4.714 0-7.071 1.464-8.536C4.93 2 7.286 2 12 2s7.071 0 8.535 1.464C22 4.93 22 7.286 22 12s0 7.071-1.465 8.535C19.072 22 16.714 22 12 22s-7.071 0-8.536-1.465C2 19.072 2 16.714 2 12" opacity=".5"/><path fill="currentColor" d="M15.1 12.094c-.185-.302-.366-.597-.542-.807c-.187-.224-.515-.532-1.017-.512s-.804.353-.973.591c-.159.225-.315.532-.475.848l-1.988 3.92q-.11.22-.193.377l-.238-.351l-.176-.266a11 11 0 0 0-.557-.788a2.2 2.2 0 0 0-.682-.59a2.2 2.2 0 0 0-.87-.24a11 11 0 0 0-.964-.026H5a.75.75 0 1 0 0 1.5h1.394c.407 0 .661 0 .856.019c.18.017.254.044.301.07c.047.025.111.07.225.211c.123.152.265.363.49.702l.187.279c.188.283.373.56.553.759c.192.213.522.497 1.01.468c.486-.029.78-.35.947-.584c.154-.219.305-.517.459-.82l1.987-3.918q.117-.23.203-.395q.1.158.233.377l.654 1.068c.2.327.378.616.55.844c.186.247.399.469.692.633s.593.23.901.26c.284.027.623.027 1.006.027H19a.75.75 0 0 0 0-1.5h-1.32c-.424 0-.69 0-.894-.02c-.188-.019-.264-.049-.312-.076c-.049-.027-.114-.076-.227-.227a11 11 0 0 1-.485-.752z"/></svg>