<svg viewBox="0 0 24 24"><g fill="none"><path stroke="currentColor" stroke-linecap="round" stroke-width="1.5" d="M2 16.9c0-1.31 0-1.964.295-2.445a2 2 0 0 1 .66-.66c.48-.295 1.136-.295 2.445-.295h1.1c1.886 0 2.828 0 3.414.586s.586 1.528.586 3.414v1.1c0 1.31 0 1.964-.295 2.445a2 2 0 0 1-.66.66C9.065 22 8.409 22 7.1 22c-1.964 0-2.946 0-3.667-.442a3 3 0 0 1-.99-.99M22 7.1c0 1.31 0 1.964-.295 2.445a2 2 0 0 1-.66.66c-.48.295-1.136.295-2.445.295h-1.1c-1.886 0-2.828 0-3.414-.586S13.5 8.386 13.5 6.5V5.4c0-1.31 0-1.964.295-2.445a2 2 0 0 1 .66-.66C14.935 2 15.591 2 16.9 2c1.964 0 2.946 0 3.668.442a3 3 0 0 1 .99.99"/><path fill="currentColor" d="M16.5 6.25c0-.515 0-.773.13-.955a.7.7 0 0 1 .165-.166C16.977 5 17.235 5 17.75 5s.773 0 .955.13a.7.7 0 0 1 .166.165c.129.182.129.44.129.955s0 .773-.13.955a.7.7 0 0 1-.165.166c-.182.129-.44.129-.955.129s-.773 0-.955-.13a.7.7 0 0 1-.166-.165c-.129-.182-.129-.44-.129-.955M12.75 22a.75.75 0 0 0 1.5 0zm1.639-8.163l.417.624zm-.552.552l-.623-.417zM19 12.75h-2v1.5h2zM12.75 19v3h1.5v-3zM17 12.75c-.687 0-1.258 0-1.719.046c-.474.048-.913.153-1.309.418l.834 1.247c.108-.073.272-.137.627-.173c.367-.037.85-.038 1.567-.038zM14.25 17c0-.718 0-1.2.038-1.567c.036-.355.1-.519.173-.627l-1.248-.834c-.264.396-.369.835-.417 1.309c-.047.461-.046 1.032-.046 1.719zm-.278-3.786c-.3.2-.558.458-.758.758l1.247.834a1.3 1.3 0 0 1 .345-.345zm8.778.286a.75.75 0 0 0-1.5 0zm-1.985 8.348l.287.693zm1.083-1.083l-.693-.287zM17 22.75h2v-1.5h-2zM22.75 17v-3.5h-1.5V17zM19 22.75c.456 0 .835 0 1.145-.02c.317-.022.617-.069.907-.19l-.574-1.385c-.077.032-.194.061-.435.078c-.247.017-.567.017-1.043.017zM21.25 19c0 .476 0 .796-.017 1.043c-.017.241-.046.358-.078.435l1.386.574c.12-.29.167-.59.188-.907c.021-.31.021-.69.021-1.145zm-.198 3.54a2.75 2.75 0 0 0 1.489-1.488l-1.386-.574a1.25 1.25 0 0 1-.677.677z"/><path stroke="currentColor" stroke-width="1.5" d="M2 7.1c0-1.964 0-2.946.442-3.667a3 3 0 0 1 .99-.99C4.155 2 5.137 2 7.1 2c1.31 0 1.964 0 2.445.295a2 2 0 0 1 .66.66c.295.48.295 1.136.295 2.445v1.1c0 1.886 0 2.828-.586 3.414S8.386 10.5 6.5 10.5H5.4c-1.31 0-1.964 0-2.445-.295a2 2 0 0 1-.66-.66C2 9.065 2 8.409 2 7.1Z"/><path fill="currentColor" d="M5 6.25c0-.515 0-.773.13-.955a.7.7 0 0 1 .165-.166C5.477 5 5.735 5 6.25 5s.773 0 .955.13a.7.7 0 0 1 .166.165c.129.182.129.44.129.955s0 .773-.13.955a.7.7 0 0 1-.165.166c-.182.129-.44.129-.955.129s-.773 0-.955-.13a.7.7 0 0 1-.166-.165C5 7.023 5 6.765 5 6.25m0 11.5c0-.515 0-.773.13-.955a.7.7 0 0 1 .165-.166c.182-.129.44-.129.955-.129s.773 0 .955.13a.7.7 0 0 1 .166.165c.129.182.129.44.129.955s0 .773-.13.955a.7.7 0 0 1-.165.166C7.023 19 6.765 19 6.25 19s-.773 0-.955-.13a.7.7 0 0 1-.166-.165C5 18.523 5 18.265 5 17.75m11 0c0-.702 0-1.053.169-1.306a1 1 0 0 1 .275-.275C16.697 16 17.048 16 17.75 16s1.053 0 1.306.169a1 1 0 0 1 .275.275c.169.253.169.604.169 1.306s0 1.053-.169 1.306a1 1 0 0 1-.275.275c-.253.169-.604.169-1.306.169s-1.053 0-1.306-.169a1 1 0 0 1-.275-.275C16 18.803 16 18.452 16 17.75"/></g></svg>