<svg viewBox="0 0 24 24"><path fill="currentColor" fill-rule="evenodd" d="M14.394 3.065a9.22 9.22 0 0 0-6.938.878a.75.75 0 1 1-.737-1.306a10.72 10.72 0 0 1 8.064-1.021c5.734 1.537 9.138 7.431 7.6 13.166c-1.536 5.735-7.43 9.138-13.165 7.601S.08 14.952 1.617 9.217a10.7 10.7 0 0 1 1.392-3.115c.574-.875 1.732-.943 2.465-.35l6.998 5.665a.75.75 0 0 1-.944 1.166l-4.04-3.27a5.25 5.25 0 1 0 2.851-2.296a.75.75 0 1 1-.473-1.423a6.75 6.75 0 1 1-3.553 2.768L4.53 6.918a.23.23 0 0 0-.168-.052a.13.13 0 0 0-.099.059a9.2 9.2 0 0 0-1.198 2.68a9.25 9.25 0 1 0 11.33-6.54" clip-rule="evenodd"/></svg>