<svg viewBox="0 0 24 24"><path fill="currentColor" d="m21.66 14.588l-.725-.194zm-12.248 7.07l-.194.725zM2.34 9.412l-.725-.194zm12.247-7.07l-.194.724zm-3.06 10.241a.75.75 0 1 0 .944-1.165zM5.002 6.336l.472-.583zm-1.366.178l-.627-.41zm3.082-3.876a.75.75 0 1 0 .737 1.306zm3.148 2.957a.75.75 0 0 0 .474 1.423zm11.069 8.8a9.25 9.25 0 0 1-11.329 6.54l-.388 1.45c5.735 1.536 11.63-1.867 13.166-7.602zm-11.329 6.54a9.25 9.25 0 0 1-6.54-11.329l-1.45-.388C.08 14.952 3.483 20.847 9.218 22.383zm4.788-17.87a9.25 9.25 0 0 1 6.54 11.33l1.45.388c1.536-5.735-1.867-11.63-7.602-13.166zm-1.922 8.353L5.474 5.752L4.53 6.918l6.998 5.664zM3.065 9.605a9.2 9.2 0 0 1 1.198-2.68L3.01 6.102a10.7 10.7 0 0 0-1.393 3.115zm4.39-5.662a9.22 9.22 0 0 1 6.94-.878l.387-1.45c-2.83-.757-5.7-.312-8.064 1.022zm-1.981 1.81c-.733-.594-1.891-.526-2.465.35l1.254.822a.13.13 0 0 1 .099-.06a.23.23 0 0 1 .168.053zM17.25 12A5.25 5.25 0 0 1 12 17.25v1.5A6.75 6.75 0 0 0 18.75 12zM12 17.25A5.25 5.25 0 0 1 6.75 12h-1.5A6.75 6.75 0 0 0 12 18.75zm0-10.5c2.9 0 5.25 2.35 5.25 5.25h1.5A6.75 6.75 0 0 0 12 5.25zM6.75 12c0-1.27.45-2.431 1.198-3.339L6.79 7.707A6.73 6.73 0 0 0 5.25 12zm3.59-4.983A5.2 5.2 0 0 1 12 6.75v-1.5c-.745 0-1.462.12-2.134.344z"/></svg>