<svg viewBox="0 0 24 24"><path fill="currentColor" d="M2 14c0-3.771 0-5.657 1.172-6.828S6.229 6 10 6h4c3.771 0 5.657 0 6.828 1.172S22 10.229 22 14s0 5.657-1.172 6.828S17.771 22 14 22h-4c-3.771 0-5.657 0-6.828-1.172S2 17.771 2 14" opacity=".5"/><path fill="currentColor" fill-rule="evenodd" d="M5.25 17a2.25 2.25 0 1 1 4.5 0a2.25 2.25 0 0 1-4.5 0" clip-rule="evenodd"/><path fill="currentColor" d="M7 9a2 2 0 1 0 0 4h7.25v-1.5a.75.75 0 0 1 1.5 0V13H17a2 2 0 1 0 0-4z"/><path fill="currentColor" fill-rule="evenodd" d="M12.25 17a.75.75 0 0 1 .75-.75h5a.75.75 0 0 1 0 1.5h-5a.75.75 0 0 1-.75-.75" clip-rule="evenodd"/><path fill="currentColor" d="M15.364 2.656a.75.75 0 1 0-.728-1.311L6.088 6.093c.876-.08 1.941-.091 3.256-.093z"/></svg>