<svg viewBox="0 0 24 24"><path fill="currentColor" d="M2 12c0-4.714 0-7.071 1.464-8.536C4.93 2 7.286 2 12 2s7.071 0 8.535 1.464C22 4.93 22 7.286 22 12s0 7.071-1.465 8.535C19.072 22 16.714 22 12 22s-7.071 0-8.536-1.465C2 19.072 2 16.714 2 12" opacity=".5"/><path fill="currentColor" d="M6.25 8.5A.75.75 0 0 1 7 7.75h4.929l-1.41-1.174a.75.75 0 0 1 .961-1.152l3 2.5a.75.75 0 0 1 0 1.152l-3 2.5a.75.75 0 1 1-.96-1.152l1.409-1.174H7a.75.75 0 0 1-.75-.75m0 7a.75.75 0 0 1 .75-.75h4.929l-1.41-1.174a.75.75 0 0 1 .961-1.152l3 2.5a.75.75 0 0 1 0 1.152l-3 2.5a.75.75 0 1 1-.96-1.152l1.409-1.174H7a.75.75 0 0 1-.75-.75m10 2.5a.75.75 0 0 0 1.5 0V6a.75.75 0 0 0-1.5 0z"/></svg>