<svg viewBox="0 0 24 24"><g fill="none"><path fill="currentColor" d="M7.378 11.63h-.75zm0 .926l-.562.497a.75.75 0 0 0 1.08.044zm2.141-1.015a.75.75 0 0 0-1.038-1.082zm-2.958-1.038a.75.75 0 1 0-1.122.994zm8.37-1.494a.75.75 0 1 0 1.102-1.018zM12.045 6.25c-2.986 0-5.416 2.403-5.416 5.38h1.5c0-2.137 1.747-3.88 3.916-3.88zm-5.416 5.38v.926h1.5v-.926zm1.269 1.467l1.622-1.556l-1.038-1.082l-1.622 1.555zm.042-1.039l-1.378-1.555l-1.122.994l1.377 1.556zm8.094-4.067a5.42 5.42 0 0 0-3.99-1.741v1.5a3.92 3.92 0 0 1 2.889 1.26zm.585 3.453l.56-.498a.75.75 0 0 0-1.08-.043zm-2.139 1.014a.75.75 0 1 0 1.04 1.082zm2.96 1.04a.75.75 0 0 0 1.12-.997zm-8.393 1.507a.75.75 0 0 0-1.094 1.026zm2.888 2.745c2.993 0 5.434-2.4 5.434-5.38h-1.5c0 2.135-1.753 3.88-3.934 3.88zm5.434-5.38v-.926h-1.5v.926zm-1.27-1.467l-1.619 1.555l1.04 1.082l1.618-1.555zm-.04 1.04l1.38 1.554l1.122-.996l-1.381-1.555zM7.952 16.03a5.45 5.45 0 0 0 3.982 1.719v-1.5c-1.143 0-2.17-.48-2.888-1.245z"/><path stroke="currentColor" stroke-linecap="round" stroke-width="1.5" d="M7 3.338A9.95 9.95 0 0 1 12 2c5.523 0 10 4.477 10 10s-4.477 10-10 10S2 17.523 2 12c0-1.821.487-3.53 1.338-5"/></g></svg>