<svg viewBox="0 0 24 24"><path fill="currentColor" fill-rule="evenodd" d="M22 12c0 5.523-4.477 10-10 10S2 17.523 2 12S6.477 2 12 2s10 4.477 10 10m-16.54-.917a6.59 6.59 0 0 1 6.55-5.833a6.59 6.59 0 0 1 5.242 2.592a.75.75 0 0 1-1.192.911a5.09 5.09 0 0 0-4.05-2.003a5.09 5.09 0 0 0-5.037 4.333h.364a.75.75 0 0 1 .53 1.281l-1.169 1.167a.75.75 0 0 1-1.06 0L4.47 12.364a.75.75 0 0 1 .53-1.28zm12.902-.614a.75.75 0 0 0-1.06 0l-1.168 1.167a.75.75 0 0 0 .53 1.28h.363a5.09 5.09 0 0 1-5.036 4.334a5.08 5.08 0 0 1-4.038-1.986a.75.75 0 0 0-1.188.916a6.58 6.58 0 0 0 5.226 2.57a6.59 6.59 0 0 0 6.549-5.833H19a.75.75 0 0 0 .53-1.281z" clip-rule="evenodd"/></svg>