<svg viewBox="0 0 24 24"><g fill="none"><path stroke="currentColor" stroke-linecap="round" stroke-linejoin="round" stroke-width="1.5" d="M10.5 11.5L12 10v4"/><path fill="currentColor" d="M9.5 19.75a.75.75 0 0 0 0-1.5zM11 5v.75a.75.75 0 0 0 .53-1.28zM9.53 2.47a.75.75 0 0 0-1.06 1.06zM1.25 12a.75.75 0 0 0 1.5 0zm2.62 3.57a.75.75 0 0 0-1.23.86zm5.63 2.68H9v1.5h.5zM9 5.75h2v-1.5H9zm2.53-1.28l-2-2l-1.06 1.06l2 2zM2.75 12A6.25 6.25 0 0 1 9 5.75v-1.5A7.75 7.75 0 0 0 1.25 12zm-.11 4.43A7.74 7.74 0 0 0 9 19.75v-1.5a6.24 6.24 0 0 1-5.13-2.68zM13 19v-.75a.75.75 0 0 0-.53 1.28zm1.47 2.53a.75.75 0 1 0 1.06-1.06zm.03-17.28a.75.75 0 0 0 0 1.5zM22.75 12a.75.75 0 0 0-1.5 0zm-2.62-3.57a.75.75 0 1 0 1.23-.86zM15 18.25h-2v1.5h2zm-2.53 1.28l2 2l1.06-1.06l-2-2zM14.5 5.75h.5v-1.5h-.5zM21.25 12A6.25 6.25 0 0 1 15 18.25v1.5A7.75 7.75 0 0 0 22.75 12zm.11-4.43A7.74 7.74 0 0 0 15 4.25v1.5c2.123 0 4 1.058 5.13 2.68z"/></g></svg>