<svg viewBox="0 0 24 24"><path fill="currentColor" d="M2 12c0-4.714 0-7.071 1.464-8.536C4.93 2 7.286 2 12 2s7.071 0 8.535 1.464C22 4.93 22 7.286 22 12s0 7.071-1.465 8.535C19.072 22 16.714 22 12 22s-7.071 0-8.536-1.465C2 19.072 2 16.714 2 12" opacity=".5"/><path fill="currentColor" d="M16.402 6.286a.75.75 0 0 0-1.287-.524l-.75.768a5.67 5.67 0 0 0-6.437 1.208c-2.237 2.29-2.237 5.996 0 8.287a5.67 5.67 0 0 0 8.144 0a5.93 5.93 0 0 0 1.634-4.874a.75.75 0 0 0-1.49.182c.16 1.3-.25 2.653-1.217 3.643a4.17 4.17 0 0 1-5.998 0c-1.668-1.707-1.668-4.483 0-6.19a4.17 4.17 0 0 1 4.224-1.089l-.761.78A.75.75 0 0 0 13 9.75h2.652a.75.75 0 0 0 .75-.75z"/></svg>