<svg viewBox="0 0 24 24"><g fill="none"><path fill="currentColor" d="M4.852 4.591A.75.75 0 0 0 3.784 3.54zM8.4 2.777l-.534-.526a.75.75 0 0 0 0 1.053zm1.216 2.304a.75.75 0 1 0 1.069-1.053zm1.069-3.555A.75.75 0 1 0 9.616.474zM12 20.25c-2.143 0-3.673-.002-4.836-.16c-1.14-.156-1.815-.45-2.312-.954l-1.068 1.052c.82.834 1.866 1.209 3.177 1.388c1.288.176 2.94.174 5.039.174zm-9.75-8.386c0 2.132-.002 3.806.171 5.11c.176 1.326.543 2.382 1.363 3.214l1.068-1.052c-.498-.506-.79-1.195-.944-2.358c-.156-1.184-.158-2.74-.158-4.914zm18 0c0 2.174-.002 3.73-.158 4.914c-.154 1.163-.446 1.852-.944 2.358l1.068 1.052c.82-.832 1.187-1.888 1.363-3.213c.172-1.305.171-2.979.171-5.112zM12 21.75c2.1 0 3.751.002 5.04-.174c1.31-.179 2.355-.554 3.176-1.388l-1.068-1.052c-.497.504-1.171.798-2.312.954c-1.163.158-2.693.16-4.836.16zm0-18.273c2.143 0 3.673.002 4.836.16c1.14.156 1.815.45 2.312.954l1.068-1.052c-.82-.834-1.866-1.21-3.177-1.388c-1.288-.176-2.94-.174-5.039-.174zm9.75 8.387c0-2.133.002-3.807-.171-5.112c-.176-1.325-.543-2.381-1.363-3.213L19.148 4.59c.498.506.79 1.195.944 2.358c.157 1.184.158 2.74.158 4.915zm-18 0c0-2.175.002-3.731.158-4.915c.154-1.163.446-1.852.944-2.358L3.784 3.54c-.82.832-1.187 1.888-1.363 3.213c-.173 1.305-.171 2.979-.171 5.112zM12 1.976c-1.415 0-2.62 0-3.638.051l.076 1.498c.972-.049 2.134-.05 3.562-.05zM7.866 3.304l1.75 1.777l1.069-1.053l-1.75-1.777zm1.068 0l1.75-1.778L9.617.474L7.866 2.25z"/><path stroke="currentColor" stroke-linecap="round" stroke-linejoin="round" stroke-width="1.5" d="m8.5 12.5l2 2l5-5"/></g></svg>