<svg viewBox="0 0 24 24"><path fill="currentColor" fill-rule="evenodd" d="M1.25 12C1.25 6.063 6.063 1.25 12 1.25S22.75 6.063 22.75 12S17.937 22.75 12 22.75S1.25 17.937 1.25 12M12 2.75a9.25 9.25 0 1 0 0 18.5a9.25 9.25 0 0 0 0-18.5m2.483 4.77c1.158-.828 2.767 0 2.767 1.423v6.114c0 1.423-1.609 2.251-2.767 1.424l-4.28-3.057a1.75 1.75 0 0 1 0-2.848zm1.267 1.423a.25.25 0 0 0-.395-.203l-4.28 3.057a.25.25 0 0 0 0 .406l4.28 3.057a.25.25 0 0 0 .395-.203zm-4.14-1.307a.75.75 0 0 1-.174 1.046l-3.222 2.3a1.25 1.25 0 0 0 0 2.035l3.222 2.301a.75.75 0 1 1-.872 1.22l-3.221-2.3a2.75 2.75 0 0 1 0-4.476l3.221-2.3a.75.75 0 0 1 1.046.174" clip-rule="evenodd"/></svg>