<svg viewBox="0 0 24 24"><g fill="currentColor" fill-rule="evenodd" clip-rule="evenodd"><path d="M10.175 8.605a1.25 1.25 0 0 1 1.185-.855H14a.75.75 0 0 1 0 1.5h-2.46l-.5 1.5H12a2.75 2.75 0 1 1 0 5.5h-2a.75.75 0 0 1 0-1.5h2a1.25 1.25 0 1 0 0-2.5h-1.306a1.25 1.25 0 0 1-1.186-1.645z"/><path d="M12.676 1.675A.75.75 0 0 0 12 1.25q-1.104.002-2.15.215C4.945 2.461 1.25 6.798 1.25 12c0 5.937 4.813 10.75 10.75 10.75S22.75 17.937 22.75 12c0-4.41-2.655-8.197-6.45-9.855a.75.75 0 0 0-.6 1.374A9.25 9.25 0 1 1 2.75 12a9.255 9.255 0 0 1 6.5-8.834V4.5a.75.75 0 0 0 1.336.469l2-2.5a.75.75 0 0 0 .09-.794"/></g></svg>