<svg viewBox="0 0 24 24"><path fill="currentColor" fill-rule="evenodd" d="M1.25 12C1.25 6.063 6.063 1.25 12 1.25a.75.75 0 0 1 .586 1.219l-2 2.5a.75.75 0 0 1-1.172-.938l.903-1.128A9.25 9.25 0 0 0 2.75 12A9.25 9.25 0 1 0 15.7 3.52a.75.75 0 0 1 .6-1.375A10.75 10.75 0 0 1 22.75 12c0 5.937-4.813 10.75-10.75 10.75S1.25 17.937 1.25 12m9.075-4.176a.75.75 0 0 1 .425.676v7a.75.75 0 0 1-1.5 0v-5.44l-1.281 1.026a.75.75 0 0 1-.938-1.172l2.5-2a.75.75 0 0 1 .794-.09m2.35.78a1.25 1.25 0 0 1 1.185-.854h2.64a.75.75 0 0 1 0 1.5h-2.46l-.5 1.5h.96a2.75 2.75 0 1 1 0 5.5h-2a.75.75 0 0 1 0-1.5h2a1.25 1.25 0 1 0 0-2.5h-1.306a1.25 1.25 0 0 1-1.186-1.645zm.756 2.475" clip-rule="evenodd"/></svg>