<svg viewBox="0 0 24 24"><path fill="currentColor" d="M6.078 13.417a.75.75 0 0 0-1.06-1.06zm-2.222 1.16l-.53-.531zM2.32 13.04l-.53-.53zm.683.377a.75.75 0 0 0-1.06-1.06zm8.604 5.57a.75.75 0 1 0-1.06-1.061zm-2.222 1.159l.53.53zm1.538 1.536l.53.53zm.684.377a.75.75 0 1 0-1.06-1.061zm-.973-4.873a.75.75 0 0 0-1.06-1.06zM7.47 18.228a.75.75 0 0 0 1.06 1.06zm.387-3.814a.75.75 0 1 0-1.06-1.061zM4.68 15.47a.75.75 0 1 0 1.061 1.06zm2.781 2.112a.75.75 0 0 0-1.048-1.073zm-2.758.6a.75.75 0 1 0 1.049 1.072zm.316-5.826l-1.692 1.69l1.06 1.061l1.692-1.69zm-2.17 1.215l.154-.154l-1.06-1.06l-.153.153zm0 .475a.335.335 0 0 1 0-.475l-1.06-1.061a1.835 1.835 0 0 0 0 2.597zm.478 0a.34.34 0 0 1-.477 0l-1.06 1.061c.717.717 1.88.717 2.597 0zm7.22 3.88l-1.692 1.69l1.06 1.06l1.692-1.689zm.906 4.287l.154-.154l-1.06-1.061l-.154.153zm-2.598 0a1.84 1.84 0 0 0 2.598 0l-1.06-1.062a.34.34 0 0 1-.478 0zm0-2.598a1.835 1.835 0 0 0 0 2.598l1.06-1.062a.335.335 0 0 1 0-.474zm.718-3.49L7.47 18.228l1.06 1.06l2.103-2.102zm-2.776-2.772L4.68 15.47l1.061 1.06l2.117-2.116zm-.384 3.156l-1.71 1.672l1.049 1.073l1.71-1.672zm3.33-3.452l.53-.532zm0-4.656l-.53-.531zm5.837 5.82l.53.53zm-4.67 0l-.53.53zm9.64-4.956l-.53-.53zm-4.595-7.77a.75.75 0 0 0 .573 1.386zM9.797 13.107a.75.75 0 0 0 1.06 1.063zm2.81-.683a.75.75 0 1 0-1.059-1.062zm1.08 3.362l.258.704zm-5.5-5.535l-.696-.28zm6.268-5.488a.75.75 0 1 0-1.06-1.063zm5.565 3.971l-4.97 4.955l1.06 1.063l4.969-4.955zm-8.58 4.955l-1.167-1.164l-1.06 1.063l1.168 1.164zM18.215 2.75h.483v-1.5h-.483zm3.035 2.542v.482h1.5v-.482zM18.698 2.75c.8 0 1.324.002 1.712.054c.367.049.498.13.577.21l1.06-1.063c-.405-.403-.905-.563-1.438-.634c-.51-.069-1.154-.067-1.91-.067zm4.052 2.542c0-.755.002-1.396-.067-1.906c-.072-.532-.232-1.032-.637-1.435l-1.059 1.062c.079.079.16.208.21.573c.052.387.053.909.053 1.706zm-12.477 7.233c-.566-.563-.935-.934-1.173-1.244c-.224-.293-.258-.442-.258-.552h-1.5c0 .571.241 1.038.567 1.464c.313.409.77.861 1.304 1.395zm.108 2.226c.535.534.989.989 1.399 1.3c.427.326.894.565 1.465.565v-1.5c-.113 0-.263-.035-.557-.258c-.311-.237-.683-.605-1.248-1.169zm10.698-4.954c.672-.67 1.166-1.144 1.425-1.768l-1.385-.575c-.118.283-.34.523-1.099 1.28zm.171-4.023c0 1.07-.013 1.396-.131 1.68l1.385.575c.26-.624.246-1.307.246-2.255zM18.215 1.25c-.951 0-1.635-.013-2.26.245l.573 1.386c.285-.118.614-.131 1.687-.131zm-7.359 12.92l1.751-1.746l-1.059-1.062l-1.75 1.745zm4.194-.48c-.436.434-.76.756-1.037.995c-.278.24-.456.35-.586.397l.518 1.408c.383-.141.723-.388 1.049-.67c.327-.282.694-.648 1.115-1.069zm-1.623 1.392a.5.5 0 0 1-.182.034v1.5q.365-.001.7-.126zM9.213 7.87c-.411.41-.77.768-1.05 1.087c-.279.318-.524.648-.672 1.015l1.392.56c.053-.133.168-.312.408-.586s.557-.59.982-1.014zM7.491 9.972c-.096.24-.149.49-.149.757h1.5a.5.5 0 0 1 .041-.198zm2.782-1.04l4.182-4.17l-1.06-1.062l-4.182 4.17z"/><path fill="currentColor" d="m8.037 10.102l.53-.53V9.57zm3.634-3.398a.75.75 0 1 0 .812-1.262zm-.13-.975l.407-.631zM9.359 4.608l.11-.742zM5.19 7.12l.53.531zm2.65-2.318l.287.693zm-2.105 3.51l-.277.698zm-.181.736a.75.75 0 1 0 .571-1.387zm-.141-.863l.276-.697zm2.245 2.597a.75.75 0 0 0 1.06-1.06zm.502-1.618a.75.75 0 0 0-1.06 1.062zm4.324-3.722l-.535-.344l-.812 1.261l.535.345zm-.535-.344c-.527-.34-.958-.617-1.33-.817c-.38-.205-.745-.355-1.15-.415l-.22 1.484c.169.025.36.09.66.251c.308.167.682.407 1.228.758zM5.72 7.651c.479-.477.99-.987 1.45-1.406c.229-.21.436-.388.613-.524c.188-.145.299-.208.342-.226L7.55 4.109a3.2 3.2 0 0 0-.683.424c-.223.172-.464.38-.708.604c-.489.445-1.025.98-1.498 1.452zm3.746-3.785a3.6 3.6 0 0 0-1.916.243l.575 1.386c.365-.152.753-.2 1.122-.145zm-4.33 5.016l.321.128l.553-1.395l-.322-.127zm.321.128l.096.038l.571-1.387l-.114-.046zm-.795-2.421a1.4 1.4 0 0 0 .474 2.293l.552-1.394a.1.1 0 0 1 .033.163zm2.845 4.043l.15.15l1.06-1.06l-.15-.15zm-.408-.406l.409.407L8.567 9.57l-.408-.407zm6.826 5.799l-.53.53l.035.034zm4.62-4.54a.75.75 0 0 0-1.26.816zm-.285.942l-.63.407zm1.124 2.177l.742-.11zm-2.52 4.154l-.53-.53zm2.325-2.639l-.692-.289zm-2.656 2.242a.75.75 0 1 0-1.393.555zm-2.658-1.382a.75.75 0 1 0 .989-1.128zm2.918 1.85l.53.531zm-2.577-3.573a.75.75 0 0 0-1.06 1.06zm3.07-2.955l.344.533l1.26-.815l-.346-.533zm-.951 5.926l-.072.071l1.06 1.063l.071-.072zm1.295-5.393c.353.545.594.918.76 1.225c.162.298.227.489.252.656l1.484-.22c-.06-.407-.21-.77-.417-1.15c-.2-.371-.48-.8-.82-1.326zm-.236 6.455a48 48 0 0 0 1.456-1.493c.224-.244.434-.484.606-.706c.163-.21.328-.45.425-.682l-1.384-.578a2 2 0 0 1-.227.34a10 10 0 0 1-.525.612c-.42.457-.931.968-1.41 1.445zm1.248-4.574c.055.366.007.752-.145 1.115l1.384.578c.254-.608.34-1.27.245-1.914zm-3.778 1.136l-.445-.39l-.989 1.128l.445.39zm1.4 2.447a.16.16 0 0 1 .144-.045a.18.18 0 0 1 .125.108l-1.393.555c.356.895 1.515 1.11 2.183.444zm-1.81-2.803l-.238-.24l-1.06 1.061l.238.24zm.596-6.081a.75.75 0 0 0 1.059-1.062zm2.335-1.062a.75.75 0 0 0 1.059 1.062zm1.059-2.328a2.404 2.404 0 0 0-3.394 0l1.059 1.062a.904.904 0 0 1 1.276 0zm-3.394 0a2.393 2.393 0 0 0 0 3.39l1.059-1.062a.893.893 0 0 1 0-1.266zm3.394 3.39a2.39 2.39 0 0 0 0-3.39l-1.06 1.062a.893.893 0 0 1 0 1.266z"/></svg>