<svg viewBox="0 0 24 24"><g fill="none"><path fill="currentColor" d="M22 5.365h.75zM9.455 13.303l.529-.532zm0-4.76l.529.532zm5.974 5.95l-.53-.532zm-4.78 0l-.529.531zm9.866-5.066l.53.532zM22 5.858h-.75zm-7.459-2.38l-.529-.531zm-1.05 12.615l-.26-.704zm-5.629-5.658l.696.28zm12.124-1.54L14.9 13.962l1.059 1.063l5.087-5.065zm-8.807 5.066l-1.195-1.19l-1.059 1.063l1.195 1.19zM9.984 9.075L15.07 4.01l-1.058-1.063l-5.087 5.065zm8.142-6.325h.495v-1.5h-.495zm3.124 2.615v.493h1.5v-.493zM18.62 2.75c.818 0 1.356.002 1.755.055c.378.05.516.135.601.22l1.058-1.064c-.41-.408-.917-.57-1.46-.643c-.521-.07-1.178-.068-1.953-.068zm4.13 2.615c0-.772.002-1.426-.069-1.946c-.073-.542-.236-1.049-.647-1.458l-1.058 1.063c.084.084.168.22.219.595c.053.397.055.932.055 1.746zM9.984 12.771c-.578-.575-.958-.955-1.201-1.273c-.231-.301-.268-.457-.268-.575h-1.5c0 .58.244 1.053.577 1.487c.32.417.785.878 1.333 1.424zm.136 2.253c.548.546 1.012 1.01 1.43 1.328c.436.331.91.573 1.489.573v-1.5c-.121 0-.279-.038-.581-.268c-.32-.242-.701-.62-1.28-1.196zM21.045 9.96c.689-.686 1.19-1.168 1.455-1.802l-1.385-.576c-.122.294-.353.542-1.129 1.315zm.205-4.101c0 1.093-.013 1.43-.135 1.723l1.385.576c.263-.634.25-1.329.25-2.299zM15.07 4.01c.776-.773 1.026-1.002 1.322-1.125L15.82 1.5c-.636.262-1.119.762-1.808 1.448zm3.056-2.76c-.975 0-1.67-.013-2.306.249l.572 1.386c.296-.122.637-.135 1.734-.135zm-3.227 12.711c-.445.444-.777.774-1.062 1.02s-.47.358-.605.408l.517 1.408c.389-.143.735-.394 1.068-.68c.334-.29.709-.663 1.14-1.093zm-1.667 1.428a.5.5 0 0 1-.193.036v1.5q.37-.001.71-.128zM8.925 8.012c-.421.42-.788.785-1.074 1.111c-.285.324-.534.66-.684 1.032l1.391.56c.056-.138.174-.322.42-.603c.245-.279.571-.604 1.006-1.037zm-1.758 2.143a2 2 0 0 0-.152.768h1.5c0-.065.011-.13.043-.208z"/><path fill="currentColor" d="m7.709 10.283l.53-.531V9.75zm3.729-3.488a.75.75 0 1 0 .81-1.262zm-.142-.983l-.406.63zM9.06 4.666l.11-.742zM4.796 7.234l.53.532zm2.71-2.37l.286.694zM5.35 8.455l.276-.698zm.107.042l-.285.694zm1.415.954l.53-.531zm-.082-.08l-.522.538zM5.02 8.324l-.275.697zm8.714 8.015l-.53.53l.036.034zm4.713-4.632a.75.75 0 0 0-1.258.816zm-.276.954l-.629.408zm1.151 2.226l.742-.11zm-2.579 4.246l.53.531zm2.38-2.698l.692.29zm-3.432 2.576l.696-.279zm-.413-.95l-.657.362zm-1.09-1.324l.53-.531l-.017-.017l-.018-.016zm.713.753l.59-.463zm1.769 1.716l-.53-.532zm-2.65-3.642a.75.75 0 1 0-1.06 1.061zm-6.689-4.597a.75.75 0 0 0 1.06-1.061zm4.917-5.433L11.7 5.18l-.81 1.262l.547.352zM11.7 5.18c-.539-.347-.979-.63-1.359-.835c-.389-.209-.76-.36-1.172-.422l-.22 1.484c.176.026.374.094.681.26c.317.17.7.416 1.26.775zM5.325 7.766c.49-.488 1.014-1.01 1.484-1.438c.235-.214.448-.397.63-.537c.192-.148.307-.214.353-.234l-.574-1.385a3.3 3.3 0 0 0-.695.43c-.227.176-.474.39-.724.617a49 49 0 0 0-1.532 1.484zM9.17 3.924a3.7 3.7 0 0 0-1.952.248l.574 1.386a2.2 2.2 0 0 1 1.159-.15zM4.746 9.02l.329.13l.552-1.394l-.33-.13zm1.598.962l.836.832L8.238 9.75l-.836-.832zM5.075 9.15l.098.039l.57-1.388l-.116-.046zm2.327-.232l-.089-.088l-1.044 1.077l.075.074zm-2.23.27c.409.169.781.412 1.097.719L7.313 8.83a5 5 0 0 0-1.57-1.029zm-.905-2.486a1.414 1.414 0 0 0 .479 2.317l.552-1.395a.086.086 0 0 1 .027.14zm12.923 5.82l.353.545l1.259-.816l-.354-.546zm-.975 6.078l-.073.072l1.058 1.063l.073-.073zm1.328-5.533c.36.556.608.938.779 1.253c.166.305.233.502.26.675l1.483-.22c-.062-.413-.215-.783-.425-1.17c-.205-.38-.49-.817-.838-1.354zm-.27 6.595a49 49 0 0 0 1.49-1.526c.23-.249.443-.494.62-.72c.166-.216.334-.458.433-.694l-1.384-.578c-.02.045-.085.16-.235.351c-.14.18-.323.393-.538.627a48 48 0 0 1-1.444 1.477zm1.308-4.667c.056.377.007.775-.15 1.149l1.385.578a3.66 3.66 0 0 0 .249-1.948zm-3.897 1.176l-.455-.398l-.988 1.128l.455.398zm1.704 2.56c-.186-.466-.3-.757-.452-1.032l-1.314.722c.097.176.174.367.373.866zm-2.727-1.464c.38.379.526.526.65.684l1.18-.926c-.193-.247-.416-.467-.772-.821zm2.276.432a5 5 0 0 0-.445-.674l-1.18.926q.175.222.31.47zm.205.973a.15.15 0 0 1 .131-.041c.038.007.09.038.115.1l-1.393.556c.36.904 1.53 1.12 2.205.448zm-1.877-2.866l-.245-.244l-1.06 1.061l.245.245zm-7.086-4.994l.153.153l1.06-1.061l-.153-.153z" opacity=".5"/><path stroke="currentColor" stroke-linecap="round" stroke-width="1.5" d="m5.548 13l-1.692 1.69a1.09 1.09 0 0 1-1.537 0a1.085 1.085 0 0 1 0-1.536L2.472 13m8.604 5.57l-1.692 1.69a1.085 1.085 0 0 0 0 1.535a1.09 1.09 0 0 0 1.538 0l.154-.153m-4.14-4.483l-1.71 1.672"/><path fill="currentColor" d="M10.633 17.186a.75.75 0 0 0-1.06-1.061zM7.47 18.227a.75.75 0 0 0 1.06 1.06zm.387-3.814a.75.75 0 1 0-1.06-1.06zM4.68 15.47a.75.75 0 1 0 1.06 1.061zm4.892.656L7.47 18.227l1.06 1.06l2.103-2.101zm-2.775-2.773L4.68 15.47l1.06 1.061l2.117-2.117zm5.576-.708a.75.75 0 1 0-1.058-1.063zm-1.792 1.785l1.792-1.785l-1.058-1.063l-1.792 1.785zm6.708-6.417a.945.945 0 0 1-1.331 0l-1.059 1.063a2.445 2.445 0 0 0 3.448 0zm-1.331 0a.93.93 0 0 1 0-1.317l-1.059-1.063a2.43 2.43 0 0 0 0 3.443zm0-1.317a.945.945 0 0 1 1.33 0l1.06-1.063a2.445 2.445 0 0 0-3.449 0zm1.33 0a.93.93 0 0 1 0 1.317l1.06 1.063a2.43 2.43 0 0 0 0-3.443z" opacity=".5"/></g></svg>