<svg viewBox="0 0 24 24"><path fill="currentColor" d="m13.157 17.013l3.855-3.856c1.454-1.454 2.182-2.181 2.182-3.085c0-.605-.327-1.131-.98-1.85a38 38 0 0 0-1.202-1.234c-.48-.48-.88-.881-1.234-1.203c-.719-.652-1.245-.979-1.85-.979c-.904 0-1.63.727-3.085 2.182l-3.856 3.855c-1.454 1.454-2.18 2.182-2.18 3.085c0 .605.326 1.131.978 1.85c.322.354.722.755 1.202 1.235s.88.88 1.235 1.202c.718.652 1.245.979 1.85.979c.903 0 1.63-.727 3.085-2.181m7.909-14.451c.041.037.09.086.188.184s.147.147.184.188a2.18 2.18 0 0 1-.262 3.17c-.044.034-.1.074-.213.155l-1.52 1.086l-.118-.132a39 39 0 0 0-1.232-1.266l-.04-.04a39 39 0 0 0-1.267-1.232l-.13-.118l1.085-1.52c.08-.113.12-.169.155-.213a2.18 2.18 0 0 1 3.17-.262M4.557 16.655l.118.131c.346.381.768.803 1.231 1.267l.041.04c.463.464.886.886 1.266 1.232l.132.118l-1.086 1.52a4 4 0 0 1-.156.213a2.18 2.18 0 0 1-3.169.262a6 6 0 0 1-.188-.184c-.098-.098-.147-.147-.184-.188a2.18 2.18 0 0 1 .262-3.17c.044-.034.1-.075.213-.155z"/></svg>