<svg viewBox="0 0 24 24"><path fill="currentColor" d="m13.157 17.013l3.856-3.856c1.454-1.454 2.181-2.181 2.181-3.085c0-.605-.326-1.131-.98-1.85a38 38 0 0 0-1.201-1.234c-.48-.48-.88-.881-1.235-1.203c-.718-.652-1.245-.979-1.85-.979c-.903 0-1.63.727-3.084 2.182l-3.856 3.855c-1.454 1.454-2.181 2.182-2.181 3.085c0 .605.326 1.131.979 1.85c.321.354.722.755 1.202 1.235s.88.88 1.234 1.202c.719.652 1.245.979 1.85.979c.904 0 1.63-.727 3.085-2.181"/><path fill="currentColor" d="M21.254 2.746c-.098-.098-.147-.147-.188-.184a2.18 2.18 0 0 0-3.17.262a6 6 0 0 0-.155.213l-1.963 2.748c.354.322.755.723 1.234 1.202c.48.48.881.881 1.203 1.235l2.748-1.963c.113-.08.169-.12.213-.156a2.18 2.18 0 0 0 .262-3.169a6 6 0 0 0-.184-.188M2.562 21.066c.037.041.086.09.184.188s.147.147.188.184a2.18 2.18 0 0 0 3.17-.262c.034-.044.074-.1.155-.213l1.963-2.748a38 38 0 0 1-1.234-1.203c-.48-.48-.881-.88-1.203-1.234l-2.748 1.963a6 6 0 0 0-.213.155a2.18 2.18 0 0 0-.262 3.17" opacity=".5"/></svg>