<svg viewBox="0 0 24 24"><path fill="currentColor" fill-rule="evenodd" d="M17.82 19.7a1.77 1.77 0 0 1 1.9-1.917c.189.016.414.084.643.154l.066.02l.06.018c.211.063.42.126.58.212a1.786 1.786 0 0 1 .638 2.55c-.1.151-.255.307-.41.464l-.045.044l-.044.045c-.156.157-.31.313-.46.414a1.754 1.754 0 0 1-2.528-.643c-.085-.16-.147-.372-.21-.585l-.018-.06l-.02-.067c-.07-.232-.137-.459-.153-.648m2.309-8.558c0 5.05-4.058 9.143-9.064 9.143S2 16.192 2 11.143S6.058 2 11.064 2s9.064 4.093 9.064 9.143M8.19 7.86A3.57 3.57 0 0 1 11 6.5c1.14 0 2.157.532 2.81 1.36l.68-.338a.716.716 0 0 1 .958.318a.71.71 0 0 1-.319.953l-.679.338q.121.442.122.922v.236h.714c.394 0 .714.319.714.711s-.32.71-.714.71h-.714v.237q-.002.48-.122.922l.679.338a.71.71 0 0 1 .32.953a.716.716 0 0 1-.959.318l-.68-.338A3.57 3.57 0 0 1 11 15.5a3.57 3.57 0 0 1-2.81-1.36l-.68.338a.716.716 0 0 1-.958-.318a.71.71 0 0 1 .32-.953l.678-.338a3.5 3.5 0 0 1-.121-.922v-.236h-.715A.71.71 0 0 1 6 11c0-.392.32-.71.714-.71h.715v-.237q.001-.48.121-.922l-.679-.338a.71.71 0 0 1-.32-.953a.716.716 0 0 1 .959-.318z" clip-rule="evenodd"/><path fill="currentColor" d="M11.714 13.958v-3.195h1.429v1.184a2.13 2.13 0 0 1-1.429 2.01m-2.857-2.01v-1.184h1.429v3.195a2.13 2.13 0 0 1-1.429-2.01m.123-2.606A2.14 2.14 0 0 1 11 7.921c.933 0 1.727.593 2.021 1.421z"/></svg>