<svg viewBox="0 0 24 24"><defs><mask id="SVGH8WKjcRa"><g fill="none"><path fill="#fff" d="M20.128 11.143c0 5.05-4.058 9.143-9.064 9.143S2 16.192 2 11.143S6.058 2 11.064 2s9.064 4.093 9.064 9.143"/><path fill="#000" fill-rule="evenodd" d="M11.064 8.35c.417 0 .755.34.755.761v1.27h1.26c.416 0 .754.341.754.762c0 .42-.338.762-.755.762H11.82v1.27c0 .42-.338.762-.755.762a.76.76 0 0 1-.755-.762v-1.27H9.05a.76.76 0 0 1-.755-.762a.76.76 0 0 1 .756-.762h1.259v-1.27c0-.42.338-.762.755-.762" clip-rule="evenodd"/><path fill="#fff" fill-rule="evenodd" d="M17.82 19.7a1.77 1.77 0 0 1 1.9-1.917c.189.016.414.084.643.154l.066.02l.06.018c.211.063.42.126.58.212a1.786 1.786 0 0 1 .638 2.55c-.1.151-.255.307-.41.464l-.045.044l-.044.045c-.156.157-.31.313-.46.414a1.754 1.754 0 0 1-2.528-.643a3.3 3.3 0 0 1-.21-.585l-.018-.06l-.02-.067c-.07-.232-.137-.459-.153-.648" clip-rule="evenodd"/></g></mask></defs><path fill="currentColor" d="M0 0h24v24H0z" mask="url(#SVGH8WKjcRa)"/></svg>