<svg viewBox="0 0 24 24"><g fill="none"><path fill="currentColor" d="M8 4.25a.75.75 0 0 0 0 1.5zm12 14H7.5v1.5H20zm-12.5-5.5h9v-1.5h-9zm9-8.5H8v1.5h8.5zm4.25 4.25a4.25 4.25 0 0 0-4.25-4.25v1.5a2.75 2.75 0 0 1 2.75 2.75zm-4.25 4.25a4.25 4.25 0 0 0 4.25-4.25h-1.5a2.75 2.75 0 0 1-2.75 2.75zM4.75 15.5a2.75 2.75 0 0 1 2.75-2.75v-1.5a4.25 4.25 0 0 0-4.25 4.25zm2.75 2.75a2.75 2.75 0 0 1-2.75-2.75h-1.5a4.25 4.25 0 0 0 4.25 4.25z" opacity=".5"/><path stroke="currentColor" stroke-linecap="round" stroke-linejoin="round" stroke-width="1.5" d="m18 17l2 2l-2 2"/><circle cx="6" cy="5" r="2" stroke="currentColor" stroke-width="1.5"/></g></svg>