<svg viewBox="0 0 24 24"><g fill="none"><g stroke="currentColor" stroke-linecap="round" stroke-width="1.5" clip-path="url(#SVGXv8lpc2Y)"><path d="M19.071 4.929c3.333 3.333 5 5 5 7.07c0 2.072-1.667 3.739-5 7.072s-5 5-7.071 5s-3.738-1.667-7.071-5s-5-5-5-7.071s1.667-3.738 5-7.071c3.333-3.334 5-5 7.071-5c1.377 0 2.575.737 4.204 2.21"/><path stroke-linejoin="round" d="M16 11.5L13.333 9M16 11.5L13.333 14M16 11.5h-5.333C9.777 11.5 8 12 8 14"/></g><defs><clipPath id="SVGXv8lpc2Y"><path fill="#fff" d="M0 0h24v24H0z"/></clipPath></defs></g></svg>