<svg viewBox="0 0 24 24"><g fill="none"><path stroke="currentColor" stroke-width="1.5" d="M6.142 6.142C8.904 3.381 10.284 2 12 2s3.096 1.38 5.858 4.142S22 10.284 22 12s-1.38 3.096-4.142 5.858S13.716 22 12 22s-3.096-1.38-5.858-4.142S2 13.716 2 12s1.38-3.096 4.142-5.858Z" opacity=".5"/><path fill="currentColor" d="M8.25 14a.75.75 0 0 0 1.5 0zM15 12l.53.53a.75.75 0 0 0 0-1.06zm-1.47-2.53a.75.75 0 1 0-1.06 1.06zm-1.06 4a.75.75 0 1 0 1.06 1.06zM11 12.75h4v-1.5h-4zm4.53-1.28l-2-2l-1.06 1.06l2 2zm-1.06 0l-2 2l1.06 1.06l2-2zM9.75 14c0-.493.002-.787.03-.997a.7.7 0 0 1 .042-.177l.001-.003l-1.06-1.06c-.31.309-.422.684-.47 1.04c-.045.334-.043.747-.043 1.197zM11 11.25c-.45 0-.863-.002-1.197.043c-.356.048-.731.16-1.04.47l1.06 1.06l.003-.001l.01-.005a.7.7 0 0 1 .167-.037c.21-.028.504-.03.997-.03z"/></g></svg>