<svg viewBox="0 0 24 24"><g fill="none"><path fill="currentColor" d="m20 19l.53.53a.75.75 0 0 0 0-1.06zM8 4.25a.75.75 0 0 0 0 1.5zm10.53 12.22a.75.75 0 1 0-1.06 1.06zm-1.06 4a.75.75 0 1 0 1.06 1.06zM20 18.25H7.5v1.5H20zm-12.5-5.5h9v-1.5h-9zm9-8.5H8v1.5h8.5zm4.03 14.22l-2-2l-1.06 1.06l2 2zm-1.06 0l-2 2l1.06 1.06l2-2zm1.28-9.97a4.25 4.25 0 0 0-4.25-4.25v1.5a2.75 2.75 0 0 1 2.75 2.75zm-4.25 4.25a4.25 4.25 0 0 0 4.25-4.25h-1.5a2.75 2.75 0 0 1-2.75 2.75zM4.75 15.5a2.75 2.75 0 0 1 2.75-2.75v-1.5a4.25 4.25 0 0 0-4.25 4.25zm2.75 2.75a2.75 2.75 0 0 1-2.75-2.75h-1.5a4.25 4.25 0 0 0 4.25 4.25z"/><circle cx="6" cy="5" r="2" stroke="currentColor" stroke-width="1.5"/></g></svg>