<svg viewBox="0 0 24 24"><path fill="currentColor" d="M13.457 2.11c-2.884.277-5.948 1.141-8.077 3.27s-2.993 5.193-3.27 8.077l8.432 8.433c2.884-.278 5.948-1.142 8.077-3.271s2.993-5.193 3.27-8.077z" opacity=".5"/><path fill="currentColor" d="M18.069 2.087a27 27 0 0 0-4.612.023l8.433 8.433c.16-1.67.125-3.28.023-4.612a4.136 4.136 0 0 0-3.844-3.844M5.931 21.913a27 27 0 0 0 4.612-.023L2.11 13.457c-.16 1.67-.125 3.28-.023 4.612a4.136 4.136 0 0 0 3.844 3.844"/><path fill="currentColor" fill-rule="evenodd" d="M11.943 8.16a.75.75 0 0 1 1.06 0l.888.888l.889-.888a.75.75 0 1 1 1.06 1.06l-.888.889l.888.888a.75.75 0 1 1-1.06 1.06l-.889-.888l-.83.831l.888.888a.75.75 0 0 1-1.06 1.06L12 13.062l-.83.83l.888.889a.75.75 0 1 1-1.061 1.06l-.888-.888l-.888.888a.75.75 0 0 1-1.06-1.06l.887-.889l-.888-.888a.75.75 0 1 1 1.06-1.06l.889.888l.83-.83l-.888-.889a.75.75 0 0 1 1.061-1.06l.888.887l.83-.83l-.887-.888a.75.75 0 0 1 0-1.06" clip-rule="evenodd"/></svg>