<svg viewBox="0 0 24 24"><path fill="currentColor" fill-rule="evenodd" d="m13.688 4.142l.964.964a.75.75 0 0 1-1.061 1.06l-.964-.964l-1.06 1.06l1.67 1.672a.75.75 0 0 1-1.06 1.06l-1.671-1.67l-1.061 1.06l.964.964a.75.75 0 1 1-1.06 1.061l-.965-.964l-1.06 1.06l1.67 1.672a.75.75 0 1 1-1.06 1.06l-1.671-1.67l-1.06 1.06l.963.964a.75.75 0 1 1-1.06 1.06l-.964-.963c-.464.469-.799.821-1.034 1.13c-.29.38-.358.604-.358.798c0 .193.068.417.358.797c.303.398.77.868 1.468 1.565l1.446 1.446c.697.697 1.167 1.165 1.565 1.468c.38.29.604.358.797.358s.418-.068.798-.358c.397-.303.868-.77 1.564-1.468l8.678-8.677c.697-.697 1.165-1.168 1.468-1.565c.29-.38.358-.604.358-.798c0-.193-.068-.417-.358-.797c-.303-.398-.77-.868-1.468-1.565l-1.446-1.446c-.697-.697-1.167-1.165-1.565-1.468c-.38-.29-.604-.358-.797-.358s-.418.068-.798.358c-.309.235-.661.57-1.13 1.034m.22-2.227c.514-.392 1.054-.665 1.708-.665s1.194.273 1.707.665c.487.372 1.028.913 1.679 1.563l1.52 1.52c.65.65 1.191 1.192 1.563 1.679c.392.513.665 1.054.665 1.707c0 .654-.273 1.194-.665 1.708c-.372.487-.913 1.028-1.563 1.678l-8.752 8.752c-.65.65-1.191 1.191-1.678 1.563c-.514.392-1.054.665-1.708.665s-1.194-.273-1.707-.665c-.487-.372-1.028-.913-1.679-1.563l-1.52-1.52c-.65-.65-1.191-1.192-1.563-1.679c-.392-.513-.665-1.054-.665-1.707c0-.654.273-1.194.665-1.708c.372-.487.913-1.028 1.563-1.678l8.752-8.752c.65-.65 1.191-1.191 1.678-1.563" clip-rule="evenodd"/></svg>