<svg viewBox="0 0 24 24"><path fill="currentColor" d="M20.849 8.713a3.932 3.932 0 0 0-5.562-5.561l-.887.887l.038.111a8.75 8.75 0 0 0 2.093 3.32a8.75 8.75 0 0 0 3.43 2.13z" opacity=".5"/><path fill="currentColor" d="m14.439 4l-.039.038l.038.112a8.75 8.75 0 0 0 2.093 3.32a8.75 8.75 0 0 0 3.43 2.13l-8.56 8.56c-.578.577-.867.866-1.185 1.114a6.6 6.6 0 0 1-1.211.748c-.364.174-.751.303-1.526.561l-4.083 1.361a1.06 1.06 0 0 1-1.342-1.341l1.362-4.084c.258-.774.387-1.161.56-1.525q.309-.646.749-1.212c.248-.318.537-.606 1.114-1.183z"/><path fill="currentColor" d="M5.492 4.045L4.045 5.492C2.682 6.855 2 7.537 2 8.384s.682 1.53 2.045 2.893l1.558 1.558l.236-.236l6.996-6.996l-1.558-1.558C9.913 2.682 9.23 2 8.384 2s-1.529.682-2.892 2.045m12.904 7.119L11.4 18.16l-.236.236l1.56 1.559C14.086 21.318 14.767 22 15.615 22s1.529-.682 2.892-2.045l1.447-1.447C21.318 17.145 22 16.463 22 15.616c0-.848-.682-1.53-2.045-2.893z" opacity=".5"/><path fill="currentColor" d="m20.109 12.877l-1.17 1.17A.75.75 0 0 0 20 15.106l1.15-1.15a28 28 0 0 0-1.041-1.08M9.766 2.613L8.439 3.939A.75.75 0 1 0 9.5 5l1.365-1.364a15 15 0 0 0-1.1-1.022"/></svg>