<svg viewBox="0 0 24 24"><path fill="currentColor" fill-rule="evenodd" d="M7.587 3.108c-.398.303-.868.77-1.565 1.468L4.576 6.022c-.697.697-1.165 1.167-1.468 1.565c-.29.38-.358.604-.358.797s.068.418.358.798c.303.397.77.868 1.468 1.564a.75.75 0 0 1-1.06 1.061l-.038-.037c-.65-.65-1.191-1.191-1.563-1.678c-.392-.514-.665-1.054-.665-1.708s.273-1.194.665-1.707c.372-.487.913-1.028 1.563-1.679l.037-.037l1.446-1.446l.037-.037c.65-.65 1.192-1.191 1.679-1.563c.513-.392 1.054-.665 1.707-.665c.654 0 1.194.273 1.708.665c.487.372 1.028.913 1.678 1.563l.037.037a.75.75 0 0 1 0 1.06l-2.41 2.411a.75.75 0 1 1-1.061-1.06l1.879-1.88c-.42-.414-.746-.72-1.033-.938c-.38-.29-.604-.358-.798-.358c-.193 0-.417.068-.797.358m12.368 8.865c.199 0 .39.08.53.22l.037.037c.65.65 1.191 1.191 1.563 1.678c.392.514.665 1.054.665 1.708s-.273 1.194-.665 1.707c-.372.487-.913 1.028-1.563 1.679l-1.52 1.52c-.65.65-1.192 1.191-1.679 1.563c-.513.392-1.054.665-1.707.665c-.654 0-1.194-.273-1.708-.665c-.487-.372-1.028-.913-1.678-1.563l-.037-.037a.75.75 0 0 1 1.06-1.06c.697.696 1.168 1.164 1.565 1.467c.38.29.604.358.798.358s.417-.068.797-.358c.398-.303.868-.77 1.565-1.468l1.446-1.446c.697-.697 1.165-1.167 1.468-1.565c.29-.38.358-.604.358-.797s-.068-.418-.358-.798c-.219-.287-.523-.612-.939-1.033l-1.878 1.879a.75.75 0 0 1-1.061-1.06l2.41-2.411a.75.75 0 0 1 .53-.22m-5.197-9.352a4.682 4.682 0 0 1 6.622 6.622l-9.486 9.486c-.542.542-.86.86-1.216 1.137q-.628.492-1.35.835c-.406.193-.834.336-1.56.578l-3.332 1.11l-.802.268a1.81 1.81 0 0 1-2.29-2.29l1.378-4.133c.242-.727.385-1.155.578-1.562q.344-.72.835-1.35c.276-.354.595-.673 1.137-1.215zm5.56 1.061a3.18 3.18 0 0 0-4.5 0l-.662.662c.035.175.092.413.189.69a5.86 5.86 0 0 0 1.4 2.222a5.86 5.86 0 0 0 2.221 1.4c.278.097.516.154.691.189l.662-.662a3.18 3.18 0 0 0 0-4.5m-1.878 6.38a7.36 7.36 0 0 1-2.755-1.745a7.36 7.36 0 0 1-1.745-2.756l-7.57 7.57c-.59.589-.84.84-1.053 1.114q-.39.5-.663 1.073c-.149.313-.262.649-.526 1.44L3.18 19.6l1.22 1.22l2.842-.947c.791-.264 1.127-.377 1.44-.526q.572-.274 1.073-.663c.273-.214.525-.463 1.115-1.053z" clip-rule="evenodd"/></svg>