<svg viewBox="0 0 24 24"><path fill="currentColor" fill-rule="evenodd" d="M15.948 1.25h2.104c.899 0 1.648 0 2.242.08c.628.084 1.195.27 1.65.725c.456.456.642 1.023.726 1.65c.08.595.08 1.345.08 2.243v12.104c0 .899 0 1.648-.08 2.242c-.084.628-.27 1.195-.725 1.65c-.456.456-1.023.642-1.65.726c-.595.08-1.344.08-2.243.08h-2.104c-.899 0-1.648 0-2.242-.08c-.628-.084-1.195-.27-1.65-.726c-.456-.455-.642-1.022-.726-1.65c-.08-.594-.08-1.343-.08-2.242V5.948c0-.898 0-1.648.08-2.242c.084-.628.27-1.195.726-1.65c.455-.456 1.022-.642 1.65-.726c.594-.08 1.344-.08 2.242-.08m-3.198 8.5H15a.75.75 0 0 0 0-1.5h-2.25v-1.5H14a.75.75 0 0 0 0-1.5h-1.248c.004-.57.018-1 .064-1.345c.063-.461.17-.659.3-.789s.328-.237.79-.3c.482-.064 1.13-.066 2.094-.066h2c.964 0 1.612.002 2.095.067c.461.062.659.169.789.3s.237.327.3.788c.064.483.066 1.131.066 2.095v12c0 .964-.002 1.612-.067 2.095c-.062.461-.169.659-.3.789s-.327.237-.788.3c-.483.064-1.131.066-2.095.066h-2c-.964 0-1.612-.002-2.095-.067c-.461-.062-.659-.169-.789-.3s-.237-.327-.3-.788c-.046-.346-.06-.776-.064-1.345H14a.75.75 0 0 0 0-1.5h-1.25v-1.5H15a.75.75 0 0 0 0-1.5h-2.25v-1.5H14a.75.75 0 0 0 0-1.5h-1.25zm-11.5-4.9c0-2.024 1.716-3.6 3.75-3.6s3.75 1.576 3.75 3.6v10.735c0 .543 0 .884-.044 1.223q-.079.602-.29 1.17c-.12.32-.28.625-.537 1.111l-1.492 2.835c-.273.52-.817.826-1.387.826s-1.114-.306-1.387-.826L2.12 19.09c-.256-.486-.417-.79-.536-1.111a5.3 5.3 0 0 1-.291-1.17c-.044-.339-.044-.68-.044-1.223zM5 2.75c-1.28 0-2.25.976-2.25 2.1v.555c.096.057.217.123.36.189C3.549 5.795 4.192 6 5 6s1.452-.205 1.89-.406c.143-.066.264-.132.36-.189V4.85c0-1.124-.97-2.1-2.25-2.1m2.25 4.321A6 6 0 0 1 5 7.5c-.916 0-1.677-.2-2.25-.429v8.463c0 .61.001.85.031 1.08q.057.43.209.84c.082.22.195.436.482.982l.969 1.841h1.118l.97-1.841c.286-.546.399-.762.481-.983q.152-.409.209-.838c.03-.231.031-.471.031-1.081zM2.48 5.223l.001.002zm5.038.002l.002-.002z" clip-rule="evenodd"/></svg>