<svg viewBox="0 0 24 24"><path fill="currentColor" d="M2 15.616c0 .847.682 1.529 2.045 2.892l1.447 1.447C6.855 21.318 7.537 22 8.384 22s1.53-.682 2.893-2.045l8.678-8.678C21.318 9.913 22 9.23 22 8.384s-.682-1.529-2.045-2.892l-1.447-1.447C17.145 2.682 16.463 2 15.616 2c-.754 0-1.376.54-2.464 1.618l-1.05 1.048l-1.072 1.073l-1.05 1.048L8.91 7.86L7.86 8.909L6.788 9.98L5.74 11.03l-1.073 1.073l-1.048 1.049C2.539 14.24 2 14.862 2 15.616" opacity=".5"/><path fill="currentColor" d="M13.238 3.691a1 1 0 0 0-.086-.073l-1.049 1.048q.033.045.074.086l1.414 1.414a.75.75 0 0 0 1.06-1.06zm-2.122 2.122a1 1 0 0 0-.086-.074L9.982 6.787q.033.045.074.086l2.121 2.122a.75.75 0 0 0 1.06-1.061zM8.995 7.934a1 1 0 0 0-.086-.074L7.86 8.908q.033.046.074.087l1.415 1.414a.75.75 0 1 0 1.06-1.06zm-2.121 2.121a1 1 0 0 0-.086-.074L5.739 11.03q.033.045.074.086l2.121 2.121a.75.75 0 1 0 1.061-1.06zm-2.122 2.122a1 1 0 0 0-.086-.075l-1.048 1.05q.033.045.074.085l1.414 1.414a.75.75 0 1 0 1.06-1.06z"/></svg>