<svg viewBox="0 0 24 24"><g fill="none"><circle cx="18.5" cy="4.5" r="2.5" stroke="currentColor" stroke-width="1.5"/><path stroke="currentColor" stroke-linecap="round" stroke-width="1.5" d="m9 17l-1 1.2c-.738.886-1.107 1.328-1.61 1.564S5.31 20 4.157 20H3"/><path fill="currentColor" d="M5.806 9.472a.75.75 0 1 0-.74-1.304zM3.63 8.984a.75.75 0 0 0 .742 1.304zm12.121 1.141l-.624.416zm.063.094l.624-.417zM10.97 6.653l.077-.746zm-.23-.017l-.033.75zm-.584.037l-.103-.743zM21 12.75a.75.75 0 0 0 0-1.5zM8.738 6.272a.75.75 0 0 0 .524 1.406zM5.065 8.168l-1.436.816l.742 1.304l1.435-.816zm10.061 2.373l.063.093l1.248-.832l-.063-.093zm-4.08-4.634a5 5 0 0 0-.273-.02l-.066 1.498q.073.003.184.014zm8.095 6.843H21v-1.5h-1.86zm-8.368-6.863a4 4 0 0 0-.72.043l.204 1.486c.178-.024.322-.037.45-.03zm4.416 4.748a4.75 4.75 0 0 0 3.952 2.115v-1.5a3.25 3.25 0 0 1-2.704-1.448zm1.185-.926c-1.177-1.766-2.945-3.554-5.328-3.802L10.891 7.4c1.703.177 3.134 1.49 4.235 3.142zM9.262 7.678a4.6 4.6 0 0 1 .995-.262l-.205-1.486c-.441.061-.87.177-1.314.342z"/><path stroke="currentColor" stroke-linecap="round" stroke-width="1.5" d="m14 8.5l-2.22 2.776c-.837 1.045-1.255 1.568-1.322 2.137a2 2 0 0 0 .118.945c.204.536.737.94 1.805 1.749c.813.616 1.219.923 1.495 1.326q.236.347.37.744c.154.462.154.972.154 1.992V22"/></g></svg>