<svg viewBox="0 0 24 24"><g fill="none"><circle cx="18.5" cy="4.5" r="2.5" stroke="currentColor" stroke-width="1.5" opacity=".5"/><path stroke="currentColor" stroke-linecap="round" stroke-width="1.5" d="m9 17l-1 1.2c-.738.886-1.107 1.328-1.61 1.564S5.31 20 4.157 20H3"/><path fill="currentColor" d="M13.65 22a.75.75 0 0 0 1.5 0zm-1.085-5.754l.453-.598zm1.184 1.015l.587-.466zm.557 1.12l.727-.186zm-.802-6.826a.75.75 0 0 0-1.009-1.11zm-2.652 1.61l.703.26zm.07 1.555l-.677.323zm2.728 5.219v2.06h1.5v-2.06zm-1.538-3.095c.663.502.887.679 1.05.884l1.174-.934c-.308-.387-.717-.69-1.319-1.146zm3.038 3.095c0-.755.006-1.264-.117-1.744l-1.453.373c.065.254.07.538.07 1.37zm-1.988-2.211c.197.247.339.534.417.84l1.454-.373a3.75 3.75 0 0 0-.697-1.4zm-.667-7.283c-.42.381-.945.836-1.354 1.224c-.21.198-.41.398-.573.586c-.149.172-.327.4-.42.649l1.407.521c-.007.021.014-.035.146-.187c.116-.134.276-.295.471-.48c.4-.38.865-.778 1.332-1.203zm.523 5.203c-.488-.37-.818-.62-1.056-.832c-.233-.208-.32-.33-.363-.418l-1.354.645c.167.35.423.63.72.894c.292.26.679.552 1.147.907zm-2.87-2.744a2.75 2.75 0 0 0 .097 2.139l1.354-.645a1.25 1.25 0 0 1-.044-.973z" opacity=".5"/><path fill="currentColor" d="m5.436 8.82l-.37-.652zm-1.807.164a.75.75 0 1 0 .742 1.304zm9.778-1.627l-.286.693zm-2.96-.715l-.055-.748zM21 12.75a.75.75 0 1 0 0-1.5zm-5.232-3.213l-.67.335zM5.065 8.168l-1.436.816l.742 1.304l1.435-.816zm8.627-1.505c-1.344-.553-2.08-.857-3.3-.769l.11 1.496c.823-.06 1.255.099 2.62.66zm-7.886 2.81c2.502-1.422 3.552-2 4.695-2.083l-.109-1.496c-1.56.114-2.949.923-5.327 2.274zm13.949 3.276H21v-1.5h-1.245zm-4.658-2.878a5.21 5.21 0 0 0 4.658 2.878v-1.5A3.71 3.71 0 0 1 16.439 9.2zm1.342-.67a5.33 5.33 0 0 0-2.747-2.538l-.57 1.387c.86.354 1.564 1 1.975 1.821z"/></g></svg>