<svg viewBox="0 0 24 24"><path fill="currentColor" d="M20.75 4.5a2.5 2.5 0 1 1-5 0a2.5 2.5 0 0 1 5 0"/><path fill="currentColor" fill-rule="evenodd" d="m13.437 6.661l.005.003A5.33 5.33 0 0 1 16.19 9.2a3.71 3.71 0 0 0 3.316 2.049h1.245a.75.75 0 0 1 0 1.5h-1.245a5.21 5.21 0 0 1-4.658-2.878a3.83 3.83 0 0 0-1.976-1.821c-1.364-.562-1.796-.72-2.62-.66c-1.143.083-2.193.66-4.695 2.082l-1.435.815a.75.75 0 1 1-.742-1.304l1.436-.815l.172-.098c2.274-1.293 3.634-2.066 5.155-2.176c1.218-.089 1.954.215 3.295.766M9.23 16.424a.75.75 0 0 1 .096 1.056l-1 1.201l-.097.116c-.642.771-1.113 1.338-1.771 1.646s-1.395.308-2.4.307H2.75a.75.75 0 0 1 0-1.5h1.158c1.222 0 1.596-.017 1.913-.165c.318-.149.57-.426 1.352-1.364l1-1.201a.75.75 0 0 1 1.057-.096" clip-rule="evenodd"/><path fill="currentColor" d="M13.304 10.496a.75.75 0 0 1-.05 1.059l-.534.479c-.281.25-.552.49-.798.724a7 7 0 0 0-.472.48a1.5 1.5 0 0 0-.143.186q-.006.01-.002.001a1.25 1.25 0 0 0 .043.973c.042.088.13.21.363.418c.238.212.568.463 1.056.832l.074.056c.561.425.95.719 1.245 1.09c.328.413.565.89.696 1.401c.118.46.118.947.117 1.65V22a.75.75 0 1 1-1.5 0v-2.06c0-.833-.005-1.117-.07-1.37a2.25 2.25 0 0 0-.418-.841c-.163-.205-.386-.382-1.05-.884l-.024-.019a20 20 0 0 1-1.123-.888c-.297-.264-.553-.543-.72-.894a2.75 2.75 0 0 1-.096-2.14c.093-.248.27-.476.42-.648c.163-.188.363-.388.572-.586c.26-.246.566-.518.862-.782c.17-.153.339-.302.492-.442a.75.75 0 0 1 1.06.05" opacity=".5"/></svg>