<svg viewBox="0 0 24 24"><path fill="currentColor" d="M12 22c5.523 0 10-4.477 10-10S17.523 2 12 2S2 6.477 2 12s4.477 10 10 10" opacity=".5"/><path fill="currentColor" d="M8.397 17.447a.75.75 0 0 0 1.05.155A4.27 4.27 0 0 1 12 16.75a4.27 4.27 0 0 1 2.553.852a.75.75 0 1 0 .894-1.204A5.77 5.77 0 0 0 12 15.25a5.77 5.77 0 0 0-3.447 1.148a.75.75 0 0 0-.156 1.049M15 12c.552 0 1-.672 1-1.5S15.552 9 15 9s-1 .672-1 1.5s.448 1.5 1 1.5m-6 0c.552 0 1-.672 1-1.5S9.552 9 9 9s-1 .672-1 1.5s.448 1.5 1 1.5"/></svg>