<svg viewBox="0 0 24 24"><g fill="none"><path stroke="currentColor" stroke-width="1.5" d="M2 12c0-4.714 0-7.071 1.464-8.536C4.93 2 7.286 2 12 2s7.071 0 8.535 1.464C22 4.93 22 7.286 22 12s0 7.071-1.465 8.535C19.072 22 16.714 22 12 22s-7.071 0-8.536-1.465C2 19.072 2 16.714 2 12Z"/><path fill="currentColor" d="M13.5 12a1.5 1.5 0 1 1-3 0a1.5 1.5 0 0 1 3 0"/><path fill="currentColor" d="M12.75 12V8h-1.5v4zm-1.045.69l3.5 1.5l.59-1.38l-3.5-1.5zm0-1.38l-3.5 1.5l.59 1.38l3.5-1.5z" opacity=".5"/><path fill="currentColor" d="M12 15.25A3.25 3.25 0 0 1 8.75 12h-1.5A4.75 4.75 0 0 0 12 16.75zM15.25 12A3.25 3.25 0 0 1 12 15.25v1.5A4.75 4.75 0 0 0 16.75 12zM12 8.75A3.25 3.25 0 0 1 15.25 12h1.5A4.75 4.75 0 0 0 12 7.25zm0-1.5A4.75 4.75 0 0 0 7.25 12h1.5A3.25 3.25 0 0 1 12 8.75z"/><path fill="currentColor" d="M5.25 7a.75.75 0 0 0-1.5 0zm-1.5 3a.75.75 0 0 0 1.5 0zm1.5 4a.75.75 0 0 0-1.5 0zm-1.5 3a.75.75 0 0 0 1.5 0zM11 5.75h2v-1.5h-2zM18.25 11v2h1.5v-2zM13 18.25h-2v1.5h2zM5.75 13v-2h-1.5v2zM11 18.25c-1.435 0-2.437-.002-3.192-.103c-.734-.099-1.122-.28-1.399-.556l-1.06 1.06c.601.603 1.36.861 2.26.983c.878.118 1.998.116 3.391.116zM4.25 13c0 1.393-.002 2.513.117 3.392c.12.9.38 1.658.981 2.26L6.41 17.59c-.277-.277-.457-.665-.556-1.4c-.101-.754-.103-1.756-.103-3.191zm14 0c0 1.435-.002 2.437-.103 3.192c-.099.734-.28 1.122-.556 1.399l1.06 1.06c.603-.601.861-1.36.983-2.26c.118-.878.116-1.998.116-3.391zM13 19.75c1.393 0 2.513.002 3.392-.116c.9-.122 1.658-.38 2.26-.982L17.59 17.59c-.277.277-.665.457-1.4.556c-.754.101-1.756.103-3.191.103zm0-14c1.435 0 2.437.002 3.192.103c.734.099 1.122.28 1.399.556l1.06-1.06c-.601-.603-1.36-.861-2.26-.982c-.878-.119-1.998-.117-3.391-.117zM19.75 11c0-1.393.002-2.513-.116-3.392c-.122-.9-.38-1.658-.982-2.26L17.59 6.41c.277.277.457.665.556 1.4c.101.754.103 1.756.103 3.191zM11 4.25c-1.393 0-2.513-.002-3.392.117c-.9.12-1.658.38-2.26.981L6.41 6.41c.277-.277.665-.457 1.4-.556c.754-.101 1.756-.103 3.191-.103zM5.75 11c0-1.435.002-2.437.103-3.192c.099-.734.28-1.122.556-1.399l-1.06-1.06c-.603.601-.861 1.36-.982 2.26c-.119.878-.117 1.998-.117 3.391zm-2-4v3h1.5V7zm0 7v3h1.5v-3z" opacity=".5"/></g></svg>