<svg viewBox="0 0 24 24"><path fill="currentColor" fill-rule="evenodd" d="M12.63 2.924L1.635 9.03a.75.75 0 1 0 .728 1.311l8.686-4.825a5.98 5.98 0 0 0 1.005 5.368L4.47 18.47a.75.75 0 1 0 1.06 1.06l7.585-7.584a5.98 5.98 0 0 0 5.368 1.004l-4.825 8.686a.75.75 0 1 0 1.311.728l6.107-10.993a5.974 5.974 0 0 0-8.447-8.447m7.643 7.091a4.475 4.475 0 0 0-6.288-6.288c.085.172.2.39.356.649c.431.718 1.163 1.747 2.35 2.934c1.186 1.186 2.215 1.918 2.934 2.35q.388.23.648.355m-1.208 1.055q-.103-.059-.212-.124c-.703-.422-1.63-1.075-2.683-2.055l-1.983 1.983a4.48 4.48 0 0 0 4.878.196m-5.939-1.257a4.48 4.48 0 0 1-.196-4.878q.059.104.125.212c.421.703 1.074 1.63 2.054 2.683z" clip-rule="evenodd"/></svg>