<svg viewBox="0 0 24 24"><path fill="currentColor" d="M2 12c0-4.714 0-7.071 1.464-8.536C4.93 2 7.286 2 12 2s7.071 0 8.535 1.464C22 4.93 22 7.286 22 12s0 7.071-1.465 8.535C19.072 22 16.714 22 12 22s-7.071 0-8.536-1.465C2 19.072 2 16.714 2 12" opacity=".5"/><path fill="currentColor" fill-rule="evenodd" d="M16.656 2.75a.75.75 0 0 1 0-1.5H22a.75.75 0 0 1 .75.75v5.344a.75.75 0 0 1-1.5 0V3.81l-7.44 7.439H16a.75.75 0 0 1 0 1.5h-4a.75.75 0 0 1-.75-.75V8a.75.75 0 0 1 1.5 0v2.19l7.44-7.44z" clip-rule="evenodd"/></svg>