<svg viewBox="0 0 24 24"><path fill="currentColor" d="M3.464 3.464C2 4.93 2 7.286 2 12s0 7.071 1.464 8.535C4.93 22 7.286 22 12 22s7.071 0 8.535-1.465C22 19.072 22 16.714 22 12s0-7.071-1.465-8.536C19.072 2 16.714 2 12 2S4.929 2 3.464 3.464" opacity=".5"/><path fill="currentColor" d="M7.357 12.614a.75.75 0 0 0 1.283.776l.004-.005l.027-.04q.042-.062.136-.177c.128-.153.326-.363.6-.573c.543-.418 1.386-.845 2.593-.845s2.05.427 2.593.845c.274.21.472.42.6.573a3 3 0 0 1 .163.217l.004.005a.75.75 0 0 0 1.283-.776v-.001l-.002-.002l-.002-.004l-.006-.01a1 1 0 0 0-.076-.113a4 4 0 0 0-.212-.277a5.3 5.3 0 0 0-.838-.802c-.758-.582-1.914-1.155-3.507-1.155s-2.75.573-3.507 1.156c-.376.289-.653.58-.838.801a4 4 0 0 0-.288.39l-.006.01l-.002.004zs-.001.001.642.387zM19 13.25a.75.75 0 0 1 .75.75v.054c0 1.133 0 2.058-.098 2.79c-.103.763-.325 1.425-.854 1.954s-1.19.751-1.955.854c-.73.098-1.656.098-2.79.098H14a.75.75 0 0 1 0-1.5c1.2 0 2.024-.002 2.643-.085c.598-.08.89-.224 1.094-.428s.348-.496.428-1.094c.083-.619.085-1.443.085-2.643a.75.75 0 0 1 .75-.75M5.75 14a.75.75 0 0 0-1.5 0v.054c0 1.133 0 2.058.098 2.79c.103.763.325 1.425.854 1.954s1.19.751 1.955.854c.73.098 1.656.098 2.79.098H10a.75.75 0 0 0 0-1.5c-1.2 0-2.024-.002-2.643-.085c-.598-.08-.89-.224-1.094-.428s-.348-.496-.428-1.094C5.752 16.024 5.75 15.2 5.75 14m4.196-9.75H10a.75.75 0 0 1 0 1.5c-1.2 0-2.024.002-2.643.085c-.598.08-.89.224-1.094.428s-.348.496-.428 1.094C5.752 7.976 5.75 8.8 5.75 10a.75.75 0 0 1-1.5 0v-.054c0-1.133 0-2.058.098-2.79c.103-.763.325-1.425.854-1.954s1.19-.751 1.955-.854c.73-.098 1.656-.098 2.79-.098M14 5.75c1.2 0 2.024.002 2.643.085c.598.08.89.224 1.094.428s.348.496.428 1.094c.083.619.085 1.443.085 2.643a.75.75 0 0 0 1.5 0v-.054c0-1.133 0-2.058-.098-2.79c-.103-.763-.325-1.425-.854-1.954s-1.19-.751-1.955-.854c-.73-.098-1.656-.098-2.79-.098H14a.75.75 0 0 0 0 1.5"/></svg>