<svg viewBox="0 0 24 24"><path fill="currentColor" d="M14 2.75c1.907 0 3.262.002 4.29.14c1.005.135 1.585.389 2.008.812s.677 1.003.812 2.009c.138 1.028.14 2.382.14 4.289a.75.75 0 0 0 1.5 0v-.056c0-1.838 0-3.294-.153-4.433c-.158-1.172-.49-2.121-1.238-2.87c-.749-.748-1.698-1.08-2.87-1.238c-1.14-.153-2.595-.153-4.433-.153H14a.75.75 0 0 0 0 1.5m-4.056-1.5H10a.75.75 0 0 1 0 1.5c-1.907 0-3.261.002-4.29.14c-1.005.135-1.585.389-2.008.812S3.025 4.705 2.89 5.71c-.138 1.029-.14 2.383-.14 4.29a.75.75 0 0 1-1.5 0v-.056c0-1.838 0-3.294.153-4.433c.158-1.172.49-2.121 1.238-2.87c.749-.748 1.698-1.08 2.87-1.238c1.14-.153 2.595-.153 4.433-.153M5.498 13.558a.75.75 0 0 1-.055-1.06L6 13c-.557-.502-.558-.501-.557-.502v-.001l.002-.002l.003-.003l.01-.01a2 2 0 0 1 .11-.111q.108-.105.31-.27c.27-.215.669-.493 1.205-.768C8.159 10.78 9.776 10.25 12 10.25s3.841.53 4.917 1.083a7 7 0 0 1 1.205.769a5 5 0 0 1 .395.353l.026.027l.009.01l.003.003l.001.002s.002.001-.556.503l.558-.502a.75.75 0 0 1-1.112 1.008l-.006-.006l-.043-.043a3 3 0 0 0-.212-.184a5.7 5.7 0 0 0-.952-.606c-.874-.448-2.257-.917-4.233-.917s-3.359.47-4.233.917a5.7 5.7 0 0 0-.952.606a3 3 0 0 0-.255.227l-.006.006a.75.75 0 0 1-1.056.051M22 13.25a.75.75 0 0 1 .75.75v.056c0 1.838 0 3.294-.153 4.433c-.158 1.172-.49 2.121-1.238 2.87c-.749.748-1.698 1.08-2.87 1.238c-1.14.153-2.595.153-4.433.153H14a.75.75 0 0 1 0-1.5c1.907 0 3.262-.002 4.29-.14c1.005-.135 1.585-.389 2.008-.812s.677-1.003.812-2.009c.138-1.027.14-2.382.14-4.289a.75.75 0 0 1 .75-.75M2.75 14a.75.75 0 0 0-1.5 0v.056c0 1.838 0 3.294.153 4.433c.158 1.172.49 2.121 1.238 2.87c.749.748 1.698 1.08 2.87 1.238c1.14.153 2.595.153 4.433.153H10a.75.75 0 0 0 0-1.5c-1.907 0-3.261-.002-4.29-.14c-1.005-.135-1.585-.389-2.008-.812s-.677-1.003-.812-2.009c-.138-1.027-.14-2.382-.14-4.289"/></svg>