<svg viewBox="0 0 24 24"><g fill="none" stroke="currentColor" stroke-width="1.5"><path stroke-linecap="round" d="M20 18.415a3 3 0 0 0 .828-.587C22 16.657 22 14.771 22 11s0-5.657-1.172-6.828S17.771 3 14 3h-4C6.229 3 4.343 3 3.172 4.172S2 7.229 2 11s0 5.657 1.172 6.828c.242.243.514.435.828.587"/><path d="M9.95 16.05c.93-.93 1.396-1.396 1.97-1.427q.08-.003.159 0c.574.03 1.04.496 1.971 1.427c2.026 2.026 3.039 3.039 2.755 3.913a1.5 1.5 0 0 1-.09.218C16.297 21 14.865 21 12 21s-4.298 0-4.715-.819a1.5 1.5 0 0 1-.09-.218c-.284-.874.729-1.887 2.755-3.913Z"/></g></svg>