<svg viewBox="0 0 24 24"><path fill="currentColor" d="M9.95 16.05c.93-.93 1.396-1.396 1.97-1.427q.08-.003.159 0c.574.03 1.04.496 1.971 1.427c2.026 2.026 3.039 3.039 2.755 3.913a1.5 1.5 0 0 1-.09.218C16.297 21 14.865 21 12 21s-4.298 0-4.715-.819a1.5 1.5 0 0 1-.09-.218c-.284-.874.729-1.887 2.755-3.913"/><path fill="currentColor" d="M14 3h-4C6.229 3 4.343 3 3.172 4.172S2 7.229 2 11s0 5.657 1.172 6.828c.242.243.514.435.828.587c.481.234 1.06.375 1.77.459c.167-.533.473-.992.745-1.347c.532-.696 1.35-1.514 2.297-2.46l.13-.131c.42-.42.827-.827 1.207-1.122c.426-.331.977-.651 1.693-.689a3 3 0 0 1 .316 0c.716.038 1.267.358 1.693.69c.38.294.787.702 1.206 1.12l.13.131c.948.947 1.766 1.765 2.298 2.46c.272.356.577.815.744 1.348c.712-.084 1.29-.225 1.771-.459a3 3 0 0 0 .828-.587C22 16.657 22 14.771 22 11s0-5.657-1.172-6.828S17.771 3 14 3"/></svg>