<svg viewBox="0 0 24 24"><g fill="none"><path fill="currentColor" d="M10 3.75a.75.75 0 0 0 0-1.5zm4-1.5a.75.75 0 0 0 0 1.5zm-1 19.5a.75.75 0 0 0 0-1.5zm-9.828-1.922l.53-.53zM20.828 4.172l-.53.53zM21.25 13a.75.75 0 0 0 1.5 0zM14 12.75a.75.75 0 0 0 0-1.5zm4-1.5a.75.75 0 0 0 0 1.5zM2.75 13v-1h-1.5v1zm0-1v-1h-1.5v1zM13 20.25h-3v1.5h3zM21.25 11v1h1.5v-1zm-20 2c0 1.864-.002 3.338.153 4.489c.158 1.172.49 2.121 1.238 2.87l1.06-1.06c-.422-.424-.676-1.004-.811-2.01c-.138-1.027-.14-2.382-.14-4.289zM10 20.25c-1.907 0-3.261-.002-4.29-.14c-1.005-.135-1.585-.389-2.008-.812l-1.06 1.06c.748.75 1.697 1.081 2.869 1.239c1.15.155 2.625.153 4.489.153zm4-16.5c1.907 0 3.262.002 4.29.14c1.005.135 1.585.389 2.008.812l1.06-1.06c-.748-.75-1.697-1.081-2.869-1.239c-1.15-.155-2.625-.153-4.489-.153zM22.75 11c0-1.864.002-3.338-.153-4.489c-.158-1.172-.49-2.121-1.238-2.87l-1.06 1.06c.422.424.676 1.004.811 2.01c.138 1.028.14 2.382.14 4.289zM10 2.25c-1.864 0-3.338-.002-4.489.153c-1.172.158-2.121.49-2.87 1.238l1.06 1.06c.424-.422 1.004-.676 2.01-.811c1.028-.138 2.382-.14 4.289-.14zM2.75 11c0-1.907.002-3.261.14-4.29c.135-1.005.389-1.585.812-2.008l-1.06-1.06c-.75.748-1.081 1.697-1.239 2.869C1.248 7.661 1.25 9.136 1.25 11zm18.5 1v1h1.5v-1zM2 12.75h12v-1.5H2zm16 0h4v-1.5h-4z"/><path stroke="currentColor" stroke-linecap="round" stroke-width="1.5" d="M13.5 7.5H18m-12 10v-2m0-7v-2m3 11v-2m0-7v-2"/><path fill="currentColor" d="M15.584 17.5h-.75zm0 .5l-.488.57c.281.24.695.24.976 0zm1.072.07a.75.75 0 0 0-.975-1.14zm-1.168-1.14a.75.75 0 0 0-.976 1.14zm4.901-.295a.75.75 0 1 0 1.222-.87zm-1.884-2.385c-1.914 0-3.67 1.35-3.67 3.25h1.5c0-.861.857-1.75 2.17-1.75zm-3.67 3.25v.5h1.5v-.5zm1.237 1.07l.584-.5l-.975-1.14l-.585.5zm0-1.14l-.584-.5l-.976 1.14l.584.5zm5.539-1.665c-.666-.935-1.829-1.515-3.106-1.515v1.5c.836 0 1.524.38 1.884.885zM18.495 21v.75zm2.92-2.5h.75zm0-.5l.489-.57a.75.75 0 0 0-.976 0zm-1.071-.07a.75.75 0 0 0 .975 1.14zm1.168 1.14a.75.75 0 0 0 .976-1.14zm-4.901.295a.75.75 0 1 0-1.222.87zm1.884 2.385c1.914 0 3.67-1.35 3.67-3.25h-1.5c0 .861-.857 1.75-2.17 1.75zm3.67-3.25V18h-1.5v.5zm-1.237-1.07l-.584.5l.975 1.14l.585-.5zm0 1.14l.584.5l.976-1.14l-.584-.5zm-5.539 1.665c.666.935 1.829 1.515 3.106 1.515v-1.5c-.836 0-1.524-.38-1.884-.885z"/></g></svg>