<svg viewBox="0 0 24 24"><path fill="currentColor" d="M6 13h12c1.886 0 2.828 0 3.414.586S22 15.114 22 17s0 2.828-.586 3.414S19.886 21 18 21H6c-1.886 0-2.828 0-3.414-.586S2 18.886 2 17s0-2.828.586-3.414S4.114 13 6 13M6 3h12c1.886 0 2.828 0 3.414.586S22 5.114 22 7s0 2.828-.586 3.414S19.886 11 18 11H6c-1.886 0-2.828 0-3.414-.586S2 8.886 2 7s0-2.828.586-3.414S4.114 3 6 3" opacity=".5"/><path fill="currentColor" d="M10.25 7a.75.75 0 0 1 .75-.75h7a.75.75 0 0 1 0 1.5h-7a.75.75 0 0 1-.75-.75m-5 0A.75.75 0 0 1 6 6.25h2a.75.75 0 0 1 0 1.5H6A.75.75 0 0 1 5.25 7m5 10a.75.75 0 0 1 .75-.75h7a.75.75 0 0 1 0 1.5h-7a.75.75 0 0 1-.75-.75m-5 0a.75.75 0 0 1 .75-.75h2a.75.75 0 0 1 0 1.5H6a.75.75 0 0 1-.75-.75"/></svg>