<svg viewBox="0 0 24 24"><path fill="currentColor" fill-rule="evenodd" d="M3.172 4.172C2 5.343 2 7.229 2 11v.25h20V11c0-3.771 0-5.657-1.172-6.828S17.771 3 14 3h-4C6.229 3 4.343 3 3.172 4.172M22 12.75H2V13c0 3.771 0 5.657 1.172 6.828S6.229 21 10 21h4c3.771 0 5.657 0 6.828-1.172S22 16.771 22 13zM5.25 17.5a.75.75 0 0 0 1.5 0v-2a.75.75 0 0 0-1.5 0zm3.75.75a.75.75 0 0 1-.75-.75v-2a.75.75 0 0 1 1.5 0v2a.75.75 0 0 1-.75.75m4.5-2.5a.75.75 0 0 0 0 1.5H18a.75.75 0 0 0 0-1.5zM9 9.25a.75.75 0 0 1-.75-.75v-2a.75.75 0 0 1 1.5 0v2a.75.75 0 0 1-.75.75M5.25 8.5a.75.75 0 0 0 1.5 0v-2a.75.75 0 0 0-1.5 0zm7.5-1a.75.75 0 0 1 .75-.75H18a.75.75 0 0 1 0 1.5h-4.5a.75.75 0 0 1-.75-.75" clip-rule="evenodd"/></svg>