<svg viewBox="0 0 24 24"><g fill="currentColor" fill-rule="evenodd" clip-rule="evenodd"><path d="M3.172 19.828C4.343 21 6.229 21 10 21h3.89a5.47 5.47 0 0 1-.89-3q0-.452.07-.885a.75.75 0 0 1 .41-1.365a5.52 5.52 0 0 1 3.376-3H2V13c0 3.771 0 5.657 1.172 6.828M6 18.25a.75.75 0 0 1-.75-.75v-2a.75.75 0 0 1 1.5 0v2a.75.75 0 0 1-.75.75m3 0a.75.75 0 0 1-.75-.75v-2a.75.75 0 0 1 1.5 0v2a.75.75 0 0 1-.75.75M3.172 4.172C2 5.343 2 7.229 2 11v.25h20V11c0-3.771 0-5.657-1.172-6.828S17.771 3 14 3h-4C6.229 3 4.343 3 3.172 4.172M9 9.25a.75.75 0 0 1-.75-.75v-2a.75.75 0 0 1 1.5 0v2a.75.75 0 0 1-.75.75M5.25 8.5a.75.75 0 0 0 1.5 0v-2a.75.75 0 0 0-1.5 0zm7.5-1a.75.75 0 0 1 .75-.75H18a.75.75 0 0 1 0 1.5h-4.5a.75.75 0 0 1-.75-.75"/><path d="M14.929 16.753c.389-1.497 1.924-2.503 3.576-2.503c1.277 0 2.44.58 3.106 1.515a.75.75 0 1 1-1.222.87c-.36-.505-1.048-.885-1.884-.885c-.967 0-1.687.482-2 1.08a.75.75 0 0 1 .15 1.24l-.583.5a.75.75 0 0 1-.976 0l-.584-.5a.75.75 0 0 1 .417-1.317m6 .677a.75.75 0 0 1 .975 0l.584.5a.75.75 0 0 1-.417 1.317c-.389 1.497-1.924 2.503-3.576 2.503c-1.277 0-2.44-.58-3.106-1.515a.75.75 0 1 1 1.222-.87c.36.505 1.048.885 1.884.885c.967 0 1.687-.482 2-1.08a.75.75 0 0 1-.151-1.24z"/></g></svg>