<svg viewBox="0 0 24 24"><path fill="currentColor" fill-rule="evenodd" d="M5.948 1.5h12.104c.899 0 1.648 0 2.242.08c.628.084 1.195.27 1.65.725c.456.456.642 1.023.726 1.65c.08.595.08 1.345.08 2.243v.104c0 .898 0 1.648-.08 2.242c-.084.628-.27 1.195-.726 1.65c-.455.456-1.022.642-1.65.726c-.594.08-1.343.08-2.242.08H5.948c-.898 0-1.648 0-2.242-.08c-.628-.084-1.195-.27-1.65-.726c-.456-.455-.642-1.022-.726-1.65c-.08-.594-.08-1.344-.08-2.242v-.104c0-.898 0-1.648.08-2.242c.084-.628.27-1.195.725-1.65c.456-.456 1.023-.642 1.65-.726C4.3 1.5 5.05 1.5 5.949 1.5M3.905 3.067c-.461.062-.659.169-.789.3s-.237.327-.3.788c-.064.483-.066 1.131-.066 2.095s.002 1.612.067 2.095c.062.461.169.659.3.789s.327.237.788.3C4.388 9.497 5.036 9.5 6 9.5h12c.964 0 1.612-.002 2.095-.067c.461-.062.659-.169.789-.3s.237-.327.3-.788c.064-.483.066-1.131.066-2.095s-.002-1.612-.067-2.095c-.062-.461-.169-.659-.3-.789s-.327-.237-.788-.3C19.612 3.003 18.964 3 18 3H6c-.964 0-1.612.002-2.095.067M5.25 6.25A.75.75 0 0 1 6 5.5h2A.75.75 0 1 1 8 7H6a.75.75 0 0 1-.75-.75m5 0A.75.75 0 0 1 11 5.5h7A.75.75 0 0 1 18 7h-7a.75.75 0 0 1-.75-.75M5.948 12.5h12.104c.899 0 1.648 0 2.242.08c.628.084 1.195.27 1.65.726c.456.455.642 1.022.726 1.65c.08.594.08 1.343.08 2.242v.104c0 .899 0 1.648-.08 2.242c-.084.628-.27 1.195-.726 1.65c-.455.456-1.022.642-1.65.726c-.594.08-1.343.08-2.242.08H5.948c-.898 0-1.648 0-2.242-.08c-.628-.084-1.195-.27-1.65-.726c-.456-.455-.642-1.022-.726-1.65c-.08-.594-.08-1.343-.08-2.242v-.104c0-.899 0-1.648.08-2.242c.084-.628.27-1.195.725-1.65c.456-.456 1.023-.642 1.65-.726c.595-.08 1.345-.08 2.243-.08m-2.043 1.566c-.461.063-.659.17-.789.3s-.237.328-.3.79c-.064.482-.066 1.13-.066 2.094s.002 1.612.067 2.095c.062.461.169.659.3.789s.327.237.788.3c.483.064 1.131.066 2.095.066h12c.964 0 1.612-.002 2.095-.067c.461-.062.659-.169.789-.3s.237-.327.3-.788c.064-.483.066-1.131.066-2.095s-.002-1.612-.067-2.095c-.062-.461-.169-.659-.3-.789s-.327-.237-.788-.3C19.612 14.003 18.964 14 18 14H6c-.964 0-1.612.002-2.095.066M5.25 17.25A.75.75 0 0 1 6 16.5h2A.75.75 0 0 1 8 18H6a.75.75 0 0 1-.75-.75m5 0a.75.75 0 0 1 .75-.75h7a.75.75 0 0 1 0 1.5h-7a.75.75 0 0 1-.75-.75" clip-rule="evenodd"/></svg>