<svg viewBox="0 0 24 24"><path fill="currentColor" fill-rule="evenodd" d="M11.302 13.737h7.209c1.541 0 2.79-1.202 2.79-2.684s-1.248-2.685-2.79-2.685c1.541 0 2.79-1.201 2.79-2.684c0-1.482-1.248-2.684-2.79-2.684H5.488c-1.541 0-2.79 1.202-2.79 2.684s1.249 2.684 2.79 2.684c-1.541 0-2.79 1.202-2.79 2.685c0 1.482 1.249 2.684 2.79 2.684zm1.628-8.724c-.386 0-.698.3-.698.671c0 .37.313.671.698.671h5.581c.386 0 .698-.3.698-.67a.685.685 0 0 0-.698-.672zm0 5.369c-.386 0-.698.3-.698.67s.313.672.698.672h5.581c.386 0 .698-.3.698-.671a.685.685 0 0 0-.698-.671zM7.348 5.684c0 .494-.416.895-.93.895s-.93-.4-.93-.895c0-.494.416-.895.93-.895s.93.401.93.895m0 5.369c0 .494-.416.894-.93.894s-.93-.4-.93-.894c0-.495.416-.895.93-.895s.93.4.93.895" clip-rule="evenodd"/><path fill="currentColor" d="M22 18.211a.685.685 0 0 0-.698-.671h-7.577a1.83 1.83 0 0 0-1.027-.988v-2.815h-1.396v2.815c-.466.181-.838.54-1.027.988H2.698c-.386 0-.698.3-.698.671c0 .37.312.671.698.671h7.577A1.86 1.86 0 0 0 12 20c.78 0 1.45-.462 1.725-1.118h7.577c.386 0 .698-.3.698-.671" opacity=".6"/></svg>