<svg viewBox="0 0 24 24"><path fill="currentColor" fill-rule="evenodd" d="M22 18.21a.685.685 0 0 0-.698-.67h-7.577a1.83 1.83 0 0 0-1.027-.989v-2.814h5.814c1.54 0 2.79-1.202 2.79-2.684s-1.25-2.685-2.79-2.685c1.54 0 2.79-1.201 2.79-2.684c0-1.482-1.25-2.684-2.79-2.684H5.488c-1.54 0-2.79 1.202-2.79 2.684s1.25 2.684 2.79 2.684c-1.54 0-2.79 1.202-2.79 2.685c0 1.482 1.25 2.684 2.79 2.684h5.814v2.814c-.466.182-.838.54-1.027.989H2.698c-.386 0-.698.3-.698.67s.312.672.698.672h7.577A1.86 1.86 0 0 0 12 20c.78 0 1.45-.463 1.725-1.118h7.577c.386 0 .698-.3.698-.672M12.233 5.685c0-.37.312-.67.697-.67h5.582c.385 0 .697.3.697.67s-.312.671-.697.671H12.93a.685.685 0 0 1-.697-.67m0 5.369c0-.371.312-.671.697-.671h5.582c.385 0 .697.3.697.67s-.312.672-.697.672H12.93a.685.685 0 0 1-.697-.671M6.419 6.579c.513 0 .93-.4.93-.895c0-.494-.417-.895-.93-.895s-.93.401-.93.895s.416.895.93.895m0 5.368c.513 0 .93-.4.93-.894c0-.495-.417-.895-.93-.895s-.93.4-.93.895c0 .494.416.894.93.894" clip-rule="evenodd"/></svg>