<svg viewBox="0 0 24 24"><path fill="currentColor" d="M10 21c-3.771 0-5.657 0-6.828-1.172S2 16.771 2 13v-.25h20V13c0 1.12 0 2.073-.03 2.89l-.015-.01c-.479-1.352-1.728-2.38-3.288-2.38c-1.512 0-2.728.96-3.239 2.25H13.5a.75.75 0 0 0 0 1.5h.857a3.16 3.16 0 0 0-.857 2.162c0 .567.154 1.115.43 1.588zm0-18h4c3.771 0 5.657 0 6.828 1.172S22 7.229 22 11v.25H2V11c0-3.771 0-5.657 1.172-6.828S6.229 3 10 3" opacity=".5"/><path fill="currentColor" fill-rule="evenodd" d="M20.654 16.88c-.111-1.057-.958-1.88-1.987-1.88c-.845 0-1.568.555-1.861 1.34a2.22 2.22 0 0 0-.015 1.513a1.46 1.46 0 0 0-1.4.49A1.63 1.63 0 0 0 15 19.412c0 .877.672 1.588 1.5 1.588H20c1.105 0 2-.948 2-2.118c0-.927-.562-1.714-1.346-2.001" clip-rule="evenodd"/><path fill="currentColor" d="M20.654 16.88c-.111-1.057-.958-1.88-1.987-1.88c-.845 0-1.568.555-1.861 1.34a2.22 2.22 0 0 0-.015 1.513a1.46 1.46 0 0 0-1.4.49A1.63 1.63 0 0 0 15 19.412c0 .877.672 1.588 1.5 1.588H20c1.105 0 2-.948 2-2.118c0-.927-.562-1.714-1.346-2.001M12.75 7.5a.75.75 0 0 1 .75-.75H18a.75.75 0 0 1 0 1.5h-4.5a.75.75 0 0 1-.75-.75M6 18.25a.75.75 0 0 1-.75-.75v-2a.75.75 0 0 1 1.5 0v2a.75.75 0 0 1-.75.75m0-9a.75.75 0 0 1-.75-.75v-2a.75.75 0 0 1 1.5 0v2a.75.75 0 0 1-.75.75m3 9a.75.75 0 0 1-.75-.75v-2a.75.75 0 0 1 1.5 0v2a.75.75 0 0 1-.75.75m0-9a.75.75 0 0 1-.75-.75v-2a.75.75 0 0 1 1.5 0v2a.75.75 0 0 1-.75.75"/><path fill="currentColor" fill-rule="evenodd" d="M22 12.75H2v-1.5h20z" clip-rule="evenodd"/></svg>