<svg viewBox="0 0 24 24"><path fill="currentColor" fill-rule="evenodd" d="M12.428 2c-1.114 0-2.129.6-4.157 1.802l-.686.406C5.555 5.41 4.542 6.011 3.985 7c-.557.99-.557 2.19-.557 4.594v.812c0 2.403 0 3.605.557 4.594s1.57 1.59 3.6 2.791l.686.407C10.299 21.399 11.314 22 12.428 22s2.128-.6 4.157-1.802l.686-.407c2.028-1.2 3.043-1.802 3.6-2.791c.557-.99.557-2.19.557-4.594v-.812c0-2.403 0-3.605-.557-4.594s-1.572-1.59-3.6-2.792l-.686-.406C14.555 2.601 13.542 2 12.428 2" clip-rule="evenodd" opacity=".5"/><path fill="currentColor" d="M12.428 8.25a3.75 3.75 0 1 0 0 7.5a3.75 3.75 0 0 0 0-7.5"/></svg>