<svg viewBox="0 0 24 24"><path fill="currentColor" fill-rule="evenodd" d="M16.5 2.25a3.25 3.25 0 0 0-3.2 3.824L8.57 9.386l-.068.053a3.25 3.25 0 1 0 0 5.121l.068.054l4.73 3.312q-.05.28-.05.574a3.25 3.25 0 1 0 .667-1.973L9.438 13.39c.2-.422.312-.893.312-1.391s-.112-.97-.312-1.391l4.48-3.136A3.25 3.25 0 1 0 16.5 2.25M14.75 5.5a1.75 1.75 0 1 1 3.5 0a1.75 1.75 0 0 1-3.5 0M6.5 10.25a1.75 1.75 0 1 0 0 3.5a1.75 1.75 0 0 0 0-3.5m10 6.5a1.75 1.75 0 1 0 0 3.5a1.75 1.75 0 0 0 0-3.5" clip-rule="evenodd"/></svg>