<svg viewBox="0 0 24 24"><path fill="currentColor" d="M7.205 7.562a.75.75 0 0 0-.993-1.124A8.73 8.73 0 0 0 3.25 13a.75.75 0 0 0 1.5 0a7.23 7.23 0 0 1 2.455-5.438m10.583-1.124a.75.75 0 0 0-.993 1.124A7.23 7.23 0 0 1 19.25 13a.75.75 0 0 0 1.5 0a8.73 8.73 0 0 0-2.962-6.562m-7.601 13.584a.75.75 0 1 0-.374 1.452a8.8 8.8 0 0 0 4.374 0a.75.75 0 1 0-.374-1.452A7.3 7.3 0 0 1 12 20.25a7.3 7.3 0 0 1-1.813-.228" opacity=".5"/><path fill="currentColor" d="M9 6a3 3 0 1 0 6 0a3 3 0 0 0-6 0M2.5 18a3 3 0 1 0 6 0a3 3 0 0 0-6 0m16 3a3 3 0 1 1 0-6a3 3 0 0 1 0 6"/></svg>