<svg viewBox="0 0 24 24"><g fill="currentColor" fill-rule="evenodd" clip-rule="evenodd"><path d="M6.25 12a5.75 5.75 0 1 1 11.5 0a5.75 5.75 0 0 1-11.5 0m5.694-4.232A.1.1 0 0 1 12 7.75c.004 0 .021 0 .056.018a.7.7 0 0 1 .17.134c.153.158.328.431.492.841c.162.404.296.901.39 1.466q.083.502.118 1.041h-2.452q.035-.539.118-1.04a7 7 0 0 1 .39-1.467c.164-.41.34-.683.492-.841a.7.7 0 0 1 .17-.134M9.27 11.25c.025-.439.073-.871.141-1.286a9 9 0 0 1 .415-1.617a4.25 4.25 0 0 0-2.01 2.903zm-1.454 1.5H9.27c.025.439.073.871.141 1.286a9 9 0 0 0 .415 1.617a4.25 4.25 0 0 1-2.01-2.903m8.366-1.5a4.25 4.25 0 0 0-2.01-2.903c.18.486.318 1.034.415 1.617c.068.415.116.847.14 1.286zm-1.454 1.5h1.454a4.25 4.25 0 0 1-2.01 2.903c.18-.486.318-1.034.415-1.617c.068-.415.116-.847.14-1.286m-1.503 0a11 11 0 0 1-.118 1.04a7 7 0 0 1-.39 1.467c-.164.41-.34.683-.492.841a.7.7 0 0 1-.17.134a.1.1 0 0 1-.056.018c-.004 0-.021 0-.056-.018a.7.7 0 0 1-.17-.134c-.153-.158-.328-.431-.492-.841a7 7 0 0 1-.39-1.466a11 11 0 0 1-.118-1.041z"/><path d="M12 1.25c-.937 0-1.833.307-3.277.801l-.727.25c-1.481.506-2.625.898-3.443 1.23c-.412.167-.767.33-1.052.495c-.275.16-.55.359-.737.626c-.185.263-.281.587-.341.9c-.063.324-.1.713-.125 1.16c-.048.886-.048 2.102-.048 3.678v1.601c0 6.101 4.608 9.026 7.348 10.224l.027.011c.34.149.66.288 1.027.382c.387.1.799.142 1.348.142c.55 0 .96-.042 1.348-.142c.367-.094.687-.233 1.026-.382l.028-.011c2.74-1.198 7.348-4.123 7.348-10.224V10.39c0-1.576 0-2.792-.048-3.679a9 9 0 0 0-.125-1.16c-.06-.312-.156-.636-.34-.9c-.188-.266-.463-.465-.738-.625a9 9 0 0 0-1.052-.495c-.818-.332-1.962-.724-3.443-1.23l-.727-.25c-1.444-.494-2.34-.801-3.277-.801M9.08 3.514c1.615-.552 2.262-.764 2.92-.764s1.305.212 2.92.764l.572.196c1.513.518 2.616.896 3.39 1.21c.387.158.667.29.864.404q.144.084.208.139c.038.03.053.048.055.05a.4.4 0 0 1 .032.074q.03.082.063.248a7 7 0 0 1 .1.958c.046.841.046 2.015.046 3.624v1.574c0 5.176-3.87 7.723-6.449 8.849c-.371.162-.586.254-.825.315c-.228.059-.506.095-.976.095s-.748-.036-.976-.095c-.24-.06-.454-.153-.825-.315c-2.58-1.126-6.449-3.674-6.449-8.849v-1.574c0-1.609 0-2.783.046-3.624a7 7 0 0 1 .1-.958q.032-.166.063-.248c.018-.05.03-.07.032-.074a.4.4 0 0 1 .055-.05q.064-.055.208-.14c.197-.114.477-.245.864-.402c.774-.315 1.877-.693 3.39-1.21z"/></g></svg>