<svg viewBox="0 0 24 24"><path fill="currentColor" fill-rule="evenodd" d="M8.723 2.051c1.444-.494 2.34-.801 3.277-.801s1.833.307 3.277.801l.727.25c1.481.506 2.625.898 3.443 1.23c.412.167.767.33 1.052.495c.275.16.55.359.737.626c.185.263.281.587.341.9c.063.324.1.713.125 1.16c.048.886.048 2.102.048 3.678v1.601c0 6.101-4.608 9.026-7.348 10.224l-.027.011c-.34.149-.66.288-1.027.382c-.387.1-.799.142-1.348.142c-.55 0-.96-.042-1.348-.142c-.367-.094-.687-.233-1.027-.382l-.027-.011C6.858 21.017 2.25 18.092 2.25 11.99v-1.6c0-1.576 0-2.792.048-3.679c.025-.446.062-.835.125-1.16c.06-.312.156-.636.34-.9c.188-.266.463-.465.738-.625c.285-.165.64-.328 1.052-.495c.818-.332 1.962-.724 3.443-1.23zm2.527.787c-.498.108-1.135.322-2.17.676l-.572.196c-1.513.518-2.616.896-3.39 1.21a7 7 0 0 0-.864.404a2 2 0 0 0-.208.139a.4.4 0 0 0-.055.05a.4.4 0 0 0-.032.074q-.03.082-.063.248a7 7 0 0 0-.1.958c-.041.76-.046 1.79-.046 3.166l7.5-2.5zm1.5 0v4.621l7.5 2.5c0-1.376-.005-2.407-.046-3.166a7 7 0 0 0-.1-.958a2 2 0 0 0-.063-.248a.4.4 0 0 0-.032-.074a.4.4 0 0 0-.055-.05a2 2 0 0 0-.208-.14a7 7 0 0 0-.864-.402c-.774-.315-1.877-.693-3.39-1.21l-.573-.197c-1.034-.354-1.671-.568-2.169-.676m-1.5 6.203l-7.5 2.5v.45c0 5.176 3.87 7.723 6.449 8.849c.371.162.586.254.825.315q.103.027.226.047zm1.5 12.161V9.041l7.5 2.5v.45c0 5.176-3.87 7.723-6.449 8.849c-.371.162-.586.254-.825.315q-.103.027-.226.047" clip-rule="evenodd"/></svg>