<svg viewBox="0 0 24 24"><path fill="currentColor" fill-rule="evenodd" d="M7.955 1.25h8.09c.433 0 .83 0 1.152.043c.356.048.731.16 1.04.47s.422.684.47 1.04c.043.323.043.72.043 1.152v.09c0 .433 0 .83-.043 1.152c-.048.356-.16.731-.47 1.04s-.684.422-1.04.47c-.323.043-.72.043-1.152.043H14.75v2.164l1.432.358a.75.75 0 0 1-.364 1.456l-1.068-.267v1.954l1.432.357a.75.75 0 0 1-.364 1.456l-1.068-.267v.417a2.251 2.251 0 0 1-.321 4.331a2.75 2.75 0 1 1-4.858 0a2.25 2.25 0 0 1-.321-4.331v-1.792l-1.432-.358a.75.75 0 0 1 .364-1.456l1.068.268V9.086l-1.432-.358a.75.75 0 0 1 .364-1.456l1.068.267V6.75H7.955c-.433 0-.83 0-1.152-.043c-.356-.048-.731-.16-1.04-.47s-.422-.684-.47-1.04c-.043-.323-.043-.72-.043-1.152v-.09c0-.433 0-.83.043-1.152c.048-.356.16-.731.47-1.04s.684-.422 1.04-.47c.323-.043.72-.043 1.152-.043m2.795 5.5v1.164l2.5.625V6.75zm2.5 3.336l-2.5-.625v1.954l2.5.625zm0 3.5l-2.5-.625v1.289h2.5zM12 18.75a1.25 1.25 0 1 0 0 2.5a1.25 1.25 0 0 0 0-2.5m2-1.5a.75.75 0 0 0 0-1.5h-4a.75.75 0 0 0 0 1.5zM6.826 2.822l-.003.001l-.001.003l-.005.01a.7.7 0 0 0-.037.167c-.028.21-.03.504-.03.997s.002.787.03.997a.7.7 0 0 0 .042.177l.001.003l.003.001l.01.005c.022.009.07.024.167.037c.21.028.504.03.997.03h8c.493 0 .787-.002.997-.03a.7.7 0 0 0 .177-.042l.003-.001l.001-.003l.005-.01a.7.7 0 0 0 .037-.167c.028-.21.03-.504.03-.997s-.002-.787-.03-.997a.7.7 0 0 0-.042-.177l-.001-.003l-.003-.001l-.01-.005a.7.7 0 0 0-.167-.037c-.21-.028-.504-.03-.997-.03H8c-.493 0-.787.002-.997.03a.7.7 0 0 0-.177.042m-3.137 4.65a.75.75 0 0 1 1.06-.005l.707.7a.75.75 0 1 1-1.055 1.066l-.707-.7a.75.75 0 0 1-.005-1.06m16.622 0a.75.75 0 0 1-.005 1.06l-.707.7a.75.75 0 1 1-1.055-1.065l.707-.7a.75.75 0 0 1 1.06.005M19.25 11.5a.75.75 0 0 1 .75-.75h2a.75.75 0 0 1 0 1.5h-2a.75.75 0 0 1-.75-.75m-18 .001a.75.75 0 0 1 .75-.75h2a.75.75 0 0 1 0 1.5H2a.75.75 0 0 1-.75-.75m4.212 2.272a.75.75 0 0 1-.006 1.061l-.707.7a.75.75 0 0 1-1.055-1.066l.707-.7a.75.75 0 0 1 1.06.005m13.076 0a.75.75 0 0 1 1.06-.005l.708.7a.75.75 0 0 1-1.055 1.066l-.707-.7a.75.75 0 0 1-.006-1.06" clip-rule="evenodd"/></svg>