<svg viewBox="0 0 24 24"><path fill="currentColor" d="M2 16.25a.75.75 0 0 0 0 1.5zm8.748-2.163l-.643-.386zm2.504-4.174l.643.386zM22 7l.53.53a.75.75 0 0 0 0-1.06zm-2.53 1.47a.75.75 0 0 0 1.06 1.06zm1.06-4a.75.75 0 1 0-1.06 1.06zm-5.31 2.92l-.369-.653zM2 17.75h3.603v-1.5H2zm9.39-3.277l2.505-4.174l-1.286-.772l-2.504 4.174zm7.007-6.723H22v-1.5h-3.603zm3.073-1.28l-2 2l1.06 1.06l2-2zm1.06 0l-2-2l-1.06 1.06l2 2zm-8.635 3.829c.434-.724.734-1.22 1.006-1.589c.263-.355.468-.543.689-.668l-.739-1.305c-.467.264-.82.627-1.155 1.08c-.326.44-.668 1.011-1.087 1.71zm4.502-4.049c-.815 0-1.48 0-2.025.052c-.562.055-1.054.17-1.521.435l.739 1.305c.22-.125.487-.204.927-.247c.456-.044 1.036-.045 1.88-.045zM5.603 17.75c.815 0 1.48 0 2.025-.052c.562-.055 1.054-.17 1.521-.435l-.739-1.305c-.22.125-.487.204-.927.247c-.456.044-1.036.045-1.88.045zm4.502-4.049c-.435.724-.734 1.22-1.006 1.589c-.263.355-.468.543-.689.668l.74 1.305c.466-.264.819-.627 1.154-1.08c.326-.44.668-1.011 1.087-1.71zM2 6.25a.75.75 0 0 0 0 1.5zM22 17l.53.53a.75.75 0 0 0 0-1.06zm-1.47-2.53a.75.75 0 1 0-1.06 1.06zm-1.06 4a.75.75 0 1 0 1.06 1.06zm-3.345-1.525l.144-.736zm-1.682-2.33a.75.75 0 1 0-1.286.77zm.025 1.391l.558-.501zm-6.593-8.95l.143-.737zm1.682 2.33a.75.75 0 0 0 1.286-.772zm-.025-1.393l-.558.502zM2 7.75h4.668v-1.5H2zm15.332 10H22v-1.5h-4.668zm5.198-1.28l-2-2l-1.06 1.06l2 2zm-1.06 0l-2 2l1.06 1.06l2-2zm-4.138-.22c-.645 0-.867-.003-1.063-.041l-.287 1.472c.372.072.765.069 1.35.069zm-4.175-.864c.3.502.5.84.754 1.122l1.115-1.003c-.134-.149-.25-.337-.583-.89zm3.112.823a2.25 2.25 0 0 1-1.243-.704l-1.115 1.003a3.75 3.75 0 0 0 2.071 1.173zM6.668 7.75c.645 0 .867.003 1.063.041l.287-1.472c-.372-.072-.765-.069-1.35-.069zm4.175.864c-.3-.502-.5-.84-.754-1.122L8.974 8.495c.134.149.25.337.583.89zm-3.112-.823c.48.094.916.34 1.243.704l1.115-1.003a3.75 3.75 0 0 0-2.071-1.173z"/></svg>