<svg viewBox="0 0 24 24"><path fill="currentColor" d="M5.5 9.25a.75.75 0 0 0 0 1.5h6a.75.75 0 0 0 0-1.5zM5.75 14a.75.75 0 0 1 .75-.75h4a.75.75 0 0 1 0 1.5h-4a.75.75 0 0 1-.75-.75"/><path fill="currentColor" fill-rule="evenodd" d="M9.944 2.25c-1.838 0-3.294 0-4.433.153c-1.172.158-2.121.49-2.87 1.238c-.748.749-1.08 1.698-1.238 2.87c-.153 1.14-.153 2.595-.153 4.433v2.112c0 1.838 0 3.294.153 4.433c.158 1.172.49 2.121 1.238 2.87c.749.748 1.698 1.08 2.87 1.238c1.14.153 2.595.153 4.433.153h5.022l.072-.001c1.384-.004 2.523-.027 3.451-.152c1.172-.158 2.121-.49 2.87-1.238c.748-.749 1.08-1.698 1.238-2.87c.153-1.14.153-2.595.153-4.433v-2.112c0-1.838 0-3.294-.153-4.433c-.158-1.172-.49-2.121-1.238-2.87c-.749-.748-1.698-1.08-2.87-1.238c-.928-.125-2.067-.148-3.45-.152h-.073l-.91-.001zm4.306 1.5H10c-1.907 0-3.261.002-4.29.14c-1.005.135-1.585.389-2.008.812S3.025 5.705 2.89 6.71c-.138 1.029-.14 2.383-.14 4.29v2c0 1.907.002 3.262.14 4.29c.135 1.005.389 1.585.812 2.008s1.003.677 2.009.812c1.028.138 2.382.14 4.289.14h4.25zm1.5 16.494c1.034-.01 1.858-.042 2.54-.134c1.005-.135 1.585-.389 2.008-.812s.677-1.003.812-2.009c.138-1.027.14-2.382.14-4.289v-2c0-1.907-.002-3.261-.14-4.29c-.135-1.005-.389-1.585-.812-2.008s-1.003-.677-2.009-.812c-.68-.092-1.505-.123-2.539-.134z" clip-rule="evenodd"/></svg>