<svg viewBox="0 0 24 24"><path fill="currentColor" d="M9.702 14.263a.75.75 0 1 0-1.404-.526l-1.5 4a.75.75 0 1 0 1.404.526zm-3.172.267a.75.75 0 1 0-1.06-1.06l-1 1a.75.75 0 0 0 0 1.06l1 1a.75.75 0 0 0 1.06-1.06L6.06 15zm4.5.94a.75.75 0 1 0-1.06 1.06l.47.47l-.47.47a.75.75 0 1 0 1.06 1.06l1-1a.75.75 0 0 0 0-1.06z"/><path fill="currentColor" fill-rule="evenodd" d="M9.944 2.25h4.112l.982.001c1.384.004 2.523.027 3.451.152c1.172.158 2.121.49 2.87 1.238c.748.749 1.08 1.698 1.238 2.87c.153 1.14.153 2.595.153 4.433v2.112c0 1.838 0 3.294-.153 4.433c-.158 1.172-.49 2.121-1.238 2.87c-.749.748-1.698 1.08-2.87 1.238c-.928.125-2.067.148-3.45.152h-.073l-.905.001H9.944c-1.838 0-3.294 0-4.433-.153c-1.172-.158-2.121-.49-2.87-1.238c-.748-.749-1.08-1.698-1.238-2.87c-.153-1.14-.153-2.595-.153-4.433v-2.112c0-1.838 0-3.294.153-4.433c.158-1.172.49-2.121 1.238-2.87c.749-.748 1.698-1.08 2.87-1.238c1.14-.153 2.595-.153 4.433-.153m4.306 1.5v16.5H10c-1.907 0-3.261-.002-4.29-.14c-1.005-.135-1.585-.389-2.008-.812s-.677-1.003-.812-2.009c-.138-1.027-.14-2.382-.14-4.289v-2c0-1.907.002-3.261.14-4.29c.135-1.005.389-1.585.812-2.008s1.003-.677 2.009-.812c1.028-.138 2.382-.14 4.289-.14zm4.04 16.36c-.682.092-1.506.123-2.54.134V3.756c1.034.01 1.858.042 2.54.134c1.005.135 1.585.389 2.008.812s.677 1.003.812 2.009c.138 1.028.14 2.382.14 4.289v2c0 1.907-.002 3.262-.14 4.29c-.135 1.005-.389 1.585-.812 2.008s-1.003.677-2.009.812" clip-rule="evenodd"/></svg>