<svg viewBox="0 0 24 24"><path fill="currentColor" fill-rule="evenodd" d="M3.172 20.828C4.343 22 6.229 22 10 22s5.657 0 6.828-1.172S18 17.771 18 14a3.86 3.86 0 0 0-1.136-2.731l-4.133-4.133A3.86 3.86 0 0 0 10 6C6.229 6 4.343 6 3.172 7.172S2 10.229 2 14s0 5.657 1.172 6.828M11 14c.943 0 1.414 0 1.707.293S13 15.057 13 16h-2.5v-2zm-1.5 5H9c-.943 0-1.414 0-1.707-.293S7 17.943 7 17v-1c0-.943 0-1.414.293-1.707S8.057 14 9 14h.5zm1.5 0h-.5v-2H13c0 .943 0 1.414-.293 1.707S11.943 19 11 19" clip-rule="evenodd"/><path fill="currentColor" d="M6.093 6.093c.123-1.352.41-2.253 1.079-2.921C8.343 2 10.229 2 14 2a3.86 3.86 0 0 1 2.731 1.136l4.133 4.133A3.86 3.86 0 0 1 22 10c0 3.771 0 5.657-1.172 6.828c-.668.669-1.57.956-2.92 1.08C18 16.89 18 15.618 18 14a3.86 3.86 0 0 0-1.136-2.731l-4.133-4.133A3.86 3.86 0 0 0 10.001 6c-1.62 0-2.892 0-3.908.093" opacity=".5"/></svg>