<svg viewBox="0 0 24 24"><path fill="currentColor" d="m2.08 17.953l-.717-.217zm19.84 0l.717-.217zM2.734 19.829l.385-.643zm18.53 0l-.385-.643zm-10.7-13.736a.75.75 0 1 0-1.488-.186zM7.148 21.407a.75.75 0 0 0 1.489.186zm7.776-15.5a.75.75 0 0 0-1.489.186zm.441 15.686a.75.75 0 0 0 1.488-.186zm4.572-12.81a.75.75 0 0 0-1.436.434zm-16.85 8.434a.75.75 0 1 0-1.436-.434zm-.23-4.434a.75.75 0 1 0 1.437.434zM7.893 2.75h8.216v-1.5H7.892zM17.412 4v1h1.5V4zm.25.75H5.838v1.5h11.824zM6.588 5.5V4h-1.5v1.5zm9.52-2.75c.505 0 .81.002 1.03.03a.8.8 0 0 1 .198.048l.002.002l1.047-1.074c-.314-.306-.693-.416-1.052-.463c-.34-.045-.761-.043-1.225-.043zM18.912 4c0-.45.002-.864-.044-1.2c-.05-.36-.167-.736-.483-1.044L17.338 2.83h.001l.001.003l.005.01a.7.7 0 0 1 .037.162c.029.21.03.502.03.995zM7.892 1.25c-.464 0-.885-.002-1.225.043c-.359.047-.738.157-1.052.463L6.662 2.83l.002-.002l.018-.008a.8.8 0 0 1 .18-.04c.22-.028.525-.03 1.03-.03zM6.588 4c0-.493.001-.786.03-.995a.7.7 0 0 1 .043-.174L5.616 1.755c-.316.308-.433.685-.483 1.044c-.046.336-.044.75-.044 1.2zm-4.24 16.472c1.533.92 4.649 2.278 9.652 2.278v-1.5c-4.717 0-7.567-1.276-8.88-2.064zM12 22.75c5.003 0 8.119-1.358 9.651-2.278l-.771-1.286c-1.313.788-4.163 2.064-8.88 2.064zm9.201-4.58c.136.45-.017.833-.321 1.016l.771 1.286c1-.6 1.282-1.755.986-2.736zm-19.838-.434c-.296.982-.014 2.136.986 2.736l.771-1.286c-.304-.183-.457-.566-.321-1.017zM9.077 5.907l-1.93 15.5l1.489.186l1.93-15.5zm4.357.186l1.93 15.5l1.488-.186l-1.93-15.5zm9.203 11.643l-2.7-8.953l-1.437.434l2.701 8.952zM1.65 16.783l-.287.953l1.436.433l.287-.952zm3.47-11.5l-2.263 7.5l1.436.434l2.263-7.5zM17.412 5a.25.25 0 0 1 .25-.25v1.5c.69 0 1.25-.56 1.25-1.25z"/></svg>