<svg viewBox="0 0 24 24"><path fill="currentColor" d="M7.604 4.604C9.34 2.868 10.208 2 11.286 2c1.079 0 1.947.868 3.682 2.604l4.42 4.419c1.735 1.735 2.603 2.603 2.603 3.682s-.868 1.946-2.604 3.682s-2.604 2.604-3.682 2.604c-1.079 0-1.947-.868-3.682-2.604l-4.42-4.419C5.869 10.233 5 9.365 5 8.286s.868-1.946 2.604-3.682m-.32 9.166l-4.458 4.458c-.343.343-.514.514-.617.692a1.56 1.56 0 0 0 0 1.562c.103.178.274.35.617.692s.513.514.692.617a1.56 1.56 0 0 0 1.562 0c.178-.103.35-.275.692-.617l4.458-4.458z"/><path fill="currentColor" d="m8.345 12.71l.004-.005l2.946 2.946l-.005.004zm11.324-5.527a1.56 1.56 0 0 0-.024-1.52c-.103-.178-.275-.349-.617-.691c-.342-.343-.514-.514-.692-.617a1.56 1.56 0 0 0-1.519-.024z"/></svg>