<svg viewBox="0 0 24 24"><path fill="none" stroke="currentColor" stroke-linecap="round" stroke-width="1.5" d="m18.66 8.286l.368-.368c.342-.343.514-.514.617-.692a1.56 1.56 0 0 0 0-1.562c-.103-.178-.275-.35-.617-.692s-.514-.514-.692-.616a1.56 1.56 0 0 0-1.562 0c-.178.102-.35.274-.692.616l-.368.368m-4.419 10.31l-5.523 5.524c-.343.343-.514.514-.692.617a1.56 1.56 0 0 1-1.562 0c-.179-.103-.35-.274-.692-.617c-.343-.342-.514-.514-.617-.692a1.56 1.56 0 0 1 0-1.562c.103-.178.274-.35.617-.692l5.523-5.523M18 17.75c-.898.827-1.542 1.24-2.286 1.24c-1.079 0-1.947-.868-3.682-2.604l-4.42-4.419C5.878 10.233 5.01 9.365 5.01 8.286s.868-1.946 2.604-3.682S10.217 2 11.295 2c1.079 0 1.947.868 3.682 2.604l4.42 4.419C21.131 10.758 22 11.626 22 12.705c0 .747-.416 1.392-1.248 2.295"/></svg>