<svg viewBox="0 0 24 24"><path fill="currentColor" d="M11 23c5.523 0 10-4.477 10-10S16.523 3 11 3S1 7.477 1 13s4.477 10 10 10" opacity=".5"/><path fill="currentColor" fill-rule="evenodd" d="M16.375 4.65a.75.75 0 1 1-.75-1.3l3.464-2a.75.75 0 0 1 1.1.844l-.996 3.715l1.896-1.094a.75.75 0 1 1 .75 1.299l-3.464 2a.75.75 0 0 1-1.1-.844l.996-3.715zm-3.702 1.5a.75.75 0 1 1 .75-1.3l1.732 1a.75.75 0 0 1-.181 1.374l-.983.264l.164.095a.75.75 0 1 1-.75 1.299l-1.732-1a.75.75 0 0 1 .18-1.374l.984-.264z" clip-rule="evenodd"/><path fill="currentColor" d="M11 18a1 1 0 1 0 0-2a1 1 0 0 0 0 2m.999-6.558a.75.75 0 0 1 1.059.056c.465.517.965.752 1.442.752s.977-.235 1.442-.751a.75.75 0 1 1 1.116 1.002c-.67.744-1.548 1.249-2.558 1.249s-1.889-.505-2.558-1.248a.75.75 0 0 1 .056-1.06m-5.94.057A.75.75 0 1 0 4.942 12.5c.67.744 1.548 1.249 2.558 1.249s1.889-.505 2.558-1.248a.75.75 0 1 0-1.116-1.004c-.464.517-.965.752-1.442.752s-.977-.235-1.442-.751"/></svg>