<svg viewBox="0 0 24 24"><path fill="currentColor" d="M13 16a1 1 0 1 1-2 0a1 1 0 0 1 2 0"/><path fill="currentColor" fill-rule="evenodd" d="M20.92 1.405a.75.75 0 0 1 .268.79l-.995 3.714l1.896-1.094a.75.75 0 1 1 .75 1.299l-3.464 2a.75.75 0 0 1-1.1-.844l.996-3.715l-1.896 1.095a.75.75 0 1 1-.75-1.3l3.464-2a.75.75 0 0 1 .832.055M12 2.75A9.25 9.25 0 1 0 21.25 12a.75.75 0 0 1 1.5 0c0 5.937-4.813 10.75-10.75 10.75S1.25 17.937 1.25 12S6.063 1.25 12 1.25a.75.75 0 0 1 0 1.5m1.398 2.375a.75.75 0 0 1 1.025-.275l1.732 1a.75.75 0 0 1-.181 1.374l-.983.264l.164.095a.75.75 0 0 1-.75 1.299l-1.732-1a.75.75 0 0 1 .18-1.374l.984-.264l-.164-.094a.75.75 0 0 1-.275-1.025m-7.4 5.317a.75.75 0 0 1 1.06.056c.464.517.965.752 1.442.752s.978-.235 1.442-.751a.75.75 0 1 1 1.116 1.002c-.67.744-1.548 1.249-2.558 1.249s-1.889-.505-2.558-1.248a.75.75 0 0 1 .056-1.06m7 0a.75.75 0 0 1 1.06.056c.465.517.965.752 1.442.752s.977-.235 1.442-.751a.75.75 0 1 1 1.116 1.002c-.67.744-1.548 1.249-2.558 1.249s-1.889-.505-2.558-1.248a.75.75 0 0 1 .056-1.06" clip-rule="evenodd"/></svg>