<svg viewBox="0 0 24 24"><path fill="currentColor" d="M16 6.419c2.828 0 4.243 0 5.121.817S22 9.369 22 12s0 3.947-.879 4.764c-.878.817-2.293.817-5.121.817H8c-2.828 0-4.243 0-5.121-.817S2 14.631 2 12s0-3.947.879-4.764c.878-.817 2.293-.817 5.121-.817zm.099-1.396H7.9c-.983 0-1.865 0-2.629.046q-.404.025-.764.069a8 8 0 0 0-.32.046c-.217.036-.42-.131-.401-.35c.037-.43.118-.82.317-1.183a3.15 3.15 0 0 1 1.42-1.321c.391-.186.81-.26 1.273-.296C7.245 2 7.795 2 8.469 2h7.062c.674 0 1.225 0 1.672.034c.463.035.882.11 1.273.296c.611.29 1.108.752 1.42 1.32c.199.364.28.753.317 1.184c.02.219-.184.386-.4.35a8 8 0 0 0-.321-.046q-.36-.044-.764-.069c-.764-.046-1.647-.046-2.63-.046M7.901 18.977H16.1c.982 0 1.865 0 2.629-.047q.405-.023.764-.068q.16-.02.32-.046c.217-.036.42.131.401.35c-.037.43-.118.82-.317 1.183a3.15 3.15 0 0 1-1.42 1.322c-.391.185-.81.26-1.273.295c-.447.034-.998.034-1.672.034H8.47c-.674 0-1.225 0-1.672-.034c-.463-.035-.882-.11-1.272-.296a3.15 3.15 0 0 1-1.42-1.32c-.2-.364-.28-.753-.318-1.184c-.02-.219.184-.386.4-.35q.16.026.321.046q.36.044.764.069c.764.046 1.646.046 2.63.046"/></svg>