<svg viewBox="0 0 24 24"><path fill="currentColor" d="m18.883 14.44l.748-.042v-.013zm-13.729-.089l-.747-.066v.007l-.001.008zm1.876 7.062l-.387.643zm-1.667-1.858l-.679.319zm13.253.033l.676.325zm-1.665 1.834l.384.644zm-4.935-.172c-1.351 0-2.313 0-3.06-.07c-.738-.069-1.189-.199-1.54-.41l-.773 1.286c.625.376 1.33.54 2.174.617c.833.078 1.876.077 3.199.077zm-7.61-6.95c-.094 1.37-.169 2.446-.154 3.31c.015.87.12 1.6.432 2.264l1.358-.638c-.183-.389-.277-.877-.29-1.653c-.014-.783.054-1.783.15-3.18zm3.01 6.47a3.55 3.55 0 0 1-1.374-1.534l-1.358.638a5.04 5.04 0 0 0 1.96 2.182zm10.718-6.287c.078 1.383.133 2.372.111 3.147c-.022.767-.12 1.25-.305 1.634l1.352.649c.315-.655.427-1.377.452-2.24c.025-.854-.036-1.919-.113-3.275zm-6.118 8.267c1.307 0 2.339 0 3.164-.076c.834-.077 1.533-.238 2.155-.608l-.768-1.288c-.35.207-.796.335-1.526.403c-.74.068-1.69.069-3.025.069zm5.924-3.486a3.54 3.54 0 0 1-1.373 1.514l.768 1.288a5.04 5.04 0 0 0 1.957-2.153zm-.619-15.641c.031.12.023.311-.14.6c-.164.29-.46.627-.902.98c-.882.706-2.228 1.383-3.832 1.83l.402 1.444c1.753-.487 3.294-1.244 4.367-2.102c.535-.428.983-.905 1.27-1.414c.29-.512.444-1.107.288-1.713zm-4.874 3.41c-1.604.446-3.094.557-4.193.404c-.55-.076-.964-.214-1.24-.376c-.272-.16-.366-.315-.397-.432l-1.452.375c.157.609.581 1.051 1.087 1.35c.502.294 1.124.476 1.796.57c1.347.186 3.049.04 4.801-.447zm-5.83-.404c-.03-.12-.022-.311.14-.6c.165-.29.461-.628.903-.98c.881-.706 2.228-1.383 3.832-1.83l-.402-1.445c-1.753.488-3.294 1.244-4.367 2.103c-.535.428-.983.905-1.271 1.414c-.29.512-.444 1.107-.287 1.713zm4.875-3.41c1.604-.446 3.094-.557 4.192-.405c.55.077.965.214 1.241.377c.271.16.366.315.396.432l1.453-.375c-.157-.609-.581-1.051-1.088-1.35c-.5-.295-1.123-.476-1.795-.57c-1.348-.186-3.049-.04-4.801.446zm-5.59 11.198l.707-7.996l-1.494-.132l-.708 7.996zM17.336 3.745l.797 10.75l1.496-.11l-.797-10.75z"/><path fill="currentColor" d="M4.715 13.838c.75.753 2.66 1.912 7.285 1.912v-1.5c-4.394 0-5.854-1.1-6.222-1.47zM12 15.75c4.747 0 6.634-1.222 7.34-1.97l-1.09-1.03c-.322.341-1.742 1.5-6.25 1.5z" opacity=".5"/></svg>