<svg viewBox="0 0 24 24"><path fill="currentColor" d="m7.454 2.421l-.215.04a4.83 4.83 0 0 0-3.918 4.197l-.016.137a47 47 0 0 0 0 10.69A4.714 4.714 0 0 0 7.41 21.62l1.016.126c.495.062.742.093.99.118c1.717.18 3.45.18 5.169 0c.246-.025.494-.056.988-.118l.907-.113a4.84 4.84 0 0 0 4.215-4.26l.017-.154a46.8 46.8 0 0 0-.035-10.672a4.7 4.7 0 0 0-3.809-4.066l-.323-.06a24.7 24.7 0 0 0-9.09 0" opacity=".5"/><path fill="currentColor" d="M7.482 5.425a.75.75 0 1 0-.964 1.15C7.38 7.297 9.344 8.25 12 8.25s4.62-.953 5.482-1.675a.75.75 0 0 0-.963-1.15C15.94 5.908 14.324 6.75 12 6.75s-3.941-.842-4.518-1.325"/></svg>