<svg viewBox="0 0 24 24"><path fill="currentColor" fill-rule="evenodd" d="M16.407 3.158a24 24 0 0 0-8.815 0l-.215.04a4.08 4.08 0 0 0-3.31 3.546l-.017.137c-.4 3.494-.4 7.023 0 10.518a3.964 3.964 0 0 0 3.453 3.477l1.015.127c.498.062.737.092.975.116c1.667.175 3.347.175 5.014 0c.238-.024.476-.054.974-.116l.906-.113a4.09 4.09 0 0 0 3.562-3.6l.018-.153c.389-3.49.377-7.013-.034-10.501a3.95 3.95 0 0 0-3.203-3.417zm-9.09-1.474a25.5 25.5 0 0 1 9.366 0l.323.06a5.45 5.45 0 0 1 4.416 4.716c.425 3.601.437 7.24.035 10.843l-.017.154a5.59 5.59 0 0 1-4.867 4.921l-.917.115c-.485.06-.74.092-.994.118c-1.77.185-3.555.185-5.325 0c-.254-.026-.508-.058-.994-.118l-1.026-.128A5.464 5.464 0 0 1 2.56 17.57a47.7 47.7 0 0 1 0-10.86l.016-.137a5.58 5.58 0 0 1 4.526-4.849zm-.892 3.834a.75.75 0 0 1 1.057-.093C8.059 5.908 9.676 6.75 12 6.75s3.941-.842 4.518-1.325a.75.75 0 1 1 .963 1.15C16.62 7.297 14.657 8.25 12 8.25s-4.62-.953-5.482-1.675a.75.75 0 0 1-.093-1.057" clip-rule="evenodd"/></svg>