<svg viewBox="0 0 24 24"><path fill="currentColor" d="M9.461 15.626a25 25 0 0 0 2.54.124c.943 0 1.786-.045 2.538-.123c-.214-.426-.465-.72-.75-.921c-.404-.288-.965-.456-1.789-.456s-1.384.168-1.79.456c-.283.202-.535.494-.749.92"/><path fill="currentColor" fill-rule="evenodd" d="M3.321 6.658a4.83 4.83 0 0 1 3.918-4.197l.215-.04a24.7 24.7 0 0 1 9.091 0l.323.06a4.7 4.7 0 0 1 3.81 4.067c.252 2.14.356 4.292.312 6.443l-.497.457c-.298.273-.933.837-2.217 1.34a12.4 12.4 0 0 1-2.195.615c-.321-.806-.776-1.46-1.422-1.92c-.738-.524-1.636-.733-2.659-.733s-1.92.209-2.659.733c-.645.46-1.1 1.113-1.42 1.918c-2.79-.535-3.992-1.536-4.428-1.916l-.484-.422a47 47 0 0 1 .296-6.268zM8.489 4.98a.75.75 0 1 0-.978-1.138c-.467.402-.761 1-.761 1.57c0 1.013.767 1.71 1.653 2.114c.91.416 2.153.635 3.597.635s2.686-.22 3.597-.635c.886-.404 1.653-1.101 1.653-2.115c0-.623-.345-1.123-.761-1.48a.75.75 0 0 0-.978 1.137c.225.194.239.313.239.343c0 .14-.102.443-.776.75c-.649.296-1.657.5-2.974.5s-2.325-.204-2.974-.5c-.674-.307-.776-.61-.776-.75c0-.032.01-.101.054-.191a.8.8 0 0 1 .185-.24" clip-rule="evenodd"/><path fill="currentColor" d="M18.823 16.184c.953-.374 1.62-.786 2.079-1.127q-.07 1.083-.19 2.163l-.018.154a4.84 4.84 0 0 1-4.214 4.26l-.907.113c-.494.062-.742.093-.989.118c-1.718.18-3.45.18-5.17 0a44 44 0 0 1-.989-.118L7.41 21.62a4.714 4.714 0 0 1-4.105-4.136q-.138-1.2-.213-2.404c1.218.876 3.77 2.17 8.908 2.17c3.15 0 5.325-.48 6.823-1.066" opacity=".5"/></svg>