<svg viewBox="0 0 24 24"><g fill="none" stroke="currentColor" stroke-linecap="round" stroke-width="1.5"><path d="M21 12a47 47 0 0 1-.288 5.22l-.017.154a4.84 4.84 0 0 1-4.215 4.26l-.906.113c-.495.062-.742.093-.99.118a25 25 0 0 1-5.169 0a51 51 0 0 1-.99-.118l-1.015-.126a4.714 4.714 0 0 1-4.105-4.137a47 47 0 0 1 0-10.689l.016-.137a4.83 4.83 0 0 1 3.918-4.197l.215-.04a24.7 24.7 0 0 1 9.091 0l.323.06a4.7 4.7 0 0 1 3.81 4.067q.084.724.148 1.452"/><path d="M17 6c-.72.603-2.51 1.5-5 1.5S7.72 6.603 7 6"/></g></svg>