<svg viewBox="0 0 24 24"><path fill="currentColor" d="M2.25 12.25A.75.75 0 0 1 3 11.5a9.75 9.75 0 0 1 9.75 9.75a.75.75 0 0 1-1.5 0A8.25 8.25 0 0 0 3 13a.75.75 0 0 1-.75-.75"/><path fill="currentColor" d="M2.25 15.25A.75.75 0 0 1 3 14.5a6.75 6.75 0 0 1 6.75 6.75a.75.75 0 0 1-1.5 0C8.25 18.35 5.9 16 3 16a.75.75 0 0 1-.75-.75"/><path fill="currentColor" d="M3 17.5A.75.75 0 0 0 3 19a2.25 2.25 0 0 1 2.25 2.25a.75.75 0 0 0 1.5 0A3.75 3.75 0 0 0 3 17.5m-.976-7.278C2.32 10.08 2.65 10 3 10c6.213 0 11.25 5.037 11.25 11.25q-.002.396-.128.749c2.782-.01 4.276-.104 5.329-1.01c1.175-1.013 1.419-2.706 1.906-6.094l.279-1.937c.38-2.637.57-3.956.029-5.083s-1.691-1.813-3.992-3.183l-1.385-.825C14.2 2.622 13.154 2 12 2s-2.199.622-4.288 1.867l-1.385.825c-2.3 1.37-3.451 2.056-3.992 3.183c-.31.648-.38 1.359-.31 2.347"/></svg>