<svg viewBox="0 0 24 24"><g fill="none"><path stroke="currentColor" stroke-linecap="round" stroke-width="1.5" d="M15 5H9" opacity=".5"/><path fill="currentColor" d="M3.505 15.588a.75.75 0 1 0-.931-1.176zm8.495 5.1l.494.564a.75.75 0 0 0 0-1.129zm-1.5-1.313l.494-.564a.75.75 0 0 0-1.244.564zm0 2.625h-.75a.75.75 0 0 0 1.244.564zm-7.75-5.25c0-.307.182-.708.755-1.162l-.931-1.176c-.757.6-1.324 1.388-1.324 2.338zm9.744 3.373l-1.5-1.312l-.988 1.128l1.5 1.313zm-1.5 2.441l1.5-1.312l-.988-1.129l-1.5 1.313zM9.75 19.375v1.268h1.5v-1.268zm0 1.268V22h1.5v-1.357zm.794-.748c-2.343-.139-4.371-.605-5.788-1.248c-.71-.322-1.232-.672-1.565-1.017c-.33-.342-.441-.637-.441-.88h-1.5c0 .744.35 1.393.862 1.922c.509.526 1.21.972 2.024 1.341c1.63.74 3.851 1.233 6.32 1.38z"/><path stroke="currentColor" stroke-linecap="round" stroke-width="1.5" d="M20.96 15c.666.527 1.04 1.121 1.04 1.75c0 1.835-3.187 3.376-7.5 3.814" opacity=".5"/><path stroke="currentColor" stroke-linecap="round" stroke-width="1.5" d="M5.502 17q-.002-.468-.002-1V8c0-2.828 0-4.243.879-5.121C7.257 2 8.672 2 11.5 2h1c2.828 0 4.243 0 5.121.879c.879.878.879 2.293.879 5.121v8q0 .532-.002 1"/></g></svg>