<svg viewBox="0 0 24 24"><path fill="currentColor" d="M4.878 13.696C2.959 11.777 2 10.818 2 9.626s.96-2.151 2.878-4.07l.678-.678C7.475 2.959 8.434 2 9.626 2s2.151.96 4.07 2.878l5.426 5.426C21.041 12.223 22 13.182 22 14.374s-.96 2.151-2.878 4.07l-.678.678C16.525 21.041 15.566 22 14.374 22s-2.151-.96-4.07-2.878z" opacity=".5"/><path fill="currentColor" d="M9.478 6.087a.75.75 0 0 0-1.061-1.06l-3.392 3.39a.75.75 0 0 0 1.061 1.061zm7.27 10.662a1.439 1.439 0 1 0-2.035-2.035a1.439 1.439 0 0 0 2.035 2.035"/><path fill="currentColor" fill-rule="evenodd" d="M16.26 1.874a.75.75 0 0 1 .866-.613c3.2.544 5.624 3.36 5.624 6.74a.75.75 0 0 1-1.17.62l-1.5-1.014a.75.75 0 1 1 .84-1.242l.1.067c-.577-1.91-2.18-3.358-4.146-3.693a.75.75 0 0 1-.613-.865M7.74 22.126a.75.75 0 0 1-.866.613C3.674 22.196 1.25 19.38 1.25 16a.75.75 0 0 1 1.17-.621l1.5 1.014a.75.75 0 0 1-.84 1.242l-.1-.067c.577 1.91 2.18 3.358 4.146 3.693a.75.75 0 0 1 .613.865" clip-rule="evenodd"/></svg>