<svg viewBox="0 0 24 24"><g fill="none"><path fill="currentColor" d="m18.444 19.122l.53.53zm-8.14 0l.53-.53zm8.818-8.818l-.53.53zm0 8.14l-.53-.53zM22 14.374h.75zM5.556 4.878l.53.53zm8.14 0l.53-.53zM9.626 2v.75zM4.878 5.556l-.53-.53zm0 8.14l-.53.53zM2 9.626h-.75zm3.408-3.54l.678-.678l-1.06-1.06l-.679.678zm7.757-.678l5.427 5.427l1.06-1.061l-5.426-5.427zm5.427 12.506l-.678.678l1.06 1.06l.678-.678zm-7.757.678l-5.427-5.427l-1.06 1.061l5.426 5.426zm7.079 0c-.975.974-1.653 1.65-2.232 2.092c-.562.429-.942.566-1.308.566v1.5c.826 0 1.522-.343 2.217-.873c.678-.517 1.439-1.28 2.383-2.224zm-8.14 1.06c.944.945 1.705 1.707 2.383 2.225c.695.53 1.391.873 2.217.873v-1.5c-.366 0-.745-.137-1.308-.566c-.579-.442-1.257-1.118-2.231-2.092zm8.818-8.817c.974.974 1.65 1.652 2.092 2.231c.429.563.566.942.566 1.308h1.5c0-.826-.343-1.522-.873-2.217c-.517-.678-1.28-1.439-2.224-2.383zm1.06 8.14c.945-.945 1.707-1.706 2.225-2.384c.53-.695.873-1.391.873-2.217h-1.5c0 .366-.137.746-.566 1.308c-.442.579-1.118 1.257-2.092 2.232zM6.086 5.407c.975-.974 1.653-1.65 2.232-2.092c.562-.429.942-.566 1.308-.566v-1.5c-.826 0-1.522.343-2.217.873c-.679.518-1.439 1.28-2.383 2.224zm8.14-1.06c-.944-.945-1.705-1.707-2.383-2.225c-.695-.53-1.391-.873-2.217-.873v1.5c.366 0 .745.137 1.308.566c.579.442 1.257 1.118 2.231 2.092zm-9.879.678c-.944.944-1.706 1.704-2.224 2.383c-.53.695-.873 1.391-.873 2.217h1.5c0-.366.137-.746.566-1.308c.442-.579 1.118-1.257 2.092-2.232zm1.061 8.14c-.974-.975-1.65-1.653-2.092-2.232c-.429-.562-.566-.942-.566-1.308h-1.5c0 .826.343 1.522.873 2.217c.518.678 1.28 1.439 2.224 2.383z"/><path fill="currentColor" d="M9.478 6.087a.75.75 0 0 0-1.06-1.06zm-4.452 2.33a.75.75 0 0 0 1.06 1.061zm3.391-3.39l-3.391 3.39l1.06 1.061l3.392-3.391zm7.8 10.217a.69.69 0 0 1 0 .974l1.062 1.061a2.19 2.19 0 0 0 0-3.095zm0 .974a.69.69 0 0 1-.973 0l-1.061 1.061a2.19 2.19 0 0 0 3.096 0zm-.973 0a.69.69 0 0 1 0-.974l-1.061-1.06a2.19 2.19 0 0 0 0 3.095zm0-.974a.69.69 0 0 1 .974 0l1.06-1.06a2.19 2.19 0 0 0-3.095 0z" opacity=".5"/><path stroke="currentColor" stroke-linecap="round" stroke-linejoin="round" stroke-width="1.5" d="M20.5 6.986L22 8c0-3.015-2.162-5.517-5-6" opacity=".5"/><path stroke="currentColor" stroke-linecap="round" stroke-linejoin="round" stroke-width="1.5" d="M3.5 17.014L2 16c0 3.015 2.162 5.517 5 6"/></g></svg>