<svg viewBox="0 0 24 24"><path fill="currentColor" fill-rule="evenodd" d="M12 2.75a9.25 9.25 0 1 0 0 18.5a9.25 9.25 0 0 0 0-18.5M1.25 12C1.25 6.063 6.063 1.25 12 1.25S22.75 6.063 22.75 12c0 2.699-.994 5.165-2.637 7.053l2.417 2.417a.75.75 0 1 1-1.06 1.06l-2.417-2.417A10.7 10.7 0 0 1 12 22.75c-2.699 0-5.165-.994-7.053-2.637L2.53 22.53a.75.75 0 0 1-1.06-1.06l2.417-2.417A10.7 10.7 0 0 1 1.25 12M12 6.75a2.25 2.25 0 1 0 0 4.5a2.25 2.25 0 0 0 0-4.5M8.25 9a3.75 3.75 0 1 1 7.5 0a3.75 3.75 0 0 1-7.5 0M12 15.25a.75.75 0 0 1 .75.75v2a.75.75 0 0 1-1.5 0v-2a.75.75 0 0 1 .75-.75" clip-rule="evenodd"/></svg>