<svg viewBox="0 0 24 24"><g fill="none"><g clip-path="url(#SVGXv8lpc2Y)"><path stroke="currentColor" stroke-linecap="round" stroke-width="1.5" d="M13 2.001c3.114.01 4.765.108 5.828 1.17C20 4.344 20 6.23 20 10v4c0 3.771 0 5.657-1.172 6.828S15.771 22 12 22s-5.657 0-6.828-1.172S4 17.772 4 14v-2.999"/><path fill="currentColor" d="M2.73 4h-.75zm0 .8l-.554.506a.75.75 0 0 0 1.108 0zm1.284-.294a.75.75 0 1 0-1.108-1.012zm-1.46-1.012a.75.75 0 0 0-1.108 1.012zM8.54 1.83A.75.75 0 0 0 9.71.892zM6.38-.75c-2.494 0-4.4 2.193-4.4 4.75h1.5c0-1.86 1.36-3.25 2.9-3.25zM1.981 4v.8h1.5V4zm1.303 1.306l.73-.8l-1.108-1.012l-.73.8zm0-1.012l-.73-.8l-1.108 1.012l.73.8zM9.71.892C8.914-.1 7.726-.75 6.381-.75v1.5c.843 0 1.617.404 2.159 1.08z"/><path fill="currentColor" d="m10.27 3.2l.554-.505a.75.75 0 0 0-1.108 0zm-1.284.295a.75.75 0 1 0 1.108 1.01zm1.46 1.01a.75.75 0 0 0 1.108-1.01zm-5.87 1.801A.75.75 0 0 0 3.461 7.31zM6.62 8.75c2.494 0 4.4-2.192 4.4-4.75h-1.5c0 1.861-1.36 3.25-2.9 3.25zM11.02 4v-.8h-1.5V4zM9.717 2.695l-.73.8l1.108 1.01l.73-.8zm0 1.01l.73.8l1.108-1.01l-.73-.8zM3.46 7.31c.79.878 1.908 1.44 3.158 1.44v-1.5c-.785 0-1.509-.35-2.043-.944z" opacity=".5"/><path stroke="currentColor" stroke-linecap="round" stroke-width="1.5" d="M15 19H9" opacity=".5"/></g><defs><clipPath id="SVGXv8lpc2Y"><path fill="#fff" d="M0 0h24v24H0z"/></clipPath></defs></g></svg>