<svg viewBox="0 0 24 24"><path fill="currentColor" d="M12 6.25a1.25 1.25 0 1 0 0 2.5a1.25 1.25 0 0 0 0-2.5M9.75 15.5a2.25 2.25 0 1 1 4.5 0a2.25 2.25 0 0 1-4.5 0"/><path fill="currentColor" fill-rule="evenodd" d="M4 10c0-3.771 0-5.657 1.172-6.828S8.229 2 12 2s5.657 0 6.828 1.172S20 6.229 20 10v4c0 3.771 0 5.657-1.172 6.828S15.771 22 12 22s-5.657 0-6.828-1.172S4 17.771 4 14zm5.25-2.5a2.75 2.75 0 1 1 5.5 0a2.75 2.75 0 0 1-5.5 0M12 11.75a3.75 3.75 0 1 0 0 7.5a3.75 3.75 0 0 0 0-7.5" clip-rule="evenodd"/></svg>