<svg viewBox="0 0 24 24"><path fill="currentColor" fill-rule="evenodd" d="M11.944 1.25h.112c1.838 0 3.294 0 4.433.153c1.172.158 2.121.49 2.87 1.238c.748.749 1.08 1.698 1.238 2.87c.153 1.14.153 2.595.153 4.433v4.112c0 1.838 0 3.294-.153 4.433c-.158 1.172-.49 2.121-1.238 2.87c-.749.748-1.698 1.08-2.87 1.238c-1.14.153-2.595.153-4.433.153h-.112c-1.838 0-3.294 0-4.433-.153c-1.172-.158-2.121-.49-2.87-1.238c-.748-.749-1.08-1.698-1.238-2.87c-.153-1.14-.153-2.595-.153-4.433V9.944c0-1.838 0-3.294.153-4.433c.158-1.172.49-2.121 1.238-2.87c.749-.748 1.698-1.08 2.87-1.238c1.14-.153 2.595-.153 4.433-.153M7.71 2.89c-1.006.135-1.586.389-2.01.812c-.422.423-.676 1.003-.811 2.009c-.138 1.028-.14 2.382-.14 4.289v4c0 1.907.002 3.262.14 4.29c.135 1.005.389 1.585.812 2.008s1.003.677 2.009.812c1.028.138 2.382.14 4.289.14s3.262-.002 4.29-.14c1.005-.135 1.585-.389 2.008-.812s.677-1.003.812-2.009c.138-1.027.14-2.382.14-4.289v-4c0-1.907-.002-3.261-.14-4.29c-.135-1.005-.389-1.585-.812-2.008s-1.003-.677-2.009-.812c-1.028-.138-2.382-.14-4.289-.14s-3.261.002-4.29.14M9.25 6a.75.75 0 0 1 .75-.75h4a.75.75 0 0 1 0 1.5h-4A.75.75 0 0 1 9.25 6M12 10.75a3.25 3.25 0 1 0 0 6.5a3.25 3.25 0 0 0 0-6.5M7.25 14a4.75 4.75 0 1 1 9.5 0a4.75 4.75 0 0 1-9.5 0" clip-rule="evenodd"/></svg>