<svg viewBox="0 0 24 24"><path fill="currentColor" d="M20.536 20.536C22 19.07 22 16.714 22 12q0-.901-.003-1.692c-.41.402-.902.828-1.429 1.284L18.08 13.75c-.304.264-.645.56-.953.758c-.302.194-1.07.622-1.957.217s-1.066-1.266-1.117-1.62S14 12.312 14 11.917c-1.33.23-2.596.754-3.527 1.48l-.05.04c-.368.288-.72.564-1.004.748a2.8 2.8 0 0 1-.622.314c-.235.08-.817.225-1.417-.127a1.7 1.7 0 0 1-.793-1.106a2.5 2.5 0 0 1-.048-.696c.017-.314.08-.716.14-1.11l.01-.064c.475-3.07 1.812-5.166 3.55-6.473a8.55 8.55 0 0 1 3.76-1.585v-.225c0-.363 0-.766.039-1.107Q13.1 1.999 12 2C7.286 2 4.929 2 3.464 3.464C2 4.93 2 7.286 2 12s0 7.071 1.464 8.535C4.93 22 7.286 22 12 22s7.071 0 8.535-1.465"/><path fill="currentColor" d="m17.155 2.434l2.357 2.043c1.623 1.406 2.434 2.11 2.434 3.023s-.811 1.616-2.434 3.023l-2.357 2.043c-.714.618-1.07.927-1.363.794c-.292-.134-.292-.606-.292-1.55v-1.524c-2.124 0-4.374.698-5.95 1.93c-.824.644-1.235.966-1.411.862s-.107-.553.032-1.452c.845-5.462 4.63-6.912 7.329-6.912V3.19c0-.944 0-1.416.292-1.55c.293-.133.65.176 1.363.794"/></svg>