<svg viewBox="0 0 24 24"><path fill="currentColor" fill-rule="evenodd" d="M12 22c-4.714 0-7.071 0-8.536-1.465C2 19.072 2 16.714 2 12s0-7.071 1.464-8.536C4.93 2 7.286 2 12 2s7.071 0 8.535 1.464C22 4.93 22 7.286 22 12s0 7.071-1.465 8.535C19.072 22 16.714 22 12 22M8.47 7.97a.75.75 0 0 0 0 1.06l3 3a.75.75 0 0 0 1.06 0l3-3a.75.75 0 0 0-1.06-1.06L12 10.44L9.53 7.97a.75.75 0 0 0-1.06 0m0 4a.75.75 0 0 0 0 1.06l3 3a.75.75 0 0 0 1.06 0l3-3a.75.75 0 1 0-1.06-1.06L12 14.44l-2.47-2.47a.75.75 0 0 0-1.06 0" clip-rule="evenodd"/></svg>