<svg viewBox="0 0 24 24"><path fill="currentColor" fill-rule="evenodd" d="M15.699 3.754c.93-.455 1.967-.71 2.83-.292c.46.222.778.595.97 1.038c.176.403.247.862.251 1.336c.004.398-.04.829-.124 1.282a13 13 0 0 1-.644 2.205a.8.8 0 0 1-.128.217q.279.093.542.192l.002.001a18 18 0 0 1 .535.212q.49.204.917.427q.44.228.816.478c.862.574 1.605 1.34 1.68 2.296c.04.51-.122.972-.407 1.363c-.26.354-.62.647-1.027.89a7 7 0 0 1-1.17.539c-.655.235-1.41.42-2.229.556a.75.75 0 0 1-.245-1.48a13 13 0 0 0 1.507-.338l.006-.002c.566-.168 1.021-.36 1.363-.564c.294-.175.48-.344.585-.488s.13-.257.121-.358c-.018-.236-.247-.653-1.016-1.166a7 7 0 0 0-.675-.395l-1.296-.569c-1.753-.656-4.101-1.158-6.686-1.338q-.48-.034-.948-.051a29 29 0 0 0-1.227 1.67a27 27 0 0 0-1.865 3.17a.75.75 0 0 1-.612 1.361a13 13 0 0 0-.572 1.735l-.002.01c-.196.798-.239 1.424-.17 1.86c.027.17.067.296.113.39c.07.142.155.21.227.246l.004.002a.6.6 0 0 0 .164.05c.122.02.29.017.512-.03c.4-.087.906-.306 1.5-.678a10 10 0 0 0 .422-.28q.36-.253.74-.562l1.176-.955a.75.75 0 0 1 .946 1.164l-1.174.954q-.42.341-.827.627q-.246.172-.486.323c-.678.425-1.35.737-1.982.873a2.9 2.9 0 0 1-1.07.044a2 2 0 0 1-.574-.18l-.016-.008c-.73-.36-1.066-1.073-1.168-1.82c-.1-.741.006-1.623.253-2.564c.14-.534.331-1.104.568-1.7l-.507-.18a14 14 0 0 1-.958-.397a11 11 0 0 1-.524-.257c-.708-.37-1.317-.794-1.753-1.27a2.9 2.9 0 0 1-.578-.902a2.1 2.1 0 0 1-.134-.587l-.002-.018c-.056-.812.39-1.46.983-1.926c.59-.461 1.405-.814 2.341-1.075c1.488-.414 3.41-.632 5.552-.607c1.014-1.215 2.059-2.263 3.06-3.078l.001-.002a19 19 0 0 1 .453-.355q.424-.319.832-.576q.418-.265.824-.463M12.446 8.31c1.826.137 3.564.43 5.09.834a.75.75 0 0 1 .045-.357q.304-.8.468-1.472l.001-.005c.14-.574.204-1.064.2-1.462c-.003-.343-.055-.588-.126-.751s-.157-.242-.248-.286c-.213-.103-.689-.116-1.519.29a7 7 0 0 0-.682.383l-1.145.833a20 20 0 0 0-2.084 1.993M9.35 9.74c-1.548.052-2.906.244-3.969.54l-.151.044l-.01.002c-.788.234-1.35.513-1.692.793a1.4 1.4 0 0 0-.28.293a.5.5 0 0 0-.097.32v.005a.6.6 0 0 0 .04.166c.044.116.131.26.284.427c.276.302.72.63 1.342.954q.216.114.455.223q.398.185.858.356l.589.208a28 28 0 0 1 2.045-3.5q.289-.425.586-.831" clip-rule="evenodd" opacity=".5"/><path fill="currentColor" d="M11.765 14.281c-.014-.91-.02-1.365.266-1.531s.678.068 1.46.535l.202.12c.222.134.333.2.455.215c.123.016.242-.021.482-.096l.218-.067c.843-.262 1.264-.393 1.518-.16c.253.235.17.679.005 1.566l-.042.23c-.047.252-.07.379-.043.502s.104.23.256.442l.138.194c.535.749.802 1.123.672 1.433s-.573.351-1.456.433l-.229.021c-.25.023-.376.035-.482.096c-.105.06-.178.163-.323.369l-.133.187c-.512.725-.768 1.087-1.102 1.045s-.525-.461-.906-1.298l-.098-.217c-.109-.238-.163-.357-.256-.443c-.093-.085-.213-.128-.455-.214l-.22-.078c-.852-.3-1.278-.45-1.354-.787s.248-.636.897-1.235l.167-.155c.184-.17.277-.256.324-.37c.048-.113.046-.243.042-.501z"/></svg>