<svg viewBox="0 0 24 24"><g fill="currentColor" fill-rule="evenodd" clip-rule="evenodd"><path d="m9.811 10.805l.048.03l.276.174a5.06 5.06 0 0 0 .333.199a5.506 5.506 0 0 0 .4-.103l.322-.092l.054-.015c.58-.165 1.093-.31 1.502-.365c.423-.056.97-.05 1.391.373c.422.421.43.968.373 1.39c-.054.41-.2.923-.365 1.503l-.015.053l-.092.324a5.573 5.573 0 0 0-.103.4a5.04 5.04 0 0 0 .199.332l.174.276l.03.048c.31.491.59.933.752 1.307c.174.4.3.912.028 1.43c-.268.51-.755.704-1.18.801c-.405.092-.934.133-1.53.18l-.387.03a5.412 5.412 0 0 0-.372.036a.547.547 0 0 0-.045.008a.598.598 0 0 0-.037.036c-.055.057-.123.14-.25.292l-.25.305c-.388.471-.73.886-1.037 1.168c-.318.29-.762.592-1.338.513c-.593-.081-.927-.506-1.136-.883c-.198-.356-.38-.847-.582-1.395l-.02-.054l-.113-.308a5.102 5.102 0 0 0-.14-.355a5.14 5.14 0 0 0-.356-.14l-.308-.114l-.054-.02c-.548-.203-1.04-.384-1.395-.582c-.377-.209-.802-.543-.883-1.136c-.079-.577.222-1.02.513-1.338c.282-.308.697-.65 1.168-1.037l.042-.035l.263-.216a5.82 5.82 0 0 0 .292-.249a.574.574 0 0 0 .036-.037a.54.54 0 0 0 .008-.045c.012-.075.02-.178.036-.372l.026-.333l.004-.055c.047-.596.088-1.124.18-1.528c.097-.426.292-.913.801-1.18c.518-.273 1.03-.147 1.43.027c.374.163.815.441 1.307.752m-3.795 2.744v-.002zm5.58 5.578h-.002z"/><path d="M18.02 20.016a14.148 14.148 0 0 1-1.747-.566a.75.75 0 0 0-.546 1.397c.944.37 1.847.637 2.671.781c.327.057.642.095.943.112a6.118 6.118 0 0 0 .554.006c.225-.008.44-.03.647-.066c.242-.044.476-.11.695-.2c.545-.223.999-.599 1.271-1.18c.372-.791.278-1.724-.028-2.626a8.512 8.512 0 0 0-.4-.953a13.44 13.44 0 0 0-1.23-1.987c-1.505-2.046-3.819-4.283-6.585-6.247c-2.763-1.963-5.507-3.321-7.729-3.908c-1.106-.293-2.137-.408-2.997-.272c-.32.05-.628.139-.908.271A2.31 2.31 0 0 0 1.491 5.7c-.294.629-.3 1.35-.124 2.096c.054.229.124.457.207.684a8.197 8.197 0 0 0 .437.98a11.291 11.291 0 0 0 .443.779a14.548 14.548 0 0 0 .69 1.018a23.17 23.17 0 0 0 2.168 2.517a.75.75 0 0 0 1.068-1.052a22.454 22.454 0 0 1-1.786-2.032A13.555 13.555 0 0 1 3.45 8.97a9.238 9.238 0 0 1-.185-.355a6.714 6.714 0 0 1-.281-.651a4.474 4.474 0 0 1-.157-.516c-.118-.503-.089-.871.024-1.11a.813.813 0 0 1 .36-.372c.13-.071.297-.13.513-.168c.538-.096 1.296-.049 2.25.186a11.156 11.156 0 0 1 .18.046c1.997.528 4.578 1.787 7.244 3.68c2.515 1.787 4.608 3.785 6.005 5.596l.004.006a14.134 14.134 0 0 1 1.113 1.663l.011.02a7.473 7.473 0 0 1 .53 1.162c.086.257.14.483.168.681c.05.369.01.64-.078.827c-.076.162-.221.32-.484.43a1.888 1.888 0 0 1-.389.109c-.538.096-1.296.05-2.249-.186c-.002 0-.005 0-.007-.002" opacity=".5"/><path d="M19.665 2.409a.75.75 0 0 1 .13 1.053l-.111.142a3.59 3.59 0 0 0 .87 1.756a.75.75 0 0 1-1.108 1.01a5.068 5.068 0 0 1-1.021-1.697a3.713 3.713 0 0 1-.687.32c.326.591.532 1.247.605 1.927a.75.75 0 0 1-1.492.16a3.614 3.614 0 0 0-.718-1.811l-.158-.006a.75.75 0 0 1 .05-1.499l.408.014c.526-.104.797-.18 1.031-.29c.235-.112.47-.275.891-.62l.258-.33a.75.75 0 0 1 1.052-.13"/></g></svg>