<svg viewBox="0 0 24 24"><g fill="none"><path fill="currentColor" d="m21.995 13.52l-.747.066zm-10.3-4.4l.07-.747zm-9.69 2.564l.747-.065zm19.738 2.697l-.609-.438zM2.095 12.065l.7-.27zm.433.678l.56-.5zm1.543 1.152l-.362.657zm.69-3.639a.75.75 0 0 0-.407-1.443zm2.71 5.739a.75.75 0 0 0 .389-1.449zm-5.214-5.172l.609.439zm19.648 2.317l-.7.269zm-.433-.678l-.56.499zm-1.543-1.152l.362-.657zm-3.4-2.1a.75.75 0 0 0-.389 1.448zm-8.198 7a.75.75 0 1 0 .338-1.462zm10.065-1.062a.75.75 0 1 0 .29 1.471zM7.964 8.278a.75.75 0 0 0 .072 1.498zm14.778 5.177c-.082-.948-.812-1.726-1.67-2.322l-.856 1.233c.767.532 1.01.965 1.032 1.22zm-1.67-2.322c-1.94-1.346-5.452-2.406-9.308-2.76l-.137 1.494c3.735.343 6.953 1.363 8.59 2.499zm-1.426 5.259c1.153-.326 2.166-.824 2.705-1.573l-1.217-.876c-.233.323-.829.704-1.895 1.005zm2.705-1.573c.283-.392.436-.856.391-1.364l-1.494.13a.5.5 0 0 1-.114.358zM1.258 11.75q.027.305.137.584l1.4-.537a.7.7 0 0 1-.043-.177zm.137.584c.127.332.33.635.574.909l1.119-.999a1.5 1.5 0 0 1-.293-.447zm.574.909c.432.485 1.036.922 1.74 1.31l.724-1.314c-.619-.341-1.066-.681-1.345-.995zm1.74 1.31c.443.244.937.474 1.471.689l.559-1.393q-.732-.294-1.306-.61zm.645-5.74c-.879.249-1.648.59-2.2 1.043c-.566.465-.965 1.106-.896 1.894l1.494-.13c-.013-.144.036-.344.353-.604c.33-.27.878-.54 1.656-.759zm16.718 2.322c-.618-.43-1.384-.822-2.252-1.17l-.558 1.392c.795.32 1.454.663 1.954 1.01zM3.709 14.552c1.017.56 2.308 1.052 3.761 1.443l.39-1.449c-1.373-.369-2.544-.822-3.427-1.308zm-2.451-2.803c.082.948.812 1.726 1.67 2.322l.856-1.232c-.767-.533-1.01-.966-1.032-1.22zm3.096-2.936c-1.153.325-2.166.823-2.705 1.572l1.217.877c.233-.324.829-.705 1.895-1.006zm-2.705 1.572a2 2 0 0 0-.391 1.364l1.494-.13a.5.5 0 0 1 .114-.357zm21.093 3.07a2.2 2.2 0 0 0-.137-.584l-1.4.538a.7.7 0 0 1 .043.176zm-.137-.584a3 3 0 0 0-.574-.909l-1.119.999c.155.174.246.325.293.448zm-.574-.909c-.432-.484-1.036-.922-1.74-1.31l-.724 1.315c.619.34 1.066.68 1.345.994zm-1.74-1.31a13 13 0 0 0-1.471-.688l-.558 1.392c.486.195.924.4 1.305.61zm-.645 5.74c.879-.248 1.648-.589 2.2-1.043c.566-.465.965-1.106.896-1.894l-1.494.13c.013.144-.036.344-.353.605c-.33.27-.878.538-1.656.758zM2.928 14.07c.618.428 1.385.821 2.252 1.17l.559-1.393c-.796-.319-1.456-.663-1.955-1.01zm17.363-3.418c-1.017-.56-2.308-1.053-3.761-1.444l-.39 1.449c1.373.369 2.544.822 3.427 1.309zM2.928 14.07c1.267.879 3.188 1.626 5.403 2.139l.338-1.462c-2.121-.49-3.837-1.182-4.885-1.91zm15.757 2.548c1.145-.225 2.141-.568 2.858-1.046s1.28-1.188 1.2-2.118l-1.495.13c.014.161-.052.417-.537.74s-1.264.616-2.315.823zm-6.92-8.246a27 27 0 0 0-3.801-.095l.072 1.498a26 26 0 0 1 3.591.09z"/><path stroke="currentColor" stroke-linecap="round" stroke-width="1.5" d="M15.274 4.85q.39-.245.753-.423c.881-.43 1.637-.55 2.175-.29c.276.133.478.358.61.661c.122.284.184.635.188 1.044m-3.726-.991c-1.814 1.145-3.998 3.363-5.892 6.141m5.892-6.141c-.388.245-.794.54-1.21.879M6.787 20.859l.01.005q.171.083.369.114c.237.04.502.025.791-.037c.516-.11 1.105-.377 1.741-.775q.224-.14.454-.301q.385-.27.784-.595l1.175-.954m-5.324 2.543c-.826-.409-.981-1.652-.566-3.348m.566 3.348C5.46 20.2 5.866 17.387 7.59 14m11.188-6.511c.15-.615.226-1.17.222-1.647m0 0c.007.856-.241 1.962-.719 3.213"/><path stroke="currentColor" stroke-width="1.5" d="M11.765 14.281c-.014-.91-.02-1.365.266-1.531s.678.068 1.46.535l.202.12c.222.134.333.2.455.215c.123.016.242-.021.482-.096l.218-.067c.843-.262 1.264-.393 1.518-.16c.253.235.17.679.005 1.566l-.042.23c-.047.252-.07.379-.043.502s.104.23.256.442l.138.194c.535.749.802 1.123.672 1.433s-.573.351-1.456.433l-.229.021c-.25.023-.376.035-.482.096c-.105.06-.178.163-.323.369l-.133.187c-.512.725-.768 1.087-1.102 1.045s-.525-.461-.906-1.298l-.098-.217c-.109-.238-.163-.357-.256-.443c-.093-.085-.213-.128-.455-.214l-.22-.078c-.852-.3-1.278-.45-1.354-.787s.248-.636.897-1.235l.167-.155c.184-.17.277-.256.324-.37c.048-.113.046-.243.042-.501z"/></g></svg>