<svg viewBox="0 0 24 24"><path fill="currentColor" d="m14.946 3.114l-.269.7zm1.635-.086l-.333-.672zm-4.81 2.147l-.745.087zm2.807-2.203l.269-.7zm-3.245 4.176l.573.483zm.484-1.577l.745-.086zm.38 5.155l-.12.74zM11.07 7.46l-.574-.483zm2.855 4.218l.638-.393zm-1.336-.888l.121-.74zm5.045 1.038l.657.363zm-3.503.185l-.638.393zm5.01-1.569l-.195-.724zm-1.31 1.028l-.656-.363zM20.57 6.96l-.542.518zm-1.037 3.38l.195.724zm.24-5.188l.748.066zm.526 1.524l.543-.518zm-.49-1.924l-.748-.065zm-2.862-1.904l.332.672zm2.114 1.839l-.035.4l1.495.13l.035-.4zm.696 2.507l.27.284l1.086-1.036l-.271-.284zm-.42 2.422l-.39.105l.39 1.448l.39-.105zm-2.16 1.494l-.198.356l1.313.726l.197-.356zm-2.406.51l-.207-.334l-1.277.787l.207.335zm-2.06-1.57l-.393-.063l-.24 1.48l.392.064zm-1.067-2.106l.263-.312l-1.147-.966l-.263.312zm.919-2.458l-.046-.396l-1.49.173l.046.395zm1.747-1.813l.368.142l.539-1.4l-.37-.142zm2.605.028l.364-.18l-.665-1.345l-.365.18zm-2.237.114c.345.133.72.293 1.13.271l-.08-1.498h-.012l-.075-.019a6 6 0 0 1-.425-.154zm1.571-1.458a7 7 0 0 1-.424.2a1 1 0 0 1-.096.031l.079 1.498c.404-.021.765-.216 1.107-.385zM12.517 5.09c-.091-.789-.148-1.295-.136-1.654a1 1 0 0 1 .051-.322l.003-.005l.002-.001l-.926-1.18c-.494.388-.612.95-.629 1.458c-.016.498.06 1.137.145 1.877zm2.33-2.817c-.688-.265-1.286-.497-1.77-.603c-.496-.11-1.07-.132-1.566.258l.926 1.18q.004-.003 0-.001s.005-.002.024-.004a1 1 0 0 1 .295.032c.346.076.817.255 1.553.538zm-2.94 5.36c.247-.294.521-.597.64-.984l-1.434-.44l-.008.018l-.048.073c-.06.083-.145.186-.297.366zm-.834-1.975c.026.229.04.357.044.454a1 1 0 0 1-.004.097l1.434.44c.12-.39.059-.792.016-1.163zm1.245 4.329c-.784-.128-1.285-.212-1.621-.32c-.33-.106-.278-.167-.254-.098l-1.418.489c.21.611.736.884 1.212 1.037c.47.151 1.107.253 1.84.372zm-1.82-3.01c-.493.585-.918 1.086-1.183 1.512c-.267.426-.498.968-.29 1.569l1.418-.49c.02.058-.051.028.144-.285s.533-.717 1.057-1.339zm4.066 4.309c-.19-.31-.394-.67-.737-.898l-.83 1.249c-.01-.007.001-.005.049.06c.055.075.122.182.242.376zm-2.094.245c.227.037.354.058.447.081c.081.02.089.03.08.024l.83-1.248c-.34-.227-.753-.278-1.116-.338zm4.51-.065c-.393.709-.649 1.167-.872 1.462a1.1 1.1 0 0 1-.218.233q-.026.017-.024.014h.005l.08 1.497c.627-.033 1.047-.435 1.353-.839c.303-.4.619-.974.988-1.64zm-3.486.941c.385.625.718 1.17 1.037 1.544c.327.384.778.755 1.42.721l-.08-1.498h.004l.009.002q.01.004-.008-.005a.9.9 0 0 1-.203-.192c-.226-.265-.49-.69-.902-1.359zm5.453-2.686c-.369.1-.763.191-1.082.442l.926 1.18s.016-.015.098-.044a7 7 0 0 1 .448-.13zm-.458 2.115c.246-.445.278-.475.302-.493l-.926-1.18c-.319.25-.503.61-.689.947zm1.539-4.358c.542.567.884.93 1.084 1.215a1 1 0 0 1 .136.248l.003.014v-.007l1.435.44c.187-.61-.055-1.138-.344-1.552c-.281-.404-.724-.864-1.23-1.394zm-.3 3.586c.73-.197 1.36-.365 1.82-.563c.467-.201.954-.514 1.137-1.113l-1.433-.44v-.001l-.004.005l-.016.016a1 1 0 0 1-.277.155c-.337.146-.84.283-1.618.493zm-.702-5.977c-.032.37-.084.782.05 1.167l1.417-.49c.003.01-.005-.002-.004-.087c0-.098.011-.228.032-.46zm1.816 1.071a6 6 0 0 1-.302-.329c-.05-.062-.05-.074-.047-.064l-1.418.49c.135.389.43.676.682.939zm-.287-1.34c.066-.747.125-1.393.095-1.888c-.03-.498-.161-1.078-.7-1.436l-.83 1.25c-.062-.042.011-.077.032.276c.022.357-.02.87-.09 1.667zM17.279 3.52c.727-.36 1.197-.59 1.545-.704s.353-.035.296-.073l.83-1.249c-.532-.354-1.117-.26-1.593-.104c-.475.156-1.061.448-1.743.786z"/><path fill="currentColor" d="m13.98 19.98l.748.05zm-11.89.052l.705.257zm12.766-7.093c-.22.273-.402.666-.556 1.084c-.16.436-.313.967-.452 1.565c-.278 1.198-.507 2.706-.617 4.342l1.497.1c.105-1.563.324-2.99.581-4.103c.13-.557.266-1.025.399-1.387c.14-.38.254-.582.315-.659zm-12.06 7.35c.658-1.805 1.832-3.73 3.295-5.396c1.465-1.667 3.18-3.03 4.891-3.759l-.587-1.38c-1.977.841-3.866 2.368-5.431 4.15c-1.567 1.784-2.847 3.868-3.578 5.87zm9.076.961H9.833v1.5h2.039zm-2.039 0H5.5v1.5h4.333zm-4.333 0H3.717v1.5H5.5zm5.083.75c0-.896.337-2.805 1.015-4.812c.681-2.016 1.652-3.967 2.823-5.053l-1.02-1.1c-1.454 1.348-2.522 3.595-3.224 5.673c-.705 2.086-1.094 4.168-1.094 5.292zm-9.197-2.225a2.09 2.09 0 0 0 .386 2.127c.467.538 1.183.848 1.945.848v-1.5c-.365 0-.653-.149-.813-.332a.59.59 0 0 1-.109-.63zm11.845.155c-.05.746-.653 1.32-1.36 1.32v1.5c1.547 0 2.757-1.238 2.857-2.72zM6.25 22c0-.154.042-.44.153-.86c.108-.406.27-.895.48-1.439a24 24 0 0 1 1.742-3.569c.723-1.214 1.548-2.335 2.405-3.142c.872-.821 1.68-1.229 2.38-1.229v-1.5c-1.265 0-2.428.714-3.409 1.637c-.995.938-1.902 2.186-2.665 3.466a26 26 0 0 0-1.853 3.797a16 16 0 0 0-.53 1.595c-.12.457-.203.893-.203 1.244z" opacity=".5"/></svg>