<svg viewBox="0 0 24 24"><path fill="currentColor" d="m9.95 6.649l-.263-.702zm1.45-1.415l.699.274zm-2.58 5.84l-.466.588zm.66-4.249l.263.703zm.686 6.355l-.748.05zm-.952-1.793l.466-.588zm.775.75l.662-.353zm4.17 3.504l.397.636zm-3.96-1.97l.748-.048zm6.422 1.399l.189-.726zm-2.038.306l-.398-.636zm5.636-3.21l.723-.202zm-3.107 3.031l-.19.726zm3.282-5.49l-.627-.412zm-.308 1.983l-.722.201zm-1.46-6.239l.043-.749zm2.04 3.843l.626.412zm-4.394-4.792l-.573.484zm1.848.92l-.044.748zM15.948 4.12l.573-.484zm-4.368.656l-.698-.274zM7.02 9.17a.75.75 0 0 0-.849-1.238zM2.33 22l-.74.126a.75.75 0 0 0 1.445.13zm8.283-5.875a.75.75 0 0 0-.452-1.43zm4.762-11.521l.323.382l1.146-.968l-.323-.382zm2.7 1.566l.506.03l.087-1.498l-.505-.03zm1.962 2.712l-.27.413l1.253.823l.271-.412zm-.674 3.009l.133.476l1.445-.403l-.133-.476zm-2.064 2.58l-.49-.127l-.378 1.452l.49.127zm-3.115.27l-.424.264l.795 1.272l.424-.265zm-3.238-1.118l-.032-.492l-1.497.098l.032.492zM9.68 10.799l-.395-.313l-.931 1.176l.395.313zm.063-3.271l.47-.177l-.526-1.404l-.47.176zm2.356-2.02l.18-.458l-1.397-.548l-.18.458zm-1.886 1.843c.455-.17.897-.32 1.226-.64L10.39 5.637c-.05.048-.124.092-.704.31zm.49-2.39c-.222.564-.265.63-.312.676L11.44 6.71c.331-.324.486-.761.66-1.203zm-1.418 5.525c-.782-.62-1.3-1.034-1.622-1.374c-.32-.34-.281-.44-.28-.443L5.9 8.44c-.11.704.255 1.259.671 1.7c.414.44 1.04.934 1.783 1.523zm-.068-4.363c-.886.332-1.632.609-2.16.9c-.531.294-1.048.711-1.157 1.416l1.482.23c0-.002-.006-.108.4-.332c.408-.226 1.027-.46 1.96-.81zm1.698 7.008c-.031-.474-.046-.937-.264-1.347l-1.325.704c.032.059.052.136.092.741zm-2.166-1.156c.485.384.544.45.577.513l1.325-.703c-.215-.406-.59-.684-.97-.986zm5.012 3.03c-.84.525-1.398.872-1.827 1.06c-.42.184-.526.128-.556.113l-.668 1.343c.628.312 1.262.164 1.825-.082c.554-.242 1.224-.663 2.021-1.162zM9.45 13.721c.06.924.11 1.705.238 2.29c.132.598.388 1.195 1.022 1.51l.668-1.343c-.026-.013-.13-.055-.225-.489c-.098-.447-.142-1.09-.206-2.066zm7.36.623c-.477-.124-.922-.254-1.375-.186l.223 1.484c.08-.012.174-.002.774.154zm-1.83 1.668c.52-.324.602-.359.678-.37l-.223-1.484c-.456.069-.838.325-1.25.582zm4.517-3.645c.264.946.436 1.571.49 2.024c.055.445-.033.5-.038.505l1.047 1.073c.512-.499.554-1.157.48-1.759c-.072-.593-.285-1.35-.534-2.246zm-2.574 3.556c.924.24 1.698.444 2.303.511c.608.068 1.266.027 1.77-.465l-1.047-1.073c-.012.012-.087.1-.556.047c-.473-.052-1.12-.219-2.093-.471zm2.844-6.628c-.26.397-.53.779-.6 1.236l1.482.23c.01-.06.037-.132.372-.643zm1.042 2.193c-.164-.589-.17-.666-.16-.727l-1.482-.23c-.071.456.07.902.197 1.36zM18.582 6.2c1.002.058 1.67.1 2.135.194c.463.095.509.202.518.22l1.325-.704c-.33-.622-.943-.863-1.543-.985c-.596-.122-1.395-.167-2.348-.223zm2.71 3.506c.51-.776.942-1.431 1.191-1.974c.253-.552.412-1.19.077-1.822l-1.325.703c.004.008.07.088-.116.494c-.19.414-.543.956-1.08 1.775zM15.7 4.986c.314.372.6.733 1.012.938l.668-1.343c-.07-.035-.139-.094-.534-.563zm2.465-.313c-.62-.037-.713-.056-.785-.092l-.668 1.343c.41.204.873.217 1.365.246zM16.52 3.636c-.608-.72-1.118-1.327-1.572-1.728c-.46-.407-1.018-.743-1.712-.64l.223 1.484c.033-.005.15-.026.496.28c.352.31.779.813 1.42 1.572zM12.279 5.05c.357-.91.595-1.509.823-1.904c.223-.384.333-.39.36-.394l-.224-1.483c-.7.105-1.127.596-1.433 1.125c-.3.518-.584 1.247-.922 2.108zM6.171 7.932C4.5 9.08 3.021 10.752 2.132 13.1c-.888 2.342-1.174 5.31-.54 9.027l1.479-.252c-.6-3.514-.31-6.203.464-8.243c.772-2.037 2.043-3.473 3.484-4.461zM3.036 22.255c.98-2.705 4.016-5.004 7.578-6.13l-.452-1.43c-3.789 1.197-7.333 3.727-8.536 7.05z"/></svg>