<svg viewBox="0 0 24 24"><g fill="none"><path fill="currentColor" fill-rule="evenodd" d="M11.438 2.877c-.135.156-.306.394-.568.761l-.151.214q-.018.023-.035.05c-.126.179-.302.428-.567.584s-.568.188-.786.21l-.06.007l-.261.03a12 12 0 0 0-.94.125c.109.182.285.425.56.798l.156.214l-.604.444l.604-.444l.037.05c.133.179.313.421.38.718c.068.298.01.595-.033.812l-.012.06l-.05.258c-.088.462-.143.757-.161.966c.203-.044.485-.134.925-.278l.25-.081l.057-.019c.208-.07.496-.165.802-.134c.303.032.566.183.759.294l.053.03l.23.13c.394.224.653.37.844.456c.016-.208.014-.503.009-.954l-.003-.264l-.002-.061c-.003-.221-.009-.525.111-.806c.12-.283.345-.489.507-.637l.044-.04l.192-.179c.337-.312.552-.514.689-.67c-.193-.085-.479-.18-.926-.326l-.25-.082l-.059-.019c-.211-.068-.498-.16-.727-.363c-.227-.202-.353-.477-.445-.68l-.026-.055l-.112-.24a12 12 0 0 0-.431-.879m-.121-.174l-.002-.002zm3.276 2.915l-.002-.001zm-.057-.257l.001-.002zm-1.704 3.995v-.003zm.245-.147h.003zm-4.33-.447h.003zm.197.17v.004zm1.484-7.174c.25-.257.633-.555 1.17-.5c.532.056.85.42 1.046.72c.186.283.367.674.564 1.099l.022.047l.112.24l.077.165l.037.074l.076.027l.171.057l.251.082l.05.016c.442.145.85.278 1.154.43c.322.16.717.433.835.952c.12.523-.123.94-.348 1.22c-.21.265-.524.555-.861.868l-.039.036l-.192.178l-.18.172q-.002.028-.002.074l.001.18l.004.265v.052c.006.466.011.896-.034 1.231c-.048.353-.18.824-.646 1.098c-.465.273-.94.16-1.272.031c-.316-.122-.69-.335-1.096-.565l-.045-.026l-.23-.13l-.226-.125l-.07.02l-.17.055l-.25.081l-.05.016c-.437.143-.844.276-1.177.332c-.355.06-.836.07-1.236-.286c-.398-.354-.446-.832-.431-1.191c.014-.339.095-.76.182-1.216l.01-.051l.05-.259l.736.141l-.736-.14l.045-.256l-.046-.067l-.107-.147l-.157-.214l.526-.386l-.526.386l-.03-.042c-.278-.377-.533-.725-.692-1.025c-.168-.315-.335-.77-.124-1.263c.212-.498.66-.688 1.006-.78c.326-.087.751-.135 1.21-.186l.053-.006l.26-.03l.248-.03l.041-.055l.104-.145l.152-.214l.031-.043c.267-.375.515-.724.75-.966m12.22 7.364a.75.75 0 0 1-.27 1.026C16.666 13.48 15.25 18.859 15.25 22a.75.75 0 0 1-1.5 0c0-3.525 1.584-9.48 7.872-13.148a.75.75 0 0 1 1.026.27M11.206 11.28a.75.75 0 0 1 .515.927c-.367 1.283-.454 3.144-.396 5.008c.057 1.846.254 3.616.416 4.672a.75.75 0 1 1-1.482.228a43 43 0 0 1-.434-4.853c-.059-1.894.02-3.95.454-5.467a.75.75 0 0 1 .927-.515" clip-rule="evenodd"/><path stroke="currentColor" stroke-linejoin="round" d="M5 13.268s.65.747 1.223.9c.573.155 1.51-.168 1.51-.168s-.749.65-.902 1.222c-.154.573.17 1.51.17 1.51s-.65-.748-1.223-.902c-.573-.153-1.51.17-1.51.17s.748-.65.901-1.223S5 13.267 5 13.267Z"/></g></svg>