<svg viewBox="0 0 24 24"><path fill="currentColor" fill-rule="evenodd" d="m9.859 10.835l-.048-.03c-.492-.31-.933-.59-1.308-.752c-.4-.174-.912-.3-1.43-.028c-.509.268-.704.755-.8 1.18c-.078.339-.12.764-.158 1.243a22 22 0 0 1-1.518-1.755l-.003-.004A13.6 13.6 0 0 1 3.45 8.97l-.106-.2l-.03-.056l-.049-.098a7 7 0 0 1-.281-.652a5 5 0 0 1-.157-.516c-.118-.503-.089-.871.024-1.11a.8.8 0 0 1 .36-.372c.13-.071.297-.13.513-.168c.538-.096 1.296-.049 2.25.186l.01.002l.17.044c1.997.528 4.578 1.787 7.244 3.68c2.515 1.787 4.608 3.785 6.005 5.596l.004.006a14 14 0 0 1 1.113 1.663l.011.02a7.5 7.5 0 0 1 .53 1.162q.127.385.168.681c.05.369.01.64-.078.827c-.076.162-.221.32-.484.43a2 2 0 0 1-.389.11c-.538.095-1.296.048-2.249-.187l-.007-.002a14 14 0 0 1-1.748-.565a.75.75 0 1 0-.546 1.397c.944.37 1.847.637 2.671.781q.491.086.943.112a6 6 0 0 0 .554.006q.337-.012.647-.066q.365-.066.695-.2c.545-.223.999-.599 1.271-1.18c.372-.79.278-1.724-.028-2.626a9 9 0 0 0-.4-.953a13.4 13.4 0 0 0-1.23-1.987c-1.505-2.046-3.819-4.283-6.585-6.247c-2.763-1.963-5.507-3.321-7.729-3.908c-1.106-.293-2.137-.408-2.997-.272c-.32.05-.628.139-.908.271A2.3 2.3 0 0 0 1.491 5.7c-.294.629-.3 1.35-.124 2.096q.082.343.207.684a8 8 0 0 0 .437.98a11 11 0 0 0 .443.78a15 15 0 0 0 .69 1.017a23 23 0 0 0 2.168 2.517q.112.112.25.169l-.134.1l-.042.034c-.472.388-.887.73-1.168 1.037c-.291.318-.592.761-.513 1.338c.08.593.505.927.882 1.136c.356.198.848.38 1.396.582l.054.02l.307.113c.18.067.274.102.339.132l.017.008l.008.018c.03.065.066.158.132.338l.114.308l.02.053c.202.549.384 1.04.581 1.396c.21.377.544.802 1.136.883c.577.079 1.02-.222 1.338-.513c.308-.282.65-.697 1.038-1.168l.25-.305a6 6 0 0 1 .25-.292l.036-.036l.045-.008c.076-.012.178-.02.373-.036l.387-.03c.596-.047 1.124-.088 1.529-.18c.426-.097.912-.292 1.18-.801c.272-.518.146-1.03-.028-1.43c-.162-.374-.44-.815-.751-1.307l-.03-.048l-.175-.276a5 5 0 0 1-.198-.333l.006-.034c.015-.075.043-.176.096-.365l.092-.323l.016-.054c.164-.58.31-1.093.365-1.502c.056-.423.049-.97-.373-1.391s-.969-.43-1.391-.373c-.41.054-.923.2-1.502.365l-.054.015l-.324.092a6 6 0 0 1-.399.103l-.024-.012a5 5 0 0 1-.308-.187zm-2.145.533h.01zm.191.06a1 1 0 0 0-.125-.047a1 1 0 0 0-.045.157c-.065.284-.1.7-.151 1.368l-.026.333l-.006.073c-.021.288-.046.623-.205.925c-.157.3-.418.512-.645.698l-.058.048l-.263.216c-.526.433-.856.707-1.056.927a2 2 0 0 0-.088.104l.077.045c.243.135.623.278 1.243.507l.307.113l.07.026c.263.095.586.213.83.457s.362.568.458.83l.025.07l.114.308c.229.62.371.999.506 1.242q.026.047.046.077q.04-.03.104-.087c.22-.201.493-.53.926-1.057l.216-.262l.048-.058c.186-.228.4-.489.698-.646c.302-.158.637-.183.925-.205l.074-.005l.332-.026c.668-.053 1.084-.087 1.368-.151q.11-.026.157-.045a1 1 0 0 0-.047-.126c-.111-.255-.325-.597-.675-1.153l-.174-.276l-.04-.061c-.15-.236-.333-.524-.38-.866c-.046-.337.049-.665.129-.942l.02-.073l.093-.323c.184-.65.298-1.056.336-1.344l.01-.089l-.09.01c-.287.038-.693.151-1.343.336l-.324.092l-.073.02c-.276.08-.604.175-.941.13c-.343-.048-.63-.23-.866-.381l-.062-.04l-.276-.173c-.555-.35-.897-.564-1.153-.675m-2.746 4.74l.005.007zm.03.136l-.003.007zm3.642 3.652l.007-.002zm.136.022l.007.006zm4.808-2.55v-.01zm.037-.089l.008-.005zm-6.008-6.01l.006-.008zm11.861-8.921a.75.75 0 0 1 .13 1.053l-.111.142a3.6 3.6 0 0 0 .87 1.756a.75.75 0 0 1-1.108 1.01a5.1 5.1 0 0 1-1.021-1.697a3.7 3.7 0 0 1-.687.32c.326.591.532 1.247.605 1.927a.75.75 0 0 1-1.492.16a3.6 3.6 0 0 0-.718-1.811l-.158-.006a.75.75 0 0 1 .05-1.499l.408.014c.526-.104.797-.18 1.031-.29c.235-.112.47-.275.891-.62l.258-.33a.75.75 0 0 1 1.052-.13" clip-rule="evenodd"/></svg>