<svg viewBox="0 0 24 24"><path fill="currentColor" d="M11.811 6.727C12.825 4.909 13.331 4 14.09 4c.757 0 1.264.909 2.277 2.727l.262.47c.288.517.432.775.657.945c.224.17.504.234 1.063.36l.51.116c1.967.445 2.95.667 3.185 1.42s-.437 1.537-1.778 3.106l-.347.406c-.381.445-.572.668-.658.944s-.057.573 0 1.168l.053.541c.203 2.094.305 3.14-.308 3.605s-1.534.041-3.377-.807l-.476-.22c-.524-.24-.786-.361-1.063-.361c-.278 0-.54.12-1.063.361l-.477.22c-1.842.848-2.763 1.272-3.376.807s-.511-1.511-.309-3.605l.053-.541c.057-.595.086-.892 0-1.168s-.276-.498-.657-.944l-.347-.406C6.57 11.575 5.9 10.79 6.135 10.038s1.218-.975 3.185-1.42l.51-.116c.559-.126.838-.19 1.063-.36s.368-.428.656-.945z"/><path fill="currentColor" fill-rule="evenodd" d="M8.745 5.202c-1.981-.57-4.107-.269-6.158.932l-.208.122a.75.75 0 0 1-.758-1.294l.208-.122C4.19 3.457 6.737 3.063 9.161 3.76l.208.06a.75.75 0 0 1-.416 1.441zM4.836 9.936a.75.75 0 0 1-.683.811c-.154.014-.27.02-.37.027a3 3 0 0 0-.444.048c-.196.038-.452.117-.915.349a.75.75 0 1 1-.67-1.342c.537-.268.926-.408 1.302-.48c.247-.048.502-.064.731-.08l.238-.016a.75.75 0 0 1 .811.683m1.082 5.92a3.99 3.99 0 0 0-3.365.733a.75.75 0 1 1-.928-1.178a5.49 5.49 0 0 1 4.635-1.015a.75.75 0 0 1-.342 1.46" clip-rule="evenodd" opacity=".5"/></svg>