<svg viewBox="0 0 24 24"><path fill="currentColor" fill-rule="evenodd" d="M18.823 2.815c-.348.114-.818.345-1.544.704l-.365.18l-.078.04c-.319.159-.655.327-1.029.346c-.379.02-.728-.115-1.05-.24l-.08-.031l-.368-.142c-.737-.283-1.208-.462-1.554-.538a1 1 0 0 0-.295-.032l-.023.004l-.003.002l-.003.005l-.008.02a1 1 0 0 0-.043.302c-.011.359.045.865.136 1.654l.046.396l.01.084c.041.347.085.718-.026 1.08c-.11.357-.352.643-.584.916l-.056.066l-.263.312c-.524.622-.862 1.026-1.057 1.339a1 1 0 0 0-.137.279c.033.022.104.06.247.105c.336.108.837.192 1.622.32l.392.063l.086.014c.341.055.716.114 1.03.324c.317.21.514.533.693.825l.045.073l.206.334c.412.67.677 1.094.902 1.359a.9.9 0 0 0 .202.192l.015-.01c.04-.028.111-.092.218-.233c.223-.295.479-.753.871-1.462l.197-.356l.042-.075c.173-.314.352-.64.647-.872s.655-.328 1-.42l.082-.022l.39-.105c.779-.21 1.28-.347 1.618-.493a1.1 1.1 0 0 0 .293-.17l.002-.003l-.002-.009a1 1 0 0 0-.136-.248c-.2-.285-.542-.648-1.084-1.215l-.271-.284l-.059-.061c-.237-.247-.498-.52-.622-.879c-.123-.356-.089-.733-.057-1.08l.007-.087l.035-.4c.07-.798.113-1.31.092-1.667a1 1 0 0 0-.041-.269a1.1 1.1 0 0 0-.288.065m.323-.062l-.01-.002zm-.044-.025q-.009-.01-.007-.011l.007.01m-8.678 6.81l.01.01q-.012-.01-.01-.01m.021.042v.011zm7.912-8.19c.475-.156 1.06-.251 1.593.103c.538.358.669.938.699 1.436c.029.482-.026 1.107-.09 1.83l-.04.457a7 7 0 0 0-.031.46c0 .056.003.08.005.088l.046.064c.059.073.145.165.302.33l.312.326c.489.512.915.958 1.188 1.35c.29.415.531.942.344 1.553c-.184.6-.67.912-1.137 1.113c-.45.193-1.059.358-1.766.548l-.446.12a7 7 0 0 0-.447.13a.3.3 0 0 0-.099.044c-.023.018-.056.048-.302.493l-.225.406c-.357.645-.664 1.2-.96 1.591c-.306.404-.726.806-1.354.84q-.148.007-.284-.013c-.119.343-.24.77-.355 1.268c-.258 1.112-.477 2.54-.582 4.103c-.1 1.482-1.31 2.72-2.856 2.72H3.717c-.762 0-1.477-.31-1.945-.849a2.09 2.09 0 0 1-.386-2.127c.731-2.003 2.01-4.086 3.578-5.87c1.239-1.41 2.68-2.661 4.209-3.539a1.4 1.4 0 0 1-.15-.308c-.206-.6.025-1.143.29-1.57c.26-.415.67-.9 1.146-1.467l.037-.043l.263-.312c.152-.18.238-.283.297-.366l.048-.073l.008-.018l.003-.016l.001-.081a6 6 0 0 0-.044-.454l-.046-.395l-.006-.058c-.083-.715-.155-1.334-.139-1.819c.017-.508.135-1.07.629-1.458c.496-.39 1.07-.367 1.567-.258c.47.104 1.05.326 1.715.582l.055.021l.369.142c.213.082.332.127.424.154l.085.02h.003l.003-.001l.013-.003l.08-.028c.094-.037.214-.096.425-.2l.416-.206c.66-.327 1.228-.609 1.692-.76m-7.595 9.842c-1.638.748-3.27 2.065-4.67 3.661c-1.463 1.665-2.638 3.591-3.296 5.395a.59.59 0 0 0 .108.63c.16.183.449.332.813.332h1.12q.05-.24.117-.495c.125-.47.305-1.013.53-1.594a26 26 0 0 1 1.852-3.797c.763-1.28 1.67-2.529 2.665-3.466a8 8 0 0 1 .789-.66zm1.821.7c-.485.191-1.007.543-1.553 1.058c-.857.807-1.682 1.928-2.405 3.142A24 24 0 0 0 6.883 19.7a14 14 0 0 0-.508 1.549h2.751c.119-1.177.482-2.858 1.051-4.542c.563-1.667 1.362-3.443 2.406-4.776m-1.948 9.318h1.237c.706 0 1.309-.575 1.36-1.32c.11-1.636.339-3.144.616-4.342c.139-.598.292-1.13.452-1.565q.045-.123.093-.242a12 12 0 0 1-.625-.93c-.88 1.122-1.62 2.708-2.17 4.337c-.525 1.555-.846 3.05-.963 4.062m9.858-15.486v.002z" clip-rule="evenodd"/></svg>