<svg viewBox="0 0 24 24"><g fill="none"><path fill="currentColor" d="m9.963 5.72l.278.696zm1.087-1.133l.704.26zM9.115 9.26l.484-.573zm.495-3.4l-.279-.696zm.515 5.084l-.749.046zM9.41 9.51l-.484.573zm.58.6l-.67.334zm3.128 2.804l.416.624zm-2.97-1.576l.748-.046zm4.817 1.119l.2-.723zm-1.53.245l-.415-.624zm4.228-2.568l.726-.19zm-2.33 2.425l-.2.723zm2.462-4.393l-.639-.393zm-.231 1.587l-.726.19zM16.469 4.76l-.047.748zM18 7.835l.639.393zm-3.295-3.833l.588-.466zm1.386.735l.047-.748zM14.46 3.696l-.588.465zm-3.276.525l-.704-.26zM7.89 7.846a.75.75 0 1 0-.885-1.21zM4.25 18l-.741.118a.75.75 0 0 0 1.45.123zm6.282-4.561a.75.75 0 0 0-.48-1.422zm3.342-9.278l.243.306l1.176-.93l-.243-.307zm2.17 1.325l.38.023l.093-1.497l-.38-.023zm1.317 1.956l-.203.33l1.277.787l.204-.33zm-.52 2.5l.099.38l1.451-.379l-.1-.381zm-1.306 1.893l-.368-.102l-.4 1.446l.367.102zm-2.513.242l-.318.212l.832 1.248l.318-.212zm-2.124-.786l-.024-.393l-1.497.092l.024.393zM9.895 8.937l-.296-.25l-.968 1.145l.296.25zm-.007-2.38l.353-.141l-.557-1.393l-.353.14zm1.866-1.71l.135-.367l-1.408-.518l-.134.366zm-1.513 1.569c.327-.13.706-.266.986-.557l-1.082-1.04c.009-.008.005.002-.063.036a6 6 0 0 1-.398.168zm.106-2.088a7 7 0 0 1-.162.417c-.035.075-.047.082-.04.074l1.082 1.04c.277-.288.402-.673.527-1.013zm-.748 4.358c-.591-.5-.968-.82-1.199-1.082a1 1 0 0 1-.17-.239q-.01-.024-.007-.02v.006l-1.484-.216c-.09.61.21 1.091.536 1.462c.321.363.802.767 1.356 1.235zM9.33 5.164c-.658.263-1.234.49-1.647.734c-.425.25-.855.62-.945 1.237l1.484.216l-.003.01l.007-.009a.9.9 0 0 1 .218-.162c.29-.17.737-.351 1.443-.633zm1.542 5.734c-.022-.369-.033-.768-.21-1.123l-1.343.668l.005.015q.007.018.015.08c.014.096.022.225.036.452zm-1.946-.816c.17.145.266.226.333.293q.043.043.053.057l.007.011l1.343-.668c-.178-.358-.49-.604-.768-.838zm3.776 2.207c-.636.424-1.04.69-1.344.833c-.296.138-.292.06-.225.095l-.703 1.325c.562.298 1.12.145 1.562-.06c.433-.203.95-.55 1.542-.945zM9.4 11.383c.045.736.083 1.37.181 1.849c.099.48.3 1.019.85 1.31l.703-1.325c.056.03-.013.057-.084-.288c-.072-.348-.104-.853-.153-1.638zm5.766.35c-.338-.093-.726-.218-1.125-.154l.238 1.481c-.016.003-.009-.004.067.01c.088.018.206.05.42.109zm-1.313 1.592c.184-.123.286-.19.365-.234c.067-.037.076-.033.06-.03l-.237-1.482c-.399.064-.728.303-1.02.498zm3.086-3.002c.198.76.325 1.25.365 1.603c.04.35-.034.345.01.3l1.081 1.04c.431-.449.455-1.024.4-1.51c-.056-.485-.219-1.1-.405-1.813zm-1.806 2.958c.686.19 1.286.358 1.76.415c.485.058 1.062.028 1.502-.43l-1.081-1.04c.052-.054.08.019-.243-.02c-.334-.04-.8-.167-1.537-.37zm2.024-5.509c-.19.31-.41.64-.468 1.036l1.484.217l.004-.014l.032-.07a6 6 0 0 1 .226-.382zm1.133 1.79a7 7 0 0 1-.107-.44l-.01-.082v-.015l-1.484-.217c-.058.393.057.776.15 1.133zm-1.867-4.053c.759.048 1.24.08 1.568.151a.9.9 0 0 1 .257.086q.016.011.01.006l-.006-.009l1.342-.668c-.278-.559-.802-.775-1.284-.88c-.468-.102-1.087-.139-1.794-.183zm2.215 2.72c.38-.618.71-1.152.902-1.598c.195-.454.33-1.003.054-1.556l-1.343.668l-.001-.005v.021a1 1 0 0 1-.088.28c-.138.32-.396.744-.802 1.403zm-4.522-3.762c.224.284.464.61.816.798l.703-1.325c.01.005-.003.002-.06-.058a7 7 0 0 1-.283-.346zm2.02-.478a6 6 0 0 1-.43-.035c-.074-.011-.081-.02-.07-.014l-.703 1.325c.357.19.76.199 1.11.22zM15.05 3.23c-.452-.572-.843-1.069-1.195-1.4c-.353-.333-.835-.662-1.461-.562l.237 1.481c-.08.013-.056-.065.195.173c.253.238.564.628 1.048 1.24zm-3.16 1.25c.27-.732.444-1.2.61-1.506c.165-.304.212-.238.131-.225l-.237-1.481c-.626.1-.981.564-1.213.99c-.23.425-.447 1.02-.699 1.704zM7.004 6.635c-2.607 1.907-4.456 5.48-3.496 11.483l1.481-.236c-.89-5.566.837-8.527 2.9-10.036zM4.959 18.241c.716-2.11 2.943-3.916 5.572-4.802l-.48-1.422c-2.884.973-5.592 3.03-6.513 5.742z"/><path stroke="currentColor" stroke-linejoin="round" d="M10.28 16s.634 1.39 1.414 1.87c.78.477 2.306.41 2.306.41s-1.39.633-1.87 1.413c-.478.78-.41 2.307-.41 2.307s-.634-1.39-1.414-1.87C9.527 19.654 8 19.72 8 19.72s1.39-.633 1.87-1.413c.478-.78.41-2.307.41-2.307Zm8.2-1s-.422.927-.942 1.246S16 16.52 16 16.52s.927.422 1.246.942S17.52 19 17.52 19s.422-.927.942-1.246S20 17.48 20 17.48s-.927-.422-1.246-.942S18.48 15 18.48 15Z" opacity=".5"/></g></svg>