<svg viewBox="0 0 24 24"><path fill="currentColor" d="M5.466 2.53a.75.75 0 1 0-1.06-1.06A10.72 10.72 0 0 0 1.25 9.077a10.72 10.72 0 0 0 3.225 7.677a.75.75 0 0 0 1.05-1.071A9.22 9.22 0 0 1 2.75 9.078a9.22 9.22 0 0 1 2.716-6.547m14.211-.978a.75.75 0 1 0-1.071 1.05a9.22 9.22 0 0 1 2.644 6.475a9.22 9.22 0 0 1-2.703 6.534a.75.75 0 0 0 1.062 1.06a10.72 10.72 0 0 0 3.141-7.594c0-2.93-1.173-5.587-3.073-7.525"/><path fill="currentColor" d="M8.274 5.626A.75.75 0 1 0 7.25 4.53c-1.229 1.149-2 2.75-2 4.53c0 1.8.79 3.418 2.042 4.57a.75.75 0 0 0 1.016-1.105c-.97-.89-1.558-2.118-1.558-3.466c0-1.332.575-2.546 1.524-3.434m8.529-1.045a.75.75 0 0 0-1.037 1.084c.925.885 1.484 2.083 1.484 3.396c0 1.329-.572 2.54-1.517 3.428a.75.75 0 0 0 1.027 1.093c1.223-1.148 1.99-2.746 1.99-4.52c0-1.754-.75-3.336-1.947-4.48"/><path fill="currentColor" fill-rule="evenodd" d="M13.424 11.431a2.75 2.75 0 1 0-2.848 0l-3.29 10.342a.75.75 0 0 0 1.287.712L12 18.434l3.428 4.05a.75.75 0 0 0 1.287-.711zM12 7.828a1.25 1.25 0 0 0-.427 2.425a.8.8 0 0 1 .226.059a1.3 1.3 0 0 0 .402 0a.8.8 0 0 1 .226-.059A1.25 1.25 0 0 0 12 7.828m2.147 10.82l-1.165-1.375l.528-.624zm-1.22-3.633l.048-.05L12 11.902l-.975 3.063l.047.05l.928 1.097zm-1.91 2.258l-.527-.624l-.637 2z" clip-rule="evenodd"/></svg>