<svg viewBox="0 0 24 24"><path fill="currentColor" d="M5.466 2.53a.75.75 0 1 0-1.06-1.06A10.72 10.72 0 0 0 1.25 9.077a10.72 10.72 0 0 0 3.225 7.677a.75.75 0 0 0 1.05-1.071A9.22 9.22 0 0 1 2.75 9.078a9.22 9.22 0 0 1 2.716-6.547m14.211-.978a.75.75 0 1 0-1.071 1.05a9.22 9.22 0 0 1 2.644 6.475a9.22 9.22 0 0 1-2.703 6.534a.75.75 0 0 0 1.062 1.06a10.72 10.72 0 0 0 3.141-7.594c0-2.93-1.173-5.587-3.073-7.525"/><path fill="currentColor" d="M8.274 5.626A.75.75 0 1 0 7.25 4.53c-1.229 1.149-2 2.75-2 4.53c0 1.8.79 3.418 2.042 4.57a.75.75 0 0 0 1.016-1.105c-.97-.89-1.558-2.118-1.558-3.466c0-1.332.575-2.546 1.524-3.434m8.529-1.045a.75.75 0 0 0-1.037 1.084c.925.885 1.484 2.083 1.484 3.396c0 1.329-.572 2.54-1.517 3.428a.75.75 0 0 0 1.027 1.093c1.223-1.148 1.99-2.746 1.99-4.52c0-1.754-.75-3.336-1.947-4.48"/><path fill="currentColor" fill-rule="evenodd" d="M10.833 10.624a2 2 0 1 1 2.335 0l3.547 11.149a.75.75 0 0 1-1.287.712L12 18.434l-3.427 4.05a.75.75 0 0 1-1.288-.711zm2.15 6.649l1.164 1.375l-.637-2zm-.008-2.308l-.047.05L12 16.113l-.928-1.096l-.046-.051l.974-3.063zm-2.485 1.684l.527.624l-1.164 1.375z" clip-rule="evenodd"/></svg>