<svg viewBox="0 0 24 24"><g fill="none"><path stroke="currentColor" stroke-linecap="round" stroke-width="1.5" d="M8.913 15.934a8.1 8.1 0 0 0 3.356.1"/><ellipse cx="14.509" cy="9.774" fill="currentColor" rx="1" ry="1.5" transform="rotate(-15 14.51 9.774)"/><ellipse cx="8.714" cy="11.328" fill="currentColor" rx="1" ry="1.5" transform="rotate(-15 8.714 11.328)"/><path stroke="currentColor" stroke-linecap="round" stroke-width="1.5" d="M7 3.338A9.95 9.95 0 0 1 12 2c5.523 0 10 4.477 10 10c0 .648-.3 1.25-.758 1.708l-7.534 7.534C13.25 21.7 12.648 22 12 22C6.477 22 2 17.523 2 12c0-1.821.487-3.53 1.338-5"/><path stroke="currentColor" stroke-width="1.5" d="M12 22c0-2.793 0-4.19.393-5.312a7 7 0 0 1 4.295-4.295C17.811 12 19.208 12 22 12"/></g></svg>