<svg viewBox="0 0 24 24"><path fill="currentColor" fill-rule="evenodd" d="m16.5 21.839l-.038.008h-.004q-.023.007-.047.01l-.002.001l.05-.01z" clip-rule="evenodd"/><path fill="currentColor" d="M22 15c-.584 0-1.076 0-1.5.008c-.928.016-1.528.069-2.045.237a5 5 0 0 0-3.21 3.21c-.168.517-.22 1.117-.237 2.045C15 20.924 15 21.416 15 22q.725-.001 1.41-.142l.048-.01h.004l.038-.01a7.01 7.01 0 0 0 5.339-5.338q.16-.726.161-1.5"/><path fill="currentColor" fill-rule="evenodd" d="M2 12c0 4.714 0 7.071 1.464 8.535C4.93 22 7.286 22 12 22h1.5v-.26c-.001-1.607-.002-2.765.318-3.749q.104-.318.239-.623A5.7 5.7 0 0 1 12 17.75a5.77 5.77 0 0 1-3.447-1.147a.75.75 0 0 1 .894-1.206c.728.54 1.607.853 2.553.853s1.825-.313 2.553-.852a.75.75 0 0 1 .872-.016a6.5 6.5 0 0 1 2.566-1.564c.984-.32 2.142-.319 3.75-.318H22V12c0-4.714 0-7.071-1.465-8.536C19.072 2 16.714 2 12 2S4.929 2 3.464 3.464C2 4.93 2 7.286 2 12m13 0c.552 0 1-.672 1-1.5S15.552 9 15 9s-1 .672-1 1.5s.448 1.5 1 1.5m-6 0c.552 0 1-.672 1-1.5S9.552 9 9 9s-1 .672-1 1.5s.448 1.5 1 1.5" clip-rule="evenodd"/></svg>