<svg viewBox="0 0 24 24"><path fill="currentColor" d="M16.936 13.1c.868-.303 1.947-.344 4.203-.35h1.585c-.007.109.01-.107 0 0a1.64 1.64 0 0 1-.471 1.01l-8.508 8.55a1.4 1.4 0 0 1-.994.414c-.108.01.108-.007 0 0V21.14c.005-2.256.046-3.335.35-4.203a6.25 6.25 0 0 1 3.835-3.835"/><path fill="currentColor" fill-rule="evenodd" d="M11.552 16.88c-.276 1.064-.3 2.364-.302 4.34v1.504c-5.587-.385-10-5.039-10-10.724C1.25 6.063 6.063 1.25 12 1.25c5.685 0 10.34 4.413 10.724 10H21.22c-2.257.002-3.633.034-4.78.435a7.75 7.75 0 0 0-4.243 3.602l-.057.007a7.35 7.35 0 0 1-3.045-.088a.75.75 0 0 0-.365 1.455c.886.222 1.842.3 2.822.22m3.346-5.657c.533-.143.792-.907.577-1.707c-.214-.8-.82-1.333-1.354-1.19c-.533.143-.792.907-.578 1.707s.821 1.333 1.355 1.19m-5.796 1.553c.534-.143.792-.907.578-1.707s-.82-1.333-1.354-1.19s-.792.907-.578 1.707s.82 1.333 1.354 1.19" clip-rule="evenodd"/></svg>