<svg viewBox="0 0 24 24"><path fill="currentColor" d="M16.791 13.343c.781-.274 1.752-.31 3.78-.315h1.426c-.007.097.01-.097 0 0a1.48 1.48 0 0 1-.424.908l-7.65 7.69a1.26 1.26 0 0 1-.895.37c-.097.01.097-.006 0 0v-1.424c.005-2.03.041-3 .314-3.78a5.62 5.62 0 0 1 3.45-3.45"/><path fill="currentColor" d="M13.028 21.948Q12.52 22 12 22C6.477 22 2 17.523 2 12S6.477 2 12 2s10 4.477 10 10q0 .52-.052 1.028h-1.376c-2.03.005-3 .041-3.78.314a5.62 5.62 0 0 0-3.45 3.45c-.273.78-.31 1.75-.314 3.78z" opacity=".5"/><path fill="currentColor" d="M14.898 11.224c.533-.143.792-.908.578-1.708s-.821-1.333-1.355-1.19c-.533.143-.792.907-.577 1.708c.214.8.82 1.333 1.354 1.19m-5.796 1.553c.534-.143.792-.908.578-1.708s-.82-1.333-1.354-1.19s-.792.907-.578 1.708s.82 1.333 1.354 1.19m-.007 2.429a.75.75 0 1 0-.365 1.455c1.387.347 2.944.344 4.5-.073l.052-.014l.08.163a5.62 5.62 0 0 1 3.43-3.394q.138-.05.287-.088a.75.75 0 0 0-.96.069c-.838.81-1.96 1.463-3.278 1.816s-2.616.35-3.746.066"/></svg>