<svg viewBox="0 0 24 24"><path fill="currentColor" d="M15.475 9.516c.215.8-.044 1.565-.577 1.707c-.534.143-1.14-.39-1.354-1.19c-.215-.8.044-1.564.577-1.707c.534-.143 1.14.39 1.354 1.19M9.68 11.069c.214.8-.044 1.564-.578 1.707c-.533.143-1.14-.39-1.354-1.19c-.214-.8.044-1.564.578-1.707c.533-.143 1.14.39 1.354 1.19"/><path fill="currentColor" fill-rule="evenodd" d="M12 2.75a9.25 9.25 0 0 0-.75 18.47c.002-1.976.026-3.276.302-4.34a8.632 8.632 0 0 1-2.822-.22a.75.75 0 1 1 .365-1.454c.928.232 1.97.276 3.045.088a.766.766 0 0 1 .057-.007a7.75 7.75 0 0 1 4.243-3.602c1.147-.401 2.523-.433 4.78-.435A9.25 9.25 0 0 0 12 2.75m9.14 10c-2.257.006-3.336.047-4.204.35a6.25 6.25 0 0 0-3.835 3.836c-.304.868-.345 1.947-.35 4.203zM1.25 12C1.25 6.063 6.063 1.25 12 1.25S22.75 6.063 22.75 12c0 .362-.018.72-.053 1.074l-.026.267l-9.33 9.33l-.267.026c-.353.035-.712.053-1.074.053c-5.937 0-10.75-4.813-10.75-10.75" clip-rule="evenodd"/></svg>