<svg viewBox="0 0 24 24"><g fill="currentColor" fill-rule="evenodd" clip-rule="evenodd"><path d="M9.25 2a.75.75 0 0 1 .75-.75h4a.75.75 0 0 1 0 1.5h-4A.75.75 0 0 1 9.25 2M12 4.75a8.25 8.25 0 1 0 0 16.5a8.25 8.25 0 0 0 0-16.5M2.25 13c0-5.385 4.365-9.75 9.75-9.75s9.75 4.365 9.75 9.75s-4.365 9.75-9.75 9.75S2.25 18.385 2.25 13"/><path d="M14.559 8.239h-.044c-.214 0-.41 0-.576.011c-.178.012-.373.04-.572.122a1.75 1.75 0 0 0-.947.947c-.082.199-.11.394-.122.572a9 9 0 0 0-.011.576v5.044c0 .214 0 .41.011.576c.012.178.04.373.122.572c.178.428.518.769.947.947c.199.082.394.11.572.121c.165.012.362.012.576.012h.044c.214 0 .41 0 .576-.012c.178-.012.373-.04.572-.121a1.75 1.75 0 0 0 .947-.948a1.8 1.8 0 0 0 .122-.571c.011-.165.011-.362.011-.576v-5.044c0-.214 0-.411-.011-.576a1.8 1.8 0 0 0-.122-.572a1.75 1.75 0 0 0-.947-.947a1.8 1.8 0 0 0-.572-.122c-.165-.011-.362-.011-.576-.011m-.62 1.52a.25.25 0 0 0-.132.131a1 1 0 0 0-.012.103a8 8 0 0 0-.008.496v5c0 .243 0 .388.008.496c.004.067.01.095.012.102a.25.25 0 0 0 .131.131a1 1 0 0 0 .103.013c.108.007.253.008.496.008s.388 0 .496-.008a1 1 0 0 0 .103-.013a.25.25 0 0 0 .13-.13a1 1 0 0 0 .013-.103c.008-.108.008-.253.008-.496v-5c0-.244 0-.388-.008-.496a1 1 0 0 0-.012-.103a.25.25 0 0 0-.131-.13a1 1 0 0 0-.103-.013a8 8 0 0 0-.496-.008c-.243 0-.388 0-.496.008a1 1 0 0 0-.103.012m-3.84-1.498a9 9 0 0 0-.576-.011h-.044c-.214 0-.41 0-.576.011c-.178.012-.373.04-.572.122a1.75 1.75 0 0 0-.947.947c-.082.199-.11.394-.122.572c-.011.165-.011.362-.011.576v5.044c0 .214 0 .41.011.576c.012.178.04.373.122.572c.178.428.519.769.947.947c.199.082.394.11.572.122c.165.01.362.01.576.01h.044c.214 0 .41 0 .576-.01c.178-.012.373-.04.572-.122a1.75 1.75 0 0 0 .947-.947c.082-.199.11-.394.122-.572c.011-.165.011-.362.011-.576v-5.044c0-.214 0-.411-.011-.576a1.8 1.8 0 0 0-.122-.572a1.75 1.75 0 0 0-.947-.947a1.8 1.8 0 0 0-.572-.122m-1.197 1.51a.25.25 0 0 0-.13.13a1 1 0 0 0-.013.103a8 8 0 0 0-.008.496v5c0 .243 0 .388.008.496c.004.067.01.095.012.103a.25.25 0 0 0 .131.13a1 1 0 0 0 .103.013c.108.008.253.008.496.008s.388 0 .496-.008a1 1 0 0 0 .103-.012a.25.25 0 0 0 .13-.131a1 1 0 0 0 .013-.103c.008-.108.008-.253.008-.496v-5c0-.243 0-.388-.008-.496a1 1 0 0 0-.012-.103a.25.25 0 0 0-.131-.13a1 1 0 0 0-.103-.013A8 8 0 0 0 9.5 9.75c-.243 0-.388 0-.496.008a1 1 0 0 0-.103.012"/></g></svg>