<svg viewBox="0 0 24 24"><path fill="currentColor" fill-rule="evenodd" d="M21 13.75a9 9 0 1 1-18 0a9 9 0 0 1 18 0m-10 2.5v-5c0-.466 0-.699-.076-.883a1 1 0 0 0-.541-.54c-.184-.077-.417-.077-.883-.077s-.699 0-.883.076a1 1 0 0 0-.54.541C8 10.551 8 10.784 8 11.25v5c0 .466 0 .699.076.883a1 1 0 0 0 .541.54c.184.077.417.077.883.077s.699 0 .883-.076a1 1 0 0 0 .54-.541c.077-.184.077-.417.077-.883m5 0v-5c0-.466 0-.699-.076-.883a1 1 0 0 0-.541-.54c-.184-.077-.417-.077-.883-.077s-.699 0-.883.076a1 1 0 0 0-.54.541c-.077.184-.077.417-.077.883v5c0 .466 0 .699.076.883a1 1 0 0 0 .541.54c.184.077.417.077.883.077s.699 0 .883-.076a1 1 0 0 0 .54-.541c.077-.184.077-.417.077-.883" clip-rule="evenodd"/><path fill="currentColor" d="M10 2a.75.75 0 0 0 0 1.5h4A.75.75 0 0 0 14 2z"/></svg>