<svg viewBox="0 0 24 24"><path fill="currentColor" d="m21.323 3.786l-6.216 6.63l6.18 4.855C22 14.169 22 12.535 22 9.502c0-2.983 0-4.612-.677-5.715M15.267 19.2l-1.335-2.67C13.089 14.843 12.668 14 12 14s-1.089.843-1.932 2.53L8.733 19.2c-.512 1.024-.768 1.537-.73 1.859c.057.465.407.842.868.93c.318.062.847-.157 1.905-.595c.39-.162.587-.243.787-.284c.288-.06.586-.06.874 0c.2.041.396.122.787.284c1.058.438 1.586.657 1.905.596c.46-.09.81-.465.867-.931c.04-.323-.217-.835-.729-1.858"/><path fill="currentColor" d="M2 9.5v.04c0 3.26.004 4.896.908 5.998q.25.305.554.554q.27.222.591.377C5.15 17 6.75 17 9.497 17H14.5l1.343-.003c.84-.005 1.55-.023 2.157-.076c.944-.082 1.642-.25 2.204-.592l-6.656-5.23l-10.587-7.7l-.053.064C2 4.569 2 6.213 2 9.5" opacity=".5"/><path fill="currentColor" d="M14.5 2h-5c-2.616 0-4.191 0-5.283.458l9.689 7.046l6.366-6.79C19.168 2 17.534 2 14.5 2"/></svg>