<svg viewBox="0 0 24 24"><path fill="currentColor" fill-rule="evenodd" d="M12.052 1.25h-.104c-.899 0-1.648 0-2.242.08c-.628.084-1.195.27-1.65.725c-.456.456-.642 1.023-.726 1.65c-.08.595-.08 1.345-.08 2.243v.078a26 26 0 0 0-.5.02v8.204h3.284c.206 0 .427 0 .615.025c.219.03.5.105.735.341c.236.236.311.516.341.735c.025.188.025.41.025.615v1.069c0 .205 0 .426-.025.614c-.03.219-.105.5-.341.735a1.24 1.24 0 0 1-.735.341a5 5 0 0 1-.614.025H6.75v3.203C7.645 22 8.712 22 10 22h4c1.288 0 2.355 0 3.25-.047V6.047a26 26 0 0 0-.5-.021v-.078c0-.898 0-1.648-.08-2.242c-.084-.628-.27-1.195-.726-1.65c-.455-.456-1.022-.642-1.65-.726c-.594-.08-1.344-.08-2.242-.08m3.198 4.752V6c0-.964-.002-1.612-.066-2.095c-.063-.461-.17-.659-.3-.789s-.328-.237-.79-.3c-.482-.064-1.13-.066-2.094-.066s-1.612.002-2.095.067c-.461.062-.659.169-.789.3s-.237.327-.3.788C8.753 4.388 8.75 5.036 8.75 6v.002Q9.337 6 10 6h4q.662 0 1.25.002" clip-rule="evenodd"/><path fill="currentColor" d="M20.828 20.828c-.518.52-1.177.808-2.078.97V6.202c.9.16 1.56.45 2.078.969C22 8.343 22 10.229 22 14s0 5.657-1.172 6.828M3.172 7.172c.518-.52 1.177-.808 2.078-.97v8.09c-.2.039-.433.123-.634.324a1.24 1.24 0 0 0-.341.735c-.025.188-.025.41-.025.615v1.069c0 .205 0 .426.025.614c.03.219.105.5.341.735c.2.2.434.285.634.324v3.09c-.9-.162-1.56-.45-2.078-.97C2 19.657 2 17.771 2 14s0-5.657 1.172-6.828m2.579 8.579L5.75 16v1l.001.249l.249.001h4l.249-.001l.001-.249v-1l-.001-.249L10 15.75H6z"/></svg>