<svg viewBox="0 0 24 24"><path fill="currentColor" fill-rule="evenodd" d="M11.948 1.25h.104c.899 0 1.648 0 2.242.08c.628.084 1.195.27 1.65.725c.456.456.642 1.023.726 1.65c.06.44.075.964.079 1.57c.648.021 1.226.06 1.74.128c1.172.158 2.121.49 2.87 1.238c.748.749 1.08 1.698 1.238 2.87q.074.562.107 1.23a.75.75 0 0 1 .019.46c.027.801.027 1.712.027 2.743v.112c0 1.031 0 1.942-.027 2.744a.75.75 0 0 1-.02.46a15 15 0 0 1-.106 1.229c-.158 1.172-.49 2.121-1.238 2.87c-.749.748-1.698 1.08-2.87 1.238c-1.14.153-2.595.153-4.433.153H9.944c-1.838 0-3.294 0-4.433-.153c-1.172-.158-2.121-.49-2.87-1.238c-.748-.749-1.08-1.698-1.238-2.87q-.074-.562-.107-1.23a.75.75 0 0 1-.019-.46c-.027-.801-.027-1.712-.027-2.743v-.112c0-1.031 0-1.942.027-2.744a.75.75 0 0 1 .02-.46q.032-.667.106-1.229c.158-1.172.49-2.121 1.238-2.87c.749-.748 1.698-1.08 2.87-1.238a18 18 0 0 1 1.74-.128c.004-.606.02-1.13.079-1.57c.084-.627.27-1.194.725-1.65c.456-.455 1.023-.64 1.65-.725c.595-.08 1.345-.08 2.243-.08M8.752 5.252q.567-.003 1.192-.002h4.112q.625 0 1.192.002c-.004-.57-.018-1-.064-1.347c-.063-.461-.17-.659-.3-.789s-.328-.237-.79-.3c-.482-.064-1.13-.066-2.094-.066s-1.612.002-2.095.067c-.461.062-.659.169-.789.3s-.237.327-.3.788c-.046.346-.06.776-.064 1.347M2.763 11.75c-.013.653-.013 1.396-.013 2.25s0 1.597.013 2.25h18.474c.013-.653.013-1.396.013-2.25s0-1.597-.013-2.25zm18.405-1.5H2.832q.024-.284.058-.54c.135-1.005.389-1.585.812-2.008s1.003-.677 2.009-.812c1.028-.138 2.382-.14 4.289-.14h4c1.907 0 3.262.002 4.29.14c1.005.135 1.585.389 2.008.812s.677 1.003.812 2.009q.034.255.058.539m0 7.5H2.832q.024.284.058.54c.135 1.005.389 1.585.812 2.008s1.003.677 2.009.812c1.028.138 2.382.14 4.289.14h4c1.907 0 3.262-.002 4.29-.14c1.005-.135 1.585-.389 2.008-.812s.677-1.003.812-2.009q.034-.255.058-.539" clip-rule="evenodd"/></svg>