<svg viewBox="0 0 24 24"><path fill="currentColor" d="M3.172 7.922C2 9.093 2 10.979 2 14.75s0 5.657 1.172 6.828S6.229 22.75 10 22.75h4c3.771 0 5.657 0 6.828-1.172S22 18.521 22 14.75s0-5.657-1.172-6.828S17.771 6.75 14 6.75h-4c-3.771 0-5.657 0-6.828 1.172" opacity=".5"/><path fill="currentColor" d="M16 10.75a1 1 0 1 0 0-2a1 1 0 0 0 0 2m-7-1a1 1 0 1 1-2 0a1 1 0 0 1 2 0M12.052 2h-.104c-.899 0-1.648 0-2.242.08c-.628.084-1.195.27-1.65.725c-.456.456-.642 1.023-.726 1.65c-.08.595-.08 1.345-.08 2.243v.078q.684-.021 1.5-.024V6.75c0-.964.002-1.612.067-2.095c.062-.461.169-.659.3-.789s.327-.237.788-.3C10.388 3.503 11.036 3.5 12 3.5s1.612.002 2.095.067c.461.062.659.169.789.3s.237.327.3.788c.064.483.066 1.131.066 2.095v.002a55 55 0 0 1 1.5.024v-.078c0-.898 0-1.648-.08-2.242c-.084-.628-.27-1.195-.726-1.65c-.455-.456-1.022-.642-1.65-.726C13.7 2 12.95 2 12.052 2"/></svg>