<svg viewBox="0 0 24 24"><path fill="currentColor" fill-rule="evenodd" d="M12.052 1.25h-.104c-.899 0-1.648 0-2.242.08c-.628.084-1.195.27-1.65.725c-.456.456-.642 1.023-.726 1.65c-.08.595-.08 1.345-.08 2.243v.078c-2.021.066-3.235.302-4.078 1.146C2 8.343 2 10.229 2 14s0 5.657 1.172 6.828S6.229 22 10 22h4c3.771 0 5.657 0 6.828-1.172S22 17.771 22 14s0-5.657-1.172-6.828c-.843-.844-2.057-1.08-4.078-1.146v-.078c0-.898 0-1.648-.08-2.242c-.084-.628-.27-1.195-.726-1.65c-.455-.456-1.022-.642-1.65-.726c-.594-.08-1.344-.08-2.242-.08m3.198 4.752V6c0-.964-.002-1.612-.066-2.095c-.063-.461-.17-.659-.3-.789s-.328-.237-.79-.3c-.482-.064-1.13-.066-2.094-.066s-1.612.002-2.095.067c-.461.062-.659.169-.789.3s-.237.327-.3.788C8.753 4.388 8.75 5.036 8.75 6v.002Q9.337 6 10 6h4q.662 0 1.25.002M17 9a1 1 0 1 1-2 0a1 1 0 0 1 2 0m-9 1a1 1 0 1 0 0-2a1 1 0 0 0 0 2" clip-rule="evenodd"/></svg>