<svg viewBox="0 0 24 24"><path fill="currentColor" fill-rule="evenodd" d="M5.427 1.25h.146c.393 0 .696 0 .964.053a2.75 2.75 0 0 1 2.16 2.16c.053.268.053.571.053.964v.323h6.5v-.323c0-.393 0-.696.053-.963a2.75 2.75 0 0 1 2.16-2.161c.268-.053.571-.053.964-.053h.146c.393 0 .696 0 .963.053a2.75 2.75 0 0 1 2.161 2.16c.053.268.053.571.053.964v2.146c0 .393 0 .696-.053.964a2.75 2.75 0 0 1-2.16 2.16c-.268.053-.571.053-.964.053h-.146c-.393 0-.696 0-.963-.053a2.75 2.75 0 0 1-2.161-2.16c-.053-.268-.053-.57-.053-.964V6.25h-6.5v.323c0 .393 0 .696-.053.964a2.75 2.75 0 0 1-2.16 2.16c-.268.053-.57.053-.964.053h-.146c-.393 0-.696 0-.963-.053a2.75 2.75 0 0 1-2.161-2.16c-.053-.268-.053-.57-.053-.964V4.427c0-.393 0-.696.053-.963a2.75 2.75 0 0 1 2.16-2.161c.268-.053.571-.053.964-.053M7.25 4.5c0-.5-.004-.641-.024-.744a1.25 1.25 0 0 0-.982-.982C6.14 2.754 6 2.75 5.5 2.75s-.641.004-.744.024a1.25 1.25 0 0 0-.982.982c-.02.103-.024.243-.024.744v2c0 .5.004.641.024.744c.099.496.486.883.982.982c.103.02.243.024.744.024c.5 0 .641-.004.744-.024a1.25 1.25 0 0 0 .982-.982c.02-.103.024-.243.024-.744zm9.5 2c0 .5.004.641.024.744c.099.496.486.883.982.982c.103.02.243.024.744.024c.5 0 .641-.004.744-.024a1.25 1.25 0 0 0 .982-.982c.02-.103.024-.243.024-.744v-2c0-.5-.004-.641-.024-.744a1.25 1.25 0 0 0-.982-.982c-.103-.02-.243-.024-.744-.024c-.5 0-.641.004-.744.024a1.25 1.25 0 0 0-.982.982c-.02.103-.024.243-.024.744zm-4.364 2.357a.75.75 0 0 1 .257 1.029l-.818 1.364H13.5a.75.75 0 0 1 .643 1.136l-1.5 2.5a.75.75 0 0 1-1.286-.772l.818-1.364H10.5a.75.75 0 0 1-.643-1.136l1.5-2.5a.75.75 0 0 1 1.029-.257m-6.96 5.393h.147c.393 0 .696 0 .964.053a2.75 2.75 0 0 1 2.16 2.16c.053.268.053.571.053.964v.323h6.5v-.323c0-.393 0-.696.053-.963a2.75 2.75 0 0 1 2.16-2.161c.268-.053.571-.053.964-.053h.146c.393 0 .696 0 .963.053a2.75 2.75 0 0 1 2.161 2.16c.053.268.053.571.053.964v2.146c0 .393 0 .696-.053.963a2.75 2.75 0 0 1-2.16 2.161c-.268.053-.57.053-.964.053h-.146c-.393 0-.696 0-.963-.053a2.75 2.75 0 0 1-2.161-2.16c-.053-.268-.053-.571-.053-.964v-.323h-6.5v.323c0 .393 0 .696-.053.963a2.75 2.75 0 0 1-2.16 2.161c-.268.053-.57.053-.964.053h-.146c-.393 0-.696 0-.963-.053a2.75 2.75 0 0 1-2.161-2.16c-.053-.268-.053-.57-.053-.964v-2.146c0-.393 0-.696.053-.963a2.75 2.75 0 0 1 2.16-2.161c.268-.053.571-.053.964-.053M7.25 17.5c0-.5-.004-.641-.024-.744a1.25 1.25 0 0 0-.982-.982c-.103-.02-.243-.024-.744-.024c-.5 0-.641.004-.744.024a1.25 1.25 0 0 0-.982.982c-.02.103-.024.243-.024.744v2c0 .5.004.641.024.744c.099.496.486.883.982.982c.103.02.243.024.744.024c.5 0 .641-.004.744-.024a1.25 1.25 0 0 0 .982-.982c.02-.103.024-.243.024-.744zm9.5 2c0 .5.004.641.024.744c.099.496.486.883.982.982c.103.02.243.024.744.024c.5 0 .641-.004.744-.024a1.25 1.25 0 0 0 .982-.982c.02-.103.024-.243.024-.744v-2c0-.5-.004-.641-.024-.744a1.25 1.25 0 0 0-.982-.982c-.103-.02-.243-.024-.744-.024c-.5 0-.641.004-.744.024a1.25 1.25 0 0 0-.982.982c-.02.103-.024.243-.024.744z" clip-rule="evenodd"/></svg>