<svg viewBox="0 0 24 24"><path fill="currentColor" d="M8 6.5v-2c0-.465 0-.697-.038-.89A2 2 0 0 0 6.39 2.038C6.197 2 5.965 2 5.5 2s-.697 0-.89.038A2 2 0 0 0 3.038 3.61C3 3.803 3 4.035 3 4.5v2c0 .465 0 .697.038.89A2 2 0 0 0 4.61 8.962C4.803 9 5.035 9 5.5 9s.697 0 .89-.038A2 2 0 0 0 7.962 7.39C8 7.197 8 6.965 8 6.5m13 0v-2c0-.465 0-.697-.038-.89a2 2 0 0 0-1.572-1.572C19.197 2 18.965 2 18.5 2s-.697 0-.89.038a2 2 0 0 0-1.572 1.572C16 3.803 16 4.035 16 4.5v2c0 .465 0 .697.038.89a2 2 0 0 0 1.572 1.572c.193.038.425.038.89.038s.697 0 .89-.038a2 2 0 0 0 1.572-1.572C21 7.197 21 6.965 21 6.5m-13 13v-2c0-.465 0-.697-.038-.89a2 2 0 0 0-1.572-1.572C6.197 15 5.965 15 5.5 15s-.697 0-.89.038a2 2 0 0 0-1.572 1.572C3 16.803 3 17.035 3 17.5v2c0 .465 0 .697.038.89a2 2 0 0 0 1.572 1.572c.193.038.425.038.89.038s.697 0 .89-.038a2 2 0 0 0 1.572-1.572C8 20.197 8 19.965 8 19.5m13 0v-2c0-.465 0-.697-.038-.89a2 2 0 0 0-1.572-1.572C19.197 15 18.965 15 18.5 15s-.697 0-.89.038a2 2 0 0 0-1.572 1.572c-.038.193-.038.425-.038.89v2c0 .465 0 .697.038.89a2 2 0 0 0 1.572 1.572c.193.038.425.038.89.038s.697 0 .89-.038a2 2 0 0 0 1.572-1.572c.038-.193.038-.425.038-.89"/><path fill="currentColor" fill-rule="evenodd" d="M16 4.75v1.5h-3.25V8a.75.75 0 0 1-1.5 0V6.25H8v-1.5zm-4 10.5a.75.75 0 0 1 .75.75v1.75H16v1.5H8v-1.5h3.25V16a.75.75 0 0 1 .75-.75M9.47 9.47a.75.75 0 0 1 1.06 0L12 10.94l1.47-1.47a.75.75 0 1 1 1.06 1.06L13.06 12l1.47 1.47a.75.75 0 1 1-1.06 1.06L12 13.06l-1.47 1.47a.75.75 0 1 1-1.06-1.06L10.94 12l-1.47-1.47a.75.75 0 0 1 0-1.06" clip-rule="evenodd"/></svg>