<svg viewBox="0 0 24 24"><path fill="currentColor" d="M17.782 3.226a.771.771 0 1 0-1.091 1.09l.95.951l-1.698 1.7l-.868-.868c-.775-.776-1.163-1.163-1.603-1.324a2.12 2.12 0 0 0-1.448 0c-.44.16-.828.548-1.603 1.324l-.12.12l7.48 7.48l.12-.12c.775-.775 1.163-1.163 1.323-1.603c.17-.468.17-.98 0-1.448c-.16-.44-.548-.828-1.323-1.603l-.867-.868l1.698-1.699l.951.951a.771.771 0 0 0 1.091-1.09zM6.016 10.504L9.21 7.309l7.48 7.48l-1.152 1.154l-2.968-2.968a.771.771 0 1 0-1.091 1.091l2.968 2.968l-.592.592l-1.693-1.693a.772.772 0 0 0-1.091 1.091l1.62 1.621a5.29 5.29 0 0 1-6.09-.155l-2.284 2.284a.772.772 0 0 1-1.091-1.09l2.284-2.285a5.29 5.29 0 0 1 .506-6.895"/></svg>