<svg viewBox="0 0 24 24"><path fill="currentColor" d="m6.182 10.546l.53.53zm7.272 7.272l.53.53zm4.283-8.808l-.53.53zm1.287 1.56l.705-.257zm-1.287 2.965l-.53-.53zm1.287-1.559l.705.257zM14.99 6.263l.53-.53zm-1.56-1.287l-.256.705zm-2.965 1.287l.53.53zm1.559-1.287l.256.705zm3.81 2.13a.75.75 0 1 0 1.06 1.06zm3.636.333a.75.75 0 1 0 1.06-1.06zM17.62 3.47a.75.75 0 1 0-1.06 1.061zm-14.151 16a.75.75 0 1 0 1.06 1.061zm13.09-4.757a.75.75 0 1 0 1.061-1.06zM10.35 6.38a.75.75 0 1 0-1.061 1.06zm4.03 10.515a.75.75 0 1 0 1.06-1.06zm-1.825-3.946a.75.75 0 0 0-1.06 1.06zm.188 5.582a.75.75 0 0 0 1.061-1.06zm-.585-2.706a.75.75 0 1 0-1.06 1.06zm2.303-9.031l2.747 2.747l1.06-1.06l-2.747-2.748zm2.747 6.212l-4.283 4.283l1.06 1.06l4.284-4.282zm-10.495-1.93l4.283-4.282l-1.06-1.06l-4.284 4.282zm0 6.213a4.393 4.393 0 0 1 0-6.212l-1.06-1.06a5.893 5.893 0 0 0 0 8.333zm6.212 0a4.393 4.393 0 0 1-6.212 0l-1.06 1.06a5.893 5.893 0 0 0 8.333 0zm4.283-7.748c.385.385.644.645.829.86c.18.21.249.332.283.426l1.41-.513c-.122-.335-.32-.616-.555-.89c-.231-.269-.537-.574-.906-.943zm1.06 4.526c.37-.37.676-.675.907-.943c.236-.275.433-.555.555-.89l-1.41-.513c-.034.094-.103.216-.283.425c-.185.216-.444.475-.829.86zm.052-3.24c.105.288.105.605 0 .894l1.41.513c.225-.62.225-1.3 0-1.92zm-2.8-5.095c-.368-.368-.674-.675-.943-.906c-.274-.235-.555-.433-.89-.555l-.513 1.41c.094.034.216.103.426.283c.215.185.475.444.86.829zm-4.525 1.061a18 18 0 0 1 .86-.829c.21-.18.331-.249.425-.283l-.513-1.41c-.335.122-.615.32-.89.555c-.268.231-.574.538-.943.906zm2.692-2.522a2.8 2.8 0 0 0-1.92 0l.513 1.41c.289-.105.606-.105.894 0zm3.207 3.896l2.182-2.182l-1.06-1.06l-2.183 2.181zm1.121-2.182l1.455 1.454l1.06-1.06l-1.454-1.455zm1.06-1.06L17.622 3.47l-1.06 1.06l1.454 1.455zM5.652 17.287L3.47 19.47l1.06 1.06l2.182-2.181zm11.97-3.636L10.35 6.379l-1.061 1.06l7.273 7.273zm-2.182 2.181l-2.885-2.885l-1.06 1.06l2.885 2.886zm-1.636 1.637l-1.646-1.646l-1.06 1.06l1.645 1.646z"/></svg>