<svg viewBox="0 0 24 24"><g fill="none"><path fill="currentColor" d="m6.182 10.546l.53.53zm7.273 7.272l.53.53zm4.283-8.808l-.53.53zm1.286 1.56l.705-.257zm-1.286 2.965l-.53-.53zm1.286-1.559l.705.257zM14.99 6.263l.53-.53zm-1.559-1.287l-.256.705zm-2.966 1.287l.53.53zm1.559-1.287l.256.705zM19.47 7.44a.75.75 0 1 0 1.06-1.06zm-1.85-3.97a.75.75 0 1 0-1.06 1.061zm-3.16 3.324l2.747 2.747l1.06-1.06l-2.747-2.748zm2.747 6.212l-4.283 4.283l1.061 1.06l4.283-4.282zm-10.495-1.93l4.283-4.282l-1.06-1.06l-4.283 4.282zm0 6.213a4.393 4.393 0 0 1 0-6.212l-1.06-1.06a5.893 5.893 0 0 0 0 8.333zm6.212 0a4.393 4.393 0 0 1-6.212 0l-1.06 1.06a5.893 5.893 0 0 0 8.333 0zm4.283-7.748c.385.385.644.645.83.86c.18.21.248.332.282.426l1.41-.513c-.122-.335-.32-.616-.555-.89c-.23-.269-.537-.574-.906-.943zm1.06 4.526c.37-.37.676-.675.907-.943c.236-.275.433-.555.555-.89l-1.41-.513c-.034.094-.103.216-.283.425c-.185.216-.444.475-.829.86zm.052-3.24c.105.288.105.605 0 .894l1.41.513c.226-.62.226-1.3 0-1.92zM15.52 5.732c-.368-.368-.674-.675-.943-.906c-.274-.235-.555-.433-.89-.555l-.512 1.41c.093.034.215.103.425.283c.215.185.475.444.86.829zm-4.525 1.061a18 18 0 0 1 .86-.829c.21-.18.332-.249.425-.283l-.513-1.41c-.334.122-.615.32-.89.555c-.268.231-.574.538-.942.906zm2.693-2.522a2.8 2.8 0 0 0-1.92 0l.512 1.41a1.3 1.3 0 0 1 .895 0zm4.327 1.714l1.455 1.454l1.06-1.06l-1.454-1.455zm1.061-1.06L17.621 3.47l-1.06 1.06l1.454 1.455z"/><path stroke="currentColor" stroke-linecap="round" stroke-width="1.5" d="M17.091 14.182L9.818 6.909"/><path stroke="currentColor" stroke-linecap="round" stroke-width="1.5" d="M6.182 17.818L4 20" opacity=".5"/><path fill="currentColor" d="M15.833 7.106a.75.75 0 0 0 1.06 1.06zm3.242-1.121a.75.75 0 0 0-1.06-1.06zm-2.181 2.182l2.181-2.182l-1.06-1.06l-2.182 2.181zm-2.515 8.727a.75.75 0 0 0 1.06-1.06zm-1.825-3.946a.75.75 0 1 0-1.06 1.06zm.189 5.583a.75.75 0 1 0 1.06-1.061zm-.586-2.707a.75.75 0 0 0-1.06 1.06zm3.283.01l-2.886-2.886l-1.06 1.06l2.885 2.886zm-1.637 1.636l-1.646-1.646l-1.06 1.06l1.646 1.647z" opacity=".5"/></g></svg>