<svg viewBox="0 0 24 24"><path fill="currentColor" d="m17.737 13.535l-.53-.53zm-.646.647l.53.53zm-2.182 2.182l.53.53zm-1.455 1.454l-.53-.53zm-6.742-6.742a.75.75 0 0 0-1.06-1.06zm12.312.9l-.705-.256zm.705-1.663a.75.75 0 0 0-1.41.513zm-4.74-4.05l-.53.53zm-1.558-1.287l.256-.705zm-2.966 1.287l-.53-.53zm1.559-1.287l-.257-.705zm4.34 2.66l-.53.53a.75.75 0 0 0 1.06 0zm3.106-.197a.75.75 0 1 0 1.06-1.06zM17.62 3.47a.75.75 0 1 0-1.06 1.061zm-14.151 16a.75.75 0 1 0 1.06 1.061zm9.084-6.521a.75.75 0 0 0-1.06 1.06zm.188 5.582a.75.75 0 0 0 1.061-1.06zm-.585-2.706a.75.75 0 1 0-1.06 1.06zM8.47 7.197a.75.75 0 0 0 1.06 1.06zm8.737 5.808l-.646.646l1.06 1.061l.647-.646zm-.646.646l-2.182 2.182l1.06 1.061l2.182-2.182zm-2.182 2.182l-1.455 1.455l1.06 1.06l1.455-1.454zm-7.667 1.455a4.393 4.393 0 0 1 0-6.212l-1.06-1.06a5.893 5.893 0 0 0 0 8.333zm6.212 0a5 5 0 0 1-.16.152l1.008 1.111q.108-.098.213-.202zm-.16.152a4.393 4.393 0 0 1-6.052-.152l-1.06 1.06a5.893 5.893 0 0 0 8.12.203zm5.504-3.374c.369-.37.675-.675.906-.943c.236-.275.433-.555.555-.89l-1.41-.513c-.034.093-.103.216-.283.425c-.185.216-.444.475-.829.86zm.051-3.24c.105.288.105.605 0 .894l1.41.513c.225-.62.225-1.3 0-1.92zM15.52 5.732c-.368-.368-.674-.675-.943-.906c-.274-.235-.555-.433-.89-.555l-.513 1.41c.094.034.216.103.426.283c.215.185.475.444.86.829zm-4.525 1.061a18 18 0 0 1 .86-.829c.21-.18.331-.249.425-.283l-.513-1.41c-.335.122-.615.32-.89.555c-.268.231-.574.538-.943.906zm2.692-2.522a2.8 2.8 0 0 0-1.92 0l.513 1.41c.289-.105.606-.105.894 0zm3.207 3.896l2.182-2.182l-1.06-1.06l-2.183 2.181zm1.121-2.182l1.455 1.454l1.06-1.06l-1.454-1.455zm1.06-1.06L17.622 3.47l-1.06 1.06l1.454 1.455zM5.652 17.287L3.47 19.47l1.06 1.06l2.182-2.181zm11.97-3.636L10.35 6.379l-1.061 1.06l7.273 7.273zm-2.182 2.181l-2.885-2.885l-1.06 1.06l2.885 2.886zm-1.636 1.637l-.004-.005l-1.061 1.06l.004.005zm-.004-.005l-1.642-1.641l-1.06 1.06l1.64 1.642zM9.53 8.258l.819-.819l-1.061-1.06l-.818.818zm.819-.819l.646-.646l-1.06-1.06l-.647.646zm4.11-.646l1.374 1.374l1.061-1.061l-1.374-1.374z"/></svg>