<svg viewBox="0 0 24 24"><path fill="currentColor" d="M22 12c0 5.523-4.477 10-10 10S2 17.523 2 12S6.477 2 12 2s10 4.477 10 10" opacity=".5"/><path fill="currentColor" d="M9.25 12a.75.75 0 0 1 .75-.75h1.25V10a.75.75 0 0 1 1.5 0v1.25H14a.75.75 0 0 1 0 1.5h-1.25V14a.75.75 0 0 1-1.5 0v-1.25H10a.75.75 0 0 1-.75-.75m-7.222.75a10 10 0 0 1 0-1.5H5a.75.75 0 0 1 0 1.5zm10.722 9.222a10 10 0 0 1-1.5 0V19a.75.75 0 0 1 1.5 0zm9.222-10.722a10 10 0 0 1 0 1.5H19a.75.75 0 0 1 0-1.5zM12.75 2.028V5a.75.75 0 0 1-1.5 0V2.028a10 10 0 0 1 1.5 0"/></svg>