<svg viewBox="0 0 24 24"><path fill="currentColor" fill-rule="evenodd" d="M10.53 1.47a.75.75 0 0 1 0 1.06c-.26.26-.26.68 0 .94a2.164 2.164 0 0 1 0 3.06a.75.75 0 0 1-1.06-1.06a.666.666 0 0 0 0-.94a2.164 2.164 0 0 1 0-3.06a.75.75 0 0 1 1.06 0m-4.5 1.5a.75.75 0 0 1 0 1.06l-.116.116a.69.69 0 0 0-.064.904a2.19 2.19 0 0 1-.204 2.864l-.116.116a.75.75 0 0 1-1.06-1.06l.116-.116a.69.69 0 0 0 .064-.904a2.19 2.19 0 0 1 .203-2.864l.116-.116a.75.75 0 0 1 1.061 0m9.5 0a.75.75 0 0 1 0 1.06l-.116.116a.69.69 0 0 0-.064.904a2.19 2.19 0 0 1-.204 2.864l-.116.116a.75.75 0 1 1-1.06-1.06l.116-.116a.69.69 0 0 0 .064-.904a2.19 2.19 0 0 1 .203-2.864l.117-.116a.75.75 0 0 1 1.06 0M4.647 9.25h10.705c.363 0 .641 0 .882.042a2.75 2.75 0 0 1 1.64.958H19a3.75 3.75 0 1 1 0 7.5h-1.352a6.265 6.265 0 0 1-5.841 4H8.193a6.265 6.265 0 0 1-6.222-5.537l-.4-3.428l-.009-.068c-.042-.36-.074-.637-.06-.88a2.75 2.75 0 0 1 2.264-2.545c.24-.042.519-.042.881-.042m11.821 7.221a.75.75 0 0 0-.201.69a4.76 4.76 0 0 1-4.46 3.089H8.193a4.765 4.765 0 0 1-4.732-4.211l-.4-3.428c-.055-.46-.067-.592-.062-.686a1.25 1.25 0 0 1 1.03-1.156c.091-.016.223-.019.687-.019h10.568c.463 0 .595.003.687.02c.57.1.995.579 1.03 1.156c.005.093-.008.224-.061.685l-.401 3.428q-.025.218-.07.432m1.556-.221H19a2.25 2.25 0 0 0 0-4.5h-.509q.005.043.006.086c.015.244-.017.52-.06.88l-.008.069l-.4 3.428z" clip-rule="evenodd"/></svg>