<svg viewBox="0 0 24 24"><path fill="currentColor" d="M3.34 17c2.76 4.783 8.876 6.42 13.66 3.66a9.96 9.96 0 0 0 4.196-4.731a9.99 9.99 0 0 0-.536-8.93a9.99 9.99 0 0 0-7.465-4.928A9.96 9.96 0 0 0 7 3.339C2.217 6.101.578 12.217 3.34 17" opacity=".5"/><path fill="currentColor" d="M13.94 2.19a10 10 0 0 0-1.5-.182l-.033.158a10 10 0 0 0-.116.736a.75.75 0 1 0 1.49.178a8 8 0 0 1 .13-.776l.008-.035l.002-.005v-.001zM2.534 8.775a10 10 0 0 1 .593-1.39q.063.018.154.05c.168.056.406.144.695.267a.75.75 0 0 1-.59 1.38a8 8 0 0 0-.772-.286l-.005-.001zm9.026 13.216a10 10 0 0 1-1.5-.181l.02-.074v-.001l.001-.005a2 2 0 0 0 .042-.19c.028-.14.065-.35.097-.621a.75.75 0 1 1 1.49.178a10 10 0 0 1-.15.894m9.906-6.767a10 10 0 0 1-.593 1.39l-.153-.05a10 10 0 0 1-.695-.268a.75.75 0 1 1 .59-1.379a8 8 0 0 0 .737.275l.035.01l.004.002zm-7.712-9.81a.75.75 0 1 0-1.494.136c.055.605.158 1.264.33 1.958a.75.75 0 0 0 1.456-.361a11.6 11.6 0 0 1-.292-1.733M6.285 9a.75.75 0 1 0-.865 1.225c.44.31.9.68 1.355 1.12a.75.75 0 1 0 1.04-1.081A13 13 0 0 0 6.286 9m8.551.347a.75.75 0 1 0-1.352.65a13 13 0 0 0 .992 1.718a.75.75 0 1 0 1.239-.846a11.6 11.6 0 0 1-.879-1.522m-5.314 2.937a.75.75 0 0 0-1.238.846a11.6 11.6 0 0 1 .878 1.522a.75.75 0 0 0 1.352-.65a13 13 0 0 0-.992-1.718m7.702.371a.75.75 0 1 0-1.04 1.08a13 13 0 0 0 1.53 1.264a.75.75 0 1 0 .865-1.226c-.44-.31-.9-.68-1.355-1.118m-5.814 3.836a.75.75 0 1 0-1.456.36c.152.614.243 1.198.292 1.734a.75.75 0 0 0 1.494-.136a13 13 0 0 0-.33-1.958"/></svg>