<svg viewBox="0 0 24 24"><g fill="currentColor" fill-rule="evenodd" clip-rule="evenodd"><path d="M12.939 4.735a.75.75 0 0 1 .815.68c.048.536.139 1.119.291 1.732a.75.75 0 1 1-1.456.36a13 13 0 0 1-.33-1.957a.75.75 0 0 1 .68-.815m-7.7 4.446A.75.75 0 0 1 6.285 9c.496.35 1.015.767 1.53 1.263a.75.75 0 0 1-1.04 1.08a11.6 11.6 0 0 0-1.355-1.118a.75.75 0 0 1-.18-1.045m8.597-.185a.75.75 0 0 1 1 .351a11.6 11.6 0 0 0 .88 1.522a.75.75 0 0 1-1.24.846a13 13 0 0 1-.991-1.718a.75.75 0 0 1 .351-1.001M8.48 12.088a.75.75 0 0 1 1.043.196a13 13 0 0 1 .992 1.719a.75.75 0 0 1-1.352.65a11.6 11.6 0 0 0-.879-1.523a.75.75 0 0 1 .196-1.042m7.684.587a.75.75 0 0 1 1.06-.02c.456.438.916.808 1.356 1.119a.75.75 0 1 1-.865 1.225a13 13 0 0 1-1.53-1.264a.75.75 0 0 1-.02-1.06m-5.662 3.269a.75.75 0 0 1 .909.547c.172.694.274 1.353.329 1.958a.75.75 0 1 1-1.494.136c-.049-.536-.14-1.12-.291-1.733a.75.75 0 0 1 .547-.908"/><path d="M13.286 1.326c-2.23-.27-4.566.154-6.661 1.364C1.483 5.658-.278 12.233 2.69 17.375c2.969 5.141 9.543 6.903 14.685 3.935a10.7 10.7 0 0 0 4.511-5.087a10.74 10.74 0 0 0-.576-9.598a10.74 10.74 0 0 0-8.024-5.299m.494 1.754a.75.75 0 0 1-1.49-.178l.02-.148a9.2 9.2 0 0 0-4.935 1.235a9.2 9.2 0 0 0-3.537 3.656l.138.058a.75.75 0 0 1-.59 1.379l-.144-.06a9.23 9.23 0 0 0 .747 7.603a9.23 9.23 0 0 0 6.21 4.448q.011-.073.02-.154a.75.75 0 1 1 1.49.178l-.019.149a9.2 9.2 0 0 0 4.935-1.236a9.2 9.2 0 0 0 3.537-3.655l-.138-.058a.75.75 0 0 1 .59-1.38q.075.033.144.06a9.23 9.23 0 0 0-.747-7.602A9.23 9.23 0 0 0 13.8 2.926z"/></g></svg>