<svg viewBox="0 0 24 24"><path fill="currentColor" d="M13.196 2.07A9.96 9.96 0 0 0 7 3.34a9.95 9.95 0 0 0-4.07 4.45c1.016.721 3.634 2.793 5.607 6.21a18.5 18.5 0 0 1 1.08 2.199q.133.323.246.633c1.068 2.929.945 5.051.942 5.097A9.96 9.96 0 0 0 17 20.66a9.96 9.96 0 0 0 4.197-4.731S17.964 14.33 15.464 10s-2.268-7.93-2.268-7.93"/><path fill="currentColor" d="m3.83 17.768l.043.06a10 10 0 0 0 1.825 1.94a10.03 10.03 0 0 0 5.106 2.161c.003-.055.123-2.175-.943-5.096a17 17 0 0 0-.888-2.03A19 19 0 0 0 8.536 14c-1.973-3.416-4.591-5.488-5.608-6.21a9.99 9.99 0 0 0 .902 9.978M20.66 7a9.99 9.99 0 0 0-7.465-4.929s-.231 3.6 2.269 7.93s5.732 5.928 5.732 5.928A9.99 9.99 0 0 0 20.66 7" opacity=".5"/></svg>