<svg viewBox="0 0 24 24"><path fill="currentColor" d="M3.172 5.172C2 6.343 2 8.229 2 12s0 5.657 1.172 6.828S6.229 20 10 20h4c3.771 0 5.657 0 6.828-1.172S22 15.771 22 12s0-5.657-1.172-6.828S17.771 4 14 4h-4C6.229 4 4.343 4 3.172 5.172" opacity=".5"/><path fill="currentColor" d="M6.818 7.787c.3-.037.666-.037 1.066-.037h2.232c.4 0 .766 0 1.066.037c.329.041.68.137.98.405q.078.068.146.146c.268.3.364.651.405.98c.037.3.037.666.037 1.066v.041a.75.75 0 0 1-1.5 0c0-.455-.001-.726-.026-.922c-.024-.195-.228-.227-.228-.227c-.195-.025-.466-.026-.921-.026H9.75v5.5H11a.75.75 0 0 1 0 1.5H7a.75.75 0 0 1 0-1.5h1.25v-5.5h-.325c-.455 0-.726.001-.922.026c0 0-.203.032-.227.227c-.025.196-.026.467-.026.922a.75.75 0 0 1-1.5 0v-.041c0-.4 0-.766.037-1.066c.041-.329.137-.68.405-.98q.069-.078.146-.146c.3-.268.651-.364.98-.405"/></svg>