<svg viewBox="0 0 24 24"><g fill="currentColor" fill-rule="evenodd" clip-rule="evenodd"><path d="M7.25 7.522A2.27 2.27 0 0 1 9.522 5.25H12a3.75 3.75 0 0 1 2.665 6.389A3.75 3.75 0 0 1 13 18.75H9.176a1.926 1.926 0 0 1-1.926-1.927zm1.5 3.728H12a2.25 2.25 0 0 0 0-4.5H9.522a.77.77 0 0 0-.772.772zm0 1.5v4.073c0 .236.19.427.426.427H13a2.25 2.25 0 0 0 0-4.5z"/><path d="M1.25 12C1.25 6.063 6.063 1.25 12 1.25S22.75 6.063 22.75 12S17.937 22.75 12 22.75S1.25 17.937 1.25 12M12 2.75a9.25 9.25 0 1 0 0 18.5a9.25 9.25 0 0 0 0-18.5"/></g></svg>