<svg viewBox="0 0 24 24"><path fill="currentColor" fill-rule="evenodd" d="M14.467 2a1 1 0 0 0-.165.015C13.552 2 12.722 2 11.807 2h-.114c-.915 0-1.744 0-2.495.015A1 1 0 0 0 9.033 2c-2.485.057-4.255.28-5.496 1.523l-.007.007l-.007.007C2.28 4.777 2.057 6.548 2 9.033a1 1 0 0 0 .015.165L2.01 9.5h1.74a2.25 2.25 0 0 1 0 4.5H2.01l.005.302a1 1 0 0 0-.015.165c.057 2.485.28 4.255 1.523 5.496l.007.007l.007.007c1.24 1.243 3.011 1.466 5.496 1.523a1 1 0 0 0 .165-.015c.75.015 1.58.015 2.495.015h.114c.915 0 1.744 0 2.495-.015q.08.017.165.015c2.485-.057 4.255-.28 5.496-1.523l.007-.007l.007-.007c1.243-1.24 1.466-3.011 1.523-5.496a1 1 0 0 0-.015-.165L21.49 14h-1.74a2.25 2.25 0 0 1 0-4.5h1.74l-.005-.302a1 1 0 0 0 .015-.165c-.057-2.485-.28-4.255-1.523-5.496l-.007-.007l-.007-.007C18.723 2.28 16.952 2.057 14.467 2M7.75 7a.75.75 0 0 0 0 1.5H11v7.25a.75.75 0 0 0 1.5 0V8.5h3.25a.75.75 0 0 0 0-1.5z" clip-rule="evenodd"/><path fill="currentColor" d="M19 11.75a.75.75 0 0 1 .75-.75h2a.75.75 0 0 1 0 1.5h-2a.75.75 0 0 1-.75-.75M1.75 11a.75.75 0 0 0 0 1.5h2a.75.75 0 0 0 0-1.5z"/></svg>