<svg viewBox="0 0 24 24"><path fill="currentColor" d="M3.172 18.828C4.343 20 6.229 20 10 20l5.75-.006c2.636-.027 4.104-.191 5.078-1.166C22 17.658 22 15.771 22 12s0-5.657-1.172-6.828c-.974-.975-2.454-1.144-5.09-1.172H10C6.229 4 4.343 4 3.172 5.172S2 8.229 2 12s0 5.657 1.172 6.828" opacity=".5"/><path fill="currentColor" fill-rule="evenodd" d="M15 1.25a.75.75 0 0 1 .75.75v20a.75.75 0 0 1-1.5 0V2a.75.75 0 0 1 .75-.75" clip-rule="evenodd"/><path fill="currentColor" d="M6.818 7.787c.3-.037.666-.037 1.066-.037h2.232c.4 0 .766 0 1.066.037c.329.041.68.137.98.405q.078.068.146.146c.268.3.364.651.405.98c.037.3.037.666.037 1.066v.041a.75.75 0 0 1-1.5 0c0-.455-.001-.726-.026-.922c-.024-.195-.228-.227-.228-.227c-.195-.025-.466-.026-.921-.026H9.75v5.5H11a.75.75 0 0 1 0 1.5H7a.75.75 0 0 1 0-1.5h1.25v-5.5h-.325c-.455 0-.726.001-.922.026c0 0-.203.032-.227.227c-.025.196-.026.467-.026.922a.75.75 0 0 1-1.5 0v-.041c0-.4 0-.766.037-1.066c.041-.329.137-.68.405-.98q.069-.078.146-.146c.3-.268.651-.364.98-.405"/></svg>