<svg viewBox="0 0 24 24"><path fill="currentColor" fill-rule="evenodd" d="M9.996 4h4.008c3.778 0 5.667 0 6.84 1.172c.88.877 1.1 2.154 1.156 4.322c.007.278-.221.5-.49.571A2 2 0 0 0 20.014 12c0 .929.634 1.71 1.494 1.935c.27.07.498.292.49.57c-.055 2.17-.276 3.446-1.154 4.323C19.67 20 17.782 20 14.004 20H9.996c-3.778 0-5.667 0-6.84-1.172c-.88-.877-1.1-2.154-1.156-4.322c-.007-.279.221-.5.49-.571A2 2 0 0 0 3.986 12c0-.929-.634-1.71-1.494-1.935c-.27-.07-.498-.293-.49-.57c.055-2.17.276-3.446 1.154-4.323C4.33 4 6.218 4 9.996 4m2.958 6.199l-.098-.176C12.475 9.34 12.285 9 12 9s-.475.34-.856 1.023l-.098.176c-.108.194-.162.29-.247.354s-.19.088-.4.135l-.19.044c-.74.167-1.11.25-1.197.532c-.088.283.164.577.668 1.165l.13.152c.143.167.215.25.247.354s.022.215 0 .438l-.02.203c-.076.785-.114 1.178.116 1.352s.576.015 1.269-.303l.179-.082c.196-.09.295-.135.399-.135s.203.045.4.135l.178.082c.693.319 1.039.477 1.269.303s.192-.567.116-1.352l-.02-.203c-.022-.223-.032-.334 0-.438s.104-.187.247-.354l.13-.152c.504-.588.756-.882.668-1.165c-.088-.282-.457-.365-1.197-.532l-.19-.044c-.21-.047-.316-.07-.4-.135c-.085-.064-.139-.16-.247-.354" clip-rule="evenodd"/></svg>