<svg viewBox="0 0 24 24"><path fill="currentColor" fill-rule="evenodd" d="M4.313 4.5c.367-.112.852-.222 1.446-.32c1.577-.264 3.784-.43 6.241-.43a.75.75 0 0 0 0-1.5c-2.513 0-4.807.17-6.487.45c-.835.139-1.553.31-2.08.518c-.26.103-.518.23-.724.398c-.196.16-.459.453-.459.884s.263.724.46.884c.205.167.462.295.722.398c.528.207 1.246.38 2.08.518c1.681.28 3.975.45 6.488.45s4.807-.17 6.487-.45c.835-.139 1.553-.31 2.08-.518c.26-.103.518-.23.724-.398c.196-.16.459-.453.459-.884c0-.535-.397-.857-.63-1.007c-.27-.175-.62-.313-.997-.428c-.762-.233-1.814-.421-3.04-.558a.75.75 0 0 0-.166 1.491c1.186.132 2.134.308 2.768.502h.002c-.367.112-.852.222-1.446.32c-1.577.264-3.784.43-6.241.43s-4.664-.166-6.24-.43a12 12 0 0 1-1.447-.32m16.045.291l-.013-.011zM6.591 10.538a.75.75 0 0 0-1.258.806L6 11c-.667.344-.666.345-.666.345l.001.002l.002.004l.004.007l.009.016a1 1 0 0 0 .065.098q.052.07.128.142c.102.097.237.196.418.295c.357.194.914.394 1.8.55a.75.75 0 1 0 .261-1.476c-.787-.14-1.175-.3-1.346-.393a1 1 0 0 1-.085-.052m11.752-.205a.75.75 0 0 1 .324 1.01L18 11c.667.344.665.346.665.346l-.001.003l-.003.006l-.007.012a1 1 0 0 1-.131.18a1.5 1.5 0 0 1-.26.224c-.214.15-.525.304-.986.446c-.916.281-2.5.533-5.277.533a.75.75 0 0 1 0-1.5c2.707 0 4.124-.248 4.837-.467c.353-.108.513-.204.567-.241l.005-.004a.75.75 0 0 1 .934-.205m-1.633 5.925a.75.75 0 0 1-.468.952a9.4 9.4 0 0 1-3.242.54c-1.397 0-2.434-.125-3.138-.258a.75.75 0 1 1 .276-1.474c.61.115 1.556.232 2.862.232a8 8 0 0 0 2.758-.46a.75.75 0 0 1 .952.468M12.25 22a.75.75 0 0 1 .75-.75h.5a.75.75 0 0 1 0 1.5H13a.75.75 0 0 1-.75-.75" clip-rule="evenodd"/><path fill="currentColor" d="M15.24 19.266a.75.75 0 0 1-.62.86c-.474.077-1.007.124-1.62.124q-.728-.001-1.329-.04a.75.75 0 0 1 .095-1.497q.553.036 1.234.037c.535 0 .987-.04 1.38-.105a.75.75 0 0 1 .86.621m-7.937-5.543a.75.75 0 0 1 .97-.421h.003q.006.004.028.01q.042.016.146.046c.137.04.357.097.662.155c.61.116 1.563.237 2.888.237c1.326 0 2.279-.12 2.889-.237a7 7 0 0 0 .808-.2l.028-.01l.001-.001a.75.75 0 0 1 .551 1.395L16 14c.277.697.276.698.276.698h-.001l-.003.001l-.007.003l-.019.007a3 3 0 0 1-.275.09a9 9 0 0 1-.802.188c-.705.134-1.752.263-3.169.263s-2.464-.129-3.168-.263a9 9 0 0 1-.802-.189a5 5 0 0 1-.276-.089l-.019-.007l-.007-.003l-.003-.001h-.002a.75.75 0 0 1-.42-.975m13.403-5.976a.75.75 0 0 1-.453.96h-.002l-.003.001l-.01.004l-.032.01l-.112.037q-.144.046-.42.122c-.368.099-.909.228-1.622.357c-1.426.258-3.54.512-6.328.512s-4.768-.254-6.066-.514a14 14 0 0 1-1.449-.365a7 7 0 0 1-.469-.166l-.03-.013l-.01-.004l-.003-.002h-.001S3.694 8.685 4 8l-.306.685a.75.75 0 0 1 .609-1.371l.01.004l.06.024q.089.034.29.1c.269.085.693.203 1.29.323c1.193.24 3.075.485 5.771.485c2.697 0 4.721-.246 6.062-.488c.67-.121 1.17-.241 1.497-.33a9 9 0 0 0 .445-.131l.02-.007a.75.75 0 0 1 .958.453" opacity=".5"/></svg>