<svg viewBox="0 0 24 24"><g fill="currentColor" fill-rule="evenodd" clip-rule="evenodd"><path d="M4.313 6.5c.367-.112.852-.222 1.446-.32c1.577-.264 3.784-.43 6.241-.43a.75.75 0 0 0 0-1.5c-2.513 0-4.807.17-6.487.45c-.835.139-1.553.31-2.08.518c-.26.103-.518.23-.724.398c-.196.16-.459.453-.459.884s.263.724.46.884c.205.167.462.295.722.398c.528.207 1.246.38 2.08.518c1.681.28 3.975.45 6.488.45s4.807-.17 6.487-.45c.835-.139 1.553-.31 2.08-.518c.26-.103.518-.23.724-.398c.196-.16.459-.453.459-.884c0-.535-.397-.857-.63-1.007c-.27-.175-.62-.313-.997-.428c-.762-.233-1.814-.421-3.04-.558a.75.75 0 0 0-.166 1.491c1.186.132 2.134.308 2.768.502h.002a12 12 0 0 1-1.446.32c-1.577.264-3.784.43-6.241.43s-4.664-.166-6.24-.43a12 12 0 0 1-1.447-.32m16.045.291l-.013-.011zM3.651 6.216"/><path d="M20.706 9.747a.75.75 0 0 1-.453.96L20 10l.253.706l-.002.001l-.003.001l-.01.003l-.032.011l-.112.037q-.144.046-.42.121c-.368.1-.909.23-1.622.358c-1.426.258-3.54.512-6.328.512s-4.768-.254-6.066-.514a14 14 0 0 1-1.449-.365a7 7 0 0 1-.469-.166l-.03-.013l-.01-.004l-.003-.002h-.001S3.694 10.685 4 10l-.306.685a.75.75 0 0 1 .609-1.371m0 0l.01.004l.06.024q.089.034.29.1c.269.085.693.203 1.29.323c1.193.24 3.075.485 5.771.485c2.697 0 4.721-.246 6.062-.488c.67-.121 1.17-.241 1.497-.33a9 9 0 0 0 .445-.131l.02-.007l.233.654l-.234-.654a.75.75 0 0 1 .96.453M8.273 15.302a.75.75 0 0 0-.55 1.395L8 16l-.276.697l.001.001l.003.001l.007.003l.02.007a3 3 0 0 0 .275.09c.183.053.45.121.802.188c.704.134 1.751.263 3.168.263s2.464-.129 3.169-.263a9 9 0 0 0 .802-.189a5 5 0 0 0 .275-.089l.02-.007l.006-.003l.003-.001h.001L16 16l.277.697a.75.75 0 0 0-.55-1.395h-.002m0 0l-.028.01q-.043.016-.146.046a7 7 0 0 1-.662.155c-.61.116-1.563.237-2.889.237s-2.278-.12-2.888-.237a7 7 0 0 1-.808-.2l-.028-.01m7.448 0" opacity=".5"/><path d="M16.71 18.258a.75.75 0 0 1-.467.952a9.4 9.4 0 0 1-3.243.54c-1.397 0-2.434-.125-3.138-.257a.75.75 0 1 1 .276-1.475c.611.115 1.556.232 2.862.232a8 8 0 0 0 2.758-.46a.75.75 0 0 1 .952.468m-10.119-5.72a.75.75 0 0 0-1.258.806L6 13c-.667.344-.666.345-.666.345l.001.002l.002.004l.004.008l.009.015a1 1 0 0 0 .065.098q.052.07.128.142c.102.097.237.197.418.295c.357.194.915.394 1.8.55a.75.75 0 0 0 .262-1.476c-.787-.14-1.176-.3-1.346-.392a1 1 0 0 1-.086-.053m11.753-.204a.75.75 0 0 1 .323 1.01L18 13c.667.344.666.345.665.347l-.001.002l-.003.006l-.007.012l-.046.074q-.036.052-.085.106q-.098.11-.26.224c-.213.15-.525.305-.986.446c-.916.281-2.5.533-5.277.533a.75.75 0 1 1 0-1.5c2.707 0 4.124-.248 4.837-.467c.354-.108.513-.203.567-.241l.005-.004a.75.75 0 0 1 .935-.204"/></g></svg>