<svg viewBox="0 0 24 24"><path fill="currentColor" d="M12 22c-4.714 0-7.071 0-8.536-1.465C2 19.072 2 16.714 2 12s0-7.071 1.464-8.536C4.93 2 7.286 2 12 2s7.071 0 8.535 1.464C22 4.93 22 7.286 22 12s0 7.071-1.465 8.535C19.072 22 16.714 22 12 22" opacity=".5"/><path fill="currentColor" d="M10.683 18.62A6.75 6.75 0 0 0 18.75 12a.75.75 0 0 0-1.5 0A5.25 5.25 0 1 1 12 6.75a.75.75 0 0 0 0-1.5a6.75 6.75 0 0 0-1.317 13.37"/><path fill="currentColor" d="M13.31 6.045a.75.75 0 0 1 .986-.393a7.73 7.73 0 0 1 4.052 4.052a.75.75 0 0 1-1.378.591a6.23 6.23 0 0 0-3.265-3.265a.75.75 0 0 1-.394-.985M12 9.75a.75.75 0 0 1 .75.75v.75h.75a.75.75 0 1 1 0 1.5h-.75v.75a.75.75 0 1 1-1.5 0v-.75h-.75a.75.75 0 0 1 0-1.5h.75v-.75a.75.75 0 0 1 .75-.75"/></svg>