<svg viewBox="0 0 24 24"><path fill="currentColor" d="M2.75 12a9.25 9.25 0 0 1 18.5 0a9.22 9.22 0 0 1-2.71 6.54a.75.75 0 0 0 1.061 1.061A10.72 10.72 0 0 0 22.75 12c0-5.937-4.813-10.75-10.75-10.75S1.25 6.063 1.25 12c0 2.968 1.204 5.657 3.149 7.601a.75.75 0 1 0 1.06-1.06A9.22 9.22 0 0 1 2.75 12"/><path fill="currentColor" d="M6.75 12a5.25 5.25 0 1 1 8.962 3.712a.75.75 0 0 0 1.061 1.061a6.75 6.75 0 1 0-9.546 0a.75.75 0 1 0 1.06-1.06A5.23 5.23 0 0 1 6.75 12"/><path fill="currentColor" fill-rule="evenodd" d="M9.25 12a2.75 2.75 0 1 1 5.5 0a2.75 2.75 0 0 1-5.5 0M12 10.75a1.25 1.25 0 1 0 0 2.5a1.25 1.25 0 0 0 0-2.5m1.393 4.993c-.378-.267-.783-.466-1.276-.49a3 3 0 0 0-.234 0c-.493.024-.898.223-1.276.49c-.352.25-.74.605-1.192 1.017l-.08.072c-1.004.917-1.817 1.66-2.334 2.277c-.497.593-.954 1.337-.66 2.167q.06.166.146.32c.41.735 1.245.955 2.048 1.052c.837.102 1.98.102 3.409.102h.112c1.429 0 2.572 0 3.41-.102c.802-.097 1.636-.317 2.047-1.052q.086-.154.145-.32c.295-.83-.162-1.574-.659-2.167c-.517-.618-1.33-1.36-2.335-2.277l-.079-.072c-.451-.412-.84-.767-1.192-1.017m-1.919 1.224c.25-.177.38-.211.48-.216a1 1 0 0 1 .091 0c.1.005.23.039.48.216c.268.19.588.48 1.082.931c1.062.969 1.798 1.643 2.243 2.174c.22.263.328.444.374.566c.037.095.025.125.021.134v.001a1 1 0 0 1-.041.091c-.02.035-.138.2-.92.295c-.735.09-1.787.091-3.284.091c-1.498 0-2.549-.001-3.284-.09c-.782-.096-.9-.26-.92-.296a1 1 0 0 1-.041-.09v-.002c-.004-.009-.016-.039.021-.134c.046-.122.154-.303.374-.566c.445-.53 1.182-1.205 2.243-2.174c.494-.45.814-.741 1.081-.93" clip-rule="evenodd"/></svg>