<svg viewBox="0 0 24 24"><path fill="currentColor" fill-rule="evenodd" d="M4 2.75a1.25 1.25 0 1 0 0 2.5a1.25 1.25 0 0 0 0-2.5M1.25 4a2.75 2.75 0 1 1 3.5 2.646v4.604h6.5V6.646a2.751 2.751 0 1 1 1.5 0v4.604H16c.964 0 1.612-.002 2.095-.066c.461-.063.659-.17.789-.3s.237-.328.3-.79c.064-.482.066-1.13.066-2.094V6.646a2.751 2.751 0 1 1 1.5 0v1.406c0 .898 0 1.648-.08 2.242c-.084.628-.27 1.195-.726 1.65c-.455.456-1.022.642-1.65.726c-.594.08-1.343.08-2.242.08H12.75v4.604a2.751 2.751 0 1 1-1.5 0V12.75h-6.5v4.604a2.751 2.751 0 1 1-1.5 0V6.646A2.75 2.75 0 0 1 1.25 4M12 2.75a1.25 1.25 0 1 0 0 2.5a1.25 1.25 0 0 0 0-2.5m8 0a1.25 1.25 0 1 0 0 2.5a1.25 1.25 0 0 0 0-2.5M17.25 15a.75.75 0 0 1 .75-.75h2.286c1.375 0 2.464 1.134 2.464 2.5a2.5 2.5 0 0 1-1.641 2.358l1.53 2.5a.75.75 0 1 1-1.279.784l-1.923-3.142h-.687V22a.75.75 0 0 1-1.5 0zm1.5 2.75h1.536c.518 0 .964-.433.964-1s-.446-1-.964-1H18.75zM4 18.75a1.25 1.25 0 1 0 0 2.5a1.25 1.25 0 0 0 0-2.5m8 0a1.25 1.25 0 1 0 0 2.5a1.25 1.25 0 0 0 0-2.5" clip-rule="evenodd"/></svg>