<svg viewBox="0 0 24 24"><path fill="currentColor" d="M20.5 15V6.137c0-.388 0-.582-.018-.714q-.185-1.375-1.537-1.684c-.13-.03-.402-.054-.945-.103c-1.002-.091-2.183-.44-3.231-.822C13.275 2.271 12.529 2 12 2s-1.275.271-2.769.814c-1.048.382-2.23.73-3.231.822c-.543.049-.814.074-.945.103q-1.351.31-1.537 1.684c-.018.132-.018.326-.018.714V15h7.75v6h1.5v-6z" opacity=".5"/><path fill="currentColor" d="M14.03 8.53a.75.75 0 0 0-1.06-1.06l-3 3a.75.75 0 1 0 1.06 1.06zm-3-1a.75.75 0 1 0-1.06-1.06l-1 1a.75.75 0 0 0 1.06 1.06zm4 4a.75.75 0 1 0-1.06-1.06l-1 1a.75.75 0 1 0 1.06 1.06z"/><path fill="currentColor" fill-rule="evenodd" d="M3 15h8.25v6H8c-.877 0-1.619 0-2.25-.026V22a.75.75 0 0 1-1.5 0v-1.19c-.58-.125-1.019-.336-1.371-.689c-.768-.768-.865-1.946-.877-4.12A.997.997 0 0 1 3 15m3.25 3a.75.75 0 0 1 .75-.75h2a.75.75 0 0 1 0 1.5H7a.75.75 0 0 1-.75-.75M16 21h-3.25v-6H21a.997.997 0 0 1 1 1c-.013 2.175-.11 3.353-.877 4.121c-.353.353-.791.564-1.372.69V22a.75.75 0 0 1-1.5 0v-1.026C17.619 21 16.877 21 16 21m-1-3.75a.75.75 0 0 0 0 1.5h2a.75.75 0 0 0 0-1.5z" clip-rule="evenodd"/></svg>