<svg viewBox="0 0 24 24"><path fill="currentColor" d="M16 15.25a1.25 1.25 0 1 0 0-2.5a1.25 1.25 0 0 0 0 2.5M9.25 10a1.25 1.25 0 1 0-2.5 0a1.25 1.25 0 0 0 2.5 0"/><path fill="currentColor" fill-rule="evenodd" d="M12 22c-4.714 0-7.071 0-8.536-1.465C2 19.072 2 16.714 2 12s0-7.071 1.464-8.536C4.93 2 7.286 2 12 2s7.071 0 8.535 1.464C22 4.93 22 7.286 22 12s0 7.071-1.465 8.535C19.072 22 16.714 22 12 22m6.75-8a2.75 2.75 0 1 1-5.5 0a2.75 2.75 0 0 1 5.5 0M8 7.25a2.75 2.75 0 1 1 0 5.5a2.75 2.75 0 0 1 0-5.5m8 3.5a.75.75 0 0 1-.75-.75V5a.75.75 0 0 1 1.5 0v5a.75.75 0 0 1-.75.75M7.25 14a.75.75 0 0 1 1.5 0v5a.75.75 0 0 1-1.5 0zM16 19.75a.75.75 0 0 1-.75-.75v-1a.75.75 0 0 1 1.5 0v1a.75.75 0 0 1-.75.75M7.25 5a.75.75 0 0 1 1.5 0v1a.75.75 0 0 1-1.5 0z" clip-rule="evenodd"/></svg>