<svg viewBox="0 0 24 24"><defs><mask id="SVGbAnFgbgR"><g fill="none"><path stroke="#fff" stroke-width="1.5" d="M18.922 12.15c1.603 2.623 2.072 5 .98 6.091c-1.63 1.63-6.118-.214-10.023-4.12C5.974 10.217 4.129 5.73 5.759 4.1c1.092-1.092 3.468-.624 6.092.98"/><path stroke="gray" stroke-width="1.5" d="M11.485 5.445a4.73 4.73 0 0 1 6.687 0l.384.383a4.73 4.73 0 0 1 0 6.688c-.126.125-.286.21-.46.178c-.497-.09-1.72-.56-3.975-2.815s-2.725-3.477-2.814-3.974c-.032-.174.052-.335.178-.46Z"/><circle cx="12" cy="12" r="1" fill="gray" transform="rotate(45 12 12)"/><circle cx="9.172" cy="7.757" r="1" fill="#fff" transform="rotate(45 9.172 7.757)"/><circle cx="16.243" cy="14.828" r="1" fill="#fff" transform="rotate(45 16.243 14.828)"/><path stroke="#fff" stroke-linecap="round" stroke-width="1.5" d="m3.636 20.364l4.121-4.122"/><path stroke="gray" stroke-linecap="round" stroke-width="1.5" d="m10 22l2.707-2.222M2 14l2.222-2.707"/></g></mask></defs><path fill="currentColor" d="M0 0h24v24H0z" mask="url(#SVGbAnFgbgR)"/></svg>