<svg viewBox="0 0 24 24"><path fill="currentColor" fill-rule="evenodd" d="M17.47 14.47a.75.75 0 0 1 1.06 0l2.5 2.5a.75.75 0 1 1-1.06 1.06l-1.22-1.22V22a.75.75 0 0 1-1.5 0v-5.19l-1.22 1.22a.75.75 0 1 1-1.06-1.06z" clip-rule="evenodd"/><path fill="currentColor" d="M12.756 8.644a.96.96 0 0 1 .012-.118a.25.25 0 0 1 .253-.157c.008.003.04.012.11.043c.109.047.25.118.475.23l1.317.658a6.714 6.714 0 0 1 .23.12a.25.25 0 0 1 .092.15l.003.045a11.444 11.444 0 0 1-.005.742a.963.963 0 0 1-.01.117a.25.25 0 0 1-.255.157a1.003 1.003 0 0 1-.11-.042c-.108-.047-.25-.118-.474-.23L13.077 9.7a6.687 6.687 0 0 1-.23-.12a.25.25 0 0 1-.092-.15a11.44 11.44 0 0 1 .002-.786M10 13.75a1.25 1.25 0 1 1 0 2.5a1.25 1.25 0 0 1 0-2.5"/><path fill="currentColor" fill-rule="evenodd" d="M15.75 21.273A9.971 9.971 0 0 1 12 22C6.477 22 2 17.523 2 12S6.477 2 12 2s10 4.477 10 10a9.985 9.985 0 0 1-.547 3.27l-1.863-1.86a2.25 2.25 0 0 0-3.182 0l-2.5 2.5a2.25 2.25 0 0 0 1.841 3.827zm-3-10.06l.99.496c.203.101.38.19.529.255c.15.066.33.133.528.156a1.75 1.75 0 0 0 1.848-1.142a1.87 1.87 0 0 0 .096-.542c.009-.162.009-.361.009-.588v-.06c0-.161 0-.333-.031-.499a1.75 1.75 0 0 0-.656-1.061a2.642 2.642 0 0 0-.433-.251l-1.37-.685c-.203-.102-.38-.19-.529-.255a1.867 1.867 0 0 0-.528-.157a1.75 1.75 0 0 0-1.848 1.142a1.87 1.87 0 0 0-.097.543A8.912 8.912 0 0 0 11.25 9v3.55a2.75 2.75 0 1 0 1.5 2.45z" clip-rule="evenodd"/></svg>