<svg viewBox="0 0 24 24"><path fill="currentColor" fill-rule="evenodd" d="M12 2.75a9.25 9.25 0 1 0 1.85 18.315a.75.75 0 1 1 .3 1.47q-1.046.213-2.15.215C6.063 22.75 1.25 17.937 1.25 12S6.063 1.25 12 1.25S22.75 6.063 22.75 12q-.002 1.104-.215 2.15a.75.75 0 0 1-1.47-.3A9.25 9.25 0 0 0 12 2.75m.768 5.776a1 1 0 0 0-.012.117a11 11 0 0 0-.006.528a7 7 0 0 0 .005.259a.25.25 0 0 0 .093.15l.038.023c.04.022.095.05.191.097l1.317.658c.224.113.366.183.474.23c.07.03.102.04.11.043a.25.25 0 0 0 .254-.157a1 1 0 0 0 .012-.117c.006-.118.006-.277.006-.528a7 7 0 0 0-.005-.259a.25.25 0 0 0-.093-.15l-.038-.023l-.191-.097l-1.317-.658a12 12 0 0 0-.474-.23a1 1 0 0 0-.11-.043a.25.25 0 0 0-.254.157m-.018 2.688l.99.494c.203.102.38.19.529.255c.15.066.33.134.528.157a1.75 1.75 0 0 0 1.848-1.142a1.9 1.9 0 0 0 .096-.543c.009-.162.009-.36.009-.587v-.059c0-.163 0-.334-.031-.5a1.75 1.75 0 0 0-.656-1.061a2.6 2.6 0 0 0-.433-.251l-.036-.019l-1.334-.666a12 12 0 0 0-.529-.256a1.9 1.9 0 0 0-.528-.156a1.75 1.75 0 0 0-1.848 1.142a1.9 1.9 0 0 0-.097.543A9 9 0 0 0 11.25 9v3.55a2.75 2.75 0 1 0 1.5 2.45zM11.25 15a1.25 1.25 0 1 0-2.5 0a1.25 1.25 0 0 0 2.5 0m6.22-.53a.75.75 0 0 1 1.06 0l2.5 2.5a.75.75 0 1 1-1.06 1.06l-1.22-1.22V22a.75.75 0 0 1-1.5 0v-5.19l-1.22 1.22a.75.75 0 1 1-1.06-1.06z" clip-rule="evenodd"/></svg>