<svg viewBox="0 0 24 24"><path fill="currentColor" fill-rule="evenodd" d="M4.25 6a4.75 4.75 0 1 1 9.5 0a4.75 4.75 0 0 1-9.5 0M9 2.75a3.25 3.25 0 1 0 0 6.5a3.25 3.25 0 0 0 0-6.5M3.678 13.52c1.4-.8 3.283-1.27 5.322-1.27s3.922.47 5.322 1.27c1.378.788 2.428 1.99 2.428 3.48s-1.05 2.692-2.428 3.48c-1.4.8-3.283 1.27-5.322 1.27s-3.922-.47-5.322-1.27C2.3 19.692 1.25 18.49 1.25 17s1.05-2.692 2.428-3.48m.744 1.303C3.267 15.483 2.75 16.28 2.75 17s.517 1.517 1.672 2.177C5.556 19.825 7.173 20.25 9 20.25s3.444-.425 4.578-1.073c1.155-.66 1.672-1.458 1.672-2.177s-.517-1.517-1.672-2.177C12.444 14.175 10.827 13.75 9 13.75s-3.444.425-4.578 1.073M15.69 7.447c.72-.319 1.558-.259 2.31.232c.752-.49 1.59-.551 2.31-.232A2.46 2.46 0 0 1 21.75 9.7c0 .948-.414 1.662-.91 2.203c-.388.422-.867.779-1.245 1.06q-.123.091-.229.172l-.002.001c-.148.114-.34.26-.543.375a1.67 1.67 0 0 1-.821.239a1.67 1.67 0 0 1-.82-.239a5 5 0 0 1-.544-.375l-.002-.001l-.228-.171c-.379-.282-.858-.639-1.245-1.06c-.497-.542-.911-1.256-.911-2.204c0-1 .585-1.875 1.44-2.253m.06 2.253c0-.412.24-.745.547-.881c.267-.118.69-.13 1.171.353a.75.75 0 0 0 1.064 0c.48-.483.904-.471 1.17-.353a.96.96 0 0 1 .548.88c0 .465-.189.833-.516 1.19c-.282.308-.618.559-.99.837l-.288.216a4 4 0 0 1-.374.264a1 1 0 0 1-.082.04a1 1 0 0 1-.082-.04c-.1-.056-.212-.14-.374-.264l-.288-.216c-.372-.278-.708-.53-.99-.837c-.327-.357-.516-.725-.516-1.19" clip-rule="evenodd"/></svg>