<svg viewBox="0 0 24 24"><circle cx="12" cy="6" r="4" fill="currentColor"/><path fill="currentColor" fill-rule="evenodd" d="M16.5 22c-1.65 0-2.475 0-2.987-.513C13 20.975 13 20.15 13 18.5s0-2.475.513-2.987C14.025 15 14.85 15 16.5 15s2.475 0 2.987.513C20 16.025 20 16.85 20 18.5s0 2.475-.513 2.987C18.975 22 18.15 22 16.5 22m.583-5.056a.583.583 0 1 0-1.166 0v.973h-.973a.583.583 0 1 0 0 1.166h.973v.973a.583.583 0 1 0 1.166 0v-.973h.973a.583.583 0 1 0 0-1.166h-.973z" clip-rule="evenodd"/><path fill="currentColor" d="M15.678 13.503c-.473.005-.914.023-1.298.074c-.643.087-1.347.293-1.928.875c-.582.581-.788 1.285-.874 1.928c-.078.578-.078 1.284-.078 2.034v.172c0 .75 0 1.456.078 2.034c.06.451.18.932.447 1.38H12c-8 0-8-2.015-8-4.5S7.582 13 12 13c1.326 0 2.577.181 3.678.503"/></svg>