<svg viewBox="0 0 24 24"><path fill="currentColor" d="M18.357 1.614a.75.75 0 0 1 1.029-.257L19 2l.386-.643h.001l.002.002l.004.002l.01.006a2 2 0 0 1 .113.076c.07.049.166.12.277.212c.222.185.512.462.802.838c.582.757 1.155 1.914 1.155 3.507s-.573 2.75-1.155 3.507c-.29.376-.58.653-.802.838a4 4 0 0 1-.363.27l-.028.018l-.01.006l-.003.002l-.002.001s-.001.001-.387-.642l.386.643a.75.75 0 0 1-.776-1.283l.005-.004l.041-.027a3 3 0 0 0 .177-.136c.152-.128.362-.326.573-.6c.417-.543.844-1.386.844-2.593s-.427-2.05-.844-2.593a3.8 3.8 0 0 0-.573-.6a3 3 0 0 0-.218-.163l-.005-.004a.75.75 0 0 1-.253-1.026"/><path fill="currentColor" fill-rule="evenodd" d="M10 1.25a4.75 4.75 0 1 0 0 9.5a4.75 4.75 0 0 0 0-9.5M6.75 6a3.25 3.25 0 1 1 6.5 0a3.25 3.25 0 0 1-6.5 0M10 12.25c-2.313 0-4.445.526-6.024 1.414C2.42 14.54 1.25 15.866 1.25 17.5v.102c-.001 1.162-.002 2.62 1.277 3.662c.629.512 1.51.877 2.7 1.117c1.192.242 2.747.369 4.773.369s3.58-.127 4.774-.369c1.19-.24 2.07-.605 2.7-1.117c1.279-1.042 1.277-2.5 1.276-3.662V17.5c0-1.634-1.17-2.96-2.725-3.836c-1.58-.888-3.711-1.414-6.025-1.414M2.75 17.5c0-.851.622-1.775 1.961-2.528c1.316-.74 3.184-1.222 5.29-1.222c2.104 0 3.972.482 5.288 1.222c1.34.753 1.961 1.677 1.961 2.528c0 1.308-.04 2.044-.724 2.6c-.37.302-.99.597-2.05.811c-1.057.214-2.502.339-4.476.339s-3.42-.125-4.476-.339c-1.06-.214-1.68-.509-2.05-.81c-.684-.557-.724-1.293-.724-2.601" clip-rule="evenodd"/><path fill="currentColor" d="M17.386 3.357a.75.75 0 0 0-1.029.257l.248 1.024l.008.005l.063.049c.06.05.144.129.23.24c.167.218.344.56.344 1.068c0 .507-.177.85-.344 1.068a1.5 1.5 0 0 1-.293.29l-.008.004a.75.75 0 0 0 .781 1.281L17 8l.386.643h.001l.002-.002l.003-.001l.007-.005l.02-.012l.054-.037q.066-.045.164-.125c.128-.107.293-.265.458-.479A3.2 3.2 0 0 0 18.75 6a3.2 3.2 0 0 0-.655-1.982a3 3 0 0 0-.622-.604l-.054-.037l-.02-.012l-.007-.005l-.003-.001l-.002-.001S17.386 3.357 17 4z"/></svg>