<svg viewBox="0 0 24 24"><path fill="currentColor" fill-rule="evenodd" d="M12 1.25a4.75 4.75 0 1 0 0 9.5a4.75 4.75 0 0 0 0-9.5M8.75 6a3.25 3.25 0 1 1 6.5 0a3.25 3.25 0 0 1-6.5 0" clip-rule="evenodd"/><path fill="currentColor" d="M16.197 16.136a.75.75 0 1 0-1.06 1.061l.802.803l-.803.803a.75.75 0 0 0 1.061 1.06l.803-.802l.803.803a.75.75 0 0 0 1.06-1.061L18.062 18l.803-.803a.75.75 0 0 0-1.06-1.06l-.804.802z"/><path fill="currentColor" fill-rule="evenodd" d="M12 12.25c1.805 0 3.483.368 4.812 1.004q.093-.004.188-.004a4.75 4.75 0 1 1-3.09 8.358c-.61.093-1.251.142-1.91.142c-2.04 0-3.922-.47-5.322-1.27C5.3 19.692 4.25 18.49 4.25 17s1.05-2.692 2.428-3.48c1.4-.8 3.283-1.27 5.322-1.27M5.75 17c0-.72.517-1.517 1.672-2.177c1.134-.648 2.751-1.073 4.578-1.073c.861 0 1.677.094 2.418.263A4.75 4.75 0 0 0 12.25 18c0 .803.2 1.56.55 2.222q-.393.028-.8.028c-1.827 0-3.444-.425-4.578-1.073C6.267 18.517 5.75 17.72 5.75 17M17 14.75a3.25 3.25 0 1 0 0 6.5a3.25 3.25 0 0 0 0-6.5" clip-rule="evenodd"/></svg>