<svg viewBox="0 0 24 24"><path fill="currentColor" d="M18.357 1.364a.75.75 0 0 1 1.029-.257L19 1.75l.386-.643h.001l.002.002l.003.002l.01.006a2 2 0 0 1 .114.076q.107.074.277.212c.222.185.512.462.802.838c.582.758 1.155 1.914 1.155 3.507s-.573 2.75-1.155 3.507c-.29.376-.58.653-.802.838a4 4 0 0 1-.378.28l-.013.008l-.01.006l-.003.002l-.002.001s-.001.001-.387-.642l.386.643a.75.75 0 0 1-.776-1.283l.005-.004l.04-.027q.061-.042.177-.136c.153-.128.363-.326.573-.6c.418-.542.845-1.386.845-2.593s-.427-2.05-.844-2.593a3.8 3.8 0 0 0-.574-.6a3 3 0 0 0-.217-.163l-.005-.003a.75.75 0 0 1-.253-1.027M10 9.75a4 4 0 1 0 0-8a4 4 0 0 0 0 8"/><path fill="currentColor" d="M17.386 3.107a.75.75 0 0 0-1.03.257l.25 1.024l.007.005l.063.049c.06.05.144.129.23.24a1.7 1.7 0 0 1 .344 1.068a1.7 1.7 0 0 1-.344 1.068a1.5 1.5 0 0 1-.293.29l-.008.004a.75.75 0 0 0 .78 1.281L17 7.75l.386.643h.001l.002-.001l.003-.002l.007-.005l.02-.012a2 2 0 0 0 .217-.162c.129-.107.294-.265.459-.479a3.2 3.2 0 0 0 .655-1.982a3.2 3.2 0 0 0-.655-1.982a3 3 0 0 0-.622-.604l-.054-.037l-.02-.012l-.007-.004l-.003-.002l-.002-.001s-.001-.001-.387.642z"/><path fill="currentColor" d="M2 17.25c0 2.485 0 4.5 8 4.5s8-2.015 8-4.5s-3.582-4.5-8-4.5s-8 2.015-8 4.5" opacity=".5"/></svg>