<svg viewBox="0 0 24 24"><circle cx="12" cy="6" r="4" fill="currentColor"/><path fill="currentColor" d="M18.095 15.031C17.67 15 17.149 15 16.5 15c-1.65 0-2.475 0-2.987.513C13 16.025 13 16.85 13 18.5c0 1.166 0 1.92.181 2.443Q12.605 21 12 21c-3.866 0-7-1.79-7-4s3.134-4 7-4c2.613 0 4.892.818 6.095 2.031" opacity=".5"/><path fill="currentColor" fill-rule="evenodd" d="M16.5 22c-1.65 0-2.475 0-2.987-.513C13 20.975 13 20.15 13 18.5s0-2.475.513-2.987C14.025 15 14.85 15 16.5 15s2.475 0 2.987.513C20 16.025 20 16.85 20 18.5s0 2.475-.513 2.987C18.975 22 18.15 22 16.5 22m.583-5.056a.583.583 0 1 0-1.166 0v.973h-.973a.583.583 0 1 0 0 1.166h.973v.973a.583.583 0 1 0 1.166 0v-.973h.973a.583.583 0 1 0 0-1.166h-.973z" clip-rule="evenodd"/></svg>