<svg viewBox="0 0 24 24"><path fill="currentColor" d="M16 6a4 4 0 1 1-8 0a4 4 0 0 1 8 0"/><path fill="currentColor" fill-rule="evenodd" d="M16.5 22c-1.65 0-2.475 0-2.987-.513C13 20.975 13 20.15 13 18.5s0-2.475.513-2.987C14.025 15 14.85 15 16.5 15s2.475 0 2.987.513C20 16.025 20 16.85 20 18.5s0 2.475-.513 2.987C18.975 22 18.15 22 16.5 22m1.968-4.254a.583.583 0 1 0-.825-.825l-1.92 1.92l-.366-.365a.583.583 0 1 0-.825.825l.778.778a.583.583 0 0 0 .825 0z" clip-rule="evenodd"/><path fill="currentColor" d="M14.477 21.92c-.726.053-1.547.08-2.477.08c-8 0-8-2.015-8-4.5S7.582 13 12 13c2.88 0 5.406.856 6.814 2.141C18.298 15 17.574 15 16.5 15c-1.65 0-2.475 0-2.987.513C13 16.025 13 16.85 13 18.5s0 2.475.513 2.987c.237.238.542.365.964.434" opacity=".5"/></svg>