<svg viewBox="0 0 24 24"><path fill="currentColor" d="M18.357 1.614a.75.75 0 0 1 1.029-.257L19 2l.386-.643h.001l.002.002l.003.002l.01.006a2 2 0 0 1 .114.076q.107.074.277.212c.222.185.512.462.802.838c.582.757 1.155 1.914 1.155 3.507s-.573 2.75-1.155 3.507c-.29.376-.58.653-.802.838a4 4 0 0 1-.39.288l-.01.006l-.004.002l-.002.001s-.001.001-.387-.642l.386.643a.75.75 0 0 1-.776-1.283l.005-.004l.04-.027q.061-.042.177-.136c.153-.128.363-.326.573-.6c.418-.543.845-1.386.845-2.593s-.427-2.05-.844-2.593a3.8 3.8 0 0 0-.574-.6a3 3 0 0 0-.217-.163l-.005-.004a.75.75 0 0 1-.253-1.026"/><path fill="currentColor" fill-rule="evenodd" d="M10 1.25a4.75 4.75 0 1 0 0 9.5a4.75 4.75 0 0 0 0-9.5M6.75 6a3.25 3.25 0 1 1 6.5 0a3.25 3.25 0 0 1-6.5 0M10 12.25c-2.04 0-3.922.47-5.322 1.27C3.3 14.308 2.25 15.51 2.25 17s1.05 2.692 2.428 3.48c1.4.8 3.283 1.27 5.322 1.27s3.922-.47 5.322-1.27c1.378-.788 2.428-1.99 2.428-3.48s-1.05-2.692-2.428-3.48c-1.4-.8-3.283-1.27-5.322-1.27M3.75 17c0-.72.517-1.517 1.672-2.177C6.556 14.175 8.173 13.75 10 13.75s3.444.425 4.578 1.073c1.155.66 1.672 1.458 1.672 2.177s-.517 1.517-1.672 2.177c-1.134.648-2.751 1.073-4.578 1.073s-3.444-.425-4.578-1.073C4.267 18.517 3.75 17.72 3.75 17" clip-rule="evenodd"/><path fill="currentColor" d="M17.386 3.357a.75.75 0 0 0-1.03.257l.25 1.024l.007.005l.063.049c.06.05.144.129.23.24c.167.218.344.56.344 1.068c0 .507-.177.85-.344 1.068a1.5 1.5 0 0 1-.293.29l-.008.004a.75.75 0 0 0 .78 1.281L17 8l.386.643h.001l.002-.002l.003-.001l.007-.005l.02-.012a2 2 0 0 0 .217-.162c.129-.107.294-.265.459-.479A3.2 3.2 0 0 0 18.75 6a3.2 3.2 0 0 0-.655-1.982a3 3 0 0 0-.622-.604l-.054-.037l-.02-.012l-.007-.005l-.003-.001l-.002-.001S17.386 3.357 17 4z"/></svg>