<svg viewBox="0 0 24 24"><path fill="currentColor" fill-rule="evenodd" d="M10 4h4c3.771 0 5.657 0 6.828 1.172S22 8.229 22 12s0 5.657-1.172 6.828S17.771 20 14 20h-4c-3.771 0-5.657 0-6.828-1.172S2 15.771 2 12s0-5.657 1.172-6.828S6.229 4 10 4m3.25 5a.75.75 0 0 1 .75-.75h5a.75.75 0 0 1 0 1.5h-5a.75.75 0 0 1-.75-.75m1 3a.75.75 0 0 1 .75-.75h4a.75.75 0 0 1 0 1.5h-4a.75.75 0 0 1-.75-.75m1 3a.75.75 0 0 1 .75-.75h3a.75.75 0 0 1 0 1.5h-3a.75.75 0 0 1-.75-.75M11 9a2 2 0 1 1-4 0a2 2 0 0 1 4 0m-2 8c4 0 4-.895 4-2s-1.79-2-4-2s-4 .895-4 2s0 2 4 2" clip-rule="evenodd"/></svg>