<svg viewBox="0 0 24 24"><path fill="currentColor" fill-rule="evenodd" d="M7.25 6a4.75 4.75 0 1 1 9.5 0a4.75 4.75 0 0 1-9.5 0M12 2.75a3.25 3.25 0 1 0 0 6.5a3.25 3.25 0 0 0 0-6.5" clip-rule="evenodd"/><path fill="currentColor" d="M17.75 16.667a.75.75 0 1 0-1.5 0v.583h-.584a.75.75 0 0 0 0 1.5h.584v.583a.75.75 0 0 0 1.5 0v-.583h.583a.75.75 0 0 0 0-1.5h-.583z"/><path fill="currentColor" fill-rule="evenodd" d="M16.812 13.254q.093-.004.188-.004a4.75 4.75 0 1 1-3.09 8.358c-.61.093-1.251.142-1.91.142c-2.04 0-3.922-.47-5.322-1.27C5.3 19.692 4.25 18.49 4.25 17s1.05-2.692 2.428-3.48c1.4-.8 3.283-1.27 5.322-1.27c1.805 0 3.483.368 4.812 1.004M17 14.75a3.25 3.25 0 1 0 0 6.5a3.25 3.25 0 0 0 0-6.5m-4.2 5.472A4.7 4.7 0 0 1 12.25 18c0-1.671.863-3.14 2.168-3.987A11 11 0 0 0 12 13.75c-1.827 0-3.444.425-4.578 1.073C6.267 15.483 5.75 16.28 5.75 17s.517 1.517 1.672 2.177c1.134.648 2.751 1.073 4.578 1.073q.407 0 .8-.028" clip-rule="evenodd"/></svg>