<svg viewBox="0 0 24 24"><circle cx="10" cy="6.75" r="4" fill="currentColor"/><ellipse cx="10" cy="17.75" fill="currentColor" opacity=".5" rx="7" ry="4"/><path fill="currentColor" fill-rule="evenodd" d="M18.357 2.364a.75.75 0 0 1 1.029-.257L19 2.75l.386-.643h.001l.002.002l.004.002l.01.006l.113.076c.07.049.166.12.277.212c.222.185.512.462.802.838c.582.758 1.155 1.914 1.155 3.507s-.573 2.75-1.155 3.507c-.29.376-.58.653-.802.838a4 4 0 0 1-.363.27l-.028.018l-.01.006l-.003.002l-.002.001s-.001.001-.387-.642l.386.643a.75.75 0 0 1-.776-1.283l.005-.004l.041-.027q.06-.042.177-.136c.152-.128.362-.326.573-.6c.417-.542.844-1.386.844-2.593s-.427-2.05-.844-2.593a3.8 3.8 0 0 0-.573-.6a3 3 0 0 0-.218-.163l-.005-.003a.75.75 0 0 1-.253-1.027" clip-rule="evenodd"/><path fill="currentColor" fill-rule="evenodd" d="M16.33 4.415a.75.75 0 0 1 1.006-.336L17 4.75l.336-.67h.001l.002.001l.004.002l.008.004l.022.012a2 2 0 0 1 .233.153c.136.102.31.254.48.467c.349.436.664 1.099.664 2.031s-.316 1.595-.664 2.031a2.7 2.7 0 0 1-.654.586l-.06.034l-.02.012l-.01.004l-.003.002l-.002.001l-.33-.657l.329.658a.75.75 0 0 1-.685-1.335l.003-.001l.052-.036c.052-.04.13-.106.209-.205c.15-.189.335-.526.335-1.094s-.184-.905-.335-1.094a1.2 1.2 0 0 0-.261-.24l-.003-.002a.75.75 0 0 1-.322-1" clip-rule="evenodd"/></svg>