<svg viewBox="0 0 24 24"><path fill="currentColor" d="M2.75 14.5a.75.75 0 0 0-1.5 0zm.226-11.621l.502.557zm0 16.242l.502-.557zM6.25 20a.75.75 0 0 0 1.5 0zm1.5-18a.75.75 0 1 0-1.5 0zM7 7v.75zm-5-.75a.75.75 0 0 0 0 1.5zM12 20v.75h.75V20zM2 15.25a.75.75 0 0 0 0 1.5zm20.75-.75a.75.75 0 0 0-1.5 0zm-1.5-4a.75.75 0 0 0 1.5 0zm-.226-5.621l-.502.557zm0 16.242l-.502-.557zM16.25 22a.75.75 0 0 0 1.5 0zm1.5-18a.75.75 0 0 0-1.5 0zM17 9v.75zm-5-5v-.75h-.75V4zm10 5.75a.75.75 0 0 0 0-1.5zm0 9a.75.75 0 0 0 0-1.5zM12 3h.75zM1.25 10.5a.75.75 0 0 0 1.5 0zM2.75 8q0-.533.002-.995l-1.5-.01Q1.249 7.468 1.25 8zm.002-.995c.007-1.094.038-1.863.157-2.443c.113-.553.293-.877.569-1.126L2.475 2.321c-.578.52-.878 1.169-1.036 1.94c-.152.745-.18 1.653-.187 2.734zM8.667 1.25q-.917-.002-1.677.007l.02 1.5c.495-.007 1.042-.007 1.657-.007zm-1.677.007c-1.035.013-1.904.054-2.625.194c-.737.143-1.366.398-1.89.87l1.003 1.115c.262-.235.61-.403 1.173-.512c.578-.113 1.328-.154 2.359-.168zM8.667 19.25c-.615 0-1.162 0-1.657-.006l-.02 1.5q.76.008 1.677.006zm-1.657-.006c-1.031-.014-1.781-.055-2.359-.168c-.562-.109-.911-.277-1.173-.512l-1.003 1.115c.524.472 1.153.727 1.89.87c.721.14 1.59.18 2.625.194zM1.25 14.5c0 .767 0 .937.02 1.525l1.499-.05A34 34 0 0 1 2.75 14.5zm.02 1.525c.052 1.553.237 2.783 1.205 3.654l1.003-1.115c-.457-.412-.657-1.035-.71-2.59zM6.25 16v3.994h1.5V16zm0 3.994V20h1.5v-.006zM6.25 2v.007h1.5V2zm0 .007V7h1.5V2.007zm5 .993v4h1.5V3zM12 6.25H7v1.5h5zm-5 0H2.002v1.5H7zm-4.998 0H2v1.5h.002zM11.25 7v9h1.5V7zm0 9v4h1.5v-4zm.75-.75H7v1.5h5zm-5 0H2.02v1.5H7zm-4.98 0H2v1.5h.02zm9.98 4H8.667v1.5H12zM8.667 2.75H11v-1.5H8.667zM22.75 10.5c0-.354 0-1.19-.002-1.505l-1.5.01c.002.309.002 1.138.002 1.495zm-.002-1.505c-.007-1.08-.035-1.989-.187-2.733c-.158-.772-.458-1.42-1.036-1.94l-1.003 1.114c.276.249.456.573.57 1.126c.118.58.15 1.349.156 2.443zM15.333 4.75c.614 0 1.162 0 1.657.006l.02-1.5q-.76-.007-1.677-.006zm1.657.006c1.031.014 1.781.055 2.359.168c.562.109.911.277 1.173.512l1.003-1.115c-.524-.472-1.153-.727-1.89-.87c-.721-.14-1.59-.18-2.625-.194zM15.333 22.75q.917.002 1.677-.007l-.02-1.5c-.494.007-1.042.007-1.657.007zm1.677-.007c1.035-.013 1.904-.054 2.625-.194c.737-.143 1.366-.398 1.89-.87l-1.003-1.115c-.262.235-.61.403-1.173.512c-.578.113-1.328.154-2.359.168zm4.24-8.243c0 .774 0 2.916-.019 3.475l1.5.05c.02-.591.019-2.771.019-3.525zm-.019 3.475c-.052 1.554-.252 2.177-.709 2.589l1.003 1.115c.969-.871 1.153-2.1 1.205-3.654zM16.25 18v3.994h1.5V18zm0 3.994V22h1.5v-.006zM16.25 4v.007h1.5V4zm0 .007V9h1.5V4.007zm-5-.007v5h1.5V4zM12 9.75h5v-1.5h-5zm5 0h4.998v-1.5H17zm4.998 0H22v-1.5h-.002zM11.25 9v9h1.5V9zm0 9v3h1.5v-3zm.75.75h5v-1.5h-5zm5 0h4.98v-1.5H17zm4.98 0H22v-1.5h-.02zm-8.98 4h2.333v-1.5H13zm2.333-19.5H12v1.5h3.333zM11.25 21c0 .966.784 1.75 1.75 1.75v-1.5a.25.25 0 0 1-.25-.25zm1.5-18A1.75 1.75 0 0 0 11 1.25v1.5a.25.25 0 0 1 .25.25zm-10 7.5V8h-1.5v2.5z"/></svg>