<svg viewBox="0 0 24 24"><g fill="none"><path stroke="currentColor" stroke-width="1.5" d="M2 12c0-4.714 0-7.071 1.464-8.536C4.93 2 7.286 2 12 2s7.071 0 8.535 1.464C22 4.93 22 7.286 22 12s0 7.071-1.465 8.535C19.072 22 16.714 22 12 22s-7.071 0-8.536-1.465C2 19.072 2 16.714 2 12Z"/><path fill="currentColor" d="M17.75 2.5a.75.75 0 0 0-1.5 0zm-1.5 19a.75.75 0 0 0 1.5 0zm-8.5-19a.75.75 0 0 0-1.5 0zm-1.5 19a.75.75 0 0 0 1.5 0zM17 11.25a.75.75 0 0 0 0 1.5zm5 1.5a.75.75 0 0 0 0-1.5zm-20-1.5a.75.75 0 0 0 0 1.5zm5 1.5a.75.75 0 0 0 0-1.5zm-4.5-6.5a.75.75 0 0 0 0 1.5zM7 7.75a.75.75 0 0 0 0-1.5zm10-1.5a.75.75 0 0 0 0 1.5zm4.5 1.5a.75.75 0 0 0 0-1.5zm-4.5 8.5a.75.75 0 0 0 0 1.5zm4.5 1.5a.75.75 0 0 0 0-1.5zm-19-1.5a.75.75 0 0 0 0 1.5zm4.5 1.5a.75.75 0 0 0 0-1.5zM16.25 2.5v19h1.5v-19zm-10 0v19h1.5v-19zM17 12.75h5v-1.5h-5zm-15 0h5v-1.5H2zm.5-5H7v-1.5H2.5zm14.5 0h4.5v-1.5H17zm0 10h4.5v-1.5H17zm-14.5 0H7v-1.5H2.5z" opacity=".5"/><path fill="currentColor" d="m12.411 10.404l.418-.622zm0 3.192l.418.622zm-.418-2.57c.55.371.89.601 1.102.797a.8.8 0 0 1 .15.17l.006.01L13.25 12h1.5c0-.566-.305-.973-.639-1.28c-.317-.293-.773-.596-1.282-.938zm.836 3.192c.509-.342.965-.645 1.282-.938c.334-.307.639-.714.639-1.28h-1.5v-.004l-.004.01a.8.8 0 0 1-.151.171c-.213.196-.551.426-1.102.796zM10.75 12c0-.738.002-1.217.044-1.55c.045-.348.11-.297.02-.238l-.828-1.25c-.49.323-.624.865-.68 1.299c-.057.45-.056 1.045-.056 1.739zm2.08-2.218c-.514-.345-.976-.659-1.362-.837c-.392-.182-.949-.336-1.482.016l.828 1.251c-.133.088-.22-.019.024.094c.251.116.595.344 1.155.72zM9.25 12c0 .694-.001 1.29.056 1.74c.056.433.19.975.68 1.299l.828-1.251c.09.059.025.11-.02-.239c-.043-.332-.044-.811-.044-1.549zm2.743.973c-.56.377-.904.605-1.155.72c-.244.114-.156.007-.024.095l-.828 1.25c.533.353 1.09.198 1.482.017c.386-.178.848-.492 1.361-.837z"/></g></svg>