<svg viewBox="0 0 24 24"><path fill="currentColor" d="M6.25 2.222c-1.223.194-2.102.558-2.786 1.243c-.684.684-1.048 1.562-1.243 2.785H6.25zM2.069 7.75C2.01 8.731 2 9.884 2 11.25h4.25v-3.5zm-.069 5c.001 1.366.01 2.519.068 3.5H6.25v-3.5zm.221 5c.195 1.223.56 2.102 1.243 2.786c.684.684 1.563 1.048 2.786 1.242V17.75zm15.529 4.028c1.223-.194 2.101-.558 2.785-1.242s1.049-1.563 1.243-2.786H17.75zm4.181-5.528c.058-.981.067-2.134.069-3.5h-4.25v3.5zm.069-5c-.002-1.366-.01-2.519-.069-3.5H17.75v3.5zm-.222-5c-.194-1.223-.559-2.101-1.243-2.785s-1.562-1.05-2.785-1.243V6.25z"/><path fill="currentColor" d="M7.75 21.931C8.906 22 10.3 22 12 22s3.094 0 4.25-.069V12.75h-8.5zm8.5-19.862C15.094 2 13.7 2 12 2s-3.094 0-4.25.069v9.181h8.5z" opacity=".5"/></svg>