<svg viewBox="0 0 24 24"><path fill="currentColor" d="M11.25 2.031A1 1 0 0 0 11 2H7.75v4.25h3.5zm0 5.719H2V14q-.001.677.004 1.25h9.246zm0 9h-3.5V20l.917.001h2.583zm-5-14.727c-1.61.055-2.588.239-3.274.856c-.75.675-.924 1.666-.964 3.371H6.25zm0 14.727v3.227c-1.61-.055-2.588-.239-3.274-.856c-.59-.53-.823-1.256-.915-2.37z"/><path fill="currentColor" d="M12.75 7.006V4h3.5v4.25h-3.5zm0 9V9.75H22V16q.001.677-.004 1.25H12.75zm0 5.963A1 1 0 0 0 13 22h3.25v-3.25h-3.5zm5-13.719V4.023c1.61.055 2.588.239 3.274.856c.75.675.924 1.666.964 3.371zm4.19 10.5h-4.19v3.227c1.61-.055 2.588-.239 3.274-.856c.59-.53.823-1.256.915-2.37" opacity=".5"/></svg>