<svg viewBox="0 0 24 24"><path fill="currentColor" d="m17 9.5l.658-.329c1.946-.973 2.92-1.46 3.63-1.02c.712.44.712 1.528.712 3.703v.292c0 2.176 0 3.263-.711 3.703c-.712.44-1.685-.047-3.63-1.02L17 14.5z"/><path fill="currentColor" fill-rule="evenodd" d="M2.908 5.462C2 6.57 2 8.212 2 11.5v1c0 3.287 0 4.931.908 6.038a4 4 0 0 0 .554.554C4.57 20 6.212 20 9.5 20c3.287 0 4.931 0 6.038-.908q.304-.25.554-.554C17 17.43 17 15.788 17 12.5v-1c0-3.287 0-4.931-.908-6.038a4 4 0 0 0-.554-.554C14.43 4 12.788 4 9.5 4c-3.287 0-4.931 0-6.038.908a4 4 0 0 0-.554.554" clip-rule="evenodd" opacity=".5"/><path fill="currentColor" d="M14 8.5a1.5 1.5 0 1 1-3 0a1.5 1.5 0 0 1 3 0"/></svg>