<svg viewBox="0 0 24 24"><path fill="currentColor" d="m2.976 2.879l.502.557zm0 16.242l.502-.557zM6.25 20a.75.75 0 0 0 1.5 0zm1.5-18a.75.75 0 1 0-1.5 0zM2 6.25a.75.75 0 0 0 0 1.5zm0 9a.75.75 0 0 0 0 1.5zM21.024 4.879l-.502.557zm0 16.242l-.502-.557zM16.25 22a.75.75 0 0 0 1.5 0zm1.5-18a.75.75 0 0 0-1.5 0zM22 9.75a.75.75 0 0 0 0-1.5zm0 9a.75.75 0 0 0 0-1.5zM2.75 14V8h-1.5v6zm0-6q0-.533.002-.995l-1.5-.01Q1.249 7.468 1.25 8zm.002-.995c.007-1.094.038-1.863.157-2.443c.113-.553.293-.877.569-1.126L2.475 2.321c-.578.52-.878 1.169-1.036 1.94c-.152.745-.18 1.653-.187 2.734zM8.667 1.25q-.917-.002-1.677.007l.02 1.5c.495-.007 1.042-.007 1.657-.007zm-1.677.007c-1.035.013-1.904.054-2.625.194c-.737.143-1.366.398-1.89.87l1.003 1.115c.262-.235.61-.403 1.173-.512c.578-.113 1.328-.154 2.359-.168zM8.667 19.25c-.615 0-1.162 0-1.657-.006l-.02 1.5q.76.008 1.677.006zm-1.657-.006c-1.031-.014-1.781-.055-2.359-.168c-.562-.109-.911-.277-1.173-.512l-1.003 1.115c.524.472 1.153.727 1.89.87c.721.14 1.59.18 2.625.194zM1.25 14c0 .76 0 1.435.02 2.025l1.499-.05A62 62 0 0 1 2.75 14zm.02 2.025c.052 1.553.237 2.783 1.205 3.654l1.003-1.115c-.457-.412-.657-1.035-.71-2.59zm4.98 3.969V20h1.5v-.006zM6.25 2v.007h1.5V2zM2.002 6.25H2v1.5h.002zm.017 9H2v1.5h.02zm8.981 4H8.667v1.5H11zM8.667 2.75H11v-1.5H8.667zM22.75 16v-6h-1.5v6zm0-6q0-.532-.002-1.005l-1.5.01q.002.464.002.995zm-.002-1.005c-.007-1.08-.035-1.989-.187-2.733c-.158-.772-.458-1.42-1.036-1.94l-1.003 1.114c.276.249.456.573.57 1.126c.118.58.15 1.349.156 2.443zM15.333 4.75c.614 0 1.162 0 1.657.006l.02-1.5q-.76-.007-1.677-.006zm1.657.006c1.031.014 1.781.055 2.359.168c.562.109.911.277 1.173.512l1.003-1.115c-.524-.472-1.153-.727-1.89-.87c-.721-.14-1.59-.18-2.625-.194zM15.333 22.75q.917.002 1.677-.007l-.02-1.5c-.494.007-1.042.007-1.657.007zm1.677-.007c1.035-.013 1.904-.054 2.625-.194c.737-.143 1.366-.398 1.89-.87l-1.003-1.115c-.262.235-.61.403-1.173.512c-.578.113-1.328.154-2.359.168zM21.25 16c0 .768 0 1.415-.019 1.975l1.5.05c.02-.59.019-1.265.019-2.025zm-.019 1.975c-.052 1.554-.252 2.177-.709 2.589l1.003 1.115c.969-.871 1.153-2.1 1.205-3.654zm-4.981 4.018V22h1.5v-.006zM16.25 4v.007h1.5V4zm5.748 5.75H22v-1.5h-.002zm-.017 9H22v-1.5h-.02zm-8.981 4h2.333v-1.5H13zm2.333-19.5H13v1.5h2.333zM11.25 21c0 .966.784 1.75 1.75 1.75v-1.5a.25.25 0 0 1-.25-.25zm1.5-18A1.75 1.75 0 0 0 11 1.25v1.5a.25.25 0 0 1 .25.25zm.25.25a.25.25 0 0 1-.25-.25h-1.5c0 .966.784 1.75 1.75 1.75zm-2 17.5a.25.25 0 0 1 .25.25h1.5A1.75 1.75 0 0 0 11 19.25z"/><path fill="currentColor" d="M2.002 6.25a.75.75 0 1 0 0 1.5zM7.75 2.007a.75.75 0 1 0-1.5 0zm-1.5 17.987a.75.75 0 0 0 1.5 0zM2.02 15.25a.75.75 0 0 0 0 1.5zM7 7v.75zm4.25 13a.75.75 0 0 0 1.5 0zM21.998 9.75a.75.75 0 0 0 0-1.5zM17.75 4.007a.75.75 0 0 0-1.5 0zm-1.5 17.987a.75.75 0 0 0 1.5 0zm5.73-3.244a.75.75 0 0 0 0-1.5zM17 9v.75zm-5 0v-.75h-.75V9zm0 9h-.75v.75H12zm.75-15a.75.75 0 0 0-1.5 0zm-6.5 13v3.994h1.5V16zm0-13.993V7h1.5V2.007zm5 .993v4h1.5V3zM12 6.25H7v1.5h5zm-5 0H2.002v1.5H7zm4.25.75v9h1.5V7zm0 9v4h1.5v-4zm.75-.75H7v1.5h5zm-5 0H2.02v1.5H7zM16.25 18v3.994h1.5V18zm0-13.993V9h1.5V4.007zM12 9.75h5v-1.5h-5zm5 0h4.998v-1.5H17zM11.25 9v9h1.5V9zm.75 9.75h5v-1.5h-5zm5 0h4.98v-1.5H17z" opacity=".5"/></svg>