<svg viewBox="0 0 24 24"><path fill="currentColor" d="M5.25 2.002c-1.397.01-2.162.081-2.664.584c-.503.502-.574 1.267-.584 2.664H5.25zM2.002 6.75c.01 1.397.081 2.162.584 2.664c.502.503 1.267.574 2.664.584V6.75zM6.75 10h3.5V2h-3.5zm5-7.998V5.25h3.248c-.01-1.397-.081-2.162-.584-2.664c-.502-.503-1.267-.574-2.664-.584m3.248 4.748H11.75v3.248c1.397-.01 2.162-.081 2.664-.584c.503-.502.574-1.267.584-2.664m-2.248 7.26c-1.086.027-1.725.137-2.164.576c-.503.502-.574 1.267-.584 2.664h2.748zm-2.748 4.74c.01 1.397.081 2.162.584 2.664c.439.44 1.078.55 2.164.577V18.75zM14.25 22h2.5v-8h-2.5zm4-7.99v3.24h2.748c-.01-1.397-.081-2.162-.584-2.664c-.439-.44-1.078-.55-2.164-.577m2.748 4.741H18.25v3.24c1.086-.027 1.725-.137 2.164-.576c.503-.502.574-1.267.584-2.664"/><path fill="currentColor" fill-rule="evenodd" d="M19.043 6.767A17 17 0 0 0 18 6.75a.75.75 0 0 1 0-1.5h.025c.445 0 .816 0 1.12.02c.317.022.617.07.907.19a2.75 2.75 0 0 1 1.489 1.488c.084.204.12.464.14.664c.025.229.04.495.05.767c.01.296.015.613.017.914a.75.75 0 0 1 .782 1.237l-1 1a.75.75 0 0 1-1.06 0l-1-1a.75.75 0 0 1 .778-1.238a31 31 0 0 0-.017-.86a10 10 0 0 0-.041-.663c-.015-.142-.03-.215-.035-.24q-.004-.018 0-.007a1.25 1.25 0 0 0-.677-.677c-.077-.032-.194-.061-.435-.078M2.47 12.47a.75.75 0 0 1 1.06 0l1 1a.75.75 0 0 1-.778 1.238c.002.288.007.584.017.86c.009.256.022.484.041.663a2 2 0 0 0 .035.247c.127.307.37.55.677.677c.077.032.194.061.435.078c.247.017.567.017 1.043.017a.75.75 0 0 1 0 1.5h-.025c-.445 0-.816 0-1.12-.02a2.8 2.8 0 0 1-.907-.19a2.75 2.75 0 0 1-1.489-1.488c-.084-.203-.12-.464-.14-.664a12 12 0 0 1-.05-.767c-.01-.296-.015-.613-.017-.914a.75.75 0 0 1-.782-1.237z" clip-rule="evenodd"/></svg>