<svg viewBox="0 0 24 24"><path fill="currentColor" d="M7.75 4v16h8.5V4z" opacity=".5"/><path fill="currentColor" fill-rule="evenodd" d="M10.862 2h2.276a.5.5 0 0 1 .434.748L12.858 4h-1.714l-.716-1.252A.5.5 0 0 1 10.862 2m.28 18l-.715 1.252a.5.5 0 0 0 .435.748h2.276a.5.5 0 0 0 .434-.748L12.858 20zM2.88 4.879c.675-.675 1.666-.832 3.371-.868V8.25H2.01c.037-1.705.194-2.696.869-3.371M2 14.25v-4.5h4.25v4.5zm.01 1.5c.037 1.705.194 2.696.869 3.371s1.666.832 3.371.868V15.75zM17.75 4.011V8.25h4.239c-.036-1.705-.193-2.696-.868-3.371s-1.666-.832-3.371-.868m0 5.739H22v4.5h-4.25zm4.239 6H17.75v4.24c1.705-.037 2.696-.194 3.371-.869s.832-1.666.868-3.371" clip-rule="evenodd"/><path fill="currentColor" d="m12.434 4.74l.423-.74h-1.714l.423.74a.5.5 0 0 0 .868 0M12 6.75a.75.75 0 0 1 .75.75v1a.75.75 0 0 1-1.5 0v-1a.75.75 0 0 1 .75-.75m0 4a.75.75 0 0 1 .75.75v1a.75.75 0 0 1-1.5 0v-1a.75.75 0 0 1 .75-.75m0 4a.75.75 0 0 1 .75.75v1a.75.75 0 0 1-1.5 0v-1a.75.75 0 0 1 .75-.75m.857 5.25l-.423-.74a.5.5 0 0 0-.868 0l-.423.74z"/></svg>