<svg viewBox="0 0 24 24"><path fill="currentColor" fill-rule="evenodd" d="M5.948 1.25h5.104c.899 0 1.648 0 2.242.08c.628.084 1.195.27 1.65.725c.456.456.642 1.023.726 1.65c.08.595.08 1.345.08 2.243v.104c0 .898 0 1.648-.08 2.242c-.084.628-.27 1.195-.726 1.65c-.455.456-1.022.642-1.65.726c-.594.08-1.344.08-2.242.08H5.948c-.898 0-1.648 0-2.242-.08c-.628-.084-1.195-.27-1.65-.725c-.456-.456-.642-1.023-.726-1.65c-.08-.595-.08-1.345-.08-2.243v-.104c0-.898 0-1.648.08-2.242c.084-.628.27-1.195.725-1.65c.456-.456 1.023-.642 1.65-.726c.595-.08 1.345-.08 2.243-.08M3.905 2.817c-.461.062-.659.169-.789.3s-.237.327-.3.788c-.046.346-.06.776-.064 1.345H5.25V2.752c-.57.004-1 .018-1.345.065M6.75 2.75v6.5h3.5v-6.5zm5 .002V5.25h2.498c-.004-.57-.018-1-.064-1.345c-.063-.461-.17-.659-.3-.789s-.328-.237-.79-.3c-.345-.046-.775-.06-1.344-.064m2.498 3.998H11.75v2.498c.57-.004 1-.018 1.345-.065c.461-.062.659-.169.789-.3s.237-.327.3-.788c.046-.346.06-.776.064-1.345M5.25 9.248V6.75H2.752c.004.57.018 1 .065 1.345c.062.461.169.659.3.789s.327.237.788.3c.346.046.776.06 1.345.064m13.793-2.48A17 17 0 0 0 18 6.75a.75.75 0 0 1 0-1.5h.025c.445 0 .816 0 1.12.02c.317.022.617.07.907.19a2.75 2.75 0 0 1 1.489 1.488c.084.204.12.464.14.664c.025.229.04.495.05.767c.01.296.015.613.017.914a.75.75 0 0 1 .782 1.237l-1 1a.75.75 0 0 1-1.06 0l-1-1a.75.75 0 0 1 .778-1.238a31 31 0 0 0-.017-.86a10 10 0 0 0-.041-.663c-.015-.142-.03-.215-.035-.24q-.004-.018 0-.007a1.25 1.25 0 0 0-.677-.677c-.077-.032-.194-.061-.435-.078M2.47 12.47a.75.75 0 0 1 1.06 0l1 1a.75.75 0 0 1-.778 1.238c.002.288.007.584.017.86c.009.256.022.484.041.663a2 2 0 0 0 .035.247c.127.307.37.55.677.677c.077.032.194.061.435.078c.247.017.567.017 1.043.017a.75.75 0 0 1 0 1.5h-.025c-.445 0-.816 0-1.12-.02a2.8 2.8 0 0 1-.907-.19a2.75 2.75 0 0 1-1.489-1.488c-.084-.203-.12-.464-.14-.664a12 12 0 0 1-.05-.767a33 33 0 0 1-.017-.914a.75.75 0 0 1-.782-1.237zm11.478.78h3.104c.899 0 1.648 0 2.242.08c.628.084 1.195.27 1.65.726c.456.455.642 1.022.726 1.65c.08.594.08 1.343.08 2.242v.104c0 .899 0 1.648-.08 2.242c-.084.628-.27 1.195-.726 1.65c-.455.456-1.022.642-1.65.726c-.486.065-1.077.077-1.767.08h-4.054c-.69-.003-1.28-.015-1.767-.08c-.628-.084-1.195-.27-1.65-.726c-.456-.455-.642-1.022-.726-1.65c-.08-.594-.08-1.343-.08-2.242v-.104c0-.899 0-1.648.08-2.242c.084-.628.27-1.195.726-1.65c.455-.456 1.022-.642 1.65-.726c.594-.08 1.344-.08 2.242-.08m.302 8h2.5v-6.5h-2.5zm-1.5-2.5v2.49a8 8 0 0 1-.845-.056c-.461-.063-.659-.17-.789-.3s-.237-.328-.3-.79c-.047-.353-.06-.796-.065-1.386a.8.8 0 0 0 .249.042zm0-1.5v-2.49a8 8 0 0 0-.845.056c-.461.063-.659.17-.789.3s-.237.328-.3.79c-.047.353-.06.796-.065 1.386A.8.8 0 0 1 11 17.25zm5.5-2.49v2.49h1.998c-.004-.57-.018-1-.065-1.345c-.062-.461-.169-.659-.3-.789s-.327-.237-.788-.3a8 8 0 0 0-.845-.057m1.998 3.99H18.25v2.49a8 8 0 0 0 .845-.056c.461-.063.659-.17.789-.3s.237-.328.3-.79c.046-.345.06-.775.064-1.344" clip-rule="evenodd"/></svg>