<svg viewBox="0 0 24 24"><path fill="currentColor" fill-rule="evenodd" d="M12 1.25a.75.75 0 0 1 .75.75v1.667a.75.75 0 0 1-1.5 0V2a.75.75 0 0 1 .75-.75m0 5a.75.75 0 0 1 .75.75v3.333a.75.75 0 0 1-1.5 0V7a.75.75 0 0 1 .75-.75m0 6.667a.75.75 0 0 1 .75.75V17a.75.75 0 0 1-1.5 0v-3.333a.75.75 0 0 1 .75-.75m0 6.666a.75.75 0 0 1 .75.75V22a.75.75 0 0 1-1.5 0v-1.667a.75.75 0 0 1 .75-.75M10.25 2.998a.75.75 0 0 1-.745.755c-.678.005-1.267.018-1.782.046A.8.8 0 0 1 7.75 4v16a.8.8 0 0 1-.027.2c.515.03 1.104.042 1.782.047a.75.75 0 0 1-.01 1.5c-1.394-.01-2.538-.05-3.471-.229c-.954-.182-1.743-.52-2.383-1.16c-.748-.748-1.08-1.697-1.238-2.869c-.153-1.14-.153-2.595-.153-4.433v-2.112c0-1.838 0-3.294.153-4.433c.158-1.172.49-2.121 1.238-2.87c.64-.64 1.429-.977 2.383-1.16c.933-.178 2.077-.217 3.47-.228a.75.75 0 0 1 .756.745m-4 17.036V16.25H3.798q.03.57.092 1.04c.135 1.005.389 1.585.812 2.008c.356.356.82.59 1.549.736M3.757 14.75H6.25v-5.5H3.756q-.007.787-.006 1.75v2q-.002.963.006 1.75m.042-7H6.25V3.966c-.728.146-1.192.38-1.548.736c-.423.423-.677 1.003-.812 2.009q-.062.47-.092 1.039m9.952-4.752a.75.75 0 0 1 .755-.745c1.393.01 2.538.05 3.471.229c.954.182 1.743.52 2.383 1.16c.748.748 1.08 1.697 1.238 2.869c.153 1.14.153 2.595.153 4.433v2.112c0 1.838 0 3.294-.153 4.433c-.158 1.172-.49 2.121-1.238 2.87c-.64.64-1.429.977-2.383 1.16c-.933.178-2.077.217-3.47.228a.75.75 0 0 1-.011-1.5a38 38 0 0 0 1.782-.046a.8.8 0 0 1-.027-.201V4q0-.105.027-.2a38 38 0 0 0-1.783-.047a.75.75 0 0 1-.744-.755m4 .968V7.75h2.452a13 13 0 0 0-.092-1.04c-.135-1.005-.389-1.585-.812-2.008c-.356-.356-.82-.59-1.549-.736m2.494 5.284H17.75v5.5h2.494q.008-.787.006-1.75v-2q.002-.963-.006-1.75m-.042 7H17.75v3.784c.728-.146 1.192-.38 1.548-.736c.423-.423.677-1.003.812-2.009q.063-.47.092-1.039" clip-rule="evenodd"/></svg>