<svg viewBox="0 0 24 24"><path fill="currentColor" d="M9.5 3.003h5a40.56 40.56 0 0 1 1.75.043v17.907a40.56 40.56 0 0 1-1.75.043h-5a39.89 39.89 0 0 1-1.75-.043V3.046a39.835 39.835 0 0 1 1.75-.043" opacity=".5"/><path fill="currentColor" d="M12 1.25a.75.75 0 0 1 .75.75v1.667a.75.75 0 0 1-1.5 0V2a.75.75 0 0 1 .75-.75M11.25 22v-1.667a.75.75 0 0 1 1.5 0V22a.75.75 0 0 1-1.5 0m1.5-15a.75.75 0 0 0-1.5 0v3.333a.75.75 0 0 0 1.5 0zm0 6.667a.75.75 0 0 0-1.5 0V17a.75.75 0 0 0 1.5 0zM6.25 3.202c-.9.161-1.56.45-2.078.97c-.772.77-1.035 1.852-1.125 3.578H6.25zM3.006 9.25C3 9.783 3 10.365 3 11v2c0 .635 0 1.216.006 1.75H6.25v-5.5zm1.166 10.578c-.772-.771-1.035-1.853-1.125-3.578H6.25v4.547c-.9-.161-1.56-.45-2.078-.969M17.75 7.75V3.202c.9.161 1.56.45 2.078.97c.772.77 1.035 1.852 1.125 3.578zm3.244 1.5H17.75v5.5h3.244C21 14.216 21 13.635 21 13v-2c0-.635 0-1.217-.006-1.75m-3.244 7h3.203c-.09 1.725-.353 2.807-1.125 3.578c-.518.519-1.177.808-2.078.969z"/></svg>