<svg viewBox="0 0 24 24"><path fill="currentColor" fill-rule="evenodd" d="M19 12.057A6.865 6.865 0 0 1 12.057 19C8.19 18.969 5.03 15.81 5 11.944A6.865 6.865 0 0 1 11.944 5c3.865.031 7.025 3.19 7.056 7.057m-4.5-1.807a2.75 2.75 0 1 0 0 5.5a2.75 2.75 0 0 0 0-5.5M8.25 9a1.75 1.75 0 1 1 3.5 0a1.75 1.75 0 0 1-3.5 0M9 14a1 1 0 1 0 0-2a1 1 0 0 0 0 2" clip-rule="evenodd"/><path fill="currentColor" d="M13.25 13a1.25 1.25 0 1 1 2.5 0a1.25 1.25 0 0 1-2.5 0" opacity=".5"/><circle cx="19.5" cy="4.5" r="1.5" fill="currentColor"/><path fill="currentColor" d="m18.05 4.889l-1.63 1.63a1 1 0 0 0-.064.073c.386.313.74.666 1.053 1.052a1 1 0 0 0 .071-.064l1.631-1.63a1.5 1.5 0 0 1-1.06-1.061" opacity=".5"/><circle cx="1.5" cy="1.5" r="1.5" fill="currentColor" transform="matrix(1 0 0 -1 17.05 21.05)"/><path fill="currentColor" d="m9.63 18.55l.248.7a2.25 2.25 0 0 0 4.244 0l.217-.613a7.04 7.04 0 0 1-4.708-.087m-4.518-7.92a1.5 1.5 0 1 0 .04 2.72a7.1 7.1 0 0 1-.04-2.72m13.75 2.864a7.1 7.1 0 0 0-.047-2.983q.09-.01.184-.011a1.5 1.5 0 1 1-.137 2.994M13.35 5.153a1.5 1.5 0 1 0-2.72-.04a7.1 7.1 0 0 1 2.72.04" opacity=".5"/><path fill="currentColor" d="m17.1 19.161l-1.25-1.251a7 7 0 0 0 1.17-.95l1.142 1.142a1.5 1.5 0 0 0-1.06 1.06"/><circle cx="2" cy="2" r="2" fill="currentColor" transform="matrix(-1 0 0 1 6 2)"/><path fill="currentColor" d="M4.781 5.842a2 2 0 0 0 1.06-1.06l1.69 1.688l.037.04q-.586.472-1.057 1.058l-.041-.037z" opacity=".5"/><circle cx="5" cy="20" r="2" fill="currentColor" transform="rotate(180 5 20)"/><path fill="currentColor" d="m5.815 18.174l1.27-1.27c.355.356.748.675 1.17.95l-1.399 1.4a2 2 0 0 0-1.04-1.08" opacity=".5"/></svg>