<svg viewBox="0 0 24 24"><path fill="currentColor" d="M12.017 12.993c1.923.046 3.769.6 5.363 1.57c-2.889 3.035-6.988 5.14-11.165 5.595a10 10 0 0 1-2.29-2.259c3.077-.48 5.887-2.1 7.831-4.573zm8.423 4.372A9.99 9.99 0 0 1 12 22a10 10 0 0 1-3.635-.681c3.903-.871 7.577-3.006 10.25-5.88a10.7 10.7 0 0 1 1.825 1.926m1.184-6.007l.002.002l.37.373Q22 11.866 22 12a10 10 0 0 1-.794 3.91a12.27 12.27 0 0 0-9.125-4.415a9.43 9.43 0 0 1-1.253-4.684a15.8 15.8 0 0 1 10.796 4.547M10.946 5.313a9.4 9.4 0 0 1 .621-2.172L12.047 2c4.584.021 8.44 3.127 9.598 7.348a17.3 17.3 0 0 0-10.7-4.035m-.368 7.086A10.8 10.8 0 0 1 7.2 15.238a16.42 16.42 0 0 1-.32-11.83a9.9 9.9 0 0 1 3.484-1.275l-.18.426a10.92 10.92 0 0 0 .563 9.623zM4.859 5A9.97 9.97 0 0 0 2 12c0 1.617.384 3.145 1.066 4.497c.954-.093 1.883-.31 2.767-.64a17.9 17.9 0 0 1-.969-10.863z"/></svg>