<svg viewBox="0 0 24 24"><path fill="currentColor" d="m11.756 13.326l.261-.333a10.77 10.77 0 0 1 8.423 4.372A9.99 9.99 0 0 1 12 22a10 10 0 0 1-3.635-.681c2.548-.569 4.996-1.675 7.128-3.17a.75.75 0 1 0-.86-1.228c-2.497 1.75-5.44 2.913-8.418 3.237a10 10 0 0 1-2.29-2.259c3.077-.48 5.887-2.1 7.831-4.573m-1.009-1.144l-.17.217a10.9 10.9 0 0 1-7.511 4.098A9.96 9.96 0 0 1 2 12a9.97 9.97 0 0 1 2.864-7.006V5a17.85 17.85 0 0 0-.09 7.386a.75.75 0 1 0 1.47-.292A16.4 16.4 0 0 1 6.88 3.41a9.9 9.9 0 0 1 3.485-1.276l-.18.426a10.92 10.92 0 0 0 .563 9.623"/><path fill="currentColor" d="M12.081 11.495a9.42 9.42 0 0 1-.514-8.354L12.047 2c4.585.021 8.44 3.127 9.598 7.35a17.3 17.3 0 0 0-7.564-3.673a.75.75 0 1 0-.308 1.468a15.76 15.76 0 0 1 7.851 4.213l.002.002l.37.373Q22 11.866 22 12a10 10 0 0 1-.794 3.91a12.27 12.27 0 0 0-9.125-4.415"/></svg>