<svg viewBox="0 0 24 24"><path fill="currentColor" d="m11.57 12.553l.592.46zm-.256-8.907l.693.288zm7.241 10.859a.75.75 0 0 0-1.11-1.01zm-.846-.185l-.555-.504zm3.534-3.577l.534-.526l-.004-.005zm.21 1.283a.75.75 0 1 0 1.07-1.052zm-15.72 7.017a.75.75 0 0 0 0 1.5zM3.5 15.75a.75.75 0 0 0 0 1.5zM8.192 3.356a.75.75 0 0 0-1.384-.577zM6.808 15.289a.75.75 0 0 0 1.384-.578zM11 5.75a.75.75 0 0 0 0 1.5zm8.876 11.166a.75.75 0 1 0 1.248-.832zM12 21.25A9.25 9.25 0 0 1 2.75 12h-1.5c0 5.937 4.813 10.75 10.75 10.75zM21.25 12A9.25 9.25 0 0 1 12 21.25v1.5c5.937 0 10.75-4.813 10.75-10.75zM12 2.75A9.25 9.25 0 0 1 21.25 12h1.5c0-5.937-4.813-10.75-10.75-10.75zm0-1.5C6.063 1.25 1.25 6.063 1.25 12h1.5A9.25 9.25 0 0 1 12 2.75zm0 11.5h.092v-1.5H12zm-.592-1.21l-.43.553l1.184.92l.43-.553zm-.1-9.828l-.686 1.645l1.385.577l.685-1.646zm6.137 11.784l-.291.32l1.11 1.009l.291-.32zm3.263-2.227l.745.757l1.07-1.052l-.746-.757zm-3.554 2.547c-2.87 3.157-7.193 5.227-11.421 5.227v1.5c4.688 0 9.403-2.277 12.53-5.718zM10.622 3.357a9.88 9.88 0 0 0 .742 9.04l1.272-.795a8.38 8.38 0 0 1-.63-7.668zm.356 8.736A9.47 9.47 0 0 1 3.5 15.75v1.5c3.386 0 6.583-1.563 8.662-4.236zm-4.17-9.314a16.18 16.18 0 0 0 0 12.51l1.384-.578a14.68 14.68 0 0 1 0-11.355zM11 7.25c3.643 0 7.136 1.447 9.712 4.023l1.061-1.06A15.24 15.24 0 0 0 11 5.75zm1.092 5.5a9.36 9.36 0 0 1 7.784 4.166l1.248-.832a10.86 10.86 0 0 0-9.032-4.834z"/></svg>