<svg viewBox="0 0 24 24"><path fill="currentColor" d="m11.57 12.553l.592.46zm-.256-8.907l.693.288zM3.5 15.75a.75.75 0 0 0 0 1.5zm16.376 1.166a.75.75 0 1 0 1.248-.832zM12 21.25A9.25 9.25 0 0 1 2.75 12h-1.5c0 5.937 4.813 10.75 10.75 10.75zM21.25 12A9.25 9.25 0 0 1 12 21.25v1.5c5.937 0 10.75-4.813 10.75-10.75zM12 2.75A9.25 9.25 0 0 1 21.25 12h1.5c0-5.937-4.813-10.75-10.75-10.75zm0-1.5C6.063 1.25 1.25 6.063 1.25 12h1.5A9.25 9.25 0 0 1 12 2.75zm0 11.5h.092v-1.5H12zm-.592-1.21l-.43.553l1.184.92l.43-.553zm-.1-9.828l-.686 1.645l1.385.577l.685-1.646zm-.686 1.645a9.88 9.88 0 0 0 .742 9.04l1.272-.795a8.38 8.38 0 0 1-.63-7.668zm.356 8.736A9.47 9.47 0 0 1 3.5 15.75v1.5c3.386 0 6.583-1.563 8.662-4.236zm1.114.657a9.36 9.36 0 0 1 7.784 4.166l1.248-.832a10.86 10.86 0 0 0-9.032-4.834z"/><path fill="currentColor" d="m21.243 10.743l.534-.526l-.004-.005zm.21 1.283a.75.75 0 0 0 1.07-1.052zm-15.72 7.017a.75.75 0 0 0 0 1.5zm2.46-15.687a.75.75 0 0 0-1.385-.577zm-2.34 8.789a.75.75 0 1 0 1.472-.29zm9.58 5.178a.75.75 0 0 0-.867-1.225zM14.155 6.08a.75.75 0 0 0-.31 1.468zm6.553 5.189l.745.757l1.07-1.052l-.746-.757zm-13.9-8.49a16.2 16.2 0 0 0-.955 9.366l1.472-.29a14.7 14.7 0 0 1 .867-8.5zm7.759 13.32c-2.598 1.839-5.745 2.944-8.834 2.944v1.5c3.436 0 6.881-1.224 9.7-3.22zm-.722-8.551a13.74 13.74 0 0 1 6.867 3.725l1.06-1.06a15.24 15.24 0 0 0-7.617-4.133z" opacity=".5"/></svg>