<svg viewBox="0 0 24 24"><path fill="currentColor" fill-rule="evenodd" d="M1.25 12C1.25 6.063 6.063 1.25 12 1.25S22.75 6.063 22.75 12S17.937 22.75 12 22.75c-2.55 0-4.894-.888-6.737-2.372l-.002-.002A10.73 10.73 0 0 1 1.25 12m6.792 8.363c1.2.569 2.542.887 3.958.887a9.24 9.24 0 0 0 7.856-4.364a9.4 9.4 0 0 0-1.72-1.922c-2.606 2.802-6.27 4.808-10.094 5.399m8.863-6.28C14.1 17.024 10.022 18.958 6 19.04a9.3 9.3 0 0 1-1.64-1.824c3.062-.24 5.9-1.757 7.802-4.202l.202-.26a9.35 9.35 0 0 1 4.54 1.33m-4.475-2.828c3.211.1 6.204 1.617 8.183 4.125a9.2 9.2 0 0 0 .635-3.562l-.536-.545l-.002-.002a13.74 13.74 0 0 0-9.348-4.016a8.4 8.4 0 0 0 1.068 4m-.95-5.497a15.24 15.24 0 0 1 9.395 3.625a9.26 9.26 0 0 0-8.38-6.62l-.488 1.171a8.4 8.4 0 0 0-.528 1.824m-.635-2.937a9.2 9.2 0 0 0-2.758.795a14.68 14.68 0 0 0 .037 10.929a9.5 9.5 0 0 0 2.854-2.452l.117-.152a9.88 9.88 0 0 1-.473-8.584zM6.76 15.171a16.17 16.17 0 0 1-.666-10.29A9.23 9.23 0 0 0 2.75 12c0 1.335.283 2.604.792 3.75a9.5 9.5 0 0 0 3.218-.578" clip-rule="evenodd"/></svg>