<svg viewBox="0 0 24 24"><g fill="none"><path fill="currentColor" d="m11.57 12.553l.592.46zm-.256-8.907l.693.288zm9.929 7.097l.534-.526l-.004-.005zm.21 1.283a.75.75 0 1 0 1.07-1.052zm-15.72 7.017a.75.75 0 0 0 0 1.5zM3.5 15.75a.75.75 0 0 0 0 1.5zM8.192 3.356a.75.75 0 0 0-1.384-.577zm11.684 13.56a.75.75 0 1 0 1.248-.832zM5.853 12.145a.75.75 0 1 0 1.472-.29zm9.58 5.178a.75.75 0 1 0-.866-1.225zM14.155 6.08a.75.75 0 1 0-.31 1.468zM12 12.75h.092v-1.5H12zm-.592-1.21l-.43.553l1.184.92l.43-.553zm-.1-9.828l-.686 1.645l1.385.577l.685-1.646zm9.4 9.557l.745.757l1.07-1.052l-.746-.757zM10.622 3.357a9.88 9.88 0 0 0 .742 9.04l1.272-.795a8.38 8.38 0 0 1-.63-7.668zm.356 8.736A9.47 9.47 0 0 1 3.5 15.75v1.5c3.386 0 6.583-1.563 8.662-4.236zm1.114.657a9.36 9.36 0 0 1 7.784 4.166l1.248-.832a10.86 10.86 0 0 0-9.032-4.834zM6.808 2.779a16.2 16.2 0 0 0-.955 9.366l1.472-.29a14.7 14.7 0 0 1 .867-8.5zm7.759 13.32c-2.598 1.839-5.745 2.944-8.834 2.944v1.5c3.436 0 6.881-1.224 9.7-3.22zm-.722-8.551a13.74 13.74 0 0 1 6.867 3.725l1.061-1.06a15.24 15.24 0 0 0-7.618-4.133z"/><path stroke="currentColor" stroke-linecap="round" stroke-width="1.5" d="M3.339 6.998A9.95 9.95 0 0 1 7 3.34C11.783.578 17.899 2.217 20.66 7S21.783 17.9 17 20.661S6.101 21.783 3.34 17a9.95 9.95 0 0 1-1.342-5"/></g></svg>