<svg viewBox="0 0 24 24"><path fill="currentColor" d="M5.003 11.716c.038-1.843.057-2.764.678-3.552c.113-.144.28-.315.42-.431c.763-.636 1.771-.636 3.788-.636c.72 0 1.081 0 1.425-.092q.107-.03.211-.067c.336-.121.637-.33 1.238-.746c2.374-1.645 3.56-2.467 4.557-2.11c.191.069.376.168.541.29c.861.635.927 2.115 1.058 5.073C18.967 10.541 19 11.48 19 12s-.033 1.46-.081 2.555c-.131 2.958-.197 4.438-1.058 5.073a2.2 2.2 0 0 1-.54.29c-.997.357-2.184-.465-4.558-2.11c-.601-.416-.902-.625-1.238-.746a3 3 0 0 0-.211-.067c-.344-.092-.704-.092-1.425-.092c-2.017 0-3.025 0-3.789-.636a3 3 0 0 1-.419-.43c-.621-.79-.64-1.71-.678-3.552a14 14 0 0 1 0-.57"/></svg>