<svg viewBox="0 0 24 24"><path fill="currentColor" fill-rule="evenodd" d="M12.14 4.91c-.714.347-1.62.942-2.909 1.792l-.219.144l-.05.033c-.38.25-.643.424-.931.552a3.8 3.8 0 0 1-.89.267c-.31.052-.626.052-1.082.052H6c-1.444 0-1.93.016-2.345.208a2.47 2.47 0 0 0-1.036.975c-.218.405-.259.82-.336 2.084c-.02.347-.033.68-.033.983s.012.636.033.983c.077 1.264.118 1.68.336 2.084c.209.389.635.79 1.036.975c.414.192.901.208 2.345.208h.06c.455 0 .77 0 1.081.052q.462.079.89.267c.288.128.552.301.932.552l.05.033l.218.144c1.29.85 2.195 1.445 2.91 1.792c.711.346 1.068.36 1.317.275c.137-.047.272-.115.39-.199c.217-.152.415-.447.553-1.218c.14-.775.191-1.847.263-3.377c.052-1.12.086-2.06.086-2.571s-.034-1.451-.086-2.57c-.072-1.531-.123-2.603-.262-3.378c-.14-.771-.337-1.066-.553-1.218a1.6 1.6 0 0 0-.391-.2c-.25-.084-.606-.07-1.318.276m-.655-1.35c.826-.4 1.64-.624 2.457-.345c.272.093.534.226.769.391c.706.497 1.005 1.28 1.167 2.18c.159.884.213 2.056.281 3.516l.003.058c.052 1.115.088 2.088.088 2.64s-.036 1.525-.088 2.64l-.003.058c-.068 1.46-.122 2.632-.281 3.516c-.162.9-.461 1.683-1.167 2.18a3 3 0 0 1-.769.39c-.818.28-1.631.057-2.457-.344c-.814-.396-1.8-1.047-3.032-1.858l-.267-.176c-.447-.295-.602-.394-.76-.464q-.257-.114-.535-.16c-.171-.03-.354-.032-.89-.032h-.162c-1.217 0-2.062.001-2.814-.347a3.96 3.96 0 0 1-1.727-1.624c-.392-.729-.438-1.49-.504-2.575l-.008-.13A18 18 0 0 1 .75 12c0-.341.014-.706.036-1.074l.008-.13C.86 9.712.906 8.95 1.298 8.22a3.96 3.96 0 0 1 1.727-1.624c.752-.348 1.597-.348 2.814-.347H6c.537 0 .72-.002.891-.031a2.3 2.3 0 0 0 .534-.16c.16-.07.314-.17.761-.465l.267-.176c1.231-.811 2.218-1.462 3.032-1.857m8.035 1.864a.75.75 0 0 1 1.056.096L20 6l.576-.48l.001.001l.002.002l.003.004l.007.009a2 2 0 0 1 .086.114a5 5 0 0 1 .203.311c.161.27.368.665.572 1.195c.408 1.061.8 2.653.8 4.844s-.392 3.783-.8 4.845a7.7 7.7 0 0 1-.572 1.194a5 5 0 0 1-.268.399l-.013.017l-.008.01l-.007.009l-.003.003l-.002.002L20 18l.576.48a.75.75 0 0 1-1.156-.955m0 0l.003-.005l.031-.041a3 3 0 0 0 .137-.212c.12-.198.288-.516.459-.961c.342-.889.7-2.297.7-4.306s-.358-3.417-.7-4.306a6 6 0 0 0-.459-.961a3 3 0 0 0-.171-.257l.003.004l-.001-.002l-.002-.002a.75.75 0 0 1 .1-1.052m-1.884 2.92a.75.75 0 0 1 1.02.292l-.628.349l.628-.349v.001l.001.002l.002.003l.004.007l.01.018l.026.054q.03.064.075.174c.06.147.132.356.203.631c.14.551.273 1.364.273 2.474s-.132 1.923-.273 2.474a5 5 0 0 1-.203.631a3 3 0 0 1-.102.228l-.01.019l-.003.007l-.002.003v.001s-.001.002-.63-.347l.629.348a.75.75 0 0 1-1.317-.719l.005-.01l.038-.087c.035-.087.087-.234.141-.447c.11-.424.227-1.11.227-2.1s-.118-1.678-.227-2.102a4 4 0 0 0-.179-.534l-.005-.01a.75.75 0 0 1 .297-1.01" clip-rule="evenodd"/></svg>