<svg viewBox="0 0 24 24"><path fill="currentColor" d="M2.003 11.716c.037-1.843.056-2.764.668-3.552a3 3 0 0 1 .413-.431c.752-.636 1.746-.636 3.733-.636c.71 0 1.065 0 1.403-.092q.105-.03.209-.067c.33-.121.627-.33 1.22-.746c2.338-1.645 3.508-2.467 4.489-2.11c.188.069.37.168.533.29c.848.635.913 2.115 1.042 5.073c.048 1.096.08 2.034.08 2.555s-.032 1.46-.08 2.555c-.13 2.958-.194 4.438-1.042 5.073a2.1 2.1 0 0 1-.533.29c-.982.357-2.15-.465-4.49-2.11c-.592-.416-.889-.625-1.22-.746a3 3 0 0 0-.208-.067c-.338-.092-.693-.092-1.403-.092c-1.987 0-2.98 0-3.733-.636a3 3 0 0 1-.413-.43c-.612-.79-.63-1.71-.668-3.552a14 14 0 0 1 0-.57"/><path fill="currentColor" fill-rule="evenodd" d="M19.49 5.552a.66.66 0 0 1 .97.094l-.53.471l.53-.47h.002v.002l.004.004l.007.009l.078.112a5 5 0 0 1 .187.305c.149.265.339.652.526 1.171C21.64 8.291 22 9.851 22 12s-.36 3.71-.736 4.75c-.187.52-.377.907-.526 1.172a5 5 0 0 1-.265.417l-.007.009l-.003.003l-.001.002s-.001.001-.531-.47l.53.471a.66.66 0 0 1-.972.094a.77.77 0 0 1-.091-1.03l.003-.005l.028-.04a3 3 0 0 0 .126-.208c.11-.195.264-.506.422-.943c.314-.871.643-2.252.643-4.222c0-1.969-.329-3.35-.643-4.222a6 6 0 0 0-.422-.942a3 3 0 0 0-.126-.207l-.028-.041l-.003-.004" clip-rule="evenodd" opacity=".4"/><path fill="currentColor" fill-rule="evenodd" d="M17.757 8.416c.333-.197.753-.07.938.286l-.603.357l.603-.357l.001.002l.002.003l.003.007l.01.018l.024.053q.028.063.07.17c.053.145.12.35.185.62c.13.54.252 1.337.252 2.425c0 1.089-.122 1.886-.252 2.426c-.065.27-.132.475-.186.619a3 3 0 0 1-.094.223l-.009.018l-.003.007l-.002.003v.002s-.001.001-.604-.356l.603.357c-.185.355-.605.483-.938.286c-.33-.196-.45-.638-.272-.991l.004-.01l.035-.085c.032-.086.08-.23.13-.438c.1-.416.208-1.09.208-2.06c0-.971-.108-1.645-.208-2.061a4 4 0 0 0-.165-.523l-.004-.01c-.179-.354-.058-.796.272-.991" clip-rule="evenodd" opacity=".7"/></svg>