<svg viewBox="0 0 24 24"><path fill="currentColor" fill-rule="evenodd" d="M15.75 5.75v2.575a3.751 3.751 0 0 1 0 7.35v2.574c1.037-.002 1.824-.015 2.46-.08c.77-.078 1.235-.226 1.596-.467c.354-.237.66-.542.896-.896c.241-.361.39-.827.468-1.596c.08-.781.08-1.79.08-3.21s0-2.429-.08-3.21c-.079-.77-.227-1.235-.468-1.596a3.3 3.3 0 0 0-.896-.896c-.361-.241-.827-.39-1.596-.468c-.636-.064-1.423-.077-2.46-.08m-1.5 12.5V5.75h-4.5v12.5zm-6 0v-2.575a3.751 3.751 0 0 1 0-7.35V5.751c-1.037.002-1.824.015-2.46.08c-.77.078-1.235.226-1.596.467a3.3 3.3 0 0 0-.896.896c-.241.361-.39.827-.468 1.596c-.08.781-.08 1.79-.08 3.21s0 2.429.08 3.21c.079.77.227 1.235.468 1.596c.237.354.542.66.896.896c.361.241.827.39 1.596.468c.636.064 1.423.077 2.46.08m0-8.372a2.25 2.25 0 0 0 0 4.244zm7.5 4.244a2.251 2.251 0 0 0 0-4.244zm2.612-9.784c.888.09 1.629.28 2.277.713c.519.346.964.791 1.31 1.31c.434.648.623 1.39.713 2.277c.088.866.088 1.951.088 3.32v.084c0 1.369 0 2.454-.088 3.32c-.09.888-.28 1.629-.712 2.277a4.8 4.8 0 0 1-1.311 1.31c-.648.434-1.39.623-2.277.713c-.866.088-1.951.088-3.32.088H8.958c-1.369 0-2.454 0-3.32-.088c-.888-.09-1.629-.28-2.277-.712a4.8 4.8 0 0 1-1.31-1.311c-.434-.648-.623-1.39-.713-2.277c-.088-.866-.088-1.951-.088-3.32v-.084c0-1.369 0-2.454.088-3.32c.09-.888.28-1.629.713-2.277a4.8 4.8 0 0 1 1.31-1.31c.648-.434 1.39-.623 2.277-.713c.866-.088 1.951-.088 3.32-.088h6.084c1.369 0 2.454 0 3.32.088" clip-rule="evenodd"/></svg>