<svg viewBox="0 0 24 24"><g fill="none"><circle cx="12.5" cy="4.5" r="2.5" stroke="currentColor" stroke-width="1.5"/><path stroke="currentColor" stroke-linecap="round" stroke-width="1.5" d="m7 22l.51-.407A7 7 0 0 0 10 17.5"/><path fill="currentColor" d="m11.158 13.418l.747.074zm.813 2.841l-.594.458zm3.836 6.2a.75.75 0 1 0 1.187-.917zM10.97 10.015l-.04-.749zm2.117.116l-.107.742zm4.11 3.169l-.123-.74zm1.926.439a.75.75 0 1 0-.246-1.48zm-3.507-1.391l.712-.237zM6.25 14.5a.75.75 0 0 0 1.5 0zm6.235 3.652a.75.75 0 1 0 1.187-.916zm3.402 1.955a.75.75 0 1 0-1.188.916zM10.754 9.925l-.342 3.418l1.492.15l.342-3.418zm.746-.675c-.178 0-.371.006-.57.017l.08 1.498q.273-.015.49-.015zm0 1.5c.454 0 .976.051 1.48.124l.214-1.485c-.54-.077-1.14-.139-1.694-.139zm5.82 3.29l1.803-.3l-.246-1.48l-1.803.3zm-4.34-3.166c.882.127 1.617.79 1.925 1.712l1.423-.474c-.46-1.382-1.613-2.504-3.134-2.723zm-2.05-1.607c-2.766.15-4.68 2.592-4.68 5.233h1.5c0-1.976 1.416-3.635 3.26-3.735zm3.975 3.319a2.17 2.17 0 0 0 2.415 1.454l-.246-1.48a.67.67 0 0 1-.746-.448zm-4.493.757c-.072.723-.14 1.283.013 1.822l1.442-.413c-.056-.198-.047-.42.037-1.26zm2.153 2.458c-.515-.668-.64-.851-.698-1.05l-1.442.414c.154.538.508.977.952 1.552zm-1.187.916l1.107 1.435l1.187-.916l-1.107-1.435zm3.321 4.306l1.108 1.435l1.187-.916l-1.107-1.435z"/></g></svg>