<svg viewBox="0 0 24 24"><path fill="currentColor" fill-rule="evenodd" d="M11.164 1.25h1.672c.731 0 1.346 0 1.845.06c.529.065 1.012.205 1.435.545s.666.78.843 1.283c.166.47.3 1.067.457 1.775q.113.064.223.138c.519.346.964.791 1.31 1.31c.434.648.623 1.39.713 2.277c.088.866.088 1.951.088 3.32v.084c0 1.369 0 2.454-.088 3.32c-.09.888-.28 1.629-.712 2.277a4.75 4.75 0 0 1-1.534 1.448c-.158.708-.29 1.304-.457 1.775c-.177.502-.419.943-.843 1.283c-.423.34-.906.48-1.435.545c-.499.06-1.114.06-1.845.06h-1.672c-.731 0-1.346 0-1.845-.06c-.529-.065-1.012-.205-1.435-.545s-.666-.78-.843-1.283c-.166-.47-.3-1.067-.457-1.775A4.75 4.75 0 0 1 5.05 17.64c-.433-.648-.622-1.39-.712-2.277c-.088-.866-.088-1.951-.088-3.32v-.084c0-1.369 0-2.454.088-3.32c.09-.888.28-1.629.713-2.277a4.75 4.75 0 0 1 1.533-1.448c.158-.708.29-1.304.457-1.775c.177-.502.419-.943.843-1.283c.423-.34.906-.48 1.435-.545c.499-.06 1.114-.06 1.845-.06m-2.92 3.137q.193-.029.394-.049c.866-.088 1.951-.088 3.32-.088h.084c1.369 0 2.454 0 3.32.088q.202.02.395.049a8 8 0 0 0-.212-.75c-.127-.358-.243-.512-.367-.612c-.125-.1-.3-.18-.678-.225c-.398-.049-.921-.05-1.709-.05H11.21c-.788 0-1.312.001-1.709.05c-.377.045-.553.125-.678.225c-.124.1-.24.254-.367.613a8 8 0 0 0-.212.749m0 15.226c.072.302.14.545.211.75c.127.358.243.512.367.612c.125.1.3.18.678.226c.398.048.921.049 1.709.049h1.582c.788 0 1.312-.001 1.71-.05c.376-.045.552-.125.677-.225c.124-.1.24-.254.367-.613a8 8 0 0 0 .212-.749q-.193.029-.395.049c-.866.088-1.951.088-3.32.088h-.084c-1.369 0-2.454 0-3.32-.088a9 9 0 0 1-.395-.049M8.79 5.83c-.77.079-1.235.227-1.596.468a3.3 3.3 0 0 0-.896.896c-.241.361-.39.827-.468 1.596c-.08.781-.08 1.79-.08 3.21s0 2.429.08 3.21c.079.77.227 1.235.468 1.596c.237.354.542.66.896.896c.361.241.827.39 1.596.468c.781.08 1.79.08 3.21.08s2.429 0 3.21-.08c.77-.079 1.235-.227 1.596-.468c.354-.237.66-.542.896-.896c.241-.361.39-.827.468-1.596c.08-.781.08-1.79.08-3.21s0-2.429-.08-3.21c-.079-.77-.227-1.235-.468-1.596a3.3 3.3 0 0 0-.896-.896c-.361-.241-.827-.39-1.596-.468c-.781-.08-1.79-.08-3.21-.08s-2.429 0-3.21.08M12 8.25a.75.75 0 0 1 .75.75v2.758l1.77 1.701a.75.75 0 1 1-1.04 1.082l-1.616-1.555c-.303-.29-.454-.436-.534-.624c-.08-.187-.08-.397-.08-.817V9a.75.75 0 0 1 .75-.75" clip-rule="evenodd"/></svg>