<svg viewBox="0 0 24 24"><path fill="currentColor" fill-rule="evenodd" d="M12.717 3.75a.974.974 0 0 0-1.434 0c-.572.604-1.224 1.358-1.728 2.121c-.522.792-.805 1.475-.805 1.962c0 1.916 1.484 3.417 3.25 3.417s3.25-1.5 3.25-3.417c0-.487-.283-1.17-.805-1.962c-.504-.763-1.156-1.517-1.728-2.12M10.194 2.72a2.474 2.474 0 0 1 3.612 0c.6.634 1.318 1.46 1.89 2.326c.554.838 1.054 1.836 1.054 2.788c0 2.686-2.098 4.917-4.75 4.917s-4.75-2.23-4.75-4.917c0-.952.5-1.95 1.054-2.788c.572-.867 1.29-1.692 1.89-2.326M6.717 13.75a.974.974 0 0 0-1.434 0c-.572.603-1.224 1.357-1.728 2.12c-.522.792-.805 1.475-.805 1.962c0 1.916 1.484 3.417 3.25 3.417s3.25-1.5 3.25-3.417c0-.487-.283-1.17-.805-1.962c-.504-.763-1.156-1.517-1.728-2.12m-2.523-1.032a2.474 2.474 0 0 1 3.612 0c.6.634 1.318 1.46 1.89 2.326c.554.838 1.054 1.836 1.054 2.788c0 2.686-2.098 4.917-4.75 4.917s-4.75-2.23-4.75-4.917c0-.952.5-1.95 1.054-2.788c.572-.867 1.29-1.692 1.89-2.326m14.523 1.032a.974.974 0 0 0-1.434 0c-.572.603-1.224 1.357-1.728 2.12c-.522.792-.805 1.475-.805 1.962c0 1.916 1.484 3.417 3.25 3.417s3.25-1.5 3.25-3.417c0-.487-.283-1.17-.805-1.962c-.504-.763-1.156-1.517-1.728-2.12m-2.523-1.032a2.474 2.474 0 0 1 3.612 0c.6.634 1.318 1.46 1.89 2.326c.554.838 1.054 1.836 1.054 2.788c0 2.686-2.098 4.917-4.75 4.917s-4.75-2.23-4.75-4.917c0-.952.5-1.95 1.054-2.788c.572-.867 1.29-1.692 1.89-2.326" clip-rule="evenodd"/></svg>