<svg viewBox="0 0 24 24"><path fill="currentColor" fill-rule="evenodd" d="M5.002 5.237C4.24 6.929 3.75 9.32 3.75 12s.49 5.071 1.252 6.763c.793 1.763 1.734 2.487 2.498 2.487s1.705-.724 2.498-2.487C10.76 17.071 11.25 14.68 11.25 12s-.49-5.071-1.252-6.763C9.205 3.474 8.264 2.75 7.5 2.75s-1.705.724-2.498 2.487m5.237-2.487c.44.536.816 1.18 1.127 1.871c.867 1.927 1.384 4.537 1.384 7.379s-.517 5.452-1.384 7.379c-.311.691-.688 1.335-1.127 1.871H16.5c.764 0 1.705-.724 2.498-2.487c.762-1.692 1.252-4.083 1.252-6.763s-.49-5.071-1.252-6.763C18.205 3.474 17.264 2.75 16.5 2.75zM7.5 1.25h9c1.722 0 3.03 1.515 3.866 3.371c.867 1.927 1.384 4.537 1.384 7.379s-.517 5.452-1.384 7.379c-.835 1.856-2.144 3.371-3.866 3.371h-9c-1.722 0-3.03-1.515-3.866-3.371C2.767 17.452 2.25 14.842 2.25 12s.517-5.452 1.384-7.379C4.47 2.765 5.778 1.25 7.5 1.25m-.333 6.69C6.914 8.95 6.75 10.385 6.75 12s.164 3.05.417 4.06c.107.43.223.753.333.973c.11-.22.226-.543.333-.972c.213-.851.363-2.004.405-3.311H8a.75.75 0 0 1 0-1.5h.238c-.042-1.307-.192-2.46-.405-3.31a5 5 0 0 0-.333-.973c-.11.22-.226.543-.333.972M7.674 6.7l-.01.008zm-.339.008L7.326 6.7zm-.009 10.59l.01-.008zm.339-.008l.009.008zM6.27 6.09c.203-.343.594-.84 1.23-.84s1.027.497 1.23.84c.232.393.415.91.558 1.485c.29 1.161.462 2.725.462 4.425s-.172 3.264-.462 4.424c-.143.575-.326 1.093-.558 1.486c-.203.343-.594.84-1.23.84s-1.027-.497-1.23-.84c-.232-.393-.415-.91-.558-1.486c-.29-1.16-.462-2.724-.462-4.424s.172-3.264.462-4.425c.143-.574.326-1.092.558-1.485" clip-rule="evenodd"/></svg>