<svg viewBox="0 0 24 24"><path fill="currentColor" fill-rule="evenodd" d="M12 2.75a9.25 9.25 0 1 0 0 18.5a9.25 9.25 0 0 0 0-18.5M1.25 12C1.25 6.063 6.063 1.25 12 1.25S22.75 6.063 22.75 12S17.937 22.75 12 22.75S1.25 17.937 1.25 12m5.553-.75h2.55a2.74 2.74 0 0 1 .675-1.166l-1.276-2.21a5.25 5.25 0 0 0-1.949 3.376m3.248-4.126l1.275 2.21a2.76 2.76 0 0 1 1.348 0l1.275-2.21A5.2 5.2 0 0 0 12 6.75c-.689 0-1.347.133-1.95.374m5.197.75l-1.276 2.21c.314.322.549.721.675 1.166h2.55a5.25 5.25 0 0 0-1.95-3.375m1.949 4.876h-2.55a2.74 2.74 0 0 1-.675 1.166l1.276 2.21a5.25 5.25 0 0 0 1.949-3.376m-3.248 4.126l-1.275-2.21a2.75 2.75 0 0 1-1.348 0l-1.275 2.21c.602.241 1.26.374 1.949.374s1.347-.133 1.95-.374m-5.197-.75l1.276-2.21a2.75 2.75 0 0 1-.674-1.166h-2.55a5.25 5.25 0 0 0 1.948 3.375m2.634-3.037l-.011-.006l-.01-.006a1.25 1.25 0 0 1-.005-2.151l.015-.008l.015-.01a1.24 1.24 0 0 1 1.217 0l.018.01l.017.01a1.25 1.25 0 0 1-.01 2.15l-.007.005l-.008.005a1.24 1.24 0 0 1-1.231.001M5.25 12a6.75 6.75 0 1 1 13.5 0a6.75 6.75 0 0 1-13.5 0" clip-rule="evenodd"/></svg>