<svg viewBox="0 0 24 24"><path fill="currentColor" fill-rule="evenodd" d="M11.233 3.654C13.992.896 18.478.32 21.08 2.92s2.026 7.087-.733 9.845c-1.848 1.848-4.835 3.113-7.384 3.022a7 7 0 0 1-.667-.057L6.86 21.166a2.847 2.847 0 0 1-4.026-4.026l5.435-5.435a7 7 0 0 1-.057-.665c-.091-2.55 1.173-5.538 3.021-7.386m1.061 1.06c1.64-1.64 3.846-2.246 5.658-1.84a10 10 0 0 0-.796.426c-1.308.776-2.665 1.928-3.58 2.842c-.912.913-2.257 2.463-3.228 3.956c-.228.351-.443.71-.628 1.063l-.009-.175c-.075-2.098 1.003-4.691 2.583-6.272m7.138-.783c.409-.084.54.006.586.05c.046.046.135.179.051.587c-.082.404-.31.922-.659 1.51c-.693 1.17-1.756 2.429-2.612 3.285c-.858.857-2.327 2.13-3.713 3.032c-.699.454-1.332.784-1.83.936c-.248.076-.423.095-.533.087a.3.3 0 0 1-.094-.019l-.017-.01l-.01-.018a.3.3 0 0 1-.019-.093c-.008-.11.01-.285.086-.533c.153-.498.483-1.131.938-1.83c.901-1.385 2.174-2.855 3.031-3.712c.857-.856 2.116-1.92 3.285-2.613c.589-.35 1.107-.576 1.51-.659m-5.53 9.721c-.35.228-.709.443-1.062.628l.175.009c2.098.075 4.69-1.003 6.27-2.583c1.641-1.641 2.248-3.846 1.841-5.658a10 10 0 0 1-.426.796c-.776 1.308-1.927 2.665-2.842 3.58c-.913.913-2.463 2.257-3.956 3.228" clip-rule="evenodd"/></svg>