<svg viewBox="0 0 24 24"><path fill="currentColor" d="M16.5 4.75a4.75 4.75 0 0 0-4.391 2.934a.75.75 0 1 1-1.386-.574a6.252 6.252 0 0 1 11.553 0a.75.75 0 0 1-1.386.574A4.75 4.75 0 0 0 16.5 4.75"/><path fill="currentColor" d="M16.5 7.25a2.25 2.25 0 0 0-2.16 1.618a.75.75 0 1 1-1.44-.42a3.751 3.751 0 0 1 7.2 0a.75.75 0 1 1-1.44.42A2.25 2.25 0 0 0 16.5 7.25M6 17a1 1 0 1 0 0-2a1 1 0 0 0 0 2m3 0a1 1 0 1 0 0-2a1 1 0 0 0 0 2"/><path fill="currentColor" fill-rule="evenodd" d="M5.948 11.25h9.802V9a.75.75 0 0 1 1.5 0v2.25h.802c.899 0 1.648 0 2.242.08c.628.084 1.195.27 1.65.726c.456.455.642 1.022.726 1.65c.08.594.08 1.344.08 2.242v.104c0 .899 0 1.648-.08 2.242c-.084.628-.27 1.195-.726 1.65c-.455.456-1.022.642-1.65.726c-.594.08-1.343.08-2.242.08H5.948c-.898 0-1.648 0-2.242-.08c-.628-.084-1.195-.27-1.65-.726c-.456-.455-.642-1.022-.726-1.65c-.08-.594-.08-1.343-.08-2.242v-.104c0-.899 0-1.648.08-2.242c.084-.628.27-1.195.725-1.65c.456-.456 1.023-.642 1.65-.726c.595-.08 1.345-.08 2.243-.08M18 12.75c.964 0 1.612.002 2.095.066c.461.063.659.17.789.3s.237.328.3.79c.064.482.066 1.13.066 2.094s-.002 1.612-.067 2.095c-.062.461-.169.659-.3.789s-.327.237-.788.3c-.483.064-1.131.066-2.095.066H6c-.964 0-1.612-.002-2.095-.067c-.461-.062-.659-.169-.789-.3s-.237-.327-.3-.788c-.064-.483-.066-1.131-.066-2.095s.002-1.612.067-2.095c.062-.461.169-.659.3-.789s.327-.237.788-.3c.483-.064 1.131-.066 2.095-.066z" clip-rule="evenodd"/></svg>