<svg viewBox="0 0 24 24"><path fill="currentColor" d="M12.084 3.5a4.75 4.75 0 0 0-4.39 2.934a.75.75 0 1 1-1.387-.574a6.252 6.252 0 0 1 11.553 0a.75.75 0 0 1-1.386.574a4.75 4.75 0 0 0-4.39-2.934"/><path fill="currentColor" d="M12.085 6a2.25 2.25 0 0 0-2.16 1.618a.75.75 0 0 1-1.44-.42a3.751 3.751 0 0 1 7.2 0a.75.75 0 0 1-1.44.42A2.25 2.25 0 0 0 12.085 6"/><path fill="currentColor" d="M13.084 7.75a1 1 0 1 1-2 0a1 1 0 0 1 2 0"/><path fill="currentColor" fill-rule="evenodd" d="M3.651 4.378a.75.75 0 0 0-1.302.744l3.787 6.628H6c-1.886 0-2.828 0-3.414.586S2 13.864 2 15.75s0 2.828.586 3.414s1.528.586 3.414.586h12c1.886 0 2.828 0 3.414-.586S22 17.636 22 15.75s0-2.828-.586-3.414s-1.528-.586-3.414-.586h-.136l3.787-6.628a.75.75 0 0 0-1.302-.744l-4 7l-.22.372H7.88l-.23-.372zM6 16.75a1 1 0 1 0 0-2a1 1 0 0 0 0 2m4-1a1 1 0 1 1-2 0a1 1 0 0 1 2 0m4-.75a.75.75 0 0 0 0 1.5h4a.75.75 0 0 0 0-1.5z" clip-rule="evenodd"/></svg>