<svg viewBox="0 0 24 24"><path fill="currentColor" d="M2 6.21c0-1.984 0-2.977.659-3.593S4.379 2 6.5 2s3.182 0 3.841.617C11 3.233 11 4.226 11 6.21v11.58c0 1.984 0 2.977-.659 3.593S8.621 22 6.5 22s-3.182 0-3.841-.617C2 20.767 2 19.774 2 17.79z" opacity=".5"/><path fill="currentColor" d="M13 15.4c0-2.074 0-3.111.659-3.756S15.379 11 17.5 11s3.182 0 3.841.644C22 12.29 22 13.326 22 15.4v2.2c0 2.074 0 3.111-.659 3.756S19.621 22 17.5 22s-3.182 0-3.841-.644C13 20.71 13 19.674 13 17.6zm0-9.9c0-1.087 0-1.63.171-2.06a2.3 2.3 0 0 1 1.218-1.262C14.802 2 15.327 2 16.375 2h2.25c1.048 0 1.573 0 1.986.178c.551.236.99.69 1.218 1.262c.171.43.171.973.171 2.06s0 1.63-.171 2.06a2.3 2.3 0 0 1-1.218 1.262C20.198 9 19.673 9 18.625 9h-2.25c-1.048 0-1.573 0-1.986-.178a2.3 2.3 0 0 1-1.218-1.262C13 7.13 13 6.587 13 5.5"/></svg>