<svg viewBox="0 0 24 24"><path fill="none" stroke="currentColor" stroke-width="1.5" d="M2.5 6.5a4 4 0 1 1 8 0a4 4 0 0 1-8 0Zm11 11a4 4 0 1 1 8 0a4 4 0 0 1-8 0Zm8-11c0-1.886 0-2.828-.586-3.414S19.386 2.5 17.5 2.5s-2.828 0-3.414.586S13.5 4.614 13.5 6.5s0 2.828.586 3.414s1.528.586 3.414.586s2.828 0 3.414-.586s.586-1.528.586-3.414Zm-11 11c0-1.886 0-2.828-.586-3.414S8.386 13.5 6.5 13.5s-2.828 0-3.414.586S2.5 15.614 2.5 17.5s0 2.828.586 3.414s1.528.586 3.414.586s2.828 0 3.414-.586s.586-1.528.586-3.414Z"/></svg>