<svg viewBox="0 0 24 24"><g fill="none"><path fill="currentColor" d="M12.75 15.286a.75.75 0 0 0-1.5 0zm3 6.464a.75.75 0 0 0 0-1.5zm-7.5-1.5a.75.75 0 0 0 0 1.5zM8 3.75a.75.75 0 0 0 0-1.5zm4-1.5a.75.75 0 0 0 0 1.5zm-.75 13.036V21h1.5v-5.714zm4.5 4.964H12v1.5h3.75zm-3.75 0H8.25v1.5H12zm6.25-15.355V8h1.5V4.895zM5.75 8V4.895h-1.5V8zM12 14.25A6.25 6.25 0 0 1 5.75 8h-1.5A7.75 7.75 0 0 0 12 15.75zM18.25 8A6.25 6.25 0 0 1 12 14.25v1.5A7.75 7.75 0 0 0 19.75 8zm-1.145-4.25c.633 0 1.145.513 1.145 1.145h1.5a2.645 2.645 0 0 0-2.645-2.645zm-10.21-1.5A2.645 2.645 0 0 0 4.25 4.895h1.5c0-.632.513-1.145 1.145-1.145zm0 1.5H8v-1.5H6.895zm5.105 0h5.105v-1.5H12z"/><path stroke="currentColor" stroke-linecap="round" stroke-width="1.5" d="M5.5 9S7.581 8.087 9 8c1.233-.076 2.116.462 3 1m6.5 0s-2.081.913-3.5 1"/></g></svg>