<svg viewBox="0 0 24 24"><path fill="currentColor" d="M5 4.895C5 3.848 5.848 3 6.895 3h10.21C18.152 3 19 3.848 19 4.895V8q0 .126-.004.25a.8.8 0 0 0-.277.055l-.004.001l-.017.007a10 10 0 0 1-.331.126a21 21 0 0 1-.904.31c-.741.234-1.609.457-2.275.495c-1.084.062-1.86-.358-2.82-.898l-.044-.024c-.933-.524-2.05-1.151-3.597-1.064c-.862.05-1.88.322-2.641.563a22 22 0 0 0-1.083.374L5 8zm.213 4.825a7.01 7.01 0 0 0 6.037 5.24v5.29H8a.75.75 0 0 0 0 1.5h8a.75.75 0 0 0 0-1.5h-3.25v-5.29a7.01 7.01 0 0 0 5.99-5.06c-.226.081-.51.18-.825.279c-.762.24-1.78.514-2.642.563c-1.546.087-2.664-.54-3.597-1.064l-.043-.024c-.961-.54-1.737-.96-2.821-.898c-.666.038-1.534.261-2.274.495a21 21 0 0 0-1.236.436l-.016.007l-.004.001z"/></svg>