<svg viewBox="0 0 24 24"><path fill="currentColor" d="M4.666 9c-.932 0-1.398 0-1.765-.152a2 2 0 0 1-1.083-1.083c-.152-.367-.152-.833-.152-1.765s0-1.398.152-1.765a2 2 0 0 1 1.083-1.083C3.268 3 3.734 3 4.666 3h7.268a2 2 0 0 0-.116.235c-.152.367-.152.833-.152 1.765v4zm17-3c0 .932 0 1.398-.152 1.765a2 2 0 0 1-1.083 1.083C20.064 9 19.598 9 18.666 9h-1V5c0-.932 0-1.398-.152-1.765A2 2 0 0 0 17.398 3h1.268c.932 0 1.398 0 1.765.152a2 2 0 0 1 1.083 1.083c.152.367.152.833.152 1.765" opacity=".3"/><path fill="currentColor" d="M17.514 20.765c.152-.367.152-.833.152-1.765v-4h1c.932 0 1.398 0 1.765.152a2 2 0 0 1 1.083 1.083c.152.367.152.833.152 1.765s0 1.398-.152 1.765a2 2 0 0 1-1.083 1.083c-.367.152-.833.152-1.765.152h-1.268q.066-.113.116-.235m-5.58.235H4.666c-.932 0-1.398 0-1.765-.152a2 2 0 0 1-1.083-1.083c-.152-.367-.152-.833-.152-1.765s0-1.398.152-1.765a2 2 0 0 1 1.083-1.083C3.268 15 3.734 15 4.666 15h7v4c0 .932 0 1.398.152 1.765q.05.122.116.235" opacity=".7"/><path fill="currentColor" d="M17.666 9h1c.932 0 1.398 0 1.765.152a2 2 0 0 1 1.083 1.083c.152.367.152.833.152 1.765s0 1.398-.152 1.765a2 2 0 0 1-1.083 1.083c-.367.152-.833.152-1.765.152h-1zm-6 0v6h-7c-.932 0-1.398 0-1.765-.152a2 2 0 0 1-1.083-1.083c-.152-.367-.152-.833-.152-1.765s0-1.398.152-1.765a2 2 0 0 1 1.083-1.083C3.268 9 3.734 9 4.666 9z" opacity=".5"/><path fill="currentColor" fill-rule="evenodd" d="M17.514 3.235c.152.367.152.833.152 1.765v14c0 .932 0 1.398-.152 1.765a2 2 0 0 1-1.083 1.083c-.367.152-.833.152-1.765.152s-1.398 0-1.765-.152a2 2 0 0 1-1.083-1.083c-.152-.367-.152-.833-.152-1.765V5c0-.932 0-1.398.152-1.765q.05-.122.116-.235a2 2 0 0 1 .967-.848C13.268 2 13.734 2 14.666 2s1.398 0 1.765.152a2 2 0 0 1 1.083 1.083M15.416 11a.75.75 0 0 0-1.5 0v2a.75.75 0 0 0 1.5 0z" clip-rule="evenodd"/></svg>