<svg viewBox="0 0 24 24"><g fill="none"><path stroke="currentColor" stroke-linecap="round" stroke-width="1.5" d="M12.065 18A7.845 7.845 0 0 0 20 10.065c-.036-4.419-3.646-8.03-8.065-8.065A7.846 7.846 0 0 0 4 9.935c.036 4.419 3.646 8.03 8.065 8.065Z"/><path stroke="currentColor" stroke-linecap="round" stroke-linejoin="round" stroke-width="1.5" d="M12.857 7L10 10h4l-2.857 3" opacity=".5"/><path fill="currentColor" d="M11.25 22a.75.75 0 0 0 1.5 0zm-.133-1.076l-.287.693zm-.54-.541l-.694.287zm2.847 0l.693.287zm-.541.54l.287.694zM11.25 21v1h1.5v-1zm1.5-3v1.5h1.5V18zm-1.5 1.5V18h-1.5v1.5zm.75.75c-.243 0-.388 0-.496-.008c-.101-.007-.114-.017-.1-.011l-.574 1.386c.199.082.394.11.572.122c.17.011.375.011.598.011zm-2.25-.75c0 .223 0 .427.011.598c.012.178.04.373.122.572l1.386-.574c.006.014-.004.001-.011-.1a8 8 0 0 1-.008-.496zm1.654.731a.25.25 0 0 1-.135-.135l-1.386.574c.178.428.519.77.947.947zm1.346-.731c0 .243 0 .388-.008.496c-.007.101-.017.114-.011.1l1.386.574c.082-.199.11-.394.122-.572c.011-.17.011-.375.011-.598zM12 21.75c.223 0 .427 0 .598-.011c.178-.012.373-.04.572-.122l-.574-1.386c.014-.006.001.004-.1.011a8 8 0 0 1-.496.008zm.731-1.654a.25.25 0 0 1-.135.135l.574 1.386a1.75 1.75 0 0 0 .947-.947z" opacity=".5"/></g></svg>