<svg viewBox="0 0 24 24"><path fill="currentColor" fill-rule="evenodd" d="M12 22c-4.714 0-7.071 0-8.536-1.465C2 19.072 2 16.714 2 12s0-7.071 1.464-8.536C4.93 2 7.286 2 12 2s7.071 0 8.535 1.464C22 4.93 22 7.286 22 12s0 7.071-1.465 8.535C19.072 22 16.714 22 12 22M4.084 8.376a.75.75 0 0 1 1.04.208L6.5 10.648l1.376-2.064a.75.75 0 0 1 1.374.406a.75.75 0 0 1 1.374-.406L12 10.648l1.376-2.064a.75.75 0 0 1 1.374.406a.749.749 0 0 1 1.374-.406l1.376 2.064l1.376-2.064a.75.75 0 1 1 1.248.832L18.401 12l1.723 2.584a.75.75 0 1 1-1.248.832L17.5 13.352l-1.376 2.064a.75.75 0 0 1-1.374-.406a.749.749 0 0 1-1.374.406L12 13.352l-1.376 2.064a.75.75 0 0 1-1.374-.406a.749.749 0 0 1-1.374.406L6.5 13.352l-1.376 2.064a.75.75 0 1 1-1.248-.832L5.599 12L3.876 9.416a.75.75 0 0 1 .208-1.04" clip-rule="evenodd"/><path fill="currentColor" d="M9.124 9.416L7.401 12l1.723 2.584a.75.75 0 0 1 .126.405a.75.75 0 0 1 .126-.405L11.099 12L9.376 9.416a.75.75 0 0 1-.126-.404a.75.75 0 0 1-.126.404m5.5 0L12.901 12l1.723 2.584a.75.75 0 0 1 .126.405a.75.75 0 0 1 .126-.405L16.599 12l-1.723-2.584a.75.75 0 0 1-.126-.405a.75.75 0 0 1-.126.405"/></svg>